<svg width="33" height="32" viewBox="0 0 33 32" fill="none" xmlns="http://www.w3.org/2000/svg">
<path d="M16.5105 32C15.7634 32 15.0163 31.9732 14.5247 31.9208C10.0717 31.447 6.00689 28.9798 3.3711 25.1526C0.649747 21.2027 -0.231404 16.3653 0.952403 11.8804C1.84632 8.49626 3.71334 5.59996 6.35169 3.50691C8.79847 1.56454 11.7893 0.378184 14.9997 0.075528C18.2255 -0.227128 21.4028 0.383292 24.1892 1.84421C27.1915 3.41879 29.577 5.92305 31.0903 9.08753C33.2894 13.6861 33.0582 19.1978 30.4709 23.8296C27.899 28.4358 23.5328 31.3845 18.495 31.9208C18.0033 31.9732 17.2562 32 16.5092 32H16.5105ZM16.5692 1.27977C16.075 1.27977 15.591 1.30275 15.1198 1.34745C10.1304 1.8174 4.11305 4.91675 2.18729 12.206C1.09798 16.3308 1.91273 20.7864 4.42209 24.4298C6.8459 27.9493 10.5774 30.2173 14.66 30.6515C15.5591 30.7472 17.4618 30.7472 18.3609 30.6515C22.9812 30.1598 26.9898 27.4461 29.3574 23.2064C31.7416 18.936 31.96 13.8636 29.9384 9.63793C26.9783 3.44561 21.3376 1.27977 16.5692 1.27977Z" fill="#6F03E0"/>
<path d="M21.8617 6.42879V9.4362C20.9741 9.48217 19.3638 9.22293 18.687 9.8921C18.6372 9.94062 18.2272 10.6915 18.2272 10.7388V13.6453H21.6599L21.0546 17.2542H18.2272V25.6736H14.391V17.2542H11.4628L11.1602 16.9541V13.6466H14.391V9.73758C14.391 9.40682 14.9593 8.27027 15.1994 7.93441C16.7587 5.76474 19.5017 6.10187 21.8617 6.43007V6.42879Z" fill="#6F03E0"/>
</svg>
