<svg width="34" height="32" viewBox="0 0 34 32" fill="none" xmlns="http://www.w3.org/2000/svg">
<g clip-path="url(#clip0_1394_257)">
<path d="M20.1349 19.6776C20.625 20.1558 20.8556 20.7587 20.9002 21.4076C20.9726 22.4395 20.8411 23.5392 20.9002 24.5787L20.9908 24.7702L21.3396 24.9267L14.6441 25L14.9881 24.837C15.0641 24.7702 15.1196 24.6641 15.1377 24.5711C15.1945 24.2669 15.1667 23.5961 15.1486 23.2656C15.1389 23.096 15.0738 22.9187 15.1064 22.7382C14.0176 22.9297 12.7876 22.9176 11.9089 22.2283C11.1098 21.6024 11.0639 20.6591 10.2419 20.0212C10.0669 19.8855 9.43319 19.5725 9.43802 19.3646C9.44647 19.0276 10.4145 19.2399 10.6173 19.3165C11.6083 19.6885 11.7387 20.5212 12.4967 21.0027C13.3018 21.5159 14.2361 21.4667 15.1064 21.1154C15.2621 20.5978 15.4105 20.101 15.8704 19.7301C15.5349 19.636 15.1667 19.6218 14.8179 19.555C12.6705 19.1436 11.1991 18.1183 10.7428 16.1037C10.4037 14.6046 10.5364 12.9545 11.7628 11.8121C11.7254 11.5648 11.6119 11.3361 11.5721 11.0866C11.4985 10.6183 11.5528 10.1116 11.6674 9.65095C11.6904 9.55794 11.8389 9.08413 11.8895 9.0502C12.1189 8.8992 12.965 9.12899 13.2366 9.21325C13.915 9.42334 14.5101 9.78335 15.1245 10.0908C17.0159 9.63453 19.022 9.65423 20.9147 10.0886C21.5508 9.75381 22.1785 9.37957 22.887 9.17604C23.1116 9.11148 23.983 8.90576 24.1351 9.06771C24.181 9.11695 24.3198 9.58201 24.344 9.68049C24.5154 10.3863 24.5081 11.0932 24.2438 11.7782C25.4931 12.9676 25.6246 14.5937 25.2613 16.1399C24.8533 17.8764 23.6861 18.9192 21.8224 19.4018C21.2792 19.543 20.6974 19.6404 20.1337 19.6754L20.1349 19.6776Z" fill="#6F03E0"/>
<path d="M17.4899 32C16.7698 32 16.0418 31.9757 15.543 31.9259C11.2288 31.503 7.16858 29.2262 4.40331 25.6782C1.58173 22.0586 0.394181 17.5396 1.14442 13.2824C1.77158 9.71906 3.49202 6.59904 6.11851 4.25967C8.5486 2.09405 11.6124 0.688637 14.98 0.192909C18.3554 -0.302819 21.7177 0.160968 24.7029 1.537C27.9317 3.02546 30.5281 5.52326 32.2119 8.7621C34.6118 13.3795 34.4822 18.9424 31.8649 23.6429C29.279 28.2871 24.6205 31.3829 19.4041 31.9246C18.9302 31.9744 18.2127 31.9987 17.4899 31.9987V32ZM17.5934 1.27763C16.796 1.27763 15.9894 1.3364 15.175 1.4565C8.55253 2.43007 3.55225 7.15737 2.4354 13.4983C1.7467 17.408 2.84391 21.5667 5.44683 24.9052C7.99214 28.1709 11.7211 30.2675 15.6752 30.6546C16.5904 30.7441 18.4038 30.7441 19.2667 30.6546C24.1268 30.1499 28.2996 27.3723 30.7153 23.0334C33.1271 18.7009 33.2502 13.5827 31.0453 9.34088C28.4149 4.28139 23.2967 1.27891 17.5947 1.27891L17.5934 1.27763Z" fill="#6F03E0"/>
</g>
<defs>
<clipPath id="clip0_1394_257">
<rect width="33" height="32" fill="white" transform="translate(0.924316)"/>
</clipPath>
</defs>
</svg>
