<svg width="33" height="32" viewBox="0 0 33 32" fill="none" xmlns="http://www.w3.org/2000/svg">
<path d="M16.7993 31.9918C16.065 31.9918 15.3333 31.965 14.857 31.919C10.5291 31.5002 6.65205 29.2883 3.94092 25.6884C1.157 21.9927 0.0319317 17.3366 0.851785 12.9143C1.48391 9.50842 3.12873 6.51378 5.61 4.25216C7.90993 2.15656 10.8075 0.769704 13.9924 0.241013C17.2042 -0.291508 20.4312 0.0916007 23.3211 1.35331C26.4409 2.71462 29.0014 5.05159 30.7228 8.11263C33.3496 12.7802 33.4122 18.4859 30.8914 23.3744C28.4177 28.1697 23.8307 31.3635 18.6204 31.9177C18.1389 31.9688 17.4672 31.9918 16.7993 31.9918ZM16.7891 1.28945C15.8952 1.28945 15.0255 1.36352 14.2019 1.50144C9.24698 2.32257 3.46842 5.81525 2.10838 13.1467C1.35238 17.2191 2.39316 21.5099 4.96127 24.9196C7.45403 28.2297 11.0118 30.264 14.9808 30.6471C15.8926 30.7352 17.6613 30.7352 18.4863 30.6471C23.2688 30.1376 27.4817 27.2004 29.7574 22.7883C32.0803 18.2829 32.0266 13.0305 29.6118 8.73837C26.5048 3.21905 21.3302 1.28945 16.7891 1.28945Z" fill="#6F03E0"/>
<path d="M22.9957 20.859H20.3701V15.346C20.3701 14.6475 19.0126 14.2465 18.3549 14.5479C18.2502 14.5951 17.544 15.2898 17.544 15.346V20.859H14.9185V12.4395H17.3423L17.4419 13.4407C18.2528 11.8661 21.1772 11.7984 22.2997 13.0295C22.4836 13.2313 22.9957 14.1622 22.9957 14.3435V20.859Z" fill="#6F03E0"/>
<path d="M13.1016 12.4395H10.4761V20.8589H13.1016V12.4395Z" fill="#6F03E0"/>
<path d="M11.2241 8.26997C13.8561 7.47949 13.9187 11.2953 11.809 11.2276C9.98284 11.1688 9.7683 8.70672 11.2241 8.26997Z" fill="#6F03E0"/>
</svg>
