<svg width="33" height="32" viewBox="0 0 33 32" fill="none" xmlns="http://www.w3.org/2000/svg">
<path d="M16.8954 31.9923C16.193 31.9923 15.483 31.968 14.9965 31.9182C10.7886 31.4955 6.82857 29.2199 4.13148 25.6735C1.37949 22.0557 0.221219 17.5389 0.952957 13.2838C1.56465 9.72216 3.24267 6.60366 5.80439 4.26541C8.17456 2.10085 11.1628 0.696116 14.4473 0.200628C17.7395 -0.29486 21.0189 0.168702 23.9306 1.54406C27.0797 3.0318 29.6121 5.5284 31.2543 8.76567C33.5951 13.3809 33.4687 18.941 30.9159 23.6392C28.3938 28.2812 23.8501 31.3755 18.7624 31.9169C18.3001 31.9667 17.6003 31.991 16.8954 31.991V31.9923ZM16.9963 1.28483C16.2186 1.28483 15.4319 1.34357 14.6376 1.46361C8.17839 2.43671 3.30141 7.16172 2.21211 13.4996C1.54039 17.4073 2.61054 21.5641 5.14928 24.9009C7.63182 28.165 11.2688 30.2606 15.1254 30.6476C16.0181 30.737 17.7868 30.737 18.6283 30.6476C23.3687 30.1431 27.4386 27.3669 29.7947 23.0301C32.147 18.6997 32.267 13.5839 30.1165 9.34416C27.5509 4.28712 22.559 1.2861 16.9976 1.2861L16.9963 1.28483Z" fill="#6F03E0"/>
<path d="M14.2532 9.03125L17.585 14.0398L21.8107 9.2177L23.1375 9.0338L18.2937 14.9465L23.5411 22.8653H19.604L15.9619 17.6538C15.7244 17.5976 15.603 17.8236 15.4562 17.9462C14.3247 18.9001 12.3849 22.0863 11.3352 22.675C10.9406 22.8972 10.652 22.9062 10.2153 22.864L15.2646 16.7535L10.0122 9.03253H14.2519L14.2532 9.03125ZM21.9243 22.0608L13.7565 10.2253C13.2444 9.58165 12.3556 9.88941 11.6264 9.83578L20.0075 21.8603L21.9231 22.0608H21.9243Z" fill="#6F03E0"/>
</svg>
