<svg xmlns="http://www.w3.org/2000/svg" xmlns:xlink="http://www.w3.org/1999/xlink" width="500" zoomAndPan="magnify" viewBox="0 0 375 374.999991" height="500" preserveAspectRatio="xMidYMid meet" version="1.0"><defs><clipPath id="b7a063b9b0"><path d="M 200 25.042969 L 247 25.042969 L 247 71 L 200 71 Z M 200 25.042969 " clip-rule="nonzero"/></clipPath><clipPath id="1e0122b7b5"><path d="M 24.175781 82 L 301 82 L 301 325.792969 L 24.175781 325.792969 Z M 24.175781 82 " clip-rule="nonzero"/></clipPath></defs><path fill="#d514e6" d="M 251.367188 70.558594 L 241.148438 74.179688 C 241.148438 80.777344 241.148438 80.796875 241.140625 87.402344 L 251.347656 91.042969 C 252.933594 94.886719 253.738281 96.828125 255.332031 100.667969 L 250.671875 110.457031 C 255.332031 115.125 255.351562 115.136719 260.011719 119.808594 L 269.808594 115.15625 C 273.648438 116.75 275.582031 117.550781 279.425781 119.148438 L 283.046875 129.367188 C 289.644531 129.367188 289.664062 129.367188 296.269531 129.375 L 299.910156 119.164062 C 303.75 117.582031 305.695312 116.777344 309.535156 115.183594 L 319.324219 119.84375 C 323.992188 115.183594 324.003906 115.164062 328.675781 110.503906 L 324.023438 100.707031 C 325.617188 96.867188 326.417969 94.933594 328.015625 91.089844 L 338.234375 87.46875 C 338.234375 80.871094 338.234375 80.851562 338.242188 74.246094 L 328.03125 70.613281 C 326.445312 66.773438 325.644531 64.828125 324.050781 60.988281 L 328.710938 51.203125 C 324.050781 46.53125 324.03125 46.523438 319.371094 41.851562 L 309.574219 46.503906 C 305.734375 44.90625 303.800781 44.105469 299.957031 42.511719 L 296.335938 32.292969 C 289.738281 32.292969 289.71875 32.292969 283.113281 32.28125 L 279.472656 42.492188 C 275.628906 44.078125 273.6875 44.878906 269.84375 46.472656 L 260.058594 41.8125 C 255.386719 46.472656 255.378906 46.492188 250.707031 51.15625 L 255.359375 60.949219 C 253.765625 64.78125 252.953125 66.714844 251.367188 70.558594 Z M 289.699219 60.46875 C 300.941406 60.480469 310.046875 69.59375 310.035156 80.832031 C 310.027344 92.074219 300.910156 101.179688 289.671875 101.171875 C 278.433594 101.160156 269.328125 92.054688 269.335938 80.816406 C 269.34375 69.574219 278.460938 60.460938 289.699219 60.46875 Z M 289.699219 60.46875 " fill-opacity="1" fill-rule="nonzero"/><path fill="#d514e6" d="M 205.242188 134.6875 C 205.242188 138.417969 205.242188 138.425781 205.230469 142.152344 L 210.996094 144.210938 C 211.894531 146.382812 212.347656 147.476562 213.242188 149.648438 L 210.609375 155.175781 C 213.242188 157.808594 213.253906 157.820312 215.886719 160.460938 L 221.417969 157.835938 C 223.585938 158.734375 224.679688 159.195312 226.851562 160.09375 L 228.898438 165.859375 C 232.628906 165.859375 232.636719 165.859375 236.363281 165.867188 L 238.421875 160.101562 C 240.589844 159.207031 241.6875 158.753906 243.855469 157.855469 L 249.386719 160.488281 C 252.019531 157.855469 252.027344 157.847656 254.671875 155.214844 L 252.046875 149.683594 C 252.945312 147.515625 253.40625 146.417969 254.304688 144.25 L 260.070312 142.199219 C 260.070312 138.472656 260.070312 138.464844 260.078125 134.738281 L 254.3125 132.679688 C 253.417969 130.507812 252.964844 129.414062 252.066406 127.242188 L 254.699219 121.714844 C 252.066406 119.082031 252.058594 119.070312 249.425781 116.429688 L 243.894531 119.050781 C 241.722656 118.15625 240.628906 117.695312 238.457031 116.796875 L 236.410156 111.03125 C 232.683594 111.03125 232.675781 111.03125 228.945312 111.023438 L 226.890625 116.789062 C 224.71875 117.683594 223.625 118.136719 221.453125 119.035156 L 215.925781 116.402344 C 213.292969 119.035156 213.28125 119.042969 210.640625 121.675781 L 213.261719 127.207031 C 212.367188 129.375 211.902344 130.472656 211.007812 132.640625 Z M 232.65625 126.941406 C 239.007812 126.941406 244.148438 132.09375 244.140625 138.445312 C 244.140625 144.796875 238.988281 149.9375 232.636719 149.929688 C 226.285156 149.929688 221.140625 144.777344 221.152344 138.425781 C 221.160156 132.074219 226.3125 126.941406 232.65625 126.941406 Z M 232.65625 126.941406 " fill-opacity="1" fill-rule="nonzero"/><path fill="#d514e6" d="M 173.761719 163.300781 C 173.761719 165.800781 173.761719 165.8125 173.761719 168.320312 L 177.640625 169.699219 C 178.242188 171.164062 178.546875 171.898438 179.148438 173.351562 L 177.382812 177.070312 C 179.160156 178.84375 179.160156 178.84375 180.933594 180.617188 L 184.652344 178.851562 C 186.105469 179.457031 186.839844 179.757812 188.300781 180.371094 L 189.679688 184.25 C 192.179688 184.25 192.191406 184.25 194.699219 184.25 L 196.078125 180.371094 C 197.542969 179.769531 198.277344 179.464844 199.730469 178.863281 L 203.449219 180.628906 C 205.222656 178.851562 205.222656 178.851562 206.996094 177.078125 L 205.230469 173.359375 C 205.835938 171.90625 206.136719 171.171875 206.75 169.710938 L 210.628906 168.332031 C 210.628906 165.832031 210.628906 165.820312 210.628906 163.3125 L 206.75 161.933594 C 206.148438 160.46875 205.84375 159.734375 205.242188 158.28125 L 207.007812 154.5625 C 205.230469 152.789062 205.230469 152.789062 203.457031 151.015625 L 199.738281 152.78125 C 198.285156 152.175781 197.550781 151.875 196.089844 151.261719 L 194.710938 147.382812 C 192.210938 147.382812 192.199219 147.382812 189.691406 147.382812 L 188.3125 151.261719 C 186.847656 151.863281 186.113281 152.167969 184.660156 152.769531 L 180.941406 151.003906 C 179.167969 152.78125 179.167969 152.78125 177.394531 154.554688 L 179.160156 158.273438 C 178.554688 159.726562 178.253906 160.460938 177.640625 161.921875 Z M 192.191406 158.101562 C 196.457031 158.101562 199.910156 161.566406 199.910156 165.832031 C 199.910156 170.097656 196.445312 173.550781 192.179688 173.550781 C 187.914062 173.550781 184.460938 170.085938 184.460938 165.820312 C 184.460938 161.546875 187.925781 158.09375 192.191406 158.101562 Z M 192.191406 158.101562 " fill-opacity="1" fill-rule="nonzero"/><path fill="#d514e6" d="M 297.796875 155.828125 C 297.796875 153.328125 297.796875 153.316406 297.796875 150.808594 L 293.917969 149.429688 C 293.316406 147.96875 293.011719 147.230469 292.410156 145.777344 L 294.171875 142.058594 C 292.398438 140.285156 292.398438 140.285156 290.625 138.511719 L 286.90625 140.277344 C 285.453125 139.671875 284.71875 139.371094 283.253906 138.757812 L 281.878906 134.878906 C 279.375 134.878906 279.367188 134.878906 276.855469 134.878906 L 275.480469 138.757812 C 274.015625 139.359375 273.28125 139.664062 271.828125 140.265625 L 268.109375 138.5 C 266.335938 140.277344 266.335938 140.277344 264.5625 142.050781 L 266.324219 145.769531 C 265.722656 147.222656 265.417969 147.957031 264.804688 149.421875 L 260.929688 150.796875 C 260.929688 153.296875 260.929688 153.308594 260.929688 155.816406 L 264.804688 157.195312 C 265.410156 158.660156 265.710938 159.394531 266.316406 160.847656 L 264.550781 164.566406 C 266.324219 166.339844 266.324219 166.339844 268.101562 168.113281 L 271.816406 166.347656 C 273.269531 166.953125 274.007812 167.253906 275.46875 167.867188 L 276.847656 171.746094 C 279.347656 171.746094 279.359375 171.746094 281.867188 171.746094 L 283.246094 167.867188 C 284.707031 167.265625 285.445312 166.964844 286.898438 166.359375 L 290.617188 168.125 C 292.390625 166.347656 292.390625 166.347656 294.164062 164.574219 L 292.398438 160.855469 C 293.003906 159.402344 293.304688 158.667969 293.917969 157.207031 Z M 279.367188 161.027344 C 275.101562 161.027344 271.648438 157.5625 271.648438 153.296875 C 271.648438 149.03125 275.109375 145.578125 279.375 145.578125 C 283.640625 145.578125 287.097656 149.042969 287.097656 153.308594 C 287.097656 157.574219 283.632812 161.027344 279.367188 161.027344 Z M 279.367188 161.027344 " fill-opacity="1" fill-rule="nonzero"/><path fill="#d514e6" d="M 201.128906 102.21875 L 199.363281 105.933594 C 201.136719 107.710938 201.136719 107.710938 202.910156 109.484375 L 206.628906 107.71875 C 208.082031 108.324219 208.816406 108.625 210.28125 109.238281 L 211.660156 113.117188 C 214.160156 113.117188 214.167969 113.117188 216.679688 113.117188 L 218.058594 109.238281 C 219.519531 108.632812 220.253906 108.332031 221.707031 107.726562 L 225.425781 109.492188 C 227.199219 107.71875 227.199219 107.71875 228.976562 105.945312 L 227.210938 102.226562 C 227.8125 100.773438 228.117188 100.039062 228.730469 98.574219 L 232.609375 97.195312 C 232.609375 94.695312 232.609375 94.6875 232.609375 92.175781 L 228.730469 90.800781 C 228.125 89.335938 227.824219 88.601562 227.21875 87.148438 L 228.984375 83.429688 C 227.210938 81.65625 227.210938 81.65625 225.4375 79.878906 L 221.71875 81.644531 C 220.265625 81.042969 219.527344 80.738281 218.066406 80.125 L 216.6875 76.246094 C 214.1875 76.246094 214.179688 76.246094 211.667969 76.246094 L 210.289062 80.125 C 208.828125 80.730469 208.089844 81.03125 206.636719 81.636719 L 202.921875 79.871094 C 201.144531 81.644531 201.144531 81.644531 199.371094 83.417969 L 201.136719 87.136719 C 200.53125 88.589844 200.230469 89.328125 199.617188 90.789062 L 195.738281 92.167969 C 195.738281 94.667969 195.738281 94.675781 195.738281 97.1875 L 199.617188 98.566406 C 200.222656 100.027344 200.523438 100.765625 201.128906 102.21875 Z M 214.179688 86.96875 C 218.445312 86.96875 221.898438 90.429688 221.898438 94.695312 C 221.898438 98.960938 218.433594 102.414062 214.167969 102.414062 C 209.902344 102.414062 206.449219 98.953125 206.449219 94.6875 C 206.449219 90.421875 209.914062 86.957031 214.179688 86.96875 Z M 214.179688 86.96875 " fill-opacity="1" fill-rule="nonzero"/><g clip-path="url(#b7a063b9b0)"><path fill="#d514e6" d="M 207.421875 57.328125 L 205.222656 61.949219 C 207.421875 64.160156 207.429688 64.160156 209.628906 66.367188 L 214.253906 64.179688 C 216.066406 64.933594 216.980469 65.308594 218.792969 66.066406 L 220.5 70.886719 C 223.613281 70.886719 223.625 70.886719 226.738281 70.886719 L 228.457031 66.066406 C 230.269531 65.320312 231.183594 64.933594 232.996094 64.1875 L 237.617188 66.386719 C 239.828125 64.1875 239.828125 64.179688 242.035156 61.980469 L 239.847656 57.355469 C 240.601562 55.542969 240.980469 54.628906 241.734375 52.816406 L 246.554688 51.109375 C 246.554688 47.992188 246.554688 47.984375 246.554688 44.871094 L 241.734375 43.152344 C 240.988281 41.339844 240.601562 40.425781 239.855469 38.613281 L 242.054688 33.988281 C 239.855469 31.78125 239.847656 31.78125 237.648438 29.574219 L 233.023438 31.761719 C 231.210938 31.007812 230.296875 30.628906 228.484375 29.875 L 226.777344 25.042969 C 223.660156 25.042969 223.652344 25.042969 220.539062 25.042969 L 218.820312 29.867188 C 217.007812 30.613281 216.09375 31 214.28125 31.742188 L 209.65625 29.546875 C 207.449219 31.742188 207.449219 31.753906 205.242188 33.953125 L 207.429688 38.574219 C 206.675781 40.386719 206.296875 41.304688 205.542969 43.113281 L 200.722656 44.824219 C 200.722656 47.9375 200.722656 47.945312 200.722656 51.0625 L 205.542969 52.789062 C 206.296875 54.597656 206.675781 55.515625 207.421875 57.328125 Z M 223.652344 38.359375 C 228.957031 38.359375 233.257812 42.671875 233.257812 47.976562 C 233.257812 53.277344 228.945312 57.582031 223.644531 57.582031 C 218.339844 57.582031 214.035156 53.269531 214.035156 47.964844 C 214.035156 42.652344 218.339844 38.347656 223.652344 38.359375 Z M 223.652344 38.359375 " fill-opacity="1" fill-rule="nonzero"/></g><path fill="#d514e6" d="M 350.738281 153.175781 C 350.738281 150.0625 350.738281 150.050781 350.738281 146.9375 L 345.914062 145.222656 C 345.167969 143.410156 344.78125 142.492188 344.039062 140.683594 L 346.234375 136.058594 C 344.039062 133.847656 344.027344 133.847656 341.828125 131.640625 L 337.207031 133.832031 C 335.394531 133.074219 334.476562 132.699219 332.667969 131.941406 L 330.957031 127.121094 C 327.84375 127.121094 327.835938 127.121094 324.71875 127.121094 L 323.003906 131.941406 C 321.191406 132.6875 320.277344 133.074219 318.464844 133.820312 L 313.839844 131.621094 C 311.632812 133.820312 311.632812 133.832031 309.421875 136.03125 L 311.621094 140.652344 C 310.867188 142.464844 310.488281 143.378906 309.734375 145.191406 L 304.914062 146.902344 C 304.914062 150.015625 304.914062 150.023438 304.914062 153.136719 L 309.734375 154.855469 C 310.480469 156.667969 310.867188 157.582031 311.613281 159.394531 L 309.414062 164.019531 C 311.613281 166.226562 311.621094 166.226562 313.820312 168.433594 L 318.445312 166.246094 C 320.257812 167 321.171875 167.378906 322.984375 168.132812 L 324.691406 172.957031 C 327.804688 172.957031 327.816406 172.957031 330.929688 172.957031 L 332.648438 168.132812 C 334.457031 167.386719 335.375 167 337.1875 166.253906 L 341.808594 168.453125 C 344.019531 166.253906 344.019531 166.246094 346.226562 164.046875 L 344.027344 159.421875 C 344.78125 157.609375 345.160156 156.695312 345.914062 154.882812 Z M 327.816406 159.648438 C 322.511719 159.648438 318.207031 155.335938 318.207031 150.035156 C 318.207031 144.730469 322.523438 140.425781 327.824219 140.425781 C 333.128906 140.425781 337.429688 144.738281 337.429688 150.042969 C 337.429688 155.347656 333.128906 159.660156 327.816406 159.648438 Z M 327.816406 159.648438 " fill-opacity="1" fill-rule="nonzero"/><path fill="#d514e6" d="M 172.617188 176.511719 L 170.402344 177.570312 C 169.53125 177.210938 169.089844 177.023438 168.222656 176.664062 L 167.398438 174.34375 C 165.898438 174.34375 165.898438 174.34375 164.398438 174.34375 L 163.578125 176.65625 C 162.710938 177.011719 162.265625 177.191406 161.398438 177.558594 L 159.179688 176.503906 C 158.125 177.558594 158.113281 177.558594 157.058594 178.625 L 158.113281 180.84375 C 157.753906 181.710938 157.566406 182.15625 157.207031 183.023438 L 154.886719 183.84375 C 154.886719 185.347656 154.886719 185.347656 154.886719 186.847656 L 157.199219 187.667969 C 157.558594 188.535156 157.738281 188.980469 158.105469 189.847656 L 157.039062 192.074219 C 158.09375 193.132812 158.09375 193.140625 159.160156 194.199219 L 161.378906 193.140625 C 162.246094 193.5 162.691406 193.6875 163.558594 194.046875 L 164.378906 196.367188 C 165.882812 196.367188 165.882812 196.367188 167.382812 196.367188 L 168.203125 194.054688 C 169.070312 193.699219 169.515625 193.519531 170.382812 193.148438 L 172.601562 194.207031 C 173.65625 193.148438 173.667969 193.148438 174.722656 192.082031 L 173.667969 189.867188 C 174.023438 188.996094 174.214844 188.554688 174.570312 187.6875 L 176.894531 186.863281 C 176.894531 185.363281 176.894531 185.363281 176.894531 183.863281 L 174.582031 183.042969 C 174.222656 182.175781 174.042969 181.730469 173.675781 180.863281 L 174.734375 178.644531 C 173.675781 177.570312 173.675781 177.570312 172.617188 176.511719 Z M 165.882812 189.96875 C 163.332031 189.96875 161.265625 187.902344 161.265625 185.347656 C 161.265625 182.789062 163.332031 180.730469 165.890625 180.730469 C 168.4375 180.730469 170.503906 182.796875 170.503906 185.355469 C 170.503906 187.902344 168.429688 189.96875 165.882812 189.96875 Z M 165.882812 189.96875 " fill-opacity="1" fill-rule="nonzero"/><path fill="#d514e6" d="M 234.421875 183.308594 C 234.421875 181.808594 234.421875 181.808594 234.421875 180.304688 L 232.109375 179.484375 C 231.75 178.617188 231.570312 178.175781 231.203125 177.304688 L 232.257812 175.089844 C 231.203125 174.03125 231.203125 174.023438 230.136719 172.964844 L 227.917969 174.023438 C 227.050781 173.664062 226.605469 173.472656 225.738281 173.117188 L 224.917969 170.792969 C 223.417969 170.792969 223.417969 170.792969 221.917969 170.792969 L 221.09375 173.105469 C 220.226562 173.464844 219.785156 173.644531 218.914062 174.011719 L 216.699219 172.957031 C 215.640625 174.011719 215.632812 174.011719 214.574219 175.078125 L 215.632812 177.296875 C 215.273438 178.164062 215.085938 178.609375 214.726562 179.476562 L 212.402344 180.296875 C 212.402344 181.796875 212.402344 181.796875 212.402344 183.296875 L 214.714844 184.117188 C 215.074219 184.988281 215.253906 185.429688 215.621094 186.300781 L 214.566406 188.515625 C 215.621094 189.574219 215.621094 189.582031 216.6875 190.640625 L 218.90625 189.582031 C 219.773438 189.941406 220.21875 190.128906 221.085938 190.488281 L 221.90625 192.808594 C 223.40625 192.808594 223.40625 192.808594 224.90625 192.808594 L 225.730469 190.5 C 226.597656 190.140625 227.039062 189.960938 227.910156 189.59375 L 230.125 190.648438 C 231.183594 189.59375 231.191406 189.59375 232.25 188.527344 L 231.191406 186.308594 C 231.550781 185.441406 231.738281 184.996094 232.097656 184.128906 Z M 223.40625 186.414062 C 220.859375 186.414062 218.792969 184.34375 218.792969 181.789062 C 218.792969 179.230469 220.859375 177.171875 223.417969 177.171875 C 225.964844 177.171875 228.03125 179.238281 228.03125 181.796875 C 228.03125 184.355469 225.957031 186.414062 223.40625 186.414062 Z M 223.40625 186.414062 " fill-opacity="1" fill-rule="nonzero"/><path fill="#d514e6" d="M 185.621094 124.09375 C 184.753906 124.449219 184.3125 124.628906 183.441406 124.996094 L 181.226562 123.941406 C 180.167969 124.996094 180.160156 124.996094 179.101562 126.0625 L 180.160156 128.28125 C 179.800781 129.148438 179.609375 129.59375 179.253906 130.460938 L 176.929688 131.28125 C 176.929688 132.78125 176.929688 132.78125 176.929688 134.285156 L 179.242188 135.105469 C 179.601562 135.972656 179.78125 136.417969 180.148438 137.285156 L 179.09375 139.503906 C 180.148438 140.558594 180.148438 140.570312 181.214844 141.625 L 183.433594 140.570312 C 184.300781 140.925781 184.746094 141.117188 185.613281 141.472656 L 186.433594 143.796875 C 187.933594 143.796875 187.933594 143.796875 189.433594 143.796875 L 190.257812 141.484375 C 191.125 141.125 191.566406 140.945312 192.4375 140.578125 L 194.652344 141.632812 C 195.710938 140.578125 195.71875 140.578125 196.777344 139.511719 L 195.71875 137.292969 C 196.078125 136.425781 196.265625 135.980469 196.625 135.113281 L 198.949219 134.292969 C 198.949219 132.792969 198.949219 132.792969 198.949219 131.292969 L 196.636719 130.472656 C 196.277344 129.601562 196.097656 129.160156 195.730469 128.292969 L 196.785156 126.074219 C 195.730469 125.015625 195.730469 125.007812 194.664062 123.949219 L 192.445312 125.007812 C 191.578125 124.648438 191.132812 124.460938 190.265625 124.101562 L 189.445312 121.78125 C 187.945312 121.78125 187.945312 121.78125 186.445312 121.78125 Z M 192.558594 132.792969 C 192.558594 135.339844 190.492188 137.40625 187.933594 137.40625 C 185.386719 137.40625 183.320312 135.339844 183.320312 132.78125 C 183.320312 130.226562 185.386719 128.167969 187.945312 128.167969 C 190.492188 128.179688 192.558594 130.246094 192.558594 132.792969 Z M 192.558594 132.792969 " fill-opacity="1" fill-rule="nonzero"/><path fill="#d514e6" d="M 161.417969 115.917969 L 61.925781 115.855469 C 60.105469 115.855469 58.621094 117.324219 58.621094 119.15625 L 58.539062 233.292969 C 58.539062 235.113281 60.011719 236.597656 61.839844 236.597656 L 270.769531 236.746094 C 272.589844 236.746094 274.074219 235.277344 274.074219 233.445312 L 274.109375 177.964844 L 267.503906 177.964844 L 267.496094 179.363281 L 267.457031 230.140625 L 65.132812 230 L 65.191406 146.089844 L 148.054688 146.144531 L 148.054688 146.164062 L 167.824219 146.175781 L 167.824219 139.566406 L 160.125 139.558594 C 160.125 139.550781 160.132812 139.539062 160.132812 139.539062 L 65.21875 139.484375 L 65.226562 122.46875 L 167.464844 122.542969 C 167.464844 122.535156 167.476562 122.523438 167.476562 122.523438 L 173.117188 122.523438 L 173.117188 115.917969 Z M 161.417969 115.917969 " fill-opacity="1" fill-rule="nonzero"/><g clip-path="url(#1e0122b7b5)"><path fill="#d514e6" d="M 291.257812 172.804688 L 291.199219 247.269531 L 33.710938 247.089844 L 33.8125 101.886719 C 33.8125 96.214844 38.429688 91.609375 44.101562 91.621094 L 182.113281 91.714844 L 182.113281 91.769531 L 188.859375 91.78125 L 188.867188 82.285156 L 44.109375 82.183594 C 33.238281 82.171875 24.386719 91.015625 24.375 101.886719 L 24.261719 271.851562 C 24.253906 282.722656 33.097656 291.574219 43.96875 291.585938 L 125.878906 291.640625 L 117.367188 316.035156 L 94.425781 316.015625 C 91.820312 316.015625 89.707031 318.128906 89.707031 320.734375 C 89.707031 323.339844 91.820312 325.453125 94.425781 325.453125 L 224.066406 325.546875 C 226.671875 325.546875 228.785156 323.433594 228.785156 320.828125 C 228.785156 318.226562 226.671875 316.109375 224.066406 316.109375 L 198.683594 316.09375 L 190.199219 291.6875 L 280.894531 291.753906 C 291.765625 291.765625 300.617188 282.921875 300.628906 272.050781 L 300.695312 171.925781 L 291.296875 171.917969 Z M 188.546875 315.703125 L 127.484375 315.65625 L 135.84375 291.699219 L 180.214844 291.726562 Z M 291.183594 272.042969 C 291.183594 277.710938 286.566406 282.316406 280.894531 282.308594 L 43.96875 282.136719 C 38.296875 282.136719 33.691406 277.523438 33.699219 271.851562 L 33.710938 256.519531 L 291.199219 256.695312 Z M 291.183594 272.042969 " fill-opacity="1" fill-rule="nonzero"/></g><path fill="#d514e6" d="M 80.089844 164.886719 L 146.328125 164.886719 L 146.328125 168.660156 L 80.089844 168.660156 Z M 80.089844 164.886719 " fill-opacity="1" fill-rule="nonzero"/><path fill="#d514e6" d="M 80.082031 186.582031 L 146.320312 186.582031 L 146.320312 190.355469 L 80.082031 190.355469 Z M 80.082031 186.582031 " fill-opacity="1" fill-rule="nonzero"/><path fill="#d514e6" d="M 80.0625 210.175781 L 146.300781 210.175781 L 146.300781 213.949219 L 80.0625 213.949219 Z M 80.0625 210.175781 " fill-opacity="1" fill-rule="nonzero"/><path fill="#d514e6" d="M 163.71875 269.585938 C 163.71875 270.035156 163.675781 270.480469 163.589844 270.921875 C 163.5 271.363281 163.371094 271.789062 163.199219 272.207031 C 163.027344 272.621094 162.816406 273.015625 162.566406 273.386719 C 162.316406 273.761719 162.035156 274.109375 161.714844 274.425781 C 161.398438 274.742188 161.050781 275.027344 160.679688 275.277344 C 160.304688 275.527344 159.910156 275.738281 159.496094 275.910156 C 159.082031 276.082031 158.652344 276.210938 158.214844 276.296875 C 157.773438 276.386719 157.328125 276.429688 156.878906 276.429688 C 156.429688 276.429688 155.984375 276.386719 155.542969 276.296875 C 155.101562 276.210938 154.675781 276.082031 154.261719 275.910156 C 153.84375 275.738281 153.449219 275.527344 153.078125 275.277344 C 152.703125 275.027344 152.359375 274.742188 152.039062 274.425781 C 151.722656 274.109375 151.4375 273.761719 151.191406 273.386719 C 150.941406 273.015625 150.730469 272.621094 150.558594 272.207031 C 150.386719 271.789062 150.253906 271.363281 150.167969 270.921875 C 150.082031 270.480469 150.035156 270.035156 150.035156 269.585938 C 150.035156 269.136719 150.082031 268.695312 150.167969 268.253906 C 150.253906 267.8125 150.386719 267.382812 150.558594 266.96875 C 150.730469 266.554688 150.941406 266.160156 151.191406 265.785156 C 151.4375 265.414062 151.722656 265.066406 152.039062 264.75 C 152.359375 264.433594 152.703125 264.148438 153.078125 263.898438 C 153.449219 263.648438 153.84375 263.4375 154.261719 263.265625 C 154.675781 263.09375 155.101562 262.964844 155.542969 262.878906 C 155.984375 262.789062 156.429688 262.746094 156.878906 262.746094 C 157.328125 262.746094 157.773438 262.789062 158.214844 262.878906 C 158.652344 262.964844 159.082031 263.09375 159.496094 263.265625 C 159.910156 263.4375 160.304688 263.648438 160.679688 263.898438 C 161.050781 264.148438 161.398438 264.433594 161.714844 264.75 C 162.035156 265.066406 162.316406 265.414062 162.566406 265.785156 C 162.816406 266.160156 163.027344 266.554688 163.199219 266.96875 C 163.371094 267.382812 163.5 267.8125 163.589844 268.253906 C 163.675781 268.695312 163.71875 269.136719 163.71875 269.585938 Z M 163.71875 269.585938 " fill-opacity="1" fill-rule="nonzero"/></svg>