<svg width="289" height="437" viewBox="0 0 289 437" fill="none" xmlns="http://www.w3.org/2000/svg">
<path d="M0 408.915C0 408.915 2.82692 350.063 4.97503 333.754C10.3797 292.785 0.378066 251.956 54.8499 241.062C109.322 230.168 137.251 244.274 164.021 247.532C180.437 249.53 211.619 264.072 121.214 269.071C121.214 269.071 169.791 284.72 201.733 284.72C227.502 284.72 281.626 262.773 285.991 270.165C291.593 279.644 277.686 279.841 278.928 282.319C279.903 284.266 286.339 283.074 285.506 291.799C285.02 296.905 276.715 301.844 276.715 301.844C276.715 301.844 284.431 305.694 279.607 312.909C274.782 320.125 271.891 319.164 271.891 319.164C271.891 319.164 278.159 324.455 273.82 328.305C271.56 330.311 252.008 343.804 228.98 351.315C207.821 358.218 183.444 359.178 173.052 361.022C151.356 364.872 98.1043 346.732 88.1972 353.322C82.4102 357.172 87.716 403.839 87.716 403.839C87.716 403.839 81.3469 440.006 43.161 436.348C4.97503 432.69 0 408.915 0 408.915Z" fill="#CFC5FF"/>
<path d="M276.609 282.328C276.609 282.328 208.806 304.052 203.229 304.146C196.385 304.262 188.699 305.608 174.663 303.79C170.664 303.271 172.773 307.246 172.773 307.246C172.773 307.246 190.117 308.631 206.245 306.903C212.492 306.234 276.609 282.328 276.609 282.328Z" fill="#988DE2"/>
<path d="M275.13 302.122C275.13 302.122 209.668 322.41 204.139 321.66C199.77 321.064 193.184 321.012 179.148 319.195C175.148 318.676 178.104 321.274 178.104 321.274C178.104 321.274 191.031 326.14 207.155 324.417C213.402 323.748 275.13 302.122 275.13 302.122Z" fill="#988DE2"/>
<path d="M270.928 320.094C270.928 320.094 215.971 338.839 210.416 338.32C206.025 337.908 187.891 336.871 173.79 335.649C169.769 335.302 174.319 338.148 174.319 338.148C174.319 338.148 172.691 339.657 211.073 341.184C217.35 341.432 270.928 320.09 270.928 320.09V320.094Z" fill="#988DE2"/>
<path d="M168.047 289.968C168.047 289.968 172.562 310.157 173.336 324.03C173.667 329.947 168.219 339.516 168.219 339.516C168.219 339.516 178.423 341.728 179.312 328.446C180.201 315.164 168.047 289.968 168.047 289.968Z" fill="#988DE2"/>
<path d="M119.586 269.115C119.586 269.115 105.791 273.968 98.3883 275.417C82.6641 278.499 66.0979 274.997 66.0979 274.997C66.0979 274.997 90.3845 283.541 104.145 277.518C117.906 271.494 119.59 269.11 119.59 269.11L119.586 269.115Z" fill="#988DE2"/>
<path d="M165.796 51.4278C177.356 39.8702 195.026 57.346 183.647 69.0498C172.129 80.8997 154.178 63.0394 165.796 51.4278Z" fill="#6F03E0"/>
<path d="M142.123 48.2168C162.847 44.7383 161.83 75.5211 143.117 72.6407C129.437 70.536 129.792 50.2878 142.123 48.2168Z" fill="#6F03E0"/>
<path d="M143.932 99.0526C158.308 97.2988 163.432 118.961 148.898 123.355C131.673 128.563 126.037 101.236 143.932 99.0526Z" fill="#6F03E0"/>
<path d="M127.277 73.858C145.918 70.728 147.81 96.4021 132.002 98.3673C115.547 100.411 113.46 76.1785 127.277 73.858Z" fill="#6F03E0"/>
<path d="M188.015 73.4153C198.613 72.1359 206.051 84.3164 199.556 93.0453C194.191 100.252 183.181 99.8449 178.665 91.9727C174.212 84.2062 179.248 74.4722 188.015 73.4153Z" fill="#6F03E0"/>
<path d="M173.17 99.0487C189.578 96.9058 192.178 121.624 177.065 123.625C159.328 125.975 157.493 101.095 173.17 99.0487Z" fill="#6F03E0"/>
<path d="M115.14 103.976C123.1 102.809 126.715 114.054 119.776 117.623C109.171 123.08 104.284 105.568 115.14 103.976Z" fill="#6F03E0"/>
<path d="M159.24 27.9737C166.665 27.2407 170.23 37.5728 163.701 41.4606C153.197 47.7161 147.412 29.1407 159.24 27.9737Z" fill="#6F03E0"/>
<path d="M158.792 129.159C164.021 128.655 168.126 133.968 166.293 138.944C164.095 144.907 156.309 145.483 153.104 140.012C150.461 135.497 153.848 129.635 158.792 129.159Z" fill="#6F03E0"/>
<path d="M202.863 53.1448C210.985 52.025 214.388 64.138 206.56 67.2186C196.232 71.284 192.327 54.5974 202.863 53.1448Z" fill="#6F03E0"/>
<path d="M110.905 65.9465C103.665 58.7084 115.941 47.8816 122.003 56.4261C127.311 63.9071 116.89 71.9299 110.905 65.9465Z" fill="#6F03E0"/>
<path d="M198.621 116.318C192.613 110.312 200.598 99.888 208.144 105.224C216.52 111.149 205.886 123.579 198.621 116.318Z" fill="#6F03E0"/>
<path d="M190.692 23.0277C201.98 20.4419 200.757 38.1245 190.494 34.727C184.72 32.8157 185.64 24.1857 190.692 23.0277Z" fill="#6F03E0"/>
<path d="M191.151 136.814C200.488 134.878 201.578 147.565 194.086 148.747C185.933 150.034 184.15 138.265 191.151 136.814Z" fill="#6F03E0"/>
<path d="M224.448 79.6963C233.67 78.2325 234.525 92.585 224.79 91.7351C217.96 91.1392 217.737 80.7599 224.448 79.6963Z" fill="#6F03E0"/>
<path d="M122.601 33.5721C116.782 27.7034 126.128 18.491 131.685 25.1648C137.065 31.6271 127.614 38.6269 122.601 33.5721Z" fill="#6F03E0"/>
<path d="M125.923 136.815C134.369 135.284 135.687 147.086 129.227 148.656C120.008 150.898 118.337 138.191 125.923 136.815Z" fill="#6F03E0"/>
<path d="M92.6347 80.1488C102.713 78.0532 102.94 93.2355 93.4827 92.1584C86.6586 91.3804 86.5844 81.408 92.6347 80.1488Z" fill="#6F03E0"/>
<path d="M155.889 170.282C150.869 165.02 159.843 157.87 163.838 163.912C167.365 169.247 159.987 174.579 155.889 170.282Z" fill="#6F03E0"/>
<path d="M229.406 121.058C236.109 120.143 237.015 130.68 230.591 131.307C224.116 131.939 222.757 121.967 229.406 121.058Z" fill="#6F03E0"/>
<path d="M93.5054 41.9721C98.6988 47.1641 89.5828 54.8991 85.6288 48.2749C82.5226 43.0717 89.3872 37.855 93.5054 41.9721Z" fill="#6F03E0"/>
<path d="M158.776 0.0908542C165.978 -1.0784 166.963 9.41114 160.26 10.1397C153.976 10.821 152.66 1.08472 158.776 0.0908542Z" fill="#6F03E0"/>
<path d="M228.029 40.5641C236.218 38.6933 237.293 49.9676 230.168 50.3768C224.072 50.7276 223.209 41.6636 228.029 40.5641Z" fill="#6F03E0"/>
<path d="M89.0515 121.511C96.0352 120.378 96.7617 129.972 91.9754 131.196C83.9346 133.253 82.8325 122.521 89.0515 121.511Z" fill="#6F03E0"/>
<path d="M114.224 5.0277C120.169 3.71678 121.019 12.72 115.439 13.0303C110.893 13.2822 109.656 6.03505 114.224 5.0277Z" fill="#6F03E0"/>
<path d="M251.854 82.884C256.01 87.4283 248.345 92.6113 245.518 87.6509C243.021 83.2708 249.098 79.8709 251.854 82.884Z" fill="#6F03E0"/>
<path d="M207.322 5.98603C211.099 10.1166 204.077 15.5739 200.964 10.7732C198.166 6.45823 204.378 2.76384 207.322 5.98603Z" fill="#6F03E0"/>
<path d="M204.2 158.835C209.391 158.329 210.387 166.903 204.535 166.851C199.865 166.809 199.308 159.314 204.2 158.835Z" fill="#6F03E0"/>
<path d="M112.693 160.239C115.444 157.23 121.521 160.61 119.029 165.006C116.15 170.085 108.744 164.556 112.693 160.239Z" fill="#6F03E0"/>
<path d="M69.6905 82.3889C76.8317 80.7811 76.3233 91.9565 69.3441 89.7349C66.184 88.7298 66.3145 83.1489 69.6905 82.3889Z" fill="#6F03E0"/>
<path d="M160.7 193.198L161.323 193.262L162.841 191.556C163.316 191.248 163.668 191.462 163.869 191.945C164.13 192.57 164.294 193.284 164.553 193.915L165.096 194.095L166.901 192.757C167.276 192.553 167.738 192.702 167.851 193.136L168.173 195.373C168.186 195.417 168.68 195.691 168.774 195.66C169.345 195.416 169.912 195.065 170.48 194.826C170.829 194.679 171.157 194.555 171.43 194.927C171.647 195.223 171.546 195.345 171.54 195.645C171.528 196.278 171.495 196.908 171.467 197.54C171.592 197.681 171.836 197.952 172.031 197.929C172.653 197.856 173.422 197.477 174.044 197.411C174.534 197.359 174.855 197.673 174.795 198.179L174.278 200.305C174.28 200.387 174.598 200.801 174.668 200.815C175.027 200.789 175.385 200.794 175.744 200.778C176.054 200.764 176.601 200.669 176.887 200.704C177.194 200.741 177.486 201.037 177.467 201.364C177.245 202.132 176.817 202.833 176.508 203.57C176.481 203.73 176.691 203.987 176.742 204.148L178.947 204.505C179.391 204.61 179.548 205.085 179.346 205.486L178.037 207.332L178.229 207.899L180.192 208.609C180.609 208.768 180.783 209.19 180.553 209.598L178.842 211.214L178.915 211.827L180.871 213.025C181.132 213.295 181.128 213.735 180.851 213.992L178.915 215.173L178.842 215.786L180.553 217.402C180.723 217.709 180.687 218.051 180.407 218.271C179.711 218.611 178.953 218.823 178.229 219.101L178.036 219.668L179.346 221.514C179.548 221.914 179.39 222.39 178.946 222.494L176.741 222.852C176.69 223.012 176.481 223.27 176.507 223.43L177.428 225.445C177.58 225.833 177.272 226.249 176.886 226.296C176.6 226.331 176.054 226.235 175.744 226.222C175.384 226.206 175.026 226.211 174.668 226.185C174.598 226.199 174.28 226.613 174.278 226.695L174.794 228.821C174.874 229.295 174.506 229.67 174.043 229.589L171.964 229.061C171.884 229.063 171.48 229.388 171.466 229.46C171.491 229.827 171.486 230.193 171.502 230.56C171.515 230.878 171.608 231.437 171.574 231.729C171.538 232.043 171.248 232.342 170.929 232.322C170.178 232.095 169.493 231.658 168.772 231.341C168.616 231.314 168.364 231.528 168.207 231.58L167.857 233.835C167.755 234.29 167.29 234.45 166.899 234.244L165.094 232.905L164.539 233.102L163.845 235.109C163.69 235.536 163.277 235.714 162.878 235.479L161.275 233.729L160.699 233.803L159.527 235.804C159.263 236.07 158.833 236.067 158.582 235.784L157.427 233.803L156.851 233.729L155.248 235.479C154.947 235.652 154.613 235.616 154.398 235.329C154.065 234.617 153.858 233.842 153.587 233.101L153.031 232.904C152.979 232.899 152.849 233.008 152.794 233.045C152.309 233.375 151.704 233.984 151.226 234.244C150.837 234.455 150.369 234.285 150.268 233.835L149.919 231.58C149.762 231.527 149.51 231.314 149.353 231.34L147.383 232.282C147.004 232.438 146.597 232.122 146.551 231.728C146.517 231.436 146.611 230.877 146.624 230.559C146.639 230.192 146.635 229.826 146.659 229.459C146.646 229.388 146.241 229.063 146.161 229.06L144.082 229.589C143.618 229.67 143.252 229.294 143.331 228.82L143.848 226.694C143.846 226.612 143.528 226.198 143.458 226.185C143.099 226.211 142.741 226.205 142.382 226.221C142.072 226.235 141.525 226.33 141.239 226.295C140.932 226.258 140.64 225.962 140.659 225.635C140.881 224.867 141.309 224.166 141.618 223.429C141.645 223.27 141.435 223.012 141.384 222.851L139.179 222.494C138.735 222.39 138.578 221.914 138.78 221.514L140.089 219.667L139.896 219.1L137.934 218.391C137.517 218.231 137.343 217.809 137.572 217.401L139.283 215.761L139.211 215.173L137.255 213.974C136.994 213.704 136.998 213.264 137.275 213.007L139.211 211.826L139.283 211.237L137.572 209.597C137.403 209.29 137.439 208.948 137.719 208.729C138.415 208.388 139.173 208.176 139.897 207.898L140.09 207.331L138.78 205.485C138.578 205.085 138.736 204.609 139.18 204.505L141.37 204.16C141.43 204.002 141.646 203.733 141.619 203.569L140.698 201.554C140.546 201.166 140.854 200.75 141.24 200.703C141.525 200.669 142.072 200.764 142.382 200.778C142.742 200.793 143.1 200.789 143.458 200.814C143.528 200.8 143.846 200.387 143.848 200.304L143.332 198.178C143.271 197.672 143.593 197.358 144.083 197.41C144.705 197.476 145.475 197.856 146.096 197.928C146.29 197.951 146.535 197.68 146.659 197.539C146.631 196.907 146.599 196.278 146.586 195.644C146.581 195.344 146.48 195.222 146.696 194.927C146.969 194.554 147.298 194.679 147.647 194.825C148.214 195.063 148.783 195.412 149.353 195.659C149.465 195.678 149.92 195.453 149.953 195.341C150.102 194.661 150.093 193.824 150.267 193.164C150.39 192.699 150.813 192.554 151.226 192.755L152.99 194.091L153.558 193.926L154.292 191.865C154.453 191.441 154.892 191.285 155.268 191.537L156.851 193.27L157.426 193.196L158.598 191.195C158.825 190.956 159.214 190.935 159.467 191.143L160.697 193.197L160.7 193.198ZM158.946 195.07C157.316 195.231 157.511 197.788 159.195 197.634C160.822 197.484 160.596 194.908 158.946 195.07ZM175.169 214.786C175.214 213.657 175.238 212.518 175.054 211.401C174.995 211.331 174.912 211.293 174.837 211.245C174.078 210.769 172.969 210.422 172.27 209.895C171.789 209.534 171.638 208.914 171.857 208.35L173.191 205.701V205.508C171.127 201.696 167.561 198.776 163.442 197.607C163.093 197.508 162.493 197.322 162.151 197.297C162.096 197.293 162.043 197.281 161.991 197.313L159.825 199.527C159.344 199.868 158.787 199.868 158.307 199.527L156.162 197.329L156.049 197.29C153.429 197.784 150.925 198.986 148.867 200.702C148.746 200.803 147.087 202.295 147.182 202.367L164.787 202.365C168.922 202.726 172.128 207.559 169.171 211.245C168.652 211.893 167.981 212.404 167.285 212.836C168.151 213.577 168.884 214.637 169.275 215.724C169.643 216.751 169.574 217.657 170.81 218.054C172.282 218.525 173.233 217.497 173.321 216.057C173.341 215.735 173.267 215.245 173.32 214.958C173.329 214.909 173.425 214.786 173.449 214.786H175.17H175.169ZM142.952 206.921C141.353 207.134 141.613 209.665 143.272 209.481C144.897 209.3 144.626 206.698 142.952 206.921ZM174.865 206.922C173.267 207.1 173.469 209.607 175.114 209.485C176.761 209.363 176.557 206.733 174.865 206.922ZM148.589 207.517H145.849C146.36 208.338 146.739 209.332 145.749 209.97C145.033 210.432 144.157 210.751 143.418 211.182C143.296 211.254 143.075 211.347 143.043 211.481C142.935 211.937 143.012 212.519 142.923 212.986C142.93 214.625 143.045 216.407 143.527 217.975C143.556 218.066 143.571 218.164 143.646 218.231H148.589V207.516V207.517ZM155.697 207.517V210.451L155.824 210.509C157.563 210.425 159.392 210.614 161.122 210.509C162.107 210.449 163.661 209.869 163.166 208.567C162.953 208.009 162.049 207.517 161.49 207.517H155.697ZM171.985 223.344H165.155C165.121 223.344 164.791 223.235 164.73 223.21C161.902 222.109 163.762 215.462 159.823 215.203C158.521 215.118 157.135 215.268 155.823 215.201L155.696 215.26V218.175L155.751 218.232H159.379C159.386 218.232 159.444 218.29 159.453 218.308V223.267C159.445 223.285 159.386 223.344 159.379 223.344H146.145L146.553 223.929L147.319 224.821L150.271 224.364C150.939 224.28 151.511 224.698 151.674 225.356L152.166 228.421C155.399 229.994 159.11 230.399 162.612 229.603C163.769 229.34 164.894 228.936 165.964 228.421L166.456 225.356C166.62 224.698 167.191 224.28 167.859 224.364L170.812 224.821L171.578 223.929L171.986 223.344H171.985ZM149.137 226.079C147.671 226.15 147.558 228.4 148.957 228.627C150.878 228.938 150.952 225.99 149.137 226.079ZM168.87 226.079C167.184 226.161 167.308 228.819 169.079 228.644C170.634 228.49 170.459 226 168.87 226.079Z" fill="#988DE2"/>
<g clip-path="url(#clip0_52_109)">
<path d="M71.6463 164.971V189.029L50.8777 201L30.063 189.029V164.971L50.8315 153L71.6463 164.971Z" fill="#988DE2"/>
<path d="M63.8982 169.709L58.0441 173.047C55.5377 168.605 49.5471 167.535 45.6688 170.912C41.4762 174.563 42.1337 181.252 46.9136 184.052C50.5691 186.194 55.0561 185.107 57.5711 181.811C57.6909 181.654 57.9732 181.083 58.1096 181.08L63.8688 184.356C63.9283 184.429 63.8922 184.483 63.8641 184.555C63.7069 184.957 62.9892 185.887 62.6922 186.262C56.4093 194.224 44.0909 193.674 38.5457 185.196C33.313 177.194 36.8956 166.381 45.8033 163.086C52.6588 160.55 60.3758 163.374 63.8982 169.708V169.709Z" fill="#EBE9F8"/>
<path d="M64.0993 172.385L63.6979 174.525C63.8738 174.488 64.4551 174.581 64.5581 174.516C64.6498 174.458 64.8725 172.65 64.9688 172.385H66.5073L66.106 174.526H67.3769V175.897C67.3769 175.904 67.2839 175.997 67.2765 175.997H65.8718C65.6825 176.24 65.7762 176.644 65.6377 176.934H66.9755V178.338H65.3702C65.2652 179.051 65.1822 179.819 64.9354 180.479H63.4973L63.8317 178.338L62.9996 178.336L62.627 180.479H61.0886L61.4899 178.338H60.219V176.934H61.7575L61.8912 175.997H60.6203V174.526H62.2257L62.5601 172.385H64.0986H64.0993Z" fill="#EBE9F8"/>
<path d="M64.299 175.997L64.1659 176.934H63.2956C63.2569 176.894 63.4007 176.034 63.4361 176.004C63.495 175.954 64.1492 176.026 64.299 175.998V175.997Z" fill="#988DE2"/>
</g>
<path d="M254.528 161L281.317 201.225H271.319L262.911 188.688L254.504 201.225H244.505L257.886 181.113L244.505 161H254.528Z" fill="#988DE2"/>
<path d="M241.133 161L254.512 181.113L241.109 201.225H231.063L244.458 181.113L231.063 161H241.133Z" fill="#988DE2"/>
<path d="M288.062 172.731V179.427L270.187 179.419L265.737 172.755L288.062 172.731Z" fill="#988DE2"/>
<path d="M288.063 182.799V189.495L276.884 189.487L272.436 182.799L288.063 182.799Z" fill="#988DE2"/>
<defs>
<clipPath id="clip0_52_109">
<rect width="41.5833" height="48" fill="white" transform="translate(30.063 153)"/>
</clipPath>
</defs>
</svg>
