<svg width="477" height="575" viewBox="0 0 477 575" fill="none" xmlns="http://www.w3.org/2000/svg">
<path d="M139.812 554.103C139.812 554.103 141.918 510.242 143.519 498.087C147.547 467.553 140.093 437.125 180.69 429.005C221.287 420.886 242.103 431.399 262.054 433.827C274.288 435.316 297.528 446.154 230.15 449.88C230.15 449.88 266.354 461.543 290.16 461.543C309.365 461.543 349.703 445.186 352.956 450.695C357.131 457.76 346.766 457.907 347.692 459.753C348.419 461.204 353.215 460.316 352.594 466.818C352.232 470.624 346.043 474.305 346.043 474.305C346.043 474.305 351.793 477.174 348.198 482.552C344.602 487.929 342.447 487.214 342.447 487.214C342.447 487.214 347.119 491.157 343.885 494.026C342.201 495.521 327.629 505.577 310.467 511.175C294.697 516.319 276.53 517.035 268.784 518.409C252.615 521.278 212.927 507.759 205.543 512.67C201.23 515.54 205.185 550.32 205.185 550.32C205.185 550.32 200.438 577.274 171.979 574.548C143.519 571.822 139.812 554.103 139.812 554.103Z" fill="#CFC5FF"/>
<path d="M345.963 459.76C345.963 459.76 295.431 475.95 291.275 476.02C286.174 476.107 280.446 477.11 269.985 475.755C267.004 475.369 268.576 478.331 268.576 478.331C268.576 478.331 281.502 479.363 293.522 478.075C298.178 477.577 345.963 459.76 345.963 459.76Z" fill="#988DE2"/>
<path d="M344.861 474.512C344.861 474.512 296.074 489.632 291.953 489.073C288.697 488.629 283.788 488.591 273.327 487.236C270.346 486.849 272.549 488.786 272.549 488.786C272.549 488.786 282.184 492.412 294.201 491.128C298.856 490.629 344.861 474.512 344.861 474.512Z" fill="#988DE2"/>
<path d="M341.73 487.907C341.73 487.907 300.771 501.876 296.631 501.49C293.359 501.183 279.843 500.41 269.335 499.499C266.338 499.24 269.729 501.362 269.729 501.362C269.729 501.362 268.515 502.487 297.121 503.624C301.799 503.81 341.73 487.904 341.73 487.904V487.907Z" fill="#988DE2"/>
<path d="M265.054 465.454C265.054 465.454 268.419 480.5 268.996 490.84C269.242 495.249 265.182 502.381 265.182 502.381C265.182 502.381 272.787 504.03 273.45 494.131C274.112 484.232 265.054 465.454 265.054 465.454Z" fill="#988DE2"/>
<path d="M228.937 449.912C228.937 449.912 218.656 453.529 213.139 454.609C201.42 456.907 189.073 454.296 189.073 454.296C189.073 454.296 207.174 460.664 217.429 456.175C227.685 451.686 228.94 449.909 228.94 449.909L228.937 449.912Z" fill="#988DE2"/>
<path d="M240.584 274.398L259.225 152.336L257.508 151.67L260.035 150.205V150.22C260.52 149.891 261.221 149.9 262.005 150.319L433.105 242.173C434.511 242.927 435.603 244.903 435.389 246.303L416.601 369.336C416.501 369.979 416.184 370.408 415.735 370.602L413.261 372.046L412.785 369.788L412.929 369.83L242.868 278.528C241.462 277.774 240.37 275.798 240.584 274.398Z" fill="url(#paint0_linear_1394_86)"/>
<path d="M432.233 245.516L434.99 244.277C435.315 244.961 435.486 245.686 435.389 246.3L416.601 369.334C416.501 369.976 416.184 370.405 415.735 370.599L413.26 372.043L412.785 369.786L412.929 369.827L404.323 365.207L432.227 245.516H432.233Z" fill="url(#paint1_linear_1394_86)"/>
<path d="M240.243 280.048L411.343 371.902C412.664 372.612 413.773 372.172 413.976 370.857L432.764 247.823C432.978 246.426 431.886 244.448 430.48 243.693L259.38 151.84C258.059 151.129 256.95 151.573 256.747 152.885L237.959 275.919C237.745 277.316 238.837 279.294 240.243 280.048Z" fill="#24126A"/>
<g opacity="0.51">
<path d="M261.755 159.632L426.682 248.172L408.86 364.047L244.044 275.566L261.755 159.632Z" fill="#453C9E"/>
</g>
<path d="M135.13 339.893L144.458 344.413L235.942 291.078C237.474 290.186 240.18 290.25 241.988 291.222L403.473 377.915C404.984 377.061 411.882 373.697 411.882 373.697L408.68 382.289C408.68 382.289 408.668 382.28 408.665 382.28C408.533 382.661 408.239 383.019 407.74 383.31L311.39 439.483C309.858 440.376 307.152 440.311 305.344 439.343L140.093 350.624C139.351 350.225 138.89 349.735 138.693 349.236L138.681 349.244L135.13 339.893Z" fill="url(#paint2_linear_1394_86)"/>
<path d="M136.585 341.34L305.948 432.261C307.8 433.256 310.577 433.32 312.144 432.407L410.889 374.837C412.457 373.921 412.228 372.374 410.373 371.379L241.013 280.456C239.161 279.461 236.384 279.396 234.817 280.309L136.069 337.883C134.501 338.799 134.73 340.345 136.585 341.34Z" fill="url(#paint3_linear_1394_86)"/>
<path d="M136.571 340.613L305.934 431.533C307.786 432.528 310.562 432.592 312.13 431.68L410.875 374.109C411.427 373.786 411.744 373.384 411.858 372.958C412.049 373.645 411.75 374.335 410.89 374.837L312.144 432.408C310.577 433.323 307.8 433.256 305.948 432.261L136.585 341.341C135.385 340.695 134.877 339.82 135.086 339.034C135.244 339.6 135.731 340.164 136.571 340.613Z" fill="white"/>
<path d="M356.025 411.154L355.987 409.375C355.984 409.208 355.875 409.131 355.746 409.205L349.344 412.938C349.215 413.012 349.113 413.211 349.118 413.378L349.157 415.157C349.159 415.325 349.268 415.401 349.397 415.327L355.799 411.594C355.928 411.521 356.031 411.321 356.025 411.154Z" fill="#2842A2"/>
<path d="M346.453 416.733L346.415 414.952C346.412 414.784 346.303 414.708 346.174 414.782L339.773 418.515C339.643 418.588 339.541 418.788 339.547 418.955L339.585 420.737C339.588 420.904 339.696 420.981 339.825 420.907L346.227 417.177C346.356 417.1 346.459 416.904 346.453 416.733Z" fill="#2842A2"/>
<path d="M384.734 370.029L243.995 294.475C243.056 293.97 241.914 293.991 240.998 294.525L192.034 323.131C191.329 323.542 191.353 324.537 192.072 324.925L332.746 400.444C333.685 400.949 334.824 400.928 335.74 400.394L384.772 371.82C385.476 371.409 385.456 370.414 384.737 370.026L384.734 370.029Z" fill="#ADB1F2"/>
<path d="M384.772 371.825L384.279 372.113L244.045 296.829C243.106 296.324 241.964 296.344 241.048 296.878L192.577 325.197L192.075 324.927C191.356 324.54 191.335 323.545 192.037 323.134L241.001 294.527C241.917 293.993 243.059 293.973 243.998 294.477L384.737 370.032C385.456 370.419 385.477 371.414 384.775 371.825H384.772Z" fill="#9198DB"/>
<path d="M237.404 301.628L359.654 367.256L364.967 364.159L242.716 298.531L237.404 301.628Z" fill="#24126A"/>
<path d="M224.383 309.218L339.052 370.775L344.362 367.681L229.696 306.122L224.383 309.218Z" fill="#24126A"/>
<path d="M215.904 314.161L350.914 386.642L356.223 383.546L221.214 311.064L215.904 314.161Z" fill="#24126A"/>
<path d="M207.42 319.106L342.43 391.585L347.742 388.488L212.733 316.01L207.42 319.106Z" fill="#24126A"/>
<path d="M198.94 324.049L333.95 396.528L339.26 393.434L204.253 320.953L198.94 324.049Z" fill="#24126A"/>
<path d="M367.042 371.22L372.477 374.141L377.79 371.044L372.354 368.124L367.042 371.22Z" fill="#24126A"/>
<path d="M348.174 375.673L359.457 381.731L364.766 378.635L353.487 372.577L348.174 375.673Z" fill="#24126A"/>
<path d="M240.646 391.271L202.697 370.898C201.214 370.103 201.185 368.77 202.635 367.928L227.989 353.146C229.439 352.301 231.814 352.263 233.299 353.058L271.248 373.431C272.73 374.227 272.759 375.559 271.309 376.401L245.955 391.183C244.505 392.028 242.128 392.067 240.646 391.271Z" fill="url(#paint4_linear_1394_86)"/>
<path d="M271.271 374.643L233.323 354.27C231.84 353.475 229.463 353.513 228.013 354.358L202.659 369.14C202.213 369.401 201.922 369.709 201.755 370.032C201.353 369.322 201.631 368.509 202.632 367.925L227.986 353.143C229.436 352.298 231.811 352.26 233.296 353.055L271.245 373.428C272.269 373.977 272.583 374.784 272.211 375.506C272.032 375.189 271.729 374.89 271.271 374.643Z" fill="#9198DB"/>
<g opacity="0.11">
<mask id="mask0_1394_86" style="mask-type:luminance" maskUnits="userSpaceOnUse" x="244" y="159" width="183" height="206">
<path d="M261.754 159.633L426.682 248.173L408.86 364.048L244.043 275.567L261.754 159.633Z" fill="white"/>
</mask>
<g mask="url(#mask0_1394_86)">
<path d="M240.842 280.27L410.204 371.19C412.056 372.185 414.833 372.249 416.4 371.336L515.146 313.766C516.713 312.85 516.484 311.303 514.629 310.308L345.266 219.385C343.414 218.39 340.638 218.326 339.07 219.239L240.325 276.809C238.758 277.725 238.987 279.272 240.842 280.267V280.27Z" fill="url(#paint5_linear_1394_86)"/>
<path d="M409.107 294.282L371.158 273.909C369.676 273.114 369.646 271.781 371.096 270.939L396.45 256.157C397.9 255.312 400.275 255.274 401.76 256.069L439.709 276.442C441.191 277.238 441.221 278.57 439.771 279.413L414.417 294.194C412.967 295.04 410.589 295.078 409.107 294.282Z" fill="url(#paint6_linear_1394_86)"/>
<path d="M439.736 277.655L401.787 257.281C400.305 256.486 397.927 256.524 396.477 257.37L371.123 272.151C370.677 272.412 370.386 272.721 370.219 273.043C369.817 272.333 370.096 271.52 371.097 270.933L396.451 256.151C397.901 255.306 400.275 255.268 401.76 256.063L439.709 276.436C440.734 276.985 441.048 277.793 440.675 278.515C440.493 278.198 440.194 277.898 439.736 277.652V277.655Z" fill="#9198DB"/>
<path d="M457.241 326.306L316.502 250.751C315.563 250.247 314.421 250.267 313.506 250.801L264.541 279.408C263.836 279.818 263.86 280.813 264.579 281.201L405.253 356.72C406.193 357.225 407.331 357.204 408.247 356.67L457.279 328.096C457.984 327.685 457.963 326.69 457.244 326.303L457.241 326.306Z" fill="#ADB1F2"/>
<path d="M457.277 328.099L456.784 328.387L316.55 253.102C315.611 252.598 314.469 252.618 313.553 253.152L265.082 281.471L264.58 281.201C263.861 280.813 263.84 279.818 264.542 279.408L313.506 250.801C314.422 250.267 315.564 250.247 316.503 250.751L457.242 326.306C457.964 326.693 457.985 327.688 457.28 328.099H457.277Z" fill="#9198DB"/>
<path d="M277.465 277.3L400.073 343.121L395.327 345.886L272.719 280.065L277.465 277.3Z" fill="#24126A"/>
<path d="M290.087 269.938L406.625 332.501L401.879 335.269L285.341 272.706L290.087 269.938Z" fill="#24126A"/>
<path d="M415.324 337.171L426.211 343.015L421.465 345.783L410.581 339.939L415.324 337.171Z" fill="#24126A"/>
<path d="M406.008 346.305L413.587 350.373L408.843 353.141L401.265 349.073L406.008 346.305Z" fill="#24126A"/>
<path d="M297.996 265.328L434.118 338.405L429.372 341.173L293.25 268.096L297.996 265.328Z" fill="#24126A"/>
<path d="M305.903 260.716L442.028 333.793L437.282 336.561L301.157 263.484L305.903 260.716Z" fill="#24126A"/>
<path d="M313.814 256.104L449.936 329.182L445.193 331.95L309.068 258.872L313.814 256.104Z" fill="#24126A"/>
</g>
</g>
<g style="mix-blend-mode:hard-light">
<path d="M249 295.5L69.4707 154.225L394.947 68.7363L249 295.5Z" fill="url(#paint7_linear_1394_86)" fill-opacity="0.75"/>
</g>
<g style="mix-blend-mode:hard-light">
<path d="M251.465 298.712L386.982 107.423L477 138.245L251.465 298.712Z" fill="url(#paint8_linear_1394_86)" fill-opacity="0.75"/>
</g>
<g style="mix-blend-mode:hard-light">
<path d="M241.68 298.223L32.2893 134.82L9.15527e-05 211.629L241.68 298.223Z" fill="url(#paint9_linear_1394_86)" fill-opacity="0.75"/>
</g>
<path d="M163.008 48.9667C174.016 37.9622 190.84 54.6017 180.006 65.7454C169.039 77.0283 151.947 60.0226 163.008 48.9667Z" fill="#6F03E0"/>
<path d="M140.468 45.9093C160.2 42.5973 159.232 71.907 141.414 69.1645C128.389 67.1605 128.728 47.8812 140.468 45.9093Z" fill="#6F03E0"/>
<path d="M142.191 94.3127C155.88 92.6428 160.758 113.269 146.92 117.452C130.519 122.411 125.153 96.3916 142.191 94.3127Z" fill="#6F03E0"/>
<path d="M126.333 70.3238C144.083 67.3436 145.884 91.7891 130.833 93.6603C115.165 95.6065 113.178 72.5333 126.333 70.3238Z" fill="#6F03E0"/>
<path d="M184.165 69.9021C194.256 68.6839 201.338 80.2815 195.153 88.5927C190.045 95.4545 179.562 95.067 175.262 87.5715C171.022 80.1766 175.817 70.9084 184.165 69.9021Z" fill="#6F03E0"/>
<path d="M170.029 94.3088C185.652 92.2685 188.128 115.804 173.739 117.71C156.85 119.947 155.103 96.2571 170.029 94.3088Z" fill="#6F03E0"/>
<path d="M114.778 99.0009C122.357 97.8897 125.799 108.597 119.192 111.994C109.095 117.19 104.441 100.517 114.778 99.0009Z" fill="#6F03E0"/>
<path d="M156.767 26.6349C163.837 25.937 167.231 35.7747 161.014 39.4764C151.013 45.4326 145.505 27.7461 156.767 26.6349Z" fill="#6F03E0"/>
<path d="M156.339 122.978C161.319 122.498 165.227 127.557 163.482 132.295C161.389 137.973 153.975 138.521 150.923 133.312C148.407 129.013 151.632 123.432 156.339 122.978Z" fill="#6F03E0"/>
<path d="M198.301 50.6016C206.035 49.5354 209.275 61.0688 201.822 64.0019C191.988 67.8727 188.27 51.9847 198.301 50.6016Z" fill="#6F03E0"/>
<path d="M110.744 62.7907C103.85 55.899 115.539 45.5902 121.31 53.7259C126.364 60.8489 116.443 68.4878 110.744 62.7907Z" fill="#6F03E0"/>
<path d="M194.263 110.752C188.543 105.034 196.145 95.108 203.33 100.189C211.305 105.83 201.18 117.665 194.263 110.752Z" fill="#6F03E0"/>
<path d="M186.713 21.9257C197.461 19.4636 196.296 36.3001 186.524 33.0651C181.027 31.2453 181.903 23.0283 186.713 21.9257Z" fill="#6F03E0"/>
<path d="M187.15 130.267C196.04 128.424 197.079 140.503 189.945 141.629C182.182 142.854 180.484 131.648 187.15 130.267Z" fill="#6F03E0"/>
<path d="M218.854 75.8826C227.635 74.4888 228.449 88.1546 219.18 87.3453C212.676 86.778 212.464 76.8953 218.854 75.8826Z" fill="#6F03E0"/>
<path d="M121.88 31.9657C116.34 26.3778 125.238 17.6063 130.53 23.9607C135.653 30.1138 126.654 36.7786 121.88 31.9657Z" fill="#6F03E0"/>
<path d="M125.044 130.268C133.086 128.81 134.341 140.048 128.19 141.542C119.412 143.677 117.821 131.578 125.044 130.268Z" fill="#6F03E0"/>
<path d="M93.349 76.3134C102.945 74.318 103.162 88.7738 94.1563 87.7482C87.6589 87.0075 87.5882 77.5123 93.349 76.3134Z" fill="#6F03E0"/>
<path d="M153.576 162.133C148.796 157.123 157.34 150.315 161.144 156.068C164.502 161.148 157.477 166.225 153.576 162.133Z" fill="#6F03E0"/>
<path d="M223.575 115.266C229.957 114.394 230.82 124.427 224.704 125.024C218.538 125.626 217.245 116.13 223.575 115.266Z" fill="#6F03E0"/>
<path d="M94.1782 39.9637C99.1231 44.9072 90.4433 52.2721 86.6785 45.9648C83.721 41.0106 90.257 36.0436 94.1782 39.9637Z" fill="#6F03E0"/>
<path d="M156.324 0.0865066C163.181 -1.02679 164.119 8.96079 157.738 9.65446C151.754 10.3032 150.501 1.03281 156.324 0.0865066Z" fill="#6F03E0"/>
<path d="M222.264 38.6231C230.061 36.8418 231.085 47.5766 224.3 47.9663C218.497 48.3003 217.674 39.6701 222.264 38.6231Z" fill="#6F03E0"/>
<path d="M89.9366 115.697C96.5862 114.618 97.2779 123.753 92.7207 124.918C85.0646 126.877 84.0152 116.658 89.9366 115.697Z" fill="#6F03E0"/>
<path d="M113.905 4.78718C119.566 3.53899 120.375 12.1114 115.062 12.4069C110.734 12.6466 109.556 5.74633 113.905 4.78718Z" fill="#6F03E0"/>
<path d="M244.949 78.9178C248.907 83.2447 241.608 88.1796 238.916 83.4566C236.539 79.286 242.326 76.0489 244.949 78.9178Z" fill="#6F03E0"/>
<path d="M202.549 5.69982C206.144 9.63277 199.458 14.8289 196.494 10.2579C193.83 6.14942 199.745 2.63182 202.549 5.69982Z" fill="#6F03E0"/>
<path d="M199.575 151.234C204.518 150.753 205.466 158.916 199.894 158.867C195.448 158.826 194.917 151.69 199.575 151.234Z" fill="#6F03E0"/>
<path d="M112.447 152.571C115.066 149.706 120.853 152.924 118.48 157.11C115.739 161.946 108.687 156.682 112.447 152.571Z" fill="#6F03E0"/>
<path d="M71.5018 78.4462C78.3012 76.9154 77.8172 87.556 71.172 85.4407C68.1631 84.4837 68.2873 79.1699 71.5018 78.4462Z" fill="#6F03E0"/>
<defs>
<linearGradient id="paint0_linear_1394_86" x1="452.811" y1="258.178" x2="256.586" y2="261.432" gradientUnits="userSpaceOnUse">
<stop stop-color="#C0BFF6"/>
<stop offset="0.29" stop-color="#C5C4F7"/>
<stop offset="0.64" stop-color="#D3D2F9"/>
<stop offset="1" stop-color="#E9E9FD"/>
</linearGradient>
<linearGradient id="paint1_linear_1394_86" x1="453.616" y1="306.528" x2="419.921" y2="307.087" gradientUnits="userSpaceOnUse">
<stop stop-color="#5761D7"/>
<stop offset="0.18" stop-color="#5C66D9"/>
<stop offset="0.39" stop-color="#6A73DF"/>
<stop offset="0.61" stop-color="#8289E8"/>
<stop offset="0.85" stop-color="#A3A7F5"/>
<stop offset="1" stop-color="#BCBEFF"/>
</linearGradient>
<linearGradient id="paint2_linear_1394_86" x1="428.226" y1="361.315" x2="151.088" y2="365.911" gradientUnits="userSpaceOnUse">
<stop stop-color="#5761D7"/>
<stop offset="0.18" stop-color="#5C66D9"/>
<stop offset="0.39" stop-color="#6A73DF"/>
<stop offset="0.61" stop-color="#8289E8"/>
<stop offset="0.85" stop-color="#A3A7F5"/>
<stop offset="1" stop-color="#BCBEFF"/>
</linearGradient>
<linearGradient id="paint3_linear_1394_86" x1="334.961" y1="353.978" x2="57.6756" y2="358.576" gradientUnits="userSpaceOnUse">
<stop stop-color="#C0BFF6"/>
<stop offset="0.29" stop-color="#C5C4F7"/>
<stop offset="0.64" stop-color="#D3D2F9"/>
<stop offset="1" stop-color="#E9E9FD"/>
</linearGradient>
<linearGradient id="paint4_linear_1394_86" x1="288.252" y1="369.883" x2="217.274" y2="371.06" gradientUnits="userSpaceOnUse">
<stop stop-color="#C0BFF6"/>
<stop offset="0.29" stop-color="#C5C4F7"/>
<stop offset="0.64" stop-color="#D3D2F9"/>
<stop offset="1" stop-color="#E9E9FD"/>
</linearGradient>
<linearGradient id="paint5_linear_1394_86" x1="439.919" y1="293.174" x2="162.634" y2="297.772" gradientUnits="userSpaceOnUse">
<stop stop-color="#C0BFF6"/>
<stop offset="0.29" stop-color="#C5C4F7"/>
<stop offset="0.64" stop-color="#D3D2F9"/>
<stop offset="1" stop-color="#E9E9FD"/>
</linearGradient>
<linearGradient id="paint6_linear_1394_86" x1="457.847" y1="273.314" x2="386.868" y2="274.491" gradientUnits="userSpaceOnUse">
<stop stop-color="#C0BFF6"/>
<stop offset="0.29" stop-color="#C5C4F7"/>
<stop offset="0.64" stop-color="#D3D2F9"/>
<stop offset="1" stop-color="#E9E9FD"/>
</linearGradient>
<linearGradient id="paint7_linear_1394_86" x1="204.987" y1="131.885" x2="266.664" y2="298.802" gradientUnits="userSpaceOnUse">
<stop stop-color="#EBE9F8" stop-opacity="0"/>
<stop offset="0.555" stop-color="#E1DCFF"/>
</linearGradient>
<linearGradient id="paint8_linear_1394_86" x1="392.852" y1="152.432" x2="251.252" y2="298.506" gradientUnits="userSpaceOnUse">
<stop stop-color="#EBE9F8" stop-opacity="0"/>
<stop offset="0.555" stop-color="#E1DCFF"/>
</linearGradient>
<linearGradient id="paint9_linear_1394_86" x1="42.5631" y1="178.851" x2="232.063" y2="294.033" gradientUnits="userSpaceOnUse">
<stop stop-color="#EBE9F8" stop-opacity="0"/>
<stop offset="0.555" stop-color="#E1DCFF"/>
</linearGradient>
</defs>
</svg>
