<svg width="143" height="44" viewBox="0 0 143 44" fill="none" xmlns="http://www.w3.org/2000/svg">
<path d="M37.5215 0H5.60674C2.51022 0 0 2.51022 0 5.60674V37.5215C0 40.618 2.51022 43.1282 5.60674 43.1282H37.5215C40.618 43.1282 43.1282 40.618 43.1282 37.5215V5.60674C43.1282 2.51022 40.618 0 37.5215 0Z" fill="url(#paint0_linear_1553_4938)"/>
<path d="M7.39893 21.3104V30.696C7.39893 33.6931 11.0229 35.1969 13.1465 33.0768L17.8165 28.4069C19.1266 27.0967 19.1301 24.9766 17.827 23.6594L13.1571 18.9437C11.0405 16.806 7.39893 18.3063 7.39893 21.3104Z" fill="white"/>
<path d="M35.7288 13.7204V26.6807C35.7288 30.8223 30.7243 32.8932 27.7941 29.9665L21.3457 23.5181C19.5355 21.7079 19.5284 18.7812 21.3281 16.964L27.7765 10.4521C30.6961 7.50085 35.7253 9.57168 35.7253 13.7204H35.7288Z" fill="#D5D4FF"/>
<path d="M116.653 41.9227L116.639 5.03512C116.639 4.52446 116.843 4.0314 117.206 3.67218L120.559 0.322926C121.246 -0.360308 122.415 0.11866 122.422 1.08716V17.2558H122.757C123.415 16.6924 123.69 16.3789 124.116 16.0584C124.908 15.4632 125.599 15.023 126.69 14.4877C127.796 13.9489 129.201 13.6037 130.976 13.6037C133.287 13.6037 135.351 14.1883 137.164 15.3576C138.978 16.5268 140.404 18.2103 141.443 20.4114C142.482 22.6125 143 25.2574 143 28.3531C143 31.4488 142.482 34.0972 141.454 36.3054C140.422 38.51 139.006 40.2076 137.203 41.3944C135.4 42.5813 133.343 43.1764 131.033 43.1764C129.293 43.1764 127.874 42.8841 126.771 42.2995C125.673 41.7149 124.81 41.0317 124.19 40.2498C123.57 39.468 123.091 38.7706 122.753 38.1614H122.288V41.8663C122.288 42.5883 121.704 43.1729 120.982 43.1729H117.893C117.206 43.1729 116.646 42.6165 116.646 41.9262L116.653 41.9227ZM123.017 28.2932C123.017 30.3077 123.309 32.0721 123.894 33.5865C124.479 35.1044 125.225 36.3723 126.331 37.2246C127.437 38.0768 128.409 38.4149 130.012 38.4149C131.614 38.4149 132.843 37.9712 133.963 37.0837C135.083 36.1962 135.928 34.9847 136.509 33.4562C137.087 31.9277 137.376 30.2056 137.376 28.2932C137.376 26.3809 137.094 24.708 136.527 23.2042C135.96 21.7004 135.115 20.5135 133.991 19.6436C132.868 18.7737 131.466 18.337 129.786 18.337C128.106 18.337 127.12 18.7526 126.095 19.6894C124.856 20.827 124.444 21.5806 123.873 23.0704C123.302 24.5601 123.014 26.3034 123.014 28.2897L123.017 28.2932Z" fill="white"/>
<path d="M104.088 42.1237V18.7142C104.088 18.0098 104.384 17.3477 104.877 16.8441C105.888 15.8193 107.24 14.488 107.906 13.8048C108.128 13.5794 108.42 13.442 108.737 13.4209C109.269 13.4209 109.755 13.928 109.755 14.4774V42.1202C109.755 42.6731 109.325 43.1169 108.793 43.1169H105.05C104.518 43.1169 104.088 42.6696 104.088 42.1202V42.1237Z" fill="white"/>
<path d="M72.6764 31.0165C72.1446 30.0515 71.4367 29.2274 70.5739 28.5688C69.7357 27.9314 68.8165 27.4102 67.8374 27.0192C66.883 26.6389 65.9392 26.336 65.0376 26.1141L62.3187 25.4062C61.7975 25.2759 61.2481 25.1069 60.6811 24.9026C60.1387 24.7054 59.6245 24.4589 59.1526 24.1595C58.7194 23.8883 58.3708 23.5467 58.1066 23.1452C57.8601 22.7649 57.7404 22.3176 57.7404 21.7753C57.7404 21.1167 57.9235 20.5497 58.3038 20.0355C58.6912 19.5072 59.2547 19.0846 59.9802 18.7711C60.7304 18.4507 61.6425 18.2851 62.692 18.2851C64.1501 18.2851 65.3651 18.6056 66.3054 19.2431C67.0204 19.7291 67.4782 20.3489 67.7001 21.1378C67.9008 21.8457 68.5735 22.3423 69.3342 22.3423H71.1937C71.6269 22.3423 72.0601 22.212 72.3911 21.9302C72.8666 21.5217 73.0779 20.9054 72.9581 20.3137C72.7504 19.2501 72.3207 18.2675 71.6868 17.3871C70.7957 16.1509 69.5631 15.1683 68.0276 14.464C66.5097 13.7702 64.7453 13.418 62.7836 13.418C60.8219 13.418 59.0646 13.7702 57.5079 14.471C55.9301 15.1789 54.6588 16.1826 53.7325 17.461C52.7887 18.7571 52.3097 20.2926 52.3097 22.0183C52.3097 24.1278 53.0317 25.8535 54.4615 27.146C55.828 28.3822 57.691 29.3296 60.0014 29.9564L63.2907 30.8545C64.2522 31.1081 65.1221 31.4039 65.8828 31.7314C66.5872 32.0378 67.1471 32.4217 67.5521 32.876C67.9184 33.2881 68.0945 33.8128 68.0945 34.4855C68.0945 35.2533 67.8762 35.9013 67.4289 36.4683C66.964 37.0529 66.3125 37.5178 65.4919 37.8524C64.6431 38.1975 63.657 38.3701 62.5582 38.3701C61.558 38.3701 60.6318 38.2186 59.8006 37.9228C59.0082 37.6411 58.3496 37.2043 57.8495 36.6232C57.5009 36.2182 57.2649 35.7498 57.1276 35.1934C56.9444 34.4362 56.2612 33.9044 55.4723 33.9044H53.4684C53.1373 33.9044 52.7992 33.9748 52.521 34.1545C51.8941 34.5524 51.6018 35.2603 51.7321 35.9435C51.9646 37.1586 52.4259 38.2609 53.1021 39.2188C54.0248 40.5254 55.3138 41.5432 56.9303 42.2476C58.5222 42.9379 60.424 43.2901 62.5793 43.2901C64.7347 43.2901 66.7879 42.9132 68.3939 42.1736C70.028 41.4235 71.2958 40.374 72.1657 39.0639C73.0391 37.7432 73.4829 36.2182 73.4829 34.5278C73.4829 33.1789 73.2082 31.9956 72.6658 31.013L72.6764 31.0165Z" fill="white"/>
<path d="M103.521 1.71769V6.50032C103.521 8.02879 105.292 8.79303 106.331 7.71183L108.613 5.3346C109.254 4.66897 109.258 3.58777 108.62 2.91511L106.338 0.513223C105.303 -0.57502 103.521 0.189216 103.521 1.72121V1.71769Z" fill="white"/>
<path d="M92.9872 14.006C92.0433 13.6151 91.0678 13.4214 90.1063 13.4214C88.2046 13.4214 86.3591 14.1715 84.9257 15.6049L77.6673 22.8634C75.5788 25.2899 75.4732 27.7411 75.6598 29.1569C75.6598 29.178 75.6669 29.2449 75.6704 29.2661C75.7796 30.0092 76.6988 31.3052 77.2341 30.7804C77.6954 30.3297 78.192 29.8436 78.4209 29.6147C78.8717 29.1674 79.3437 28.692 79.6606 28.375C79.879 28.1532 80.0551 27.8996 80.1924 27.6214C80.203 27.6038 80.5164 27.1177 80.7172 26.917L87.9756 19.6585C88.1236 19.4965 89.2752 18.5421 90.6135 18.9577C91.7933 19.3275 91.9342 20.3136 91.9306 20.9193V29.9282H83.9396C83.1789 29.9282 82.4429 30.2381 81.9252 30.8016L80.1678 32.559C79.6113 33.1612 80.1044 34.2389 80.925 34.253C80.932 34.253 80.939 34.253 80.9426 34.253H91.9306V42.3708C91.9306 42.8849 92.3497 43.304 92.8639 43.304H96.6147C97.1289 43.304 97.548 42.8849 97.548 42.3708V21.0109C97.548 17.9821 95.787 15.1753 92.9907 14.0166L92.9872 14.006Z" fill="white"/>
<defs>
<linearGradient id="paint0_linear_1553_4938" x1="40.7933" y1="40.8707" x2="1.02837" y2="0.95089" gradientUnits="userSpaceOnUse">
<stop stop-color="#6F03E0"/>
<stop offset="1" stop-color="#2D11A5"/>
</linearGradient>
</defs>
</svg>
