<svg width="66" height="67" viewBox="0 0 66 67" fill="none" xmlns="http://www.w3.org/2000/svg">
<g clip-path="url(#clip0_1167_4210)">
<path d="M53.9788 0.931885H11.6711C5.22533 0.931885 0 6.15721 0 12.603V54.9107C0 61.3565 5.22533 66.5818 11.6711 66.5818H53.9788C60.4246 66.5818 65.6499 61.3565 65.6499 54.9107V12.603C65.6499 6.15721 60.4246 0.931885 53.9788 0.931885Z" fill="url(#paint0_linear_1167_4210)"/>
<path d="M11.2627 33.3701V47.6599C11.2627 52.2262 16.7846 54.5093 20.0087 51.2852L27.1135 44.1804C29.1049 42.189 29.1121 38.9576 27.1281 36.9516L20.0233 29.7739C16.8064 26.5206 11.2554 28.8038 11.2554 33.3774L11.2627 33.3701Z" fill="white"/>
<path d="M54.3874 21.8157V41.5399C54.3874 47.8423 46.7647 51.0008 42.3078 46.5439L32.4968 36.7329C29.7468 33.9829 29.7322 29.5187 32.4749 26.7541L42.2859 16.8409C46.7355 12.3476 54.3874 15.4988 54.3874 21.8157Z" fill="#D5D4FF"/>
</g>
<defs>
<linearGradient id="paint0_linear_1167_4210" x1="61.2076" y1="62.2489" x2="2.50929" y2="3.32446" gradientUnits="userSpaceOnUse">
<stop stop-color="#6F03E0"/>
<stop offset="1" stop-color="#2D11A5"/>
</linearGradient>
<clipPath id="clip0_1167_4210">
<rect width="65.6499" height="65.6499" fill="white" transform="translate(0 0.931885)"/>
</clipPath>
</defs>
</svg>
