<svg width="83" height="24" viewBox="0 0 83 24" fill="none" xmlns="http://www.w3.org/2000/svg">
<path d="M20.88 0H3.12004C1.39689 0 0 1.39689 0 3.12004V20.88C0 22.6031 1.39689 24 3.12004 24H20.88C22.6031 24 24 22.6031 24 20.88V3.12004C24 1.39689 22.6031 0 20.88 0Z" fill="url(#paint0_linear_1196_4457)"/>
<path d="M4.11768 11.859V17.082C4.11768 18.7498 6.13434 19.5866 7.31611 18.4068L9.91484 15.8081C10.6439 15.079 10.6458 13.8992 9.92071 13.1662L7.32199 10.542C6.14413 9.35243 4.11768 10.1873 4.11768 11.859Z" fill="white"/>
<path d="M19.8827 7.63558V14.8477C19.8827 17.1525 17.0978 18.3049 15.4673 16.6762L11.8788 13.0878C10.8715 12.0805 10.8676 10.4518 11.869 9.44058L15.4575 5.81687C17.0822 4.17453 19.8808 5.32691 19.8808 7.63558H19.8827Z" fill="#D5D4FF"/>
<path d="M67.8374 23.2312L67.8296 2.78923C67.8296 2.50624 67.9428 2.233 68.1438 2.03393L70.0018 0.177873C70.3824 -0.200754 71.0304 0.0646754 71.0343 0.601389V9.56158H71.2197C71.5846 9.24931 71.7369 9.07561 71.973 8.89801C72.4122 8.56817 72.7947 8.32421 73.3997 8.02756C74.0125 7.72895 74.7913 7.53768 75.7749 7.53768C77.0552 7.53768 78.1989 7.86166 79.204 8.50962C80.2091 9.15758 80.9996 10.0905 81.5753 11.3103C82.1511 12.5301 82.438 13.9958 82.438 15.7113C82.438 17.4269 82.1511 18.8945 81.5812 20.1183C81.0093 21.34 80.2248 22.2807 79.2255 22.9384C78.2262 23.5962 77.0864 23.926 75.8061 23.926C74.842 23.926 74.0555 23.764 73.4446 23.44C72.8357 23.116 72.3575 22.7374 72.014 22.3041C71.6705 21.8709 71.4051 21.4844 71.2177 21.1468H70.9601V23.2C70.9601 23.6001 70.6361 23.924 70.236 23.924H68.5244C68.1438 23.924 67.8335 23.6157 67.8335 23.2331L67.8374 23.2312ZM71.3641 15.6782C71.3641 16.7945 71.5261 17.7723 71.8501 18.6116C72.174 19.4527 72.5878 20.1553 73.2006 20.6276C73.8135 21.1 74.3521 21.2873 75.2401 21.2873C76.1282 21.2873 76.8093 21.0414 77.4299 20.5496C78.0506 20.0578 78.519 19.3864 78.841 18.5393C79.1611 17.6923 79.3211 16.7379 79.3211 15.6782C79.3211 14.6184 79.165 13.6914 78.8508 12.858C78.5365 12.0246 78.0681 11.3669 77.4456 10.8848C76.823 10.4028 76.0462 10.1608 75.1152 10.1608C74.1843 10.1608 73.6378 10.3911 73.0699 10.9102C72.3829 11.5406 72.1545 11.9583 71.8384 12.7838C71.5222 13.6094 71.3621 14.5755 71.3621 15.6762L71.3641 15.6782Z" fill="#211E4A"/>
<path d="M60.874 23.3423V10.3694C60.874 9.97908 61.038 9.61217 61.3112 9.33308C61.8713 8.76513 62.6208 8.0274 62.9897 7.64877C63.1126 7.52386 63.2746 7.44775 63.4503 7.43604C63.745 7.43604 64.0143 7.71708 64.0143 8.02154V23.3403C64.0143 23.6467 63.7762 23.8927 63.4815 23.8927H61.4068C61.1121 23.8927 60.874 23.6448 60.874 23.3403V23.3423Z" fill="#211E4A"/>
<path d="M43.4673 17.1871C43.1726 16.6524 42.7803 16.1957 42.3022 15.8307C41.8377 15.4775 41.3283 15.1886 40.7857 14.972C40.2568 14.7612 39.7337 14.5934 39.2341 14.4704L37.7274 14.0781C37.4386 14.0059 37.1341 13.9122 36.8199 13.799C36.5193 13.6897 36.2344 13.5531 35.9728 13.3872C35.7328 13.2369 35.5396 13.0476 35.3932 12.8251C35.2566 12.6143 35.1902 12.3665 35.1902 12.0659C35.1902 11.701 35.2917 11.3867 35.5025 11.1018C35.7172 10.809 36.0294 10.5748 36.4315 10.4011C36.8472 10.2235 37.3527 10.1318 37.9343 10.1318C38.7423 10.1318 39.4156 10.3094 39.9367 10.6627C40.3329 10.932 40.5866 11.2755 40.7096 11.7127C40.8208 12.105 41.1936 12.3801 41.6152 12.3801H42.6457C42.8857 12.3801 43.1258 12.3079 43.3092 12.1518C43.5727 11.9254 43.6898 11.5839 43.6235 11.256C43.5083 10.6666 43.2702 10.122 42.9189 9.63412C42.4251 8.94908 41.742 8.40456 40.8911 8.01422C40.0499 7.62974 39.0721 7.43457 37.985 7.43457C36.8979 7.43457 35.924 7.62974 35.0614 8.01812C34.187 8.41041 33.4825 8.96664 32.9692 9.67511C32.4461 10.3933 32.1807 11.2443 32.1807 12.2006C32.1807 13.3696 32.5808 14.326 33.3732 15.0422C34.1304 15.7273 35.1629 16.2523 36.4432 16.5997L38.2661 17.0974C38.7989 17.2379 39.2809 17.4018 39.7025 17.5833C40.0928 17.7531 40.4032 17.9659 40.6276 18.2176C40.8306 18.446 40.9282 18.7368 40.9282 19.1096C40.9282 19.535 40.8072 19.8941 40.5593 20.2084C40.3017 20.5323 39.9406 20.79 39.4859 20.9754C39.0155 21.1666 38.469 21.2623 37.8601 21.2623C37.3058 21.2623 36.7925 21.1783 36.3319 21.0144C35.8928 20.8583 35.5279 20.6163 35.2507 20.2942C35.0575 20.0698 34.9267 19.8102 34.8506 19.5018C34.7491 19.0822 34.3705 18.7875 33.9333 18.7875H32.8228C32.6394 18.7875 32.452 18.8266 32.2978 18.9261C31.9504 19.1466 31.7884 19.5389 31.8606 19.9176C31.9894 20.5909 32.2451 21.2018 32.6198 21.7326C33.1312 22.4567 33.8455 23.0207 34.7413 23.4111C35.6235 23.7936 36.6774 23.9888 37.8718 23.9888C39.0663 23.9888 40.2041 23.7799 41.0941 23.3701C41.9996 22.9544 42.7023 22.3728 43.1843 21.6468C43.6683 20.9149 43.9143 20.0698 43.9143 19.133C43.9143 18.3855 43.762 17.7297 43.4615 17.1852L43.4673 17.1871Z" fill="#211E4A"/>
<path d="M60.5601 0.950807V3.6012C60.5601 4.44823 61.5418 4.87175 62.1175 4.27258L63.3822 2.95519C63.7374 2.58632 63.7394 1.98715 63.3861 1.61438L62.1214 0.28333C61.5476 -0.319741 60.5601 0.103775 60.5601 0.952759V0.950807Z" fill="#211E4A"/>
<path d="M54.7224 7.7605C54.1993 7.54387 53.6587 7.43652 53.1259 7.43652C52.072 7.43652 51.0493 7.85223 50.255 8.64657L46.2326 12.669C45.0752 14.0137 45.0167 15.3721 45.1201 16.1567C45.1201 16.1684 45.124 16.2055 45.1259 16.2172C45.1865 16.629 45.6958 17.3472 45.9925 17.0564C46.2482 16.8066 46.5234 16.5372 46.6502 16.4104C46.9 16.1625 47.1616 15.899 47.3372 15.7234C47.4582 15.6004 47.5558 15.4599 47.6319 15.3057C47.6378 15.296 47.8115 15.0266 47.9227 14.9154L51.9451 10.893C52.0271 10.8032 52.6653 10.2743 53.407 10.5046C54.0608 10.7095 54.1388 11.256 54.1369 11.5917V16.5841H49.7085C49.2869 16.5841 48.879 16.7558 48.5921 17.0681L47.6183 18.042C47.3099 18.3757 47.5831 18.9729 48.0379 18.9808C48.0418 18.9808 48.0457 18.9808 48.0476 18.9808H54.1369V23.4794C54.1369 23.7643 54.3691 23.9966 54.6541 23.9966H56.7326C57.0176 23.9966 57.2498 23.7643 57.2498 23.4794V11.6424C57.2498 9.96396 56.274 8.40846 54.7243 7.76636L54.7224 7.7605Z" fill="#211E4A"/>
<defs>
<linearGradient id="paint0_linear_1196_4457" x1="22.7006" y1="22.7438" x2="0.572271" y2="0.529148" gradientUnits="userSpaceOnUse">
<stop stop-color="#6F03E0"/>
<stop offset="1" stop-color="#2D11A5"/>
</linearGradient>
</defs>
</svg>
