<svg xmlns="http://www.w3.org/2000/svg" xmlns:xlink="http://www.w3.org/1999/xlink" width="500" zoomAndPan="magnify" viewBox="0 0 375 374.999991" height="500" preserveAspectRatio="xMidYMid meet" version="1.0"><defs><clipPath id="994e6f7c16"><path d="M 16.25 41.292969 L 359 41.292969 L 359 333.792969 L 16.25 333.792969 Z M 16.25 41.292969 " clip-rule="nonzero"/></clipPath></defs><g clip-path="url(#994e6f7c16)"><path fill="#d514e6" d="M 158.355469 169.421875 C 156.265625 167.40625 156.265625 164.128906 158.269531 162.082031 C 160.269531 160.03125 163.578125 160.003906 165.625 162.011719 L 180.339844 176.496094 L 209.246094 147.632812 C 211.289062 145.609375 214.597656 145.613281 216.601562 147.640625 C 218.648438 149.667969 218.648438 152.953125 216.601562 154.980469 L 184.039062 187.46875 C 182.039062 189.476562 178.796875 189.5 176.769531 187.496094 Z M 194.703125 300.355469 C 194.703125 303.226562 192.355469 305.550781 189.480469 305.550781 L 125.445312 305.550781 C 122.574219 305.550781 120.265625 303.230469 120.265625 300.355469 C 120.265625 297.496094 122.574219 295.171875 125.445312 295.171875 L 189.480469 295.171875 C 192.351562 295.171875 194.703125 297.496094 194.703125 300.355469 Z M 199.535156 272.277344 C 199.535156 275.140625 197.230469 277.464844 194.355469 277.464844 L 125.445312 277.464844 C 122.570312 277.464844 120.265625 275.140625 120.265625 272.277344 C 120.265625 269.402344 122.570312 267.089844 125.445312 267.089844 L 194.355469 267.089844 C 197.230469 267.089844 199.535156 269.40625 199.535156 272.277344 Z M 120.265625 244.191406 C 120.265625 241.328125 122.574219 239 125.445312 239 L 232.445312 239 C 235.320312 239 237.628906 241.328125 237.628906 244.191406 C 237.628906 247.054688 235.320312 249.375 232.445312 249.375 L 125.445312 249.375 C 122.570312 249.375 120.265625 247.054688 120.265625 244.191406 Z M 232.273438 300.152344 C 225.699219 300.152344 220.300781 294.785156 220.300781 288.175781 C 220.300781 281.578125 225.699219 276.210938 232.273438 276.210938 C 238.890625 276.210938 244.246094 281.578125 244.246094 288.175781 C 244.242188 294.785156 238.890625 300.152344 232.273438 300.152344 Z M 232.273438 265.832031 C 219.953125 265.832031 209.941406 275.855469 209.941406 288.175781 C 209.941406 300.503906 219.953125 310.53125 232.273438 310.53125 C 244.59375 310.53125 254.648438 300.503906 254.648438 288.175781 C 254.648438 275.855469 244.59375 265.832031 232.273438 265.832031 Z M 336.3125 192.894531 C 329.742188 192.894531 324.34375 187.523438 324.34375 180.921875 C 324.34375 174.320312 329.742188 168.953125 336.3125 168.953125 C 342.929688 168.953125 348.285156 174.320312 348.285156 180.921875 C 348.285156 187.523438 342.929688 192.894531 336.3125 192.894531 Z M 284.425781 309.648438 L 284.425781 186.109375 L 237.976562 186.109375 C 230.269531 207.054688 210.027344 221.367188 187.433594 221.367188 C 163.535156 221.367188 142.25 205.316406 135.71875 182.351562 C 134.890625 179.589844 136.503906 176.71875 139.246094 175.9375 C 142.03125 175.148438 144.90625 176.742188 145.6875 179.5 C 150.957031 198.039062 168.152344 210.988281 187.4375 210.988281 C 206.765625 210.988281 223.914062 198.039062 229.226562 179.5 C 229.945312 177.296875 231.796875 175.738281 234.1875 175.738281 L 284.425781 175.738281 L 284.425781 121.183594 L 238.933594 121.183594 C 225.699219 121.183594 214.945312 110.425781 214.945312 97.207031 L 214.945312 51.734375 L 104.113281 51.734375 C 96.582031 51.734375 90.488281 57.835938 90.488281 65.339844 L 90.488281 148.992188 L 136.9375 148.992188 C 144.640625 128.046875 164.886719 113.734375 187.433594 113.734375 C 211.375 113.734375 232.664062 129.773438 239.195312 152.75 C 239.976562 155.511719 238.410156 158.382812 235.625 159.164062 C 232.878906 159.945312 230.011719 158.347656 229.226562 155.601562 C 223.914062 137.0625 206.761719 124.113281 187.433594 124.113281 C 168.152344 124.113281 150.957031 137.0625 145.6875 155.601562 C 145.6875 155.617188 145.6875 155.628906 145.644531 155.640625 L 144.992188 157.0625 C 144.140625 158.425781 142.386719 159.367188 140.726562 159.367188 C 123.980469 159.367188 107.234375 159.367188 90.488281 159.367188 L 90.488281 309.648438 C 90.488281 317.15625 96.582031 323.257812 104.113281 323.257812 L 270.800781 323.257812 C 278.285156 323.257812 284.425781 317.15625 284.425781 309.648438 Z M 225.308594 59.070312 L 277.066406 110.808594 L 238.933594 110.808594 C 231.445312 110.808594 225.308594 104.707031 225.308594 97.207031 Z M 38.554688 166.144531 C 31.980469 166.144531 26.582031 160.777344 26.582031 154.175781 C 26.582031 147.574219 31.980469 142.207031 38.554688 142.207031 C 45.171875 142.207031 50.527344 147.574219 50.527344 154.175781 C 50.527344 160.78125 45.171875 166.144531 38.554688 166.144531 Z M 336.3125 158.578125 C 325.78125 158.578125 316.941406 165.902344 314.59375 175.738281 L 294.785156 175.738281 L 294.785156 115.996094 C 294.785156 114.617188 294.21875 113.304688 293.261719 112.328125 L 223.828125 42.878906 C 222.824219 41.902344 221.519531 41.359375 220.125 41.359375 L 104.113281 41.359375 C 90.878906 41.359375 80.128906 52.113281 80.128906 65.339844 L 80.128906 148.992188 L 60.320312 148.992188 C 57.96875 139.15625 49.089844 131.835938 38.554688 131.835938 C 26.234375 131.835938 16.222656 141.855469 16.222656 154.175781 C 16.222656 166.5 26.234375 176.523438 38.554688 176.523438 C 49.089844 176.523438 57.972656 169.199219 60.320312 159.367188 L 80.128906 159.367188 L 80.128906 309.648438 C 80.128906 322.875 90.878906 333.636719 104.113281 333.636719 L 270.796875 333.636719 C 284.03125 333.636719 294.785156 322.875 294.785156 309.648438 L 294.785156 186.109375 L 314.589844 186.109375 C 316.941406 195.9375 325.777344 203.269531 336.3125 203.269531 C 348.632812 203.269531 358.6875 193.246094 358.6875 180.921875 C 358.691406 168.601562 348.632812 158.578125 336.3125 158.578125 Z M 336.3125 158.578125 " fill-opacity="1" fill-rule="evenodd"/></g></svg>