<svg width="1440" height="143" viewBox="0 0 1440 143" fill="none" xmlns="http://www.w3.org/2000/svg">
<path d="M311.205 142.549C234.093 141.053 173.907 124.621 129.694 105.696C34.3392 64.9689 -9.3006 4.31526 -9.7033 3.71116L-4.90067 0.286251C-4.49797 0.890344 38.3956 60.3369 132.343 100.381C219.127 137.364 368.436 164.827 587.066 85.7074C830.556 -2.29171 1063.94 12.4316 1216.86 40.2626C1382.57 70.4289 1492.22 122.166 1493.27 122.664L1490.74 128.041C1489.69 127.543 1380.57 76.1143 1215.62 46.0821C1063.47 18.4449 831.268 3.74455 589.089 91.2921C479.506 130.906 387.134 143.962 311.206 142.489L311.205 142.549Z" fill="url(#paint0_linear_1553_4424)"/>
<defs>
<linearGradient id="paint0_linear_1553_4424" x1="-10.9462" y1="67.7874" x2="1493.77" y2="96.9737" gradientUnits="userSpaceOnUse">
<stop stop-color="#6F03E0"/>
<stop offset="1" stop-color="#AB79E0" stop-opacity="0.3"/>
</linearGradient>
</defs>
</svg>
