<svg width="317" height="345" viewBox="0 0 317 345" fill="none" xmlns="http://www.w3.org/2000/svg">
<mask id="mask0_1553_4387" style="mask-type:alpha" maskUnits="userSpaceOnUse" x="0" y="0" width="317" height="345">
<rect width="317" height="345" rx="24" fill="#D9D9D9"/>
</mask>
<g mask="url(#mask0_1553_4387)">
<g opacity="0.3">
<g clip-path="url(#clip0_1553_4387)">
<path d="M238.165 44.009C258.676 23.3287 290.024 54.5985 269.837 75.5403C249.402 96.7436 217.555 64.7858 238.165 44.009Z" fill="#5438DC"/>
<path d="M196.171 38.2832C232.938 32.059 231.134 87.1393 197.934 81.9853C173.665 78.2194 174.295 41.9887 196.171 38.2832Z" fill="#5438DC"/>
<path d="M199.379 129.23C224.885 126.091 233.975 164.853 208.19 172.714C177.631 182.033 167.631 133.136 199.379 129.23Z" fill="#5438DC"/>
<path d="M169.834 84.1488C202.906 78.5482 206.262 124.487 178.218 128.004C149.024 131.661 145.321 88.3009 169.834 84.1488Z" fill="#5438DC"/>
<path d="M277.591 83.3636C296.393 81.0743 309.59 102.869 298.065 118.488C288.548 131.383 269.015 130.655 261.003 116.569C253.102 102.672 262.036 85.2546 277.591 83.3636Z" fill="#5438DC"/>
<path d="M251.25 129.232C280.36 125.398 284.973 169.627 258.161 173.208C226.693 177.412 223.437 132.893 251.25 129.232Z" fill="#5438DC"/>
<path d="M148.302 138.046C162.424 135.958 168.837 156.079 156.526 162.464C137.712 172.229 129.041 140.895 148.302 138.046Z" fill="#5438DC"/>
<path d="M226.542 2.05586C239.714 0.744229 246.039 19.2317 234.455 26.1882C215.819 37.3813 205.556 4.144 226.542 2.05586Z" fill="#5438DC"/>
<path d="M225.743 183.108C235.021 182.207 242.303 191.714 239.051 200.618C235.153 211.288 221.338 212.318 215.652 202.529C210.963 194.45 216.972 183.961 225.743 183.108Z" fill="#5438DC"/>
<path d="M303.935 47.0976C318.344 45.094 324.381 66.768 310.495 72.2801C292.171 79.5544 285.244 49.6968 303.935 47.0976Z" fill="#5438DC"/>
<path d="M140.784 70.0055C127.939 57.0541 149.719 37.6815 160.473 52.9704C169.89 66.3562 151.403 80.7117 140.784 70.0055Z" fill="#5438DC"/>
<path d="M296.409 160.129C285.751 149.382 299.917 130.73 313.304 140.277C328.165 150.879 309.298 173.12 296.409 160.129Z" fill="#5438DC"/>
<path d="M282.339 -6.80153C302.367 -11.4284 300.196 20.2115 281.988 14.1322C271.745 10.7123 273.377 -4.72949 282.339 -6.80153Z" fill="#5438DC"/>
<path d="M283.153 196.802C299.718 193.338 301.653 216.038 288.361 218.154C273.896 220.455 270.731 199.397 283.153 196.802Z" fill="#5438DC"/>
<path d="M161.534 12.0693C151.211 1.56825 167.791 -14.9156 177.652 -2.97416C187.197 8.58908 170.429 21.1139 161.534 12.0693Z" fill="#5438DC"/>
<path d="M167.432 196.804C182.416 194.064 184.754 215.183 173.294 217.991C156.937 222.003 153.972 199.267 167.432 196.804Z" fill="#5438DC"/>
<path d="M108.371 95.4154C126.251 91.6656 126.654 118.832 109.875 116.904C97.7681 115.512 97.6364 97.6685 108.371 95.4154Z" fill="#5438DC"/>
<path d="M220.592 256.692C211.685 247.277 227.607 234.483 234.694 245.293C240.951 254.841 227.862 264.38 220.592 256.692Z" fill="#5438DC"/>
<path d="M109.919 27.0966C119.133 36.3867 102.96 50.2271 95.9445 38.3742C90.4338 29.0641 102.612 19.7298 109.919 27.0966Z" fill="#5438DC"/>
<path d="M102.014 169.424C114.404 167.396 115.693 184.564 107.201 186.752C92.9357 190.434 90.9804 171.23 102.014 169.424Z" fill="#5438DC"/>
<path d="M306.305 236.211C315.515 235.306 317.283 250.647 306.9 250.555C298.616 250.478 297.626 237.068 306.305 236.211Z" fill="#5438DC"/>
<path d="M143.961 238.71C148.841 233.327 159.623 239.374 155.202 247.24C150.094 256.329 136.954 246.435 143.961 238.71Z" fill="#5438DC"/>
<path d="M67.665 99.4171C80.3344 96.5404 79.4326 116.537 67.0505 112.562C61.444 110.763 61.6754 100.777 67.665 99.4171Z" fill="#5438DC"/>
</g>
</g>
</g>
<defs>
<clipPath id="clip0_1553_4387">
<rect width="330" height="307.5" fill="white" transform="translate(63 -48)"/>
</clipPath>
</defs>
</svg>
