<svg width="183" height="44" viewBox="0 0 183 44" fill="none" xmlns="http://www.w3.org/2000/svg">
<path d="M39.5349 4.17328C43.9386 5.52755 45.6608 8.21557 44.6667 12.8597C43.5815 17.9348 42.1393 22.9757 40.4941 27.914C39.2129 31.7648 35.2923 33.7073 31.7218 32.7702C28.2913 31.8742 26.2189 28.6048 26.604 24.6925C26.9681 21.0127 27.0171 19.0087 26.1769 17.5108C25.2668 16.0402 23.4745 15.0827 20.016 13.5437C16.3545 11.9159 14.4992 8.52335 15.4164 5.17189C16.3685 1.67678 20.044 -0.669247 24.1046 0.17204C29.3064 1.25272 34.4942 2.55227 39.5349 4.17328Z" fill="url(#paint0_linear_552_458)"/>
<path d="M0.273093 12.8524C-0.721054 8.20824 1.0012 5.52022 5.40485 4.16596C10.4526 2.55178 15.6404 1.25223 20.8421 0.171552C24.8957 -0.669735 28.5783 1.67629 29.5304 5.1714C30.4475 8.52287 28.5853 11.9154 24.9307 13.5432C21.4722 15.0822 19.673 16.0397 18.7698 17.5103C17.9297 19.0082 17.9787 21.0122 18.3428 24.692C18.7278 28.6043 16.6555 31.8737 13.225 32.7697C9.64748 33.7068 5.7339 31.7643 4.45271 27.9135C2.80047 22.9684 1.35825 17.9343 0.273093 12.8524Z" fill="url(#paint1_linear_552_458)"/>
<g style="mix-blend-mode:overlay">
<path d="M19.68 12.6404C22.8042 12.6404 25.3368 10.1661 25.3368 7.11391C25.3368 4.0617 22.8042 1.5874 19.68 1.5874C16.5558 1.5874 14.0231 4.0617 14.0231 7.11391C14.0231 10.1661 16.5558 12.6404 19.68 12.6404Z" fill="black"/>
</g>
<g style="mix-blend-mode:overlay">
<path d="M34.4732 29.8836C37.5973 29.8836 40.13 27.4093 40.13 24.3571C40.13 21.3049 37.5973 18.8306 34.4732 18.8306C31.349 18.8306 28.8163 21.3049 28.8163 24.3571C28.8163 27.4093 31.349 29.8836 34.4732 29.8836Z" fill="black"/>
</g>
<path d="M17.3416 41.6686C20.9612 44.8354 24.2026 44.7191 27.6051 41.6686C31.5607 38.2145 35.3063 34.4732 38.8628 30.6087C41.6352 27.5992 41.3972 23.3176 38.7788 20.7595C36.2654 18.3041 32.3308 18.1878 29.0614 20.4654C25.9669 22.6268 24.2167 23.6664 22.4664 23.7006C20.7161 23.6596 18.9659 22.6199 15.8854 20.4654C12.6159 18.1809 8.67436 18.3041 6.16799 20.7595C3.5496 23.3176 3.31156 27.5992 6.08397 30.6087C9.6405 34.4732 13.3861 38.2077 17.3416 41.6686Z" fill="url(#paint2_linear_552_458)"/>
<g style="mix-blend-mode:overlay">
<path d="M13.057 33.2146C16.1812 33.2146 18.7138 30.7403 18.7138 27.6881C18.7138 24.6359 16.1812 22.1616 13.057 22.1616C9.93283 22.1616 7.40018 24.6359 7.40018 27.6881C7.40018 30.7403 9.93283 33.2146 13.057 33.2146Z" fill="black"/>
</g>
<path d="M0.273093 12.8524C-0.721054 8.20824 1.0012 5.52022 5.40485 4.16596C10.4526 2.55178 15.6404 1.25223 20.8421 0.171552C24.8957 -0.669735 28.5783 1.67629 29.5304 5.1714C30.4475 8.52287 28.5853 11.9154 24.9307 13.5432C21.4722 15.0822 19.673 16.0397 18.7698 17.5103C17.9297 19.0082 17.9787 21.0122 18.3428 24.692C18.7278 28.6043 16.6555 31.8737 13.225 32.7697C9.64748 33.7068 5.7339 31.7643 4.45271 27.9135C2.80047 22.9684 1.35825 17.9343 0.273093 12.8524Z" fill="url(#paint3_linear_552_458)"/>
<path d="M39.5349 4.17328C43.9386 5.52755 45.6608 8.21557 44.6667 12.8597C43.5815 17.9348 42.1393 22.9757 40.4941 27.914C39.2129 31.7648 35.2923 33.7073 31.7218 32.7702C28.2913 31.8742 26.2189 28.6048 26.604 24.6925C26.9681 21.0127 27.0171 19.0087 26.1769 17.5108C25.2668 16.0402 23.4745 15.0827 20.016 13.5437C16.3545 11.9159 14.4992 8.52335 15.4164 5.17189C16.3685 1.67678 20.044 -0.669247 24.1046 0.17204C29.3064 1.25272 34.4942 2.55227 39.5349 4.17328Z" fill="url(#paint4_linear_552_458)"/>
<path d="M58.6897 33.4949L69.9474 16.5871L80.1129 33.4949H84.1245L70.1154 10.1714L54.5731 33.4949H58.6897Z" fill="white"/>
<path d="M113.62 33.4606H88.2201V10.2397H113.62L109.811 13.5981H91.6856V20.1779H100.325L103.076 23.5362H91.6856V30.116H110.42L113.613 33.4743L113.62 33.4606Z" fill="white"/>
<path d="M122.322 32.5646C123.862 33.1392 125.487 33.4264 127.181 33.4264H141.295V17.7498H138.368L134.427 21.1354H137.829V30.0408H127.188C125.893 30.0408 124.681 29.8287 123.547 29.4115C122.434 28.9669 121.447 28.3787 120.586 27.6537C119.746 26.9013 119.081 26.0258 118.577 25.0272C118.1 24.0286 117.862 22.9685 117.862 21.8399C117.862 20.7114 118.1 19.6444 118.577 18.6526C119.074 17.6335 119.746 16.758 120.586 16.0262C121.447 15.2738 122.434 14.6856 123.547 14.2683C124.681 13.8238 125.893 13.6049 127.188 13.6049H137.696L141.302 10.2466H127.188C125.487 10.2466 123.869 10.5339 122.329 11.1084C120.789 11.6624 119.417 12.4832 118.212 13.5639C116.987 14.6719 116.049 15.9304 115.391 17.3531C114.733 18.7689 114.404 20.2668 114.404 21.8399C114.404 23.4131 114.733 24.9041 115.391 26.3268C116.049 27.7221 116.987 28.9738 118.212 30.0818C119.417 31.1693 120.789 31.9969 122.329 32.5715L122.322 32.5646Z" fill="white"/>
<path d="M175.789 20.1026C176.79 20.1026 177.714 20.2805 178.575 20.6361C179.458 20.9713 180.228 21.4364 180.886 22.0314C181.544 22.6265 182.055 23.3378 182.412 24.1586C182.797 24.9588 182.993 25.807 182.993 26.7167V26.915C182.993 27.8247 182.797 28.6728 182.412 29.4731C182.048 30.2733 181.537 30.971 180.886 31.566C180.228 32.1611 179.458 32.6399 178.575 32.9955C177.714 33.3512 176.783 33.529 175.789 33.529H159.603L163.138 30.1434H175.789C176.307 30.1434 176.797 30.0681 177.252 29.9108C177.707 29.733 178.099 29.5004 178.442 29.2132C178.785 28.9054 179.044 28.5565 179.226 28.1804C179.43 27.7836 179.535 27.3596 179.535 26.915V26.7167C179.535 26.2721 179.43 25.8548 179.226 25.4513C179.044 25.0546 178.785 24.7126 178.442 24.4185C178.099 24.1107 177.707 23.8782 177.252 23.7208C176.797 23.543 176.314 23.4541 175.789 23.4541H165.147C164.153 23.4541 163.208 23.2899 162.326 22.9548C161.465 22.5991 160.702 22.1272 160.051 21.5253C159.393 20.9302 158.874 20.2326 158.489 19.4323C158.125 18.6321 157.943 17.784 157.943 16.8743C157.943 15.9646 158.125 15.1165 158.489 14.3162C158.874 13.4954 159.393 12.791 160.051 12.1891C160.709 11.594 161.465 11.1289 162.326 10.7938C163.208 10.4381 164.153 10.2603 165.147 10.2603H180.858L177.287 13.6459H165.147C164.629 13.6459 164.139 13.7348 163.684 13.9127C163.229 14.07 162.837 14.2889 162.494 14.5761C162.151 14.8634 161.885 15.2054 161.675 15.6089C161.493 16.0056 161.402 16.4297 161.402 16.8743C161.402 17.3189 161.493 17.7361 161.675 18.1396C161.878 18.5158 162.151 18.8578 162.494 19.1724C162.837 19.4597 163.229 19.6922 163.684 19.8701C164.139 20.0274 164.622 20.1026 165.147 20.1026H175.789Z" fill="white"/>
<path d="M152.104 33.5564H148.639V10.3081L152.104 13.5638V33.5632V33.5564Z" fill="white"/>
<defs>
<linearGradient id="paint0_linear_552_458" x1="15.1783" y1="16.4985" x2="44.9397" y2="16.4985" gradientUnits="userSpaceOnUse">
<stop stop-color="#61EFFF"/>
<stop offset="1" stop-color="#0033AD"/>
</linearGradient>
<linearGradient id="paint1_linear_552_458" x1="2.73746" y1="29.1857" x2="20.4802" y2="-2.26594" gradientUnits="userSpaceOnUse">
<stop stop-color="#61EFFF"/>
<stop offset="1" stop-color="#0033AD"/>
</linearGradient>
<linearGradient id="paint2_linear_552_458" x1="4.09568" y1="31.4158" x2="40.8511" y2="31.4158" gradientUnits="userSpaceOnUse">
<stop stop-color="#0033AD"/>
<stop offset="1" stop-color="#61EFFF"/>
</linearGradient>
<linearGradient id="paint3_linear_552_458" x1="2.73746" y1="29.1857" x2="20.4802" y2="-2.26594" gradientUnits="userSpaceOnUse">
<stop stop-color="#61EFFF"/>
<stop offset="1" stop-color="#0033AD"/>
</linearGradient>
<linearGradient id="paint4_linear_552_458" x1="15.1783" y1="16.4985" x2="44.9397" y2="16.4985" gradientUnits="userSpaceOnUse">
<stop stop-color="#61EFFF"/>
<stop offset="1" stop-color="#0033AD"/>
</linearGradient>
</defs>
</svg>
