<svg width="148" height="40" viewBox="0 0 148 40" fill="none" xmlns="http://www.w3.org/2000/svg">
<g clip-path="url(#clip0_1_6)">
<g clip-path="url(#clip1_1_6)">
<g clip-path="url(#clip2_1_6)">
<path d="M16.5611 38.2037C18.898 40.2947 20.9924 40.2202 23.1892 38.2037C25.7455 35.9188 28.1639 33.4466 30.461 30.8942C32.2523 28.9038 32.0977 26.0731 30.4067 24.3822C28.7847 22.7609 26.243 22.6805 24.1298 24.1896C22.1336 25.6162 21.0028 26.3036 19.8699 26.3258C18.7412 26.2984 17.6083 25.6104 15.6205 24.1896C13.5073 22.6805 10.9656 22.7609 9.34361 24.3822C7.65263 26.0731 7.49795 28.9038 9.28926 30.8942C11.5864 33.4466 14.0048 35.9188 16.5611 38.2037Z" fill="url(#paint0_linear_1_6)"/>
<g style="mix-blend-mode:overlay" filter="url(#filter0_f_1_6)">
<circle cx="12.9497" cy="27.7024" r="4.33326" fill="#160033"/>
</g>
<path d="M1.8397 16.8544C-0.251291 19.1913 -0.176827 21.2857 1.8397 23.4825C4.12457 26.0388 6.59677 28.4572 9.14917 30.7544C11.1396 32.5457 13.9702 32.391 15.6612 30.7C17.2824 29.078 17.3629 26.5363 15.8538 24.4231C14.4272 22.4269 13.7398 21.2961 13.7176 20.1632C13.745 19.0345 14.433 17.9016 15.8538 15.9138C17.3629 13.8006 17.2825 11.2589 15.6612 9.63694C13.9703 7.94596 11.1396 7.79129 9.14918 9.5826C6.59677 11.8797 4.12457 14.2981 1.8397 16.8544Z" fill="url(#paint1_linear_1_6)"/>
<g style="mix-blend-mode:overlay" filter="url(#filter1_f_1_6)">
<circle cx="12.3427" cy="13.7415" r="4.33326" fill="#160033"/>
</g>
<path d="M23.1891 2.1342C20.8522 0.0432029 18.7579 0.117667 16.561 2.1342C14.0047 4.41906 11.5863 6.89126 9.28919 9.44367C7.49788 11.4341 7.65256 14.2647 9.34354 15.9557C10.9655 17.5769 13.5072 17.6574 15.6204 16.1483C17.6166 14.7217 18.7474 14.0343 19.8803 14.0121C21.009 14.0395 22.1419 14.7275 24.1297 16.1483C26.2429 17.6574 28.7846 17.5769 30.4066 15.9557C32.0976 14.2647 32.2523 11.4341 30.461 9.44367C28.1638 6.89126 25.7454 4.41906 23.1891 2.1342Z" fill="url(#paint2_linear_1_6)"/>
<g style="mix-blend-mode:overlay" filter="url(#filter2_f_1_6)">
<circle cx="26.8002" cy="12.636" r="4.33326" fill="#160033"/>
</g>
<path d="M37.9101 23.4834C40.0011 21.1466 39.9267 19.0522 37.9101 16.8554C35.6253 14.2991 33.1531 11.8807 30.6007 9.58354C28.6103 7.79223 25.7796 7.9469 24.0886 9.63788C22.4674 11.2599 22.3869 13.8016 23.8961 15.9148C25.3226 17.9109 26.01 19.0417 26.0323 20.1746C26.0048 21.3034 25.3169 22.4363 23.8961 24.424C22.3869 26.5372 22.4674 29.0789 24.0886 30.7009C25.7796 32.3919 28.6103 32.5466 30.6007 30.7553C33.1531 28.4582 35.6253 26.0398 37.9101 23.4834Z" fill="url(#paint3_linear_1_6)"/>
<g style="mix-blend-mode:overlay" filter="url(#filter3_f_1_6)">
<circle cx="27.4072" cy="27.093" r="4.33326" fill="#160033"/>
</g>
<mask id="mask0_1_6" style="mask-type:alpha" maskUnits="userSpaceOnUse" x="19" y="23" width="13" height="17">
<rect x="19.2175" y="23.1094" width="12.5232" height="16.6344" fill="#D9D9D9"/>
</mask>
<g mask="url(#mask0_1_6)">
<path d="M16.5607 38.2037C18.8975 40.2947 20.9919 40.2202 23.1887 38.2037C25.745 35.9188 28.1634 33.4466 30.4606 30.8942C32.2519 28.9038 32.0972 26.0731 30.4062 24.3822C28.7842 22.7609 26.2425 22.6805 24.1293 24.1896C22.1332 25.6162 21.0024 26.3036 19.8695 26.3258C18.7407 26.2984 17.6078 25.6104 15.6201 24.1896C13.5069 22.6805 10.9652 22.7609 9.34315 24.3822C7.65217 26.0731 7.49749 28.9038 9.2888 30.8942C11.5859 33.4466 14.0043 35.9188 16.5607 38.2037Z" fill="url(#paint4_linear_1_6)"/>
</g>
<circle cx="19.8752" cy="20.1686" r="6.18031" fill="white"/>
<circle cx="19.8753" cy="20.1695" r="3.33162" fill="#8859F1"/>
<path d="M16.5611 38.2038C18.898 40.2948 20.9924 40.2203 23.1892 38.2038C25.7455 35.919 28.1639 33.4468 30.461 30.8943C32.2524 28.9039 32.0977 26.0733 30.4067 24.3823C28.7847 22.7611 26.243 22.6806 24.1298 24.1897C22.1336 25.6163 21.0028 26.3037 19.8699 26.3259C18.7412 26.2985 17.6083 25.6105 15.6205 24.1897C13.5073 22.6806 10.9656 22.7611 9.34364 24.3823C7.65266 26.0733 7.49798 28.9039 9.28929 30.8943C11.5864 33.4468 14.0048 35.919 16.5611 38.2038Z" fill="url(#paint5_linear_1_6)"/>
<g style="mix-blend-mode:overlay" filter="url(#filter4_f_1_6)">
<circle cx="13.1039" cy="27.6139" r="4.11344" fill="black"/>
</g>
<path d="M1.83952 16.8549C-0.251474 19.1918 -0.177011 21.2862 1.83952 23.483C4.12438 26.0393 6.59658 28.4577 9.14899 30.7548C11.1394 32.5462 13.9701 32.3915 15.661 30.7005C17.2823 29.0785 17.3627 26.5368 15.8536 24.4236C14.427 22.4274 13.7396 21.2966 13.7174 20.1637C13.7448 19.035 14.4328 17.9021 15.8536 15.9143C17.3627 13.8011 17.2823 11.2594 15.6611 9.63743C13.9701 7.94645 11.1394 7.79177 9.14899 9.58308C6.59658 11.8802 4.12438 14.2986 1.83952 16.8549Z" fill="url(#paint6_linear_1_6)"/>
<g style="mix-blend-mode:overlay" filter="url(#filter5_f_1_6)">
<circle cx="11.9638" cy="13.4632" r="4.11386" fill="black"/>
</g>
<path d="M23.189 2.13371C20.8522 0.0427145 18.7578 0.117178 16.561 2.13371C14.0046 4.41857 11.5862 6.89077 9.2891 9.44318C7.49779 11.4336 7.65247 14.2643 9.34345 15.9552C10.9655 17.5765 13.5071 17.6569 15.6204 16.1478C17.6165 14.7212 18.7473 14.0338 19.8802 14.0116C21.0089 14.039 22.1418 14.727 24.1296 16.1478C26.2428 17.6569 28.7845 17.5765 30.4065 15.9552C32.0975 14.2643 32.2522 11.4336 30.4609 9.44318C28.1637 6.89077 25.7453 4.41857 23.189 2.13371Z" fill="url(#paint7_linear_1_6)"/>
<g style="mix-blend-mode:overlay" filter="url(#filter6_f_1_6)">
<circle cx="26.5364" cy="12.7239" r="4.11333" fill="black"/>
</g>
<path d="M37.9098 23.4827C40.0008 21.1459 39.9264 19.0515 37.9098 16.8547C35.625 14.2983 33.1528 11.8799 30.6004 9.5828C28.61 7.79149 25.7793 7.94617 24.0883 9.63715C22.4671 11.2592 22.3866 13.8009 23.8957 15.9141C25.3223 17.9102 26.0097 19.041 26.0319 20.1739C26.0045 21.3026 25.3166 22.4355 23.8957 24.4233C22.3866 26.5365 22.4671 29.0782 24.0883 30.7002C25.7793 32.3912 28.61 32.5459 30.6004 30.7546C33.1528 28.4574 35.625 26.039 37.9098 23.4827Z" fill="url(#paint8_linear_1_6)"/>
<g style="mix-blend-mode:overlay" filter="url(#filter7_f_1_6)">
<circle cx="27.1957" cy="26.8825" r="4.12158" fill="black"/>
</g>
<mask id="mask1_1_6" style="mask-type:alpha" maskUnits="userSpaceOnUse" x="19" y="23" width="13" height="17">
<rect x="19.2175" y="23.1099" width="12.5232" height="16.6344" fill="#D9D9D9"/>
</mask>
<g mask="url(#mask1_1_6)">
<path d="M16.5607 38.2038C18.8976 40.2948 20.992 40.2203 23.1888 38.2038C25.7451 35.919 28.1635 33.4468 30.4607 30.8943C32.252 28.9039 32.0973 26.0733 30.4063 24.3823C28.7843 22.7611 26.2426 22.6806 24.1294 24.1897C22.1332 25.6163 21.0024 26.3037 19.8695 26.3259C18.7408 26.2985 17.6079 25.6105 15.6201 24.1897C13.5069 22.6806 10.9652 22.7611 9.34324 24.3823C7.65226 26.0733 7.49758 28.9039 9.2889 30.8943C11.586 33.4468 14.0044 35.919 16.5607 38.2038Z" fill="url(#paint9_linear_1_6)"/>
</g>
<ellipse cx="19.875" cy="20.1688" rx="6.18031" ry="6.18031" fill="white"/>
<circle cx="19.875" cy="20.1688" r="3.33162" fill="#160033"/>
</g>
<path d="M59.3058 16.6675L51.7366 28.3073H48.9695L59.4202 12.254L68.8418 28.3073H66.1433L59.3058 16.6675ZM83.4938 23.0248L88.662 28.3302H85.4147L80.2466 23.0248H73.5006V25.7918L71.168 28.3073V23.0248H71.1452L71.168 12.2998H83.6768C84.2866 12.2998 84.8659 12.4446 85.4147 12.7343C85.9788 13.0239 86.4667 13.4355 86.8783 13.9691C87.2747 14.4722 87.572 15.0439 87.7701 15.6842C87.9683 16.3093 88.0674 16.9648 88.0674 17.6509C88.0674 18.3369 87.9683 19.0001 87.7701 19.6404C87.572 20.2807 87.2747 20.8447 86.8783 21.3326C86.4667 21.8662 85.9788 22.2854 85.4147 22.5903C84.8659 22.88 84.2866 23.0248 83.6768 23.0248H83.4938ZM83.6768 20.6923C83.9512 20.6923 84.2104 20.6161 84.4543 20.4636C84.7135 20.2959 84.9345 20.0749 85.1175 19.8004C85.3157 19.5108 85.4681 19.183 85.5748 18.8171C85.6968 18.4512 85.7578 18.0625 85.7578 17.6509C85.7578 17.2392 85.6968 16.8505 85.5748 16.4846C85.4681 16.1187 85.3157 15.7986 85.1175 15.5241C84.9345 15.2345 84.7135 15.0134 84.4543 14.861C84.2104 14.6933 83.9512 14.6094 83.6768 14.6094H73.5006L73.4777 19.366H73.5006V20.6923H83.6768ZM98.882 28.2616C97.7386 28.2616 96.6486 28.0634 95.6119 27.667C94.5752 27.2706 93.6529 26.6989 92.8449 25.9519C92.0216 25.1897 91.3889 24.3283 90.9468 23.3678C90.5047 22.3921 90.2836 21.3631 90.2836 20.2807C90.2836 19.1983 90.5047 18.1692 90.9468 17.1935C91.3889 16.2178 92.0216 15.3488 92.8449 14.5866C93.6529 13.8395 94.5752 13.2755 95.6119 12.8943C96.6486 12.498 97.7386 12.2998 98.882 12.2998H108.372L105.948 14.6094H98.882C98.013 14.6094 97.1974 14.7619 96.4351 15.0668C95.6881 15.3564 95.0249 15.7604 94.4456 16.2788C93.8815 16.7819 93.4318 17.3841 93.0964 18.0854C92.7763 18.7714 92.6162 19.5032 92.6162 20.2807C92.6162 21.0582 92.7763 21.79 93.0964 22.476C93.4318 23.162 93.8815 23.7642 94.4456 24.2826C95.0249 24.7857 95.6881 25.1897 96.4351 25.4946C97.1974 25.7842 98.013 25.929 98.882 25.929H106.04V19.8004H103.753L106.406 17.4679H108.372V28.2616H98.882ZM127.366 20.1663C127.366 21.264 127.153 22.3083 126.726 23.2992C126.314 24.2902 125.712 25.1744 124.919 25.9519C124.127 26.7294 123.22 27.324 122.198 27.7356C121.192 28.132 120.132 28.3302 119.02 28.3302C117.907 28.3302 116.839 28.132 115.818 27.7356C114.812 27.324 113.912 26.7294 113.12 25.9519C112.327 25.1744 111.717 24.2902 111.29 23.2992C110.879 22.3083 110.673 21.264 110.673 20.1663V12.2998L113.005 14.6552V20.1663C113.005 20.9743 113.158 21.729 113.463 22.4303C113.783 23.1315 114.217 23.749 114.766 24.2826C115.315 24.8161 115.955 25.2354 116.687 25.5403C117.419 25.8452 118.196 25.9977 119.02 25.9977C119.843 25.9977 120.62 25.8452 121.352 25.5403C122.084 25.2354 122.724 24.8161 123.273 24.2826C123.822 23.749 124.256 23.1315 124.576 22.4303C124.897 21.729 125.057 20.9743 125.057 20.1663V14.1292L127.366 12.2998V20.1663ZM141.683 19.0915C142.354 19.0915 142.979 19.2135 143.558 19.4574C144.153 19.6861 144.671 20.0063 145.113 20.4179C145.555 20.8295 145.898 21.3174 146.142 21.8814C146.401 22.4303 146.531 23.0172 146.531 23.6423V23.7795C146.531 24.4045 146.401 24.9915 146.142 25.5403C145.898 26.0891 145.555 26.5694 145.113 26.981C144.671 27.3926 144.153 27.7204 143.558 27.9643C142.979 28.2082 142.354 28.3302 141.683 28.3302H130.798L133.176 25.9977H141.683C142.034 25.9977 142.361 25.9443 142.666 25.8376C142.971 25.7156 143.238 25.5555 143.467 25.3574C143.695 25.1439 143.871 24.9076 143.993 24.6484C144.13 24.374 144.198 24.0844 144.198 23.7795V23.6423C144.198 23.3374 144.13 23.0477 143.993 22.7733C143.871 22.4989 143.695 22.2626 143.467 22.0644C143.238 21.8509 142.971 21.6909 142.666 21.5841C142.361 21.4622 142.034 21.4012 141.683 21.4012H134.525C133.854 21.4012 133.222 21.2869 132.627 21.0582C132.048 20.8143 131.537 20.4865 131.095 20.0749C130.653 19.6632 130.302 19.183 130.043 18.6342C129.799 18.0854 129.677 17.4984 129.677 16.8734C129.677 16.2483 129.799 15.6614 130.043 15.1125C130.302 14.5484 130.653 14.0606 131.095 13.649C131.537 13.2374 132.048 12.9172 132.627 12.6885C133.222 12.4446 133.854 12.3226 134.525 12.3226H145.09L142.689 14.6552H134.525C134.175 14.6552 133.847 14.7161 133.542 14.8381C133.237 14.9448 132.97 15.0973 132.742 15.2955C132.513 15.4937 132.33 15.73 132.193 16.0044C132.071 16.2788 132.01 16.5684 132.01 16.8734C132.01 17.1783 132.071 17.4679 132.193 17.7423C132.33 18.0015 132.513 18.2378 132.742 18.4512C132.97 18.6494 133.237 18.8095 133.542 18.9315C133.847 19.0382 134.175 19.0915 134.525 19.0915H141.683Z" fill="white"/>
</g>
</g>
<defs>
<filter id="filter0_f_1_6" x="6.89193" y="21.6447" width="12.1155" height="12.1154" filterUnits="userSpaceOnUse" color-interpolation-filters="sRGB">
<feFlood flood-opacity="0" result="BackgroundImageFix"/>
<feBlend mode="normal" in="SourceGraphic" in2="BackgroundImageFix" result="shape"/>
<feGaussianBlur stdDeviation="0.862233" result="effect1_foregroundBlur_1_6"/>
</filter>
<filter id="filter1_f_1_6" x="6.28493" y="7.68374" width="12.1155" height="12.1154" filterUnits="userSpaceOnUse" color-interpolation-filters="sRGB">
<feFlood flood-opacity="0" result="BackgroundImageFix"/>
<feBlend mode="normal" in="SourceGraphic" in2="BackgroundImageFix" result="shape"/>
<feGaussianBlur stdDeviation="0.862233" result="effect1_foregroundBlur_1_6"/>
</filter>
<filter id="filter2_f_1_6" x="20.7425" y="6.57827" width="12.1155" height="12.1154" filterUnits="userSpaceOnUse" color-interpolation-filters="sRGB">
<feFlood flood-opacity="0" result="BackgroundImageFix"/>
<feBlend mode="normal" in="SourceGraphic" in2="BackgroundImageFix" result="shape"/>
<feGaussianBlur stdDeviation="0.862233" result="effect1_foregroundBlur_1_6"/>
</filter>
<filter id="filter3_f_1_6" x="21.3495" y="21.0353" width="12.1155" height="12.1154" filterUnits="userSpaceOnUse" color-interpolation-filters="sRGB">
<feFlood flood-opacity="0" result="BackgroundImageFix"/>
<feBlend mode="normal" in="SourceGraphic" in2="BackgroundImageFix" result="shape"/>
<feGaussianBlur stdDeviation="0.862233" result="effect1_foregroundBlur_1_6"/>
</filter>
<filter id="filter4_f_1_6" x="6.92113" y="21.4311" width="12.3656" height="12.3656" filterUnits="userSpaceOnUse" color-interpolation-filters="sRGB">
<feFlood flood-opacity="0" result="BackgroundImageFix"/>
<feBlend mode="normal" in="SourceGraphic" in2="BackgroundImageFix" result="shape"/>
<feGaussianBlur stdDeviation="1.03467" result="effect1_foregroundBlur_1_6"/>
</filter>
<filter id="filter5_f_1_6" x="5.7806" y="7.27996" width="12.3664" height="12.3664" filterUnits="userSpaceOnUse" color-interpolation-filters="sRGB">
<feFlood flood-opacity="0" result="BackgroundImageFix"/>
<feBlend mode="normal" in="SourceGraphic" in2="BackgroundImageFix" result="shape"/>
<feGaussianBlur stdDeviation="1.03467" result="effect1_foregroundBlur_1_6"/>
</filter>
<filter id="filter6_f_1_6" x="20.3537" y="6.54119" width="12.3653" height="12.3654" filterUnits="userSpaceOnUse" color-interpolation-filters="sRGB">
<feFlood flood-opacity="0" result="BackgroundImageFix"/>
<feBlend mode="normal" in="SourceGraphic" in2="BackgroundImageFix" result="shape"/>
<feGaussianBlur stdDeviation="1.03467" result="effect1_foregroundBlur_1_6"/>
</filter>
<filter id="filter7_f_1_6" x="21.0048" y="20.6916" width="12.3819" height="12.3819" filterUnits="userSpaceOnUse" color-interpolation-filters="sRGB">
<feFlood flood-opacity="0" result="BackgroundImageFix"/>
<feBlend mode="normal" in="SourceGraphic" in2="BackgroundImageFix" result="shape"/>
<feGaussianBlur stdDeviation="1.03467" result="effect1_foregroundBlur_1_6"/>
</filter>
<linearGradient id="paint0_linear_1_6" x1="13.2727" y1="35.018" x2="31.7195" y2="35.0775" gradientUnits="userSpaceOnUse">
<stop offset="0.01" stop-color="#D9C7F5"/>
<stop offset="0.5" stop-color="#E8E0FC"/>
<stop offset="1" stop-color="white"/>
</linearGradient>
<linearGradient id="paint1_linear_1_6" x1="5.02536" y1="13.566" x2="4.96591" y2="32.0128" gradientUnits="userSpaceOnUse">
<stop offset="0.01" stop-color="#D9C7F5"/>
<stop offset="0.5" stop-color="#E8E0FC"/>
<stop offset="1" stop-color="white"/>
</linearGradient>
<linearGradient id="paint2_linear_1_6" x1="26.4775" y1="5.31985" x2="8.03073" y2="5.2604" gradientUnits="userSpaceOnUse">
<stop offset="0.01" stop-color="#D9C7F5"/>
<stop offset="0.5" stop-color="#E8E0FC"/>
<stop offset="1" stop-color="white"/>
</linearGradient>
<linearGradient id="paint3_linear_1_6" x1="34.7245" y1="26.7718" x2="34.7839" y2="8.32507" gradientUnits="userSpaceOnUse">
<stop stop-color="#D9C7F5"/>
<stop offset="0.5" stop-color="#E8E0FC"/>
<stop offset="1" stop-color="white"/>
</linearGradient>
<linearGradient id="paint4_linear_1_6" x1="13.2722" y1="35.018" x2="31.719" y2="35.0775" gradientUnits="userSpaceOnUse">
<stop offset="0.01" stop-color="#D9C7F5"/>
<stop offset="0.5" stop-color="#E8E0FC"/>
<stop offset="1" stop-color="white"/>
</linearGradient>
<linearGradient id="paint5_linear_1_6" x1="8.00943" y1="31.4271" x2="31.7409" y2="31.4271" gradientUnits="userSpaceOnUse">
<stop stop-color="#4B00AD"/>
<stop offset="1" stop-color="#A561FF"/>
</linearGradient>
<linearGradient id="paint6_linear_1_6" x1="6.09665" y1="8.30322" x2="6.09664" y2="32.0347" gradientUnits="userSpaceOnUse">
<stop stop-color="#4B00AD"/>
<stop offset="1" stop-color="#A561FF"/>
</linearGradient>
<linearGradient id="paint7_linear_1_6" x1="31.7407" y1="6.39083" x2="8.00924" y2="6.39083" gradientUnits="userSpaceOnUse">
<stop stop-color="#4B00AD"/>
<stop offset="1" stop-color="#A561FF"/>
</linearGradient>
<linearGradient id="paint8_linear_1_6" x1="31.1331" y1="32.0344" x2="31.1331" y2="8.30294" gradientUnits="userSpaceOnUse">
<stop stop-color="#4B00AD"/>
<stop offset="1" stop-color="#A561FF"/>
</linearGradient>
<linearGradient id="paint9_linear_1_6" x1="8.00903" y1="31.4271" x2="31.7405" y2="31.4271" gradientUnits="userSpaceOnUse">
<stop stop-color="#4B00AD"/>
<stop offset="1" stop-color="#A561FF"/>
</linearGradient>
<clipPath id="clip0_1_6">
<rect width="147.333" height="40" fill="white"/>
</clipPath>
<clipPath id="clip1_1_6">
<rect width="147.333" height="40" fill="white"/>
</clipPath>
<clipPath id="clip2_1_6">
<rect width="40" height="40" fill="white"/>
</clipPath>
</defs>
</svg>
