<svg width="316" height="85" viewBox="0 0 316 85" fill="none" xmlns="http://www.w3.org/2000/svg">
<g clip-path="url(#clip0_4_17)">
<path fill-rule="evenodd" clip-rule="evenodd" d="M38.7933 35.9924C44.1138 35.4272 48.2576 30.9571 48.2576 25.5263C48.2576 19.7128 43.509 15 37.6515 15C31.7941 15 27.0455 19.7128 27.0455 25.5263C27.0455 30.2718 30.2095 34.2838 34.558 35.5978L34.3461 36.8472C30.2657 36.9552 26.6111 38.7573 24.0699 41.5708L18.3359 36.8569C18.822 35.7204 19.0909 34.4703 19.0909 33.1579C19.0909 27.9257 14.8172 23.6842 9.54545 23.6842C4.27366 23.6842 0 27.9257 0 33.1579C0 38.3901 4.27366 42.6316 9.54545 42.6316C11.9592 42.6316 14.1637 41.7424 15.8445 40.2761L21.7248 45.1103C20.8851 46.9182 20.4167 48.9311 20.4167 51.0526C20.4167 54.8755 21.9376 58.3455 24.4116 60.8997L20.9312 65.0942C19.249 64.0347 17.2535 63.4211 15.1136 63.4211C9.10962 63.4211 4.24242 68.2516 4.24242 74.2105C4.24242 80.1695 9.10962 85 15.1136 85C21.1176 85 25.9848 80.1695 25.9848 74.2105C25.9848 71.9016 25.2541 69.7621 24.0097 68.0076L27.7725 63.4729C29.8333 64.6134 32.2077 65.2632 34.7348 65.2632C38.0023 65.2632 41.0139 64.1768 43.4236 62.3484L46.9745 64.9497C46.1003 66.6187 45.6061 68.5153 45.6061 70.5263C45.6061 77.2118 51.0669 82.6316 57.803 82.6316C64.5392 82.6316 70 77.2118 70 70.5263C70 63.8408 64.5392 58.4211 57.803 58.4211C54.6231 58.4211 51.7271 59.6289 49.556 61.6076L46.3997 59.2955C48.0701 56.9708 49.053 54.1255 49.053 51.0526C49.053 50.5566 49.0273 50.0663 48.9775 49.5834C49.8379 49.854 50.754 50 51.7045 50C56.6836 50 60.7197 45.9942 60.7197 41.0526C60.7197 36.1111 56.6836 32.1053 51.7045 32.1053C47.3139 32.1053 43.6561 35.2206 42.8533 39.3456C41.5606 38.4609 40.1142 37.7817 38.562 37.3554L38.7933 35.9924ZM42.8533 39.3456C46.2159 41.6468 48.5381 45.3382 48.9775 49.5834C45.3316 48.4363 42.6894 45.0508 42.6894 41.0526C42.6894 40.4689 42.7456 39.8982 42.8533 39.3456Z" fill="black"/>
</g>
<path d="M96.51 71.875C90.7933 71.875 86.5117 70.2883 83.665 67.115C80.8417 63.9417 79.43 59.4267 79.43 53.57V43.63C79.43 37.7967 80.8417 33.305 83.665 30.155C86.5117 26.9817 90.7933 25.395 96.51 25.395C98.26 25.395 99.8583 25.5467 101.305 25.85C102.752 26.1533 104.047 26.55 105.19 27.04C106.333 27.53 107.313 28.0433 108.13 28.58L108.69 35.02C107.313 34.0867 105.715 33.27 103.895 32.57C102.075 31.87 99.9283 31.52 97.455 31.52C93.8617 31.52 91.1433 32.5817 89.3 34.705C87.48 36.8283 86.57 39.8383 86.57 43.735V53.325C86.57 57.1983 87.4917 60.2083 89.335 62.355C91.2017 64.5017 93.9783 65.575 97.665 65.575C100.092 65.575 102.238 65.2367 104.105 64.56C105.995 63.86 107.64 63.0083 109.04 62.005L108.48 68.62C107.663 69.1567 106.66 69.6817 105.47 70.195C104.303 70.685 102.962 71.0817 101.445 71.385C99.9517 71.7117 98.3067 71.875 96.51 71.875ZM127.173 71.875C122.133 71.875 118.307 70.5333 115.693 67.85C113.08 65.1667 111.773 61.305 111.773 56.265V51.4C111.773 46.3833 113.08 42.545 115.693 39.885C118.307 37.2017 122.133 35.86 127.173 35.86C132.213 35.86 136.028 37.2017 138.618 39.885C141.232 42.545 142.538 46.3833 142.538 51.4V56.265C142.538 61.305 141.232 65.1667 138.618 67.85C136.028 70.5333 132.213 71.875 127.173 71.875ZM127.173 66.31C129.95 66.31 132.062 65.4817 133.508 63.825C134.955 62.1683 135.678 59.7883 135.678 56.685V50.98C135.678 47.9 134.955 45.5433 133.508 43.91C132.062 42.2533 129.95 41.425 127.173 41.425C124.397 41.425 122.285 42.2533 120.838 43.91C119.392 45.5433 118.668 47.9 118.668 50.98V56.685C118.668 59.7883 119.392 62.1683 120.838 63.825C122.285 65.4817 124.397 66.31 127.173 66.31ZM154.746 71H147.886V36.77H154.746V71ZM151.316 31.73C149.962 31.73 148.947 31.3917 148.271 30.715C147.617 30.015 147.291 29.0583 147.291 27.845V27.705C147.291 26.4917 147.617 25.5467 148.271 24.87C148.947 24.17 149.962 23.82 151.316 23.82C152.669 23.82 153.672 24.17 154.326 24.87C155.002 25.5467 155.341 26.4917 155.341 27.705V27.845C155.341 29.0817 155.002 30.0383 154.326 30.715C153.672 31.3917 152.669 31.73 151.316 31.73ZM190.943 71H184.083V49.86C184.083 48.2033 183.85 46.7683 183.383 45.555C182.94 44.3417 182.193 43.3967 181.143 42.72C180.117 42.0433 178.705 41.705 176.908 41.705C175.252 41.705 173.817 42.0083 172.603 42.615C171.39 43.2217 170.398 44.0383 169.628 45.065C168.882 46.0917 168.345 47.2583 168.018 48.565L166.898 43.805H168.368C168.765 42.3583 169.418 41.0517 170.328 39.885C171.238 38.695 172.452 37.75 173.968 37.05C175.485 36.35 177.363 36 179.603 36C182.287 36 184.457 36.5133 186.113 37.54C187.77 38.5433 188.983 40.0133 189.753 41.95C190.547 43.8867 190.943 46.2667 190.943 49.09V71ZM168.263 71H161.403V36.77H168.263L167.983 44.785L168.263 45.205V71ZM212.121 71.805C206.661 71.805 202.566 70.51 199.836 67.92C197.129 65.3067 195.776 61.55 195.776 56.65V51.05C195.776 46.22 197.036 42.4867 199.556 39.85C202.099 37.19 205.798 35.86 210.651 35.86C213.941 35.86 216.683 36.4667 218.876 37.68C221.069 38.87 222.714 40.5617 223.811 42.755C224.908 44.9483 225.456 47.55 225.456 50.56V51.855C225.456 52.6483 225.421 53.4533 225.351 54.27C225.281 55.0867 225.188 55.8683 225.071 56.615H218.771C218.818 55.4017 218.841 54.2583 218.841 53.185C218.864 52.1117 218.876 51.1317 218.876 50.245C218.876 48.355 218.573 46.7567 217.966 45.45C217.359 44.1433 216.449 43.1517 215.236 42.475C214.023 41.775 212.494 41.425 210.651 41.425C207.921 41.425 205.891 42.2067 204.561 43.77C203.231 45.31 202.566 47.515 202.566 50.385V53.605L202.601 54.41V57.455C202.601 58.7383 202.788 59.905 203.161 60.955C203.558 62.005 204.176 62.915 205.016 63.685C205.879 64.4317 206.988 65.015 208.341 65.435C209.694 65.8317 211.339 66.03 213.276 66.03C215.469 66.03 217.523 65.75 219.436 65.19C221.373 64.63 223.193 63.8833 224.896 62.95L224.266 68.795C222.726 69.705 220.929 70.44 218.876 71C216.846 71.5367 214.594 71.805 212.121 71.805ZM223.671 56.615H199.416V51.47H223.671V56.615ZM244.033 71.805C238.946 71.805 235.166 70.4633 232.693 67.78C230.243 65.0733 229.018 61.2583 229.018 56.335V51.4C229.018 46.4533 230.254 42.6383 232.728 39.955C235.201 37.2717 238.969 35.93 244.033 35.93C245.433 35.93 246.716 36.0583 247.883 36.315C249.073 36.5717 250.146 36.91 251.103 37.33C252.059 37.7267 252.876 38.1467 253.553 38.59L254.148 44.47C253.028 43.6767 251.733 43.0117 250.263 42.475C248.793 41.915 247.078 41.635 245.118 41.635C241.991 41.635 239.669 42.4867 238.153 44.19C236.659 45.87 235.913 48.32 235.913 51.54V56.16C235.913 59.31 236.659 61.7367 238.153 63.44C239.669 65.1433 241.991 65.995 245.118 65.995C247.101 65.995 248.851 65.7267 250.368 65.19C251.884 64.63 253.249 63.9533 254.463 63.16L253.868 69.11C252.794 69.7867 251.418 70.405 249.738 70.965C248.081 71.525 246.179 71.805 244.033 71.805ZM271.886 71.7C269.156 71.7 266.963 71.2917 265.306 70.475C263.65 69.635 262.448 68.3867 261.701 66.73C260.955 65.05 260.581 62.9617 260.581 60.465V39.535H267.371V59.66C267.371 61.76 267.85 63.3 268.806 64.28C269.763 65.26 271.373 65.75 273.636 65.75C274.99 65.75 276.285 65.61 277.521 65.33C278.758 65.05 279.901 64.6533 280.951 64.14L280.356 69.95C279.236 70.51 277.941 70.9417 276.471 71.245C275.001 71.5483 273.473 71.7 271.886 71.7ZM280.041 42.65H255.226V37.19H280.636L280.041 42.65ZM267.196 37.785H260.651L260.616 28.37L267.476 27.565L267.196 37.785ZM311.75 71H304.925L305.205 62.88L304.96 61.83V51.05L304.995 49.335C304.995 46.6983 304.318 44.7617 302.965 43.525C301.635 42.2883 299.488 41.67 296.525 41.67C294.122 41.67 291.893 42.0083 289.84 42.685C287.787 43.3617 285.932 44.1433 284.275 45.03L284.905 39.29C285.838 38.7533 286.935 38.2283 288.195 37.715C289.455 37.2017 290.878 36.7817 292.465 36.455C294.052 36.1283 295.79 35.965 297.68 35.965C300.27 35.965 302.463 36.28 304.26 36.91C306.057 37.5167 307.503 38.4033 308.6 39.57C309.697 40.7367 310.49 42.1367 310.98 43.77C311.493 45.4033 311.75 47.2233 311.75 49.23V71ZM293.34 71.77C289.957 71.77 287.367 70.9417 285.57 69.285C283.773 67.605 282.875 65.225 282.875 62.145V61.095C282.875 57.8283 283.878 55.4133 285.885 53.85C287.915 52.2633 291.1 51.1667 295.44 50.56L305.73 49.09L306.115 54.06L296.245 55.46C293.888 55.7867 292.208 56.3583 291.205 57.175C290.202 57.9683 289.7 59.1467 289.7 60.71V61.2C289.7 62.7633 290.178 63.965 291.135 64.805C292.115 65.645 293.597 66.065 295.58 66.065C297.4 66.065 298.963 65.7617 300.27 65.155C301.577 64.5483 302.638 63.7433 303.455 62.74C304.272 61.7133 304.832 60.5817 305.135 59.345L306.08 63.93H304.82C304.447 65.33 303.828 66.625 302.965 67.815C302.102 69.005 300.888 69.9617 299.325 70.685C297.785 71.4083 295.79 71.77 293.34 71.77Z" fill="black"/>
<defs>
<clipPath id="clip0_4_17">
<rect width="70" height="70" fill="white" transform="translate(0 15)"/>
</clipPath>
</defs>
</svg>
