<svg width="325" height="65" viewBox="0 0 325 65" fill="none" xmlns="http://www.w3.org/2000/svg"><path d="M94.448 29.865q0 -5.593 3.273 -8.804t8.649 -3.204a29.714 29.714 0 0 1 4.307 0.371 24.607 24.607 0 0 1 5.404 1.518V3.357h7.3v48.286h-6.616l-0.696 -3.306a29.714 29.714 0 0 1 -5.96 2.869 14.393 14.393 0 0 1 -4.237 0.773q-5.31 0 -8.392 -2.929t-3.069 -9.139zm7.309 9.506q-0.004 3.373 1.481 4.619a5.664 5.664 0 0 0 3.75 1.247 8.914 8.914 0 0 0 2.034 -0.267q1.215 -0.295 2.376 -0.745 1.254 -0.475 2.447 -1.075 1.153 -0.581 2.239 -1.28V26.556a35.286 35.286 0 0 0 -4.508 -1.453 17.643 17.643 0 0 0 -4.034 -0.506 6.203 6.203 0 0 0 -4.098 1.416q-1.687 1.423 -1.686 4.793zm53.998 8.092a13.409 13.409 0 0 1 -5.853 3.64 22.471 22.471 0 0 1 -6.204 0.877 17.921 17.921 0 0 1 -5.44 -0.809 13 13 0 0 1 -4.406 -2.36 11.143 11.143 0 0 1 -2.929 -3.738 11.375 11.375 0 0 1 -1.069 -5.025V30.13a11.236 11.236 0 0 1 1.063 -5.037 11.514 11.514 0 0 1 3.208 -4.075 13.929 13.929 0 0 1 4.403 -2.36 16.529 16.529 0 0 1 5.099 -0.809q1.556 0.004 3.103 0.172 1.595 0.166 3.134 0.608c1.06 0.302 2.08 0.731 3.035 1.28a13 13 0 0 1 2.853 2.261l-4.267 5.326a10.911 10.911 0 0 0 -4.195 -2.561 13 13 0 0 0 -3.204 -0.474 8.357 8.357 0 0 0 -2.402 0.371 6.5 6.5 0 0 0 -2.245 1.176 6.221 6.221 0 0 0 -1.651 2.128 7.057 7.057 0 0 0 -0.656 3.204v7.146a7.893 7.893 0 0 0 0.588 3.204 5.804 5.804 0 0 0 1.554 2.122 6.129 6.129 0 0 0 2.201 1.184 8.914 8.914 0 0 0 2.554 0.371 12.164 12.164 0 0 0 3.496 -0.646 9.471 9.471 0 0 0 3.719 -2.19z" fill="#FF931E"/><path d="M194.607 38.496a12.35 12.35 0 0 1 -1.314 5.765 12.164 12.164 0 0 1 -3.617 4.248 16.9 16.9 0 0 1 -5.544 2.63 25.721 25.721 0 0 1 -7.027 0.91 31.571 31.571 0 0 1 -9.467 -1.369 26.279 26.279 0 0 1 -8.58 -4.68l4.411 -5.599a26.65 26.65 0 0 0 6.574 3.471 20.429 20.429 0 0 0 6.991 1.244q4.684 0 6.991 -1.849c0.731 -0.55 1.32 -1.261 1.72 -2.074s0.604 -1.706 0.588 -2.609a5.042 5.042 0 0 0 -0.929 -3.162 7.15 7.15 0 0 0 -2.512 -2.051 15.786 15.786 0 0 0 -3.614 -1.281q-2.035 -0.474 -4.237 -1.005a41.786 41.786 0 0 1 -5.342 -1.556 16.714 16.714 0 0 1 -4.546 -2.456 11.793 11.793 0 0 1 -3.168 -3.696 10.911 10.911 0 0 1 -1.206 -5.353 13.371 13.371 0 0 1 1.102 -5.479 12.35 12.35 0 0 1 3.173 -4.309 15.043 15.043 0 0 1 4.963 -2.856 18.85 18.85 0 0 1 6.474 -1.044c2.831 0 5.658 0.279 8.431 0.836a24.143 24.143 0 0 1 7.959 3.166l-3.496 6.314a22.471 22.471 0 0 0 -6.291 -2.63 26.65 26.65 0 0 0 -6.161 -0.741 11.607 11.607 0 0 0 -3.14 0.404 8.171 8.171 0 0 0 -2.614 1.212 6.129 6.129 0 0 0 -1.824 2.054 5.943 5.943 0 0 0 -0.698 2.929 4.439 4.439 0 0 0 0.901 2.831 7.15 7.15 0 0 0 2.37 1.927q1.616 0.822 3.377 1.277a67.786 67.786 0 0 0 3.965 0.913q3.156 0.676 6.194 1.752a17.643 17.643 0 0 1 4.861 2.594 11.375 11.375 0 0 1 3.166 3.812 11.886 11.886 0 0 1 1.119 5.511m34.576 1.551q0 5.594 -3.124 8.798t-8.823 3.204a32.5 32.5 0 0 1 -4.26 -0.337 19.5 19.5 0 0 1 -5.418 -1.693V65h-7.306V18.284h6.614l0.698 3.306a29.436 29.436 0 0 1 5.971 -2.863 14.671 14.671 0 0 1 4.26 -0.78q5.285 0 8.34 2.937t3.055 9.139zm-7.299 -9.445q0 -3.368 -1.483 -4.612a5.618 5.618 0 0 0 -3.753 -1.254 8.543 8.543 0 0 0 -2.029 0.274q-1.215 0.29 -2.376 0.741 -1.254 0.471 -2.447 1.082 -1.156 0.576 -2.239 1.277v15.24a26.929 26.929 0 0 0 4.713 1.554 19.221 19.221 0 0 0 3.826 0.404q1.135 0.004 2.239 -0.267a4.411 4.411 0 0 0 1.856 -0.979 4.736 4.736 0 0 0 1.247 -1.855 7.986 7.986 0 0 0 0.449 -2.831zm34.714 18.009a27.207 27.207 0 0 1 -6.168 2.662 18.943 18.943 0 0 1 -4.65 0.636q-5.099 0 -7.991 -2.695 -2.889 -2.695 -2.889 -7.414a8.264 8.264 0 0 1 1.238 -4.654 10.121 10.121 0 0 1 3.097 -3.064 13.65 13.65 0 0 1 4.034 -1.726 16.9 16.9 0 0 1 4.027 -0.534h9.439v-2.051c0 -1.979 -0.581 -3.425 -1.726 -4.251 -1.147 -0.828 -2.916 -1.281 -5.3 -1.281a22.286 22.286 0 0 0 -4.237 0.506 11.979 11.979 0 0 0 -5.064 2.532l-3.377 -5.333a18.293 18.293 0 0 1 6.923 -3.334 29.714 29.714 0 0 1 6.439 -0.78q7.027 0 10.335 3.041 3.306 3.036 3.306 9.26v21.512h-6.614l-0.615 -2.902zm0.139 -11.265h-8.202q-1.001 0.003 -1.992 0.137a5.85 5.85 0 0 0 -1.897 0.573 3.9 3.9 0 0 0 -1.447 1.247 3.714 3.714 0 0 0 -0.588 2.224 3.529 3.529 0 0 0 0.332 1.637c0.243 0.511 0.608 0.956 1.066 1.3a5.878 5.878 0 0 0 3.649 1.04q1.261 0.003 2.484 -0.302a22.471 22.471 0 0 0 4.719 -1.719c0.698 -0.355 1.342 -0.682 1.894 -1.011zm34.645 -12.067a30.643 30.643 0 0 0 -7.544 1.486 27.857 27.857 0 0 0 -4.991 2.291v22.587h-7.3V18.2h6.616l0.615 4.921h0.069q1.069 -1.011 2.308 -1.82 1.479 -0.981 3.097 -1.725 1.697 -0.773 3.496 -1.28a13.557 13.557 0 0 1 3.614 -0.501zm3.722 26.364V3.359h7.299v25.559h3.93a7.15 7.15 0 0 0 3.545 -0.806 7.336 7.336 0 0 0 2.718 -3.238l3.496 -6.741h8.194l-4.131 8.427a17.179 17.179 0 0 1 -2.096 3.306 7.057 7.057 0 0 1 -3.12 2.109 7.614 7.614 0 0 1 2.414 1.254 7.521 7.521 0 0 1 1.586 1.719q0.627 0.955 1.028 2.019 0.419 1.082 0.761 2.162l4.274 12.541h-8.132l-3.496 -10.787q-0.966 -2.961 -2.412 -4.046a6.825 6.825 0 0 0 -4.131 -1.079h-4.413v15.913zM30.666 0v25.889L6.704 14.936l-3.354 7.036L0 29.019l19.829 9.049L0 47.121l3.35 7.043 3.354 7.039 23.962 -10.953 7.937 -3.621 7.934 -3.628V0z" fill="#032F42"/><path d="M77.22 29.029 70.506 14.95 46.547 25.889v17.141l-7.937 3.626h-0.014l7.949 3.614v0.007l23.962 10.939 3.357 -7.046 3.357 -7.034 -19.829 -9.058z" fill="#FF931E"/></svg>