<svg width="352" height="87" viewBox="0 0 352 87" fill="none" xmlns="http://www.w3.org/2000/svg">
<path fill-rule="evenodd" clip-rule="evenodd" d="M67.7295 8.06301C74.4514 5.41159 78.7811 7.34768 89.632 18.1278L90.3735 18.868C102.441 30.968 104.962 34.709 105.51 41.327L105.547 41.8198C106.022 49.1498 103.212 53.7475 91.0426 65.7482L89.1374 67.6162C78.1626 78.3203 75.4362 79.8425 68.1601 78.01C65.0947 77.2379 62.5471 75.3929 59.5918 72.3665L59.2352 71.9976L54.8412 66.952L78.1562 43.3387L65.3129 30.1605C59.6882 24.4256 55.0973 19.9743 54.8152 20L54.7982 20.004V19.94L54.8118 19.9553L60.0955 14.101C62.9185 11.323 66.3545 8.60501 67.7295 8.06301Z" fill="url(#paint0_linear_4_13)"/>
<path fill-rule="evenodd" clip-rule="evenodd" d="M67.7295 8.06301C74.4514 5.41159 78.7811 7.34768 89.632 18.1278L90.3735 18.868C93.8925 24.0643 89.8201 32.2212 78.1562 43.3387L65.3129 30.1605C59.6882 24.4256 55.0973 19.9743 54.8152 20L54.7982 20.004V19.94L54.8118 19.9553L60.0955 14.101C62.9185 11.323 66.3545 8.60501 67.7295 8.06301Z" fill="url(#paint1_linear_4_13)"/>
<path fill-rule="evenodd" clip-rule="evenodd" d="M37.867 77.937C31.145 80.5884 26.8153 78.6523 15.9645 67.8722L15.223 67.132C3.15496 55.032 0.633964 51.291 0.0859642 44.673L0.0494728 44.1802C-0.425894 36.8502 2.38419 32.2525 14.5538 20.2518L16.4591 18.3838C27.4339 7.67969 30.1602 6.15754 37.4364 7.98999C40.5017 8.76211 43.0493 10.6071 46.0046 13.6335L46.3613 14.0024L50.7552 19.048L27.4402 42.6613L40.2835 55.8395C45.9083 61.5744 50.4991 66.0257 50.7812 66L50.7982 65.996V66.06L50.7846 66.0447L45.501 71.899C42.678 74.677 39.242 77.395 37.867 77.937Z" fill="url(#paint2_linear_4_13)"/>
<path fill-rule="evenodd" clip-rule="evenodd" d="M37.867 77.937C31.145 80.5884 26.8153 78.6523 15.9645 67.8722L15.223 67.132C11.7039 61.9357 15.7763 53.7788 27.4402 42.6613L40.2835 55.8395C45.9083 61.5744 50.4991 66.0257 50.7812 66L50.7982 65.996V66.06L50.7846 66.0447L45.501 71.899C42.678 74.677 39.242 77.395 37.867 77.937Z" fill="url(#paint3_linear_4_13)"/>
<path d="M122.153 26.7642V17.6364H165.159V26.7642H149.128V70H138.185V26.7642H122.153ZM176.94 30.7273L184.15 44.4574L191.539 30.7273H202.713L191.335 50.3636L203.02 70H191.897L184.15 56.4233L176.531 70H165.281L176.94 50.3636L165.69 30.7273H176.94ZM207.226 70V17.6364H227.885C231.857 17.6364 235.24 18.3949 238.036 19.9119C240.831 21.4119 242.962 23.5 244.428 26.1761C245.911 28.8352 246.652 31.9034 246.652 35.3807C246.652 38.858 245.902 41.9261 244.402 44.5852C242.902 47.2443 240.729 49.3153 237.882 50.7983C235.053 52.2812 231.627 53.0227 227.604 53.0227H214.436V44.1506H225.814C227.945 44.1506 229.7 43.7841 231.081 43.0511C232.479 42.3011 233.519 41.2699 234.2 39.9574C234.899 38.6278 235.249 37.1023 235.249 35.3807C235.249 33.642 234.899 32.125 234.2 30.8295C233.519 29.517 232.479 28.5028 231.081 27.7869C229.683 27.054 227.911 26.6875 225.763 26.6875H218.297V70H207.226ZM251.479 70V30.7273H262.371V70H251.479ZM256.95 25.6648C255.331 25.6648 253.942 25.1278 252.783 24.054C251.641 22.9631 251.07 21.6591 251.07 20.142C251.07 18.642 251.641 17.3551 252.783 16.2812C253.942 15.1903 255.331 14.6449 256.95 14.6449C258.57 14.6449 259.95 15.1903 261.092 16.2812C262.251 17.3551 262.831 18.642 262.831 20.142C262.831 21.6591 262.251 22.9631 261.092 24.054C259.95 25.1278 258.57 25.6648 256.95 25.6648ZM268.936 84.7273V30.7273H279.674V37.3239H280.16C280.638 36.267 281.328 35.1932 282.231 34.1023C283.152 32.9943 284.345 32.0739 285.811 31.3409C287.294 30.5909 289.135 30.2159 291.334 30.2159C294.197 30.2159 296.839 30.9659 299.26 32.4659C301.68 33.9489 303.615 36.1903 305.064 39.1903C306.513 42.1733 307.237 45.9148 307.237 50.4148C307.237 54.7955 306.53 58.4943 305.115 61.5114C303.717 64.5114 301.808 66.7869 299.388 68.3381C296.984 69.8722 294.291 70.6392 291.308 70.6392C289.194 70.6392 287.396 70.2898 285.913 69.5909C284.447 68.892 283.245 68.0142 282.308 66.9574C281.37 65.8835 280.655 64.8011 280.16 63.7102H279.828V84.7273H268.936ZM279.598 50.3636C279.598 52.6989 279.922 54.7358 280.569 56.4744C281.217 58.2131 282.155 59.5682 283.382 60.5398C284.609 61.4943 286.101 61.9716 287.856 61.9716C289.629 61.9716 291.129 61.4858 292.356 60.5142C293.584 59.5256 294.513 58.1619 295.143 56.4233C295.791 54.6676 296.115 52.6477 296.115 50.3636C296.115 48.0966 295.799 46.1023 295.169 44.3807C294.538 42.6591 293.609 41.3125 292.382 40.3409C291.155 39.3693 289.646 38.8835 287.856 38.8835C286.084 38.8835 284.584 39.3523 283.356 40.2898C282.146 41.2273 281.217 42.5568 280.569 44.2784C279.922 46 279.598 48.0284 279.598 50.3636ZM330.236 70.767C326.196 70.767 322.719 69.9489 319.804 68.3125C316.907 66.6591 314.674 64.3239 313.105 61.3068C311.537 58.2727 310.753 54.6847 310.753 50.5426C310.753 46.5028 311.537 42.9574 313.105 39.9062C314.674 36.8551 316.881 34.4773 319.728 32.7727C322.591 31.0682 325.949 30.2159 329.801 30.2159C332.392 30.2159 334.804 30.6335 337.037 31.4688C339.287 32.2869 341.247 33.5227 342.918 35.1761C344.605 36.8295 345.918 38.9091 346.855 41.4148C347.793 43.9034 348.262 46.8182 348.262 50.1591V53.1506H315.1V46.4006H338.009C338.009 44.8324 337.668 43.4432 336.986 42.233C336.304 41.0227 335.358 40.0767 334.148 39.3949C332.955 38.696 331.566 38.3466 329.98 38.3466C328.327 38.3466 326.861 38.7301 325.583 39.4972C324.321 40.2472 323.333 41.2614 322.617 42.5398C321.901 43.8011 321.534 45.2074 321.517 46.7585V53.1761C321.517 55.1193 321.875 56.7983 322.591 58.2131C323.324 59.6278 324.355 60.7188 325.685 61.4858C327.014 62.2528 328.591 62.6364 330.415 62.6364C331.625 62.6364 332.733 62.4659 333.739 62.125C334.745 61.7841 335.605 61.2727 336.321 60.5909C337.037 59.9091 337.583 59.0739 337.958 58.0852L348.032 58.75C347.52 61.1705 346.472 63.2841 344.887 65.0909C343.318 66.8807 341.29 68.2784 338.801 69.2841C336.33 70.2727 333.475 70.767 330.236 70.767Z" fill="white"/>
<defs>
<linearGradient id="paint0_linear_4_13" x1="1742.25" y1="5609.69" x2="4260.87" y2="4409.4" gradientUnits="userSpaceOnUse">
<stop stop-color="#FF0065"/>
<stop offset="1" stop-color="#DD61FC"/>
</linearGradient>
<linearGradient id="paint1_linear_4_13" x1="1894.73" y1="1649.52" x2="3468.24" y2="1828.32" gradientUnits="userSpaceOnUse">
<stop stop-color="#B10151"/>
<stop offset="1" stop-color="#750126"/>
</linearGradient>
<linearGradient id="paint2_linear_4_13" x1="-1660.82" y1="-5667.88" x2="-3721.99" y2="-4533.88" gradientUnits="userSpaceOnUse">
<stop stop-color="#80F3FD"/>
<stop offset="1" stop-color="#00D0FF"/>
</linearGradient>
<linearGradient id="paint3_linear_4_13" x1="-1138.97" y1="-1737.93" x2="-2773" y2="-2150.08" gradientUnits="userSpaceOnUse">
<stop stop-color="#0080BB"/>
<stop offset="1" stop-color="#004985"/>
</linearGradient>
</defs>
</svg>
