<svg width="100" height="100" viewBox="0 0 100 100" fill="none" xmlns="http://www.w3.org/2000/svg">
<path d="M31.25 0C32.0788 0 32.8737 0.32924 33.4597 0.915291C34.0458 1.50134 34.375 2.2962 34.375 3.125V12.5H40.625V3.125C40.625 2.2962 40.9542 1.50134 41.5403 0.915291C42.1263 0.32924 42.9212 0 43.75 0C44.5788 0 45.3737 0.32924 45.9597 0.915291C46.5458 1.50134 46.875 2.2962 46.875 3.125V12.5H53.125V3.125C53.125 2.2962 53.4542 1.50134 54.0403 0.915291C54.6263 0.32924 55.4212 0 56.25 0C57.0788 0 57.8737 0.32924 58.4597 0.915291C59.0458 1.50134 59.375 2.2962 59.375 3.125V12.5H65.625V3.125C65.625 2.2962 65.9542 1.50134 66.5403 0.915291C67.1263 0.32924 67.9212 0 68.75 0C69.5788 0 70.3737 0.32924 70.9597 0.915291C71.5458 1.50134 71.875 2.2962 71.875 3.125V12.5C76.019 12.5 79.9933 14.1462 82.9235 17.0765C85.8538 20.0067 87.5 23.981 87.5 28.125H96.875C97.7038 28.125 98.4987 28.4542 99.0847 29.0403C99.6708 29.6263 100 30.4212 100 31.25C100 32.0788 99.6708 32.8737 99.0847 33.4597C98.4987 34.0458 97.7038 34.375 96.875 34.375H87.5V40.625H96.875C97.7038 40.625 98.4987 40.9542 99.0847 41.5403C99.6708 42.1263 100 42.9212 100 43.75C100 44.5788 99.6708 45.3737 99.0847 45.9597C98.4987 46.5458 97.7038 46.875 96.875 46.875H87.5V53.125H96.875C97.7038 53.125 98.4987 53.4542 99.0847 54.0403C99.6708 54.6263 100 55.4212 100 56.25C100 57.0788 99.6708 57.8737 99.0847 58.4597C98.4987 59.0458 97.7038 59.375 96.875 59.375H87.5V65.625H96.875C97.7038 65.625 98.4987 65.9542 99.0847 66.5403C99.6708 67.1263 100 67.9212 100 68.75C100 69.5788 99.6708 70.3737 99.0847 70.9597C98.4987 71.5458 97.7038 71.875 96.875 71.875H87.5C87.5 76.019 85.8538 79.9933 82.9235 82.9235C79.9933 85.8538 76.019 87.5 71.875 87.5V96.875C71.875 97.7038 71.5458 98.4987 70.9597 99.0847C70.3737 99.6708 69.5788 100 68.75 100C67.9212 100 67.1263 99.6708 66.5403 99.0847C65.9542 98.4987 65.625 97.7038 65.625 96.875V87.5H59.375V96.875C59.375 97.7038 59.0458 98.4987 58.4597 99.0847C57.8737 99.6708 57.0788 100 56.25 100C55.4212 100 54.6263 99.6708 54.0403 99.0847C53.4542 98.4987 53.125 97.7038 53.125 96.875V87.5H46.875V96.875C46.875 97.7038 46.5458 98.4987 45.9597 99.0847C45.3737 99.6708 44.5788 100 43.75 100C42.9212 100 42.1263 99.6708 41.5403 99.0847C40.9542 98.4987 40.625 97.7038 40.625 96.875V87.5H34.375V96.875C34.375 97.7038 34.0458 98.4987 33.4597 99.0847C32.8737 99.6708 32.0788 100 31.25 100C30.4212 100 29.6263 99.6708 29.0403 99.0847C28.4542 98.4987 28.125 97.7038 28.125 96.875V87.5C23.981 87.5 20.0067 85.8538 17.0765 82.9235C14.1462 79.9933 12.5 76.019 12.5 71.875H3.125C2.2962 71.875 1.50134 71.5458 0.915291 70.9597C0.32924 70.3737 0 69.5788 0 68.75C0 67.9212 0.32924 67.1263 0.915291 66.5403C1.50134 65.9542 2.2962 65.625 3.125 65.625H12.5V59.375H3.125C2.2962 59.375 1.50134 59.0458 0.915291 58.4597C0.32924 57.8737 0 57.0788 0 56.25C0 55.4212 0.32924 54.6263 0.915291 54.0403C1.50134 53.4542 2.2962 53.125 3.125 53.125H12.5V46.875H3.125C2.2962 46.875 1.50134 46.5458 0.915291 45.9597C0.32924 45.3737 0 44.5788 0 43.75C0 42.9212 0.32924 42.1263 0.915291 41.5403C1.50134 40.9542 2.2962 40.625 3.125 40.625H12.5V34.375H3.125C2.2962 34.375 1.50134 34.0458 0.915291 33.4597C0.32924 32.8737 0 32.0788 0 31.25C0 30.4212 0.32924 29.6263 0.915291 29.0403C1.50134 28.4542 2.2962 28.125 3.125 28.125H12.5C12.5 23.981 14.1462 20.0067 17.0765 17.0765C20.0067 14.1462 23.981 12.5 28.125 12.5V3.125C28.125 2.2962 28.4542 1.50134 29.0403 0.915291C29.6263 0.32924 30.4212 0 31.25 0ZM28.125 18.75C25.6386 18.75 23.254 19.7377 21.4959 21.4959C19.7377 23.254 18.75 25.6386 18.75 28.125V71.875C18.75 74.3614 19.7377 76.746 21.4959 78.5041C23.254 80.2623 25.6386 81.25 28.125 81.25H71.875C74.3614 81.25 76.746 80.2623 78.5041 78.5041C80.2623 76.746 81.25 74.3614 81.25 71.875V28.125C81.25 25.6386 80.2623 23.254 78.5041 21.4959C76.746 19.7377 74.3614 18.75 71.875 18.75H28.125ZM31.25 40.625C31.25 38.1386 32.2377 35.754 33.9959 33.9959C35.754 32.2377 38.1386 31.25 40.625 31.25H59.375C61.8614 31.25 64.246 32.2377 66.0041 33.9959C67.7623 35.754 68.75 38.1386 68.75 40.625V59.375C68.75 61.8614 67.7623 64.246 66.0041 66.0041C64.246 67.7623 61.8614 68.75 59.375 68.75H40.625C38.1386 68.75 35.754 67.7623 33.9959 66.0041C32.2377 64.246 31.25 61.8614 31.25 59.375V40.625ZM40.625 37.5C39.7962 37.5 39.0013 37.8292 38.4153 38.4153C37.8292 39.0013 37.5 39.7962 37.5 40.625V59.375C37.5 60.2038 37.8292 60.9987 38.4153 61.5847C39.0013 62.1708 39.7962 62.5 40.625 62.5H59.375C60.2038 62.5 60.9987 62.1708 61.5847 61.5847C62.1708 60.9987 62.5 60.2038 62.5 59.375V40.625C62.5 39.7962 62.1708 39.0013 61.5847 38.4153C60.9987 37.8292 60.2038 37.5 59.375 37.5H40.625Z" fill="#4F37EA"/>
</svg>
