<svg width="68" height="68" viewBox="0 0 68 68" fill="none" xmlns="http://www.w3.org/2000/svg">
<g clip-path="url(#clip0_7_58)">
<path d="M40.3051 14.8492L44.5477 10.6066L33.9411 0L23.3345 10.6066L27.5772 14.8492L14.8492 27.5772L10.6066 23.3345L-9.53674e-07 33.9411L10.6066 44.5477L14.8492 40.3051L27.5772 53.033L23.3345 57.2756L33.9411 67.8822L44.5477 57.2756L40.3051 53.033L53.033 40.3051L57.2756 44.5477L67.8822 33.9411L57.2756 23.3345L53.033 27.5772L40.3051 14.8492ZM50.9117 29.6985L46.669 33.9411L50.9117 38.1838L38.1838 50.9117L33.9411 46.669L29.6985 50.9117L16.9706 38.1838L21.2132 33.9411L16.9706 29.6985L29.6985 16.9706L33.9411 21.2132L38.1838 16.9706L50.9117 29.6985ZM57.2756 27.5772L63.6396 33.9411L57.2756 40.3051L50.9117 33.9411L57.2756 27.5772ZM40.3051 57.2756L33.9411 63.6396L27.5772 57.2756L33.9411 50.9117L40.3051 57.2756ZM10.6066 40.3051L4.24264 33.9411L10.6066 27.5772L16.9706 33.9411L10.6066 40.3051ZM27.5772 10.6066L33.9411 4.24264L40.3051 10.6066L33.9411 16.9706L27.5772 10.6066Z" fill="#4F37EA"/>
</g>
<defs>
<clipPath id="clip0_7_58">
<rect width="48" height="48" fill="white" transform="translate(33.9411) rotate(45)"/>
</clipPath>
</defs>
</svg>
