<svg width="68" height="68" viewBox="0 0 68 68" fill="none" xmlns="http://www.w3.org/2000/svg">
<g clip-path="url(#clip0_7_59)">
<path d="M21.2125 16.97C20.6499 16.97 20.1104 17.1935 19.7125 17.5913C19.3147 17.9891 19.0912 18.5286 19.0912 19.0912C19.0912 19.6538 19.3147 20.1934 19.7125 20.5912C20.1104 20.989 20.6499 21.2125 21.2125 21.2125H46.6675C47.2301 21.2125 47.7696 20.989 48.1674 20.5912C48.5653 20.1934 48.7887 19.6538 48.7887 19.0912C48.7887 18.5286 48.5653 17.9891 48.1674 17.5913C47.7696 17.1935 47.2301 16.97 46.6675 16.97H21.2125ZM19.0912 27.5762C19.0912 27.0136 19.3147 26.4741 19.7125 26.0763C20.1104 25.6785 20.6499 25.455 21.2125 25.455H46.6675C47.2301 25.455 47.7696 25.6785 48.1674 26.0763C48.5653 26.4741 48.7887 27.0136 48.7887 27.5762C48.7887 28.1388 48.5653 28.6784 48.1674 29.0762C47.7696 29.474 47.2301 29.6975 46.6675 29.6975H21.2125C20.6499 29.6975 20.1104 29.474 19.7125 29.0762C19.3147 28.6784 19.0912 28.1388 19.0912 27.5762ZM21.2125 33.94C20.6499 33.94 20.1104 34.1635 19.7125 34.5613C19.3147 34.9591 19.0912 35.4986 19.0912 36.0612C19.0912 36.6238 19.3147 37.1634 19.7125 37.5612C20.1104 37.959 20.6499 38.1825 21.2125 38.1825H46.6675C47.2301 38.1825 47.7696 37.959 48.1674 37.5612C48.5653 37.1634 48.7887 36.6238 48.7887 36.0612C48.7887 35.4986 48.5653 34.9591 48.1674 34.5613C47.7696 34.1635 47.2301 33.94 46.6675 33.94H21.2125ZM21.2125 42.425C20.6499 42.425 20.1104 42.6485 19.7125 43.0463C19.3147 43.4441 19.0912 43.9836 19.0912 44.5462C19.0912 45.1088 19.3147 45.6484 19.7125 46.0462C20.1104 46.444 20.6499 46.6675 21.2125 46.6675H33.94C34.5026 46.6675 35.0421 46.444 35.4399 46.0462C35.8378 45.6484 36.0612 45.1088 36.0612 44.5462C36.0612 43.9836 35.8378 43.4441 35.4399 43.0463C35.0421 42.6485 34.5026 42.425 33.94 42.425H21.2125Z" fill="#4F37EA"/>
<path d="M8.48499 8.485C8.48499 6.23464 9.37894 4.07645 10.9702 2.4852C12.5614 0.893953 14.7196 0 16.97 0L50.91 0C53.1603 0 55.3185 0.893953 56.9098 2.4852C58.501 4.07645 59.395 6.23464 59.395 8.485V59.395C59.395 61.6454 58.501 63.8036 56.9098 65.3948C55.3185 66.986 53.1603 67.88 50.91 67.88H16.97C14.7196 67.88 12.5614 66.986 10.9702 65.3948C9.37894 63.8036 8.48499 61.6454 8.48499 59.395V8.485ZM50.91 4.2425H16.97C15.8448 4.2425 14.7657 4.68948 13.9701 5.4851C13.1745 6.28072 12.7275 7.35982 12.7275 8.485V59.395C12.7275 60.5202 13.1745 61.5993 13.9701 62.3949C14.7657 63.1905 15.8448 63.6375 16.97 63.6375H50.91C52.0352 63.6375 53.1143 63.1905 53.9099 62.3949C54.7055 61.5993 55.1525 60.5202 55.1525 59.395V8.485C55.1525 7.35982 54.7055 6.28072 53.9099 5.4851C53.1143 4.68948 52.0352 4.2425 50.91 4.2425Z" fill="#4F37EA"/>
</g>
<defs>
<clipPath id="clip0_7_59">
<rect width="67.88" height="67.88" fill="white"/>
</clipPath>
</defs>
</svg>
