<svg width="100" height="100" viewBox="0 0 100 100" fill="none" xmlns="http://www.w3.org/2000/svg">
<g clip-path="url(#clip0_7_69)">
<path fill-rule="evenodd" clip-rule="evenodd" d="M0 65.625C0 63.1386 0.98772 60.754 2.74587 58.9959C4.50403 57.2377 6.8886 56.25 9.375 56.25H15.625C18.1114 56.25 20.496 57.2377 22.2541 58.9959C24.0123 60.754 25 63.1386 25 65.625V71.875C25 74.3614 24.0123 76.746 22.2541 78.5041C20.496 80.2623 18.1114 81.25 15.625 81.25H9.375C6.8886 81.25 4.50403 80.2623 2.74587 78.5041C0.98772 76.746 0 74.3614 0 71.875L0 65.625ZM9.375 62.5C8.5462 62.5 7.75134 62.8292 7.16529 63.4153C6.57924 64.0013 6.25 64.7962 6.25 65.625V71.875C6.25 72.7038 6.57924 73.4987 7.16529 74.0847C7.75134 74.6708 8.5462 75 9.375 75H15.625C16.4538 75 17.2487 74.6708 17.8347 74.0847C18.4208 73.4987 18.75 72.7038 18.75 71.875V65.625C18.75 64.7962 18.4208 64.0013 17.8347 63.4153C17.2487 62.8292 16.4538 62.5 15.625 62.5H9.375ZM75 65.625C75 63.1386 75.9877 60.754 77.7459 58.9959C79.504 57.2377 81.8886 56.25 84.375 56.25H90.625C93.1114 56.25 95.496 57.2377 97.2541 58.9959C99.0123 60.754 100 63.1386 100 65.625V71.875C100 74.3614 99.0123 76.746 97.2541 78.5041C95.496 80.2623 93.1114 81.25 90.625 81.25H84.375C81.8886 81.25 79.504 80.2623 77.7459 78.5041C75.9877 76.746 75 74.3614 75 71.875V65.625ZM84.375 62.5C83.5462 62.5 82.7513 62.8292 82.1653 63.4153C81.5792 64.0013 81.25 64.7962 81.25 65.625V71.875C81.25 72.7038 81.5792 73.4987 82.1653 74.0847C82.7513 74.6708 83.5462 75 84.375 75H90.625C91.4538 75 92.2487 74.6708 92.8347 74.0847C93.4208 73.4987 93.75 72.7038 93.75 71.875V65.625C93.75 64.7962 93.4208 64.0013 92.8347 63.4153C92.2487 62.8292 91.4538 62.5 90.625 62.5H84.375ZM37.5 28.125C37.5 25.6386 38.4877 23.254 40.2459 21.4959C42.004 19.7377 44.3886 18.75 46.875 18.75H53.125C55.6114 18.75 57.996 19.7377 59.7541 21.4959C61.5123 23.254 62.5 25.6386 62.5 28.125V34.375C62.5 36.8614 61.5123 39.246 59.7541 41.0041C57.996 42.7623 55.6114 43.75 53.125 43.75H46.875C44.3886 43.75 42.004 42.7623 40.2459 41.0041C38.4877 39.246 37.5 36.8614 37.5 34.375V28.125ZM46.875 25C46.0462 25 45.2513 25.3292 44.6653 25.9153C44.0792 26.5013 43.75 27.2962 43.75 28.125V34.375C43.75 35.2038 44.0792 35.9987 44.6653 36.5847C45.2513 37.1708 46.0462 37.5 46.875 37.5H53.125C53.9538 37.5 54.7487 37.1708 55.3347 36.5847C55.9208 35.9987 56.25 35.2038 56.25 34.375V28.125C56.25 27.2962 55.9208 26.5013 55.3347 25.9153C54.7487 25.3292 53.9538 25 53.125 25H46.875Z" fill="#fff"/>
<path d="M37.5 28.125H11.6625C10.9746 26.9335 9.9127 26.0023 8.64159 25.4758C7.37048 24.9492 5.96116 24.8569 4.6322 25.213C3.30324 25.5691 2.12892 26.3537 1.29136 27.4452C0.453801 28.5368 -0.000183105 29.8742 -0.000183105 31.25C-0.000183105 32.6258 0.453801 33.9632 1.29136 35.0548C2.12892 36.1463 3.30324 36.9309 4.6322 37.287C5.96116 37.6431 7.37048 37.5508 8.64159 37.0243C9.9127 36.4977 10.9746 35.5665 11.6625 34.375H28.3375C20.29 39.4575 14.2755 47.1967 11.3375 56.25H15.625C16.4 56.25 17.1458 56.3396 17.8625 56.5188C19.5946 51.9877 22.2628 47.8729 25.6928 44.4429C29.1229 41.0128 33.2377 38.3446 37.7687 36.6125C37.5895 35.8802 37.4993 35.1289 37.5 34.375V28.125ZM62.2312 36.6125C62.4105 35.8802 62.5007 35.1289 62.5 34.375V28.125H88.3375C89.0254 26.9335 90.0873 26.0023 91.3584 25.4758C92.6295 24.9492 94.0388 24.8569 95.3678 25.213C96.6967 25.5691 97.871 26.3537 98.7086 27.4452C99.5462 28.5368 100 29.8742 100 31.25C100 32.6258 99.5462 33.9632 98.7086 35.0548C97.871 36.1463 96.6967 36.9309 95.3678 37.287C94.0388 37.6431 92.6295 37.5508 91.3584 37.0243C90.0873 36.4977 89.0254 35.5665 88.3375 34.375H71.6625C79.7099 39.4575 85.7244 47.1967 88.6625 56.25H84.375C83.6041 56.25 82.8583 56.3396 82.1375 56.5188C80.4053 51.9877 77.7372 47.8729 74.3071 44.4429C70.8771 41.0128 66.7623 38.3446 62.2312 36.6125Z" fill="#fff"/>
</g>
<defs>
<clipPath id="clip0_7_69">
<rect width="100" height="100" fill="white"/>
</clipPath>
</defs>
</svg>
