<svg width="68" height="68" viewBox="0 0 68 68" fill="none" xmlns="http://www.w3.org/2000/svg">
<path d="M44.4529 6.98736C44.5348 6.72105 44.5634 6.44122 44.5372 6.16384C44.5109 5.88646 44.4303 5.61696 44.2999 5.37074C44.1695 5.12452 43.9919 4.9064 43.7772 4.72882C43.5625 4.55124 43.3149 4.41769 43.0486 4.33579C42.7823 4.2539 42.5025 4.22525 42.2251 4.2515C41.9477 4.27775 41.6782 4.35837 41.432 4.48877C41.1858 4.61917 40.9677 4.79679 40.7901 5.01149C40.6125 5.22618 40.479 5.47375 40.3971 5.74006L23.4271 60.8926C23.2617 61.4304 23.3167 62.0119 23.58 62.5092C23.8434 63.0064 24.2935 63.3787 24.8313 63.5441C25.3692 63.7095 25.9507 63.6545 26.4479 63.3911C26.9452 63.1278 27.3175 62.6777 27.4829 62.1399L44.4529 6.98736ZM20.5931 17.5894C20.7906 17.7864 20.9473 18.0205 21.0543 18.2782C21.1612 18.5359 21.2163 18.8122 21.2163 19.0912C21.2163 19.3702 21.1612 19.6465 21.0543 19.9042C20.9473 20.1619 20.7906 20.396 20.5931 20.5931L7.24192 33.94L20.5931 47.2869C20.9914 47.6852 21.2152 48.2254 21.2152 48.7887C21.2152 49.352 20.9914 49.8922 20.5931 50.2906C20.1948 50.6889 19.6545 50.9126 19.0912 50.9126C18.5279 50.9126 17.9877 50.6889 17.5894 50.2906L2.74063 35.4418C2.54308 35.2448 2.38635 35.0107 2.27942 34.753C2.17248 34.4953 2.11743 34.219 2.11743 33.94C2.11743 33.6609 2.17248 33.3847 2.27942 33.127C2.38635 32.8692 2.54308 32.6352 2.74063 32.4381L17.5894 17.5894C17.7864 17.3918 18.0205 17.2351 18.2782 17.1282C18.5359 17.0212 18.8122 16.9662 19.0912 16.9662C19.3702 16.9662 19.6465 17.0212 19.9042 17.1282C20.1619 17.2351 20.396 17.3918 20.5931 17.5894ZM47.2869 17.5894C47.0893 17.7864 46.9326 18.0205 46.8257 18.2782C46.7187 18.5359 46.6637 18.8122 46.6637 19.0912C46.6637 19.3702 46.7187 19.6465 46.8257 19.9042C46.9326 20.1619 47.0893 20.396 47.2869 20.5931L60.638 33.94L47.2869 47.2869C47.0896 47.4841 46.9332 47.7182 46.8265 47.9759C46.7197 48.2336 46.6648 48.5098 46.6648 48.7887C46.6648 49.0676 46.7197 49.3438 46.8265 49.6015C46.9332 49.8592 47.0896 50.0933 47.2869 50.2906C47.4841 50.4878 47.7182 50.6442 47.9759 50.751C48.2336 50.8577 48.5098 50.9126 48.7887 50.9126C49.0676 50.9126 49.3438 50.8577 49.6015 50.751C49.8592 50.6442 50.0933 50.4878 50.2906 50.2906L65.1393 35.4418C65.3369 35.2448 65.4936 35.0107 65.6005 34.753C65.7075 34.4953 65.7625 34.219 65.7625 33.94C65.7625 33.6609 65.7075 33.3847 65.6005 33.127C65.4936 32.8692 65.3369 32.6352 65.1393 32.4381L50.2906 17.5894C50.0935 17.3918 49.8594 17.2351 49.6017 17.1282C49.344 17.0212 49.0677 16.9662 48.7887 16.9662C48.5097 16.9662 48.2334 17.0212 47.9757 17.1282C47.718 17.2351 47.4839 17.3918 47.2869 17.5894Z" fill="#4F37EA"/>
</svg>
