<svg xmlns="http://www.w3.org/2000/svg" xmlns:xlink="http://www.w3.org/1999/xlink" width="500" zoomAndPan="magnify" viewBox="0 0 375 374.999991" height="500" preserveAspectRatio="xMidYMid meet" version="1.0"><defs><clipPath id="1859a577b3"><path d="M 122 111 L 253 111 L 253 241 L 122 241 Z M 122 111 " clip-rule="nonzero"/></clipPath><clipPath id="00814dfd7e"><path d="M 187.496094 111.621094 C 151.902344 111.621094 122.941406 140.585938 122.941406 176.179688 C 122.941406 211.773438 151.902344 240.738281 187.496094 240.738281 C 223.089844 240.738281 252.054688 211.773438 252.054688 176.179688 C 252.054688 140.585938 223.089844 111.621094 187.496094 111.621094 Z M 187.496094 229 C 158.375 229 134.679688 205.304688 134.679688 176.179688 C 134.679688 147.054688 158.375 123.359375 187.496094 123.359375 C 216.617188 123.359375 240.316406 147.054688 240.316406 176.179688 C 240.316406 205.304688 216.617188 229 187.496094 229 Z M 187.496094 229 " clip-rule="nonzero"/></clipPath><clipPath id="a58633a205"><path d="M 152 135 L 223 135 L 223 218 L 152 218 Z M 152 135 " clip-rule="nonzero"/></clipPath><clipPath id="78c7343f9d"><path d="M 219.863281 153.542969 L 190.519531 135.9375 C 188.660156 134.828125 186.339844 134.828125 184.480469 135.9375 L 155.136719 153.542969 C 153.363281 154.601562 152.285156 156.507812 152.285156 158.574219 L 152.285156 193.785156 C 152.285156 195.851562 153.363281 197.757812 155.132812 198.816406 L 184.476562 216.421875 C 185.410156 216.980469 186.453125 217.261719 187.496094 217.261719 C 188.542969 217.261719 189.585938 216.980469 190.519531 216.421875 L 219.863281 198.816406 C 221.628906 197.757812 222.710938 195.851562 222.710938 193.785156 L 222.710938 158.574219 C 222.710938 156.507812 221.628906 154.601562 219.863281 153.542969 Z M 187.496094 147.808594 L 205.433594 158.574219 L 187.496094 169.335938 L 169.5625 158.574219 Z M 164.023438 168.9375 L 181.628906 179.5 L 181.628906 201.023438 L 164.023438 190.457031 Z M 193.367188 201.027344 L 193.367188 179.507812 L 210.972656 168.945312 L 210.972656 190.464844 Z M 193.367188 201.027344 " clip-rule="nonzero"/></clipPath><clipPath id="1e5a0ebf3a"><path d="M 23.171875 0 L 351.671875 0 L 351.671875 352.5 L 23.171875 352.5 Z M 23.171875 0 " clip-rule="nonzero"/></clipPath><clipPath id="f141df820a"><path d="M 348.976562 128.390625 C 350.742188 127.332031 351.824219 125.425781 351.824219 123.359375 L 351.824219 94.015625 C 351.824219 91.949219 350.742188 90.042969 348.976562 88.988281 L 319.632812 71.378906 C 317.773438 70.269531 315.453125 70.269531 313.59375 71.378906 L 287.230469 87.195312 L 222.710938 49.558594 L 222.710938 23.589844 C 222.710938 21.523438 221.628906 19.617188 219.863281 18.5625 L 190.519531 0.957031 C 188.660156 -0.152344 186.339844 -0.152344 184.480469 0.957031 L 155.136719 18.5625 C 153.363281 19.617188 152.285156 21.523438 152.285156 23.589844 L 152.285156 49.558594 L 87.769531 87.195312 L 61.40625 71.378906 C 59.546875 70.269531 57.226562 70.269531 55.367188 71.378906 L 26.023438 88.988281 C 24.25 90.042969 23.171875 91.949219 23.171875 94.015625 L 23.171875 123.359375 C 23.171875 125.425781 24.25 127.332031 26.019531 128.390625 L 52.515625 144.289062 L 52.515625 208.070312 L 26.019531 223.96875 C 24.25 225.027344 23.171875 226.933594 23.171875 229 L 23.171875 258.34375 C 23.171875 260.410156 24.25 262.316406 26.019531 263.371094 L 55.363281 280.980469 C 56.292969 281.535156 57.339844 281.816406 58.382812 281.816406 C 59.429688 281.816406 60.472656 281.535156 61.40625 280.980469 L 87.769531 265.164062 L 152.285156 302.800781 L 152.285156 328.769531 C 152.285156 330.835938 153.363281 332.742188 155.132812 333.796875 L 184.476562 351.402344 C 185.410156 351.960938 186.453125 352.242188 187.496094 352.242188 C 188.542969 352.242188 189.585938 351.960938 190.519531 351.402344 L 219.863281 333.796875 C 221.628906 332.742188 222.710938 330.835938 222.710938 328.769531 L 222.710938 302.800781 L 287.226562 265.164062 L 313.589844 280.980469 C 314.523438 281.535156 315.566406 281.816406 316.609375 281.816406 C 317.65625 281.816406 318.699219 281.535156 319.632812 280.980469 L 348.976562 263.371094 C 350.742188 262.316406 351.824219 260.410156 351.824219 258.34375 L 351.824219 229 C 351.824219 226.933594 350.742188 225.027344 348.976562 223.96875 L 322.480469 208.070312 L 322.480469 144.289062 Z M 158.113281 59.753906 L 181.628906 73.863281 L 181.628906 88.441406 C 151.875 90.417969 126.175781 107.191406 111.773438 131.507812 L 93.597656 120.109375 L 93.597656 97.390625 Z M 281.398438 97.390625 L 281.398438 120.101562 L 263.1875 131.453125 C 248.785156 107.167969 223.097656 90.417969 193.367188 88.441406 L 193.367188 73.863281 L 216.882812 59.753906 Z M 310.742188 208.070312 L 287.335938 222.113281 L 268.617188 210.378906 C 273.066406 199.855469 275.53125 188.296875 275.53125 176.179688 C 275.53125 164.03125 273.058594 152.457031 268.585938 141.917969 L 287.324219 130.238281 L 310.742188 144.289062 Z M 187.496094 310.1875 L 169.5625 299.425781 L 187.496094 288.660156 L 205.433594 299.425781 Z M 187.496094 252.472656 C 145.429688 252.472656 111.203125 218.246094 111.203125 176.179688 C 111.203125 134.113281 145.429688 99.886719 187.496094 99.886719 C 229.566406 99.886719 263.792969 134.113281 263.792969 176.179688 C 263.792969 218.246094 229.566406 252.472656 187.496094 252.472656 Z M 87.65625 222.113281 L 64.253906 208.070312 L 64.253906 144.289062 L 87.65625 130.246094 L 106.378906 141.980469 C 101.929688 152.503906 99.464844 164.0625 99.464844 176.179688 C 99.464844 188.296875 101.929688 199.855469 106.378906 210.378906 Z M 64.253906 114.945312 L 81.859375 104.382812 L 81.859375 120.03125 L 64.253906 130.597656 Z M 293.136719 104.382812 L 310.742188 114.945312 L 310.742188 130.597656 L 293.136719 120.03125 Z M 210.972656 49.613281 L 193.367188 60.175781 L 193.367188 44.519531 L 210.972656 33.957031 Z M 181.628906 44.519531 L 181.628906 60.171875 L 164.023438 49.609375 L 164.023438 33.957031 Z M 76.320312 229 L 58.382812 239.761719 L 40.449219 229 L 58.382812 218.234375 Z M 93.597656 232.25 L 111.773438 220.851562 C 126.167969 245.160156 151.875 261.941406 181.628906 263.917969 L 181.628906 278.496094 L 158.113281 292.605469 L 93.597656 254.96875 Z M 216.882812 292.605469 L 193.367188 278.496094 L 193.367188 263.917969 C 223.121094 261.941406 248.820312 245.167969 263.222656 220.851562 L 281.398438 232.25 L 281.398438 254.96875 Z M 316.609375 239.761719 L 298.675781 229 L 316.609375 218.234375 L 334.546875 229 Z M 322.480469 130.601562 L 322.480469 114.949219 L 340.085938 104.386719 L 340.085938 120.039062 Z M 316.609375 83.253906 L 334.546875 94.015625 L 316.609375 104.78125 L 298.675781 94.015625 Z M 187.496094 12.828125 L 205.433594 23.589844 L 187.496094 34.355469 L 169.5625 23.589844 Z M 58.382812 83.253906 L 76.320312 94.015625 L 58.382812 104.78125 L 40.449219 94.015625 Z M 34.910156 104.382812 L 52.515625 114.945312 L 52.515625 130.597656 L 34.910156 120.03125 Z M 34.910156 239.363281 L 52.515625 249.925781 L 52.515625 265.578125 L 34.910156 255.015625 Z M 64.253906 265.585938 L 64.253906 249.933594 L 81.859375 239.367188 L 81.859375 255.019531 Z M 164.023438 309.789062 L 181.628906 320.351562 L 181.628906 336.003906 L 164.023438 325.441406 Z M 193.367188 336.011719 L 193.367188 320.359375 L 210.972656 309.792969 L 210.972656 325.445312 Z M 293.136719 239.363281 L 310.742188 249.925781 L 310.742188 265.578125 L 293.136719 255.015625 Z M 322.480469 265.585938 L 322.480469 249.933594 L 340.085938 239.367188 L 340.085938 255.019531 Z M 322.480469 265.585938 " clip-rule="nonzero"/></clipPath></defs><g clip-path="url(#1859a577b3)"><g clip-path="url(#00814dfd7e)"><path fill="#d514e6" d="M 122.941406 111.621094 L 122.941406 240.738281 L 252.054688 240.738281 L 252.054688 111.621094 Z M 122.941406 111.621094 " fill-opacity="1" fill-rule="nonzero"/></g></g><g clip-path="url(#a58633a205)"><g clip-path="url(#78c7343f9d)"><path fill="#d514e6" d="M 152.285156 134.828125 L 152.285156 217.261719 L 222.710938 217.261719 L 222.710938 134.828125 Z M 152.285156 134.828125 " fill-opacity="1" fill-rule="nonzero"/></g></g><g clip-path="url(#1e5a0ebf3a)"><g clip-path="url(#f141df820a)"><path fill="#d514e6" d="M 23.171875 0 L 23.171875 352.242188 L 351.671875 352.242188 L 351.671875 0 Z M 23.171875 0 " fill-opacity="1" fill-rule="nonzero"/></g></g></svg>