<svg xmlns="http://www.w3.org/2000/svg" xmlns:xlink="http://www.w3.org/1999/xlink" width="500" zoomAndPan="magnify" viewBox="0 0 375 374.999991" height="500" preserveAspectRatio="xMidYMid meet" version="1.0"><defs><clipPath id="598026572c"><path d="M 29.066406 45 L 345.566406 45 L 345.566406 279 L 29.066406 279 Z M 29.066406 45 " clip-rule="nonzero"/></clipPath><clipPath id="364636d0e5"><path d="M 113 271 L 262 271 L 262 343.441406 L 113 343.441406 Z M 113 271 " clip-rule="nonzero"/></clipPath><clipPath id="4b720060b1"><path d="M 76 31.441406 L 299 31.441406 L 299 216 L 76 216 Z M 76 31.441406 " clip-rule="nonzero"/></clipPath></defs><g clip-path="url(#598026572c)"><path fill="#d514e6" d="M 330.019531 278.9375 L 44.972656 278.9375 C 36.242188 278.9375 29.144531 271.839844 29.144531 263.109375 L 29.144531 61.234375 C 29.144531 52.515625 36.242188 45.40625 44.972656 45.40625 L 79.792969 45.40625 C 81.796875 45.40625 83.417969 47.03125 83.417969 49.035156 C 83.417969 51.039062 81.796875 52.660156 79.792969 52.660156 L 44.972656 52.660156 C 40.242188 52.660156 36.390625 56.503906 36.390625 61.234375 L 36.390625 263.101562 C 36.390625 267.828125 40.234375 271.675781 44.960938 271.675781 L 330.019531 271.675781 C 334.75 271.675781 338.59375 267.828125 338.59375 263.101562 L 338.59375 61.234375 C 338.59375 56.503906 334.75 52.660156 330.019531 52.660156 L 295.199219 52.660156 C 293.195312 52.660156 291.574219 51.039062 291.574219 49.035156 C 291.574219 47.03125 293.195312 45.40625 295.199219 45.40625 L 330.019531 45.40625 C 338.738281 45.40625 345.847656 52.503906 345.847656 61.234375 L 345.847656 263.101562 C 345.847656 271.839844 338.738281 278.9375 330.019531 278.9375 Z M 330.019531 278.9375 " fill-opacity="1" fill-rule="evenodd"/></g><path fill="#d514e6" d="M 320.929688 257.644531 L 54.054688 257.644531 C 52.050781 257.644531 50.429688 256.023438 50.429688 254.019531 L 50.429688 70.335938 C 50.429688 68.332031 52.050781 66.710938 54.054688 66.710938 L 79.773438 66.710938 C 81.78125 66.710938 83.402344 68.332031 83.402344 70.335938 C 83.402344 72.339844 81.78125 73.960938 79.773438 73.960938 L 57.679688 73.960938 L 57.679688 250.390625 L 317.300781 250.390625 L 317.300781 73.960938 L 295.207031 73.960938 C 293.203125 73.960938 291.582031 72.339844 291.582031 70.335938 C 291.582031 68.332031 293.203125 66.710938 295.207031 66.710938 L 320.929688 66.710938 C 322.941406 66.710938 324.554688 68.332031 324.554688 70.335938 L 324.554688 254.019531 C 324.554688 256.011719 322.933594 257.644531 320.929688 257.644531 Z M 320.929688 257.644531 " fill-opacity="1" fill-rule="evenodd"/><g clip-path="url(#364636d0e5)"><path fill="#d514e6" d="M 257.691406 343.558594 L 117.292969 343.558594 C 115.28125 343.558594 113.667969 341.945312 113.667969 339.933594 L 113.667969 328.542969 C 113.667969 320.261719 120.398438 313.527344 128.683594 313.527344 L 140.699219 313.527344 C 135.09375 296.472656 151.257812 274.207031 152.023438 273.167969 C 153.21875 271.554688 155.484375 271.210938 157.097656 272.402344 C 158.710938 273.585938 159.046875 275.855469 157.863281 277.46875 C 152.871094 284.257812 141.664062 304.234375 149.507812 315.023438 C 150.300781 316.125 150.421875 317.59375 149.800781 318.804688 C 149.179688 320.015625 147.933594 320.78125 146.566406 320.78125 L 128.683594 320.78125 C 124.398438 320.78125 120.917969 324.261719 120.917969 328.542969 L 120.917969 336.304688 L 254.0625 336.304688 L 254.0625 328.542969 C 254.0625 324.261719 250.582031 320.78125 246.300781 320.78125 L 228.410156 320.78125 C 227.042969 320.78125 225.792969 320.015625 225.175781 318.804688 C 224.546875 317.59375 224.671875 316.125 225.464844 315.023438 C 233.335938 304.199219 222.105469 284.246094 217.109375 277.46875 C 215.917969 275.855469 216.261719 273.585938 217.875 272.402344 C 219.488281 271.210938 221.757812 271.554688 222.949219 273.167969 C 223.714844 274.214844 239.886719 296.484375 234.277344 313.527344 L 246.300781 313.527344 C 254.582031 313.527344 261.316406 320.261719 261.316406 328.542969 L 261.316406 339.933594 C 261.316406 341.9375 259.6875 343.558594 257.691406 343.558594 Z M 257.691406 343.558594 " fill-opacity="1" fill-rule="evenodd"/></g><path fill="#d514e6" d="M 187.492188 298.695312 C 182.5625 298.695312 178.5625 302.707031 178.5625 307.617188 C 178.5625 312.546875 182.570312 316.542969 187.492188 316.542969 C 192.410156 316.542969 196.421875 312.535156 196.421875 307.617188 C 196.421875 302.695312 192.410156 298.695312 187.492188 298.695312 Z M 187.492188 323.796875 C 178.574219 323.796875 171.3125 316.535156 171.3125 307.617188 C 171.3125 298.695312 178.574219 291.445312 187.492188 291.445312 C 196.410156 291.445312 203.671875 298.695312 203.671875 307.617188 C 203.671875 316.542969 196.410156 323.796875 187.492188 323.796875 Z M 187.492188 323.796875 " fill-opacity="1" fill-rule="evenodd"/><g clip-path="url(#4b720060b1)"><path fill="#d514e6" d="M 93.75 38.695312 C 88.046875 38.695312 83.410156 43.332031 83.410156 49.035156 L 83.410156 197.566406 C 83.410156 203.269531 88.046875 207.90625 93.75 207.90625 L 281.234375 207.90625 C 286.9375 207.90625 291.574219 203.269531 291.574219 197.566406 L 291.574219 49.035156 C 291.574219 43.332031 286.9375 38.695312 281.234375 38.695312 Z M 281.234375 215.152344 L 93.75 215.152344 C 84.046875 215.152344 76.15625 207.253906 76.15625 197.558594 L 76.15625 49.035156 C 76.15625 39.332031 84.046875 31.441406 93.75 31.441406 L 281.234375 31.441406 C 290.9375 31.441406 298.824219 39.332031 298.824219 49.035156 L 298.824219 197.558594 C 298.824219 207.253906 290.9375 215.152344 281.234375 215.152344 Z M 281.234375 215.152344 " fill-opacity="1" fill-rule="evenodd"/></g><path fill="#d514e6" d="M 295.199219 81.449219 L 79.773438 81.449219 C 77.761719 81.449219 76.148438 79.835938 76.148438 77.824219 C 76.148438 75.820312 77.761719 74.207031 79.773438 74.207031 L 295.199219 74.207031 C 297.203125 74.207031 298.824219 75.820312 298.824219 77.824219 C 298.824219 79.828125 297.203125 81.449219 295.199219 81.449219 Z M 295.199219 81.449219 " fill-opacity="1" fill-rule="evenodd"/><path fill="#d514e6" d="M 102.097656 60.515625 L 114.175781 60.515625 L 111.296875 52.386719 L 104.976562 52.386719 C 104.976562 52.386719 102.097656 60.515625 102.097656 60.515625 Z M 119.316406 67.765625 L 96.96875 67.765625 C 95.792969 67.765625 94.679688 67.191406 94.007812 66.226562 C 93.332031 65.261719 93.160156 64.039062 93.550781 62.929688 L 99 47.550781 C 99.519531 46.101562 100.875 45.125 102.414062 45.125 L 113.867188 45.125 C 115.40625 45.125 116.773438 46.089844 117.285156 47.550781 L 122.742188 62.929688 C 123.132812 64.039062 122.960938 65.269531 122.285156 66.226562 C 121.59375 67.191406 120.492188 67.765625 119.316406 67.765625 Z M 119.316406 67.765625 " fill-opacity="1" fill-rule="evenodd"/><path fill="#d514e6" d="M 138.703125 60.515625 L 150.785156 60.515625 L 147.90625 52.386719 L 141.582031 52.386719 Z M 155.921875 67.765625 L 133.574219 67.765625 C 132.398438 67.765625 131.289062 67.191406 130.613281 66.226562 C 129.929688 65.261719 129.765625 64.039062 130.15625 62.929688 L 135.605469 47.550781 C 136.125 46.101562 137.484375 45.125 139.023438 45.125 L 150.476562 45.125 C 152.015625 45.125 153.382812 46.089844 153.890625 47.550781 L 159.339844 62.929688 C 159.730469 64.039062 159.558594 65.269531 158.882812 66.226562 C 158.199219 67.191406 157.097656 67.765625 155.921875 67.765625 Z M 155.921875 67.765625 " fill-opacity="1" fill-rule="evenodd"/><path fill="#d514e6" d="M 175.320312 60.515625 L 187.402344 60.515625 L 184.523438 52.386719 L 178.199219 52.386719 Z M 192.53125 67.765625 L 170.179688 67.765625 C 169.007812 67.765625 167.894531 67.191406 167.21875 66.226562 C 166.535156 65.261719 166.371094 64.039062 166.765625 62.929688 L 172.214844 47.550781 C 172.730469 46.101562 174.089844 45.125 175.628906 45.125 L 187.082031 45.125 C 188.621094 45.125 189.988281 46.089844 190.5 47.550781 L 195.957031 62.929688 C 196.347656 64.039062 196.175781 65.269531 195.5 66.226562 C 194.816406 67.191406 193.707031 67.765625 192.53125 67.765625 Z M 192.53125 67.765625 " fill-opacity="1" fill-rule="evenodd"/><path fill="#d514e6" d="M 211.925781 60.515625 L 224.015625 60.515625 L 221.128906 52.386719 L 214.804688 52.386719 Z M 229.144531 67.765625 L 206.796875 67.765625 C 205.621094 67.765625 204.511719 67.191406 203.835938 66.226562 C 203.152344 65.261719 202.988281 64.039062 203.382812 62.929688 L 208.828125 47.550781 C 209.347656 46.101562 210.707031 45.125 212.246094 45.125 L 223.699219 45.125 C 225.238281 45.125 226.605469 46.089844 227.113281 47.550781 L 232.570312 62.929688 C 232.964844 64.039062 232.789062 65.269531 232.117188 66.226562 C 231.425781 67.191406 230.320312 67.765625 229.144531 67.765625 Z M 229.144531 67.765625 " fill-opacity="1" fill-rule="evenodd"/><path fill="#d514e6" d="M 229.855469 143.394531 C 231.105469 143.394531 232.335938 144.050781 233 145.207031 L 246.355469 168.332031 L 255.039062 163.320312 L 241.683594 140.195312 C 241.199219 139.367188 241.070312 138.375 241.328125 137.445312 C 241.574219 136.515625 242.183594 135.730469 243.011719 135.242188 L 245.472656 133.820312 L 225.582031 122.339844 L 225.582031 145.296875 L 228.054688 143.878906 C 228.609375 143.550781 229.238281 143.394531 229.855469 143.394531 Z M 245.027344 176.914062 C 243.777344 176.914062 242.546875 176.265625 241.875 175.101562 L 228.535156 151.96875 L 223.769531 154.71875 C 222.648438 155.367188 221.265625 155.367188 220.144531 154.71875 C 219.023438 154.074219 218.332031 152.871094 218.332031 151.574219 L 218.332031 116.054688 C 218.332031 114.757812 219.023438 113.566406 220.144531 112.910156 C 221.265625 112.261719 222.648438 112.261719 223.769531 112.910156 L 254.527344 130.667969 C 255.648438 131.3125 256.34375 132.515625 256.34375 133.808594 C 256.34375 135.113281 255.648438 136.296875 254.527344 136.953125 L 249.773438 139.703125 L 263.121094 162.828125 C 263.601562 163.65625 263.738281 164.640625 263.484375 165.578125 C 263.238281 166.507812 262.628906 167.292969 261.800781 167.785156 L 246.839844 176.410156 C 246.257812 176.757812 245.636719 176.914062 245.027344 176.914062 Z M 245.027344 176.914062 " fill-opacity="1" fill-rule="evenodd"/><path fill="#d514e6" d="M 163.601562 133.363281 C 162.144531 133.363281 160.761719 132.46875 160.214844 131.03125 L 148.140625 99.390625 C 147.421875 97.523438 148.371094 95.417969 150.238281 94.707031 C 152.105469 93.988281 154.199219 94.925781 154.921875 96.792969 L 166.992188 128.433594 C 167.703125 130.300781 166.765625 132.40625 164.898438 133.117188 C 164.46875 133.28125 164.03125 133.363281 163.601562 133.363281 Z M 163.601562 133.363281 " fill-opacity="1" fill-rule="evenodd"/><path fill="#d514e6" d="M 137.273438 133.363281 C 136.542969 133.363281 135.804688 133.144531 135.167969 132.699219 L 112.902344 116.871094 C 111.945312 116.191406 111.378906 115.097656 111.378906 113.910156 C 111.378906 112.746094 111.945312 111.632812 112.902344 110.949219 L 135.167969 95.125 C 136.808594 93.96875 139.066406 94.351562 140.234375 95.980469 C 141.398438 97.621094 141.007812 99.882812 139.378906 101.039062 L 121.273438 113.902344 L 139.378906 126.777344 C 141.007812 127.933594 141.390625 130.191406 140.234375 131.832031 C 139.523438 132.835938 138.402344 133.363281 137.273438 133.363281 Z M 137.273438 133.363281 " fill-opacity="1" fill-rule="evenodd"/><path fill="#d514e6" d="M 177.851562 133.363281 C 176.722656 133.363281 175.601562 132.835938 174.890625 131.84375 C 173.734375 130.203125 174.117188 127.941406 175.746094 126.785156 L 193.851562 113.910156 L 175.746094 101.039062 C 174.117188 99.882812 173.734375 97.621094 174.890625 95.980469 C 176.046875 94.351562 178.316406 93.96875 179.949219 95.125 L 202.214844 110.949219 C 203.179688 111.644531 203.746094 112.738281 203.746094 113.910156 C 203.746094 115.085938 203.179688 116.191406 202.214844 116.871094 L 179.949219 132.699219 C 179.308594 133.144531 178.582031 133.363281 177.851562 133.363281 Z M 177.851562 133.363281 " fill-opacity="1" fill-rule="evenodd"/><path fill="#d514e6" d="M 191.882812 153.871094 L 123.234375 153.871094 C 121.230469 153.871094 119.605469 152.25 119.605469 150.246094 C 119.605469 148.242188 121.230469 146.621094 123.234375 146.621094 L 191.882812 146.621094 C 193.886719 146.621094 195.507812 148.242188 195.507812 150.246094 C 195.507812 152.242188 193.886719 153.871094 191.882812 153.871094 Z M 191.882812 153.871094 " fill-opacity="1" fill-rule="evenodd"/><path fill="#d514e6" d="M 191.882812 174.378906 L 123.234375 174.378906 C 121.230469 174.378906 119.605469 172.757812 119.605469 170.753906 C 119.605469 168.75 121.230469 167.128906 123.234375 167.128906 L 191.882812 167.128906 C 193.886719 167.128906 195.507812 168.75 195.507812 170.753906 C 195.507812 172.757812 193.886719 174.378906 191.882812 174.378906 Z M 191.882812 174.378906 " fill-opacity="1" fill-rule="evenodd"/><path fill="#d514e6" d="M 191.882812 194.898438 L 123.234375 194.898438 C 121.230469 194.898438 119.605469 193.277344 119.605469 191.273438 C 119.605469 189.265625 121.230469 187.644531 123.234375 187.644531 L 191.882812 187.644531 C 193.886719 187.644531 195.507812 189.265625 195.507812 191.273438 C 195.507812 193.277344 193.886719 194.898438 191.882812 194.898438 Z M 191.882812 194.898438 " fill-opacity="1" fill-rule="evenodd"/></svg>