<svg width="61" height="60" viewBox="0 0 61 60" fill="none" xmlns="http://www.w3.org/2000/svg">
<path fill-rule="evenodd" clip-rule="evenodd" d="M28.207 2.41963C24.9809 -0.806543 19.7502 -0.806541 16.524 2.41963L2.41963 16.524C-0.806542 19.7502 -0.806542 24.9809 2.41963 28.207L16.524 42.3114C19.7502 45.5376 24.9809 45.5376 28.207 42.3114C31.4332 39.0853 31.4332 33.8546 28.207 30.6284L26.9963 29.4177C23.1015 25.5229 23.1015 19.2082 26.9963 15.3133L28.207 14.1026C31.4332 10.8764 31.4332 5.6458 28.207 2.41963ZM32.3338 57.5804C35.5599 60.8065 40.7906 60.8065 44.0168 57.5804L58.1212 43.476C61.3473 40.2498 61.3473 35.0191 58.1212 31.793L44.0168 17.6886C40.7906 14.4624 35.5599 14.4624 32.3338 17.6886C29.1076 20.9147 29.1076 26.1454 32.3338 29.3715L33.5445 30.5823C37.4393 34.4771 37.4393 40.7918 33.5445 44.6867L32.3338 45.8974C29.1076 49.1236 29.1076 54.3542 32.3338 57.5804Z" fill="url(#paint0_linear_5_6)"/>
<defs>
<linearGradient id="paint0_linear_5_6" x1="-6.43429" y1="-4.65319" x2="57.5119" y2="68.682" gradientUnits="userSpaceOnUse">
<stop stop-color="#19B8EA"/>
<stop offset="0.5" stop-color="#4F37EA"/>
<stop offset="1" stop-color="#D714E8"/>
</linearGradient>
</defs>
</svg>
