<svg width="171" height="60" viewBox="0 0 171 60" fill="none" xmlns="http://www.w3.org/2000/svg">
<path d="M71.2504 24.4714C71.2504 21.6759 72.4015 19.4011 74.7036 17.6471C77.0332 15.893 80.0754 15.016 83.8302 15.016C87.6123 15.016 90.6956 15.9342 93.08 17.7704C95.4918 19.6067 96.6978 21.5252 96.6978 23.5259C96.6978 23.7726 96.6018 23.9918 96.41 24.1837C96.2455 24.3481 96.0537 24.4303 95.8344 24.4303H87.6123C86.982 24.4303 86.4064 24.1974 85.8857 23.7314C85.365 23.2655 84.6661 23.0326 83.7891 23.0326C82.4735 23.0326 81.8158 23.4163 81.8158 24.1837C81.8158 24.5948 82.1309 24.9374 82.7613 25.2114C83.4191 25.4855 84.625 25.7322 86.379 25.9514C90.4627 26.4721 93.3678 27.4314 95.0944 28.8291C96.8485 30.1995 97.7255 32.2961 97.7255 35.119C97.7255 37.9146 96.4374 40.203 93.8611 41.9845C91.3123 43.7385 87.9686 44.6156 83.8302 44.6156C79.6917 44.6156 76.444 43.766 74.087 42.0667C71.73 40.3675 70.5515 38.2983 70.5515 35.859C70.5515 35.6124 70.6337 35.4068 70.7981 35.2424C70.99 35.0505 71.2093 34.9546 71.4559 34.9546H79.2669C79.8425 34.9546 80.4728 35.2287 81.158 35.7768C81.8706 36.325 82.8435 36.599 84.0768 36.599C86.1324 36.599 87.1601 36.2153 87.1601 35.4479C87.1601 34.9546 86.7901 34.5846 86.0501 34.338C85.3101 34.0639 83.9124 33.7898 81.8569 33.5157C74.7859 32.5839 71.2504 29.5691 71.2504 24.4714Z" fill="white"/>
<path d="M108.566 15.4271H117.487C118.474 15.4271 119.091 15.8793 119.337 16.7838L128.505 43.0123C128.532 43.0945 128.546 43.2315 128.546 43.4234C128.546 43.5878 128.45 43.766 128.258 43.9578C128.094 44.1222 127.888 44.2045 127.642 44.2045H120.036C119.214 44.2045 118.68 43.8619 118.433 43.1767L117.446 40.4634H108.608L107.621 43.1767C107.374 43.8619 106.84 44.2045 106.018 44.2045H98.4122C98.1655 44.2045 97.9463 44.1222 97.7544 43.9578C97.59 43.766 97.5078 43.5878 97.5078 43.4234C97.5078 43.2315 97.5215 43.0945 97.5489 43.0123L106.717 16.7838C106.963 15.8793 107.58 15.4271 108.566 15.4271ZM110.704 32.4469H115.35L113.006 24.8003L110.704 32.4469Z" fill="white"/>
<path d="M139.282 44.2045H130.896C130.594 44.2045 130.334 44.0948 130.115 43.8756C129.896 43.6563 129.786 43.396 129.786 43.0945V16.5371C129.786 16.2356 129.896 15.9753 130.115 15.756C130.334 15.5368 130.594 15.4271 130.896 15.4271H139.282C139.584 15.4271 139.844 15.5368 140.064 15.756C140.283 15.9753 140.392 16.2356 140.392 16.5371V43.0945C140.392 43.396 140.283 43.6563 140.064 43.8756C139.844 44.0948 139.584 44.2045 139.282 44.2045Z" fill="white"/>
<path d="M158.633 25.7047C158.934 25.3485 159.085 24.9236 159.085 24.4303C159.085 23.937 158.934 23.4985 158.633 23.1148C158.359 22.7037 157.948 22.4981 157.4 22.4981H153.946V26.2392H157.4C157.948 26.2392 158.359 26.061 158.633 25.7047ZM153.946 33.1046V37.1335H157.77C158.4 37.1335 158.866 36.9279 159.167 36.5168C159.496 36.0783 159.661 35.5987 159.661 35.0779V35.0368C159.661 34.5161 159.483 34.0639 159.126 33.6802C158.797 33.2965 158.345 33.1046 157.77 33.1046H153.946ZM158.839 44.2045H144.779C144.477 44.2045 144.217 44.0948 143.998 43.8756C143.778 43.6563 143.669 43.396 143.669 43.0945V16.5371C143.669 16.2356 143.778 15.9753 143.998 15.756C144.217 15.5368 144.477 15.4271 144.779 15.4271H158.427C162.319 15.4271 165.183 16.1397 167.019 17.5649C168.883 18.9626 169.815 21.0867 169.815 23.937V24.0603C169.815 25.2388 169.472 26.294 168.787 27.2258C168.102 28.1303 167.348 28.788 166.526 29.1991C167.622 29.6377 168.541 30.4188 169.281 31.5424C170.048 32.6387 170.432 33.8446 170.432 35.1602C170.432 41.1897 166.567 44.2045 158.839 44.2045Z" fill="white"/>
<path fill-rule="evenodd" clip-rule="evenodd" d="M28.207 2.41963C24.9809 -0.806543 19.7502 -0.806541 16.524 2.41963L2.41963 16.524C-0.806542 19.7502 -0.806542 24.9809 2.41963 28.207L16.524 42.3114C19.7502 45.5376 24.9809 45.5376 28.207 42.3114C31.4332 39.0853 31.4332 33.8546 28.207 30.6284L26.9963 29.4177C23.1015 25.5229 23.1015 19.2082 26.9963 15.3133L28.207 14.1026C31.4332 10.8764 31.4332 5.6458 28.207 2.41963ZM32.3338 57.5804C35.5599 60.8065 40.7906 60.8065 44.0168 57.5804L58.1212 43.476C61.3473 40.2498 61.3473 35.0191 58.1212 31.793L44.0168 17.6886C40.7906 14.4624 35.5599 14.4624 32.3338 17.6886C29.1076 20.9147 29.1076 26.1454 32.3338 29.3715L33.5445 30.5823C37.4393 34.4771 37.4393 40.7918 33.5445 44.6867L32.3338 45.8974C29.1076 49.1236 29.1076 54.3542 32.3338 57.5804Z" fill="url(#paint0_linear_5_4)"/>
<defs>
<linearGradient id="paint0_linear_5_4" x1="-6.43429" y1="-4.65319" x2="57.5119" y2="68.682" gradientUnits="userSpaceOnUse">
<stop stop-color="#19B8EA"/>
<stop offset="0.5" stop-color="#4F37EA"/>
<stop offset="1" stop-color="#D714E8"/>
</linearGradient>
</defs>
</svg>
