<svg width="101" height="30" viewBox="0 0 101 30" fill="none" xmlns="http://www.w3.org/2000/svg">
<path d="M1.25036 9.47143C1.25036 6.67592 2.40145 4.40114 4.70364 2.64709C7.03324 0.893046 10.0754 0.0160217 13.8302 0.0160217C17.6123 0.0160217 20.6956 0.934156 23.08 2.77043C25.4918 4.60669 26.6978 6.52518 26.6978 8.52589C26.6978 8.77256 26.6018 8.99181 26.41 9.18366C26.2455 9.3481 26.0537 9.43032 25.8344 9.43032H17.6123C16.982 9.43032 16.4064 9.19736 15.8857 8.73144C15.365 8.26552 14.6661 8.03257 13.7891 8.03257C12.4735 8.03257 11.8158 8.41626 11.8158 9.18366C11.8158 9.59476 12.1309 9.93735 12.7613 10.2114C13.4191 10.4855 14.625 10.7322 16.379 10.9514C20.4627 11.4721 23.3678 12.4314 25.0944 13.8291C26.8485 15.1995 27.7255 17.2961 27.7255 20.119C27.7255 22.9146 26.4374 25.203 23.8611 26.9845C21.3123 28.7385 17.9686 29.6156 13.8302 29.6156C9.69171 29.6156 6.44399 28.766 4.08698 27.0667C1.72998 25.3675 0.551483 23.2983 0.551483 20.859C0.551483 20.6124 0.633704 20.4068 0.798146 20.2424C0.989995 20.0505 1.20925 19.9546 1.45591 19.9546H9.26691C9.84245 19.9546 10.4728 20.2287 11.158 20.7768C11.8706 21.325 12.8435 21.599 14.0768 21.599C16.1324 21.599 17.1601 21.2153 17.1601 20.4479C17.1601 19.9546 16.7901 19.5846 16.0501 19.338C15.3101 19.0639 13.9124 18.7898 11.8569 18.5157C4.78586 17.5839 1.25036 14.5691 1.25036 9.47143Z" fill="white"/>
<path d="M38.5665 0.427126H47.4875C48.4741 0.427126 49.0908 0.879341 49.3374 1.78377L58.5051 28.0123C58.5325 28.0945 58.5462 28.2315 58.5462 28.4234C58.5462 28.5878 58.4502 28.766 58.2584 28.9578C58.094 29.1222 57.8884 29.2045 57.6417 29.2045H50.0363C49.2141 29.2045 48.6797 28.8619 48.433 28.1767L47.4463 25.4634H38.6076L37.6209 28.1767C37.3743 28.8619 36.8398 29.2045 36.0176 29.2045H28.4122C28.1655 29.2045 27.9463 29.1222 27.7544 28.9578C27.59 28.766 27.5078 28.5878 27.5078 28.4234C27.5078 28.2315 27.5215 28.0945 27.5489 28.0123L36.7165 1.78377C36.9632 0.879341 37.5798 0.427126 38.5665 0.427126ZM40.7042 17.4469H45.3497L43.0064 9.80032L40.7042 17.4469Z" fill="white"/>
<path d="M69.2824 29.2045H60.8959C60.5944 29.2045 60.334 29.0948 60.1148 28.8756C59.8955 28.6563 59.7859 28.396 59.7859 28.0945V1.53711C59.7859 1.23563 59.8955 0.975267 60.1148 0.756011C60.334 0.536754 60.5944 0.427126 60.8959 0.427126H69.2824C69.5839 0.427126 69.8443 0.536754 70.0635 0.756011C70.2828 0.975267 70.3924 1.23563 70.3924 1.53711V28.0945C70.3924 28.396 70.2828 28.6563 70.0635 28.8756C69.8443 29.0948 69.5839 29.2045 69.2824 29.2045Z" fill="white"/>
<path d="M88.6329 10.7047C88.9344 10.3485 89.0852 9.92365 89.0852 9.43032C89.0852 8.937 88.9344 8.49849 88.6329 8.11479C88.3589 7.70368 87.9478 7.49813 87.3996 7.49813H83.9464V11.2392H87.3996C87.9478 11.2392 88.3589 11.061 88.6329 10.7047ZM83.9464 18.1046V22.1335H87.7696C88.4 22.1335 88.8659 21.9279 89.1674 21.5168C89.4963 21.0783 89.6607 20.5987 89.6607 20.0779V20.0368C89.6607 19.5161 89.4826 19.0639 89.1263 18.6802C88.7974 18.2965 88.3452 18.1046 87.7696 18.1046H83.9464ZM88.8385 29.2045H74.7787C74.4772 29.2045 74.2169 29.0948 73.9976 28.8756C73.7784 28.6563 73.6687 28.396 73.6687 28.0945V1.53711C73.6687 1.23563 73.7784 0.975267 73.9976 0.756011C74.2169 0.536754 74.4772 0.427126 74.7787 0.427126H88.4274C92.3192 0.427126 95.1832 1.13971 97.0195 2.56487C98.8832 3.96263 99.815 6.08667 99.815 8.937V9.06033C99.815 10.2388 99.4724 11.294 98.7872 12.2258C98.1021 13.1303 97.3484 13.788 96.5262 14.1991C97.6224 14.6377 98.5406 15.4188 99.2806 16.5424C100.048 17.6387 100.432 18.8446 100.432 20.1602C100.432 26.1897 96.5673 29.2045 88.8385 29.2045Z" fill="white"/>
</svg>
