<svg xmlns="http://www.w3.org/2000/svg" xmlns:xlink="http://www.w3.org/1999/xlink" width="500" zoomAndPan="magnify" viewBox="0 0 375 374.999991" height="500" preserveAspectRatio="xMidYMid meet" version="1.0"><path fill="#d514e6" d="M 327.886719 220.507812 C 326.367188 220.507812 324.855469 220.636719 323.355469 220.894531 C 321.859375 221.152344 320.390625 221.535156 318.957031 222.046875 C 317.527344 222.554688 316.144531 223.179688 314.820312 223.925781 C 313.492188 224.671875 312.238281 225.523438 311.058594 226.480469 C 309.878906 227.4375 308.789062 228.492188 307.785156 229.636719 C 306.785156 230.78125 305.890625 232.003906 305.097656 233.300781 C 304.304688 234.597656 303.628906 235.953125 303.066406 237.367188 C 302.507812 238.78125 302.070312 240.234375 301.757812 241.722656 L 233.9375 241.722656 L 211.414062 221.328125 C 215.542969 218.582031 219.09375 215.226562 222.0625 211.253906 L 269.648438 211.253906 C 271.453125 211.351562 273.261719 211.359375 275.066406 211.277344 C 276.875 211.195312 278.671875 211.019531 280.457031 210.753906 C 282.246094 210.484375 284.015625 210.128906 285.769531 209.683594 C 287.523438 209.238281 289.246094 208.703125 290.945312 208.082031 C 292.640625 207.457031 294.304688 206.753906 295.929688 205.960938 C 297.554688 205.171875 299.136719 204.300781 300.675781 203.347656 C 302.210938 202.394531 303.695312 201.367188 305.128906 200.265625 C 306.5625 199.164062 307.9375 197.988281 309.25 196.746094 C 310.5625 195.503906 311.808594 194.199219 312.992188 192.828125 C 314.171875 191.460938 315.277344 190.035156 316.316406 188.550781 C 317.351562 187.070312 318.308594 185.539062 319.1875 183.957031 C 320.066406 182.378906 320.863281 180.757812 321.582031 179.097656 C 322.296875 177.4375 322.925781 175.746094 323.46875 174.019531 C 324.007812 172.296875 324.464844 170.546875 324.828125 168.777344 C 325.195312 167.003906 325.46875 165.21875 325.652344 163.421875 C 325.835938 161.625 325.925781 159.820312 325.925781 158.011719 C 325.925781 156.203125 325.835938 154.398438 325.652344 152.601562 C 325.46875 150.800781 325.195312 149.015625 324.828125 147.246094 C 324.464844 145.476562 324.007812 143.726562 323.46875 142.003906 C 322.925781 140.277344 322.296875 138.585938 321.582031 136.925781 C 320.863281 135.265625 320.066406 133.644531 319.1875 132.066406 C 318.308594 130.484375 317.351562 128.953125 316.316406 127.472656 C 315.277344 125.988281 314.171875 124.5625 312.992188 123.195312 C 311.808594 121.824219 310.5625 120.519531 309.25 119.277344 C 307.9375 118.035156 306.5625 116.859375 305.128906 115.757812 C 303.695312 114.65625 302.210938 113.628906 300.675781 112.675781 C 299.136719 111.722656 297.554688 110.851562 295.929688 110.0625 C 294.304688 109.269531 292.640625 108.5625 290.945312 107.941406 C 289.246094 107.320312 287.523438 106.785156 285.769531 106.339844 C 284.015625 105.894531 282.246094 105.535156 280.457031 105.269531 C 278.671875 105.003906 276.875 104.828125 275.066406 104.746094 C 273.261719 104.664062 271.453125 104.671875 269.648438 104.769531 C 266.902344 104.785156 264.171875 105.003906 261.457031 105.425781 C 261.125 103.53125 260.71875 101.652344 260.238281 99.789062 C 259.753906 97.925781 259.199219 96.085938 258.566406 94.269531 C 257.9375 92.453125 257.234375 90.660156 256.460938 88.898438 C 255.6875 87.136719 254.847656 85.410156 253.933594 83.714844 C 253.023438 82.023438 252.042969 80.367188 251 78.75 C 249.953125 77.136719 248.847656 75.566406 247.675781 74.039062 C 246.503906 72.511719 245.273438 71.035156 243.984375 69.605469 C 242.695312 68.175781 241.351562 66.804688 239.953125 65.484375 C 238.554688 64.164062 237.101562 62.898438 235.601562 61.695312 C 234.101562 60.492188 232.554688 59.347656 230.964844 58.269531 C 229.371094 57.1875 227.738281 56.175781 226.066406 55.226562 C 224.390625 54.277344 222.683594 53.394531 220.9375 52.582031 C 219.195312 51.769531 217.421875 51.027344 215.617188 50.359375 C 213.8125 49.6875 211.984375 49.09375 210.136719 48.566406 C 208.285156 48.042969 206.414062 47.597656 204.527344 47.222656 C 202.640625 46.847656 200.742188 46.550781 198.828125 46.328125 C 196.917969 46.109375 195 45.964844 193.078125 45.894531 C 191.15625 45.828125 189.234375 45.835938 187.3125 45.921875 C 185.390625 46.007812 183.472656 46.171875 181.5625 46.414062 C 179.65625 46.652344 177.757812 46.96875 175.875 47.359375 C 173.992188 47.753906 172.125 48.21875 170.28125 48.761719 C 168.433594 49.300781 166.613281 49.914062 164.816406 50.601562 C 163.019531 51.289062 161.253906 52.050781 159.515625 52.878906 C 157.78125 53.707031 156.078125 54.605469 154.414062 55.570312 C 152.75 56.535156 151.128906 57.566406 149.546875 58.660156 C 147.964844 59.757812 146.429688 60.914062 144.941406 62.132812 C 143.453125 63.351562 142.015625 64.628906 140.628906 65.960938 C 139.242188 67.292969 137.910156 68.683594 136.632812 70.121094 C 135.359375 71.5625 134.144531 73.050781 132.988281 74.589844 C 131.832031 76.128906 130.738281 77.710938 129.710938 79.335938 C 128.679688 80.960938 127.71875 82.625 126.820312 84.328125 C 125.925781 86.03125 125.101562 87.765625 124.34375 89.535156 C 120.585938 88.792969 116.789062 88.410156 112.957031 88.390625 C 110.945312 88.390625 108.9375 88.488281 106.9375 88.683594 C 104.933594 88.882812 102.945312 89.175781 100.972656 89.570312 C 99 89.960938 97.050781 90.449219 95.125 91.035156 C 93.199219 91.617188 91.308594 92.296875 89.449219 93.066406 C 87.589844 93.835938 85.773438 94.695312 84 95.644531 C 82.226562 96.589844 80.5 97.625 78.828125 98.742188 C 77.15625 99.859375 75.542969 101.058594 73.988281 102.332031 C 72.429688 103.609375 70.941406 104.960938 69.519531 106.382812 C 68.097656 107.804688 66.746094 109.292969 65.472656 110.847656 C 64.195312 112.402344 62.996094 114.019531 61.878906 115.691406 C 60.761719 117.363281 59.730469 119.085938 58.78125 120.863281 C 57.832031 122.636719 56.972656 124.453125 56.203125 126.3125 C 55.433594 128.171875 54.753906 130.0625 54.171875 131.988281 C 53.585938 133.914062 53.097656 135.863281 52.707031 137.835938 C 52.316406 139.808594 52.019531 141.796875 51.824219 143.800781 C 51.625 145.800781 51.527344 147.808594 51.527344 149.820312 C 51.527344 151.832031 51.625 153.839844 51.824219 155.84375 C 52.019531 157.84375 52.316406 159.832031 52.707031 161.804688 C 53.097656 163.777344 53.585938 165.726562 54.171875 167.652344 C 54.753906 169.578125 55.433594 171.472656 56.203125 173.328125 C 56.972656 175.1875 57.832031 177.003906 58.78125 178.777344 C 59.730469 180.554688 60.761719 182.277344 61.878906 183.949219 C 62.996094 185.625 64.195312 187.238281 65.472656 188.792969 C 66.746094 190.347656 68.097656 191.835938 69.519531 193.257812 C 70.941406 194.683594 72.429688 196.03125 73.988281 197.308594 C 75.542969 198.585938 77.15625 199.78125 78.828125 200.898438 C 80.5 202.015625 82.226562 203.050781 84 204 C 85.773438 204.945312 87.589844 205.804688 89.449219 206.574219 C 91.308594 207.347656 93.199219 208.023438 95.125 208.605469 C 97.050781 209.191406 99 209.679688 100.972656 210.070312 C 102.945312 210.464844 104.933594 210.757812 106.9375 210.957031 C 108.9375 211.152344 110.945312 211.253906 112.957031 211.253906 L 152.355469 211.253906 C 155.324219 215.226562 158.871094 218.582031 163.003906 221.328125 L 140.480469 241.722656 L 72.660156 241.722656 C 72.546875 241.191406 72.421875 240.664062 72.28125 240.136719 C 72.136719 239.613281 71.980469 239.09375 71.804688 238.582031 C 71.628906 238.066406 71.441406 237.558594 71.234375 237.054688 C 71.027344 236.550781 70.808594 236.054688 70.570312 235.566406 C 70.335938 235.078125 70.085938 234.597656 69.820312 234.121094 C 69.554688 233.648438 69.277344 233.183594 68.980469 232.726562 C 68.6875 232.269531 68.378906 231.824219 68.058594 231.382812 C 67.738281 230.945312 67.402344 230.519531 67.054688 230.101562 C 66.707031 229.683594 66.347656 229.277344 65.976562 228.882812 C 65.605469 228.484375 65.21875 228.101562 64.824219 227.730469 C 64.429688 227.359375 64.023438 227 63.605469 226.652344 C 63.1875 226.304688 62.757812 225.972656 62.320312 225.648438 C 61.882812 225.328125 61.433594 225.023438 60.976562 224.730469 C 60.519531 224.433594 60.054688 224.15625 59.582031 223.890625 C 59.105469 223.625 58.625 223.375 58.136719 223.140625 C 57.644531 222.90625 57.148438 222.683594 56.648438 222.480469 C 56.144531 222.273438 55.636719 222.085938 55.121094 221.910156 C 54.605469 221.738281 54.085938 221.578125 53.5625 221.4375 C 53.039062 221.292969 52.511719 221.167969 51.976562 221.058594 C 51.445312 220.949219 50.910156 220.855469 50.375 220.777344 C 49.835938 220.699219 49.296875 220.640625 48.753906 220.597656 C 48.214844 220.550781 47.671875 220.523438 47.128906 220.511719 C 46.585938 220.503906 46.042969 220.507812 45.5 220.53125 C 44.957031 220.550781 44.417969 220.589844 43.875 220.648438 C 43.335938 220.703125 42.796875 220.773438 42.261719 220.863281 C 41.726562 220.949219 41.195312 221.054688 40.664062 221.175781 C 40.132812 221.296875 39.609375 221.433594 39.089844 221.585938 C 38.566406 221.742188 38.050781 221.910156 37.539062 222.09375 C 37.03125 222.28125 36.523438 222.480469 36.027344 222.695312 C 35.527344 222.910156 35.035156 223.140625 34.550781 223.386719 C 34.066406 223.632812 33.589844 223.894531 33.121094 224.167969 C 32.652344 224.441406 32.195312 224.730469 31.742188 225.035156 C 31.292969 225.335938 30.851562 225.652344 30.421875 225.984375 C 29.988281 226.3125 29.566406 226.65625 29.15625 227.011719 C 28.746094 227.367188 28.347656 227.734375 27.960938 228.117188 C 27.574219 228.496094 27.195312 228.886719 26.832031 229.292969 C 26.46875 229.695312 26.117188 230.109375 25.777344 230.53125 C 25.441406 230.957031 25.113281 231.390625 24.804688 231.835938 C 24.492188 232.28125 24.191406 232.734375 23.910156 233.199219 C 23.625 233.660156 23.355469 234.132812 23.097656 234.613281 C 22.84375 235.089844 22.601562 235.578125 22.378906 236.070312 C 22.152344 236.566406 21.941406 237.066406 21.746094 237.574219 C 21.550781 238.078125 21.371094 238.59375 21.210938 239.109375 C 21.046875 239.628906 20.898438 240.152344 20.765625 240.675781 C 20.636719 241.203125 20.519531 241.734375 20.421875 242.269531 C 20.320312 242.804688 20.238281 243.339844 20.171875 243.878906 C 20.105469 244.417969 20.054688 244.957031 20.023438 245.5 C 19.988281 246.042969 19.972656 246.585938 19.972656 247.128906 C 19.972656 247.671875 19.988281 248.214844 20.023438 248.757812 C 20.054688 249.296875 20.105469 249.839844 20.171875 250.378906 C 20.238281 250.917969 20.320312 251.453125 20.421875 251.988281 C 20.519531 252.523438 20.636719 253.050781 20.765625 253.578125 C 20.898438 254.105469 21.046875 254.628906 21.210938 255.144531 C 21.371094 255.664062 21.550781 256.175781 21.746094 256.683594 C 21.941406 257.191406 22.152344 257.691406 22.378906 258.183594 C 22.601562 258.679688 22.84375 259.164062 23.097656 259.644531 C 23.355469 260.125 23.625 260.59375 23.910156 261.058594 C 24.191406 261.519531 24.492188 261.976562 24.804688 262.417969 C 25.113281 262.863281 25.441406 263.296875 25.777344 263.722656 C 26.117188 264.148438 26.46875 264.5625 26.832031 264.964844 C 27.195312 265.367188 27.574219 265.761719 27.960938 266.140625 C 28.347656 266.519531 28.746094 266.886719 29.15625 267.242188 C 29.566406 267.601562 29.988281 267.941406 30.421875 268.273438 C 30.851562 268.601562 31.292969 268.917969 31.742188 269.222656 C 32.195312 269.523438 32.652344 269.8125 33.121094 270.089844 C 33.589844 270.363281 34.066406 270.625 34.550781 270.871094 C 35.035156 271.113281 35.527344 271.347656 36.027344 271.5625 C 36.523438 271.777344 37.03125 271.976562 37.539062 272.160156 C 38.050781 272.347656 38.566406 272.515625 39.089844 272.667969 C 39.609375 272.820312 40.132812 272.957031 40.664062 273.078125 C 41.191406 273.199219 41.726562 273.304688 42.261719 273.394531 C 42.796875 273.480469 43.335938 273.554688 43.875 273.609375 C 44.417969 273.664062 44.957031 273.703125 45.5 273.726562 C 46.042969 273.75 46.585938 273.753906 47.128906 273.742188 C 47.671875 273.730469 48.214844 273.703125 48.753906 273.660156 C 49.296875 273.617188 49.835938 273.554688 50.375 273.480469 C 50.910156 273.402344 51.445312 273.308594 51.976562 273.199219 C 52.511719 273.089844 53.039062 272.960938 53.5625 272.820312 C 54.085938 272.679688 54.605469 272.519531 55.121094 272.347656 C 55.636719 272.171875 56.144531 271.980469 56.648438 271.777344 C 57.148438 271.570312 57.644531 271.351562 58.136719 271.117188 C 58.625 270.882812 59.105469 270.628906 59.582031 270.367188 C 60.054688 270.101562 60.519531 269.820312 60.976562 269.527344 C 61.433594 269.234375 61.882812 268.925781 62.320312 268.605469 C 62.757812 268.285156 63.1875 267.953125 63.605469 267.605469 C 64.023438 267.257812 64.429688 266.898438 64.824219 266.527344 C 65.21875 266.152344 65.605469 265.769531 65.976562 265.375 C 66.347656 264.980469 66.707031 264.574219 67.054688 264.15625 C 67.402344 263.738281 67.738281 263.308594 68.058594 262.871094 C 68.378906 262.433594 68.6875 261.988281 68.980469 261.53125 C 69.277344 261.074219 69.554688 260.609375 69.820312 260.132812 C 70.085938 259.660156 70.335938 259.179688 70.570312 258.6875 C 70.808594 258.199219 71.027344 257.703125 71.234375 257.203125 C 71.441406 256.699219 71.628906 256.191406 71.804688 255.675781 C 71.980469 255.160156 72.136719 254.640625 72.28125 254.117188 C 72.421875 253.59375 72.546875 253.066406 72.660156 252.535156 L 142.855469 252.535156 C 144.234375 252.53125 145.433594 252.066406 146.457031 251.140625 L 173.734375 226.570312 C 176.398438 227.480469 179.128906 228.105469 181.925781 228.453125 L 181.925781 277.597656 L 144.820312 291.523438 C 144.558594 291.066406 144.28125 290.617188 143.992188 290.179688 C 143.699219 289.738281 143.398438 289.308594 143.082031 288.886719 C 142.765625 288.46875 142.4375 288.054688 142.09375 287.652344 C 141.753906 287.253906 141.402344 286.863281 141.039062 286.480469 C 140.671875 286.101562 140.296875 285.730469 139.910156 285.375 C 139.523438 285.015625 139.128906 284.671875 138.71875 284.335938 C 138.3125 284.003906 137.894531 283.679688 137.46875 283.371094 C 137.042969 283.0625 136.605469 282.769531 136.164062 282.484375 C 135.71875 282.203125 135.265625 281.933594 134.804688 281.679688 C 134.34375 281.421875 133.878906 281.179688 133.402344 280.953125 C 132.925781 280.726562 132.445312 280.511719 131.957031 280.316406 C 131.46875 280.117188 130.976562 279.933594 130.476562 279.765625 C 129.980469 279.59375 129.476562 279.441406 128.96875 279.304688 C 128.457031 279.164062 127.945312 279.042969 127.429688 278.933594 C 126.914062 278.824219 126.398438 278.734375 125.875 278.65625 C 125.355469 278.582031 124.832031 278.519531 124.308594 278.472656 C 123.78125 278.429688 123.257812 278.398438 122.730469 278.386719 C 122.203125 278.371094 121.679688 278.375 121.152344 278.390625 C 120.625 278.410156 120.101562 278.445312 119.574219 278.492188 C 119.050781 278.542969 118.527344 278.609375 118.007812 278.691406 C 117.488281 278.769531 116.96875 278.867188 116.457031 278.980469 C 115.941406 279.089844 115.429688 279.21875 114.921875 279.363281 C 114.417969 279.503906 113.914062 279.664062 113.417969 279.835938 C 112.917969 280.007812 112.425781 280.195312 111.941406 280.398438 C 111.453125 280.601562 110.976562 280.816406 110.503906 281.050781 C 110.027344 281.28125 109.5625 281.527344 109.105469 281.785156 C 108.644531 282.042969 108.195312 282.316406 107.753906 282.605469 C 107.3125 282.890625 106.878906 283.191406 106.453125 283.5 C 106.03125 283.8125 105.617188 284.140625 105.210938 284.476562 C 104.808594 284.8125 104.414062 285.164062 104.03125 285.523438 C 103.648438 285.886719 103.273438 286.257812 102.914062 286.640625 C 102.550781 287.023438 102.203125 287.417969 101.867188 287.820312 C 101.527344 288.226562 101.203125 288.640625 100.890625 289.0625 C 100.578125 289.488281 100.277344 289.921875 99.992188 290.363281 C 99.703125 290.804688 99.433594 291.253906 99.171875 291.714844 C 98.914062 292.171875 98.667969 292.636719 98.433594 293.109375 C 98.203125 293.582031 97.988281 294.0625 97.785156 294.550781 C 97.582031 295.035156 97.394531 295.527344 97.21875 296.023438 C 97.046875 296.523438 96.890625 297.023438 96.746094 297.53125 C 96.601562 298.039062 96.476562 298.546875 96.363281 299.0625 C 96.25 299.578125 96.152344 300.09375 96.074219 300.617188 C 95.992188 301.136719 95.925781 301.65625 95.875 302.183594 C 95.828125 302.707031 95.792969 303.230469 95.773438 303.757812 C 95.753906 304.285156 95.753906 304.8125 95.765625 305.335938 C 95.78125 305.863281 95.808594 306.390625 95.855469 306.914062 C 95.898438 307.4375 95.960938 307.960938 96.035156 308.484375 C 96.113281 309.003906 96.203125 309.523438 96.3125 310.039062 C 96.417969 310.554688 96.542969 311.066406 96.679688 311.574219 C 96.820312 312.082031 96.972656 312.585938 97.140625 313.085938 C 97.308594 313.582031 97.492188 314.078125 97.691406 314.566406 C 97.890625 315.054688 98.101562 315.535156 98.328125 316.011719 C 98.558594 316.484375 98.796875 316.953125 99.054688 317.414062 C 99.308594 317.875 99.578125 318.328125 99.859375 318.773438 C 100.140625 319.214844 100.4375 319.652344 100.746094 320.078125 C 101.054688 320.503906 101.375 320.921875 101.710938 321.328125 C 102.042969 321.738281 102.390625 322.132812 102.746094 322.519531 C 103.105469 322.90625 103.472656 323.285156 103.855469 323.648438 C 104.234375 324.011719 104.625 324.367188 105.027344 324.707031 C 105.425781 325.046875 105.839844 325.375 106.261719 325.691406 C 106.679688 326.007812 107.109375 326.3125 107.550781 326.601562 C 107.988281 326.894531 108.4375 327.171875 108.894531 327.433594 C 109.347656 327.695312 109.8125 327.945312 110.285156 328.183594 C 110.753906 328.417969 111.234375 328.640625 111.71875 328.847656 C 112.203125 329.054688 112.691406 329.246094 113.1875 329.421875 C 113.683594 329.601562 114.183594 329.761719 114.6875 329.910156 C 115.195312 330.058594 115.703125 330.191406 116.21875 330.308594 C 116.730469 330.425781 117.25 330.527344 117.769531 330.609375 C 118.289062 330.695312 118.808594 330.765625 119.332031 330.820312 C 119.855469 330.875 120.382812 330.914062 120.910156 330.9375 C 121.433594 330.960938 121.960938 330.96875 122.488281 330.957031 C 123.015625 330.949219 123.539062 330.925781 124.066406 330.886719 C 124.589844 330.84375 125.113281 330.789062 125.636719 330.71875 C 126.15625 330.644531 126.675781 330.558594 127.191406 330.453125 C 127.710938 330.351562 128.222656 330.234375 128.730469 330.097656 C 129.242188 329.964844 129.746094 329.816406 130.246094 329.652344 C 130.746094 329.488281 131.242188 329.308594 131.730469 329.117188 C 132.222656 328.921875 132.703125 328.714844 133.183594 328.488281 C 133.660156 328.265625 134.128906 328.03125 134.59375 327.777344 C 135.054688 327.527344 135.511719 327.261719 135.957031 326.984375 C 136.402344 326.707031 136.84375 326.414062 137.273438 326.109375 C 137.699219 325.804688 138.121094 325.488281 138.53125 325.15625 C 138.941406 324.824219 139.34375 324.484375 139.730469 324.128906 C 140.121094 323.777344 140.5 323.410156 140.867188 323.03125 C 141.234375 322.65625 141.59375 322.269531 141.9375 321.871094 C 142.28125 321.472656 142.613281 321.0625 142.933594 320.644531 C 143.253906 320.226562 143.5625 319.800781 143.855469 319.363281 C 144.148438 318.925781 144.429688 318.480469 144.699219 318.027344 C 144.964844 317.574219 145.21875 317.113281 145.460938 316.644531 C 145.699219 316.175781 145.925781 315.699219 146.136719 315.214844 C 146.347656 314.734375 146.542969 314.246094 146.726562 313.75 C 146.90625 313.257812 147.074219 312.757812 147.226562 312.253906 C 147.378906 311.75 147.515625 311.242188 147.636719 310.726562 C 147.757812 310.214844 147.863281 309.699219 147.953125 309.179688 C 148.042969 308.660156 148.117188 308.140625 148.179688 307.617188 C 148.238281 307.09375 148.28125 306.570312 148.308594 306.042969 C 148.335938 305.515625 148.347656 304.992188 148.34375 304.464844 C 148.386719 303.589844 148.386719 302.71875 148.34375 301.84375 L 187.578125 287.589844 L 226.730469 301.84375 C 226.683594 302.71875 226.683594 303.589844 226.730469 304.464844 C 226.746094 305.003906 226.78125 305.539062 226.828125 306.074219 C 226.878906 306.609375 226.945312 307.144531 227.027344 307.675781 C 227.109375 308.207031 227.207031 308.734375 227.320312 309.261719 C 227.433594 309.789062 227.5625 310.308594 227.707031 310.828125 C 227.851562 311.347656 228.011719 311.859375 228.1875 312.367188 C 228.363281 312.875 228.554688 313.378906 228.761719 313.875 C 228.96875 314.371094 229.191406 314.863281 229.425781 315.347656 C 229.660156 315.828125 229.910156 316.304688 230.175781 316.773438 C 230.441406 317.242188 230.71875 317.703125 231.011719 318.15625 C 231.304688 318.605469 231.609375 319.050781 231.929688 319.480469 C 232.246094 319.914062 232.578125 320.339844 232.921875 320.753906 C 233.265625 321.164062 233.625 321.566406 233.992188 321.960938 C 234.359375 322.351562 234.742188 322.730469 235.132812 323.101562 C 235.523438 323.46875 235.925781 323.828125 236.339844 324.171875 C 236.753906 324.515625 237.175781 324.847656 237.609375 325.167969 C 238.042969 325.484375 238.484375 325.792969 238.9375 326.085938 C 239.386719 326.378906 239.847656 326.65625 240.316406 326.921875 C 240.785156 327.1875 241.257812 327.4375 241.742188 327.671875 C 242.226562 327.910156 242.714844 328.128906 243.214844 328.335938 C 243.710938 328.542969 244.210938 328.734375 244.722656 328.910156 C 245.230469 329.085938 245.742188 329.25 246.261719 329.394531 C 246.777344 329.539062 247.300781 329.667969 247.824219 329.78125 C 248.351562 329.898438 248.878906 329.996094 249.410156 330.078125 C 249.945312 330.160156 250.476562 330.226562 251.011719 330.273438 C 251.546875 330.324219 252.085938 330.359375 252.625 330.375 C 253.160156 330.394531 253.699219 330.394531 254.238281 330.378906 C 254.773438 330.367188 255.3125 330.335938 255.847656 330.289062 C 256.382812 330.238281 256.917969 330.175781 257.449219 330.097656 C 257.980469 330.019531 258.511719 329.921875 259.035156 329.8125 C 259.5625 329.699219 260.085938 329.574219 260.605469 329.429688 C 261.125 329.289062 261.636719 329.128906 262.144531 328.957031 C 262.65625 328.78125 263.160156 328.59375 263.65625 328.390625 C 264.15625 328.1875 264.644531 327.96875 265.128906 327.734375 C 265.613281 327.5 266.09375 327.25 266.5625 326.988281 C 267.03125 326.726562 267.492188 326.449219 267.945312 326.160156 C 268.398438 325.871094 268.84375 325.566406 269.277344 325.25 C 269.710938 324.933594 270.136719 324.601562 270.550781 324.261719 C 270.96875 323.917969 271.371094 323.5625 271.765625 323.195312 C 272.15625 322.828125 272.539062 322.453125 272.910156 322.0625 C 273.28125 321.671875 273.640625 321.269531 273.988281 320.859375 C 274.332031 320.449219 274.667969 320.027344 274.988281 319.59375 C 275.308594 319.164062 275.617188 318.722656 275.910156 318.273438 C 276.207031 317.820312 276.488281 317.363281 276.753906 316.894531 C 277.019531 316.429688 277.273438 315.953125 277.511719 315.472656 C 277.75 314.988281 277.972656 314.5 278.183594 314.003906 C 278.390625 313.507812 278.585938 313.007812 278.765625 312.5 C 278.941406 311.992188 279.105469 311.480469 279.253906 310.960938 C 279.402344 310.445312 279.535156 309.925781 279.648438 309.398438 C 279.765625 308.875 279.867188 308.34375 279.953125 307.8125 C 280.035156 307.28125 280.105469 306.75 280.15625 306.214844 C 280.210938 305.679688 280.246094 305.140625 280.265625 304.605469 C 280.285156 304.066406 280.289062 303.527344 280.277344 302.992188 C 280.265625 302.453125 280.234375 301.917969 280.191406 301.378906 C 280.148438 300.84375 280.085938 300.308594 280.007812 299.777344 C 279.933594 299.246094 279.839844 298.714844 279.730469 298.1875 C 279.621094 297.660156 279.496094 297.136719 279.355469 296.617188 C 279.214844 296.101562 279.058594 295.585938 278.890625 295.074219 C 278.71875 294.566406 278.53125 294.0625 278.328125 293.5625 C 278.128906 293.0625 277.910156 292.570312 277.679688 292.085938 C 277.449219 291.601562 277.203125 291.121094 276.941406 290.652344 C 276.683594 290.179688 276.40625 289.71875 276.121094 289.261719 C 275.832031 288.808594 275.53125 288.363281 275.214844 287.925781 C 274.898438 287.492188 274.574219 287.0625 274.230469 286.648438 C 273.890625 286.230469 273.539062 285.824219 273.171875 285.429688 C 272.808594 285.035156 272.429688 284.652344 272.042969 284.277344 C 271.65625 283.90625 271.257812 283.546875 270.847656 283.199219 C 270.4375 282.847656 270.015625 282.511719 269.585938 282.191406 C 269.15625 281.867188 268.714844 281.558594 268.265625 281.261719 C 267.820312 280.964844 267.359375 280.679688 266.894531 280.414062 C 266.429688 280.144531 265.957031 279.886719 265.472656 279.648438 C 264.992188 279.40625 264.503906 279.183594 264.011719 278.96875 C 263.515625 278.757812 263.015625 278.5625 262.507812 278.382812 C 262 278.203125 261.488281 278.035156 260.972656 277.886719 C 260.457031 277.734375 259.9375 277.601562 259.410156 277.484375 C 258.886719 277.363281 258.359375 277.261719 257.828125 277.175781 C 257.296875 277.085938 256.765625 277.015625 256.230469 276.960938 C 255.695312 276.90625 255.15625 276.867188 254.621094 276.84375 C 254.082031 276.824219 253.542969 276.816406 253.007812 276.828125 C 252.46875 276.835938 251.929688 276.863281 251.394531 276.90625 C 250.859375 276.945312 250.324219 277.003906 249.792969 277.078125 C 249.257812 277.15625 248.726562 277.246094 248.199219 277.351562 C 247.671875 277.457031 247.148438 277.578125 246.628906 277.71875 C 246.109375 277.855469 245.59375 278.007812 245.082031 278.179688 C 244.574219 278.347656 244.066406 278.53125 243.570312 278.730469 C 243.070312 278.929688 242.574219 279.144531 242.089844 279.375 C 241.601562 279.605469 241.121094 279.847656 240.652344 280.105469 C 240.179688 280.363281 239.714844 280.636719 239.257812 280.921875 C 238.804688 281.207031 238.355469 281.507812 237.917969 281.820312 C 237.480469 282.132812 237.054688 282.457031 236.636719 282.796875 C 236.21875 283.136719 235.808594 283.488281 235.414062 283.851562 C 235.015625 284.214844 234.632812 284.589844 234.257812 284.976562 C 233.882812 285.363281 233.519531 285.757812 233.171875 286.167969 C 232.820312 286.574219 232.484375 286.996094 232.15625 287.421875 C 231.832031 287.851562 231.519531 288.289062 231.222656 288.738281 C 230.921875 289.183594 230.636719 289.640625 230.367188 290.105469 C 230.097656 290.570312 229.839844 291.042969 229.597656 291.523438 L 192.574219 278.089844 L 192.574219 228.945312 C 195.371094 228.613281 198.101562 227.984375 200.765625 227.0625 L 228.121094 251.632812 C 229.144531 252.558594 230.347656 253.019531 231.726562 253.027344 L 301.757812 253.027344 C 301.925781 253.84375 302.132812 254.648438 302.378906 255.445312 C 302.625 256.242188 302.90625 257.023438 303.226562 257.796875 C 303.542969 258.566406 303.898438 259.320312 304.285156 260.054688 C 304.675781 260.792969 305.097656 261.511719 305.554688 262.207031 C 306.011719 262.90625 306.5 263.578125 307.019531 264.230469 C 307.542969 264.882812 308.089844 265.507812 308.667969 266.105469 C 309.25 266.707031 309.855469 267.277344 310.488281 267.820312 C 311.121094 268.363281 311.777344 268.875 312.457031 269.355469 C 313.136719 269.835938 313.839844 270.285156 314.5625 270.703125 C 315.285156 271.117188 316.023438 271.496094 316.785156 271.84375 C 317.542969 272.1875 318.316406 272.496094 319.101562 272.769531 C 319.890625 273.042969 320.6875 273.28125 321.496094 273.476562 C 322.308594 273.675781 323.125 273.835938 323.949219 273.957031 C 324.773438 274.078125 325.601562 274.160156 326.433594 274.203125 C 327.265625 274.246094 328.101562 274.25 328.933594 274.21875 C 329.765625 274.183594 330.59375 274.109375 331.421875 273.996094 C 332.246094 273.882812 333.066406 273.730469 333.878906 273.542969 C 334.6875 273.351562 335.488281 273.125 336.28125 272.859375 C 337.070312 272.597656 337.847656 272.296875 338.609375 271.957031 C 339.371094 271.621094 340.113281 271.246094 340.84375 270.839844 C 341.570312 270.433594 342.277344 269.992188 342.960938 269.515625 C 343.648438 269.042969 344.308594 268.539062 344.945312 268 C 345.585938 267.464844 346.195312 266.902344 346.78125 266.308594 C 347.367188 265.714844 347.921875 265.09375 348.449219 264.449219 C 348.976562 263.800781 349.472656 263.132812 349.9375 262.441406 C 350.402344 261.75 350.832031 261.035156 351.226562 260.304688 C 351.625 259.570312 351.988281 258.820312 352.3125 258.054688 C 352.640625 257.285156 352.929688 256.507812 353.183594 255.710938 C 353.4375 254.917969 353.652344 254.113281 353.832031 253.300781 C 354.007812 252.484375 354.148438 251.664062 354.25 250.835938 C 354.347656 250.007812 354.410156 249.179688 354.433594 248.347656 C 354.457031 247.511719 354.441406 246.679688 354.386719 245.847656 C 354.328125 245.015625 354.234375 244.191406 354.101562 243.367188 C 353.96875 242.542969 353.796875 241.730469 353.585938 240.921875 C 353.378906 240.117188 353.132812 239.320312 352.847656 238.539062 C 352.5625 237.753906 352.242188 236.984375 351.886719 236.230469 C 351.527344 235.476562 351.136719 234.742188 350.710938 234.027344 C 350.285156 233.308594 349.828125 232.613281 349.335938 231.941406 C 348.847656 231.269531 348.324219 230.617188 347.773438 229.992188 C 347.222656 229.371094 346.640625 228.773438 346.03125 228.203125 C 345.425781 227.632812 344.792969 227.089844 344.132812 226.582031 C 343.472656 226.070312 342.792969 225.589844 342.089844 225.144531 C 341.386719 224.699219 340.664062 224.285156 339.917969 223.90625 C 339.175781 223.527344 338.417969 223.183594 337.644531 222.878906 C 336.871094 222.570312 336.082031 222.300781 335.28125 222.066406 C 334.480469 221.832031 333.671875 221.636719 332.855469 221.480469 C 332.035156 221.320312 331.210938 221.203125 330.382812 221.121094 C 329.550781 221.042969 328.71875 221 327.886719 221 Z M 252.777344 319.863281 C 252.253906 319.867188 251.734375 319.84375 251.214844 319.792969 C 250.695312 319.746094 250.179688 319.671875 249.667969 319.574219 C 249.15625 319.472656 248.648438 319.347656 248.152344 319.199219 C 247.652344 319.050781 247.160156 318.878906 246.675781 318.679688 C 246.195312 318.480469 245.722656 318.261719 245.261719 318.015625 C 244.800781 317.773438 244.351562 317.507812 243.917969 317.21875 C 243.484375 316.929688 243.0625 316.621094 242.660156 316.292969 C 242.253906 315.964844 241.867188 315.617188 241.496094 315.246094 C 241.128906 314.878906 240.777344 314.496094 240.445312 314.09375 C 240.113281 313.691406 239.800781 313.273438 239.507812 312.839844 C 239.21875 312.40625 238.949219 311.960938 238.703125 311.503906 C 238.453125 311.042969 238.230469 310.574219 238.03125 310.09375 C 237.828125 309.609375 237.652344 309.121094 237.5 308.621094 C 237.347656 308.121094 237.21875 307.617188 237.117188 307.105469 C 237.011719 306.59375 236.9375 306.082031 236.882812 305.5625 C 236.832031 305.042969 236.804688 304.523438 236.804688 304 C 236.804688 303.480469 236.828125 302.957031 236.878906 302.4375 C 236.929688 301.921875 237.003906 301.40625 237.105469 300.894531 C 237.207031 300.382812 237.332031 299.875 237.484375 299.375 C 237.632812 298.878906 237.808594 298.386719 238.007812 297.90625 C 238.207031 297.421875 238.429688 296.953125 238.675781 296.492188 C 238.921875 296.03125 239.1875 295.585938 239.480469 295.152344 C 239.769531 294.71875 240.078125 294.296875 240.410156 293.894531 C 240.738281 293.492188 241.089844 293.105469 241.457031 292.738281 C 241.828125 292.367188 242.214844 292.019531 242.617188 291.6875 C 243.019531 291.355469 243.4375 291.046875 243.871094 290.757812 C 244.304688 290.46875 244.753906 290.199219 245.214844 289.953125 C 245.671875 289.707031 246.144531 289.488281 246.625 289.289062 C 247.109375 289.089844 247.597656 288.914062 248.097656 288.761719 C 248.597656 288.609375 249.101562 288.484375 249.613281 288.382812 C 250.125 288.28125 250.640625 288.207031 251.160156 288.15625 C 251.679688 288.105469 252.199219 288.082031 252.722656 288.082031 C 253.242188 288.082031 253.765625 288.109375 254.28125 288.164062 C 254.800781 288.214844 255.316406 288.292969 255.828125 288.394531 C 256.339844 288.496094 256.84375 288.625 257.34375 288.777344 C 257.84375 288.929688 258.332031 289.105469 258.8125 289.308594 C 259.292969 289.507812 259.765625 289.734375 260.222656 289.980469 C 260.683594 290.226562 261.128906 290.496094 261.5625 290.789062 C 261.996094 291.078125 262.414062 291.390625 262.816406 291.722656 C 263.21875 292.054688 263.601562 292.40625 263.96875 292.777344 C 264.335938 293.144531 264.683594 293.53125 265.015625 293.9375 C 265.34375 294.339844 265.652344 294.761719 265.941406 295.195312 C 266.230469 295.628906 266.496094 296.078125 266.738281 296.539062 C 266.984375 297 267.203125 297.472656 267.402344 297.957031 C 267.597656 298.4375 267.773438 298.929688 267.921875 299.429688 C 268.070312 299.929688 268.195312 300.433594 268.292969 300.945312 C 268.394531 301.457031 268.46875 301.972656 268.515625 302.492188 C 268.566406 303.011719 268.585938 303.535156 268.585938 304.054688 C 268.578125 305.089844 268.472656 306.117188 268.269531 307.132812 C 268.0625 308.148438 267.757812 309.136719 267.359375 310.09375 C 266.960938 311.046875 266.472656 311.957031 265.894531 312.816406 C 265.320312 313.679688 264.664062 314.476562 263.929688 315.210938 C 263.199219 315.941406 262.402344 316.597656 261.539062 317.175781 C 260.679688 317.75 259.769531 318.238281 258.8125 318.636719 C 257.855469 319.039062 256.871094 319.339844 255.855469 319.546875 C 254.839844 319.753906 253.8125 319.859375 252.777344 319.863281 Z M 46.613281 231.320312 C 47.648438 231.320312 48.679688 231.421875 49.695312 231.625 C 50.714844 231.824219 51.703125 232.125 52.660156 232.523438 C 53.621094 232.921875 54.53125 233.40625 55.394531 233.984375 C 56.257812 234.5625 57.054688 235.214844 57.789062 235.949219 C 58.523438 236.683594 59.179688 237.484375 59.757812 238.34375 C 60.332031 239.207031 60.820312 240.121094 61.21875 241.078125 C 61.613281 242.039062 61.914062 243.027344 62.117188 244.042969 C 62.320312 245.0625 62.421875 246.089844 62.421875 247.128906 C 62.421875 248.167969 62.320312 249.195312 62.117188 250.210938 C 61.914062 251.230469 61.613281 252.21875 61.21875 253.179688 C 60.820312 254.136719 60.332031 255.046875 59.757812 255.910156 C 59.179688 256.773438 58.523438 257.574219 57.789062 258.304688 C 57.054688 259.039062 56.257812 259.695312 55.394531 260.273438 C 54.53125 260.847656 53.621094 261.335938 52.660156 261.734375 C 51.703125 262.128906 50.714844 262.429688 49.695312 262.632812 C 48.679688 262.835938 47.648438 262.9375 46.613281 262.9375 C 45.574219 262.9375 44.546875 262.835938 43.527344 262.632812 C 42.511719 262.429688 41.519531 262.128906 40.5625 261.734375 C 39.601562 261.335938 38.691406 260.847656 37.828125 260.273438 C 36.964844 259.695312 36.167969 259.039062 35.433594 258.304688 C 34.699219 257.574219 34.042969 256.773438 33.46875 255.910156 C 32.890625 255.046875 32.402344 254.136719 32.007812 253.179688 C 31.609375 252.21875 31.308594 251.230469 31.109375 250.210938 C 30.90625 249.195312 30.804688 248.167969 30.804688 247.128906 C 30.804688 246.089844 30.90625 245.0625 31.109375 244.042969 C 31.308594 243.027344 31.609375 242.039062 32.007812 241.078125 C 32.402344 240.121094 32.890625 239.207031 33.46875 238.34375 C 34.042969 237.484375 34.699219 236.683594 35.433594 235.949219 C 36.167969 235.214844 36.964844 234.5625 37.828125 233.984375 C 38.691406 233.40625 39.601562 232.921875 40.5625 232.523438 C 41.519531 232.125 42.511719 231.824219 43.527344 231.625 C 44.546875 231.421875 45.574219 231.320312 46.613281 231.320312 Z M 159.238281 202.652344 C 158.5 201.523438 157.847656 200.347656 157.269531 199.128906 C 157.257812 198.910156 157.257812 198.691406 157.269531 198.472656 C 156.644531 197.148438 156.125 195.785156 155.714844 194.378906 C 155.683594 194.242188 155.683594 194.105469 155.714844 193.96875 C 155.316406 192.742188 155.042969 191.484375 154.894531 190.203125 C 154.851562 189.847656 154.851562 189.492188 154.894531 189.136719 C 154.773438 187.71875 154.773438 186.296875 154.894531 184.878906 C 154.894531 183.796875 154.949219 182.71875 155.054688 181.640625 C 155.160156 180.566406 155.320312 179.5 155.53125 178.4375 C 155.742188 177.378906 156.003906 176.332031 156.316406 175.296875 C 156.628906 174.261719 156.996094 173.246094 157.40625 172.246094 C 157.820312 171.246094 158.285156 170.269531 158.792969 169.316406 C 159.304688 168.363281 159.859375 167.4375 160.457031 166.539062 C 161.058594 165.640625 161.703125 164.773438 162.386719 163.9375 C 163.074219 163.101562 163.800781 162.300781 164.5625 161.535156 C 165.328125 160.773438 166.128906 160.046875 166.964844 159.359375 C 167.800781 158.675781 168.667969 158.03125 169.566406 157.429688 C 170.464844 156.832031 171.390625 156.277344 172.34375 155.765625 C 173.296875 155.257812 174.273438 154.792969 175.273438 154.382812 C 176.269531 153.96875 177.289062 153.605469 178.324219 153.289062 C 179.355469 152.976562 180.40625 152.714844 181.464844 152.503906 C 182.523438 152.292969 183.59375 152.132812 184.667969 152.027344 C 185.746094 151.921875 186.824219 151.867188 187.90625 151.867188 C 188.984375 151.867188 190.0625 151.921875 191.140625 152.027344 C 192.214844 152.132812 193.285156 152.292969 194.34375 152.503906 C 195.40625 152.714844 196.453125 152.976562 197.488281 153.289062 C 198.519531 153.605469 199.539062 153.96875 200.535156 154.382812 C 201.535156 154.792969 202.511719 155.257812 203.464844 155.765625 C 204.417969 156.277344 205.34375 156.832031 206.242188 157.429688 C 207.140625 158.03125 208.011719 158.675781 208.84375 159.359375 C 209.679688 160.046875 210.480469 160.773438 211.246094 161.535156 C 212.011719 162.300781 212.734375 163.101562 213.421875 163.9375 C 214.105469 164.773438 214.75 165.640625 215.351562 166.539062 C 215.953125 167.4375 216.507812 168.363281 217.015625 169.316406 C 217.527344 170.269531 217.988281 171.246094 218.402344 172.246094 C 218.816406 173.246094 219.179688 174.261719 219.492188 175.296875 C 219.804688 176.332031 220.070312 177.378906 220.28125 178.4375 C 220.492188 179.5 220.648438 180.566406 220.753906 181.640625 C 220.859375 182.71875 220.914062 183.796875 220.914062 184.878906 C 221 186.296875 221 187.71875 220.914062 189.136719 C 220.878906 189.492188 220.878906 189.847656 220.914062 190.203125 C 220.914062 191.511719 220.421875 192.742188 220.09375 193.96875 C 219.765625 195.199219 220.09375 193.96875 220.09375 194.378906 C 219.675781 195.769531 219.183594 197.136719 218.621094 198.472656 C 218.574219 198.691406 218.574219 198.910156 218.621094 199.128906 C 217.964844 200.359375 217.390625 201.503906 216.65625 202.652344 C 216.289062 203.238281 215.902344 203.808594 215.5 204.371094 C 215.097656 204.933594 214.679688 205.480469 214.242188 206.011719 C 213.804688 206.546875 213.347656 207.066406 212.878906 207.574219 C 212.410156 208.078125 211.921875 208.570312 211.421875 209.042969 C 210.921875 209.519531 210.40625 209.976562 209.875 210.421875 C 209.34375 210.863281 208.800781 211.289062 208.242188 211.695312 C 207.6875 212.101562 207.117188 212.492188 206.535156 212.867188 C 205.953125 213.238281 205.359375 213.589844 204.757812 213.925781 C 204.152344 214.257812 203.539062 214.574219 202.914062 214.871094 C 202.289062 215.164062 201.65625 215.441406 201.015625 215.695312 C 200.375 215.953125 199.726562 216.1875 199.070312 216.402344 C 198.414062 216.617188 197.75 216.808594 197.082031 216.984375 C 196.414062 217.15625 195.742188 217.308594 195.0625 217.4375 C 194.382812 217.566406 193.703125 217.675781 193.019531 217.761719 C 192.332031 217.851562 191.644531 217.914062 190.957031 217.960938 C 190.269531 218.003906 189.578125 218.023438 188.886719 218.023438 C 188.195312 218.023438 187.507812 218.003906 186.816406 217.960938 C 186.128906 217.914062 185.441406 217.851562 184.757812 217.761719 C 184.070312 217.675781 183.390625 217.566406 182.710938 217.4375 C 182.035156 217.308594 181.359375 217.15625 180.691406 216.984375 C 180.023438 216.808594 179.363281 216.617188 178.707031 216.402344 C 178.050781 216.1875 177.398438 215.953125 176.757812 215.695312 C 176.117188 215.441406 175.484375 215.164062 174.859375 214.871094 C 174.238281 214.574219 173.621094 214.257812 173.019531 213.925781 C 172.414062 213.589844 171.820312 213.238281 171.238281 212.867188 C 170.65625 212.492188 170.089844 212.101562 169.53125 211.695312 C 168.972656 211.289062 168.429688 210.863281 167.898438 210.421875 C 167.371094 209.976562 166.855469 209.519531 166.351562 209.042969 C 165.851562 208.570312 165.367188 208.078125 164.894531 207.574219 C 164.425781 207.066406 163.972656 206.546875 163.535156 206.011719 C 163.097656 205.480469 162.675781 204.933594 162.273438 204.371094 C 161.871094 203.808594 161.488281 203.238281 161.121094 202.652344 Z M 112.957031 99.199219 C 117.546875 99.179688 122.050781 99.78125 126.472656 101.003906 C 126.9375 101.078125 127.402344 101.078125 127.867188 101.003906 C 128.425781 101.007812 128.96875 100.925781 129.503906 100.757812 C 130.035156 100.589844 130.53125 100.34375 130.988281 100.019531 C 131.441406 99.699219 131.835938 99.3125 132.171875 98.863281 C 132.507812 98.417969 132.761719 97.929688 132.945312 97.398438 C 133.527344 95.777344 134.179688 94.1875 134.898438 92.621094 C 135.621094 91.054688 136.402344 89.523438 137.25 88.023438 C 138.101562 86.523438 139.011719 85.0625 139.980469 83.640625 C 140.953125 82.21875 141.984375 80.839844 143.070312 79.503906 C 144.160156 78.167969 145.300781 76.882812 146.496094 75.644531 C 147.695312 74.402344 148.941406 73.21875 150.238281 72.082031 C 151.535156 70.949219 152.875 69.871094 154.261719 68.851562 C 155.652344 67.832031 157.078125 66.871094 158.546875 65.96875 C 160.015625 65.070312 161.519531 64.230469 163.058594 63.457031 C 164.597656 62.683594 166.167969 61.976562 167.765625 61.335938 C 169.363281 60.695312 170.988281 60.121094 172.632812 59.617188 C 174.28125 59.113281 175.945312 58.679688 177.628906 58.316406 C 179.316406 57.953125 181.011719 57.660156 182.71875 57.4375 C 184.425781 57.21875 186.140625 57.070312 187.863281 56.992188 C 189.582031 56.917969 191.304688 56.914062 193.027344 56.980469 C 194.746094 57.050781 196.460938 57.191406 198.171875 57.40625 C 199.878906 57.621094 201.578125 57.90625 203.261719 58.261719 C 204.949219 58.617188 206.617188 59.046875 208.265625 59.542969 C 209.914062 60.039062 211.539062 60.605469 213.140625 61.242188 C 214.742188 61.875 216.3125 62.578125 217.855469 63.34375 C 219.398438 64.109375 220.90625 64.941406 222.378906 65.835938 C 223.851562 66.730469 225.28125 67.683594 226.675781 68.699219 C 228.066406 69.714844 229.414062 70.785156 230.714844 71.914062 C 232.015625 73.042969 233.265625 74.226562 234.46875 75.460938 C 235.671875 76.695312 236.816406 77.976562 237.910156 79.308594 C 239.003906 80.636719 240.039062 82.011719 241.019531 83.429688 C 241.996094 84.847656 242.910156 86.304688 243.765625 87.800781 C 244.621094 89.296875 245.410156 90.824219 246.136719 92.386719 C 246.863281 93.949219 247.519531 95.539062 248.113281 97.160156 C 248.703125 98.777344 249.226562 100.414062 249.679688 102.078125 C 250.132812 103.738281 250.515625 105.417969 250.828125 107.113281 C 251.140625 108.804688 251.378906 110.511719 251.546875 112.222656 C 251.625 113.027344 251.867188 113.777344 252.265625 114.476562 C 252.664062 115.175781 253.191406 115.761719 253.839844 116.238281 C 254.765625 116.828125 255.777344 117.128906 256.871094 117.140625 C 257.363281 117.21875 257.855469 117.21875 258.347656 117.140625 C 262.042969 116.089844 265.808594 115.570312 269.648438 115.582031 C 271.042969 115.582031 272.429688 115.652344 273.816406 115.789062 C 275.203125 115.925781 276.578125 116.128906 277.941406 116.398438 C 279.308594 116.671875 280.65625 117.007812 281.988281 117.414062 C 283.320312 117.816406 284.632812 118.285156 285.917969 118.820312 C 287.203125 119.351562 288.460938 119.945312 289.6875 120.601562 C 290.917969 121.257812 292.109375 121.972656 293.265625 122.746094 C 294.425781 123.519531 295.542969 124.347656 296.617188 125.230469 C 297.695312 126.117188 298.726562 127.050781 299.710938 128.035156 C 300.695312 129.019531 301.628906 130.046875 302.511719 131.125 C 303.394531 132.203125 304.222656 133.316406 304.996094 134.476562 C 305.769531 135.632812 306.484375 136.828125 307.140625 138.054688 C 307.796875 139.28125 308.390625 140.539062 308.925781 141.824219 C 309.457031 143.113281 309.925781 144.421875 310.328125 145.753906 C 310.734375 147.085938 311.070312 148.433594 311.34375 149.800781 C 311.613281 151.164062 311.820312 152.542969 311.957031 153.925781 C 312.09375 155.3125 312.160156 156.699219 312.160156 158.09375 C 312.160156 159.484375 312.09375 160.875 311.957031 162.261719 C 311.820312 163.644531 311.613281 165.019531 311.34375 166.386719 C 311.070312 167.753906 310.734375 169.101562 310.328125 170.433594 C 309.925781 171.765625 309.457031 173.074219 308.925781 174.363281 C 308.390625 175.648438 307.796875 176.90625 307.140625 178.132812 C 306.484375 179.359375 305.769531 180.554688 304.996094 181.710938 C 304.222656 182.867188 303.394531 183.984375 302.511719 185.0625 C 301.628906 186.136719 300.695312 187.167969 299.710938 188.152344 C 298.726562 189.136719 297.695312 190.070312 296.617188 190.953125 C 295.542969 191.835938 294.425781 192.667969 293.265625 193.441406 C 292.109375 194.214844 290.917969 194.929688 289.6875 195.585938 C 288.460938 196.242188 287.203125 196.835938 285.917969 197.367188 C 284.632812 197.902344 283.320312 198.371094 281.988281 198.773438 C 280.65625 199.179688 279.308594 199.515625 277.941406 199.789062 C 276.578125 200.058594 275.203125 200.261719 273.816406 200.398438 C 272.429688 200.535156 271.042969 200.605469 269.648438 200.605469 L 228.121094 200.605469 L 228.53125 199.375 C 228.785156 198.734375 229.003906 198.078125 229.1875 197.410156 C 229.1875 196.671875 229.597656 196.015625 229.761719 195.363281 C 229.9375 194.714844 230.074219 194.058594 230.167969 193.394531 C 230.167969 192.578125 230.167969 191.757812 230.578125 190.9375 L 230.578125 189.300781 C 230.578125 187.910156 230.578125 186.433594 230.578125 185.042969 C 230.519531 183.648438 230.390625 182.257812 230.199219 180.875 C 230.007812 179.496094 229.746094 178.125 229.425781 176.765625 C 229.101562 175.410156 228.710938 174.070312 228.261719 172.75 C 227.808594 171.429688 227.296875 170.132812 226.71875 168.863281 C 226.144531 167.589844 225.507812 166.351562 224.816406 165.140625 C 224.121094 163.929688 223.371094 162.753906 222.5625 161.613281 C 221.757812 160.476562 220.898438 159.378906 219.988281 158.320312 C 219.074219 157.261719 218.117188 156.253906 217.109375 155.285156 C 216.101562 154.320312 215.046875 153.40625 213.953125 152.542969 C 212.859375 151.675781 211.722656 150.867188 210.550781 150.109375 C 209.378906 149.351562 208.171875 148.65625 206.933594 148.011719 C 205.691406 147.371094 204.425781 146.792969 203.128906 146.269531 C 201.835938 145.75 200.519531 145.292969 199.179688 144.898438 C 197.839844 144.503906 196.484375 144.175781 195.117188 143.910156 C 193.746094 143.644531 192.367188 143.445312 190.976562 143.3125 C 189.585938 143.179688 188.195312 143.113281 186.800781 143.113281 C 185.402344 143.113281 184.011719 143.179688 182.621094 143.3125 C 181.230469 143.445312 179.851562 143.644531 178.480469 143.910156 C 177.113281 144.175781 175.757812 144.503906 174.417969 144.898438 C 173.078125 145.292969 171.761719 145.75 170.46875 146.269531 C 169.171875 146.792969 167.90625 147.371094 166.664062 148.011719 C 165.425781 148.65625 164.21875 149.351562 163.046875 150.109375 C 161.875 150.867188 160.738281 151.675781 159.644531 152.542969 C 158.550781 153.40625 157.496094 154.320312 156.488281 155.285156 C 155.480469 156.253906 154.523438 157.261719 153.609375 158.320312 C 152.699219 159.378906 151.839844 160.476562 151.035156 161.613281 C 150.226562 162.753906 149.476562 163.929688 148.78125 165.140625 C 148.089844 166.351562 147.453125 167.589844 146.878906 168.863281 C 146.304688 170.132812 145.789062 171.429688 145.335938 172.75 C 144.886719 174.070312 144.496094 175.410156 144.171875 176.765625 C 143.851562 178.125 143.589844 179.496094 143.398438 180.875 C 143.207031 182.257812 143.078125 183.648438 143.019531 185.042969 C 142.9375 186.460938 142.9375 187.882812 143.019531 189.300781 C 142.984375 189.847656 142.984375 190.394531 143.019531 190.9375 C 143.019531 191.757812 143.019531 192.578125 143.019531 193.394531 L 143.511719 195.28125 L 144 197.410156 C 144 198.066406 144.410156 198.71875 144.65625 199.375 C 144.902344 200.03125 144.65625 200.195312 145.066406 200.605469 L 112.957031 200.605469 C 111.300781 200.605469 109.644531 200.523438 107.996094 200.359375 C 106.347656 200.199219 104.707031 199.953125 103.082031 199.632812 C 101.457031 199.308594 99.851562 198.90625 98.265625 198.425781 C 96.675781 197.941406 95.117188 197.386719 93.585938 196.75 C 92.054688 196.117188 90.558594 195.410156 89.097656 194.628906 C 87.632812 193.84375 86.214844 192.996094 84.835938 192.074219 C 83.457031 191.152344 82.128906 190.164062 80.84375 189.113281 C 79.5625 188.0625 78.335938 186.949219 77.164062 185.777344 C 75.992188 184.605469 74.878906 183.378906 73.828125 182.097656 C 72.777344 180.816406 71.789062 179.484375 70.871094 178.105469 C 69.949219 176.730469 69.097656 175.308594 68.316406 173.847656 C 67.535156 172.382812 66.828125 170.886719 66.191406 169.355469 C 65.558594 167.824219 65 166.265625 64.519531 164.679688 C 64.035156 163.09375 63.632812 161.484375 63.3125 159.859375 C 62.988281 158.234375 62.746094 156.597656 62.582031 154.945312 C 62.417969 153.296875 62.339844 151.640625 62.339844 149.984375 C 62.339844 148.328125 62.417969 146.671875 62.582031 145.023438 C 62.746094 143.371094 62.988281 141.734375 63.3125 140.109375 C 63.632812 138.484375 64.035156 136.875 64.519531 135.289062 C 65 133.703125 65.558594 132.144531 66.191406 130.613281 C 66.828125 129.082031 67.535156 127.585938 68.316406 126.121094 C 69.097656 124.660156 69.949219 123.238281 70.871094 121.863281 C 71.789062 120.484375 72.777344 119.152344 73.828125 117.871094 C 74.878906 116.589844 75.992188 115.363281 77.164062 114.191406 C 78.335938 113.019531 79.5625 111.90625 80.84375 110.855469 C 82.128906 109.804688 83.457031 108.816406 84.835938 107.894531 C 86.214844 106.976562 87.632812 106.125 89.097656 105.34375 C 90.558594 104.558594 92.054688 103.851562 93.585938 103.21875 C 95.117188 102.582031 96.675781 102.027344 98.265625 101.542969 C 99.851562 101.0625 101.457031 100.660156 103.082031 100.335938 C 104.707031 100.015625 106.347656 99.769531 107.996094 99.609375 C 109.644531 99.445312 111.300781 99.363281 112.957031 99.363281 Z M 121.722656 319.863281 C 121.199219 319.867188 120.679688 319.84375 120.160156 319.792969 C 119.640625 319.746094 119.125 319.671875 118.613281 319.574219 C 118.101562 319.472656 117.597656 319.347656 117.097656 319.199219 C 116.597656 319.050781 116.105469 318.878906 115.621094 318.679688 C 115.140625 318.480469 114.667969 318.261719 114.207031 318.015625 C 113.746094 317.773438 113.296875 317.507812 112.863281 317.21875 C 112.429688 316.929688 112.007812 316.621094 111.605469 316.292969 C 111.199219 315.964844 110.8125 315.617188 110.441406 315.246094 C 110.074219 314.878906 109.722656 314.496094 109.390625 314.09375 C 109.058594 313.691406 108.746094 313.273438 108.453125 312.839844 C 108.164062 312.40625 107.894531 311.960938 107.648438 311.503906 C 107.402344 311.042969 107.175781 310.574219 106.976562 310.09375 C 106.773438 309.609375 106.597656 309.121094 106.445312 308.621094 C 106.292969 308.121094 106.164062 307.617188 106.0625 307.105469 C 105.960938 306.59375 105.882812 306.082031 105.828125 305.5625 C 105.777344 305.042969 105.75 304.523438 105.75 304 C 105.75 303.480469 105.773438 302.957031 105.824219 302.4375 C 105.875 301.921875 105.949219 301.40625 106.050781 300.894531 C 106.152344 300.382812 106.277344 299.875 106.429688 299.375 C 106.582031 298.878906 106.753906 298.386719 106.953125 297.90625 C 107.152344 297.421875 107.375 296.953125 107.621094 296.492188 C 107.867188 296.03125 108.136719 295.585938 108.425781 295.152344 C 108.714844 294.71875 109.023438 294.296875 109.355469 293.894531 C 109.6875 293.492188 110.035156 293.105469 110.40625 292.738281 C 110.773438 292.367188 111.160156 292.019531 111.5625 291.6875 C 111.964844 291.355469 112.382812 291.046875 112.816406 290.757812 C 113.253906 290.46875 113.699219 290.199219 114.160156 289.953125 C 114.621094 289.707031 115.089844 289.488281 115.574219 289.289062 C 116.054688 289.089844 116.546875 288.914062 117.042969 288.761719 C 117.542969 288.609375 118.050781 288.484375 118.5625 288.382812 C 119.074219 288.28125 119.585938 288.207031 120.105469 288.15625 C 120.625 288.105469 121.144531 288.082031 121.667969 288.082031 C 122.191406 288.082031 122.710938 288.109375 123.230469 288.164062 C 123.746094 288.214844 124.261719 288.292969 124.773438 288.394531 C 125.285156 288.496094 125.789062 288.625 126.289062 288.777344 C 126.789062 288.929688 127.277344 289.105469 127.757812 289.308594 C 128.242188 289.507812 128.710938 289.734375 129.171875 289.980469 C 129.628906 290.226562 130.074219 290.496094 130.507812 290.789062 C 130.941406 291.078125 131.359375 291.390625 131.761719 291.722656 C 132.164062 292.054688 132.546875 292.40625 132.914062 292.777344 C 133.28125 293.144531 133.632812 293.53125 133.960938 293.9375 C 134.289062 294.339844 134.597656 294.761719 134.886719 295.195312 C 135.175781 295.628906 135.441406 296.078125 135.683594 296.539062 C 135.929688 297 136.148438 297.472656 136.347656 297.957031 C 136.542969 298.4375 136.71875 298.929688 136.867188 299.429688 C 137.015625 299.929688 137.140625 300.433594 137.238281 300.945312 C 137.339844 301.457031 137.414062 301.972656 137.460938 302.492188 C 137.511719 303.011719 137.535156 303.535156 137.53125 304.054688 C 137.53125 305.09375 137.429688 306.121094 137.226562 307.140625 C 137.023438 308.15625 136.726562 309.144531 136.328125 310.105469 C 135.929688 311.0625 135.441406 311.972656 134.867188 312.835938 C 134.289062 313.699219 133.632812 314.5 132.902344 315.234375 C 132.167969 315.96875 131.367188 316.621094 130.503906 317.199219 C 129.640625 317.777344 128.730469 318.261719 127.773438 318.660156 C 126.8125 319.058594 125.824219 319.355469 124.804688 319.558594 C 123.789062 319.761719 122.761719 319.863281 121.722656 319.863281 Z M 327.886719 262.9375 C 326.847656 262.9375 325.820312 262.835938 324.800781 262.632812 C 323.785156 262.429688 322.796875 262.128906 321.835938 261.734375 C 320.878906 261.335938 319.96875 260.847656 319.105469 260.273438 C 318.242188 259.695312 317.441406 259.039062 316.707031 258.304688 C 315.972656 257.574219 315.320312 256.773438 314.742188 255.910156 C 314.164062 255.046875 313.679688 254.136719 313.28125 253.179688 C 312.882812 252.21875 312.585938 251.230469 312.382812 250.210938 C 312.179688 249.195312 312.078125 248.167969 312.078125 247.128906 C 312.078125 246.089844 312.179688 245.0625 312.382812 244.042969 C 312.585938 243.027344 312.882812 242.039062 313.28125 241.078125 C 313.679688 240.121094 314.164062 239.207031 314.742188 238.34375 C 315.320312 237.484375 315.972656 236.683594 316.707031 235.949219 C 317.441406 235.214844 318.242188 234.5625 319.105469 233.984375 C 319.96875 233.40625 320.878906 232.921875 321.835938 232.523438 C 322.796875 232.125 323.785156 231.824219 324.800781 231.625 C 325.820312 231.421875 326.847656 231.320312 327.886719 231.320312 C 328.925781 231.320312 329.953125 231.421875 330.972656 231.625 C 331.988281 231.824219 332.976562 232.125 333.9375 232.523438 C 334.894531 232.921875 335.804688 233.40625 336.667969 233.984375 C 337.53125 234.5625 338.332031 235.214844 339.066406 235.949219 C 339.800781 236.683594 340.453125 237.484375 341.03125 238.34375 C 341.609375 239.207031 342.09375 240.121094 342.492188 241.078125 C 342.890625 242.039062 343.1875 243.027344 343.390625 244.042969 C 343.59375 245.0625 343.695312 246.089844 343.695312 247.128906 C 343.691406 248.164062 343.585938 249.191406 343.378906 250.207031 C 343.171875 251.222656 342.871094 252.207031 342.46875 253.164062 C 342.070312 254.121094 341.582031 255.03125 341.007812 255.890625 C 340.429688 256.753906 339.773438 257.550781 339.042969 258.28125 C 338.308594 259.015625 337.511719 259.671875 336.648438 260.246094 C 335.789062 260.824219 334.878906 261.3125 333.921875 261.710938 C 332.96875 262.109375 331.980469 262.414062 330.964844 262.621094 C 329.949219 262.824219 328.921875 262.929688 327.886719 262.9375 Z M 327.886719 262.9375 " fill-opacity="1" fill-rule="nonzero"/></svg>