<svg width="305" height="285" viewBox="0 0 305 285" fill="none" xmlns="http://www.w3.org/2000/svg">
<path opacity="0.7" d="M189.805 285C188.366 285 186.857 284.646 185.655 283.952L1.97854 177.969C0.72143 177.244 0 176.236 0 175.205C0 174.309 0.529387 173.51 1.49086 172.956L111.097 109.712C113.042 108.588 116.302 108.714 118.521 109.994L302.196 215.977C303.454 216.701 304.174 217.709 304.174 218.741C304.174 219.636 303.645 220.435 302.683 220.989L193.077 284.234C192.188 284.747 191.022 285 189.805 285ZM2.61026 176.876L186.286 282.86C188.087 283.898 190.91 284.026 192.447 283.141L302.053 219.897C302.445 219.67 302.912 219.286 302.912 218.741C302.912 218.183 302.409 217.556 301.565 217.07L117.891 111.088C116.089 110.05 113.268 109.92 111.73 110.805L2.12382 174.049C1.73216 174.276 1.2647 174.66 1.2647 175.206C1.26344 175.764 1.76629 176.389 2.61026 176.876Z" fill="#6F03E0"/>
<g clip-path="url(#clip0_1777_6571)">
<path d="M183.185 176.473L173.321 182.2L171.068 180.911L178.886 176.368L176.052 175.776L177.411 174.556L181.256 175.357L183.185 176.473Z" fill="#6F03E0" fill-opacity="0.6"/>
<path d="M173.298 170.571C175.959 172.104 174.623 174.068 171.939 175.636C168.884 177.414 165.561 177.925 163.017 176.449C160.449 174.962 161.611 172.987 164.376 171.349C167.234 169.688 170.731 169.072 173.298 170.559V170.571ZM164.829 175.485C165.724 176.008 167.338 175.636 169.592 174.323C171.776 173.057 172.462 172.116 171.521 171.57C170.673 171.082 169.023 171.361 166.723 172.708C164.457 174.01 163.923 174.962 164.829 175.485Z" fill="#6F03E0" fill-opacity="0.6"/>
<path d="M164.817 165.668C167.478 167.202 166.165 169.177 163.458 170.745C160.403 172.523 157.068 173.022 154.524 171.547C151.957 170.071 153.118 168.085 155.895 166.458C158.753 164.797 162.238 164.181 164.806 165.668H164.817ZM156.348 170.582C157.243 171.094 158.857 170.733 161.111 169.421C163.295 168.154 163.981 167.213 163.04 166.667C162.192 166.179 160.53 166.458 158.242 167.806C155.976 169.107 155.442 170.06 156.348 170.582Z" fill="#6F03E0" fill-opacity="0.6"/>
<path d="M208.628 191.169L198.764 196.897L196.522 195.607L204.329 191.064L201.506 190.472L202.854 189.252L206.699 190.054L208.628 191.169Z" fill="#6F03E0" fill-opacity="0.6"/>
<path d="M215.714 195.061C218.375 196.594 217.051 198.558 214.344 200.126C211.288 201.904 207.954 202.403 205.421 200.94C202.854 199.452 204.015 197.477 206.78 195.839C209.638 194.178 213.135 193.574 215.703 195.049L215.714 195.061ZM207.245 199.975C208.14 200.486 209.755 200.115 211.997 198.813C214.181 197.547 214.866 196.606 213.925 196.06C213.077 195.572 211.428 195.851 209.139 197.199C206.873 198.5 206.339 199.452 207.245 199.975Z" fill="#6F03E0" fill-opacity="0.6"/>
<path d="M190.26 180.365C192.921 181.898 191.596 183.861 188.889 185.43C185.834 187.207 182.499 187.707 179.967 186.243C177.399 184.756 178.561 182.781 181.326 181.143C184.184 179.482 187.669 178.877 190.248 180.353L190.26 180.365ZM181.791 185.279C182.685 185.79 184.312 185.43 186.554 184.117C188.738 182.851 189.424 181.91 188.483 181.364C187.635 180.876 185.985 181.155 183.685 182.502C181.419 183.803 180.885 184.756 181.791 185.279Z" fill="#6F03E0" fill-opacity="0.6"/>
<path d="M198.741 185.267C201.401 186.801 200.077 188.764 197.382 190.333C194.326 192.11 191.004 192.621 188.459 191.146C185.892 189.67 187.065 187.684 189.83 186.046C192.688 184.384 196.173 183.78 198.753 185.256L198.741 185.267ZM190.272 190.17C191.166 190.681 192.781 190.309 195.035 189.008C197.219 187.742 197.904 186.801 196.963 186.255C196.115 185.767 194.454 186.046 192.165 187.393C189.9 188.694 189.365 189.647 190.272 190.17Z" fill="#6F03E0" fill-opacity="0.6"/>
<path d="M224.195 199.952C226.856 201.485 225.531 203.449 222.836 205.017C219.781 206.795 216.446 207.294 213.914 205.831C211.346 204.343 212.508 202.368 215.285 200.73C218.143 199.069 221.639 198.465 224.207 199.94L224.195 199.952ZM215.726 204.866C216.621 205.377 218.247 205.017 220.478 203.704C222.662 202.438 223.347 201.497 222.406 200.951C221.558 200.463 219.897 200.742 217.608 202.09C215.343 203.391 214.808 204.343 215.714 204.866H215.726Z" fill="#6F03E0" fill-opacity="0.6"/>
<path d="M251.044 215.659L241.169 221.387L238.927 220.085L246.745 215.543L243.922 214.962L245.27 213.731L249.115 214.544L251.044 215.659Z" fill="#6F03E0" fill-opacity="0.6"/>
<path d="M232.676 204.855C235.337 206.388 234.012 208.352 231.317 209.92C228.262 211.697 224.927 212.197 222.395 210.733C219.827 209.246 220.989 207.271 223.754 205.633C226.612 203.972 230.109 203.356 232.665 204.843L232.676 204.855ZM224.207 209.769C225.101 210.28 226.716 209.908 228.959 208.607C231.143 207.341 231.828 206.4 230.887 205.854C230.039 205.366 228.389 205.645 226.101 206.992C223.835 208.293 223.301 209.246 224.207 209.769Z" fill="#6F03E0" fill-opacity="0.6"/>
<path d="M242.551 210.756L232.688 216.484L230.446 215.194L238.264 210.652L235.441 210.059L236.789 208.839L240.634 209.641L242.551 210.756Z" fill="#6F03E0" fill-opacity="0.6"/>
<path d="M258.119 219.551C260.78 221.084 259.455 223.048 256.76 224.616C253.704 226.394 250.37 226.893 247.837 225.43C245.27 223.942 246.432 221.967 249.197 220.329C252.055 218.668 255.552 218.064 258.119 219.539V219.551ZM249.638 224.454C250.544 224.976 252.171 224.605 254.401 223.303C256.586 222.037 257.271 221.096 256.33 220.55C255.482 220.062 253.821 220.341 251.543 221.689C249.266 222.99 248.744 223.942 249.638 224.454Z" fill="#6F03E0" fill-opacity="0.6"/>
<path d="M164.957 187.068L155.093 192.795L152.851 191.494L160.658 186.952L157.835 186.371L159.194 185.139L163.028 185.953L164.957 187.068Z" fill="#6F03E0" fill-opacity="0.6"/>
<path d="M173.438 191.959L163.574 197.687L161.332 196.397L169.139 191.854L166.316 191.262L167.675 190.042L171.521 190.844L173.438 191.959Z" fill="#6F03E0" fill-opacity="0.6"/>
<path d="M181.919 196.862L172.055 202.589L169.813 201.288L177.632 196.757L174.797 196.165L176.156 194.933L180.002 195.746L181.919 196.862Z" fill="#6F03E0" fill-opacity="0.6"/>
<path d="M189.005 200.742C191.666 202.276 190.341 204.251 187.634 205.807C184.591 207.585 181.245 208.084 178.712 206.621C176.145 205.133 177.306 203.158 180.083 201.52C182.941 199.859 186.426 199.255 189.005 200.73V200.742ZM180.536 205.656C181.431 206.179 183.045 205.807 185.299 204.495C187.483 203.228 188.169 202.287 187.228 201.741C186.38 201.253 184.73 201.532 182.43 202.88C180.164 204.181 179.63 205.133 180.536 205.656Z" fill="#6F03E0" fill-opacity="0.6"/>
<path d="M222.929 220.341C225.589 221.875 224.265 223.838 221.57 225.406C218.514 227.184 215.18 227.683 212.647 226.22C210.08 224.732 211.242 222.757 214.007 221.119C216.864 219.458 220.361 218.854 222.929 220.329V220.341ZM214.46 225.255C215.354 225.778 216.981 225.395 219.223 224.094C221.407 222.827 222.081 221.886 221.151 221.34C220.303 220.852 218.654 221.131 216.353 222.479C214.088 223.78 213.553 224.732 214.46 225.255Z" fill="#6F03E0" fill-opacity="0.6"/>
<path d="M215.854 216.449L205.991 222.177L203.748 220.887L211.555 216.344L208.732 215.752L210.08 214.532L213.925 215.334L215.854 216.449Z" fill="#6F03E0" fill-opacity="0.6"/>
<path d="M205.967 210.547C208.628 212.081 207.303 214.044 204.608 215.613C201.553 217.39 198.218 217.89 195.686 216.426C193.118 214.939 194.28 212.964 197.057 211.326C199.914 209.664 203.411 209.06 205.979 210.536L205.967 210.547ZM197.498 215.45C198.393 215.973 200.007 215.601 202.25 214.288C204.434 213.022 205.119 212.081 204.178 211.535C203.33 211.047 201.68 211.326 199.392 212.673C197.126 213.975 196.592 214.927 197.498 215.438V215.45Z" fill="#6F03E0" fill-opacity="0.6"/>
<path d="M197.486 205.645C200.147 207.178 198.822 209.142 196.127 210.71C193.072 212.487 189.737 212.987 187.205 211.523C184.637 210.036 185.799 208.061 188.576 206.423C191.434 204.762 194.919 204.158 197.486 205.633V205.645ZM189.017 210.559C189.912 211.082 191.526 210.71 193.769 209.397C195.953 208.131 196.638 207.19 195.697 206.644C194.849 206.156 193.199 206.435 190.899 207.782C188.634 209.083 188.099 210.036 189.005 210.559H189.017Z" fill="#6F03E0" fill-opacity="0.6"/>
<path d="M239.903 230.135C242.563 231.668 241.239 233.643 238.543 235.2C235.488 236.978 232.153 237.477 229.621 236.013C227.042 234.526 228.215 232.551 230.98 230.913C233.838 229.252 237.323 228.648 239.903 230.123V230.135ZM231.422 235.037C232.328 235.56 233.954 235.188 236.196 233.887C238.381 232.621 239.066 231.68 238.113 231.134C237.265 230.646 235.616 230.925 233.315 232.272C231.05 233.574 230.527 234.526 231.422 235.037Z" fill="#6F03E0" fill-opacity="0.6"/>
<path d="M231.422 225.232C234.082 226.766 232.758 228.741 230.062 230.309C227.007 232.087 223.684 232.586 221.14 231.122C218.572 229.635 219.734 227.66 222.499 226.022C225.357 224.361 228.842 223.757 231.422 225.232ZM222.929 230.146C223.835 230.669 225.45 230.297 227.704 228.996C229.888 227.73 230.573 226.789 229.632 226.243C228.784 225.755 227.135 226.034 224.834 227.381C222.569 228.683 222.035 229.635 222.929 230.146Z" fill="#6F03E0" fill-opacity="0.6"/>
<path d="M204.712 230.925C207.373 232.458 206.048 234.422 203.353 235.99C200.298 237.768 196.963 238.267 194.431 236.803C191.863 235.316 193.037 233.341 195.802 231.703C198.66 230.042 202.157 229.438 204.724 230.913L204.712 230.925ZM196.243 235.839C197.138 236.35 198.764 235.99 201.006 234.677C203.19 233.399 203.876 232.47 202.935 231.924C202.087 231.436 200.425 231.715 198.137 233.062C195.871 234.364 195.337 235.316 196.243 235.839Z" fill="#6F03E0" fill-opacity="0.6"/>
<path d="M221.674 240.718C224.335 242.252 223.01 244.215 220.315 245.784C217.26 247.561 213.925 248.061 211.393 246.597C208.825 245.11 209.999 243.135 212.764 241.497C215.622 239.835 219.118 239.231 221.674 240.707V240.718ZM213.193 245.633C214.1 246.155 215.714 245.784 217.968 244.482C220.152 243.216 220.826 242.275 219.897 241.729C219.049 241.241 217.387 241.52 215.099 242.868C212.833 244.169 212.299 245.121 213.193 245.633Z" fill="#6F03E0" fill-opacity="0.6"/>
<path d="M213.193 235.827C215.854 237.361 214.529 239.324 211.834 240.893C208.779 242.67 205.444 243.17 202.912 241.706C200.344 240.219 201.506 238.244 204.283 236.606C207.141 234.945 210.626 234.34 213.205 235.816L213.193 235.827ZM204.712 240.73C205.619 241.253 207.234 240.881 209.487 239.58C211.671 238.314 212.357 237.361 211.416 236.827C210.568 236.339 208.906 236.629 206.618 237.965C204.352 239.266 203.818 240.219 204.712 240.73Z" fill="#6F03E0" fill-opacity="0.6"/>
<path d="M196.232 226.034C198.892 227.567 197.568 229.531 194.872 231.099C191.817 232.876 188.483 233.376 185.95 231.912C183.382 230.425 184.544 228.45 187.309 226.812C190.167 225.151 193.664 224.535 196.232 226.022V226.034ZM187.762 230.936C188.657 231.448 190.272 231.087 192.526 229.775C194.71 228.497 195.395 227.556 194.454 227.021C193.606 226.533 191.945 226.812 189.656 228.16C187.391 229.461 186.856 230.414 187.762 230.936Z" fill="#6F03E0" fill-opacity="0.6"/>
<path d="M189.145 222.142L179.293 227.869L177.039 226.58L184.858 222.037L182.023 221.445L183.382 220.225L187.228 221.026L189.145 222.142Z" fill="#6F03E0" fill-opacity="0.6"/>
<path d="M180.664 217.239L170.801 222.978L168.558 221.677L176.377 217.134L173.542 216.542L174.902 215.322L178.747 216.135L180.664 217.239Z" fill="#6F03E0" fill-opacity="0.6"/>
<path d="M172.183 212.348L162.32 218.076L160.077 216.774L167.884 212.244L165.061 211.651L166.409 210.431L170.266 211.233L172.183 212.348Z" fill="#6F03E0" fill-opacity="0.6"/>
<path d="M144.08 217.03C146.74 218.563 145.416 220.527 142.709 222.095C139.653 223.873 136.342 224.384 133.798 222.909C131.231 221.421 132.392 219.446 135.157 217.808C138.015 216.147 141.512 215.543 144.08 217.018V217.03ZM135.61 221.944C136.505 222.455 138.12 222.084 140.374 220.782C142.558 219.516 143.243 218.575 142.302 218.029C141.454 217.541 139.804 217.82 137.504 219.168C135.239 220.469 134.704 221.421 135.61 221.944Z" fill="#6F03E0" fill-opacity="0.6"/>
<path d="M135.599 212.127C138.259 213.661 136.935 215.624 134.228 217.204C131.172 218.982 127.85 219.481 125.317 218.017C122.75 216.53 123.911 214.555 126.676 212.917C129.534 211.256 133.02 210.64 135.599 212.127ZM127.13 217.042C128.024 217.553 129.639 217.181 131.893 215.88C134.077 214.613 134.762 213.672 133.821 213.126C132.973 212.638 131.312 212.917 129.035 214.265C126.769 215.566 126.235 216.519 127.141 217.042H127.13Z" fill="#6F03E0" fill-opacity="0.6"/>
<path d="M127.118 207.236C129.778 208.77 128.454 210.733 125.759 212.302C122.703 214.079 119.369 214.579 116.836 213.115C114.269 211.628 115.431 209.653 118.207 208.015C121.065 206.353 124.562 205.738 127.13 207.225L127.118 207.236ZM118.637 212.151C119.532 212.662 121.158 212.302 123.4 210.989C125.584 209.722 126.27 208.781 125.329 208.235C124.481 207.747 122.819 208.026 120.531 209.374C118.265 210.675 117.731 211.628 118.637 212.151Z" fill="#6F03E0" fill-opacity="0.6"/>
<path d="M120.031 203.344L110.168 209.072L107.926 207.782L115.733 203.24L112.91 202.647L114.269 201.427L118.103 202.229L120.031 203.344Z" fill="#6F03E0" fill-opacity="0.6"/>
<path d="M161.042 226.824C163.702 228.357 162.378 230.321 159.682 231.889C156.627 233.667 153.293 234.166 150.76 232.702C148.192 231.215 149.366 229.24 152.131 227.602C154.989 225.941 158.486 225.325 161.053 226.812L161.042 226.824ZM152.572 231.738C153.467 232.249 155.082 231.877 157.324 230.576C159.508 229.31 160.193 228.369 159.252 227.823C158.404 227.335 156.743 227.614 154.466 228.961C152.2 230.263 151.666 231.215 152.572 231.738Z" fill="#6F03E0" fill-opacity="0.6"/>
<path d="M153.966 222.932L144.103 228.671L141.861 227.37L149.668 222.827L146.845 222.235L148.192 221.015L152.038 221.828L153.966 222.932Z" fill="#6F03E0" fill-opacity="0.6"/>
<path d="M169.534 231.726C172.195 233.26 170.858 235.223 168.163 236.792C165.108 238.569 161.785 239.069 159.241 237.605C156.673 236.118 157.847 234.143 160.612 232.516C163.47 230.855 166.967 230.239 169.534 231.726ZM161.053 236.629C161.948 237.14 163.563 236.78 165.816 235.467C168.001 234.201 168.674 233.26 167.745 232.714C166.897 232.226 165.247 232.505 162.958 233.852C160.693 235.153 160.159 236.106 161.065 236.629H161.053Z" fill="#6F03E0" fill-opacity="0.6"/>
<path d="M203.458 251.314C206.118 252.847 204.794 254.811 202.098 256.379C199.043 258.157 195.709 258.656 193.176 257.192C190.609 255.705 191.77 253.73 194.535 252.092C197.393 250.431 200.89 249.815 203.458 251.302V251.314ZM194.977 256.216C195.883 256.739 197.498 256.367 199.752 255.066C201.936 253.8 202.621 252.859 201.68 252.313C200.832 251.825 199.171 252.104 196.894 253.451C194.628 254.753 194.094 255.705 194.988 256.216H194.977Z" fill="#6F03E0" fill-opacity="0.6"/>
<path d="M178.015 236.617C180.676 238.151 179.351 240.114 176.656 241.683C173.6 243.46 170.266 243.96 167.733 242.496C165.166 241.009 166.328 239.034 169.093 237.396C171.951 235.734 175.448 235.119 178.015 236.606V236.617ZM169.534 241.532C170.429 242.043 172.044 241.671 174.297 240.37C176.482 239.092 177.167 238.163 176.226 237.617C175.378 237.129 173.717 237.407 171.428 238.755C169.162 240.056 168.628 241.009 169.534 241.532Z" fill="#6F03E0" fill-opacity="0.6"/>
<path d="M187.89 242.519L178.027 248.258L175.784 246.957L183.592 242.415L180.768 241.834L182.128 240.602L185.973 241.416L187.89 242.519Z" fill="#6F03E0" fill-opacity="0.6"/>
<path d="M194.977 246.411C197.637 247.945 196.313 249.908 193.606 251.477C190.551 253.254 187.216 253.754 184.684 252.29C182.116 250.803 183.278 248.828 186.043 247.19C188.901 245.528 192.386 244.924 194.965 246.4L194.977 246.411ZM186.496 251.314C187.402 251.837 189.017 251.465 191.259 250.164C193.443 248.897 194.129 247.956 193.188 247.41C192.34 246.922 190.69 247.201 188.401 248.549C186.136 249.85 185.601 250.803 186.496 251.314Z" fill="#6F03E0" fill-opacity="0.6"/>
<path d="M49.5118 183.548C52.1723 185.081 50.8595 187.056 48.1642 188.625C45.1087 190.402 41.7744 190.902 39.2301 189.426C36.6626 187.951 37.8244 185.964 40.6127 184.338C43.4706 182.676 46.9559 182.061 49.5234 183.548H49.5118ZM41.0425 188.45C41.9371 188.962 43.5519 188.602 45.7941 187.289C47.9783 186.022 48.6637 185.081 47.7227 184.535C46.8746 184.047 45.2249 184.326 42.9246 185.674C40.6591 186.975 40.1247 187.928 41.0309 188.45H41.0425Z" fill="#6F03E0" fill-opacity="0.6"/>
<path d="M76.3603 199.243L66.4969 204.971L64.2546 203.67L72.0617 199.139L69.2386 198.546L70.5863 197.326L74.4317 198.128L76.3603 199.243Z" fill="#6F03E0" fill-opacity="0.6"/>
<path d="M66.4737 193.342C69.1342 194.875 67.8214 196.85 65.1261 198.418C62.0706 200.196 58.7363 200.695 56.192 199.22C53.6245 197.745 54.7979 195.758 57.5746 194.132C60.4325 192.47 63.9178 191.854 66.4737 193.342ZM58.0044 198.256C58.899 198.767 60.5138 198.395 62.756 197.094C64.9402 195.828 65.6256 194.887 64.6846 194.341C63.8365 193.853 62.1868 194.143 59.8865 195.479C57.621 196.78 57.0866 197.733 57.9928 198.256H58.0044Z" fill="#6F03E0" fill-opacity="0.6"/>
<path d="M59.3985 189.45L49.5351 195.177L47.2812 193.876L55.1 189.345L52.2769 188.752L53.6245 187.533L57.47 188.334L59.3985 189.45Z" fill="#6F03E0" fill-opacity="0.6"/>
<path d="M84.8412 204.146L74.9778 209.873L72.7356 208.572L80.5427 204.03L77.7196 203.449L79.0789 202.217L82.9243 203.031L84.8412 204.146Z" fill="#6F03E0" fill-opacity="0.6"/>
<path d="M91.9279 208.026C94.5884 209.56 93.2756 211.535 90.5687 213.103C87.5132 214.881 84.1789 215.38 81.6347 213.916C79.0672 212.429 80.2406 210.454 83.0172 208.828C85.8751 207.167 89.3604 206.551 91.9279 208.038V208.026ZM83.4587 212.941C84.3532 213.452 85.9681 213.08 88.2103 211.779C90.3944 210.512 91.0799 209.571 90.1388 209.025C89.2907 208.537 87.641 208.816 85.3407 210.164C83.0753 211.465 82.5409 212.418 83.447 212.941H83.4587Z" fill="#6F03E0" fill-opacity="0.6"/>
<path d="M101.803 213.94L91.9511 219.667L89.6973 218.366L97.516 213.824L94.6929 213.243L96.0405 212.011L99.886 212.824L101.803 213.94Z" fill="#6F03E0" fill-opacity="0.6"/>
<path d="M110.296 218.831L100.432 224.558L98.1899 223.269L105.997 218.726L103.174 218.134L104.522 216.914L108.367 217.715L110.296 218.831Z" fill="#6F03E0" fill-opacity="0.6"/>
<path d="M117.371 222.723C120.031 224.256 118.707 226.22 116.012 227.788C112.956 229.565 109.622 230.065 107.089 228.601C104.522 227.126 105.683 225.139 108.448 223.501C111.306 221.84 114.803 221.236 117.371 222.711V222.723ZM108.902 227.637C109.796 228.16 111.423 227.776 113.665 226.475C115.849 225.209 116.534 224.268 115.593 223.722C114.745 223.234 113.096 223.513 110.795 224.86C108.53 226.161 107.995 227.114 108.902 227.637Z" fill="#6F03E0" fill-opacity="0.6"/>
<path d="M142.825 237.419C145.485 238.953 144.161 240.916 141.466 242.484C138.41 244.262 135.076 244.761 132.543 243.298C129.976 241.81 131.138 239.835 133.914 238.197C136.772 236.536 140.269 235.932 142.837 237.407L142.825 237.419ZM134.344 242.322C135.239 242.833 136.865 242.473 139.107 241.16C141.291 239.894 141.977 238.953 141.036 238.407C140.188 237.919 138.538 238.197 136.238 239.545C133.972 240.846 133.438 241.799 134.344 242.322Z" fill="#6F03E0" fill-opacity="0.6"/>
<path d="M135.738 233.527L125.875 239.255L123.633 237.953L131.44 233.422L128.617 232.83L129.976 231.599L133.821 232.412L135.738 233.527Z" fill="#6F03E0" fill-opacity="0.6"/>
<path d="M127.257 228.624L117.394 234.364L115.152 233.062L122.959 228.52L120.136 227.927L121.483 226.708L125.329 227.509L127.257 228.624Z" fill="#6F03E0" fill-opacity="0.6"/>
<path d="M152.7 243.321L142.837 249.048L140.594 247.759L148.402 243.216L145.578 242.624L146.938 241.404L150.783 242.205L152.7 243.321Z" fill="#6F03E0" fill-opacity="0.6"/>
<path d="M161.193 248.212L151.329 253.951L149.087 252.65L156.894 248.107L154.071 247.515L155.419 246.295L159.264 247.108L161.193 248.212Z" fill="#6F03E0" fill-opacity="0.6"/>
<path d="M176.749 257.006C179.409 258.54 178.085 260.503 175.39 262.072C172.334 263.849 169 264.349 166.467 262.885C163.9 261.398 165.061 259.423 167.838 257.785C170.696 256.123 174.193 255.519 176.76 256.995L176.749 257.006ZM168.268 261.909C169.174 262.432 170.789 262.06 173.031 260.759C175.215 259.481 175.901 258.552 174.96 258.006C174.112 257.518 172.462 257.796 170.162 259.144C167.896 260.445 167.362 261.398 168.256 261.909H168.268Z" fill="#6F03E0" fill-opacity="0.6"/>
<path d="M169.674 253.114L159.81 258.842L157.556 257.552L165.375 253.01L162.552 252.417L163.9 251.198L167.745 251.999L169.674 253.114Z" fill="#6F03E0" fill-opacity="0.6"/>
<path d="M185.241 261.909C187.902 263.443 186.577 265.406 183.882 266.974C180.826 268.752 177.492 269.252 174.96 267.788C172.392 266.312 173.554 264.326 176.319 262.688C179.177 261.026 182.674 260.41 185.241 261.898V261.909ZM176.749 266.812C177.655 267.335 179.27 266.963 181.524 265.662C183.708 264.395 184.393 263.454 183.452 262.908C182.604 262.42 180.943 262.699 178.666 264.047C176.4 265.348 175.866 266.289 176.76 266.812H176.749Z" fill="#6F03E0" fill-opacity="0.6"/>
<g opacity="0.5">
<path d="M112.468 99.2499L112.491 103.967L123.342 97.6931L123.331 92.9763L112.468 99.2499Z" fill="url(#paint0_linear_1777_6571)"/>
</g>
<path d="M101.652 120.998L101.663 125.738L123.389 113.191L123.377 108.451L101.652 120.998Z" fill="url(#paint1_linear_1777_6571)"/>
<path d="M94.054 133.162L94.0656 137.879L123.412 120.94L123.4 116.212L94.054 133.162Z" fill="url(#paint2_linear_1777_6571)"/>
<path d="M89.3953 128.073L89.4069 132.813L98.6778 127.469L98.6546 122.729L89.3953 128.073Z" fill="url(#paint3_linear_1777_6571)"/>
<path d="M101.582 97.7512L101.606 102.491L123.331 89.9557L123.307 85.2157L101.582 97.7512Z" fill="url(#paint4_linear_1777_6571)"/>
<path d="M87.9895 121.126L88.0127 125.843L123.377 105.431L123.354 100.714L87.9895 121.126Z" fill="url(#paint5_linear_1777_6571)"/>
<path d="M89.3254 104.826L89.3371 109.566L98.608 104.222L98.5964 99.4822L89.3254 104.826Z" fill="url(#paint6_linear_1777_6571)"/>
<path d="M77.3359 119.534L77.3476 124.251L109.052 105.942L109.029 101.225L77.3359 119.534Z" fill="url(#paint7_linear_1777_6571)"/>
<path d="M89.3022 97.0889L89.3255 101.806L123.296 82.1835L123.284 77.4667L89.3022 97.0889Z" fill="url(#paint8_linear_1777_6571)"/>
<path d="M74.606 113.331L74.6176 118.071L85.1083 112.006L85.0967 107.266L74.606 113.331Z" fill="url(#paint9_linear_1777_6571)"/>
<path d="M80.9143 94.1846L80.9259 98.9014L112.421 80.7197L112.398 76.0029L80.9143 94.1846Z" fill="url(#paint10_linear_1777_6571)"/>
<path d="M69.5173 108.509L69.5406 113.226L85.0967 104.245L85.0734 99.5287L69.5173 108.509Z" fill="url(#paint11_linear_1777_6571)"/>
<path d="M64.0571 96.148L64.0687 100.876L85.0503 88.7708L85.0387 84.0308L64.0571 96.148Z" fill="url(#paint12_linear_1777_6571)"/>
<path d="M69.436 77.5248L69.4477 82.2416L85.0037 73.2611L84.9921 68.5443L69.436 77.5248Z" fill="url(#paint13_linear_1777_6571)"/>
<path d="M62.1516 89.4794L62.1748 94.2311L85.0268 81.0334L85.0152 76.2817L62.1516 89.4794Z" fill="url(#paint14_linear_1777_6571)"/>
<path d="M63.999 72.8893L64.0106 77.641L84.9806 65.5237L84.969 60.7837L63.999 72.8893Z" fill="url(#paint15_linear_1777_6571)"/>
<g opacity="0.5">
<path d="M115.012 74.4926L115.024 79.2094L123.284 74.4462L123.272 69.7294L115.012 74.4926Z" fill="url(#paint16_linear_1777_6571)"/>
<path d="M101.524 74.5158L101.536 79.2559L123.261 66.7088L123.249 61.9688L101.524 74.5158Z" fill="url(#paint17_linear_1777_6571)"/>
<path d="M93.8796 71.1699L93.8913 75.9215L123.238 58.9713L123.226 54.2313L93.8796 71.1699Z" fill="url(#paint18_linear_1777_6571)"/>
</g>
<g opacity="0.5">
<path d="M101.478 59.0295L101.489 63.7463L123.214 51.1992L123.203 46.494L101.478 59.0295Z" fill="url(#paint19_linear_1777_6571)"/>
</g>
<g opacity="0.5">
<path d="M89.2209 66.1046L89.2326 70.833L98.4919 65.4773L98.4802 60.7605L89.2209 66.1046Z" fill="url(#paint20_linear_1777_6571)"/>
</g>
<path d="M112.294 37.2579L112.305 41.9979L123.168 35.7244L123.156 30.9844L112.294 37.2579Z" fill="url(#paint21_linear_1777_6571)"/>
<path d="M101.408 35.7824L101.42 40.5108L123.145 27.9637L123.133 23.2469L101.408 35.7824Z" fill="url(#paint22_linear_1777_6571)"/>
<path d="M87.8269 59.1341L87.8385 63.8741L123.191 43.4618L123.18 38.7218L87.8269 59.1341Z" fill="url(#paint23_linear_1777_6571)"/>
<path d="M114.838 12.5123L114.85 17.2523L123.11 12.4891L123.086 7.73743L114.838 12.5123Z" fill="url(#paint24_linear_1777_6571)"/>
<path d="M89.1511 42.8693L89.1627 47.5861L98.4337 42.2303L98.422 37.5135L89.1511 42.8693Z" fill="url(#paint25_linear_1777_6571)"/>
<path d="M77.1619 57.5424L77.1735 62.2824L108.867 43.9845L108.855 39.2445L77.1619 57.5424Z" fill="url(#paint26_linear_1777_6571)"/>
<path d="M89.1279 35.097L89.1395 39.8486L123.121 20.2263L123.11 15.4863L89.1279 35.097Z" fill="url(#paint27_linear_1777_6571)"/>
<path d="M101.35 12.5471L101.361 17.2639L123.087 4.71678L123.075 0L101.35 12.5471Z" fill="url(#paint28_linear_1777_6571)"/>
<path d="M74.4316 51.3618L74.4433 56.0902L84.934 50.0257L84.9224 45.309L74.4316 51.3618Z" fill="url(#paint29_linear_1777_6571)"/>
<path d="M80.74 32.1927L80.7516 36.9327L112.247 18.751L112.236 14.011L80.74 32.1927Z" fill="url(#paint30_linear_1777_6571)"/>
<path d="M69.343 46.5172L69.3663 51.2688L84.9223 42.2884L84.9107 37.5367L69.343 46.5172Z" fill="url(#paint31_linear_1777_6571)"/>
<path d="M63.8828 34.1793L63.8944 38.8844L84.876 26.7788L84.8644 22.062L63.8828 34.1793Z" fill="url(#paint32_linear_1777_6571)"/>
<g opacity="0.5">
<path d="M89.0933 19.6222L89.1049 24.339L98.3642 18.9949L98.3526 14.2781L89.0933 19.6222Z" fill="url(#paint33_linear_1777_6571)"/>
</g>
<g opacity="0.5">
<path d="M32.2942 67.9169L32.3058 72.657L49.3373 62.8284L49.3257 58.0884L32.2942 67.9169Z" fill="url(#paint34_linear_1777_6571)"/>
</g>
<g opacity="0.5">
<path d="M32.3408 83.4267L32.3524 88.1667L44.7485 80.9986L44.7369 76.2585L32.3408 83.4267Z" fill="url(#paint35_linear_1777_6571)"/>
</g>
<g opacity="0.5">
<path d="M32.3176 75.6776L32.3292 80.406L63.9642 62.1313L63.9526 57.4146L32.3176 75.6776Z" fill="url(#paint36_linear_1777_6571)"/>
</g>
<g opacity="0.5">
<path d="M32.271 60.1796L32.2826 64.9196L43.1452 58.646L43.1335 53.906L32.271 60.1796Z" fill="url(#paint37_linear_1777_6571)"/>
</g>
<g opacity="0.5">
<path d="M32.2478 52.4422L32.2594 57.159L53.9845 44.6119L53.9729 39.8951L32.2478 52.4422Z" fill="url(#paint38_linear_1777_6571)"/>
</g>
<g opacity="0.5">
<path d="M69.6104 139.494L69.622 144.234L85.1781 135.253L85.1664 130.513L69.6104 139.494Z" fill="url(#paint39_linear_1777_6571)"/>
<path d="M62.3376 151.472V156.188L85.2013 143.002L85.1896 138.274L62.3376 151.472Z" fill="url(#paint40_linear_1777_6571)"/>
<path d="M64.1733 134.881L64.185 139.61L85.1665 127.493L85.1433 122.776L64.1733 134.881Z" fill="url(#paint41_linear_1777_6571)"/>
</g>
<g opacity="0.5">
<path d="M32.4917 137.646L32.5033 142.386L64.1383 124.123L64.1267 119.383L32.4917 137.646Z" fill="url(#paint42_linear_1777_6571)"/>
</g>
<g opacity="0.5">
<path d="M32.4453 122.16L32.4569 126.888L43.3195 120.615L43.3079 115.886L32.4453 122.16Z" fill="url(#paint43_linear_1777_6571)"/>
</g>
<g opacity="0.5">
<path d="M32.4221 114.399L32.4337 119.151L54.1588 106.604L54.1472 101.864L32.4221 114.399Z" fill="url(#paint44_linear_1777_6571)"/>
<path d="M32.3989 106.662L32.4222 111.402L54.1356 98.8665L54.124 94.1149L32.3989 106.662Z" fill="url(#paint45_linear_1777_6571)"/>
<path d="M32.3872 98.9245L32.3988 103.641L40.903 98.727L40.8914 94.0103L32.3872 98.9245Z" fill="url(#paint46_linear_1777_6571)"/>
</g>
<path d="M32.3523 91.164L32.3755 95.904L60.1418 79.86L60.1302 75.1316L32.3523 91.164Z" fill="url(#paint47_linear_1777_6571)"/>
<g opacity="0.5">
<path d="M89.2673 81.591L89.2789 86.331L98.5382 80.9752L98.5266 76.2352L89.2673 81.591Z" fill="url(#paint48_linear_1777_6571)"/>
</g>
<g opacity="0.5">
<path d="M32.4685 129.909L32.4801 134.626L49.5117 124.797L49.5 120.08L32.4685 129.909Z" fill="url(#paint49_linear_1777_6571)"/>
</g>
<path d="M32.5034 145.407L32.5267 150.124L44.9227 142.967L44.9111 138.25L32.5034 145.407Z" fill="url(#paint50_linear_1777_6571)"/>
<g opacity="0.5">
<path d="M32.5732 168.654L32.5849 173.371L54.3099 160.824L54.2983 156.107L32.5732 168.654Z" fill="url(#paint51_linear_1777_6571)"/>
<path d="M32.5615 160.893L32.5731 165.633L41.0889 160.719L41.0773 155.967L32.5615 160.893Z" fill="url(#paint52_linear_1777_6571)"/>
<path d="M32.5383 153.144L32.5499 157.873L60.3162 141.829L60.3046 137.112L32.5383 153.144Z" fill="url(#paint53_linear_1777_6571)"/>
</g>
<path d="M183.835 155.317C183.812 155.445 183.8 155.572 183.777 155.7C183.684 156.2 183.533 156.699 183.405 157.187C183.266 157.722 183.138 158.268 182.941 158.802C182.662 159.592 182.337 160.382 181.942 161.161C181.884 161.288 181.814 161.428 181.744 161.556C181.303 162.404 180.803 163.229 180.234 164.053C180.152 164.17 180.071 164.274 179.99 164.39C179.455 165.134 178.863 165.877 178.212 166.609C178.096 166.749 177.98 166.888 177.852 167.028C177.167 167.783 176.4 168.526 175.598 169.246C175.076 169.711 174.506 170.176 173.925 170.629C173.437 171.024 172.973 171.419 172.45 171.802C171.834 172.255 171.149 172.674 170.487 173.115C169.824 173.545 169.197 173.998 168.477 174.405C167.315 175.079 166.095 175.706 164.864 176.31C164.527 176.473 164.201 176.624 163.864 176.786C162.749 177.298 161.611 177.785 160.461 178.239C160.298 178.297 160.135 178.378 159.973 178.436C158.718 178.912 157.44 179.342 156.139 179.749C155.221 180.039 154.28 180.295 153.339 180.551C152.653 180.736 151.968 180.946 151.271 181.108C150.249 181.352 149.215 181.561 148.181 181.77C147.507 181.91 146.833 182.061 146.159 182.177C145.822 182.235 145.485 182.282 145.148 182.34C143.952 182.537 142.744 182.711 141.512 182.851C141.129 182.897 140.757 182.944 140.374 182.979C139.676 183.06 138.979 183.095 138.282 183.153C137.062 183.257 135.843 183.339 134.611 183.397C133.833 183.432 133.043 183.443 132.264 183.467C131.3 183.49 130.324 183.49 129.348 183.478C128.512 183.478 127.687 183.443 126.851 183.408C125.956 183.374 125.061 183.327 124.167 183.269C123.319 183.211 122.482 183.141 121.646 183.06C120.763 182.967 119.868 182.874 118.985 182.769C118.172 182.665 117.37 182.549 116.557 182.421C115.628 182.27 114.698 182.107 113.769 181.933C112.991 181.794 112.224 181.631 111.469 181.468C110.353 181.224 109.273 180.946 108.181 180.667C107.461 180.481 106.729 180.295 106.02 180.086C105.637 179.97 105.265 179.853 104.893 179.737C103.789 179.389 102.709 179.017 101.64 178.622C101.326 178.506 101.001 178.401 100.688 178.273C99.7348 177.902 98.8054 177.495 97.876 177.077C97.3997 176.868 96.9118 176.67 96.447 176.461C95.0994 175.822 93.775 175.137 92.5086 174.405C81.9366 168.294 76.6505 160.278 76.6621 152.273L76.6273 165.819C76.604 173.824 81.8901 181.852 92.4738 187.951C93.7401 188.683 95.0529 189.357 96.4006 190.007C96.8769 190.228 97.3648 190.426 97.8528 190.635C98.6312 190.983 99.4096 191.343 100.211 191.657C100.351 191.715 100.502 191.75 100.641 191.808C100.955 191.924 101.28 192.04 101.594 192.157C102.663 192.552 103.743 192.923 104.847 193.272C105.218 193.388 105.59 193.504 105.974 193.62C106.229 193.69 106.473 193.783 106.729 193.853C107.17 193.981 107.646 194.062 108.1 194.19C109.203 194.48 110.319 194.759 111.445 195.015C111.748 195.084 112.026 195.166 112.328 195.235C112.77 195.328 113.223 195.386 113.664 195.468C114.605 195.642 115.558 195.816 116.511 195.967C116.894 196.025 117.266 196.118 117.649 196.165C118.068 196.223 118.497 196.258 118.927 196.304C119.81 196.42 120.693 196.513 121.576 196.606C122.006 196.653 122.436 196.722 122.866 196.757C123.272 196.792 123.679 196.792 124.086 196.827C124.98 196.885 125.875 196.931 126.769 196.966C127.234 196.99 127.687 197.024 128.152 197.036C128.523 197.036 128.895 197.036 129.255 197.036C130.231 197.048 131.196 197.036 132.171 197.024C132.671 197.024 133.159 197.024 133.658 197.024C133.949 197.024 134.239 196.978 134.53 196.966C135.726 196.92 136.9 196.827 138.085 196.734C138.596 196.687 139.107 196.676 139.607 196.629C139.758 196.618 139.92 196.583 140.071 196.571C142.116 196.351 144.149 196.072 146.148 195.723C146.252 195.7 146.357 195.7 146.461 195.677C147.054 195.572 147.635 195.421 148.227 195.293C149.215 195.096 150.19 194.898 151.166 194.666C151.863 194.492 152.549 194.294 153.234 194.108C154.187 193.853 155.116 193.597 156.046 193.307C156.232 193.249 156.441 193.202 156.627 193.144C157.73 192.784 158.811 192.401 159.868 191.994C160.031 191.936 160.193 191.866 160.356 191.796C161.529 191.343 162.656 190.855 163.772 190.344C164.097 190.193 164.434 190.031 164.759 189.88C166.002 189.275 167.21 188.66 168.384 187.974C168.604 187.846 168.825 187.719 169.034 187.591C169.522 187.3 169.941 186.987 170.405 186.685C171.067 186.255 171.741 185.837 172.357 185.383C172.88 185 173.345 184.605 173.844 184.21C174.413 183.757 174.994 183.304 175.517 182.828C175.61 182.735 175.738 182.653 175.842 182.56C176.528 181.933 177.167 181.271 177.771 180.62C177.899 180.481 178.003 180.341 178.131 180.202C178.491 179.795 178.851 179.4 179.177 178.982C179.432 178.657 179.665 178.32 179.897 177.995C179.99 177.878 180.083 177.751 180.164 177.634C180.594 177.019 180.989 176.403 181.337 175.776C181.454 175.567 181.558 175.357 181.663 175.148C181.732 175.02 181.802 174.881 181.86 174.753C182.197 174.079 182.511 173.406 182.766 172.732C182.813 172.616 182.825 172.499 182.871 172.383C183.057 171.86 183.185 171.338 183.324 170.815C183.417 170.443 183.568 170.083 183.638 169.711C183.661 169.607 183.649 169.514 183.673 169.421C183.766 168.863 183.812 168.305 183.859 167.748C183.893 167.376 183.975 167.004 183.986 166.633C183.986 166.47 183.986 166.319 183.986 166.168L184.021 152.622C184.021 153.539 183.928 154.457 183.789 155.363L183.835 155.317Z" fill="#C0C0F6"/>
<path d="M168.21 130.42C189.249 142.561 189.365 162.253 168.477 174.393C147.577 186.534 113.56 186.534 92.5319 174.393C71.5039 162.253 71.3993 142.561 92.2995 130.42C113.2 118.28 147.182 118.28 168.221 130.42H168.21Z" fill="#E9F0F4"/>
<path d="M163.411 108.091C145.055 97.4957 115.384 97.484 97.1325 108.091C88.0474 113.377 83.5165 120.301 83.5281 127.225C83.5281 127.202 83.5281 127.179 83.5281 127.156L83.4701 146.499C83.4468 153.493 88.059 160.498 97.2951 165.831C98.3988 166.47 99.5489 167.062 100.722 167.62C101.141 167.818 101.57 167.992 101.989 168.166C102.674 168.468 103.348 168.782 104.057 169.072C104.138 169.107 104.231 169.13 104.324 169.165C105.95 169.793 107.635 170.362 109.366 170.861C109.494 170.908 109.621 170.954 109.749 170.989C110.121 171.094 110.516 171.175 110.899 171.268C111.887 171.535 112.874 171.779 113.885 172C114.141 172.058 114.385 172.139 114.64 172.186C115.024 172.267 115.419 172.314 115.802 172.383C116.627 172.534 117.452 172.685 118.288 172.813C118.625 172.86 118.95 172.941 119.287 172.987C119.659 173.045 120.043 173.069 120.414 173.115C121.169 173.208 121.936 173.301 122.691 173.371C123.075 173.406 123.458 173.464 123.842 173.499C124.202 173.533 124.562 173.533 124.922 173.557C125.7 173.615 126.479 173.65 127.257 173.684C127.652 173.696 128.047 173.731 128.454 173.743C128.767 173.743 129.093 173.743 129.406 173.743C130.278 173.754 131.149 173.743 132.02 173.731C132.427 173.731 132.857 173.731 133.263 173.731C133.507 173.731 133.751 173.696 133.995 173.684C135.053 173.638 136.121 173.568 137.179 173.475C137.608 173.44 138.038 173.429 138.457 173.394C138.596 173.382 138.724 173.359 138.852 173.336C140.641 173.15 142.407 172.906 144.161 172.592C144.254 172.581 144.347 172.569 144.44 172.558C144.974 172.465 145.497 172.325 146.02 172.221C146.868 172.046 147.704 171.884 148.529 171.686C149.168 171.535 149.784 171.349 150.411 171.175C151.201 170.966 151.991 170.745 152.77 170.501C152.944 170.443 153.13 170.408 153.304 170.35C153.606 170.257 153.862 170.118 154.164 170.025C155.407 169.607 156.615 169.142 157.788 168.654C158.241 168.456 158.706 168.271 159.148 168.073C160.67 167.388 162.157 166.656 163.551 165.843C163.748 165.726 163.934 165.622 164.132 165.506C164.573 165.238 164.968 164.936 165.386 164.657C165.944 164.297 166.502 163.949 167.013 163.577C167.489 163.229 167.907 162.868 168.349 162.52C168.837 162.136 169.325 161.753 169.778 161.346C169.871 161.265 169.975 161.184 170.068 161.102C170.672 160.545 171.23 159.976 171.753 159.395C171.857 159.29 171.939 159.162 172.043 159.058C172.357 158.698 172.682 158.337 172.973 157.977C173.205 157.687 173.403 157.396 173.6 157.106C173.67 157.013 173.751 156.909 173.821 156.816C174.193 156.281 174.553 155.735 174.866 155.177C174.924 155.061 174.971 154.933 175.029 154.817C175.285 154.341 175.494 153.841 175.703 153.353C175.831 153.063 175.993 152.796 176.098 152.505C176.133 152.412 176.144 152.32 176.179 152.227C176.342 151.762 176.458 151.286 176.586 150.821C176.667 150.507 176.795 150.193 176.853 149.88C176.876 149.798 176.865 149.706 176.888 149.624C176.969 149.148 177.004 148.683 177.051 148.207C177.085 147.87 177.155 147.533 177.167 147.196C177.167 147.057 177.167 146.917 177.167 146.789L177.225 127.446C177.225 127.888 177.143 128.317 177.109 128.759C177.748 121.335 173.205 113.795 163.388 108.126L163.411 108.091ZM172.671 139.006C173.031 138.564 173.403 138.134 173.728 137.693C173.705 137.716 173.681 137.751 173.658 137.786C173.356 138.204 173.008 138.611 172.671 139.017V139.006ZM174.448 136.531C174.681 136.159 174.913 135.788 175.11 135.416C175.11 135.427 175.099 135.451 175.087 135.462C174.89 135.822 174.657 136.171 174.437 136.531H174.448ZM175.784 133.987C175.947 133.592 176.133 133.208 176.272 132.813C176.272 132.837 176.272 132.848 176.249 132.86C176.121 133.243 175.935 133.603 175.784 133.987ZM176.69 131.373C176.783 130.989 176.899 130.594 176.969 130.211C176.969 130.234 176.969 130.258 176.969 130.269C176.911 130.641 176.795 131.013 176.702 131.373H176.69ZM171.846 140.016C171.846 140.016 171.834 140.04 171.823 140.051C171.404 140.516 170.916 140.957 170.44 141.411C170.928 140.946 171.416 140.493 171.846 140.028V140.016ZM167.663 143.769C167.931 143.56 168.186 143.362 168.442 143.153C168.43 143.153 168.419 143.176 168.407 143.188C168.163 143.386 167.919 143.583 167.663 143.781V143.769ZM165.433 145.314C165.433 145.314 165.41 145.326 165.398 145.337C164.817 145.721 164.259 146.116 163.62 146.476C164.259 146.104 164.829 145.697 165.433 145.314ZM88.152 138.924C88.4192 139.25 88.6399 139.575 88.9188 139.889C88.6399 139.575 88.4076 139.25 88.152 138.924ZM83.6327 128.526C83.6676 128.968 83.6676 129.398 83.7489 129.839C83.6792 129.398 83.6676 128.968 83.6327 128.526ZM84.0742 131.199C84.1787 131.605 84.2484 132.023 84.3879 132.43C84.2484 132.023 84.1787 131.617 84.0742 131.199ZM84.9804 133.836C85.143 134.219 85.2708 134.591 85.4683 134.974C85.2824 134.603 85.143 134.219 84.9804 133.836ZM86.3396 136.415C86.5604 136.763 86.7462 137.124 86.9786 137.472C86.7346 137.124 86.5604 136.763 86.3396 136.415ZM94.1002 144.408C93.8098 144.199 93.5658 143.978 93.2754 143.769C93.5542 143.978 93.8098 144.199 94.1002 144.408ZM91.3004 142.212C90.9751 141.933 90.7195 141.643 90.4291 141.352C90.7311 141.631 90.9867 141.933 91.3004 142.212Z" fill="#352885"/>
<path d="M183.835 117.339C183.812 117.466 183.801 117.583 183.777 117.71C183.684 118.222 183.533 118.721 183.394 119.221C183.255 119.755 183.127 120.301 182.941 120.836C182.662 121.626 182.337 122.404 181.953 123.182C181.884 123.322 181.814 123.461 181.744 123.589C181.303 124.425 180.803 125.25 180.246 126.075C180.164 126.203 180.06 126.319 179.967 126.447C179.444 127.19 178.851 127.922 178.212 128.643C178.096 128.782 177.98 128.922 177.864 129.049C177.178 129.804 176.412 130.536 175.61 131.268C175.087 131.733 174.506 132.186 173.949 132.639C173.461 133.034 172.984 133.441 172.45 133.824C171.846 134.254 171.184 134.684 170.545 135.102C169.859 135.544 169.22 135.997 168.488 136.427C167.327 137.1 166.107 137.728 164.852 138.332C164.538 138.483 164.213 138.634 163.888 138.785C162.761 139.308 161.611 139.796 160.426 140.26C160.275 140.318 160.135 140.388 159.984 140.446C158.73 140.923 157.44 141.352 156.127 141.759C155.209 142.05 154.28 142.305 153.339 142.561C152.642 142.747 151.956 142.956 151.259 143.118C150.272 143.351 149.261 143.56 148.25 143.757C147.588 143.885 146.938 144.036 146.264 144.152C144.266 144.512 142.221 144.791 140.165 145C139.514 145.07 138.852 145.105 138.189 145.163C137.004 145.268 135.819 145.349 134.623 145.407C133.833 145.442 133.043 145.453 132.253 145.477C131.289 145.488 130.324 145.5 129.36 145.477C128.524 145.477 127.687 145.442 126.839 145.407C125.956 145.372 125.073 145.326 124.19 145.268C123.342 145.21 122.482 145.14 121.634 145.058C120.763 144.966 119.892 144.873 119.02 144.768C118.195 144.663 117.382 144.547 116.569 144.42C115.616 144.268 114.687 144.106 113.746 143.932C113.002 143.792 112.259 143.641 111.515 143.478C110.4 143.235 109.308 142.956 108.216 142.665C107.472 142.468 106.74 142.293 106.009 142.073C105.637 141.957 105.277 141.84 104.916 141.736C103.813 141.387 102.732 141.016 101.652 140.621C101.327 140.504 101.013 140.4 100.699 140.272C99.7466 139.912 98.8404 139.505 97.9342 139.099C97.4463 138.878 96.9351 138.68 96.4471 138.448C95.0995 137.809 93.7867 137.124 92.5204 136.403C81.9367 130.292 76.6506 122.276 76.6738 114.26L76.639 127.806C76.6158 135.811 81.9018 143.839 92.4855 149.95C93.7518 150.681 95.0763 151.367 96.4355 152.006C96.877 152.215 97.3417 152.401 97.7948 152.598C98.608 152.959 99.398 153.33 100.235 153.656C100.374 153.714 100.513 153.76 100.653 153.807C100.966 153.934 101.303 154.039 101.617 154.167C102.674 154.562 103.743 154.922 104.835 155.27C105.23 155.398 105.614 155.526 106.02 155.642C106.264 155.712 106.508 155.805 106.752 155.875C107.194 156.002 107.647 156.084 108.088 156.2C109.203 156.502 110.33 156.781 111.469 157.036C111.771 157.106 112.05 157.187 112.352 157.257C112.793 157.35 113.246 157.408 113.688 157.489C114.629 157.664 115.57 157.838 116.523 157.989C116.918 158.047 117.289 158.14 117.684 158.186C118.091 158.245 118.521 158.279 118.939 158.326C119.834 158.442 120.74 158.535 121.658 158.628C122.076 158.674 122.482 158.733 122.912 158.767C123.296 158.802 123.691 158.802 124.074 158.825C124.992 158.895 125.91 158.942 126.839 158.976C127.292 159 127.757 159.046 128.21 159.046C128.57 159.046 128.942 159.046 129.314 159.046C130.289 159.058 131.254 159.046 132.23 159.035C132.718 159.035 133.217 159.035 133.705 159.035C133.996 159.023 134.274 158.988 134.565 158.976C135.808 158.918 137.039 158.837 138.271 158.733C138.736 158.698 139.212 158.686 139.665 158.64C139.886 158.616 140.106 158.593 140.316 158.558C140.699 158.512 141.082 158.465 141.466 158.419C142.72 158.268 143.952 158.094 145.195 157.896C145.474 157.85 145.764 157.803 146.043 157.757C146.194 157.733 146.357 157.71 146.508 157.687C147.112 157.582 147.693 157.431 148.285 157.304C149.261 157.106 150.237 156.909 151.19 156.688C151.898 156.514 152.572 156.316 153.269 156.13C154.21 155.875 155.151 155.619 156.069 155.329C156.267 155.27 156.464 155.224 156.65 155.166C157.754 154.806 158.834 154.434 159.891 154.027C160.066 153.958 160.24 153.888 160.414 153.818C161.564 153.365 162.68 152.889 163.783 152.378C164.12 152.227 164.457 152.064 164.794 151.901C166.037 151.297 167.245 150.681 168.407 150.008C168.628 149.88 168.849 149.752 169.069 149.624C169.546 149.334 169.952 149.02 170.417 148.73C171.091 148.3 171.776 147.858 172.392 147.405C172.926 147.022 173.403 146.627 173.891 146.22C174.448 145.767 175.029 145.326 175.54 144.861C175.645 144.768 175.773 144.675 175.877 144.582C176.563 143.943 177.202 143.293 177.817 142.63C177.934 142.491 178.038 142.363 178.154 142.235C178.514 141.829 178.886 141.422 179.212 141.004C179.467 140.679 179.699 140.342 179.943 140.005C180.025 139.9 180.106 139.784 180.176 139.68C180.606 139.052 181.012 138.436 181.361 137.797C181.477 137.588 181.582 137.368 181.698 137.158C181.756 137.031 181.826 136.914 181.884 136.787C182.221 136.113 182.534 135.427 182.79 134.754C182.836 134.637 182.848 134.521 182.894 134.405C183.069 133.882 183.208 133.359 183.336 132.837C183.44 132.465 183.58 132.105 183.661 131.721C183.684 131.628 183.684 131.524 183.696 131.431C183.801 130.873 183.835 130.316 183.893 129.758C183.928 129.386 184.01 129.014 184.021 128.643C184.021 128.48 184.021 128.329 184.021 128.166L184.056 114.62C184.056 115.538 183.963 116.456 183.824 117.374L183.835 117.339Z" fill="#C0C0F6"/>
<path d="M168.209 92.4419C189.249 104.582 189.365 124.274 168.453 136.426C147.553 148.567 113.56 148.567 92.5202 136.426C71.4922 124.274 71.376 104.594 92.2762 92.4536C113.188 80.3015 147.181 80.3015 168.209 92.4536V92.4419Z" fill="#E9F0F4"/>
<path d="M163.411 70.1244C145.055 59.5291 115.384 59.5175 97.1325 70.1244C88.0474 75.4105 83.5165 82.3346 83.5281 89.2588C83.5281 89.2355 83.5281 89.2123 83.5281 89.1891L83.4701 108.533C83.4468 115.526 88.059 122.532 97.2951 127.864C98.3988 128.503 99.5489 129.096 100.734 129.653C101.141 129.839 101.57 130.014 101.989 130.199C102.674 130.502 103.348 130.827 104.057 131.106C104.138 131.141 104.231 131.152 104.312 131.187C105.95 131.826 107.623 132.384 109.343 132.883C109.482 132.93 109.61 132.976 109.749 133.023C110.144 133.127 110.539 133.208 110.946 133.313C111.91 133.569 112.886 133.813 113.885 134.033C114.141 134.091 114.385 134.173 114.64 134.219C115.024 134.301 115.407 134.347 115.79 134.417C116.627 134.579 117.463 134.719 118.312 134.858C118.648 134.905 118.962 134.986 119.287 135.032C119.659 135.079 120.031 135.102 120.391 135.16C121.169 135.253 121.959 135.346 122.749 135.427C123.121 135.462 123.481 135.52 123.853 135.544C124.19 135.567 124.539 135.578 124.887 135.602C125.689 135.66 126.502 135.695 127.315 135.73C127.71 135.741 128.094 135.776 128.477 135.788C128.791 135.788 129.104 135.788 129.418 135.788C130.289 135.799 131.161 135.788 132.032 135.788C132.45 135.788 132.868 135.788 133.287 135.788C133.531 135.788 133.775 135.753 134.03 135.741C135.111 135.695 136.18 135.613 137.237 135.532C137.655 135.497 138.073 135.486 138.491 135.451C138.619 135.439 138.747 135.416 138.875 135.393C140.664 135.207 142.453 134.963 144.196 134.649C144.289 134.626 144.382 134.626 144.463 134.614C144.986 134.521 145.485 134.393 145.996 134.289C146.856 134.115 147.716 133.94 148.564 133.743C149.191 133.592 149.807 133.418 150.423 133.243C151.224 133.023 152.026 132.813 152.804 132.558C152.979 132.5 153.165 132.465 153.339 132.407C153.629 132.314 153.896 132.186 154.187 132.082C155.442 131.663 156.65 131.199 157.835 130.699C158.288 130.513 158.741 130.327 159.194 130.118C160.716 129.433 162.203 128.701 163.597 127.888C163.795 127.771 163.981 127.667 164.178 127.551C164.62 127.283 165.003 126.993 165.433 126.714C165.99 126.354 166.548 126.006 167.071 125.622C167.536 125.285 167.965 124.925 168.395 124.577C168.883 124.193 169.383 123.798 169.824 123.392C169.917 123.31 170.022 123.229 170.115 123.148C170.719 122.59 171.277 122.021 171.799 121.451C171.904 121.335 172.008 121.207 172.101 121.091C172.415 120.743 172.74 120.383 173.019 120.022C173.24 119.744 173.437 119.453 173.647 119.163C173.716 119.058 173.798 118.965 173.867 118.861C174.239 118.315 174.599 117.78 174.913 117.223C174.971 117.106 175.017 116.99 175.076 116.874C175.331 116.386 175.54 115.898 175.749 115.41C175.877 115.131 176.04 114.853 176.144 114.562C176.179 114.469 176.191 114.365 176.226 114.272C176.388 113.807 176.504 113.342 176.621 112.878C176.702 112.564 176.83 112.25 176.899 111.925C176.923 111.832 176.911 111.751 176.934 111.669C177.016 111.193 177.051 110.728 177.097 110.252C177.132 109.915 177.202 109.578 177.213 109.241C177.213 109.102 177.213 108.974 177.213 108.835L177.271 89.4911C177.271 89.9326 177.19 90.3624 177.155 90.8039C177.794 83.3802 173.252 75.8403 163.435 70.1709L163.411 70.1244ZM172.671 101.027C173.031 100.586 173.403 100.156 173.728 99.7147C173.705 99.7379 173.681 99.7728 173.658 99.8076C173.356 100.226 173.008 100.632 172.671 101.039V101.027ZM174.448 98.5645C174.681 98.1928 174.913 97.821 175.11 97.4492C175.11 97.4608 175.099 97.4841 175.087 97.4957C174.89 97.8559 174.657 98.216 174.437 98.5645H174.448ZM175.784 96.0203C175.947 95.6253 176.133 95.2419 176.272 94.8469C176.272 94.8585 176.272 94.8817 176.249 94.8933C176.121 95.2651 175.935 95.6369 175.784 96.0203ZM176.69 93.3947C176.783 93.0113 176.899 92.6279 176.969 92.2329C176.969 92.2561 176.969 92.2677 176.969 92.291C176.911 92.6628 176.795 93.0229 176.702 93.3947H176.69ZM171.846 102.038C171.846 102.038 171.834 102.061 171.823 102.073C171.404 102.538 170.916 102.979 170.44 103.432C170.928 102.968 171.416 102.515 171.846 102.05V102.038ZM167.663 105.791C167.931 105.582 168.186 105.372 168.453 105.163C168.442 105.163 168.419 105.187 168.419 105.187C168.175 105.384 167.931 105.582 167.663 105.779V105.791ZM165.444 107.336C165.444 107.336 165.421 107.348 165.41 107.359C164.817 107.743 164.259 108.138 163.62 108.509C164.271 108.138 164.84 107.731 165.444 107.336ZM88.152 100.958C88.4192 101.283 88.6399 101.608 88.9188 101.922C88.6399 101.608 88.4076 101.283 88.152 100.958ZM83.6327 90.5483C83.6676 90.9782 83.6676 91.4197 83.7489 91.8495C83.6792 91.4197 83.6676 90.9782 83.6327 90.5483ZM84.0742 93.2204C84.1787 93.627 84.2484 94.0453 84.3879 94.4519C84.2484 94.0453 84.1787 93.6386 84.0742 93.2204ZM84.9804 95.8692C85.143 96.2526 85.2708 96.6244 85.4683 97.0078C85.2824 96.636 85.143 96.2526 84.9804 95.8692ZM86.3396 98.4367C86.5604 98.7853 86.7462 99.1454 86.9786 99.4939C86.7346 99.1454 86.5604 98.7853 86.3396 98.4367ZM94.1002 106.441C93.8098 106.232 93.5658 106.011 93.2754 105.802C93.5542 106.011 93.8098 106.232 94.1002 106.441ZM91.3004 104.234C90.9751 103.955 90.7195 103.665 90.4291 103.386C90.7311 103.665 90.9867 103.967 91.3004 104.234Z" fill="#352885"/>
<path d="M183.835 76.9788C183.8 77.1066 183.789 77.2344 183.766 77.3622C183.673 77.8733 183.522 78.3729 183.382 78.8725C183.243 79.4069 183.115 79.9413 182.917 80.4757C182.639 81.2657 182.313 82.0557 181.918 82.8341C181.849 82.9735 181.779 83.1013 181.709 83.2407C181.268 84.0772 180.768 84.9137 180.199 85.7385C180.118 85.8547 180.025 85.9709 179.943 86.087C179.409 86.8306 178.816 87.5625 178.177 88.2828C178.05 88.4222 177.934 88.5732 177.817 88.7126C177.12 89.4678 176.365 90.1997 175.563 90.92C175.041 91.3963 174.46 91.8494 173.891 92.3025C173.403 92.6975 172.926 93.0925 172.403 93.4759C171.788 93.929 171.102 94.3472 170.44 94.7887C169.766 95.2185 169.139 95.6716 168.419 96.0782C167.257 96.7521 166.037 97.3794 164.806 97.9719C164.469 98.1346 164.143 98.2856 163.818 98.4366C162.691 98.9594 161.529 99.459 160.356 99.9121C160.217 99.9702 160.089 100.028 159.938 100.086C158.671 100.563 157.37 101.004 156.057 101.422C155.163 101.701 154.245 101.945 153.327 102.201C152.619 102.398 151.91 102.596 151.201 102.782C150.214 103.014 149.203 103.223 148.204 103.421C147.542 103.56 146.891 103.711 146.217 103.827C144.196 104.187 142.151 104.466 140.083 104.687C139.479 104.745 138.863 104.792 138.247 104.838C137.028 104.943 135.808 105.035 134.576 105.082C133.786 105.117 133.008 105.128 132.218 105.152C131.254 105.163 130.289 105.175 129.325 105.163C128.489 105.163 127.664 105.128 126.839 105.094C125.921 105.059 125.003 105.012 124.086 104.943C123.284 104.884 122.482 104.815 121.681 104.733C120.763 104.64 119.857 104.548 118.951 104.431C118.16 104.327 117.359 104.222 116.58 104.094C115.605 103.943 114.64 103.769 113.688 103.583C112.967 103.444 112.247 103.304 111.538 103.153C110.377 102.898 109.238 102.607 108.1 102.317C107.426 102.131 106.74 101.968 106.066 101.771C105.66 101.655 105.265 101.527 104.858 101.399C103.778 101.062 102.709 100.69 101.652 100.307C101.338 100.191 101.013 100.075 100.699 99.9586C99.7348 99.5868 98.8054 99.1686 97.8644 98.7619C97.3997 98.5528 96.9118 98.3669 96.4587 98.1462C95.111 97.4956 93.7866 96.8218 92.5203 96.0899C81.9366 89.979 76.6389 81.9511 76.6621 73.9349L76.6273 87.4812C76.604 95.4974 81.9017 103.514 92.4854 109.636C93.7401 110.368 95.0645 111.042 96.4122 111.692C96.8653 111.913 97.3532 112.099 97.8296 112.308C98.6312 112.668 99.4096 113.028 100.223 113.354C100.374 113.412 100.525 113.458 100.664 113.516C100.966 113.633 101.292 113.749 101.594 113.853C102.651 114.248 103.731 114.608 104.812 114.957C105.207 115.085 105.602 115.213 106.008 115.329C106.252 115.398 106.485 115.491 106.74 115.549C107.17 115.677 107.623 115.759 108.053 115.875C109.18 116.177 110.319 116.456 111.48 116.711C111.771 116.769 112.05 116.862 112.34 116.92C112.77 117.002 113.211 117.06 113.641 117.153C114.594 117.339 115.558 117.501 116.534 117.652C116.917 117.71 117.289 117.792 117.661 117.85C118.079 117.908 118.509 117.943 118.927 117.989C119.81 118.105 120.693 118.198 121.576 118.291C122.006 118.338 122.436 118.396 122.877 118.442C123.284 118.477 123.702 118.477 124.109 118.512C124.992 118.57 125.886 118.617 126.781 118.651C127.246 118.675 127.71 118.709 128.175 118.721C128.547 118.721 128.93 118.721 129.29 118.721C130.255 118.733 131.207 118.721 132.171 118.709C132.671 118.709 133.171 118.709 133.67 118.709C133.961 118.698 134.251 118.663 134.553 118.651C135.738 118.593 136.923 118.512 138.096 118.419C138.608 118.373 139.119 118.361 139.618 118.314C139.769 118.303 139.932 118.268 140.083 118.245C142.139 118.036 144.173 117.745 146.171 117.397C146.275 117.373 146.368 117.373 146.461 117.35C147.042 117.246 147.611 117.095 148.181 116.978C149.18 116.781 150.167 116.583 151.155 116.339C151.875 116.165 152.584 115.956 153.292 115.77C154.21 115.526 155.128 115.271 156.023 114.992C156.22 114.922 156.429 114.876 156.627 114.818C157.742 114.457 158.834 114.074 159.903 113.656C160.031 113.609 160.158 113.551 160.286 113.493C161.483 113.028 162.645 112.529 163.795 111.994C164.12 111.843 164.445 111.692 164.759 111.541C166.002 110.937 167.222 110.31 168.395 109.636C168.616 109.508 168.825 109.38 169.046 109.253C169.58 108.939 170.022 108.59 170.521 108.265C171.149 107.859 171.776 107.464 172.357 107.045C172.903 106.65 173.391 106.232 173.902 105.837C174.448 105.384 175.017 104.954 175.517 104.501C175.622 104.408 175.749 104.315 175.854 104.222C176.539 103.583 177.178 102.933 177.782 102.282C177.91 102.143 178.026 101.992 178.143 101.852C178.503 101.457 178.863 101.051 179.177 100.644C179.432 100.33 179.653 99.9934 179.897 99.6681C179.99 99.5403 180.071 99.4241 180.164 99.308C180.582 98.6922 180.989 98.0765 181.337 97.4375C181.465 97.2284 181.558 97.0193 181.674 96.7985C181.744 96.6707 181.802 96.543 181.872 96.4152C182.209 95.7413 182.522 95.0559 182.778 94.3821C182.813 94.2775 182.825 94.1613 182.871 94.0568C183.057 93.5224 183.185 92.9879 183.336 92.4535C183.429 92.0934 183.568 91.7332 183.649 91.3615C183.661 91.2685 183.661 91.164 183.684 91.0594C183.789 90.5018 183.835 89.9557 183.882 89.3981C183.917 89.0263 183.998 88.6545 184.01 88.2712C184.01 88.1201 184.01 87.9575 184.01 87.7948L184.044 74.2486C184.044 75.1664 183.951 76.0842 183.812 76.9904L183.835 76.9788Z" fill="#C0C0F6"/>
<path d="M168.221 52.1054C189.249 64.2458 189.354 83.9378 168.454 96.0899C147.565 108.23 113.572 108.23 92.5436 96.0899C71.5156 83.9494 71.3878 64.2575 92.2764 52.1054C113.177 39.9649 147.193 39.9649 168.233 52.1054H168.221Z" fill="#E9F0F4"/>
<g opacity="0.1">
<path d="M266.356 172.035L253.228 179.667C252.705 179.969 252.054 179.969 251.532 179.667L238.299 172.023C237.172 171.372 237.172 169.746 238.299 169.095L251.427 161.463C251.95 161.16 252.6 161.16 253.123 161.463L266.356 169.107C267.483 169.758 267.483 171.384 266.356 172.035Z" fill="black"/>
</g>
<g opacity="0.09">
<path d="M251.497 155.654C251.973 155.375 252.577 155.387 253.054 155.654L265.182 162.659C266.205 163.252 266.193 164.739 265.171 165.331L253.146 172.314C252.67 172.592 252.078 172.592 251.59 172.314L239.449 165.308C238.415 164.716 238.438 163.229 239.461 162.636L251.485 155.642L251.497 155.654Z" fill="#5438DC"/>
</g>
<g opacity="0.18">
<path d="M251.578 150.472C252.008 150.228 252.554 150.228 252.984 150.472L264.009 156.839C264.938 157.373 264.904 158.721 263.974 159.255L253.065 165.598C252.635 165.842 252.089 165.854 251.659 165.598L240.623 159.22C239.693 158.686 239.74 157.338 240.657 156.804L251.578 150.461V150.472Z" fill="#5438DC"/>
</g>
<g opacity="0.27">
<path d="M251.659 145.291C252.043 145.07 252.542 145.082 252.914 145.302L262.836 151.03C263.66 151.506 263.602 152.715 262.789 153.191L252.995 158.884C252.612 159.104 252.124 159.116 251.741 158.895L241.796 153.156C240.971 152.68 241.029 151.46 241.854 150.984L251.659 145.279V145.291Z" fill="#5438DC"/>
</g>
<g opacity="0.36">
<path d="M251.741 140.098C252.078 139.9 252.519 139.923 252.856 140.121L261.674 145.209C262.394 145.628 262.325 146.697 261.604 147.115L252.926 152.157C252.589 152.354 252.147 152.366 251.811 152.168L242.958 147.057C242.238 146.638 242.319 145.558 243.028 145.14L251.729 140.086L251.741 140.098Z" fill="#5438DC"/>
</g>
<g opacity="0.45">
<path d="M251.822 134.916C252.112 134.754 252.507 134.777 252.786 134.939L260.5 139.389C261.116 139.749 261.035 140.679 260.419 141.039L252.844 145.442C252.554 145.604 252.171 145.628 251.88 145.465L244.131 140.992C243.515 140.632 243.608 139.691 244.224 139.331L251.822 134.916Z" fill="#5438DC"/>
</g>
<g opacity="0.55">
<path d="M251.903 129.735C252.147 129.595 252.484 129.63 252.728 129.758L259.339 133.569C259.85 133.859 259.745 134.661 259.234 134.963L252.775 138.715C252.531 138.855 252.194 138.878 251.961 138.738L245.305 134.893C244.793 134.603 244.91 133.789 245.421 133.487L251.915 129.712L251.903 129.735Z" fill="#5438DC"/>
</g>
<g opacity="0.64">
<path d="M251.985 124.553C252.182 124.437 252.473 124.472 252.659 124.588L258.154 127.76C258.56 127.992 258.444 128.654 258.038 128.898L252.693 132.012C252.508 132.128 252.217 132.151 252.031 132.047L246.466 128.84C246.06 128.608 246.188 127.934 246.606 127.69L251.985 124.565V124.553Z" fill="#5438DC"/>
</g>
<g opacity="0.73">
<path d="M252.066 119.372C252.205 119.29 252.449 119.325 252.6 119.407L256.992 121.939C257.306 122.113 257.166 122.636 256.853 122.822L252.624 125.285C252.484 125.366 252.252 125.401 252.101 125.32L247.64 122.741C247.326 122.567 247.489 122.032 247.791 121.846L252.066 119.36V119.372Z" fill="#5438DC"/>
</g>
<g opacity="0.82">
<path d="M252.147 114.19C252.24 114.132 252.438 114.19 252.531 114.237L255.819 116.142C256.028 116.258 255.865 116.642 255.668 116.769L252.542 118.582C252.449 118.64 252.264 118.675 252.171 118.617L248.801 116.676C248.592 116.56 248.778 116.165 248.976 116.037L252.147 114.202V114.19Z" fill="#5438DC"/>
</g>
<g opacity="0.91">
<path d="M252.229 108.997C252.229 108.997 252.414 109.02 252.473 109.044L254.657 110.31C254.761 110.368 254.587 110.624 254.482 110.682L252.473 111.855C252.473 111.855 252.298 111.925 252.252 111.902L249.975 110.589C249.87 110.531 250.068 110.264 250.172 110.205L252.229 109.009V108.997Z" fill="#5438DC"/>
</g>
<path d="M253.483 104.501L252.322 105.175L251.148 104.501L252.322 103.816L253.483 104.501Z" fill="#5438DC"/>
<g opacity="0.1">
<path d="M232.734 150.252L217.12 159.325C216.597 159.627 215.947 159.627 215.424 159.325L199.694 150.24C198.567 149.589 198.567 147.963 199.694 147.312L215.308 138.239C215.831 137.937 216.481 137.937 217.004 138.239L232.746 147.324C233.873 147.974 233.873 149.601 232.746 150.252H232.734Z" fill="black"/>
</g>
<g opacity="0.09">
<path d="M215.377 131.559C215.854 131.28 216.446 131.28 216.934 131.559L231.352 139.877C232.374 140.469 232.362 141.956 231.34 142.549L217.039 150.856C216.562 151.134 215.97 151.134 215.482 150.856L201.053 142.526C200.03 141.933 200.042 140.446 201.064 139.854L215.366 131.547L215.377 131.559Z" fill="#6F03E0"/>
</g>
<g opacity="0.18">
<path d="M215.459 125.599C215.889 125.343 216.435 125.355 216.864 125.599L229.969 133.162C230.887 133.696 230.864 135.044 229.934 135.578L216.957 143.118C216.528 143.374 215.982 143.374 215.552 143.118L202.435 135.543C201.518 135.009 201.552 133.661 202.47 133.127L215.447 125.587L215.459 125.599Z" fill="#6F03E0"/>
</g>
<g opacity="0.27">
<path d="M215.54 119.639C215.924 119.418 216.411 119.43 216.795 119.639L228.587 126.447C229.412 126.923 229.354 128.131 228.54 128.608L216.888 135.381C216.504 135.602 216.016 135.613 215.633 135.392L203.818 128.573C202.993 128.097 203.051 126.888 203.876 126.412L215.54 119.639Z" fill="#6F03E0"/>
</g>
<g opacity="0.36">
<path d="M215.622 113.691C215.958 113.493 216.4 113.516 216.737 113.702L227.216 119.743C227.936 120.162 227.867 121.231 227.158 121.649L216.83 127.655C216.493 127.853 216.051 127.864 215.726 127.667L205.224 121.602C204.503 121.184 204.573 120.115 205.293 119.697L215.645 113.691H215.622Z" fill="#6F03E0"/>
</g>
<g opacity="0.45">
<path d="M215.703 107.731C215.993 107.568 216.377 107.58 216.667 107.754L225.822 113.04C226.437 113.4 226.356 114.33 225.74 114.69L216.725 119.929C216.435 120.092 216.051 120.115 215.761 119.953L206.56 114.643C205.944 114.283 206.037 113.342 206.652 112.994L215.679 107.742L215.703 107.731Z" fill="#6F03E0"/>
</g>
<g opacity="0.55">
<path d="M215.784 101.771C216.028 101.631 216.365 101.655 216.597 101.794L224.439 106.325C224.95 106.627 224.857 107.417 224.346 107.719L216.655 112.192C216.411 112.331 216.086 112.355 215.842 112.215L207.954 107.661C207.442 107.371 207.547 106.557 208.07 106.267L215.784 101.783V101.771Z" fill="#6F03E0"/>
</g>
<g opacity="0.64">
<path d="M215.865 95.811C216.051 95.6948 216.342 95.7297 216.539 95.8459L223.068 99.61C223.475 99.8424 223.359 100.505 222.952 100.749L216.586 104.455C216.4 104.571 216.109 104.594 215.923 104.478L209.348 100.679C208.941 100.446 209.069 99.7726 209.476 99.5403L215.877 95.8226L215.865 95.811Z" fill="#6F03E0"/>
</g>
<g opacity="0.73">
<path d="M215.958 89.8628C216.098 89.7815 216.342 89.8163 216.481 89.8977L221.698 92.9067C222 93.0809 221.872 93.6037 221.57 93.7896L216.528 96.7289C216.388 96.8102 216.156 96.845 216.016 96.7637L210.742 93.7199C210.44 93.5456 210.579 93.0112 210.893 92.8369L215.982 89.8861L215.958 89.8628Z" fill="#6F03E0"/>
</g>
<g opacity="0.82">
<path d="M216.04 83.903C216.133 83.8449 216.318 83.8913 216.411 83.9378L220.303 86.18C220.512 86.2962 220.361 86.6796 220.152 86.7958L216.423 88.9567C216.33 89.0147 216.156 89.0496 216.051 88.9915L212.09 86.7028C211.881 86.5866 212.055 86.1916 212.252 86.0755L216.016 83.8913L216.04 83.903Z" fill="#6F03E0"/>
</g>
<g opacity="0.91">
<path d="M216.121 77.943C216.121 77.943 216.307 77.9546 216.353 77.9895L218.932 79.4765C219.037 79.5346 218.863 79.7786 218.77 79.8367L216.365 81.2308C216.365 81.2308 216.191 81.3005 216.144 81.2657L213.484 79.7321C213.379 79.674 213.565 79.4184 213.67 79.3604L216.121 77.943Z" fill="#6F03E0"/>
</g>
<path d="M217.55 72.7615L216.214 73.5399L214.866 72.7615L216.202 71.9832L217.55 72.7615Z" fill="#6F03E0"/>
<g opacity="0.1">
<path d="M292.008 188.183L280.924 194.619C280.402 194.921 279.751 194.921 279.228 194.619L268.052 188.172C266.925 187.521 266.925 185.895 268.052 185.244L279.135 178.808C279.658 178.506 280.309 178.506 280.831 178.808L292.008 185.256C293.135 185.906 293.135 187.533 292.008 188.183Z" fill="black"/>
</g>
<g opacity="0.09">
<path d="M279.205 176.322C279.681 176.043 280.285 176.054 280.762 176.322L289.719 181.491C290.741 182.084 290.73 183.571 289.707 184.164L280.855 189.31C280.378 189.589 279.774 189.589 279.298 189.31L270.329 184.14C269.307 183.548 269.318 182.061 270.341 181.457L279.205 176.31V176.322Z" fill="#62EEFF"/>
</g>
<g opacity="0.18">
<path d="M279.286 172.209C279.716 171.953 280.274 171.965 280.704 172.209L288.848 176.903C289.765 177.437 289.742 178.785 288.813 179.319L280.773 183.989C280.343 184.233 279.797 184.245 279.368 184.001L271.212 179.296C270.294 178.761 270.329 177.402 271.247 176.868L279.298 172.186L279.286 172.209Z" fill="#62EEFF"/>
</g>
<g opacity="0.27">
<path d="M279.368 168.096C279.751 167.876 280.251 167.887 280.634 168.108L287.965 172.337C288.79 172.813 288.732 174.021 287.907 174.498L280.692 178.692C280.309 178.912 279.809 178.924 279.426 178.703L272.072 174.451C271.247 173.975 271.317 172.755 272.13 172.279L279.356 168.073L279.368 168.096Z" fill="#62EEFF"/>
</g>
<g opacity="0.36">
<path d="M279.449 163.984C279.786 163.786 280.239 163.809 280.576 164.007L287.093 167.771C287.814 168.189 287.744 169.258 287.024 169.676L280.634 173.394C280.297 173.592 279.856 173.603 279.519 173.417L272.966 169.63C272.246 169.212 272.327 168.131 273.048 167.713L279.461 163.984H279.449Z" fill="#62EEFF"/>
</g>
<g opacity="0.45">
<path d="M279.53 159.883C279.821 159.72 280.216 159.743 280.506 159.906L286.21 163.194C286.826 163.554 286.733 164.495 286.118 164.843L280.553 168.085C280.262 168.247 279.867 168.271 279.588 168.108L273.838 164.785C273.222 164.425 273.326 163.484 273.942 163.124L279.542 159.871L279.53 159.883Z" fill="#62EEFF"/>
</g>
<g opacity="0.55">
<path d="M279.611 155.77C279.855 155.63 280.204 155.665 280.448 155.805L285.339 158.628C285.85 158.918 285.746 159.732 285.234 160.022L280.483 162.787C280.239 162.926 279.902 162.95 279.658 162.81L274.709 159.952C274.198 159.65 274.314 158.849 274.837 158.547L279.611 155.77Z" fill="#62EEFF"/>
</g>
<g opacity="0.64">
<path d="M279.693 151.657C279.879 151.541 280.192 151.588 280.378 151.692L284.456 154.039C284.863 154.271 284.747 154.945 284.328 155.177L280.402 157.466C280.216 157.582 279.925 157.606 279.728 157.501L275.58 155.108C275.174 154.875 275.313 154.19 275.72 153.958L279.681 151.657H279.693Z" fill="#62EEFF"/>
</g>
<g opacity="0.73">
<path d="M279.774 147.545C279.914 147.463 280.169 147.51 280.32 147.591L283.585 149.473C283.887 149.647 283.748 150.182 283.446 150.356L280.344 152.157C280.204 152.238 279.96 152.273 279.821 152.192L276.475 150.263C276.173 150.089 276.335 149.543 276.638 149.369L279.786 147.545H279.774Z" fill="#62EEFF"/>
</g>
<g opacity="0.82">
<path d="M279.856 143.444C279.949 143.385 280.158 143.444 280.251 143.49L282.702 144.896C282.911 145.012 282.748 145.407 282.539 145.523L280.262 146.848C280.169 146.906 279.983 146.94 279.879 146.894L277.335 145.43C277.125 145.314 277.311 144.907 277.52 144.791L279.844 143.444H279.856Z" fill="#62EEFF"/>
</g>
<g opacity="0.91">
<path d="M279.937 139.331C279.937 139.331 280.146 139.366 280.193 139.389L281.831 140.33C281.935 140.388 281.749 140.644 281.645 140.702L280.193 141.55C280.193 141.55 280.007 141.62 279.96 141.596L278.229 140.597C278.125 140.539 278.334 140.272 278.438 140.214L279.949 139.343L279.937 139.331Z" fill="#62EEFF"/>
</g>
<path d="M280.948 135.753L280.03 136.287L279.1 135.753L280.018 135.218L280.948 135.753Z" fill="#62EEFF"/>
</g>
<defs>
<linearGradient id="paint0_linear_1777_6571" x1="55.4716" y1="42.7647" x2="160.484" y2="136.45" gradientUnits="userSpaceOnUse">
<stop stop-color="#C9A4FF"/>
<stop offset="1" stop-color="#6F03E0"/>
</linearGradient>
<linearGradient id="paint1_linear_1777_6571" x1="43.8423" y1="55.8229" x2="148.831" y2="149.496" gradientUnits="userSpaceOnUse">
<stop stop-color="#C9A4FF"/>
<stop offset="1" stop-color="#6F03E0"/>
</linearGradient>
<linearGradient id="paint2_linear_1777_6571" x1="37.2086" y1="63.235" x2="142.221" y2="156.92" gradientUnits="userSpaceOnUse">
<stop stop-color="#C9A4FF"/>
<stop offset="1" stop-color="#6F03E0"/>
</linearGradient>
<linearGradient id="paint3_linear_1777_6571" x1="30.3425" y1="70.9376" x2="135.343" y2="164.623" gradientUnits="userSpaceOnUse">
<stop stop-color="#C9A4FF"/>
<stop offset="1" stop-color="#6F03E0"/>
</linearGradient>
<linearGradient id="paint4_linear_1777_6571" x1="55.3439" y1="42.8925" x2="160.368" y2="136.601" gradientUnits="userSpaceOnUse">
<stop stop-color="#C9A4FF"/>
<stop offset="1" stop-color="#6F03E0"/>
</linearGradient>
<linearGradient id="paint5_linear_1777_6571" x1="42.6921" y1="57.0777" x2="147.704" y2="150.774" gradientUnits="userSpaceOnUse">
<stop stop-color="#C9A4FF"/>
<stop offset="1" stop-color="#6F03E0"/>
</linearGradient>
<linearGradient id="paint6_linear_1777_6571" x1="41.8672" y1="58.0419" x2="146.856" y2="151.715" gradientUnits="userSpaceOnUse">
<stop stop-color="#C9A4FF"/>
<stop offset="1" stop-color="#6F03E0"/>
</linearGradient>
<linearGradient id="paint7_linear_1777_6571" x1="37.4408" y1="62.9911" x2="142.43" y2="156.664" gradientUnits="userSpaceOnUse">
<stop stop-color="#C9A4FF"/>
<stop offset="1" stop-color="#6F03E0"/>
</linearGradient>
<linearGradient id="paint8_linear_1777_6571" x1="54.728" y1="43.6244" x2="159.717" y2="137.298" gradientUnits="userSpaceOnUse">
<stop stop-color="#C9A4FF"/>
<stop offset="1" stop-color="#6F03E0"/>
</linearGradient>
<linearGradient id="paint9_linear_1777_6571" x1="31.5508" y1="69.5667" x2="136.575" y2="163.275" gradientUnits="userSpaceOnUse">
<stop stop-color="#C9A4FF"/>
<stop offset="1" stop-color="#6F03E0"/>
</linearGradient>
<linearGradient id="paint10_linear_1777_6571" x1="51.5448" y1="47.1911" x2="156.534" y2="140.865" gradientUnits="userSpaceOnUse">
<stop stop-color="#C9A4FF"/>
<stop offset="1" stop-color="#6F03E0"/>
</linearGradient>
<linearGradient id="paint11_linear_1777_6571" x1="33.549" y1="67.3361" x2="138.561" y2="161.033" gradientUnits="userSpaceOnUse">
<stop stop-color="#C9A4FF"/>
<stop offset="1" stop-color="#6F03E0"/>
</linearGradient>
<linearGradient id="paint12_linear_1777_6571" x1="39.2534" y1="60.958" x2="144.254" y2="154.643" gradientUnits="userSpaceOnUse">
<stop stop-color="#C9A4FF"/>
<stop offset="1" stop-color="#6F03E0"/>
</linearGradient>
<linearGradient id="paint13_linear_1777_6571" x1="48.9076" y1="50.1303" x2="153.897" y2="143.815" gradientUnits="userSpaceOnUse">
<stop stop-color="#C9A4FF"/>
<stop offset="1" stop-color="#6F03E0"/>
</linearGradient>
<linearGradient id="paint14_linear_1777_6571" x1="42.4015" y1="57.4262" x2="147.391" y2="151.111" gradientUnits="userSpaceOnUse">
<stop stop-color="#C9A4FF"/>
<stop offset="1" stop-color="#6F03E0"/>
</linearGradient>
<linearGradient id="paint15_linear_1777_6571" x1="50.7665" y1="48.0507" x2="155.779" y2="141.736" gradientUnits="userSpaceOnUse">
<stop stop-color="#C9A4FF"/>
<stop offset="1" stop-color="#6F03E0"/>
</linearGradient>
<linearGradient id="paint16_linear_1777_6571" x1="67.9489" y1="28.7886" x2="172.95" y2="122.474" gradientUnits="userSpaceOnUse">
<stop stop-color="#C9A4FF"/>
<stop offset="1" stop-color="#6F03E0"/>
</linearGradient>
<linearGradient id="paint17_linear_1777_6571" x1="66.8686" y1="29.9969" x2="171.869" y2="123.682" gradientUnits="userSpaceOnUse">
<stop stop-color="#C9A4FF"/>
<stop offset="1" stop-color="#6F03E0"/>
</linearGradient>
<linearGradient id="paint18_linear_1777_6571" x1="67.9257" y1="28.8235" x2="172.926" y2="122.508" gradientUnits="userSpaceOnUse">
<stop stop-color="#C9A4FF"/>
<stop offset="1" stop-color="#6F03E0"/>
</linearGradient>
<linearGradient id="paint19_linear_1777_6571" x1="74.5477" y1="21.3882" x2="179.548" y2="115.085" gradientUnits="userSpaceOnUse">
<stop stop-color="#C9A4FF"/>
<stop offset="1" stop-color="#6F03E0"/>
</linearGradient>
<linearGradient id="paint20_linear_1777_6571" x1="61.0481" y1="36.5144" x2="166.06" y2="130.211" gradientUnits="userSpaceOnUse">
<stop stop-color="#C9A4FF"/>
<stop offset="1" stop-color="#6F03E0"/>
</linearGradient>
<linearGradient id="paint21_linear_1777_6571" x1="86.1771" y1="8.3415" x2="191.213" y2="102.05" gradientUnits="userSpaceOnUse">
<stop stop-color="#C9A4FF"/>
<stop offset="1" stop-color="#6F03E0"/>
</linearGradient>
<linearGradient id="paint22_linear_1777_6571" x1="86.061" y1="8.48087" x2="191.073" y2="102.178" gradientUnits="userSpaceOnUse">
<stop stop-color="#C9A4FF"/>
<stop offset="1" stop-color="#6F03E0"/>
</linearGradient>
<linearGradient id="paint23_linear_1777_6571" x1="73.421" y1="22.6662" x2="178.398" y2="116.34" gradientUnits="userSpaceOnUse">
<stop stop-color="#C9A4FF"/>
<stop offset="1" stop-color="#6F03E0"/>
</linearGradient>
<linearGradient id="paint24_linear_1777_6571" x1="98.6544" y1="-5.63453" x2="203.69" y2="88.0854" gradientUnits="userSpaceOnUse">
<stop stop-color="#C9A4FF"/>
<stop offset="1" stop-color="#6F03E0"/>
</linearGradient>
<linearGradient id="paint25_linear_1777_6571" x1="72.5611" y1="23.6072" x2="177.585" y2="117.315" gradientUnits="userSpaceOnUse">
<stop stop-color="#C9A4FF"/>
<stop offset="1" stop-color="#6F03E0"/>
</linearGradient>
<linearGradient id="paint26_linear_1777_6571" x1="68.1349" y1="28.5679" x2="173.159" y2="122.276" gradientUnits="userSpaceOnUse">
<stop stop-color="#C9A4FF"/>
<stop offset="1" stop-color="#6F03E0"/>
</linearGradient>
<linearGradient id="paint27_linear_1777_6571" x1="85.4335" y1="9.18955" x2="190.434" y2="102.886" gradientUnits="userSpaceOnUse">
<stop stop-color="#C9A4FF"/>
<stop offset="1" stop-color="#6F03E0"/>
</linearGradient>
<linearGradient id="paint28_linear_1777_6571" x1="97.5857" y1="-4.42634" x2="202.586" y2="89.2703" gradientUnits="userSpaceOnUse">
<stop stop-color="#C9A4FF"/>
<stop offset="1" stop-color="#6F03E0"/>
</linearGradient>
<linearGradient id="paint29_linear_1777_6571" x1="62.2679" y1="35.1551" x2="167.269" y2="128.84" gradientUnits="userSpaceOnUse">
<stop stop-color="#C9A4FF"/>
<stop offset="1" stop-color="#6F03E0"/>
</linearGradient>
<linearGradient id="paint30_linear_1777_6571" x1="82.2387" y1="12.7679" x2="187.251" y2="106.465" gradientUnits="userSpaceOnUse">
<stop stop-color="#C9A4FF"/>
<stop offset="1" stop-color="#6F03E0"/>
</linearGradient>
<linearGradient id="paint31_linear_1777_6571" x1="64.2661" y1="32.9129" x2="169.29" y2="126.621" gradientUnits="userSpaceOnUse">
<stop stop-color="#C9A4FF"/>
<stop offset="1" stop-color="#6F03E0"/>
</linearGradient>
<linearGradient id="paint32_linear_1777_6571" x1="69.9589" y1="26.5348" x2="174.971" y2="120.22" gradientUnits="userSpaceOnUse">
<stop stop-color="#C9A4FF"/>
<stop offset="1" stop-color="#6F03E0"/>
</linearGradient>
<linearGradient id="paint33_linear_1777_6571" x1="84.086" y1="10.7114" x2="189.075" y2="104.385" gradientUnits="userSpaceOnUse">
<stop stop-color="#C9A4FF"/>
<stop offset="1" stop-color="#6F03E0"/>
</linearGradient>
<linearGradient id="paint34_linear_1777_6571" x1="37.7545" y1="62.6309" x2="142.755" y2="156.328" gradientUnits="userSpaceOnUse">
<stop stop-color="#C9A4FF"/>
<stop offset="1" stop-color="#6F03E0"/>
</linearGradient>
<linearGradient id="paint35_linear_1777_6571" x1="28.3792" y1="73.145" x2="133.368" y2="166.83" gradientUnits="userSpaceOnUse">
<stop stop-color="#C9A4FF"/>
<stop offset="1" stop-color="#6F03E0"/>
</linearGradient>
<linearGradient id="paint36_linear_1777_6571" x1="39.2418" y1="60.9696" x2="144.231" y2="154.643" gradientUnits="userSpaceOnUse">
<stop stop-color="#C9A4FF"/>
<stop offset="1" stop-color="#6F03E0"/>
</linearGradient>
<linearGradient id="paint37_linear_1777_6571" x1="39.3346" y1="60.865" x2="144.358" y2="154.573" gradientUnits="userSpaceOnUse">
<stop stop-color="#C9A4FF"/>
<stop offset="1" stop-color="#6F03E0"/>
</linearGradient>
<linearGradient id="paint38_linear_1777_6571" x1="47.1417" y1="52.1169" x2="152.142" y2="145.802" gradientUnits="userSpaceOnUse">
<stop stop-color="#C9A4FF"/>
<stop offset="1" stop-color="#6F03E0"/>
</linearGradient>
<linearGradient id="paint39_linear_1777_6571" x1="18.2021" y1="84.5536" x2="123.191" y2="178.239" gradientUnits="userSpaceOnUse">
<stop stop-color="#C9A4FF"/>
<stop offset="1" stop-color="#6F03E0"/>
</linearGradient>
<linearGradient id="paint40_linear_1777_6571" x1="11.6845" y1="91.8495" x2="116.685" y2="185.535" gradientUnits="userSpaceOnUse">
<stop stop-color="#C9A4FF"/>
<stop offset="1" stop-color="#6F03E0"/>
</linearGradient>
<linearGradient id="paint41_linear_1777_6571" x1="20.0494" y1="82.4624" x2="125.062" y2="176.159" gradientUnits="userSpaceOnUse">
<stop stop-color="#C9A4FF"/>
<stop offset="1" stop-color="#6F03E0"/>
</linearGradient>
<linearGradient id="paint42_linear_1777_6571" x1="8.52441" y1="95.3812" x2="113.537" y2="189.078" gradientUnits="userSpaceOnUse">
<stop stop-color="#C9A4FF"/>
<stop offset="1" stop-color="#6F03E0"/>
</linearGradient>
<linearGradient id="paint43_linear_1777_6571" x1="8.62905" y1="95.2883" x2="113.606" y2="188.95" gradientUnits="userSpaceOnUse">
<stop stop-color="#C9A4FF"/>
<stop offset="1" stop-color="#6F03E0"/>
</linearGradient>
<linearGradient id="paint44_linear_1777_6571" x1="16.4362" y1="86.54" x2="121.414" y2="180.213" gradientUnits="userSpaceOnUse">
<stop stop-color="#C9A4FF"/>
<stop offset="1" stop-color="#6F03E0"/>
</linearGradient>
<linearGradient id="paint45_linear_1777_6571" x1="20.2701" y1="82.2416" x2="125.247" y2="175.915" gradientUnits="userSpaceOnUse">
<stop stop-color="#C9A4FF"/>
<stop offset="1" stop-color="#6F03E0"/>
</linearGradient>
<linearGradient id="paint46_linear_1777_6571" x1="19.2825" y1="83.3336" x2="124.271" y2="177.007" gradientUnits="userSpaceOnUse">
<stop stop-color="#C9A4FF"/>
<stop offset="1" stop-color="#6F03E0"/>
</linearGradient>
<linearGradient id="paint47_linear_1777_6571" x1="30.1566" y1="71.1467" x2="135.157" y2="164.832" gradientUnits="userSpaceOnUse">
<stop stop-color="#C9A4FF"/>
<stop offset="1" stop-color="#6F03E0"/>
</linearGradient>
<linearGradient id="paint48_linear_1777_6571" x1="53.3919" y1="45.1347" x2="158.358" y2="138.785" gradientUnits="userSpaceOnUse">
<stop stop-color="#C9A4FF"/>
<stop offset="1" stop-color="#6F03E0"/>
</linearGradient>
<linearGradient id="paint49_linear_1777_6571" x1="7.03739" y1="97.0658" x2="112.026" y2="190.728" gradientUnits="userSpaceOnUse">
<stop stop-color="#C9A4FF"/>
<stop offset="1" stop-color="#6F03E0"/>
</linearGradient>
<linearGradient id="paint50_linear_1777_6571" x1="-2.32641" y1="107.568" x2="102.651" y2="201.23" gradientUnits="userSpaceOnUse">
<stop stop-color="#C9A4FF"/>
<stop offset="1" stop-color="#6F03E0"/>
</linearGradient>
<linearGradient id="paint51_linear_1777_6571" x1="-10.4471" y1="116.653" x2="94.5536" y2="210.338" gradientUnits="userSpaceOnUse">
<stop stop-color="#C9A4FF"/>
<stop offset="1" stop-color="#6F03E0"/>
</linearGradient>
<linearGradient id="paint52_linear_1777_6571" x1="-11.4463" y1="117.734" x2="93.5893" y2="211.465" gradientUnits="userSpaceOnUse">
<stop stop-color="#C9A4FF"/>
<stop offset="1" stop-color="#6F03E0"/>
</linearGradient>
<linearGradient id="paint53_linear_1777_6571" x1="-0.548842" y1="105.57" x2="104.44" y2="199.255" gradientUnits="userSpaceOnUse">
<stop stop-color="#C9A4FF"/>
<stop offset="1" stop-color="#6F03E0"/>
</linearGradient>
<clipPath id="clip0_1777_6571">
<rect width="260.596" height="268.636" fill="white" transform="translate(32.2478)"/>
</clipPath>
</defs>
</svg>
