<svg width="269" height="221" viewBox="0 0 269 221" fill="none" xmlns="http://www.w3.org/2000/svg">
<g clip-path="url(#clip0_1777_7781)">
<path d="M129.078 132.501H57.2619C41.7284 132.501 29.0935 119.866 29.0935 104.332C29.0935 104.117 29.2631 103.947 29.479 103.947C29.6948 103.947 29.8644 104.117 29.8644 104.332C29.8644 119.442 42.1524 131.73 57.2619 131.73H128.693V111.88C128.693 111.664 128.862 111.494 129.078 111.494C129.294 111.494 129.464 111.664 129.464 111.88V132.115C129.464 132.331 129.294 132.501 129.078 132.501Z" fill="#6F03E0"/>
<path d="M58.5184 92.0443V87.4498H46.6621L32.6473 79.3555C30.774 78.2762 27.5131 78.4073 25.3469 79.6561L11.8563 87.4421H0V92.2987H0.00770892C-0.0462535 93.0311 0.362319 93.7326 1.26426 94.2568L25.8789 108.472C27.7521 109.551 31.013 109.42 33.1792 108.171L56.7454 94.5652C57.9942 93.8482 58.5955 92.9154 58.5261 92.0443H58.5184Z" fill="#312A91"/>
<path opacity="0.5" d="M58.5184 92.0443V87.4498H46.6621L32.6473 79.3555C30.774 78.2762 27.5131 78.4073 25.3469 79.6561L11.8563 87.4421H0V92.2987H0.00770892C-0.0462535 93.0311 0.362319 93.7326 1.26426 94.2568L25.8789 108.472C27.7521 109.551 31.013 109.42 33.1792 108.171L56.7454 94.5652C57.9942 93.8482 58.5955 92.9154 58.5261 92.0443H58.5184Z" fill="url(#paint0_linear_1777_7781)"/>
<path d="M32.6551 79.3555C31.7532 78.839 30.5352 78.6 29.2632 78.6308V109.189C30.6354 109.158 32.0538 108.811 33.1793 108.164L56.7455 94.5575C57.9943 93.8405 58.5956 92.9077 58.5263 92.0366V87.4421H46.6699L32.6551 79.3477V79.3555Z" fill="url(#paint1_linear_1777_7781)"/>
<path d="M25.8791 103.615L1.26455 89.4078C-0.608715 88.3286 -0.369738 86.4399 1.78876 85.1911L25.3549 71.5848C27.5134 70.336 30.782 70.2049 32.6553 71.2842L57.2699 85.4994C59.1431 86.5787 58.9042 88.4673 56.7457 89.7162L33.1795 103.322C31.021 104.571 27.7524 104.702 25.8791 103.623V103.615Z" fill="#312A91"/>
<path opacity="0.5" d="M25.8791 103.615L1.26455 89.4078C-0.608715 88.3286 -0.369738 86.4399 1.78876 85.1911L25.3549 71.5848C27.5134 70.336 30.782 70.2049 32.6553 71.2842L57.2699 85.4994C59.1431 86.5787 58.9042 88.4673 56.7457 89.7162L33.1795 103.322C31.021 104.571 27.7524 104.702 25.8791 103.623V103.615Z" fill="url(#paint2_linear_1777_7781)"/>
<path d="M26.5342 100.478L6.6991 89.0302C5.19586 88.1591 5.38087 86.6404 7.12309 85.6382L26.1102 74.6762C27.8524 73.674 30.4811 73.5661 31.9921 74.4295L51.8271 85.8772C53.3304 86.7483 53.1454 88.267 51.4031 89.2691L32.4161 100.231C30.6738 101.233 28.0451 101.341 26.5342 100.478Z" fill="#5CFFF3"/>
<path d="M7.12296 87.1182L26.11 76.1561C27.8523 75.154 30.481 75.0461 31.9919 75.9095L51.827 87.3572C52.197 87.5731 52.4668 87.8275 52.6364 88.105C53.0758 87.3032 52.8215 86.4476 51.827 85.8771L31.9919 74.4293C30.4887 73.5582 27.8523 73.6662 26.11 74.676L7.12296 85.6381C5.81245 86.3936 5.38075 87.442 5.89725 88.29C6.1208 87.8737 6.52938 87.4728 7.12296 87.1259V87.1182Z" fill="#62EEFF"/>
<path opacity="0.5" d="M26.7038 103.615L2.08916 89.4079C0.215895 88.3286 -0.231222 86.7406 2.61337 85.1911L26.1795 71.5849C27.2434 70.9681 28.5693 70.629 29.8721 70.5673C28.3226 70.4979 26.6421 70.8448 25.3547 71.5849L1.78852 85.1911C-0.369983 86.44 -0.608959 88.3209 1.26431 89.4079L25.8789 103.623C26.8271 104.17 28.1376 104.402 29.4867 104.34C28.446 104.294 27.4592 104.055 26.7115 103.623L26.7038 103.615Z" fill="url(#paint3_linear_1777_7781)"/>
<path opacity="0.5" d="M56.7454 91.759L33.1792 105.365C31.0207 106.614 27.7521 106.745 25.8789 105.666L1.26426 91.4583C0.362319 90.9418 -0.0385446 90.2326 0.00770892 89.5002H0V90.5101H0.00770892C-0.0462535 91.2425 0.362319 91.944 1.26426 92.4682L25.8789 106.683C27.7521 107.763 31.013 107.632 33.1792 106.383L56.7454 92.7765C57.9942 92.0596 58.5955 91.1268 58.5261 90.2557V89.2458C58.5955 90.117 57.9942 91.042 56.7454 91.7667V91.759Z" fill="url(#paint4_linear_1777_7781)"/>
<path d="M52.4669 90.4179C52.7367 90.5721 52.7367 90.8264 52.4669 90.9806C52.1971 91.1348 51.7654 91.1348 51.4956 90.9806C51.2258 90.8264 51.2258 90.5721 51.4956 90.4179C51.7654 90.2637 52.1971 90.2637 52.4669 90.4179Z" fill="#FCCC6B"/>
<path d="M53.9855 89.5468C54.2553 89.701 54.2553 89.9554 53.9855 90.1095C53.7156 90.2637 53.2839 90.2637 53.0141 90.1095C52.7443 89.9554 52.7443 89.701 53.0141 89.5468C53.2839 89.3926 53.7156 89.3926 53.9855 89.5468Z" fill="#FCCC6B"/>
<path d="M55.4964 88.6679C55.7662 88.8221 55.7662 89.0765 55.4964 89.2306C55.2266 89.3848 54.7949 89.3848 54.5251 89.2306C54.2553 89.0765 54.2553 88.8221 54.5251 88.6679C54.7949 88.5137 55.2266 88.5137 55.4964 88.6679Z" fill="#FCCC6B"/>
<path d="M58.5184 72.7257V68.1312H46.6621L32.6473 60.0368C30.774 58.9576 27.5131 59.0886 25.3469 60.3375L11.8563 68.1235H0V72.9801H0.00770892C-0.0462535 73.7125 0.362319 74.414 1.26426 74.9382L25.8789 89.1534C27.7521 90.2327 31.013 90.1016 33.1792 88.8528L56.7454 75.2466C57.9942 74.5296 58.5955 73.5968 58.5261 72.7257H58.5184Z" fill="#312A91"/>
<path opacity="0.5" d="M58.5184 72.7257V68.1312H46.6621L32.6473 60.0368C30.774 58.9576 27.5131 59.0886 25.3469 60.3375L11.8563 68.1235H0V72.9801H0.00770892C-0.0462535 73.7125 0.362319 74.414 1.26426 74.9382L25.8789 89.1534C27.7521 90.2327 31.013 90.1016 33.1792 88.8528L56.7454 75.2466C57.9942 74.5296 58.5955 73.5968 58.5261 72.7257H58.5184Z" fill="url(#paint5_linear_1777_7781)"/>
<path d="M32.6551 60.0368C31.7532 59.5203 30.5352 59.2814 29.2632 59.3122V89.8704C30.6354 89.8395 32.0538 89.4926 33.1793 88.8451L56.7455 75.2388C57.9943 74.5219 58.5956 73.5891 58.5263 72.718V68.1235H46.6699L32.6551 60.0291V60.0368Z" fill="url(#paint6_linear_1777_7781)"/>
<path d="M25.8791 84.2969L1.26455 70.0817C-0.608715 69.0024 -0.369738 67.1137 1.78876 65.8649L25.3549 52.2586C27.5134 51.0098 30.782 50.8787 32.6553 51.958L57.2699 66.1732C59.1431 67.2525 58.9042 69.1412 56.7457 70.39L33.1795 83.9963C31.021 85.2451 27.7524 85.3762 25.8791 84.2969Z" fill="#312A91"/>
<path opacity="0.5" d="M25.8791 84.2969L1.26455 70.0817C-0.608715 69.0024 -0.369738 67.1137 1.78876 65.8649L25.3549 52.2586C27.5134 51.0098 30.782 50.8787 32.6553 51.958L57.2699 66.1732C59.1431 67.2525 58.9042 69.1412 56.7457 70.39L33.1795 83.9963C31.021 85.2451 27.7524 85.3762 25.8791 84.2969Z" fill="url(#paint7_linear_1777_7781)"/>
<path d="M26.5342 81.1593L6.6991 69.7116C5.19586 68.8405 5.38087 67.3218 7.12309 66.3196L26.1102 55.3576C27.8524 54.3554 30.4811 54.2475 31.9921 55.1109L51.8271 66.5586C53.3304 67.4297 53.1454 68.9484 51.4031 69.9505L32.4161 80.9126C30.6738 81.9148 28.0451 82.0227 26.5342 81.1593Z" fill="#5CFFF3"/>
<path d="M7.12296 67.7921L26.11 56.83C27.8523 55.8278 30.481 55.7199 31.9919 56.5833L51.827 68.031C52.197 68.2469 52.4668 68.5013 52.6364 68.7788C53.0758 67.9771 52.8215 67.1214 51.827 66.5509L31.9919 55.1032C30.4887 54.2321 27.8523 54.34 26.11 55.3499L7.12296 66.3119C5.81245 67.0674 5.38075 68.1158 5.89725 68.9638C6.1208 68.5475 6.52938 68.1467 7.12296 67.7998V67.7921Z" fill="#62EEFF"/>
<path opacity="0.5" d="M26.7038 84.297L2.08916 70.0817C0.215895 69.0025 -0.231222 67.4144 2.61337 65.8649L26.1795 52.2587C27.2434 51.642 28.5693 51.3028 29.8721 51.2411C28.3226 51.1717 26.6421 51.5186 25.3547 52.2587L1.78852 65.8726C-0.369983 67.1215 -0.608959 69.0025 1.26431 70.0894L25.8789 84.3047C26.8271 84.852 28.1376 85.0833 29.4867 85.0216C28.446 84.9753 27.4592 84.7364 26.7115 84.3047L26.7038 84.297Z" fill="url(#paint8_linear_1777_7781)"/>
<path opacity="0.5" d="M56.7454 72.4406L33.1792 86.0468C31.0207 87.2957 27.7521 87.4267 25.8789 86.3475L1.26426 72.14C0.362319 71.6235 -0.0385446 70.9142 0.00770892 70.1819H0V71.1918H0.00770892C-0.0462535 71.9241 0.362319 72.6256 1.26426 73.1498L25.8789 87.3651C27.7521 88.4443 31.013 88.3133 33.1792 87.0644L56.7454 73.4582C57.9942 72.7412 58.5955 71.8085 58.5261 70.9374V69.9275C58.5955 70.7986 57.9942 71.7237 56.7454 72.4483V72.4406Z" fill="url(#paint9_linear_1777_7781)"/>
<path d="M52.4669 71.0993C52.7367 71.2535 52.7367 71.5078 52.4669 71.662C52.1971 71.8162 51.7654 71.8162 51.4956 71.662C51.2258 71.5078 51.2258 71.2535 51.4956 71.0993C51.7654 70.9451 52.1971 70.9451 52.4669 71.0993Z" fill="#FCCC6B"/>
<path d="M53.9855 70.2282C54.2553 70.3824 54.2553 70.6368 53.9855 70.7909C53.7156 70.9451 53.2839 70.9451 53.0141 70.7909C52.7443 70.6368 52.7443 70.3824 53.0141 70.2282C53.2839 70.074 53.7156 70.074 53.9855 70.2282Z" fill="#FCCC6B"/>
<path d="M55.4964 69.3493C55.7662 69.5035 55.7662 69.7579 55.4964 69.912C55.2266 70.0662 54.7949 70.0662 54.5251 69.912C54.2553 69.7579 54.2553 69.5035 54.5251 69.3493C54.7949 69.1951 55.2266 69.1951 55.4964 69.3493Z" fill="#FCCC6B"/>
<path d="M58.5184 53.4074V48.8129H46.6621L32.6473 40.7185C30.774 39.6392 27.5131 39.7703 25.3469 41.0191L11.8563 48.8051H0V53.6618H0.00770892C-0.0462535 54.3941 0.362319 55.0956 1.26426 55.6198L25.8789 69.8351C27.7521 70.9143 31.013 70.7833 33.1792 69.5344L56.7454 55.9282C57.9942 55.2113 58.5955 54.2785 58.5261 53.4074H58.5184Z" fill="#312A91"/>
<path opacity="0.5" d="M58.5184 53.4074V48.8129H46.6621L32.6473 40.7185C30.774 39.6392 27.5131 39.7703 25.3469 41.0191L11.8563 48.8051H0V53.6618H0.00770892C-0.0462535 54.3941 0.362319 55.0956 1.26426 55.6198L25.8789 69.8351C27.7521 70.9143 31.013 70.7833 33.1792 69.5344L56.7454 55.9282C57.9942 55.2113 58.5955 54.2785 58.5261 53.4074H58.5184Z" fill="url(#paint10_linear_1777_7781)"/>
<path d="M32.6551 40.7185C31.7532 40.202 30.5352 39.963 29.2632 39.9939V70.552C30.6354 70.5212 32.0538 70.1743 33.1793 69.5267L56.7455 55.9205C57.9943 55.2036 58.5956 54.2708 58.5263 53.3997V48.8052H46.6699L32.6551 40.7108V40.7185Z" fill="url(#paint11_linear_1777_7781)"/>
<path d="M25.8791 64.9786L1.26455 50.7633C-0.608715 49.6841 -0.369738 47.7954 1.78876 46.5465L25.3549 32.9403C27.5134 31.6914 30.782 31.5604 32.6553 32.6396L57.2699 46.8549C59.1431 47.9341 58.9042 49.8228 56.7457 51.0717L33.1795 64.6779C31.021 65.9268 27.7524 66.0578 25.8791 64.9786Z" fill="#312A91"/>
<path opacity="0.5" d="M25.8791 64.9786L1.26455 50.7633C-0.608715 49.6841 -0.369738 47.7954 1.78876 46.5465L25.3549 32.9403C27.5134 31.6914 30.782 31.5604 32.6553 32.6396L57.2699 46.8549C59.1431 47.9341 58.9042 49.8228 56.7457 51.0717L33.1795 64.6779C31.021 65.9268 27.7524 66.0578 25.8791 64.9786Z" fill="url(#paint12_linear_1777_7781)"/>
<path d="M26.5342 61.8331L6.6991 50.3854C5.19586 49.5143 5.38087 47.9956 7.12309 46.9935L26.1102 36.0314C27.8524 35.0292 30.4811 34.9213 31.9921 35.7847L51.8271 47.2325C53.3304 48.1036 53.1454 49.6222 51.4031 50.6244L32.4161 61.5865C30.6738 62.5886 28.0451 62.6965 26.5342 61.8331Z" fill="#352885"/>
<path d="M7.12296 48.4735L26.11 37.5114C27.8523 36.5092 30.481 36.4013 31.9919 37.2647L51.827 48.7124C52.197 48.9283 52.4668 49.1827 52.6364 49.4602C53.0758 48.6585 52.8215 47.8028 51.827 47.2323L31.9919 35.7846C30.4887 34.9135 27.8523 35.0214 26.11 36.0313L7.12296 46.9933C5.81245 47.7488 5.38075 48.7972 5.89725 49.6452C6.1208 49.2289 6.52938 48.8281 7.12296 48.4812V48.4735Z" fill="#62EEFF"/>
<path opacity="0.5" d="M26.7038 64.9781L2.08916 50.7629C0.215895 49.6836 -0.231222 48.0956 2.61337 46.5461L26.1795 32.9398C27.2434 32.3231 28.5693 31.9839 29.8721 31.9223C28.3226 31.8529 26.6421 32.1998 25.3547 32.9398L1.78852 46.5538C-0.369983 47.8026 -0.608959 49.6836 1.26431 50.7706L25.8789 64.9858C26.8271 65.5332 28.1376 65.7644 29.4867 65.7028C28.446 65.6565 27.4592 65.4175 26.7115 64.9858L26.7038 64.9781Z" fill="url(#paint13_linear_1777_7781)"/>
<path opacity="0.5" d="M56.7454 53.1221L33.1792 66.7284C31.0207 67.9772 27.7521 68.1083 25.8789 67.029L1.26426 52.8138C0.362319 52.2973 -0.0385446 51.5881 0.00770892 50.8557H0V51.8656H0.00770892C-0.0462535 52.5979 0.362319 53.2994 1.26426 53.8236L25.8789 68.0389C27.7521 69.1182 31.013 68.9871 33.1792 67.7383L56.7454 54.132C57.9942 53.4151 58.5955 52.4823 58.5261 51.6112V50.6013C58.5955 51.4724 57.9942 52.3975 56.7454 53.1221Z" fill="url(#paint14_linear_1777_7781)"/>
<path d="M52.4669 51.7807C52.7367 51.9349 52.7367 52.1892 52.4669 52.3434C52.1971 52.4976 51.7654 52.4976 51.4956 52.3434C51.2258 52.1892 51.2258 51.9349 51.4956 51.7807C51.7654 51.6265 52.1971 51.6265 52.4669 51.7807Z" fill="#FCCC6B"/>
<path d="M53.9855 50.9018C54.2553 51.0559 54.2553 51.3103 53.9855 51.4645C53.7156 51.6187 53.2839 51.6187 53.0141 51.4645C52.7443 51.3103 52.7443 51.0559 53.0141 50.9018C53.2839 50.7476 53.7156 50.7476 53.9855 50.9018Z" fill="#FCCC6B"/>
<path d="M55.4964 50.0307C55.7662 50.1849 55.7662 50.4392 55.4964 50.5934C55.2266 50.7476 54.7949 50.7476 54.5251 50.5934C54.2553 50.4392 54.2553 50.1849 54.5251 50.0307C54.7949 49.8765 55.2266 49.8765 55.4964 50.0307Z" fill="#FCCC6B"/>
<path d="M7.12313 103.454C6.7454 103.454 6.37537 103.353 6.03618 103.161C5.35008 102.768 4.94922 102.058 4.94922 101.272V69.4264C4.94922 67.0213 6.24432 64.7703 8.33344 63.5677L13.8222 60.3993C14.0072 60.2914 14.2385 60.353 14.3464 60.5381C14.4543 60.7231 14.3926 60.9543 14.2076 61.0623L8.71888 64.2306C6.86874 65.2945 5.72011 67.2834 5.72011 69.4187V101.264C5.72011 101.773 5.98221 102.228 6.42162 102.482C6.86103 102.737 7.39295 102.737 7.83236 102.482L13.8222 99.021C14.0072 98.9131 14.2385 98.9748 14.3464 99.1598C14.4543 99.3448 14.3926 99.576 14.2076 99.684L8.2178 103.145C7.87861 103.346 7.50087 103.438 7.13084 103.438L7.12313 103.454Z" fill="#6F03E0"/>
<path d="M5.32684 85.3994C5.2035 85.3994 5.08015 85.3377 5.01848 85.2221C4.91827 85.0525 4.97994 84.829 5.14953 84.7287L13.8298 79.7179C13.9994 79.6177 14.2229 79.6794 14.3232 79.849C14.4234 80.0186 14.3617 80.2422 14.1921 80.3424L5.51185 85.3532C5.45789 85.384 5.39622 85.3994 5.33455 85.3994H5.32684Z" fill="#6F03E0"/>
<path d="M51.4647 103.454C51.087 103.454 50.7169 103.353 50.3777 103.161L44.3879 99.6993C44.2029 99.5914 44.1412 99.3601 44.2492 99.1751C44.3571 98.9901 44.5883 98.9285 44.7734 99.0364L50.7632 102.498C51.2026 102.752 51.7345 102.752 52.1739 102.498C52.6133 102.243 52.8754 101.788 52.8754 101.28V69.4341C52.8754 67.2987 51.7268 65.3098 49.8767 64.246L44.3879 61.0776C44.2029 60.9697 44.1412 60.7385 44.2492 60.5534C44.3571 60.3684 44.5883 60.3068 44.7734 60.4147L50.2621 63.583C52.3512 64.7856 53.6463 67.0289 53.6463 69.4418V101.287C53.6463 102.074 53.2378 102.783 52.5594 103.176C52.2202 103.376 51.8424 103.469 51.4724 103.469L51.4647 103.454Z" fill="#6F03E0"/>
<path d="M53.2532 85.3992C53.1915 85.3992 53.1298 85.3838 53.0759 85.3529L44.3956 80.3421C44.226 80.2419 44.1644 80.0261 44.2646 79.8488C44.3648 79.6792 44.5806 79.6175 44.7579 79.7177L53.4382 84.7285C53.6078 84.8287 53.6695 85.0446 53.5692 85.2219C53.4999 85.3375 53.3842 85.3992 53.2609 85.3992H53.2532Z" fill="#6F03E0"/>
<path d="M211.286 132.454H139.47C139.254 132.454 139.084 132.285 139.084 132.069V111.833C139.084 111.617 139.254 111.448 139.47 111.448C139.686 111.448 139.855 111.617 139.855 111.833V131.684H211.286C226.396 131.684 238.684 119.396 238.684 104.286C238.684 104.07 238.853 103.901 239.069 103.901C239.285 103.901 239.455 104.07 239.455 104.286C239.455 119.82 226.82 132.454 211.286 132.454Z" fill="#6F03E0"/>
<path d="M210.03 91.9979V87.4034H221.886L235.901 79.3091C237.774 78.2298 241.035 78.3609 243.201 79.6097L256.692 87.3957H268.556V92.2523H268.548C268.602 92.9847 268.193 93.6862 267.291 94.2104L242.677 108.426C240.804 109.505 237.543 109.374 235.376 108.125L211.81 94.5188C210.561 93.8018 209.96 92.8691 210.03 91.9979Z" fill="#312A91"/>
<path opacity="0.5" d="M210.03 91.9979V87.4034H221.886L235.901 79.3091C237.774 78.2298 241.035 78.3609 243.201 79.6097L256.692 87.3957H268.556V92.2523H268.548C268.602 92.9847 268.193 93.6862 267.291 94.2104L242.677 108.426C240.804 109.505 237.543 109.374 235.376 108.125L211.81 94.5188C210.561 93.8018 209.96 92.8691 210.03 91.9979Z" fill="url(#paint15_linear_1777_7781)"/>
<path d="M235.901 79.3091C236.803 78.7926 238.021 78.5536 239.293 78.5844V109.143C237.92 109.112 236.502 108.765 235.376 108.117L211.81 94.5111C210.561 93.7941 209.96 92.8614 210.03 91.9902V87.3957H221.886L235.901 79.3014V79.3091Z" fill="url(#paint16_linear_1777_7781)"/>
<path d="M242.669 103.569L267.284 89.3539C269.157 88.2746 268.918 86.3859 266.76 85.1371L243.193 71.5309C241.035 70.282 237.766 70.151 235.893 71.2302L211.278 85.4455C209.405 86.5247 209.644 88.4134 211.803 89.6622L235.369 103.268C237.527 104.517 240.796 104.648 242.669 103.569Z" fill="#312A91"/>
<path opacity="0.5" d="M242.669 103.569L267.284 89.3539C269.157 88.2746 268.918 86.3859 266.76 85.1371L243.193 71.5309C241.035 70.282 237.766 70.151 235.893 71.2302L211.278 85.4455C209.405 86.5247 209.644 88.4134 211.803 89.6622L235.369 103.268C237.527 104.517 240.796 104.648 242.669 103.569Z" fill="url(#paint17_linear_1777_7781)"/>
<path d="M242.014 100.432L261.849 88.9838C263.352 88.1127 263.167 86.594 261.425 85.5919L242.438 74.6298C240.696 73.6276 238.067 73.5197 236.556 74.3831L216.721 85.8308C215.218 86.7019 215.403 88.2206 217.145 89.2228L236.132 100.185C237.874 101.187 240.503 101.295 242.014 100.432Z" fill="#5CFFF3"/>
<path d="M261.425 87.0643L242.438 76.1022C240.696 75.1 238.067 74.9921 236.556 75.8555L216.721 87.3033C216.351 87.5191 216.081 87.7735 215.912 88.051C215.472 87.2493 215.727 86.3936 216.721 85.8231L236.556 74.3754C238.059 73.5043 240.696 73.6122 242.438 74.6221L261.425 85.5842C262.736 86.3396 263.167 87.3881 262.651 88.236C262.427 87.8197 262.019 87.4189 261.425 87.072V87.0643Z" fill="#62EEFF"/>
<path opacity="0.5" d="M241.844 103.569L266.459 89.3539C268.332 88.2747 268.779 86.6866 265.935 85.1371L242.369 71.5309C241.305 70.9142 239.979 70.575 238.676 70.5133C240.226 70.4439 241.906 70.7908 243.193 71.5309L266.76 85.1371C268.918 86.386 269.157 88.267 267.284 89.3539L242.669 103.569C241.721 104.117 240.411 104.348 239.061 104.286C240.102 104.24 241.089 104.001 241.837 103.569H241.844Z" fill="url(#paint18_linear_1777_7781)"/>
<path opacity="0.5" d="M211.803 91.7127L235.369 105.319C237.527 106.568 240.796 106.699 242.669 105.62L267.284 91.4044C268.186 90.8879 268.587 90.1786 268.54 89.4463H268.548V90.4562H268.54C268.594 91.1885 268.186 91.89 267.284 92.4142L242.669 106.629C240.796 107.709 237.535 107.578 235.369 106.329L211.803 92.7226C210.554 92.0057 209.953 91.0729 210.022 90.2018V89.1919C209.953 90.063 210.554 90.9881 211.803 91.7127Z" fill="url(#paint19_linear_1777_7781)"/>
<path d="M216.081 90.3715C215.811 90.5257 215.811 90.7801 216.081 90.9342C216.351 91.0884 216.783 91.0884 217.052 90.9342C217.322 90.7801 217.322 90.5257 217.052 90.3715C216.783 90.2173 216.351 90.2173 216.081 90.3715Z" fill="#FCCC6B"/>
<path d="M214.562 89.5004C214.293 89.6546 214.293 89.909 214.562 90.0632C214.832 90.2173 215.264 90.2173 215.534 90.0632C215.804 89.909 215.804 89.6546 215.534 89.5004C215.264 89.3462 214.832 89.3462 214.562 89.5004Z" fill="#FCCC6B"/>
<path d="M213.051 88.6215C212.782 88.7757 212.782 89.0301 213.051 89.1842C213.321 89.3384 213.753 89.3384 214.023 89.1842C214.293 89.0301 214.293 88.7757 214.023 88.6215C213.753 88.4673 213.321 88.4673 213.051 88.6215Z" fill="#FCCC6B"/>
<path d="M210.03 72.6793V68.0848H221.886L235.901 59.9905C237.774 58.9112 241.035 59.0423 243.201 60.2911L256.692 68.0771H268.556V72.9337H268.548C268.602 73.6661 268.193 74.3676 267.291 74.8918L242.677 89.1071C240.804 90.1863 237.543 90.0553 235.376 88.8064L211.81 75.2002C210.561 74.4832 209.96 73.5505 210.03 72.6793Z" fill="#312A91"/>
<path opacity="0.5" d="M210.03 72.6793V68.0848H221.886L235.901 59.9905C237.774 58.9112 241.035 59.0423 243.201 60.2911L256.692 68.0771H268.556V72.9337H268.548C268.602 73.6661 268.193 74.3676 267.291 74.8918L242.677 89.1071C240.804 90.1863 237.543 90.0553 235.376 88.8064L211.81 75.2002C210.561 74.4832 209.96 73.5505 210.03 72.6793Z" fill="url(#paint20_linear_1777_7781)"/>
<path d="M235.901 59.9905C236.803 59.474 238.021 59.235 239.293 59.2658V89.824C237.92 89.7932 236.502 89.4463 235.376 88.7987L211.81 75.1925C210.561 74.4755 209.96 73.5427 210.03 72.6716V68.0771H221.886L235.901 59.9828V59.9905Z" fill="url(#paint21_linear_1777_7781)"/>
<path d="M242.669 84.2505L267.284 70.0353C269.157 68.956 268.918 67.0673 266.76 65.8185L243.193 52.2123C241.035 50.9634 237.766 50.8324 235.893 51.9116L211.278 66.1269C209.405 67.2061 209.644 69.0948 211.803 70.3436L235.369 83.9499C237.527 85.1987 240.796 85.3298 242.669 84.2505Z" fill="#312A91"/>
<path opacity="0.5" d="M242.669 84.2505L267.284 70.0353C269.157 68.956 268.918 67.0673 266.76 65.8185L243.193 52.2123C241.035 50.9634 237.766 50.8324 235.893 51.9116L211.278 66.1269C209.405 67.2061 209.644 69.0948 211.803 70.3436L235.369 83.9499C237.527 85.1987 240.796 85.3298 242.669 84.2505Z" fill="url(#paint22_linear_1777_7781)"/>
<path d="M242.014 81.1054L261.849 69.6576C263.352 68.7865 263.167 67.2679 261.425 66.2657L242.438 55.3036C240.696 54.3014 238.067 54.1935 236.556 55.0569L216.721 66.5047C215.218 67.3758 215.403 68.8944 217.145 69.8966L236.132 80.8587C237.874 81.8608 240.503 81.9688 242.014 81.1054Z" fill="#5CFFF3"/>
<path d="M261.425 67.7457L242.438 56.7836C240.696 55.7814 238.067 55.6735 236.556 56.5369L216.721 67.9847C216.351 68.2005 216.081 68.4549 215.912 68.7324C215.472 67.9307 215.727 67.075 216.721 66.5045L236.556 55.0568C238.059 54.1857 240.696 54.2936 242.438 55.3035L261.425 66.2656C262.736 67.021 263.167 68.0695 262.651 68.9174C262.427 68.5012 262.019 68.1003 261.425 67.7534V67.7457Z" fill="#62EEFF"/>
<path opacity="0.5" d="M241.844 84.2506L266.459 70.0353C268.332 68.9561 268.779 67.368 265.935 65.8185L242.369 52.2123C241.305 51.5956 239.979 51.2564 238.676 51.1947C240.226 51.1253 241.906 51.4722 243.193 52.2123L266.76 65.8185C268.918 67.0674 269.157 68.9484 267.284 70.0353L242.669 84.2506C241.721 84.7979 240.411 85.0292 239.061 84.9675C240.102 84.9213 241.089 84.6823 241.837 84.2506H241.844Z" fill="url(#paint23_linear_1777_7781)"/>
<path opacity="0.5" d="M211.803 72.3941L235.369 86.0004C237.527 87.2492 240.796 87.3803 242.669 86.301L267.284 72.0858C268.186 71.5693 268.587 70.86 268.54 70.1277H268.548V71.1376H268.54C268.594 71.8699 268.186 72.5714 267.284 73.0956L242.669 87.3109C240.796 88.3901 237.535 88.2591 235.369 87.0102L211.803 73.404C210.554 72.687 209.953 71.7543 210.022 70.8832V69.8733C209.953 70.7444 210.554 71.6695 211.803 72.3941Z" fill="url(#paint24_linear_1777_7781)"/>
<path d="M216.081 71.0529C215.811 71.2071 215.811 71.4615 216.081 71.6156C216.351 71.7698 216.783 71.7698 217.052 71.6156C217.322 71.4615 217.322 71.2071 217.052 71.0529C216.783 70.8987 216.351 70.8987 216.081 71.0529Z" fill="#FCCC6B"/>
<path d="M214.562 70.174C214.293 70.3282 214.293 70.5826 214.562 70.7367C214.832 70.8909 215.264 70.8909 215.534 70.7367C215.804 70.5826 215.804 70.3282 215.534 70.174C215.264 70.0198 214.832 70.0198 214.562 70.174Z" fill="#FCCC6B"/>
<path d="M213.051 69.3029C212.782 69.4571 212.782 69.7115 213.051 69.8656C213.321 70.0198 213.753 70.0198 214.023 69.8656C214.293 69.7115 214.293 69.4571 214.023 69.3029C213.753 69.1487 213.321 69.1487 213.051 69.3029Z" fill="#FCCC6B"/>
<path d="M210.03 53.3532V48.7587H221.886L235.901 40.6643C237.774 39.585 241.035 39.7161 243.201 40.9649L256.692 48.7509H268.556V53.6076H268.548C268.602 54.3399 268.193 55.0414 267.291 55.5656L242.677 69.7809C240.804 70.8601 237.543 70.7291 235.376 69.4802L211.81 55.874C210.561 55.1571 209.96 54.2243 210.03 53.3532Z" fill="#312A91"/>
<path opacity="0.5" d="M210.03 53.3532V48.7587H221.886L235.901 40.6643C237.774 39.585 241.035 39.7161 243.201 40.9649L256.692 48.7509H268.556V53.6076H268.548C268.602 54.3399 268.193 55.0414 267.291 55.5656L242.677 69.7809C240.804 70.8601 237.543 70.7291 235.376 69.4802L211.81 55.874C210.561 55.1571 209.96 54.2243 210.03 53.3532Z" fill="url(#paint25_linear_1777_7781)"/>
<path d="M235.901 40.6721C236.803 40.1556 238.021 39.9166 239.293 39.9475V70.5056C237.92 70.4748 236.502 70.1279 235.376 69.4803L211.81 55.8741C210.561 55.1572 209.96 54.2244 210.03 53.3533V48.7588H221.886L235.901 40.6644V40.6721Z" fill="url(#paint26_linear_1777_7781)"/>
<path d="M242.669 64.9244L267.284 50.7091C269.157 49.6299 268.918 47.7412 266.76 46.4923L243.193 32.8861C241.035 31.6372 237.766 31.5062 235.893 32.5854L211.278 46.8007C209.405 47.8799 209.644 49.7686 211.803 51.0175L235.369 64.6237C237.527 65.8726 240.796 66.0036 242.669 64.9244Z" fill="#312A91"/>
<path opacity="0.5" d="M242.669 64.9244L267.284 50.7091C269.157 49.6299 268.918 47.7412 266.76 46.4923L243.193 32.8861C241.035 31.6372 237.766 31.5062 235.893 32.5854L211.278 46.8007C209.405 47.8799 209.644 49.7686 211.803 51.0175L235.369 64.6237C237.527 65.8726 240.796 66.0036 242.669 64.9244Z" fill="url(#paint27_linear_1777_7781)"/>
<path d="M242.014 61.7868L261.849 50.339C263.352 49.4679 263.167 47.9492 261.425 46.9471L242.438 35.985C240.696 34.9828 238.067 34.8749 236.556 35.7383L216.721 47.1861C215.218 48.0572 215.403 49.5758 217.145 50.578L236.132 61.5401C237.874 62.5422 240.503 62.6502 242.014 61.7868Z" fill="#352885"/>
<path d="M261.425 48.4273L242.438 37.4652C240.696 36.4631 238.067 36.3551 236.556 37.2185L216.721 48.6663C216.351 48.8821 216.081 49.1365 215.912 49.4141C215.472 48.6123 215.727 47.7566 216.721 47.1862L236.556 35.7384C238.059 34.8673 240.696 34.9752 242.438 35.9851L261.425 46.9472C262.736 47.7027 263.167 48.7511 262.651 49.5991C262.427 49.1828 262.019 48.7819 261.425 48.435V48.4273Z" fill="#62EEFF"/>
<path opacity="0.5" d="M241.844 64.9244L266.459 50.7092C268.332 49.6299 268.779 48.0419 265.935 46.4924L242.369 32.8861C241.305 32.2694 239.979 31.9302 238.676 31.8685C240.226 31.7992 241.906 32.1461 243.193 32.8861L266.76 46.4924C268.918 47.7412 269.157 49.6222 267.284 50.7092L242.669 64.9244C241.721 65.4717 240.411 65.703 239.061 65.6413C240.102 65.5951 241.089 65.3561 241.837 64.9244H241.844Z" fill="url(#paint28_linear_1777_7781)"/>
<path opacity="0.5" d="M211.803 53.0679L235.369 66.6742C237.527 67.923 240.796 68.0541 242.669 66.9748L267.284 52.7596C268.186 52.2431 268.587 51.5339 268.54 50.8015H268.548V51.8114H268.54C268.594 52.5437 268.186 53.2452 267.284 53.7694L242.669 67.9847C240.796 69.064 237.535 68.9329 235.369 67.6841L211.803 54.0778C210.554 53.3609 209.953 52.4281 210.022 51.557V50.5471C209.953 51.4182 210.554 52.3433 211.803 53.0679Z" fill="url(#paint29_linear_1777_7781)"/>
<path d="M216.081 51.7345C215.811 51.8887 215.811 52.1431 216.081 52.2973C216.351 52.4515 216.783 52.4515 217.052 52.2973C217.322 52.1431 217.322 51.8887 217.052 51.7345C216.783 51.5804 216.351 51.5804 216.081 51.7345Z" fill="#FCCC6B"/>
<path d="M214.562 50.8556C214.293 51.0098 214.293 51.2642 214.562 51.4184C214.832 51.5726 215.264 51.5726 215.534 51.4184C215.804 51.2642 215.804 51.0098 215.534 50.8556C215.264 50.7014 214.832 50.7014 214.562 50.8556Z" fill="#FCCC6B"/>
<path d="M213.051 49.9845C212.782 50.1387 212.782 50.3931 213.051 50.5473C213.321 50.7015 213.753 50.7015 214.023 50.5473C214.293 50.3931 214.293 50.1387 214.023 49.9845C213.753 49.8304 213.321 49.8304 213.051 49.9845Z" fill="#FCCC6B"/>
<path d="M261.433 103.407C261.055 103.407 260.685 103.307 260.346 103.114L254.356 99.653C254.171 99.545 254.109 99.3138 254.217 99.1287C254.325 98.9437 254.556 98.8821 254.741 98.99L260.731 102.451C261.171 102.706 261.695 102.706 262.142 102.451C262.581 102.197 262.843 101.742 262.843 101.233V69.3877C262.843 67.2524 261.695 65.2635 259.845 64.1996L254.356 61.0313C254.171 60.9233 254.109 60.6921 254.217 60.5071C254.325 60.322 254.556 60.2604 254.741 60.3683L260.23 63.5367C262.319 64.7393 263.614 66.9825 263.614 69.3954V101.241C263.614 102.027 263.206 102.737 262.527 103.13C262.188 103.33 261.81 103.423 261.44 103.423L261.433 103.407Z" fill="#6F03E0"/>
<path d="M263.221 85.3528C263.16 85.3528 263.098 85.3374 263.044 85.3065L254.364 80.2957C254.194 80.1955 254.132 79.9797 254.233 79.8024C254.333 79.6328 254.556 79.5711 254.726 79.6713L263.406 84.6821C263.576 84.7823 263.637 84.9982 263.537 85.1755C263.468 85.2911 263.352 85.3528 263.229 85.3528H263.221Z" fill="#6F03E0"/>
<path d="M217.083 103.407C216.706 103.407 216.336 103.307 215.996 103.114C215.318 102.721 214.909 102.012 214.909 101.226V69.3801C214.909 66.9749 216.205 64.7239 218.294 63.5213L223.782 60.3529C223.967 60.245 224.199 60.3067 224.307 60.4917C224.415 60.6767 224.353 60.908 224.168 61.0159L218.679 64.1842C216.829 65.2481 215.68 67.237 215.68 69.3723V101.218C215.68 101.727 215.942 102.182 216.382 102.436C216.821 102.69 217.345 102.69 217.793 102.436L223.782 98.9746C223.967 98.8667 224.199 98.9284 224.307 99.1134C224.415 99.2984 224.353 99.5297 224.168 99.6376L218.178 103.099C217.839 103.299 217.461 103.392 217.091 103.392L217.083 103.407Z" fill="#6F03E0"/>
<path d="M215.295 85.353C215.172 85.353 215.048 85.2914 214.987 85.1757C214.886 85.0061 214.948 84.7826 215.118 84.6824L223.798 79.6716C223.967 79.5713 224.191 79.633 224.291 79.8026C224.391 79.9722 224.33 80.1958 224.16 80.296L215.48 85.3068C215.426 85.3376 215.364 85.353 215.303 85.353H215.295Z" fill="#6F03E0"/>
<g opacity="0.2">
<path d="M178.593 194.35V187.466H160.839L139.855 175.347C137.057 173.728 132.162 173.936 128.924 175.802L108.719 187.466H90.9578V194.735H90.9732C90.8961 195.83 91.5051 196.886 92.8465 197.664L129.711 218.949C132.509 220.568 137.404 220.36 140.642 218.494L175.933 198.119C177.799 197.04 178.701 195.645 178.593 194.35Z" fill="#312A91"/>
<path opacity="0.5" d="M178.593 194.35V187.466H160.839L139.855 175.347C137.057 173.728 132.162 173.936 128.924 175.802L108.719 187.466H90.9578V194.735H90.9732C90.8961 195.83 91.5051 196.886 92.8465 197.664L129.711 218.949C132.509 220.568 137.404 220.36 140.642 218.494L175.933 198.119C177.799 197.04 178.701 195.645 178.593 194.35Z" fill="url(#paint30_linear_1777_7781)"/>
<path d="M139.855 175.355C138.506 174.576 136.679 174.222 134.783 174.268V220.036C136.834 219.99 138.961 219.473 140.642 218.502L175.933 198.127C177.799 197.048 178.701 195.652 178.593 194.357V187.473H160.839L139.855 175.355Z" fill="url(#paint31_linear_1777_7781)"/>
<path d="M129.718 211.679L92.8539 190.395C90.0556 188.776 90.4025 185.955 93.6402 184.089L128.932 163.714C132.169 161.849 137.057 161.641 139.863 163.26L176.727 184.544C179.525 186.163 179.178 188.984 175.941 190.85L140.649 211.224C137.411 213.09 132.524 213.298 129.718 211.679Z" fill="#312A91"/>
<path opacity="0.5" d="M129.718 211.679L92.8539 190.395C90.0556 188.776 90.4025 185.955 93.6402 184.089L128.932 163.714C132.169 161.849 137.057 161.641 139.863 163.26L176.727 184.544C179.525 186.163 179.178 188.984 175.941 190.85L140.649 211.224C137.411 213.09 132.524 213.298 129.718 211.679Z" fill="url(#paint32_linear_1777_7781)"/>
<path d="M130.705 206.977L101.002 189.832C98.7436 188.529 99.0288 186.255 101.634 184.752L130.065 168.332C132.671 166.829 136.61 166.667 138.869 167.97L168.571 185.114C170.83 186.417 170.544 188.691 167.939 190.194L139.508 206.614C136.903 208.118 132.963 208.28 130.705 206.977Z" fill="#5CFFF3"/>
<path d="M101.635 186.972L130.065 170.552C132.671 169.049 136.61 168.887 138.869 170.19L168.571 187.334C169.126 187.658 169.527 188.036 169.781 188.452C170.437 187.25 170.059 185.97 168.571 185.114L138.869 167.97C136.61 166.667 132.671 166.829 130.065 168.332L101.635 184.752C99.6688 185.885 99.029 187.458 99.7922 188.714C100.131 188.09 100.74 187.489 101.635 186.972Z" fill="#62EEFF"/>
<path opacity="0.5" d="M130.952 211.679L94.0875 190.395C91.2892 188.776 90.6185 186.402 94.8738 184.089L130.165 163.714C131.753 162.797 133.75 162.28 135.693 162.188C133.38 162.08 130.859 162.596 128.924 163.714L93.6327 184.089C90.3949 185.954 90.048 188.784 92.8464 190.395L129.71 211.679C131.137 212.504 133.095 212.851 135.107 212.751C133.542 212.681 132.077 212.327 130.944 211.679H130.952Z" fill="url(#paint33_linear_1777_7781)"/>
<path opacity="0.8" d="M175.933 193.926L140.642 214.3C137.404 216.166 132.517 216.374 129.711 214.755L92.8465 193.471C91.4974 192.692 90.8884 191.636 90.9732 190.541H90.9578V192.045H90.9732C90.8961 193.139 91.5051 194.195 92.8465 194.974L129.711 216.258C132.509 217.877 137.404 217.669 140.642 215.804L175.933 195.429C177.799 194.35 178.701 192.954 178.593 191.659V190.156C178.701 191.451 177.799 192.846 175.933 193.926Z" fill="url(#paint34_linear_1777_7781)"/>
<path d="M169.535 191.921C169.936 192.153 169.936 192.53 169.535 192.762C169.134 192.993 168.479 192.993 168.078 192.762C167.677 192.53 167.677 192.153 168.078 191.921C168.479 191.69 169.134 191.69 169.535 191.921Z" fill="#FCCC6B"/>
<path d="M171.801 190.611C172.202 190.842 172.202 191.22 171.801 191.451C171.4 191.682 170.745 191.682 170.344 191.451C169.943 191.22 169.943 190.842 170.344 190.611C170.745 190.379 171.4 190.379 171.801 190.611Z" fill="#FCCC6B"/>
<path d="M174.075 189.3C174.476 189.531 174.476 189.909 174.075 190.14C173.674 190.372 173.019 190.372 172.618 190.14C172.217 189.909 172.217 189.531 172.618 189.3C173.019 189.069 173.674 189.069 174.075 189.3Z" fill="#FCCC6B"/>
<path opacity="0.1" d="M132.879 196.593L118.995 188.576C117.939 187.967 118.07 186.903 119.288 186.201L132.578 178.531C133.796 177.829 135.639 177.752 136.695 178.361L150.578 186.378C151.635 186.987 151.504 188.051 150.285 188.753L136.995 196.423C135.777 197.125 133.935 197.202 132.879 196.593Z" fill="#0B0244"/>
<path opacity="0.8" d="M140.819 143.185H128.762V187.465C128.755 187.62 128.832 187.758 129.017 187.866L134.089 190.796C134.475 191.019 135.145 190.988 135.592 190.734L140.449 187.928C140.68 187.797 140.804 187.627 140.811 187.465V143.185H140.819Z" fill="#5CFFF3"/>
<path opacity="0.5" d="M151.288 136.232H118.278V187.473H118.286C118.255 187.882 118.479 188.283 118.987 188.576L132.871 196.593C133.927 197.202 135.77 197.125 136.988 196.423L150.278 188.753C150.91 188.391 151.241 187.928 151.272 187.481H151.28V136.247L151.288 136.232Z" fill="#5CFFF3"/>
<path d="M178.593 126.11V119.226H160.839L139.855 107.108C137.057 105.489 132.162 105.697 128.924 107.562L108.719 119.226H90.9578V126.496H90.9732C90.8961 127.59 91.5051 128.646 92.8465 129.425L129.711 150.709C132.509 152.328 137.404 152.12 140.642 150.255L175.933 129.88C177.799 128.801 178.701 127.405 178.593 126.11Z" fill="#312A91"/>
<path opacity="0.5" d="M178.593 126.11V119.226H160.839L139.855 107.108C137.057 105.489 132.162 105.697 128.924 107.562L108.719 119.226H90.9578V126.496H90.9732C90.8961 127.59 91.5051 128.646 92.8465 129.425L129.711 150.709C132.509 152.328 137.404 152.12 140.642 150.255L175.933 129.88C177.799 128.801 178.701 127.405 178.593 126.11Z" fill="url(#paint35_linear_1777_7781)"/>
<path d="M139.855 107.115C138.506 106.337 136.679 105.982 134.783 106.028V151.796C136.834 151.75 138.961 151.234 140.642 150.262L175.933 129.888C177.799 128.808 178.701 127.413 178.593 126.118V119.234H160.839L139.855 107.115Z" fill="url(#paint36_linear_1777_7781)"/>
<path d="M129.718 143.44L92.8539 122.155C90.0556 120.537 90.4025 117.715 93.6402 115.85L128.932 95.4748C132.169 93.6093 137.057 93.4011 139.863 95.02L176.727 116.304C179.525 117.923 179.178 120.745 175.941 122.61L140.649 142.985C137.411 144.85 132.524 145.059 129.718 143.44Z" fill="#312A91"/>
<path opacity="0.5" d="M129.718 143.44L92.8539 122.155C90.0556 120.537 90.4025 117.715 93.6402 115.85L128.932 95.4748C132.169 93.6093 137.057 93.4011 139.863 95.02L176.727 116.304C179.525 117.923 179.178 120.745 175.941 122.61L140.649 142.985C137.411 144.85 132.524 145.059 129.718 143.44Z" fill="url(#paint37_linear_1777_7781)"/>
<path d="M130.705 138.737L101.002 121.593C98.7436 120.29 99.0288 118.016 101.634 116.512L130.065 100.092C132.671 98.5892 136.61 98.4273 138.869 99.7301L168.571 116.875C170.83 118.178 170.544 120.452 167.939 121.955L139.508 138.375C136.903 139.878 132.963 140.04 130.705 138.737Z" fill="#5CFFF3"/>
<path d="M101.635 118.733L130.065 102.313C132.671 100.809 136.61 100.647 138.869 101.95L168.571 119.095C169.126 119.419 169.527 119.796 169.781 120.213C170.437 119.01 170.059 117.73 168.571 116.875L138.869 99.7301C136.61 98.4273 132.671 98.5892 130.065 100.092L101.635 116.512C99.6688 117.646 99.029 119.218 99.7922 120.475C100.131 119.85 100.74 119.249 101.635 118.733Z" fill="#62EEFF"/>
<path opacity="0.5" d="M130.952 143.44L94.0875 122.155C91.2892 120.536 90.6185 118.162 94.8738 115.849L130.165 95.4747C131.753 94.5573 133.75 94.0408 135.693 93.9483C133.38 93.8404 130.859 94.3569 128.924 95.4747L93.6327 115.849C90.3949 117.715 90.048 120.544 92.8464 122.155L129.71 143.44C131.137 144.264 133.095 144.611 135.107 144.511C133.542 144.442 132.077 144.087 130.944 143.44H130.952Z" fill="url(#paint38_linear_1777_7781)"/>
<path opacity="0.8" d="M175.933 125.686L140.642 146.061C137.404 147.926 132.517 148.135 129.711 146.516L92.8465 125.231C91.4974 124.453 90.8884 123.397 90.9732 122.302H90.9578V123.805H90.9732C90.8961 124.9 91.5051 125.956 92.8465 126.735L129.711 148.019C132.509 149.638 137.404 149.43 140.642 147.564L175.933 127.189C177.799 126.11 178.701 124.715 178.593 123.42V121.917C178.701 123.212 177.799 124.607 175.933 125.686Z" fill="url(#paint39_linear_1777_7781)"/>
<path d="M169.535 123.682C169.936 123.913 169.936 124.291 169.535 124.522C169.134 124.753 168.479 124.753 168.078 124.522C167.677 124.291 167.677 123.913 168.078 123.682C168.479 123.45 169.134 123.45 169.535 123.682Z" fill="#FCCC6B"/>
<path d="M171.801 122.371C172.202 122.602 172.202 122.98 171.801 123.211C171.4 123.443 170.745 123.443 170.344 123.211C169.943 122.98 169.943 122.602 170.344 122.371C170.745 122.14 171.4 122.14 171.801 122.371Z" fill="#FCCC6B"/>
<path d="M174.075 121.061C174.476 121.292 174.476 121.67 174.075 121.901C173.674 122.132 173.019 122.132 172.618 121.901C172.217 121.67 172.217 121.292 172.618 121.061C173.019 120.829 173.674 120.829 174.075 121.061Z" fill="#FCCC6B"/>
<path opacity="0.5" d="M178.608 126.141C178.67 127.421 177.776 128.777 175.949 129.834L140.649 150.216C137.412 152.082 132.524 152.29 129.718 150.671L92.8465 129.386C91.4974 128.608 90.8884 127.552 90.9732 126.457H90.9578V187.635H90.9886C90.9732 188.676 91.5591 189.678 92.8465 190.426L129.718 211.71C132.517 213.329 137.412 213.128 140.649 211.255L175.949 190.873C177.737 189.84 178.608 188.514 178.593 187.257H178.624V126.133H178.608V126.141Z" fill="#5CFFF3"/>
<g style="mix-blend-mode:lighten" opacity="0.7">
<path d="M175.949 129.841L140.65 150.224C138.969 151.195 136.841 151.704 134.791 151.75V212.789C136.841 212.743 138.969 212.227 140.65 211.263L175.949 190.881C177.737 189.848 178.608 188.522 178.593 187.265H178.631V126.141H178.616C178.678 127.421 177.783 128.778 175.956 129.834L175.949 129.841Z" fill="#62EEFF"/>
</g>
</g>
<g style="mix-blend-mode:lighten">
<path d="M134.274 173.435C113.313 173.435 93.6018 168.718 78.7775 160.161C71.2844 155.836 65.4719 150.787 61.5249 145.159C57.7013 139.724 55.7664 133.973 55.7664 128.076C55.7664 122.179 57.7013 116.436 61.5249 110.993C65.4796 105.366 71.2844 100.316 78.7775 95.9916C93.6018 87.4347 113.313 82.7168 134.274 82.7168C155.235 82.7168 174.946 87.4347 189.771 95.9916C197.271 100.316 203.076 105.366 207.023 110.993C210.839 116.428 212.782 122.179 212.782 128.076C212.782 133.973 210.847 139.717 207.023 145.159C203.068 150.787 197.264 155.836 189.771 160.161C174.946 168.718 155.235 173.435 134.274 173.435ZM134.274 82.8864C114.2 82.8864 94.1337 87.2959 78.8469 96.1226C64.0535 104.664 55.9128 116.012 55.9128 128.076C55.9128 140.141 64.0612 151.496 78.8469 160.037C109.413 177.683 159.135 177.683 189.701 160.037C204.495 151.496 212.635 140.148 212.635 128.084C212.635 116.019 204.487 104.664 189.701 96.1226C174.422 87.3036 154.348 82.8864 134.274 82.8864Z" fill="url(#paint40_linear_1777_7781)"/>
<path d="M134.274 160.523C119.897 160.523 105.52 157.362 94.5654 151.041C83.9425 144.912 78.0991 136.756 78.0991 128.076C78.0991 119.396 83.9502 111.24 94.5654 105.111C116.459 92.4685 152.082 92.4685 173.975 105.111C184.598 111.24 190.441 119.396 190.441 128.076C190.441 136.756 184.59 144.912 173.975 151.041C163.028 157.362 148.651 160.523 134.274 160.523ZM134.274 95.7756C119.92 95.7756 105.574 98.9286 94.6425 105.234C84.0735 111.34 78.2456 119.45 78.2456 128.076C78.2456 136.702 84.0658 144.812 94.6425 150.918C116.497 163.537 152.051 163.537 173.906 150.918C184.475 144.812 190.302 136.702 190.302 128.076C190.302 119.45 184.482 111.34 173.906 105.234C162.982 98.9286 148.628 95.7756 134.274 95.7756Z" fill="url(#paint41_linear_1777_7781)"/>
</g>
<path d="M178.593 100.424V93.54H160.839L139.855 81.4216C137.057 79.8028 132.162 80.0109 128.924 81.8764L108.719 93.54H90.9578V100.81H90.9732C90.8961 101.904 91.5051 102.96 92.8465 103.739L129.711 125.023C132.509 126.642 137.404 126.434 140.642 124.568L175.933 104.194C177.799 103.115 178.701 101.719 178.593 100.424Z" fill="#312A91"/>
<path opacity="0.5" d="M178.593 100.424V93.54H160.839L139.855 81.4216C137.057 79.8028 132.162 80.0109 128.924 81.8764L108.719 93.54H90.9578V100.81H90.9732C90.8961 101.904 91.5051 102.96 92.8465 103.739L129.711 125.023C132.509 126.642 137.404 126.434 140.642 124.568L175.933 104.194C177.799 103.115 178.701 101.719 178.593 100.424Z" fill="url(#paint42_linear_1777_7781)"/>
<path d="M139.855 81.4215C138.506 80.6429 136.679 80.2883 134.783 80.3346V126.102C136.834 126.056 138.961 125.54 140.642 124.568L175.933 104.194C177.799 103.114 178.701 101.719 178.593 100.424V93.5399H160.839L139.855 81.4215Z" fill="url(#paint43_linear_1777_7781)"/>
<path d="M129.718 117.754L92.8539 96.4694C90.0556 94.8505 90.4025 92.029 93.6402 90.1635L128.932 69.7888C132.169 67.9232 137.057 67.7151 139.863 69.334L176.727 90.6183C179.525 92.2372 179.178 95.0587 175.941 96.9242L140.649 117.299C137.411 119.164 132.524 119.373 129.718 117.754Z" fill="#312A91"/>
<path opacity="0.5" d="M129.718 117.754L92.8539 96.4694C90.0556 94.8505 90.4025 92.029 93.6402 90.1635L128.932 69.7888C132.169 67.9232 137.057 67.7151 139.863 69.334L176.727 90.6183C179.525 92.2372 179.178 95.0587 175.941 96.9242L140.649 117.299C137.411 119.164 132.524 119.373 129.718 117.754Z" fill="url(#paint44_linear_1777_7781)"/>
<path d="M130.705 113.044L101.002 95.899C98.7436 94.5962 99.0288 92.3221 101.634 90.8188L130.065 74.3988C132.671 72.8956 136.61 72.7337 138.869 74.0365L168.571 91.1812C170.83 92.484 170.544 94.7581 167.939 96.2614L139.508 112.681C136.903 114.185 132.963 114.346 130.705 113.044Z" fill="#5CFFF3"/>
<path d="M101.635 93.039L130.065 76.619C132.671 75.1158 136.61 74.9539 138.869 76.2567L168.571 93.4013C169.126 93.7251 169.527 94.1029 169.781 94.5191C170.437 93.3165 170.059 92.0369 168.571 91.1812L138.869 74.0365C136.61 72.7337 132.671 72.8956 130.065 74.3988L101.635 90.8188C99.6688 91.9521 99.029 93.5247 99.7922 94.7889C100.131 94.1645 100.74 93.5632 101.635 93.0467V93.039Z" fill="#62EEFF"/>
<path opacity="0.5" d="M130.952 117.754L94.0875 96.4692C91.2892 94.8504 90.6185 92.476 94.8738 90.1633L130.165 69.7887C131.753 68.8713 133.75 68.3548 135.693 68.2623C133.38 68.1544 130.859 68.6709 128.924 69.7887L93.6327 90.1633C90.3949 92.0289 90.048 94.8581 92.8464 96.4692L129.71 117.754C131.137 118.578 133.095 118.925 135.107 118.825C133.542 118.756 132.077 118.401 130.944 117.754H130.952Z" fill="url(#paint45_linear_1777_7781)"/>
<path opacity="0.8" d="M175.933 99.9923L140.642 120.367C137.404 122.233 132.517 122.441 129.711 120.822L92.8465 99.5375C91.4974 98.7589 90.8884 97.7028 90.9732 96.6081H90.9578V98.1113H90.9732C90.8961 99.206 91.5051 100.262 92.8465 101.041L129.711 122.325C132.509 123.944 137.404 123.736 140.642 121.87L175.933 101.496C177.799 100.416 178.701 99.021 178.593 97.7259V96.2227C178.701 97.5178 177.799 98.9131 175.933 99.9923Z" fill="url(#paint46_linear_1777_7781)"/>
<path d="M169.535 97.9881C169.936 98.2194 169.936 98.5972 169.535 98.8284C169.134 99.0597 168.479 99.0597 168.078 98.8284C167.677 98.5972 167.677 98.2194 168.078 97.9881C168.479 97.7569 169.134 97.7569 169.535 97.9881Z" fill="#FCCC6B"/>
<path d="M171.801 96.6776C172.202 96.9089 172.202 97.2866 171.801 97.5179C171.4 97.7491 170.745 97.7491 170.344 97.5179C169.943 97.2866 169.943 96.9089 170.344 96.6776C170.745 96.4463 171.4 96.4463 171.801 96.6776Z" fill="#FCCC6B"/>
<path d="M174.075 95.3671C174.476 95.5983 174.476 95.9761 174.075 96.2073C173.674 96.4386 173.019 96.4386 172.618 96.2073C172.217 95.9761 172.217 95.5983 172.618 95.3671C173.019 95.1358 173.674 95.1358 174.075 95.3671Z" fill="#FCCC6B"/>
<path opacity="0.1" d="M132.879 102.66L118.995 94.6424C117.939 94.0334 118.07 92.9696 119.288 92.2681L132.578 84.5977C133.796 83.8962 135.639 83.8191 136.695 84.4281L150.578 92.4454C151.635 93.0544 151.504 94.1182 150.285 94.8197L136.995 102.49C135.777 103.192 133.935 103.269 132.879 102.66Z" fill="#0B0244"/>
<path opacity="0.8" d="M140.819 49.2522H128.762V93.5322C128.755 93.6864 128.832 93.8252 129.017 93.9331L134.089 96.8625C134.475 97.0861 135.145 97.0552 135.592 96.8008L140.449 93.9948C140.68 93.8637 140.804 93.6941 140.811 93.5322V49.2522H140.819Z" fill="#5CFFF3"/>
<path opacity="0.5" d="M151.288 42.3064H118.278V93.5476H118.286C118.255 93.9562 118.479 94.357 118.987 94.65L132.871 102.667C133.927 103.276 135.77 103.199 136.988 102.498L150.278 94.8273C150.91 94.465 151.241 94.0024 151.272 93.5553H151.28V42.3064H151.288Z" fill="#5CFFF3"/>
<path d="M178.593 32.1846V25.3005H160.839L139.855 13.1821C137.057 11.5632 132.162 11.7714 128.924 13.6369L108.719 25.3005H90.9578V32.5701H90.9732C90.8961 33.6647 91.5051 34.7208 92.8465 35.4994L129.711 56.7838C132.509 58.4027 137.404 58.1945 140.642 56.329L175.933 35.9543C177.799 34.875 178.701 33.4797 178.593 32.1846Z" fill="#312A91"/>
<path opacity="0.5" d="M178.593 32.1846V25.3005H160.839L139.855 13.1821C137.057 11.5632 132.162 11.7714 128.924 13.6369L108.719 25.3005H90.9578V32.5701H90.9732C90.8961 33.6647 91.5051 34.7208 92.8465 35.4994L129.711 56.7838C132.509 58.4027 137.404 58.1945 140.642 56.329L175.933 35.9543C177.799 34.875 178.701 33.4797 178.593 32.1846Z" fill="url(#paint47_linear_1777_7781)"/>
<path d="M139.855 13.1823C138.506 12.4037 136.679 12.0491 134.783 12.0953V57.8632C136.834 57.8169 138.961 57.3004 140.642 56.3291L175.933 35.9544C177.799 34.8752 178.701 33.4799 178.593 32.1848V25.3007H160.839L139.855 13.1823Z" fill="url(#paint48_linear_1777_7781)"/>
<path d="M129.718 49.5144L92.8539 28.23C90.0556 26.6111 90.4025 23.7897 93.6402 21.9241L128.932 1.54173C132.169 -0.323827 137.057 -0.531967 139.863 1.08691L176.727 22.3712C179.525 23.9901 179.178 26.8116 175.941 28.6771L140.649 49.0518C137.411 50.9174 132.524 51.1255 129.718 49.5066V49.5144Z" fill="#312A91"/>
<path opacity="0.5" d="M129.718 49.5144L92.8539 28.23C90.0556 26.6111 90.4025 23.7897 93.6402 21.9241L128.932 1.54173C132.169 -0.323827 137.057 -0.531967 139.863 1.08691L176.727 22.3712C179.525 23.9901 179.178 26.8116 175.941 28.6771L140.649 49.0518C137.411 50.9174 132.524 51.1255 129.718 49.5066V49.5144Z" fill="url(#paint49_linear_1777_7781)"/>
<path d="M130.705 44.8042L101.002 27.6595C98.7436 26.3567 99.0288 24.0826 101.634 22.5793L130.065 6.15934C132.671 4.6561 136.61 4.49422 138.869 5.79702L168.571 22.9417C170.83 24.2445 170.544 26.5186 167.939 28.0218L139.508 44.4419C136.903 45.9451 132.963 46.107 130.705 44.8042Z" fill="#352885"/>
<path d="M101.635 24.7995L130.065 8.37951C132.671 6.87627 136.61 6.71439 138.869 8.01719L168.571 25.1618C169.126 25.4856 169.527 25.8633 169.781 26.2796C170.437 25.077 170.059 23.7974 168.571 22.9417L138.869 5.79702C136.61 4.49422 132.671 4.6561 130.065 6.15934L101.635 22.5793C99.6688 23.7126 99.029 25.2852 99.7922 26.5417C100.131 25.9173 100.74 25.316 101.635 24.7995Z" fill="#62EEFF"/>
<path opacity="0.5" d="M130.952 49.5142L94.0875 28.2299C91.2892 26.611 90.6185 24.2367 94.8738 21.924L130.165 1.54159C131.753 0.624231 133.75 0.107733 135.693 0.0152259C133.38 -0.092699 130.859 0.423799 128.924 1.54159L93.6327 21.9163C90.3949 23.7818 90.048 26.611 92.8464 28.2222L129.71 49.5065C131.137 50.3314 133.095 50.6783 135.107 50.578C133.542 50.5087 132.077 50.1541 130.944 49.5065L130.952 49.5142Z" fill="url(#paint50_linear_1777_7781)"/>
<path opacity="0.8" d="M175.933 31.7531L140.642 52.1277C137.404 53.9933 132.517 54.2014 129.711 52.5826L92.8465 31.2982C91.4974 30.5196 90.8884 29.4635 90.9732 28.3688H90.9578V29.8721H90.9732C90.8961 30.9668 91.5051 32.0229 92.8465 32.8015L129.711 54.0858C132.509 55.7047 137.404 55.4965 140.642 53.631L175.933 33.2563C177.799 32.1771 178.701 30.7817 178.593 29.4866V27.9834C178.701 29.2785 177.799 30.6738 175.933 31.7531Z" fill="url(#paint51_linear_1777_7781)"/>
<path d="M169.535 29.7486C169.936 29.9799 169.936 30.3577 169.535 30.5889C169.134 30.8202 168.479 30.8202 168.078 30.5889C167.677 30.3577 167.677 29.9799 168.078 29.7486C168.479 29.5174 169.134 29.5174 169.535 29.7486Z" fill="#FCCC6B"/>
<path d="M171.801 28.4381C172.202 28.6694 172.202 29.0471 171.801 29.2784C171.4 29.5096 170.745 29.5096 170.344 29.2784C169.943 29.0471 169.943 28.6694 170.344 28.4381C170.745 28.2068 171.4 28.2068 171.801 28.4381Z" fill="#FCCC6B"/>
<path d="M174.075 27.1276C174.476 27.3588 174.476 27.7366 174.075 27.9678C173.674 28.1991 173.019 28.1991 172.618 27.9678C172.217 27.7366 172.217 27.3588 172.618 27.1276C173.019 26.8963 173.674 26.8963 174.075 27.1276Z" fill="#FCCC6B"/>
<path opacity="0.5" d="M178.608 32.2156C178.67 33.4953 177.776 34.852 175.949 35.9082L140.649 56.2905C137.412 58.1561 132.524 58.3642 129.718 56.7454L92.8465 35.461C91.4974 34.6824 90.8884 33.6263 90.9732 32.5316H90.9578V93.7096H90.9886C90.9732 94.7504 91.5591 95.7525 92.8465 96.5003L129.718 117.785C132.517 119.403 137.412 119.203 140.649 117.33L175.949 96.9474C177.737 95.9144 178.608 94.5885 178.593 93.3319H178.624V32.2156H178.608Z" fill="#5CFFF3"/>
<g style="mix-blend-mode:lighten" opacity="0.7">
<path d="M175.949 35.9082L140.65 56.2905C138.969 57.2619 136.841 57.7707 134.791 57.8169V118.856C136.841 118.81 138.969 118.293 140.65 117.33L175.949 96.9474C177.737 95.9144 178.608 94.5885 178.593 93.3319H178.631V32.2156H178.616C178.678 33.4953 177.783 34.852 175.956 35.9082H175.949Z" fill="#62EEFF"/>
</g>
<path opacity="0.5" d="M81.9998 21.6929H72.2788V23.119H81.9998V21.6929Z" fill="#6F03E0"/>
<path opacity="0.5" d="M81.9919 26.2412H76.7036V27.6674H81.9919V26.2412Z" fill="#6F03E0"/>
<path opacity="0.5" d="M81.9919 30.7817H76.7036V32.2079H81.9919V30.7817Z" fill="#6F03E0"/>
<path opacity="0.5" d="M81.9919 35.3301H76.7036V36.7562H81.9919V35.3301Z" fill="#6F03E0"/>
<path opacity="0.5" d="M81.9998 39.8782H72.2788V41.3043H81.9998V39.8782Z" fill="#6F03E0"/>
<path opacity="0.5" d="M81.9919 44.4187H76.7036V45.8449H81.9919V44.4187Z" fill="#6F03E0"/>
<path opacity="0.5" d="M81.9919 48.967H76.7036V50.3932H81.9919V48.967Z" fill="#6F03E0"/>
<path opacity="0.5" d="M81.9919 53.5154H76.7036V54.9415H81.9919V53.5154Z" fill="#6F03E0"/>
<path opacity="0.5" d="M81.9919 58.0559H76.7036V59.4821H81.9919V58.0559Z" fill="#6F03E0"/>
<path opacity="0.5" d="M81.9919 62.604H76.7036V64.0302H81.9919V62.604Z" fill="#6F03E0"/>
<path opacity="0.5" d="M81.9919 67.1523H76.7036V68.5785H81.9919V67.1523Z" fill="#6F03E0"/>
<path opacity="0.5" d="M81.9919 71.6929H76.7036V73.119H81.9919V71.6929Z" fill="#6F03E0"/>
<path opacity="0.5" d="M81.9919 76.2412H76.7036V77.6674H81.9919V76.2412Z" fill="#6F03E0"/>
<path opacity="0.5" d="M81.9998 80.7896H72.2788V82.2157H81.9998V80.7896Z" fill="#6F03E0"/>
<path opacity="0.5" d="M81.9919 85.3301H76.7036V86.7562H81.9919V85.3301Z" fill="#6F03E0"/>
<path opacity="0.4" d="M81.9919 89.8782H76.7036V91.3043H81.9919V89.8782Z" fill="#6F03E0"/>
<path opacity="0.3" d="M81.9919 94.4265H76.7036V95.8527H81.9919V94.4265Z" fill="#6F03E0"/>
<path opacity="0.2" d="M81.9919 98.967H76.7036V100.393H81.9919V98.967Z" fill="#6F03E0"/>
<path opacity="0.1" d="M81.9919 103.515H76.7036V104.942H81.9919V103.515Z" fill="#6F03E0"/>
<path opacity="0.8" d="M81.9998 21.6929H72.2788V23.119H81.9998V21.6929Z" fill="#6F03E0"/>
<path opacity="0.8" d="M81.9919 35.3301H76.7036V36.7562H81.9919V35.3301Z" fill="#6F03E0"/>
<path opacity="0.8" d="M81.9919 44.4187H76.7036V45.8449H81.9919V44.4187Z" fill="#6F03E0"/>
<path opacity="0.8" d="M81.9919 67.1523H76.7036V68.5785H81.9919V67.1523Z" fill="#6F03E0"/>
<path opacity="0.4" d="M187.774 26.958H184.066V30.666H187.774V26.958Z" fill="#6F03E0"/>
<path opacity="0.4" d="M187.774 32.8477H184.066V36.5556H187.774V32.8477Z" fill="#6F03E0"/>
<path opacity="0.4" d="M187.774 38.7373H184.066V42.4453H187.774V38.7373Z" fill="#6F03E0"/>
<path opacity="0.4" d="M187.774 44.627H184.066V48.3349H187.774V44.627Z" fill="#6F03E0"/>
<path opacity="0.4" d="M187.774 50.5164H184.066V54.2243H187.774V50.5164Z" fill="#6F03E0"/>
<path opacity="0.4" d="M193.556 26.958H189.848V30.666H193.556V26.958Z" fill="#6F03E0"/>
<path opacity="0.4" d="M193.556 32.8477H189.848V36.5556H193.556V32.8477Z" fill="#6F03E0"/>
<path opacity="0.4" d="M193.556 38.7373H189.848V42.4453H193.556V38.7373Z" fill="#6F03E0"/>
<path opacity="0.4" d="M193.556 44.627H189.848V48.3349H193.556V44.627Z" fill="#6F03E0"/>
<path opacity="0.4" d="M193.556 50.5164H189.848V54.2243H193.556V50.5164Z" fill="#6F03E0"/>
<path opacity="0.4" d="M199.345 26.958H195.637V30.666H199.345V26.958Z" fill="#6F03E0"/>
<path opacity="0.4" d="M199.345 32.8477H195.637V36.5556H199.345V32.8477Z" fill="#6F03E0"/>
<path opacity="0.4" d="M199.345 38.7373H195.637V42.4453H199.345V38.7373Z" fill="#6F03E0"/>
<path opacity="0.4" d="M199.345 44.627H195.637V48.3349H199.345V44.627Z" fill="#6F03E0"/>
<path opacity="0.4" d="M199.345 50.5164H195.637V54.2243H199.345V50.5164Z" fill="#6F03E0"/>
<path opacity="0.8" d="M193.556 26.958H189.848V30.666H193.556V26.958Z" fill="#6F03E0"/>
<path opacity="0.8" d="M193.556 44.627H189.848V48.3349H193.556V44.627Z" fill="#6F03E0"/>
<path opacity="0.8" d="M199.345 32.8477H195.637V36.5556H199.345V32.8477Z" fill="#6F03E0"/>
<path d="M205.612 93.1468H197.487C197.302 93.1468 197.156 93.0003 197.156 92.8153C197.156 92.6303 197.302 92.4838 197.487 92.4838H205.281V46.8239H197.487C197.302 46.8239 197.156 46.6774 197.156 46.4924C197.156 46.3074 197.302 46.1609 197.487 46.1609H205.612C205.797 46.1609 205.944 46.3074 205.944 46.4924V92.823C205.944 93.008 205.797 93.1545 205.612 93.1545V93.1468Z" fill="#6F03E0"/>
<path opacity="0.4" d="M187.774 79.1782H184.066V82.8862H187.774V79.1782Z" fill="#6F03E0"/>
<path opacity="0.4" d="M187.774 85.0679H184.066V88.7759H187.774V85.0679Z" fill="#6F03E0"/>
<path opacity="0.4" d="M187.774 90.9575H184.066V94.6655H187.774V90.9575Z" fill="#6F03E0"/>
<path opacity="0.4" d="M193.556 79.1782H189.848V82.8862H193.556V79.1782Z" fill="#6F03E0"/>
<path opacity="0.4" d="M193.556 85.0679H189.848V88.7759H193.556V85.0679Z" fill="#6F03E0"/>
<path opacity="0.4" d="M193.556 90.9575H189.848V94.6655H193.556V90.9575Z" fill="#6F03E0"/>
<path opacity="0.4" d="M199.345 79.1782H195.637V82.8862H199.345V79.1782Z" fill="#6F03E0"/>
<path opacity="0.4" d="M199.345 85.0679H195.637V88.7759H199.345V85.0679Z" fill="#6F03E0"/>
<path opacity="0.4" d="M199.345 90.9575H195.637V94.6655H199.345V90.9575Z" fill="#6F03E0"/>
<path opacity="0.8" d="M193.556 79.1782H189.848V82.8862H193.556V79.1782Z" fill="#6F03E0"/>
<path opacity="0.8" d="M199.345 85.0679H195.637V88.7759H199.345V85.0679Z" fill="#6F03E0"/>
</g>
<defs>
<linearGradient id="paint0_linear_1777_7781" x1="-12.9356" y1="93.9176" x2="45.5906" y2="93.9176" gradientUnits="userSpaceOnUse">
<stop stop-color="#42E8E0"/>
<stop offset="0.1" stop-color="#3CC9CD"/>
<stop offset="0.34" stop-color="#2F87A5"/>
<stop offset="0.56" stop-color="#255285"/>
<stop offset="0.75" stop-color="#1E2C6E"/>
<stop offset="0.91" stop-color="#191560"/>
<stop offset="1" stop-color="#180D5B"/>
</linearGradient>
<linearGradient id="paint1_linear_1777_7781" x1="29.2632" y1="93.9176" x2="58.5263" y2="93.9176" gradientUnits="userSpaceOnUse">
<stop stop-color="#2B237C"/>
<stop offset="1" stop-color="#180D5B"/>
</linearGradient>
<linearGradient id="paint2_linear_1777_7781" x1="0.000289703" y1="87.4498" x2="58.5341" y2="87.4498" gradientUnits="userSpaceOnUse">
<stop stop-color="#5438DC"/>
<stop offset="1" stop-color="#6F03E0"/>
</linearGradient>
<linearGradient id="paint3_linear_1777_7781" x1="4.55628e-05" y1="87.4498" x2="29.8721" y2="87.4498" gradientUnits="userSpaceOnUse">
<stop stop-color="#42E8E0"/>
<stop offset="0.1" stop-color="#3CC9CD"/>
<stop offset="0.34" stop-color="#2F87A5"/>
<stop offset="0.56" stop-color="#255285"/>
<stop offset="0.75" stop-color="#1E2C6E"/>
<stop offset="0.91" stop-color="#191560"/>
<stop offset="1" stop-color="#180D5B"/>
</linearGradient>
<linearGradient id="paint4_linear_1777_7781" x1="7.96332" y1="104.479" x2="56.9535" y2="72.4635" gradientUnits="userSpaceOnUse">
<stop stop-color="#42E8E0"/>
<stop offset="0.1" stop-color="#3CC9CD"/>
<stop offset="0.34" stop-color="#2F87A5"/>
<stop offset="0.56" stop-color="#255285"/>
<stop offset="0.75" stop-color="#1E2C6E"/>
<stop offset="0.91" stop-color="#191560"/>
<stop offset="1" stop-color="#180D5B"/>
</linearGradient>
<linearGradient id="paint5_linear_1777_7781" x1="0" y1="74.5913" x2="0.770892" y2="74.5913" gradientUnits="userSpaceOnUse">
<stop stop-color="#42E8E0"/>
<stop offset="0.1" stop-color="#3CC9CD"/>
<stop offset="0.34" stop-color="#2F87A5"/>
<stop offset="0.56" stop-color="#255285"/>
<stop offset="0.75" stop-color="#1E2C6E"/>
<stop offset="0.91" stop-color="#191560"/>
<stop offset="1" stop-color="#180D5B"/>
</linearGradient>
<linearGradient id="paint6_linear_1777_7781" x1="0.000113581" y1="74.5913" x2="0.771006" y2="74.5913" gradientUnits="userSpaceOnUse">
<stop stop-color="#2B237C"/>
<stop offset="1" stop-color="#180D5B"/>
</linearGradient>
<linearGradient id="paint7_linear_1777_7781" x1="0.000289703" y1="68.1313" x2="0.771182" y2="68.1313" gradientUnits="userSpaceOnUse">
<stop stop-color="#5438DC"/>
<stop offset="1" stop-color="#6F03E0"/>
</linearGradient>
<linearGradient id="paint8_linear_1777_7781" x1="4.55628e-05" y1="68.1314" x2="29.8721" y2="68.1314" gradientUnits="userSpaceOnUse">
<stop stop-color="#42E8E0"/>
<stop offset="0.1" stop-color="#3CC9CD"/>
<stop offset="0.34" stop-color="#2F87A5"/>
<stop offset="0.56" stop-color="#255285"/>
<stop offset="0.75" stop-color="#1E2C6E"/>
<stop offset="0.91" stop-color="#191560"/>
<stop offset="1" stop-color="#180D5B"/>
</linearGradient>
<linearGradient id="paint9_linear_1777_7781" x1="7.96332" y1="85.1603" x2="56.9535" y2="53.1375" gradientUnits="userSpaceOnUse">
<stop stop-color="#42E8E0"/>
<stop offset="0.1" stop-color="#3CC9CD"/>
<stop offset="0.34" stop-color="#2F87A5"/>
<stop offset="0.56" stop-color="#255285"/>
<stop offset="0.75" stop-color="#1E2C6E"/>
<stop offset="0.91" stop-color="#191560"/>
<stop offset="1" stop-color="#180D5B"/>
</linearGradient>
<linearGradient id="paint10_linear_1777_7781" x1="0" y1="55.2729" x2="0.770892" y2="55.2729" gradientUnits="userSpaceOnUse">
<stop stop-color="#42E8E0"/>
<stop offset="0.1" stop-color="#3CC9CD"/>
<stop offset="0.34" stop-color="#2F87A5"/>
<stop offset="0.56" stop-color="#255285"/>
<stop offset="0.75" stop-color="#1E2C6E"/>
<stop offset="0.91" stop-color="#191560"/>
<stop offset="1" stop-color="#180D5B"/>
</linearGradient>
<linearGradient id="paint11_linear_1777_7781" x1="0.000113581" y1="55.2729" x2="0.771006" y2="55.2729" gradientUnits="userSpaceOnUse">
<stop stop-color="#2B237C"/>
<stop offset="1" stop-color="#180D5B"/>
</linearGradient>
<linearGradient id="paint12_linear_1777_7781" x1="0.000289703" y1="48.8129" x2="0.771182" y2="48.8129" gradientUnits="userSpaceOnUse">
<stop stop-color="#5438DC"/>
<stop offset="1" stop-color="#6F03E0"/>
</linearGradient>
<linearGradient id="paint13_linear_1777_7781" x1="4.55628e-05" y1="48.8125" x2="29.8721" y2="48.8125" gradientUnits="userSpaceOnUse">
<stop stop-color="#42E8E0"/>
<stop offset="0.1" stop-color="#3CC9CD"/>
<stop offset="0.34" stop-color="#2F87A5"/>
<stop offset="0.56" stop-color="#255285"/>
<stop offset="0.75" stop-color="#1E2C6E"/>
<stop offset="0.91" stop-color="#191560"/>
<stop offset="1" stop-color="#180D5B"/>
</linearGradient>
<linearGradient id="paint14_linear_1777_7781" x1="7.96332" y1="65.8419" x2="56.9535" y2="33.819" gradientUnits="userSpaceOnUse">
<stop stop-color="#42E8E0"/>
<stop offset="0.1" stop-color="#3CC9CD"/>
<stop offset="0.34" stop-color="#2F87A5"/>
<stop offset="0.56" stop-color="#255285"/>
<stop offset="0.75" stop-color="#1E2C6E"/>
<stop offset="0.91" stop-color="#191560"/>
<stop offset="1" stop-color="#180D5B"/>
</linearGradient>
<linearGradient id="paint15_linear_1777_7781" x1="281.484" y1="93.8712" x2="222.957" y2="93.8712" gradientUnits="userSpaceOnUse">
<stop stop-color="#42E8E0"/>
<stop offset="0.1" stop-color="#3CC9CD"/>
<stop offset="0.34" stop-color="#2F87A5"/>
<stop offset="0.56" stop-color="#255285"/>
<stop offset="0.75" stop-color="#1E2C6E"/>
<stop offset="0.91" stop-color="#191560"/>
<stop offset="1" stop-color="#180D5B"/>
</linearGradient>
<linearGradient id="paint16_linear_1777_7781" x1="239.285" y1="93.8635" x2="210.022" y2="93.8635" gradientUnits="userSpaceOnUse">
<stop stop-color="#2B237C"/>
<stop offset="1" stop-color="#180D5B"/>
</linearGradient>
<linearGradient id="paint17_linear_1777_7781" x1="268.548" y1="87.4035" x2="210.014" y2="87.4035" gradientUnits="userSpaceOnUse">
<stop stop-color="#5438DC"/>
<stop offset="1" stop-color="#6F03E0"/>
</linearGradient>
<linearGradient id="paint18_linear_1777_7781" x1="268.548" y1="87.4036" x2="238.676" y2="87.4036" gradientUnits="userSpaceOnUse">
<stop stop-color="#42E8E0"/>
<stop offset="0.1" stop-color="#3CC9CD"/>
<stop offset="0.34" stop-color="#2F87A5"/>
<stop offset="0.56" stop-color="#255285"/>
<stop offset="0.75" stop-color="#1E2C6E"/>
<stop offset="0.91" stop-color="#191560"/>
<stop offset="1" stop-color="#180D5B"/>
</linearGradient>
<linearGradient id="paint19_linear_1777_7781" x1="260.585" y1="104.432" x2="211.595" y2="72.4096" gradientUnits="userSpaceOnUse">
<stop stop-color="#42E8E0"/>
<stop offset="0.1" stop-color="#3CC9CD"/>
<stop offset="0.34" stop-color="#2F87A5"/>
<stop offset="0.56" stop-color="#255285"/>
<stop offset="0.75" stop-color="#1E2C6E"/>
<stop offset="0.91" stop-color="#191560"/>
<stop offset="1" stop-color="#180D5B"/>
</linearGradient>
<linearGradient id="paint20_linear_1777_7781" x1="281.484" y1="74.5449" x2="222.957" y2="74.5449" gradientUnits="userSpaceOnUse">
<stop stop-color="#42E8E0"/>
<stop offset="0.1" stop-color="#3CC9CD"/>
<stop offset="0.34" stop-color="#2F87A5"/>
<stop offset="0.56" stop-color="#255285"/>
<stop offset="0.75" stop-color="#1E2C6E"/>
<stop offset="0.91" stop-color="#191560"/>
<stop offset="1" stop-color="#180D5B"/>
</linearGradient>
<linearGradient id="paint21_linear_1777_7781" x1="239.285" y1="74.5449" x2="210.022" y2="74.5449" gradientUnits="userSpaceOnUse">
<stop stop-color="#2B237C"/>
<stop offset="1" stop-color="#180D5B"/>
</linearGradient>
<linearGradient id="paint22_linear_1777_7781" x1="268.548" y1="68.0849" x2="210.014" y2="68.0849" gradientUnits="userSpaceOnUse">
<stop stop-color="#5438DC"/>
<stop offset="1" stop-color="#6F03E0"/>
</linearGradient>
<linearGradient id="paint23_linear_1777_7781" x1="268.548" y1="68.085" x2="238.676" y2="68.085" gradientUnits="userSpaceOnUse">
<stop stop-color="#42E8E0"/>
<stop offset="0.1" stop-color="#3CC9CD"/>
<stop offset="0.34" stop-color="#2F87A5"/>
<stop offset="0.56" stop-color="#255285"/>
<stop offset="0.75" stop-color="#1E2C6E"/>
<stop offset="0.91" stop-color="#191560"/>
<stop offset="1" stop-color="#180D5B"/>
</linearGradient>
<linearGradient id="paint24_linear_1777_7781" x1="260.585" y1="85.1138" x2="211.595" y2="53.091" gradientUnits="userSpaceOnUse">
<stop stop-color="#42E8E0"/>
<stop offset="0.1" stop-color="#3CC9CD"/>
<stop offset="0.34" stop-color="#2F87A5"/>
<stop offset="0.56" stop-color="#255285"/>
<stop offset="0.75" stop-color="#1E2C6E"/>
<stop offset="0.91" stop-color="#191560"/>
<stop offset="1" stop-color="#180D5B"/>
</linearGradient>
<linearGradient id="paint25_linear_1777_7781" x1="281.484" y1="55.2264" x2="222.957" y2="55.2264" gradientUnits="userSpaceOnUse">
<stop stop-color="#42E8E0"/>
<stop offset="0.1" stop-color="#3CC9CD"/>
<stop offset="0.34" stop-color="#2F87A5"/>
<stop offset="0.56" stop-color="#255285"/>
<stop offset="0.75" stop-color="#1E2C6E"/>
<stop offset="0.91" stop-color="#191560"/>
<stop offset="1" stop-color="#180D5B"/>
</linearGradient>
<linearGradient id="paint26_linear_1777_7781" x1="239.285" y1="55.2265" x2="210.022" y2="55.2265" gradientUnits="userSpaceOnUse">
<stop stop-color="#2B237C"/>
<stop offset="1" stop-color="#180D5B"/>
</linearGradient>
<linearGradient id="paint27_linear_1777_7781" x1="268.548" y1="48.7588" x2="210.014" y2="48.7588" gradientUnits="userSpaceOnUse">
<stop stop-color="#5438DC"/>
<stop offset="1" stop-color="#6F03E0"/>
</linearGradient>
<linearGradient id="paint28_linear_1777_7781" x1="268.548" y1="48.7588" x2="238.676" y2="48.7588" gradientUnits="userSpaceOnUse">
<stop stop-color="#42E8E0"/>
<stop offset="0.1" stop-color="#3CC9CD"/>
<stop offset="0.34" stop-color="#2F87A5"/>
<stop offset="0.56" stop-color="#255285"/>
<stop offset="0.75" stop-color="#1E2C6E"/>
<stop offset="0.91" stop-color="#191560"/>
<stop offset="1" stop-color="#180D5B"/>
</linearGradient>
<linearGradient id="paint29_linear_1777_7781" x1="260.585" y1="65.7954" x2="211.595" y2="33.7725" gradientUnits="userSpaceOnUse">
<stop stop-color="#42E8E0"/>
<stop offset="0.1" stop-color="#3CC9CD"/>
<stop offset="0.34" stop-color="#2F87A5"/>
<stop offset="0.56" stop-color="#255285"/>
<stop offset="0.75" stop-color="#1E2C6E"/>
<stop offset="0.91" stop-color="#191560"/>
<stop offset="1" stop-color="#180D5B"/>
</linearGradient>
<linearGradient id="paint30_linear_1777_7781" x1="71.593" y1="197.156" x2="159.236" y2="197.156" gradientUnits="userSpaceOnUse">
<stop stop-color="#42E8E0"/>
<stop offset="0.1" stop-color="#3CC9CD"/>
<stop offset="0.34" stop-color="#2F87A5"/>
<stop offset="0.56" stop-color="#255285"/>
<stop offset="0.75" stop-color="#1E2C6E"/>
<stop offset="0.91" stop-color="#191560"/>
<stop offset="1" stop-color="#180D5B"/>
</linearGradient>
<linearGradient id="paint31_linear_1777_7781" x1="134.783" y1="197.148" x2="178.608" y2="197.148" gradientUnits="userSpaceOnUse">
<stop stop-color="#2B237C"/>
<stop offset="1" stop-color="#180D5B"/>
</linearGradient>
<linearGradient id="paint32_linear_1777_7781" x1="90.9652" y1="187.473" x2="178.608" y2="187.473" gradientUnits="userSpaceOnUse">
<stop stop-color="#42E8E0"/>
<stop offset="0.1" stop-color="#3CC9CD"/>
<stop offset="0.34" stop-color="#2F87A5"/>
<stop offset="0.56" stop-color="#255285"/>
<stop offset="0.75" stop-color="#1E2C6E"/>
<stop offset="0.91" stop-color="#191560"/>
<stop offset="1" stop-color="#180D5B"/>
</linearGradient>
<linearGradient id="paint33_linear_1777_7781" x1="90.9654" y1="187.473" x2="135.7" y2="187.473" gradientUnits="userSpaceOnUse">
<stop stop-color="#42E8E0"/>
<stop offset="0.1" stop-color="#3CC9CD"/>
<stop offset="0.34" stop-color="#2F87A5"/>
<stop offset="0.56" stop-color="#255285"/>
<stop offset="0.75" stop-color="#1E2C6E"/>
<stop offset="0.91" stop-color="#191560"/>
<stop offset="1" stop-color="#180D5B"/>
</linearGradient>
<linearGradient id="paint34_linear_1777_7781" x1="102.883" y1="212.974" x2="176.242" y2="165.025" gradientUnits="userSpaceOnUse">
<stop stop-color="#42E8E0"/>
<stop offset="0.1" stop-color="#3CC9CD"/>
<stop offset="0.34" stop-color="#2F87A5"/>
<stop offset="0.56" stop-color="#255285"/>
<stop offset="0.75" stop-color="#1E2C6E"/>
<stop offset="0.91" stop-color="#191560"/>
<stop offset="1" stop-color="#180D5B"/>
</linearGradient>
<linearGradient id="paint35_linear_1777_7781" x1="71.593" y1="128.916" x2="159.236" y2="128.916" gradientUnits="userSpaceOnUse">
<stop stop-color="#42E8E0"/>
<stop offset="0.1" stop-color="#3CC9CD"/>
<stop offset="0.34" stop-color="#2F87A5"/>
<stop offset="0.56" stop-color="#255285"/>
<stop offset="0.75" stop-color="#1E2C6E"/>
<stop offset="0.91" stop-color="#191560"/>
<stop offset="1" stop-color="#180D5B"/>
</linearGradient>
<linearGradient id="paint36_linear_1777_7781" x1="134.783" y1="128.916" x2="178.608" y2="128.916" gradientUnits="userSpaceOnUse">
<stop stop-color="#2B237C"/>
<stop offset="1" stop-color="#180D5B"/>
</linearGradient>
<linearGradient id="paint37_linear_1777_7781" x1="90.9652" y1="119.234" x2="178.608" y2="119.234" gradientUnits="userSpaceOnUse">
<stop stop-color="#42E8E0"/>
<stop offset="0.1" stop-color="#3CC9CD"/>
<stop offset="0.34" stop-color="#2F87A5"/>
<stop offset="0.56" stop-color="#255285"/>
<stop offset="0.75" stop-color="#1E2C6E"/>
<stop offset="0.91" stop-color="#191560"/>
<stop offset="1" stop-color="#180D5B"/>
</linearGradient>
<linearGradient id="paint38_linear_1777_7781" x1="90.9654" y1="119.234" x2="135.7" y2="119.234" gradientUnits="userSpaceOnUse">
<stop stop-color="#42E8E0"/>
<stop offset="0.1" stop-color="#3CC9CD"/>
<stop offset="0.34" stop-color="#2F87A5"/>
<stop offset="0.56" stop-color="#255285"/>
<stop offset="0.75" stop-color="#1E2C6E"/>
<stop offset="0.91" stop-color="#191560"/>
<stop offset="1" stop-color="#180D5B"/>
</linearGradient>
<linearGradient id="paint39_linear_1777_7781" x1="102.883" y1="144.735" x2="176.242" y2="96.7854" gradientUnits="userSpaceOnUse">
<stop stop-color="#42E8E0"/>
<stop offset="0.1" stop-color="#3CC9CD"/>
<stop offset="0.34" stop-color="#2F87A5"/>
<stop offset="0.56" stop-color="#255285"/>
<stop offset="0.75" stop-color="#1E2C6E"/>
<stop offset="0.91" stop-color="#191560"/>
<stop offset="1" stop-color="#180D5B"/>
</linearGradient>
<linearGradient id="paint40_linear_1777_7781" x1="134.274" y1="173.435" x2="134.274" y2="82.7168" gradientUnits="userSpaceOnUse">
<stop stop-color="#42E8E0"/>
<stop offset="0.04" stop-color="#3CCDCB"/>
<stop offset="0.11" stop-color="#329EA7"/>
<stop offset="0.19" stop-color="#297487"/>
<stop offset="0.27" stop-color="#22506C"/>
<stop offset="0.36" stop-color="#1C3457"/>
<stop offset="0.45" stop-color="#171D46"/>
<stop offset="0.55" stop-color="#140E3A"/>
<stop offset="0.66" stop-color="#120433"/>
<stop offset="0.82" stop-color="#120231"/>
</linearGradient>
<linearGradient id="paint41_linear_1777_7781" x1="134.274" y1="160.523" x2="134.274" y2="95.6292" gradientUnits="userSpaceOnUse">
<stop stop-color="#42E8E0"/>
<stop offset="0.04" stop-color="#3CCDCB"/>
<stop offset="0.11" stop-color="#329EA7"/>
<stop offset="0.19" stop-color="#297487"/>
<stop offset="0.27" stop-color="#22506C"/>
<stop offset="0.36" stop-color="#1C3457"/>
<stop offset="0.45" stop-color="#171D46"/>
<stop offset="0.55" stop-color="#140E3A"/>
<stop offset="0.66" stop-color="#120433"/>
<stop offset="0.82" stop-color="#120231"/>
</linearGradient>
<linearGradient id="paint42_linear_1777_7781" x1="71.593" y1="103.222" x2="159.236" y2="103.222" gradientUnits="userSpaceOnUse">
<stop stop-color="#42E8E0"/>
<stop offset="0.1" stop-color="#3CC9CD"/>
<stop offset="0.34" stop-color="#2F87A5"/>
<stop offset="0.56" stop-color="#255285"/>
<stop offset="0.75" stop-color="#1E2C6E"/>
<stop offset="0.91" stop-color="#191560"/>
<stop offset="1" stop-color="#180D5B"/>
</linearGradient>
<linearGradient id="paint43_linear_1777_7781" x1="134.783" y1="103.222" x2="178.608" y2="103.222" gradientUnits="userSpaceOnUse">
<stop stop-color="#2B237C"/>
<stop offset="1" stop-color="#180D5B"/>
</linearGradient>
<linearGradient id="paint44_linear_1777_7781" x1="90.9652" y1="93.54" x2="178.608" y2="93.54" gradientUnits="userSpaceOnUse">
<stop stop-color="#42E8E0"/>
<stop offset="0.1" stop-color="#3CC9CD"/>
<stop offset="0.34" stop-color="#2F87A5"/>
<stop offset="0.56" stop-color="#255285"/>
<stop offset="0.75" stop-color="#1E2C6E"/>
<stop offset="0.91" stop-color="#191560"/>
<stop offset="1" stop-color="#180D5B"/>
</linearGradient>
<linearGradient id="paint45_linear_1777_7781" x1="90.9654" y1="93.5398" x2="135.7" y2="93.5398" gradientUnits="userSpaceOnUse">
<stop stop-color="#42E8E0"/>
<stop offset="0.1" stop-color="#3CC9CD"/>
<stop offset="0.34" stop-color="#2F87A5"/>
<stop offset="0.56" stop-color="#255285"/>
<stop offset="0.75" stop-color="#1E2C6E"/>
<stop offset="0.91" stop-color="#191560"/>
<stop offset="1" stop-color="#180D5B"/>
</linearGradient>
<linearGradient id="paint46_linear_1777_7781" x1="102.883" y1="119.041" x2="176.242" y2="71.0916" gradientUnits="userSpaceOnUse">
<stop stop-color="#42E8E0"/>
<stop offset="0.1" stop-color="#3CC9CD"/>
<stop offset="0.34" stop-color="#2F87A5"/>
<stop offset="0.56" stop-color="#255285"/>
<stop offset="0.75" stop-color="#1E2C6E"/>
<stop offset="0.91" stop-color="#191560"/>
<stop offset="1" stop-color="#180D5B"/>
</linearGradient>
<linearGradient id="paint47_linear_1777_7781" x1="71.593" y1="34.983" x2="159.236" y2="34.983" gradientUnits="userSpaceOnUse">
<stop stop-color="#42E8E0"/>
<stop offset="0.1" stop-color="#3CC9CD"/>
<stop offset="0.34" stop-color="#2F87A5"/>
<stop offset="0.56" stop-color="#255285"/>
<stop offset="0.75" stop-color="#1E2C6E"/>
<stop offset="0.91" stop-color="#191560"/>
<stop offset="1" stop-color="#180D5B"/>
</linearGradient>
<linearGradient id="paint48_linear_1777_7781" x1="134.783" y1="34.9831" x2="178.608" y2="34.9831" gradientUnits="userSpaceOnUse">
<stop stop-color="#2B237C"/>
<stop offset="1" stop-color="#180D5B"/>
</linearGradient>
<linearGradient id="paint49_linear_1777_7781" x1="90.9652" y1="25.3006" x2="178.608" y2="25.3006" gradientUnits="userSpaceOnUse">
<stop stop-color="#5438DC"/>
<stop offset="1" stop-color="#6F03E0"/>
</linearGradient>
<linearGradient id="paint50_linear_1777_7781" x1="90.9654" y1="25.3005" x2="135.7" y2="25.3005" gradientUnits="userSpaceOnUse">
<stop stop-color="#42E8E0"/>
<stop offset="0.1" stop-color="#3CC9CD"/>
<stop offset="0.34" stop-color="#2F87A5"/>
<stop offset="0.56" stop-color="#255285"/>
<stop offset="0.75" stop-color="#1E2C6E"/>
<stop offset="0.91" stop-color="#191560"/>
<stop offset="1" stop-color="#180D5B"/>
</linearGradient>
<linearGradient id="paint51_linear_1777_7781" x1="102.883" y1="50.8018" x2="176.242" y2="2.85231" gradientUnits="userSpaceOnUse">
<stop stop-color="#42E8E0"/>
<stop offset="0.1" stop-color="#3CC9CD"/>
<stop offset="0.34" stop-color="#2F87A5"/>
<stop offset="0.56" stop-color="#255285"/>
<stop offset="0.75" stop-color="#1E2C6E"/>
<stop offset="0.91" stop-color="#191560"/>
<stop offset="1" stop-color="#180D5B"/>
</linearGradient>
<clipPath id="clip0_1777_7781">
<rect width="268.548" height="220.043" fill="white"/>
</clipPath>
</defs>
</svg>
