<svg width="280" height="332" viewBox="0 0 280 332" fill="none" xmlns="http://www.w3.org/2000/svg">
<g clip-path="url(#clip0_1777_8277)">
<g opacity="0.5">
<path opacity="0.2" d="M73.4611 0V162.817L0 205.226V42.4204L73.4611 0Z" fill="url(#paint0_linear_1777_8277)"/>
<path opacity="0.6" d="M82.0649 4.92969V167.747L8.60376 210.156V47.3501L82.0649 4.92969Z" fill="url(#paint1_linear_1777_8277)"/>
<path d="M90.6689 9.85938V172.676L17.2078 215.097V52.2798L90.6689 9.85938Z" fill="url(#paint2_linear_1777_8277)"/>
</g>
<path d="M98.0288 99.2958L171.501 56.887L98.0288 14.4666L24.5676 56.887L98.0288 99.2958Z" fill="#BCBEFF"/>
<path d="M95.2184 297.979L14.858 251.574C14.0288 251.09 13.522 250.226 13.522 249.27C13.522 248.314 14.0172 247.439 14.858 246.967L95.2299 200.561C96.9576 199.559 99.1114 199.559 100.851 200.561L181.223 246.955C182.052 247.439 182.559 248.303 182.559 249.27C182.559 250.238 182.063 251.102 181.223 251.574L100.851 297.979C99.9868 298.486 99.0078 298.728 98.0403 298.728C97.0728 298.728 96.0938 298.475 95.2299 297.979H95.2184ZM180.393 250.157C180.854 249.892 180.912 249.443 180.912 249.27C180.912 249.098 180.865 248.648 180.393 248.383L100.033 201.989C98.812 201.287 97.2801 201.287 96.0477 201.989L15.6758 248.383C15.2151 248.648 15.169 249.098 15.169 249.27C15.169 249.443 15.2151 249.892 15.6758 250.157L96.0362 296.551C97.2686 297.265 98.7889 297.254 100.021 296.551L180.393 250.146V250.157Z" fill="url(#paint3_linear_1777_8277)"/>
<g opacity="0.67">
<path d="M98.0288 285.206L160.283 249.27L98.0288 213.334L35.7861 249.27L98.0288 285.206Z" fill="#24126A"/>
</g>
<path d="M98.0288 262.113L171.501 219.692L98.0288 177.283L24.5676 219.692L98.0288 262.113Z" fill="white"/>
<path d="M24.5676 56.887V219.692L98.0287 262.113V99.2958L24.5676 56.887Z" fill="url(#paint4_linear_1777_8277)"/>
<path d="M171.501 56.887V219.692L98.0288 262.113V99.2958L171.501 56.887Z" fill="#24126A"/>
<g opacity="0.51">
<path d="M166.526 67.6792V214.026L103.004 250.699V104.352L166.526 67.6792Z" fill="#453C9E"/>
</g>
<path d="M35.5903 96.2205V100.528L87.0062 130.21V125.914L35.5903 96.2205Z" fill="#453C9E"/>
<path d="M35.5903 114.419V118.715L87.0062 148.408V144.101L35.5903 114.419Z" fill="#453C9E"/>
<path d="M35.5903 132.605V136.913L87.0062 166.606V162.299L35.5903 132.605Z" fill="#453C9E"/>
<path d="M35.5903 150.804V155.112L87.0062 184.805V180.497L35.5903 150.804Z" fill="#453C9E"/>
<path d="M35.5903 169.002V173.31L87.0062 202.992V198.695L35.5903 169.002Z" fill="#453C9E"/>
<path d="M35.5903 187.2V191.497L87.0062 221.19V216.894L35.5903 187.2Z" fill="#453C9E"/>
<path opacity="0.78" d="M98.0288 88.1465H117.333L171.501 56.8869L112.564 22.8516H98.0288V88.1465Z" fill="url(#paint5_linear_1777_8277)"/>
<path d="M98.0287 84.4032L151.333 53.6274L98.0287 22.8516L44.7239 53.6274L98.0287 84.4032Z" fill="url(#paint6_linear_1777_8277)"/>
<path d="M44.7239 53.6274V57.3708L98.0287 88.1466V84.4032L44.7239 53.6274Z" fill="url(#paint7_linear_1777_8277)"/>
<path d="M151.334 53.6274V57.3708L98.0288 88.1466V84.4032L151.334 53.6274Z" fill="url(#paint8_linear_1777_8277)"/>
<path d="M118.703 54.1226L121.065 52.7635L120.869 51.6578L98.9733 38.9075L95.9326 40.3587L96.497 41.3032L118.703 54.1226Z" fill="#3F21D3"/>
<path d="M98.8581 39.9441L96.4969 41.3032L94.9766 40.4279L98.8581 38.1819L122.585 51.8882L121.065 52.7635L98.8581 39.9441Z" fill="url(#paint9_linear_1777_8277)"/>
<path d="M111.539 58.2461L113.901 56.887L113.705 55.7813L91.8093 43.031L88.7686 44.4823L89.3329 45.4267L111.539 58.2461Z" fill="#3F21D3"/>
<path d="M91.694 44.0676L89.3329 45.4267L87.8125 44.5514L91.694 42.3169L115.421 56.0117L113.901 56.887L91.694 44.0676Z" fill="url(#paint10_linear_1777_8277)"/>
<path d="M104.375 62.3694L106.736 61.0103L106.54 59.9046L84.645 47.1543L81.6042 48.6056L82.1686 49.55L104.375 62.3694Z" fill="#3F21D3"/>
<path d="M84.5297 48.1909L82.1686 49.55L80.6482 48.6747L84.5297 46.4402L108.257 60.135L106.736 61.0103L84.5297 48.1909Z" fill="url(#paint11_linear_1777_8277)"/>
<path d="M97.2111 66.4929L99.5723 65.1338L99.3765 64.0281L77.4694 51.2893L74.4287 52.729L75.0046 53.6735L97.2111 66.4929Z" fill="#3F21D3"/>
<path d="M77.3541 52.3144L75.0045 53.6735L73.4841 52.7982L77.3541 50.5637L101.081 64.2585L99.5606 65.1339L77.3541 52.3144Z" fill="url(#paint12_linear_1777_8277)"/>
<g opacity="0.51">
<path d="M171.501 193.961L98.0288 149.606V99.2958L171.501 56.887V193.961Z" fill="#453C9E"/>
</g>
<path d="M100.943 106.621C100.943 104.755 102.256 102.486 103.868 101.553C104.675 101.081 105.412 101.046 105.942 101.357L108.015 102.567L106.736 102.613C106.771 102.809 106.794 103.016 106.794 103.246C106.794 105.112 105.481 107.381 103.868 108.314C103.65 108.441 103.442 108.533 103.246 108.591L103.845 109.708L101.818 108.522C101.277 108.222 100.954 107.566 100.954 106.621H100.943Z" fill="url(#paint13_linear_1777_8277)"/>
<path d="M103.028 107.842C103.028 109.708 104.341 110.457 105.953 109.535C107.566 108.602 108.879 106.333 108.879 104.467C108.879 102.601 107.566 101.853 105.953 102.774C104.341 103.707 103.028 105.976 103.028 107.842Z" fill="url(#paint14_linear_1777_8277)"/>
<path d="M104.271 107.116C104.271 108.188 105.02 108.625 105.953 108.084C106.886 107.543 107.635 106.241 107.635 105.17C107.635 104.099 106.886 103.661 105.953 104.202C105.02 104.744 104.271 106.045 104.271 107.116Z" fill="#3F21D3"/>
<path d="M162.552 68.762C162.552 66.8961 163.865 64.6271 165.478 63.6941C166.284 63.2219 167.021 63.1874 167.551 63.4983L169.624 64.7077L168.346 64.7538C168.38 64.9496 168.403 65.1569 168.403 65.3873C168.403 67.2532 167.09 69.5222 165.478 70.4551C165.259 70.5818 165.051 70.674 164.856 70.7316L165.454 71.8488L163.427 70.6625C162.898 70.363 162.564 69.7065 162.564 68.762H162.552Z" fill="url(#paint15_linear_1777_8277)"/>
<path d="M164.637 69.9829C164.637 71.8488 165.95 72.5974 167.562 71.676C169.175 70.7546 170.488 68.474 170.488 66.6081C170.488 64.7422 169.175 63.9936 167.562 64.915C165.95 65.8364 164.637 68.117 164.637 69.9829Z" fill="url(#paint16_linear_1777_8277)"/>
<path d="M165.881 69.2687C165.881 70.3399 166.629 70.7776 167.562 70.2362C168.495 69.6949 169.244 68.3934 169.244 67.3222C169.244 66.251 168.495 65.8134 167.562 66.3547C166.629 66.896 165.881 68.1976 165.881 69.2687Z" fill="#3F21D3"/>
<path d="M100.943 252.426C100.943 250.56 102.256 248.291 103.868 247.358C104.675 246.886 105.412 246.852 105.942 247.163L108.015 248.372L106.736 248.418C106.771 248.614 106.794 248.821 106.794 249.052C106.794 250.917 105.481 253.187 103.868 254.119C103.65 254.246 103.442 254.338 103.246 254.396L103.845 255.513L101.818 254.327C101.277 254.027 100.954 253.371 100.954 252.426H100.943Z" fill="url(#paint17_linear_1777_8277)"/>
<path d="M103.028 253.647C103.028 255.513 104.341 256.262 105.953 255.34C107.566 254.407 108.879 252.138 108.879 250.272C108.879 248.407 107.566 247.658 105.953 248.579C104.341 249.512 103.028 251.781 103.028 253.647Z" fill="url(#paint18_linear_1777_8277)"/>
<path d="M104.271 252.933C104.271 254.004 105.02 254.442 105.953 253.901C106.886 253.359 107.635 252.058 107.635 250.987C107.635 249.915 106.886 249.478 105.953 250.019C105.02 250.56 104.271 251.862 104.271 252.933Z" fill="#3F21D3"/>
<path d="M162.552 214.567C162.552 212.701 163.865 210.432 165.478 209.499C166.284 209.027 167.021 208.992 167.551 209.303L169.624 210.513L168.346 210.559C168.38 210.755 168.403 210.962 168.403 211.192C168.403 213.058 167.09 215.327 165.478 216.26C165.259 216.387 165.051 216.479 164.856 216.537L165.454 217.654L163.427 216.467C162.898 216.168 162.564 215.511 162.564 214.567H162.552Z" fill="url(#paint19_linear_1777_8277)"/>
<path d="M164.637 215.788C164.637 217.654 165.95 218.402 167.562 217.481C169.175 216.548 170.488 214.279 170.488 212.413C170.488 210.547 169.175 209.799 167.562 210.72C165.95 211.653 164.637 213.922 164.637 215.788Z" fill="url(#paint20_linear_1777_8277)"/>
<path d="M165.881 215.074C165.881 216.145 166.629 216.583 167.562 216.041C168.495 215.5 169.244 214.198 169.244 213.127C169.244 212.056 168.495 211.618 167.562 212.16C166.629 212.701 165.881 214.003 165.881 215.074Z" fill="#3F21D3"/>
<path d="M238.294 253.187L197.774 229.794C197.532 229.655 197.382 229.391 197.382 229.103C197.382 228.815 197.532 228.561 197.774 228.412L238.294 205.019C238.536 204.88 238.847 204.88 239.088 205.019L279.608 228.412C279.85 228.55 280 228.815 280 229.103C280 229.391 279.85 229.644 279.608 229.794L239.088 253.187C238.962 253.256 238.823 253.29 238.697 253.29C238.57 253.29 238.42 253.256 238.305 253.187H238.294ZM238.697 206.631L199.766 229.114L238.697 251.597L277.627 229.114L238.697 206.643V206.631Z" fill="url(#paint21_linear_1777_8277)"/>
<path d="M202.185 220.637V213.265L238.697 233.41L275.197 213.265V220.637L238.685 241.703L202.185 220.637Z" fill="url(#paint22_linear_1777_8277)"/>
<path d="M238.685 234.343L275.197 213.265L238.697 192.199L202.185 213.265L238.685 234.343Z" fill="url(#paint23_linear_1777_8277)"/>
<path opacity="0.5" d="M238.685 233.733L274.667 212.966L275.197 213.265L238.685 234.343L202.185 213.265L202.715 212.966L238.685 233.733Z" fill="white"/>
<path d="M238.685 226.292L261.26 213.266L238.697 200.239L216.122 213.266L238.685 226.292Z" fill="#0F054C"/>
<path opacity="0.5" d="M238.685 226.292L261.26 213.266L238.697 200.239L216.122 213.266L238.685 226.292Z" fill="url(#paint24_linear_1777_8277)"/>
<path opacity="0.5" d="M238.697 182.017L216.122 195.044V213.265L238.697 200.239V182.017Z" fill="url(#paint25_linear_1777_8277)"/>
<path opacity="0.5" d="M238.685 200.239L261.26 213.265V195.044L238.697 182.017L238.685 200.239Z" fill="url(#paint26_linear_1777_8277)"/>
<path opacity="0.5" d="M238.685 208.071L261.26 195.044L238.697 182.017L216.122 195.044L238.685 208.071Z" fill="url(#paint27_linear_1777_8277)"/>
<path opacity="0.5" d="M238.685 208.071V226.292L216.122 213.266V195.044L238.685 208.071Z" fill="url(#paint28_linear_1777_8277)"/>
<path opacity="0.5" d="M261.26 195.044V213.266L238.685 226.292V208.071L261.26 195.044Z" fill="url(#paint29_linear_1777_8277)"/>
<g style="mix-blend-mode:lighten">
<path d="M139.988 137.881L148.201 133.135V131.339L139.988 136.072V137.881Z" fill="#62EEFF"/>
<path d="M135.784 140.311L138.733 138.606V136.798L135.784 138.503V140.311Z" fill="#62EEFF"/>
<path d="M132.525 142.188L134.529 141.025V139.228L132.525 140.392V142.188Z" fill="#62EEFF"/>
<path d="M143.72 139.839L148.201 137.259V135.45L143.72 138.03V139.839Z" fill="#62EEFF"/>
<path d="M136.994 143.72L142.476 140.564V138.756L136.994 141.924V143.72Z" fill="#62EEFF"/>
<path d="M133.734 145.609L135.738 144.446V142.649L133.734 143.801V145.609Z" fill="#62EEFF"/>
<path d="M130.624 147.395L132.64 146.243V144.435L130.624 145.598V147.395Z" fill="#62EEFF"/>
<path d="M144.964 143.237L148.201 141.371V139.574L144.964 141.44V143.237Z" fill="#62EEFF"/>
<path d="M142.603 144.596L143.709 143.962V142.166L142.603 142.799V144.596Z" fill="#62EEFF"/>
<path d="M139.344 146.485L141.348 145.321V143.525L139.344 144.688V146.485Z" fill="#62EEFF"/>
<path d="M136.257 152.382L148.201 145.483V143.686L136.257 150.573V152.382Z" fill="#62EEFF"/>
<path d="M132.052 154.812L135.001 153.107V151.299L132.052 153.004V154.812Z" fill="#62EEFF"/>
<path d="M144.964 151.472L148.201 149.606V147.798L144.964 149.664V151.472Z" fill="#62EEFF"/>
<path d="M137.374 155.849L143.709 152.197V150.389L137.374 154.052V155.849Z" fill="#62EEFF"/>
<path d="M134.114 157.738L136.118 156.574V154.778L134.114 155.929V157.738Z" fill="#62EEFF"/>
<path d="M141.578 157.542L148.201 153.718V151.921L141.578 155.734V157.542Z" fill="#62EEFF"/>
<path d="M135.542 161.032L140.322 158.268V156.459L135.542 159.224V161.032Z" fill="#62EEFF"/>
<path d="M131.051 163.623L134.287 161.746V159.949L131.051 161.815V163.623Z" fill="#62EEFF"/>
<path d="M145.955 159.12L148.201 157.83V156.033L145.955 157.323V159.12Z" fill="#62EEFF"/>
<path d="M141.751 161.55L144.711 159.845V158.049L141.751 159.753V161.55Z" fill="#62EEFF"/>
<path d="M135.738 165.029L140.495 162.276V160.479L135.738 163.22V165.029Z" fill="#62EEFF"/>
<path d="M141.347 165.904L148.201 161.953V160.145L141.347 164.107V165.904Z" fill="#62EEFF"/>
<path d="M133.677 170.327L140.092 166.629V164.821L133.677 168.53V170.327Z" fill="#62EEFF"/>
<path d="M130.417 172.216L132.421 171.052V169.256L130.417 170.407V172.216Z" fill="#62EEFF"/>
<path d="M127.296 174.024L129.3 172.861V171.064L127.296 172.216V174.024Z" fill="#62EEFF"/>
<path d="M144.089 168.438L148.201 166.065V164.268L144.089 166.629V168.438Z" fill="#62EEFF"/>
<path d="M126.939 145.413L121.249 148.696V146.899L126.939 143.617V145.413Z" fill="#62EEFF"/>
<path d="M125.718 150.228L121.249 152.819V151.011L125.718 148.431V150.228Z" fill="#62EEFF"/>
<path d="M124.485 155.065L121.249 156.931V155.123L124.485 153.257V155.065Z" fill="#62EEFF"/>
<path d="M125.948 158.325L121.249 161.043V159.247L125.948 156.528V158.325Z" fill="#62EEFF"/>
<path d="M124.485 163.289L121.249 165.167V163.358L124.485 161.492V163.289Z" fill="#62EEFF"/>
<path d="M125.349 166.906L121.249 169.279V167.47L125.349 165.109V166.906Z" fill="#62EEFF"/>
<path d="M123.483 172.1L121.249 173.39V171.594L123.483 170.304V172.1Z" fill="#62EEFF"/>
<path d="M125.58 175.003L121.249 177.514V175.705L125.58 173.206V175.003Z" fill="#62EEFF"/>
<path d="M125.349 179.253L121.249 181.626V179.817L125.349 177.456V179.253Z" fill="#62EEFF"/>
<path d="M141.094 170.165L142.845 169.163V167.355L141.094 168.369V170.165Z" fill="#62EEFF"/>
<path d="M135.911 173.16L139.839 170.891V169.083L135.911 171.352V173.16Z" fill="#62EEFF"/>
<path d="M132.663 187.005L139.297 183.169V181.372L132.663 185.196V187.005Z" fill="#62EEFF"/>
<path d="M128.125 189.619L130.74 188.11V186.313L128.125 187.822V189.619Z" fill="#62EEFF"/>
</g>
<path d="M188.329 331.923C188.179 331.923 188.03 331.888 187.903 331.808L133.435 300.364C133.17 300.214 133.009 299.926 133.009 299.627C133.009 299.327 133.17 299.039 133.435 298.889L187.903 267.446C188.168 267.296 188.49 267.296 188.755 267.446L243.223 298.889C243.488 299.039 243.649 299.327 243.649 299.627C243.649 299.926 243.488 300.214 243.223 300.364L188.755 331.808C188.628 331.888 188.479 331.923 188.329 331.923ZM135.566 299.615L188.317 330.068L241.069 299.604L188.317 269.139L135.566 299.604V299.615Z" fill="url(#paint30_linear_1777_8277)"/>
<path d="M189.665 319.725L223.516 300.179C223.954 299.926 223.954 299.304 223.516 299.051L189.665 279.505C188.836 279.033 187.822 279.033 186.993 279.505L153.142 299.051C152.704 299.304 152.704 299.926 153.142 300.179L186.993 319.725C187.822 320.198 188.836 320.198 189.665 319.725Z" fill="url(#paint31_linear_1777_8277)"/>
<path d="M190.489 150.021L196.617 155.128L207.17 144.234" stroke="#6F03E0" stroke-width="4.08511"/>
<circle cx="199" cy="149" r="18.5" stroke="#6F03E0" stroke-width="5"/>
</g>
<defs>
<linearGradient id="paint0_linear_1777_8277" x1="73.4726" y1="102.613" x2="0" y2="102.613" gradientUnits="userSpaceOnUse">
<stop stop-color="#42E8E0"/>
<stop offset="0.15" stop-color="#42E3DF"/>
<stop offset="0.33" stop-color="#44D4DE"/>
<stop offset="0.52" stop-color="#48BDDD"/>
<stop offset="0.72" stop-color="#4D9BDA"/>
<stop offset="0.93" stop-color="#5471D8"/>
<stop offset="1" stop-color="#5761D7"/>
</linearGradient>
<linearGradient id="paint1_linear_1777_8277" x1="82.0649" y1="107.543" x2="8.60376" y2="107.543" gradientUnits="userSpaceOnUse">
<stop stop-color="#42E8E0"/>
<stop offset="0.15" stop-color="#42E3DF"/>
<stop offset="0.33" stop-color="#44D4DE"/>
<stop offset="0.52" stop-color="#48BDDD"/>
<stop offset="0.72" stop-color="#4D9BDA"/>
<stop offset="0.93" stop-color="#5471D8"/>
<stop offset="1" stop-color="#5761D7"/>
</linearGradient>
<linearGradient id="paint2_linear_1777_8277" x1="90.6689" y1="112.472" x2="17.2078" y2="112.472" gradientUnits="userSpaceOnUse">
<stop stop-color="#42E8E0"/>
<stop offset="0.15" stop-color="#42E3DF"/>
<stop offset="0.33" stop-color="#44D4DE"/>
<stop offset="0.52" stop-color="#48BDDD"/>
<stop offset="0.72" stop-color="#4D9BDA"/>
<stop offset="0.93" stop-color="#5471D8"/>
<stop offset="1" stop-color="#5761D7"/>
</linearGradient>
<linearGradient id="paint3_linear_1777_8277" x1="182.547" y1="249.27" x2="13.522" y2="249.27" gradientUnits="userSpaceOnUse">
<stop stop-color="#5761D7"/>
<stop offset="0.07" stop-color="#5471D8"/>
<stop offset="0.28" stop-color="#4D9BDA"/>
<stop offset="0.48" stop-color="#48BDDD"/>
<stop offset="0.67" stop-color="#44D4DE"/>
<stop offset="0.85" stop-color="#42E3DF"/>
<stop offset="1" stop-color="#42E8E0"/>
</linearGradient>
<linearGradient id="paint4_linear_1777_8277" x1="61.2982" y1="216.272" x2="61.2982" y2="61.2407" gradientUnits="userSpaceOnUse">
<stop stop-color="#C0BFF6"/>
<stop offset="0.29" stop-color="#C4C3F6"/>
<stop offset="0.64" stop-color="#D2D2F9"/>
<stop offset="1" stop-color="#E9E9FD"/>
</linearGradient>
<linearGradient id="paint5_linear_1777_8277" x1="171.501" y1="55.5048" x2="98.0288" y2="55.5048" gradientUnits="userSpaceOnUse">
<stop stop-color="#E9E9FD"/>
<stop offset="0.04" stop-color="#D3D4F7"/>
<stop offset="0.11" stop-color="#B2B5EE"/>
<stop offset="0.18" stop-color="#959BE7"/>
<stop offset="0.27" stop-color="#7E85E1"/>
<stop offset="0.36" stop-color="#6C75DC"/>
<stop offset="0.48" stop-color="#6069D9"/>
<stop offset="0.64" stop-color="#5962D7"/>
<stop offset="1" stop-color="#5761D7"/>
</linearGradient>
<linearGradient id="paint6_linear_1777_8277" x1="151.333" y1="53.6274" x2="44.7239" y2="53.6274" gradientUnits="userSpaceOnUse">
<stop stop-color="#C0BFF6"/>
<stop offset="0.29" stop-color="#C4C3F6"/>
<stop offset="0.64" stop-color="#D2D2F9"/>
<stop offset="1" stop-color="#E9E9FD"/>
</linearGradient>
<linearGradient id="paint7_linear_1777_8277" x1="64.5001" y1="82.9059" x2="77.4577" y2="60.2733" gradientUnits="userSpaceOnUse">
<stop stop-color="#C0BFF6"/>
<stop offset="0.29" stop-color="#C4C3F6"/>
<stop offset="0.64" stop-color="#D2D2F9"/>
<stop offset="1" stop-color="#E9E9FD"/>
</linearGradient>
<linearGradient id="paint8_linear_1777_8277" x1="124.681" y1="72.1712" x2="124.681" y2="37.6521" gradientUnits="userSpaceOnUse">
<stop stop-color="#5761D7"/>
<stop offset="0.18" stop-color="#5B65D8"/>
<stop offset="0.39" stop-color="#6A72DE"/>
<stop offset="0.61" stop-color="#8188E8"/>
<stop offset="0.85" stop-color="#A2A6F5"/>
<stop offset="1" stop-color="#BCBEFF"/>
</linearGradient>
<linearGradient id="paint9_linear_1777_8277" x1="122.585" y1="45.4727" x2="94.9766" y2="45.4727" gradientUnits="userSpaceOnUse">
<stop stop-color="#5761D7"/>
<stop offset="0.18" stop-color="#5B65D8"/>
<stop offset="0.39" stop-color="#6A72DE"/>
<stop offset="0.61" stop-color="#8188E8"/>
<stop offset="0.85" stop-color="#A2A6F5"/>
<stop offset="1" stop-color="#BCBEFF"/>
</linearGradient>
<linearGradient id="paint10_linear_1777_8277" x1="115.421" y1="49.5962" x2="87.8125" y2="49.5962" gradientUnits="userSpaceOnUse">
<stop stop-color="#5761D7"/>
<stop offset="0.18" stop-color="#5B65D8"/>
<stop offset="0.39" stop-color="#6A72DE"/>
<stop offset="0.61" stop-color="#8188E8"/>
<stop offset="0.85" stop-color="#A2A6F5"/>
<stop offset="1" stop-color="#BCBEFF"/>
</linearGradient>
<linearGradient id="paint11_linear_1777_8277" x1="108.257" y1="53.7195" x2="80.6482" y2="53.7195" gradientUnits="userSpaceOnUse">
<stop stop-color="#5761D7"/>
<stop offset="0.18" stop-color="#5B65D8"/>
<stop offset="0.39" stop-color="#6A72DE"/>
<stop offset="0.61" stop-color="#8188E8"/>
<stop offset="0.85" stop-color="#A2A6F5"/>
<stop offset="1" stop-color="#BCBEFF"/>
</linearGradient>
<linearGradient id="paint12_linear_1777_8277" x1="101.093" y1="57.843" x2="73.4841" y2="57.843" gradientUnits="userSpaceOnUse">
<stop stop-color="#5761D7"/>
<stop offset="0.18" stop-color="#5B65D8"/>
<stop offset="0.39" stop-color="#6A72DE"/>
<stop offset="0.61" stop-color="#8188E8"/>
<stop offset="0.85" stop-color="#A2A6F5"/>
<stop offset="1" stop-color="#BCBEFF"/>
</linearGradient>
<linearGradient id="paint13_linear_1777_8277" x1="108.015" y1="105.435" x2="100.943" y2="105.435" gradientUnits="userSpaceOnUse">
<stop stop-color="#C0BFF6"/>
<stop offset="0.29" stop-color="#C4C3F6"/>
<stop offset="0.64" stop-color="#D2D2F9"/>
<stop offset="1" stop-color="#E9E9FD"/>
</linearGradient>
<linearGradient id="paint14_linear_1777_8277" x1="108.867" y1="106.149" x2="103.028" y2="106.149" gradientUnits="userSpaceOnUse">
<stop stop-color="#5761D7"/>
<stop offset="0.18" stop-color="#5B65D8"/>
<stop offset="0.39" stop-color="#6A72DE"/>
<stop offset="0.61" stop-color="#8188E8"/>
<stop offset="0.85" stop-color="#A2A6F5"/>
<stop offset="1" stop-color="#BCBEFF"/>
</linearGradient>
<linearGradient id="paint15_linear_1777_8277" x1="169.624" y1="67.5757" x2="162.552" y2="67.5757" gradientUnits="userSpaceOnUse">
<stop stop-color="#C0BFF6"/>
<stop offset="0.29" stop-color="#C4C3F6"/>
<stop offset="0.64" stop-color="#D2D2F9"/>
<stop offset="1" stop-color="#E9E9FD"/>
</linearGradient>
<linearGradient id="paint16_linear_1777_8277" x1="170.488" y1="68.2897" x2="164.637" y2="68.2897" gradientUnits="userSpaceOnUse">
<stop stop-color="#5761D7"/>
<stop offset="0.18" stop-color="#5B65D8"/>
<stop offset="0.39" stop-color="#6A72DE"/>
<stop offset="0.61" stop-color="#8188E8"/>
<stop offset="0.85" stop-color="#A2A6F5"/>
<stop offset="1" stop-color="#BCBEFF"/>
</linearGradient>
<linearGradient id="paint17_linear_1777_8277" x1="108.015" y1="251.24" x2="100.943" y2="251.24" gradientUnits="userSpaceOnUse">
<stop stop-color="#C0BFF6"/>
<stop offset="0.29" stop-color="#C4C3F6"/>
<stop offset="0.64" stop-color="#D2D2F9"/>
<stop offset="1" stop-color="#E9E9FD"/>
</linearGradient>
<linearGradient id="paint18_linear_1777_8277" x1="108.867" y1="251.966" x2="103.028" y2="251.966" gradientUnits="userSpaceOnUse">
<stop stop-color="#5761D7"/>
<stop offset="0.18" stop-color="#5B65D8"/>
<stop offset="0.39" stop-color="#6A72DE"/>
<stop offset="0.61" stop-color="#8188E8"/>
<stop offset="0.85" stop-color="#A2A6F5"/>
<stop offset="1" stop-color="#BCBEFF"/>
</linearGradient>
<linearGradient id="paint19_linear_1777_8277" x1="169.624" y1="213.381" x2="162.552" y2="213.381" gradientUnits="userSpaceOnUse">
<stop stop-color="#C0BFF6"/>
<stop offset="0.29" stop-color="#C4C3F6"/>
<stop offset="0.64" stop-color="#D2D2F9"/>
<stop offset="1" stop-color="#E9E9FD"/>
</linearGradient>
<linearGradient id="paint20_linear_1777_8277" x1="170.488" y1="214.106" x2="164.637" y2="214.106" gradientUnits="userSpaceOnUse">
<stop stop-color="#5761D7"/>
<stop offset="0.18" stop-color="#5B65D8"/>
<stop offset="0.39" stop-color="#6A72DE"/>
<stop offset="0.61" stop-color="#8188E8"/>
<stop offset="0.85" stop-color="#A2A6F5"/>
<stop offset="1" stop-color="#BCBEFF"/>
</linearGradient>
<linearGradient id="paint21_linear_1777_8277" x1="280" y1="229.114" x2="197.382" y2="229.114" gradientUnits="userSpaceOnUse">
<stop stop-color="#5761D7"/>
<stop offset="0.07" stop-color="#5471D8"/>
<stop offset="0.28" stop-color="#4D9BDA"/>
<stop offset="0.48" stop-color="#48BDDD"/>
<stop offset="0.67" stop-color="#44D4DE"/>
<stop offset="0.85" stop-color="#42E3DF"/>
<stop offset="1" stop-color="#42E8E0"/>
</linearGradient>
<linearGradient id="paint22_linear_1777_8277" x1="275.197" y1="227.49" x2="223.171" y2="227.49" gradientUnits="userSpaceOnUse">
<stop offset="0.25" stop-color="#5761D7"/>
<stop offset="0.44" stop-color="#6B74DF"/>
<stop offset="0.82" stop-color="#A1A5F4"/>
<stop offset="1" stop-color="#BCBEFF"/>
</linearGradient>
<linearGradient id="paint23_linear_1777_8277" x1="275.197" y1="213.265" x2="202.197" y2="213.265" gradientUnits="userSpaceOnUse">
<stop stop-color="#C0BFF6"/>
<stop offset="0.29" stop-color="#C4C3F6"/>
<stop offset="0.64" stop-color="#D2D2F9"/>
<stop offset="1" stop-color="#E9E9FD"/>
</linearGradient>
<linearGradient id="paint24_linear_1777_8277" x1="261.26" y1="213.266" x2="216.122" y2="213.266" gradientUnits="userSpaceOnUse">
<stop stop-color="#42E8E0"/>
<stop offset="0.15" stop-color="#42E3DF"/>
<stop offset="0.33" stop-color="#44D4DE"/>
<stop offset="0.52" stop-color="#48BDDD"/>
<stop offset="0.72" stop-color="#4D9BDA"/>
<stop offset="0.93" stop-color="#5471D8"/>
<stop offset="1" stop-color="#5761D7"/>
</linearGradient>
<linearGradient id="paint25_linear_1777_8277" x1="238.697" y1="197.636" x2="216.122" y2="197.636" gradientUnits="userSpaceOnUse">
<stop stop-color="#42E8E0"/>
<stop offset="0.15" stop-color="#42E3DF"/>
<stop offset="0.33" stop-color="#44D4DE"/>
<stop offset="0.52" stop-color="#48BDDD"/>
<stop offset="0.72" stop-color="#4D9BDA"/>
<stop offset="0.93" stop-color="#5471D8"/>
<stop offset="1" stop-color="#5761D7"/>
</linearGradient>
<linearGradient id="paint26_linear_1777_8277" x1="261.26" y1="197.636" x2="238.697" y2="197.636" gradientUnits="userSpaceOnUse">
<stop stop-color="#42E8E0"/>
<stop offset="0.15" stop-color="#42E3DF"/>
<stop offset="0.33" stop-color="#44D4DE"/>
<stop offset="0.52" stop-color="#48BDDD"/>
<stop offset="0.72" stop-color="#4D9BDA"/>
<stop offset="0.93" stop-color="#5471D8"/>
<stop offset="1" stop-color="#5761D7"/>
</linearGradient>
<linearGradient id="paint27_linear_1777_8277" x1="261.26" y1="195.044" x2="216.122" y2="195.044" gradientUnits="userSpaceOnUse">
<stop stop-color="#42E8E0"/>
<stop offset="0.15" stop-color="#42E3DF"/>
<stop offset="0.33" stop-color="#44D4DE"/>
<stop offset="0.52" stop-color="#48BDDD"/>
<stop offset="0.72" stop-color="#4D9BDA"/>
<stop offset="0.93" stop-color="#5471D8"/>
<stop offset="1" stop-color="#5761D7"/>
</linearGradient>
<linearGradient id="paint28_linear_1777_8277" x1="238.697" y1="210.674" x2="216.122" y2="210.674" gradientUnits="userSpaceOnUse">
<stop stop-color="#42E8E0"/>
<stop offset="0.15" stop-color="#42E3DF"/>
<stop offset="0.33" stop-color="#44D4DE"/>
<stop offset="0.52" stop-color="#48BDDD"/>
<stop offset="0.72" stop-color="#4D9BDA"/>
<stop offset="0.93" stop-color="#5471D8"/>
<stop offset="1" stop-color="#5761D7"/>
</linearGradient>
<linearGradient id="paint29_linear_1777_8277" x1="261.26" y1="210.674" x2="238.697" y2="210.674" gradientUnits="userSpaceOnUse">
<stop stop-color="#42E8E0"/>
<stop offset="0.15" stop-color="#42E3DF"/>
<stop offset="0.33" stop-color="#44D4DE"/>
<stop offset="0.52" stop-color="#48BDDD"/>
<stop offset="0.72" stop-color="#4D9BDA"/>
<stop offset="0.93" stop-color="#5471D8"/>
<stop offset="1" stop-color="#5761D7"/>
</linearGradient>
<linearGradient id="paint30_linear_1777_8277" x1="204.074" y1="324.816" x2="172.573" y2="274.414" gradientUnits="userSpaceOnUse">
<stop stop-color="#42E8E0"/>
<stop offset="0.15" stop-color="#42E3DF"/>
<stop offset="0.33" stop-color="#44D4DE"/>
<stop offset="0.52" stop-color="#48BDDD"/>
<stop offset="0.72" stop-color="#4D9BDA"/>
<stop offset="0.93" stop-color="#5471D8"/>
<stop offset="1" stop-color="#5761D7"/>
</linearGradient>
<linearGradient id="paint31_linear_1777_8277" x1="198.453" y1="315.832" x2="178.193" y2="283.398" gradientUnits="userSpaceOnUse">
<stop stop-color="#42E8E0"/>
<stop offset="0.15" stop-color="#42E3DF"/>
<stop offset="0.33" stop-color="#44D4DE"/>
<stop offset="0.52" stop-color="#48BDDD"/>
<stop offset="0.72" stop-color="#4D9BDA"/>
<stop offset="0.93" stop-color="#5471D8"/>
<stop offset="1" stop-color="#5761D7"/>
</linearGradient>
<clipPath id="clip0_1777_8277">
<rect width="280" height="331.923" fill="white"/>
</clipPath>
</defs>
</svg>
