<svg width="280" height="260" viewBox="0 0 280 260" fill="none" xmlns="http://www.w3.org/2000/svg">
<path opacity="0.7" d="M148.394 122.275C147.269 122.275 146.09 122.551 145.149 123.095L1.54687 206.004C0.564031 206.571 0 207.359 0 208.166C0 208.866 0.413887 209.492 1.16559 209.925L86.8584 259.4C88.3785 260.279 90.928 260.181 92.6625 259.179L236.264 176.271C237.248 175.704 237.811 174.916 237.811 174.109C237.811 173.408 237.397 172.783 236.645 172.349L150.952 122.874C150.257 122.472 149.345 122.275 148.394 122.275ZM2.04076 206.858L145.643 123.949C147.051 123.137 149.258 123.036 150.459 123.729L236.152 173.204C236.458 173.382 236.824 173.682 236.824 174.109C236.824 174.545 236.431 175.035 235.771 175.415L92.1696 258.324C90.7611 259.136 88.5553 259.237 87.3532 258.545L1.66046 209.07C1.35424 208.892 0.988773 208.592 0.988773 208.165C0.987786 207.729 1.38092 207.24 2.04076 206.858Z" fill="#6F03E0"/>
<g clip-path="url(#clip0_1777_5937)">
<g opacity="0.1">
<path d="M20.5278 212.315L82.614 248.392L225.962 165.635L162.372 128.252L20.5278 212.315Z" fill="#3A376A"/>
</g>
<path d="M75.9965 247.188L75.7051 144.015L71.7478 141.712L72.0392 244.885C72.0392 246.098 72.4716 246.935 73.1578 247.339C74.4738 248.11 75.7991 248.871 77.1151 249.642C76.4289 249.247 76.0059 248.401 76.0059 247.188H75.9965Z" fill="#C0C0F6"/>
<path d="M75.6956 144.015L71.7383 141.712L71.7007 127.763L75.658 130.066L75.6956 144.015Z" fill="#C0C0F6"/>
<path d="M226.507 56.9539L75.6956 144.015L75.987 247.188C75.987 249.623 77.7165 250.601 79.8221 249.379L222.982 166.716C225.088 165.504 226.798 162.561 226.798 160.117L226.507 56.9539Z" fill="#352885"/>
<path d="M222.634 40.8237C224.749 39.6017 226.46 40.5793 226.469 43.0044L226.516 56.9632L75.6956 144.015L75.658 130.066C75.658 127.641 77.3593 124.689 79.4743 123.467L222.634 40.8237Z" fill="#F0F0F9"/>
<path d="M223.471 40.4476C223.687 40.3724 223.894 40.3348 224.101 40.316C224.12 40.316 224.138 40.316 224.148 40.3066C224.373 40.2972 224.58 40.3066 224.778 40.3442C224.787 40.3442 224.787 40.3442 224.796 40.3442C224.994 40.3912 225.182 40.457 225.36 40.5604C225.36 40.5604 225.342 40.5604 225.342 40.5416L221.375 38.2387C221.319 38.2011 221.253 38.1635 221.178 38.1447C221.112 38.1259 221.046 38.0977 220.98 38.0789C220.933 38.0695 220.886 38.0601 220.849 38.0507C220.83 38.0507 220.82 38.0507 220.811 38.0507C220.792 38.0507 220.773 38.0413 220.764 38.0413C220.689 38.0319 220.614 38.0225 220.538 38.0131C220.454 38.0131 220.369 38.0131 220.285 38.0131C220.256 38.0131 220.228 38.0131 220.2 38.0225C220.181 38.0225 220.162 38.0225 220.134 38.0225C220.087 38.0225 220.05 38.0225 220.003 38.0319C219.89 38.0507 219.777 38.0789 219.664 38.1071C219.617 38.1165 219.57 38.1447 219.523 38.1541C219.476 38.1729 219.429 38.1823 219.382 38.2011C219.316 38.2199 219.269 38.2387 219.213 38.2575C219.034 38.3327 218.856 38.4173 218.677 38.5207L75.4984 121.164C75.2634 121.305 75.019 121.474 74.784 121.662C74.6994 121.728 74.6242 121.803 74.5396 121.879C74.4268 121.973 74.3234 122.057 74.2294 122.151C74.173 122.198 74.1354 122.255 74.0884 122.302C74.0414 122.349 73.9944 122.396 73.9474 122.452C73.9004 122.499 73.8534 122.546 73.8158 122.602C73.703 122.725 73.5996 122.856 73.4962 122.978C73.4586 123.025 73.4304 123.072 73.3928 123.119C73.3928 123.138 73.3646 123.166 73.3458 123.185C73.3082 123.232 73.2706 123.27 73.2518 123.326C73.1766 123.43 73.1108 123.542 73.0262 123.655C72.9604 123.759 72.8946 123.862 72.8288 123.984C72.8288 123.984 72.81 124.003 72.81 124.012C72.81 124.012 72.81 124.022 72.8006 124.031C72.7536 124.125 72.716 124.21 72.6596 124.304C72.6032 124.417 72.5468 124.52 72.4904 124.633C72.4434 124.727 72.3964 124.83 72.3588 124.934C72.3588 124.934 72.3588 124.943 72.3588 124.952C72.3494 124.952 72.34 124.952 72.34 124.971C72.293 125.084 72.246 125.197 72.2084 125.31C72.152 125.432 72.1144 125.554 72.0768 125.676C72.058 125.733 72.0298 125.789 72.0204 125.845C72.011 125.874 72.0016 125.902 71.9828 125.93C71.9734 125.968 71.964 126.015 71.9452 126.062C71.9076 126.203 71.87 126.353 71.8418 126.503C71.823 126.588 71.8136 126.673 71.7948 126.767C71.7948 126.814 71.776 126.851 71.776 126.908C71.776 126.945 71.7572 126.992 71.7572 127.039C71.7196 127.284 71.7102 127.537 71.7102 127.782L75.6675 130.085C75.6675 129.803 75.7051 129.502 75.7521 129.211C75.7521 129.164 75.7709 129.126 75.7709 129.079C75.8179 128.797 75.8837 128.515 75.9589 128.242C75.9683 128.214 75.9777 128.195 75.9777 128.177C76.0811 127.876 76.1845 127.566 76.3161 127.274C76.3161 127.265 76.3161 127.255 76.3161 127.246C76.4383 126.945 76.5981 126.654 76.7579 126.372C76.7579 126.353 76.7673 126.344 76.7767 126.334C76.9365 126.062 77.1151 125.78 77.3125 125.526C77.3219 125.498 77.3501 125.479 77.3595 125.451C77.5381 125.216 77.7261 124.99 77.9235 124.774C77.9705 124.736 77.9987 124.689 78.0551 124.642C78.2055 124.473 78.3747 124.332 78.5439 124.182C78.6097 124.116 78.6849 124.05 78.7507 123.994C78.9857 123.806 79.2301 123.636 79.4745 123.495L222.635 40.8236C222.879 40.6826 223.114 40.5792 223.34 40.4946C223.396 40.4758 223.434 40.457 223.481 40.4476H223.471Z" fill="#C0C0F6"/>
<path d="M85.152 133.252C87.0884 132.143 88.6488 129.427 88.6394 127.218C88.6394 124.999 87.0602 124.116 85.1238 125.225C83.1875 126.334 81.6365 129.032 81.6365 131.25C81.6365 133.469 83.2251 134.362 85.152 133.252Z" fill="#C0C0F6"/>
<path d="M95.7363 127.133C97.6726 126.024 99.233 123.307 99.2236 121.099C99.2236 118.88 97.6444 117.997 95.7081 119.106C93.7717 120.215 92.2207 122.913 92.2207 125.131C92.2207 127.349 93.8093 128.242 95.7269 127.124L95.7363 127.133Z" fill="#C0C0F6"/>
<path d="M106.057 121.146C107.994 120.036 109.554 117.32 109.545 115.111C109.545 112.892 107.965 112.009 106.029 113.127C104.093 114.237 102.542 116.934 102.542 119.153C102.542 121.371 104.13 122.264 106.048 121.146H106.057Z" fill="#C0C0F6"/>
<g opacity="0.09">
<path d="M247.591 41.1244L241.256 44.8092C240.851 45.0442 240.363 45.0442 239.958 44.8092L233.557 41.115C232.692 40.6168 232.692 39.376 233.557 38.8778L239.893 35.1931C240.297 34.9581 240.786 34.9581 241.19 35.1931L247.582 38.8872C248.446 39.3854 248.446 40.6262 247.582 41.1244H247.591Z" fill="#5438DC"/>
</g>
<g opacity="0.18">
<path d="M247.591 37.6183L241.256 41.3031C240.851 41.5381 240.363 41.5381 239.958 41.3031L233.557 37.6089C232.692 37.1107 232.692 35.8699 233.557 35.3717L239.893 31.687C240.297 31.452 240.786 31.452 241.19 31.687L247.582 35.3811C248.446 35.8793 248.446 37.1201 247.582 37.6183H247.591Z" fill="#5438DC"/>
</g>
<g opacity="0.27">
<path d="M247.591 34.1121L241.256 37.7968C240.851 38.0318 240.363 38.0318 239.958 37.7968L233.557 34.1027C232.692 33.6045 232.692 32.3637 233.557 31.8655L239.893 28.1808C240.297 27.9458 240.786 27.9458 241.19 28.1808L247.582 31.8749C248.446 32.3731 248.446 33.6139 247.582 34.1121H247.591Z" fill="#5438DC"/>
</g>
<g opacity="0.36">
<path d="M247.591 30.6154L241.256 34.3001C240.851 34.5351 240.363 34.5351 239.958 34.3001L233.557 30.606C232.692 30.1078 232.692 28.867 233.557 28.3688L239.893 24.6841C240.297 24.4491 240.786 24.4491 241.19 24.6841L247.582 28.3782C248.446 28.8764 248.446 30.1172 247.582 30.6154H247.591Z" fill="#5438DC"/>
</g>
<g opacity="0.45">
<path d="M247.591 27.1092L241.256 30.7939C240.851 31.0289 240.363 31.0289 239.958 30.7939L233.557 27.0998C232.692 26.6016 232.692 25.3608 233.557 24.8626L239.893 21.1778C240.297 20.9428 240.786 20.9428 241.19 21.1778L247.582 24.872C248.446 25.3702 248.446 26.611 247.582 27.1092H247.591Z" fill="#5438DC"/>
</g>
<g opacity="0.55">
<path d="M247.591 23.6124L241.256 27.2972C240.851 27.5322 240.363 27.5322 239.958 27.2972L233.557 23.603C232.692 23.1049 232.692 21.8641 233.557 21.3659L239.893 17.6811C240.297 17.4461 240.786 17.4461 241.19 17.6811L247.582 21.3753C248.446 21.8735 248.446 23.1143 247.582 23.6124H247.591Z" fill="#5438DC"/>
</g>
<g opacity="0.64">
<path d="M247.591 20.1063L241.256 23.7911C240.851 24.0261 240.363 24.0261 239.958 23.7911L233.557 20.0969C232.692 19.5988 232.692 18.358 233.557 17.8598L239.893 14.175C240.297 13.94 240.786 13.94 241.19 14.175L247.582 17.8692C248.446 18.3674 248.446 19.6082 247.582 20.1063H247.591Z" fill="#5438DC"/>
</g>
<g opacity="0.73">
<path d="M247.591 16.6095L241.256 20.2943C240.851 20.5293 240.363 20.5293 239.958 20.2943L233.557 16.6001C232.692 16.1019 232.692 14.8611 233.557 14.3629L239.893 10.6782C240.297 10.4432 240.786 10.4432 241.19 10.6782L247.582 14.3723C248.446 14.8705 248.446 16.1113 247.582 16.6095H247.591Z" fill="#5438DC"/>
</g>
<g opacity="0.82">
<path d="M247.591 13.1034L241.256 16.7882C240.851 17.0232 240.363 17.0232 239.958 16.7882L233.557 13.094C232.692 12.5958 232.692 11.355 233.557 10.8568L239.893 7.1721C240.297 6.9371 240.786 6.9371 241.19 7.1721L247.582 10.8662C248.446 11.3644 248.446 12.6052 247.582 13.1034H247.591Z" fill="#5438DC"/>
</g>
<g opacity="0.91">
<path d="M247.591 9.60659L241.256 13.2913C240.851 13.5263 240.363 13.5263 239.958 13.2913L233.557 9.59719C232.692 9.099 232.692 7.85821 233.557 7.36002L239.893 3.67527C240.297 3.44027 240.786 3.44027 241.19 3.67527L247.582 7.36942C248.446 7.86761 248.446 9.1084 247.582 9.60659H247.591Z" fill="#5438DC"/>
</g>
<path d="M247.591 6.10048L241.256 9.78523C240.851 10.0202 240.363 10.0202 239.958 9.78523L233.557 6.09109C232.692 5.59289 232.692 4.35211 233.557 3.85392L239.893 0.169167C240.297 -0.0658293 240.786 -0.0658293 241.19 0.169167L247.582 3.86332C248.446 4.36151 248.446 5.60229 247.582 6.10048H247.591Z" fill="#5438DC"/>
<path d="M247.591 6.10048L241.246 9.78523C240.851 10.0202 240.353 10.0202 239.949 9.78523L233.557 6.09109C232.692 5.59289 232.692 4.35211 233.557 3.85392L239.902 0.169167C240.297 -0.0658293 240.795 -0.0658293 241.199 0.169167L247.591 3.86332C248.456 4.36151 248.456 5.60229 247.591 6.10048Z" fill="#5438DC"/>
<g opacity="0.5">
<path d="M190.261 118.109V120.732L161.864 137.135L161.855 134.512L190.261 118.109Z" fill="#7D2FD1"/>
</g>
<g opacity="0.6">
<path d="M249.819 90.9437L249.866 109.649L209.494 132.961L209.447 114.255L249.819 90.9437Z" fill="url(#paint0_linear_1777_5937)"/>
</g>
<g opacity="0.5">
<path d="M205.32 112.037L252.883 84.58L252.996 126.146L205.433 153.603L205.32 112.037ZM249.866 109.649L249.81 90.9343L209.437 114.246L209.494 132.961L249.866 109.649Z" fill="#7D2FD1"/>
</g>
<g opacity="0.5">
<path d="M252.865 77.1071V80.256L205.311 107.713L205.301 104.573L252.865 77.1071Z" fill="#7D2FD1"/>
</g>
<g opacity="0.5">
<path d="M190.318 141.703L190.374 160.258L161.977 176.652L161.921 158.096L190.318 141.703Z" fill="#7D2FD1"/>
</g>
<g opacity="0.6">
<path d="M158.725 118.457L194.999 97.5142L195.178 161.377L158.903 182.32L158.725 118.457ZM190.374 160.258L190.318 141.703L161.911 158.096L161.968 176.652L190.365 160.258H190.374ZM190.224 107.76V105.137L161.817 121.54V124.163L190.224 107.769V107.76ZM190.261 120.732V118.109L161.846 134.503V137.125L190.261 120.722V120.732ZM190.28 126.635V124.012L161.864 140.415L161.883 143.038L190.28 126.635ZM190.243 113.654V111.031L161.836 127.434V130.057L190.243 113.663V113.654Z" fill="url(#paint1_linear_1777_5937)"/>
</g>
<path d="M154.927 107.638L257.245 48.5691L257.47 128.835L155.162 187.903L154.937 107.638H154.927ZM195.177 161.386L194.999 97.5236L158.725 118.467L158.903 182.329L195.177 161.386ZM252.996 126.146L252.883 84.58L205.32 112.037L205.433 153.603L252.996 126.146ZM252.817 60.5915L252.789 53.5134L157.324 108.634L157.343 115.712L252.817 60.5915ZM252.827 67.2842V64.1353L205.254 91.5923V94.7413L252.827 67.2842ZM252.846 73.178V70.029L205.273 97.4954L205.292 100.644L252.855 73.1874L252.846 73.178ZM252.865 80.2561V77.1071L205.292 104.564V107.713L252.865 80.2561Z" fill="url(#paint2_linear_1777_5937)"/>
<g opacity="0.5">
<path d="M252.846 70.0291V73.178L205.292 100.635L205.273 97.4955L252.846 70.0291Z" fill="#7D2FD1"/>
</g>
<g opacity="0.5">
<path d="M158.715 112.958L210.556 83.029L210.546 79.6826L158.697 109.612L158.715 112.958Z" fill="#7D2FD1"/>
</g>
<g opacity="0.5">
<path d="M252.818 60.5915L252.789 53.5134L157.324 108.634L157.343 115.712L252.818 60.5915ZM250.919 56.3804V59.7173L230.408 71.5706L230.389 68.2242L250.919 56.371V56.3804ZM210.546 79.6827V83.0196L158.715 112.958L158.697 109.612L210.546 79.6827Z" fill="#7D2FD1"/>
</g>
<g opacity="0.5">
<path d="M250.919 56.3804L250.928 59.7173L230.408 71.5706L230.389 68.2242L250.919 56.3804Z" fill="#FF61CB"/>
</g>
<g opacity="0.5">
<path d="M252.827 64.1353V67.2842L205.273 94.7412L205.264 91.5923L252.827 64.1353Z" fill="#7D2FD1"/>
</g>
<g opacity="0.5">
<path d="M190.271 124.012L190.28 126.635L161.883 143.028L161.864 140.406L190.271 124.012Z" fill="#7D2FD1"/>
</g>
<g opacity="0.5">
<path d="M190.233 111.031L190.243 113.654L161.846 130.047L161.836 127.434L190.233 111.031Z" fill="#7D2FD1"/>
</g>
<g opacity="0.5">
<path d="M190.214 105.137L190.224 107.76L161.827 124.153L161.817 121.531L190.214 105.137Z" fill="#7D2FD1"/>
</g>
<g opacity="0.5">
<path d="M134.163 69.8975V72.755L103.172 90.6524L103.162 87.7948L134.163 69.8975Z" fill="#7D2FD1"/>
<path d="M134.229 95.6437L134.285 115.9L103.284 133.798L103.228 113.55L134.229 95.6437Z" fill="#7D2FD1"/>
<path d="M99.7405 70.2828L139.333 47.4224L139.53 117.132L99.9379 139.983L99.7405 70.2734V70.2828ZM134.285 115.9L134.229 95.6531L103.228 113.55L103.284 133.798L134.285 115.9ZM134.125 58.5988V55.7318L103.115 73.6292V76.4962L134.125 58.5988ZM134.163 72.755V69.8975L103.162 87.7948V90.6524L134.163 72.755ZM134.182 79.1939V76.3364L103.181 94.2337V97.0913L134.182 79.1939ZM134.144 65.0377V62.1802L103.134 80.0775V82.9351L134.144 65.0377Z" fill="#711FDB"/>
<path d="M143.318 41.2466L98.2272 67.2842L98.2084 59.5575L143.318 33.5105V30.9067L95.5952 58.4578L95.8396 146.055L143.318 118.645V41.2466ZM99.7406 70.2828L139.333 47.4223L139.53 117.132L99.938 139.983L99.7406 70.2734V70.2828Z" fill="url(#paint3_linear_1777_5937)"/>
<path d="M143.318 35.4469L99.7124 60.6292L99.7218 64.2763L143.318 39.1034V35.4469Z" fill="#7D2FD1"/>
<path d="M143.318 39.1034L99.7219 64.2763L99.7125 60.6291L143.318 35.4469V33.5105L98.2085 59.5575L98.2273 67.2842L143.318 41.2466V39.1034Z" fill="url(#paint4_linear_1777_5937)"/>
<path d="M134.172 76.3363L134.182 79.1939L103.19 97.0912L103.181 94.2337L134.172 76.3363Z" fill="#7D2FD1"/>
<path d="M134.135 62.1707L134.144 65.0376L103.143 82.9256L103.134 80.068L134.135 62.1707Z" fill="#7D2FD1"/>
<path d="M134.107 55.7318L134.125 58.5988L103.125 76.4961L103.115 73.6292L134.107 55.7318Z" fill="#7D2FD1"/>
</g>
<g opacity="0.7">
<g opacity="0.09">
<path d="M279.005 149.035L274.183 151.939C273.882 152.118 273.506 152.127 273.187 151.958L268.243 149.204C267.575 148.838 267.566 147.879 268.214 147.493L273.036 144.589C273.337 144.41 273.723 144.401 274.033 144.57L278.987 147.334C279.654 147.71 279.663 148.659 279.015 149.044L279.005 149.035Z" fill="#5438DC"/>
</g>
<g opacity="0.18">
<path d="M278.949 143.912L274.127 146.817C273.826 146.995 273.441 147.005 273.131 146.835L268.186 144.081C267.519 143.715 267.509 142.756 268.158 142.37L272.98 139.466C273.281 139.287 273.666 139.278 273.976 139.447L278.93 142.211C279.598 142.587 279.607 143.536 278.958 143.921L278.949 143.912Z" fill="#5438DC"/>
</g>
<g opacity="0.27">
<path d="M278.893 138.798L274.07 141.703C273.77 141.882 273.384 141.891 273.074 141.722L268.13 138.968C267.462 138.601 267.453 137.642 268.102 137.257L272.924 134.352C273.234 134.174 273.61 134.164 273.92 134.334L278.874 137.097C279.541 137.473 279.551 138.422 278.902 138.808L278.893 138.798Z" fill="#5438DC"/>
</g>
<g opacity="0.36">
<path d="M278.827 133.676L274.005 136.58C273.704 136.759 273.319 136.768 273.008 136.599L268.064 133.845C267.397 133.478 267.387 132.519 268.036 132.134L272.858 129.229C273.168 129.051 273.544 129.041 273.854 129.211L278.808 131.974C279.476 132.35 279.485 133.3 278.836 133.685L278.827 133.676Z" fill="#5438DC"/>
</g>
<g opacity="0.45">
<path d="M278.771 128.562L273.948 131.467C273.648 131.645 273.262 131.655 272.952 131.485L268.008 128.731C267.34 128.365 267.331 127.406 267.979 127.02L272.802 124.116C273.112 123.937 273.488 123.928 273.798 124.097L278.752 126.861C279.419 127.237 279.429 128.186 278.78 128.571L278.771 128.562Z" fill="#5438DC"/>
</g>
<g opacity="0.55">
<path d="M278.705 123.439L273.883 126.344C273.582 126.522 273.196 126.532 272.886 126.362L267.942 123.608C267.274 123.242 267.265 122.283 267.914 121.897L272.736 118.993C273.046 118.805 273.422 118.805 273.732 118.974L278.686 121.728C279.353 122.104 279.363 123.054 278.714 123.439H278.705Z" fill="#5438DC"/>
</g>
<g opacity="0.64">
<path d="M278.648 118.326L273.826 121.23C273.525 121.409 273.14 121.418 272.83 121.249L267.885 118.495C267.218 118.128 267.209 117.169 267.857 116.784L272.679 113.879C272.99 113.691 273.366 113.691 273.676 113.861L278.629 116.615C279.297 116.991 279.306 117.94 278.658 118.326H278.648Z" fill="#5438DC"/>
</g>
<g opacity="0.73">
<path d="M278.582 113.203L273.76 116.107C273.459 116.286 273.074 116.295 272.764 116.126L267.819 113.372C267.152 113.005 267.143 112.046 267.791 111.661L272.613 108.756C272.924 108.568 273.3 108.568 273.61 108.738L278.564 111.492C279.231 111.868 279.24 112.817 278.592 113.203H278.582Z" fill="#5438DC"/>
</g>
<g opacity="0.82">
<path d="M278.526 108.089L273.704 110.994C273.394 111.172 273.018 111.182 272.707 111.012L267.763 108.258C267.096 107.892 267.086 106.933 267.735 106.548L272.557 103.643C272.867 103.455 273.243 103.455 273.553 103.624L278.507 106.378C279.175 106.754 279.184 107.704 278.535 108.089H278.526Z" fill="#5438DC"/>
</g>
<g opacity="0.91">
<path d="M278.47 102.966L273.647 105.871C273.337 106.049 272.961 106.059 272.651 105.89L267.707 103.135C267.039 102.769 267.03 101.81 267.678 101.425L272.501 98.52C272.811 98.332 273.187 98.332 273.497 98.5012L278.451 101.255C279.118 101.631 279.128 102.581 278.479 102.966H278.47Z" fill="#5438DC"/>
</g>
<path d="M278.404 97.8432L273.582 100.748C273.272 100.926 272.896 100.936 272.586 100.767L267.641 98.003C266.974 97.6364 266.964 96.6777 267.613 96.2923L272.435 93.3971C272.745 93.2091 273.121 93.2091 273.432 93.3783L278.385 96.1325C279.053 96.5085 279.062 97.4578 278.413 97.8432H278.404Z" fill="#5438DC"/>
</g>
<g opacity="0.8">
<path d="M278.394 97.8432L273.572 100.748C273.272 100.926 272.886 100.936 272.576 100.767L267.622 98.003C266.955 97.6364 266.945 96.6777 267.594 96.2923L272.416 93.3971C272.717 93.2091 273.102 93.2091 273.413 93.3783L278.366 96.1325C279.034 96.5085 279.043 97.4578 278.394 97.8432Z" fill="#5438DC"/>
</g>
<g opacity="0.8">
<path d="M165.258 36.0766V38.0412L163.255 39.1974V37.1106C163.255 35.146 162.579 34.347 161.037 35.24C159.524 36.1142 158.819 37.7028 158.819 39.6673V51.2104C158.819 53.175 159.524 53.9551 161.037 53.081C162.579 52.188 163.255 50.6182 163.255 48.6536V45.8149L165.258 44.6587V47.3752C165.258 50.684 163.904 53.645 160.99 55.3275C158.095 57.0007 156.751 55.5907 156.751 52.282V40.9833C156.751 37.6746 158.104 34.7136 160.99 33.0404C163.904 31.3579 165.258 32.7584 165.258 36.0672V36.0766Z" fill="#8A85CA"/>
<path d="M175.362 30.2111V30.8033L173.37 31.9595V31.2451C173.37 29.2805 172.721 28.5003 171.208 29.3745C169.694 30.2487 169.046 31.7809 169.046 33.7078C169.046 38.6052 175.391 35.4092 175.391 41.5567C175.391 44.8655 174.009 47.8076 171.123 49.4808C168.237 51.1446 166.884 49.7816 166.884 46.4729V45.2227L168.858 44.0853V45.4577C168.858 47.4222 169.563 48.1742 171.076 47.3C172.59 46.4259 173.285 44.8655 173.285 42.9009C173.285 38.0318 166.959 41.2183 166.959 35.0708C166.959 31.7057 168.313 28.8293 171.151 27.1937C174.018 25.5394 175.362 26.9117 175.362 30.2205V30.2111Z" fill="#8A85CA"/>
<path d="M185.42 24.4114V25.0036L183.418 26.1598V25.4454C183.418 23.4808 182.77 22.7006 181.256 23.5748C179.743 24.449 179.094 25.9812 179.094 27.9082C179.094 32.8055 185.449 29.6095 185.449 35.7571C185.449 39.0658 184.067 42.0174 181.181 43.6811C178.286 45.3449 176.942 43.9725 176.942 40.6732V39.423L178.916 38.2856V39.658C178.916 41.6226 179.621 42.3746 181.134 41.5004C182.647 40.6262 183.352 39.0658 183.352 37.1012C183.352 32.2321 177.026 35.4187 177.026 29.2711C177.026 25.8966 178.38 23.0296 181.209 21.394C184.076 19.7397 185.42 21.1121 185.42 24.4208V24.4114Z" fill="#8A85CA"/>
</g>
<g opacity="0.8">
<path d="M34.5807 97.7304V107.553L32.4751 108.766V86.9299L34.5807 85.7174V95.5402L39.2242 92.8613V83.029L41.3298 81.807V103.652L39.2242 104.865V95.0326L34.5807 97.721V97.7304Z" fill="#8A85CA"/>
<path d="M46.2647 100.823V81.1961L42.7773 83.2076V80.9893L51.8576 75.7535V77.9719L48.3797 79.9835V99.6104L46.2741 100.832L46.2647 100.823Z" fill="#8A85CA"/>
<path d="M60.2893 92.6827L58.2589 93.8483L55.1194 78.2821V95.6907L53.2864 96.7529V74.917L56.2285 73.2156L59.3399 88.8664L62.3385 69.6906L65.2806 67.9893V89.8346L63.2784 90.9907V73.4224L60.2799 92.6921L60.2893 92.6827Z" fill="#8A85CA"/>
<path d="M67.4614 88.5844V66.7485L69.567 65.5359V85.1628L74.9719 82.0421V84.2604L67.4614 88.5938V88.5844Z" fill="#8A85CA"/>
</g>
<g opacity="0.8">
<path d="M244.762 183.974L236.386 184.848V183.1L244.762 174.302V176.078L238.36 182.827L244.762 182.188V183.965V183.974Z" fill="#8A85CA"/>
<path d="M255.572 161.979L248.118 188.12L246.275 189.182L253.729 163.041L255.572 161.979Z" fill="#8A85CA"/>
<path d="M257.094 175.082L263.496 168.323L257.094 168.963V167.186L265.47 166.312V168.06L257.094 176.859V175.082Z" fill="#8A85CA"/>
</g>
<g opacity="0.09">
<path d="M51.0117 169.104L44.6762 172.788C44.272 173.023 43.7832 173.023 43.379 172.788L36.9777 169.094C36.1129 168.596 36.1129 167.355 36.9777 166.857L43.3132 163.172C43.7174 162.937 44.2062 162.937 44.6104 163.172L51.0023 166.866C51.8671 167.365 51.8671 168.605 51.0023 169.104H51.0117Z" fill="#5438DC"/>
</g>
<g opacity="0.18">
<path d="M51.0117 165.607L44.6762 169.292C44.272 169.527 43.7832 169.527 43.379 169.292L36.9777 165.598C36.1129 165.099 36.1129 163.859 36.9777 163.36L43.3132 159.676C43.7174 159.441 44.2062 159.441 44.6104 159.676L51.0023 163.37C51.8671 163.868 51.8671 165.109 51.0023 165.607H51.0117Z" fill="#5438DC"/>
</g>
<g opacity="0.27">
<path d="M51.0117 162.101L44.6762 165.785C44.272 166.02 43.7832 166.02 43.379 165.785L36.9777 162.091C36.1129 161.593 36.1129 160.352 36.9777 159.854L43.3132 156.169C43.7174 155.934 44.2062 155.934 44.6104 156.169L51.0023 159.864C51.8671 160.362 51.8671 161.603 51.0023 162.101H51.0117Z" fill="#5438DC"/>
</g>
<g opacity="0.36">
<path d="M51.0117 158.604L44.6762 162.289C44.272 162.524 43.7832 162.524 43.379 162.289L36.9777 158.595C36.1129 158.096 36.1129 156.856 36.9777 156.357L43.3132 152.673C43.7174 152.438 44.2062 152.438 44.6104 152.673L51.0023 156.367C51.8671 156.865 51.8671 158.106 51.0023 158.604H51.0117Z" fill="#5438DC"/>
</g>
<g opacity="0.45">
<path d="M51.0117 155.098L44.6762 158.783C44.272 159.018 43.7832 159.018 43.379 158.783L36.9777 155.088C36.1129 154.59 36.1129 153.349 36.9777 152.851L43.3132 149.166C43.7174 148.931 44.2062 148.931 44.6104 149.166L51.0023 152.861C51.8671 153.359 51.8671 154.6 51.0023 155.098H51.0117Z" fill="#5438DC"/>
</g>
<g opacity="0.55">
<path d="M51.0117 151.592L44.6762 155.276C44.272 155.511 43.7832 155.511 43.379 155.276L36.9777 151.582C36.1129 151.084 36.1129 149.843 36.9777 149.345L43.3132 145.66C43.7174 145.425 44.2062 145.425 44.6104 145.66L51.0023 149.355C51.8671 149.853 51.8671 151.094 51.0023 151.592H51.0117Z" fill="#5438DC"/>
</g>
<g opacity="0.64">
<path d="M51.0117 148.095L44.6762 151.78C44.272 152.015 43.7832 152.015 43.379 151.78L36.9777 148.086C36.1129 147.587 36.1129 146.347 36.9777 145.848L43.3132 142.164C43.7174 141.929 44.2062 141.929 44.6104 142.164L51.0023 145.858C51.8671 146.356 51.8671 147.597 51.0023 148.095H51.0117Z" fill="#5438DC"/>
</g>
<g opacity="0.73">
<path d="M51.0117 144.589L44.6762 148.274C44.272 148.509 43.7832 148.509 43.379 148.274L36.9777 144.579C36.1129 144.081 36.1129 142.84 36.9777 142.342L43.3132 138.657C43.7174 138.422 44.2062 138.422 44.6104 138.657L51.0023 142.352C51.8671 142.85 51.8671 144.091 51.0023 144.589H51.0117Z" fill="#5438DC"/>
</g>
<g opacity="0.82">
<path d="M51.0117 141.092L44.6762 144.777C44.272 145.012 43.7832 145.012 43.379 144.777L36.9777 141.083C36.1129 140.584 36.1129 139.344 36.9777 138.846L43.3132 135.161C43.7174 134.926 44.2062 134.926 44.6104 135.161L51.0023 138.855C51.8671 139.353 51.8671 140.594 51.0023 141.092H51.0117Z" fill="#5438DC"/>
</g>
<g opacity="0.91">
<path d="M51.0117 137.586L44.6762 141.271C44.272 141.506 43.7832 141.506 43.379 141.271L36.9777 137.576C36.1129 137.078 36.1129 135.837 36.9777 135.339L43.3132 131.655C43.7174 131.42 44.2062 131.42 44.6104 131.655L51.0023 135.349C51.8671 135.847 51.8671 137.088 51.0023 137.586H51.0117Z" fill="#5438DC"/>
</g>
<path d="M51.0117 134.089L44.6762 137.774C44.272 138.009 43.7832 138.009 43.379 137.774L36.9777 134.08C36.1129 133.582 36.1129 132.341 36.9777 131.843L43.3132 128.158C43.7174 127.923 44.2062 127.923 44.6104 128.158L51.0023 131.852C51.8671 132.35 51.8671 133.591 51.0023 134.089H51.0117Z" fill="#5438DC"/>
<path d="M51.0117 134.089L44.6668 137.774C44.272 138.009 43.7738 138.009 43.3696 137.774L36.9777 134.08C36.1129 133.582 36.1129 132.341 36.9777 131.843L43.3226 128.158C43.7174 127.923 44.2156 127.923 44.6198 128.158L51.0117 131.852C51.8765 132.35 51.8765 133.591 51.0117 134.089Z" fill="#5438DC"/>
</g>
<defs>
<linearGradient id="paint0_linear_1777_5937" x1="209.447" y1="111.952" x2="249.866" y2="111.952" gradientUnits="userSpaceOnUse">
<stop stop-color="#6F03E0"/>
<stop offset="1" stop-color="#AB79E0"/>
</linearGradient>
<linearGradient id="paint1_linear_1777_5937" x1="158.725" y1="139.926" x2="195.178" y2="139.926" gradientUnits="userSpaceOnUse">
<stop stop-color="#6F03E0"/>
<stop offset="1" stop-color="#AB79E0"/>
</linearGradient>
<linearGradient id="paint2_linear_1777_5937" x1="154.927" y1="118.232" x2="257.461" y2="118.232" gradientUnits="userSpaceOnUse">
<stop stop-color="#6F03E0"/>
<stop offset="1" stop-color="#AB79E0"/>
</linearGradient>
<linearGradient id="paint3_linear_1777_5937" x1="95.5952" y1="88.4903" x2="143.318" y2="88.4903" gradientUnits="userSpaceOnUse">
<stop stop-color="#6F03E0"/>
<stop offset="1" stop-color="#AB79E0"/>
</linearGradient>
<linearGradient id="paint4_linear_1777_5937" x1="98.2085" y1="50.4021" x2="143.318" y2="50.4021" gradientUnits="userSpaceOnUse">
<stop stop-color="#6F03E0"/>
<stop offset="1" stop-color="#AB79E0"/>
</linearGradient>
<clipPath id="clip0_1777_5937">
<rect width="259.023" height="249.905" fill="white" transform="translate(20.5278)"/>
</clipPath>
</defs>
</svg>
