<svg width="291" height="312" viewBox="0 0 291 312" fill="none" xmlns="http://www.w3.org/2000/svg">
<path d="M103.257 130.628L123.595 9.96056L121.96 9.27217L124.416 7.8633L124.412 7.87769C124.889 7.56006 125.563 7.57997 126.306 8.00828L288.854 101.856C290.189 102.626 291.199 104.603 290.964 105.985L270.464 227.612C270.357 228.246 270.044 228.665 269.608 228.85L269.61 228.851L267.205 230.24L266.792 227.996L266.929 228.038L105.367 134.757C104.033 133.987 103.022 132.01 103.257 130.628Z" fill="url(#paint0_linear_1553_4478)"/>
<path d="M287.95 105.155L290.623 103.973C290.923 104.657 291.07 105.377 290.967 105.985L270.467 227.612C270.36 228.246 270.047 228.665 269.611 228.85L269.613 228.851L267.208 230.24L266.795 227.996L266.932 228.038L258.757 223.318L287.95 105.155Z" fill="url(#paint1_linear_1553_4478)"/>
<path d="M102.817 136.22L265.365 230.068C266.62 230.793 267.695 230.375 267.915 229.075L288.415 107.449C288.65 106.066 287.639 104.09 286.304 103.32L123.756 9.47187C122.501 8.74696 121.427 9.16642 121.206 10.4646L100.706 132.091C100.472 133.474 101.482 135.45 102.817 136.22Z" fill="#24126A"/>
<g opacity="0.51">
<path d="M125.881 17.2356L282.566 107.697L263.135 222.243L106.556 131.843L125.881 17.2356Z" fill="#453C9E"/>
</g>
<path opacity="0.7" d="M166.265 311.526C165.004 311.526 163.682 311.216 162.629 310.607L1.73315 217.714C0.631955 217.078 0 216.195 0 215.291C0 214.506 0.46373 213.806 1.30595 213.32L97.3184 157.887C99.0216 156.902 101.878 157.013 103.822 158.135L264.716 251.027C265.818 251.663 266.449 252.546 266.449 253.45C266.449 254.235 265.986 254.935 265.143 255.421L169.131 310.854C168.352 311.305 167.33 311.526 166.265 311.526ZM2.28652 216.756L163.182 309.65C164.759 310.56 167.233 310.673 168.579 309.897L264.591 254.464C264.934 254.265 265.344 253.928 265.344 253.45C265.344 252.961 264.903 252.412 264.164 251.986L103.269 159.093C101.691 158.184 99.2197 158.07 97.8728 158.845L1.86042 214.278C1.51733 214.478 1.10785 214.814 1.10785 215.292C1.10674 215.781 1.54722 216.329 2.28652 216.756Z" fill="#6F03E0"/>
<path d="M0.638916 193.804L9.50938 198.436L98.4597 147.081C99.9483 146.222 102.547 146.329 104.266 147.322L257.68 235.896C259.148 235.075 265.842 231.855 265.842 231.855L262.595 240.316C262.595 240.316 262.584 240.307 262.582 240.306C262.448 240.683 262.159 241.033 261.674 241.313L167.991 295.401C166.503 296.26 163.904 296.152 162.185 295.16L5.19423 204.521C4.48813 204.114 4.0565 203.62 3.87721 203.121L3.86504 203.129L0.638916 193.804Z" fill="url(#paint2_linear_1553_4478)"/>
<path d="M2.01018 195.261L162.906 288.153C164.667 289.17 167.331 289.28 168.856 288.4L264.868 232.967C266.393 232.086 266.202 230.549 264.441 229.532L103.545 136.639C101.784 135.622 99.1205 135.513 97.5954 136.393L1.58298 191.825C0.0579021 192.706 0.249369 194.244 2.01018 195.261Z" fill="url(#paint3_linear_1553_4478)"/>
<path d="M2.0106 194.539L162.906 287.432C164.667 288.449 167.331 288.559 168.856 287.679L264.869 232.246C265.405 231.936 265.717 231.543 265.836 231.121C266.006 231.804 265.704 232.485 264.869 232.966L168.856 288.399C167.331 289.28 164.667 289.17 162.906 288.152L2.0106 195.26C0.869563 194.601 0.39919 193.725 0.61611 192.949C0.757772 193.514 1.21486 194.08 2.0106 194.539Z" fill="white"/>
<path d="M211.436 268.059V266.295C211.436 266.128 211.334 266.051 211.209 266.124L204.986 269.717C204.861 269.789 204.759 269.984 204.759 270.151V271.915C204.759 272.082 204.861 272.16 204.986 272.087L211.209 268.493C211.334 268.421 211.436 268.227 211.436 268.059Z" fill="#2842A2"/>
<path d="M202.13 273.432V271.667C202.13 271.5 202.028 271.423 201.903 271.496L195.68 275.089C195.554 275.161 195.453 275.356 195.453 275.523V277.288C195.453 277.455 195.554 277.532 195.68 277.46L201.903 273.867C202.028 273.794 202.13 273.599 202.13 273.432Z" fill="#2842A2"/>
<path d="M239.837 227.777L106.133 150.583C105.242 150.068 104.143 150.068 103.252 150.584L55.6401 178.131C54.9561 178.526 54.9573 179.513 55.6412 179.908L189.283 257.066C190.173 257.581 191.27 257.581 192.16 257.066L239.836 229.555C240.521 229.16 240.521 228.173 239.837 227.777Z" fill="#ADB1F2"/>
<path d="M239.837 229.555L239.358 229.832L106.133 152.914C105.242 152.399 104.143 152.399 103.252 152.915L56.1194 180.185L55.6413 179.908C54.9573 179.513 54.9573 178.526 55.6402 178.131L103.252 150.584C104.143 150.068 105.241 150.068 106.133 150.583L239.837 227.778C240.521 228.173 240.521 229.16 239.837 229.555Z" fill="#9198DB"/>
<path d="M99.6584 157.56L215.799 224.614L220.963 221.632L104.822 154.579L99.6584 157.56Z" fill="#24126A"/>
<path d="M86.9976 164.868L195.934 227.763L201.098 224.781L92.1627 161.886L86.9976 164.868Z" fill="#24126A"/>
<path d="M78.7517 169.63L207.012 243.681L212.176 240.7L83.9157 166.648L78.7517 169.63Z" fill="#24126A"/>
<path d="M70.5063 174.392L198.767 248.442L203.931 245.46L75.6704 171.41L70.5063 174.392Z" fill="#24126A"/>
<path d="M62.2607 179.151L190.52 253.202L195.684 250.221L67.4248 176.169L62.2607 179.151Z" fill="#24126A"/>
<path d="M222.817 228.665L227.981 231.647L233.145 228.665L227.981 225.684L222.817 228.665Z" fill="#24126A"/>
<path d="M204.602 232.768L215.32 238.956L220.483 235.976L209.766 229.787L204.602 232.768Z" fill="#24126A"/>
<path d="M100.985 246.457L64.9336 225.643C63.5247 224.829 63.5247 223.51 64.9336 222.696L89.5861 208.463C90.995 207.649 93.2793 207.649 94.6892 208.463L130.741 229.277C132.15 230.091 132.15 231.41 130.741 232.223L106.089 246.457C104.679 247.27 102.394 247.27 100.985 246.457Z" fill="url(#paint4_linear_1553_4478)"/>
<path d="M130.739 230.482L94.6876 209.668C93.2788 208.855 90.9945 208.855 89.5845 209.668L64.932 223.902C64.4971 224.153 64.2127 224.454 64.0466 224.772C63.6737 224.06 63.9581 223.259 64.932 222.696L89.5845 208.463C90.9934 207.649 93.2777 207.649 94.6876 208.463L130.739 229.277C131.713 229.839 131.998 230.642 131.625 231.353C131.459 231.036 131.176 230.734 130.739 230.482Z" fill="#9198DB"/>
<g opacity="0.11">
<mask id="mask0_1553_4478" style="mask-type:luminance" maskUnits="userSpaceOnUse" x="106" y="17" width="177" height="206">
<path d="M125.88 17.2371L282.565 107.698L263.134 222.245L106.556 131.845L125.88 17.2371Z" fill="white"/>
</mask>
<g mask="url(#mask0_1553_4478)">
<path d="M103.386 136.449L264.282 229.341C266.043 230.358 268.707 230.468 270.232 229.588L366.244 174.155C367.769 173.274 367.578 171.737 365.817 170.72L204.921 77.8272C203.16 76.8101 200.496 76.7006 198.971 77.5804L102.959 133.013C101.434 133.894 101.625 135.433 103.386 136.449Z" fill="url(#paint5_linear_1553_4478)"/>
<path d="M264.761 153.104L228.709 132.29C227.301 131.476 227.301 130.157 228.709 129.344L253.362 115.11C254.771 114.296 257.055 114.296 258.465 115.11L294.517 135.924C295.926 136.738 295.926 138.057 294.517 138.87L269.864 153.104C268.454 153.917 266.17 153.917 264.761 153.104Z" fill="url(#paint6_linear_1553_4478)"/>
<path d="M294.517 137.13L258.465 116.315C257.056 115.502 254.772 115.502 253.362 116.315L228.709 130.549C228.274 130.8 227.99 131.101 227.824 131.419C227.451 130.707 227.735 129.906 228.709 129.343L253.362 115.109C254.771 114.295 257.055 114.295 258.465 115.109L294.517 135.923C295.491 136.485 295.775 137.288 295.402 137.999C295.235 137.682 294.952 137.381 294.517 137.13Z" fill="#9198DB"/>
<path d="M310.364 185.632L176.659 108.438C175.768 107.923 174.669 107.923 173.778 108.439L126.167 135.985C125.483 136.381 125.484 137.368 126.168 137.763L259.809 214.921C260.7 215.436 261.797 215.436 262.687 214.921L310.363 187.41C311.049 187.015 311.049 186.027 310.364 185.632Z" fill="#ADB1F2"/>
<path d="M310.364 187.41L309.885 187.686L176.66 110.769C175.769 110.254 174.67 110.255 173.779 110.77L126.647 138.04L126.168 137.763C125.484 137.368 125.484 136.381 126.167 135.985L173.779 108.439C174.67 107.923 175.768 107.923 176.66 108.438L310.364 185.632C311.049 186.027 311.049 187.015 310.364 187.41Z" fill="#9198DB"/>
<path d="M138.627 134.107L255.106 201.356L250.494 204.02L134.013 136.771L138.627 134.107Z" fill="#24126A"/>
<path d="M150.901 127.02L261.612 190.939L256.998 193.604L146.286 129.684L150.901 127.02Z" fill="#24126A"/>
<path d="M269.879 195.712L280.219 201.682L275.605 204.346L265.265 198.376L269.879 195.712Z" fill="#24126A"/>
<path d="M260.746 204.611L267.946 208.768L263.332 211.432L256.132 207.275L260.746 204.611Z" fill="#24126A"/>
<path d="M158.59 122.581L287.909 197.243L283.295 199.907L153.976 125.245L158.59 122.581Z" fill="#24126A"/>
<path d="M166.28 118.141L295.599 192.803L290.985 195.467L161.666 120.805L166.28 118.141Z" fill="#24126A"/>
<path d="M173.971 113.7L303.289 188.363L298.675 191.027L169.357 116.364L173.971 113.7Z" fill="#24126A"/>
</g>
</g>
<path d="M226.808 118.753L219.097 114.292L219.373 112.595L227.083 117.056L226.808 118.753Z" fill="#42E8E0"/>
<path d="M230.762 121.039L227.986 119.433L228.261 117.737L231.038 119.343L230.762 121.039Z" fill="#42E8E0"/>
<path d="M233.826 122.812L231.939 121.721L232.215 120.024L234.102 121.116L233.826 122.812Z" fill="#42E8E0"/>
<path d="M222.67 120.598L218.467 118.167L218.743 116.471L222.945 118.901L222.67 120.598Z" fill="#42E8E0"/>
<path d="M228.996 124.258L223.847 121.28L224.123 119.584L229.271 122.562L228.996 124.258Z" fill="#42E8E0"/>
<path d="M232.06 126.032L230.174 124.941L230.45 123.244L232.336 124.335L232.06 126.032Z" fill="#42E8E0"/>
<path d="M234.976 127.718L233.09 126.626L233.365 124.929L235.252 126.021L234.976 127.718Z" fill="#42E8E0"/>
<path d="M220.879 123.802L217.839 122.043L218.114 120.346L221.154 122.105L220.879 123.802Z" fill="#42E8E0"/>
<path d="M223.096 125.085L222.057 124.484L222.333 122.787L223.372 123.388L223.096 125.085Z" fill="#42E8E0"/>
<path d="M226.16 126.858L224.273 125.766L224.549 124.07L226.436 125.161L226.16 126.858Z" fill="#42E8E0"/>
<path d="M228.43 132.41L217.209 125.919L217.485 124.223L228.705 130.714L228.43 132.41Z" fill="#42E8E0"/>
<path d="M232.383 134.698L229.607 133.093L229.882 131.396L232.659 133.002L232.383 134.698Z" fill="#42E8E0"/>
<path d="M219.62 131.553L216.581 129.795L216.856 128.098L219.895 129.857L219.62 131.553Z" fill="#42E8E0"/>
<path d="M226.753 135.681L220.798 132.235L221.073 130.539L227.029 133.984L226.753 135.681Z" fill="#42E8E0"/>
<path d="M229.818 137.454L227.932 136.363L228.208 134.666L230.094 135.757L229.818 137.454Z" fill="#42E8E0"/>
<path d="M222.17 137.269L215.95 133.671L216.226 131.974L222.446 135.573L222.17 137.269Z" fill="#42E8E0"/>
<path d="M227.846 140.553L223.349 137.951L223.624 136.254L228.122 138.856L227.846 140.553Z" fill="#42E8E0"/>
<path d="M232.064 142.993L229.024 141.235L229.3 139.538L232.339 141.297L232.064 142.993Z" fill="#42E8E0"/>
<path d="M217.423 138.762L215.322 137.547L215.598 135.849L217.698 137.066L217.423 138.762Z" fill="#42E8E0"/>
<path d="M221.376 141.049L218.6 139.443L218.876 137.747L221.651 139.354L221.376 141.049Z" fill="#42E8E0"/>
<path d="M227.028 144.32L222.554 141.731L222.83 140.034L227.302 142.622L227.028 144.32Z" fill="#42E8E0"/>
<path d="M221.127 145.145L214.692 141.423L214.968 139.727L221.403 143.449L221.127 145.145Z" fill="#42E8E0"/>
<path d="M228.334 149.315L222.305 145.828L222.58 144.131L228.609 147.618L228.334 149.315Z" fill="#42E8E0"/>
<path d="M231.399 151.088L229.513 149.996L229.788 148.3L231.674 149.391L231.399 151.088Z" fill="#42E8E0"/>
<path d="M234.339 152.79L232.454 151.697L232.729 150.001L234.615 151.092L234.339 152.79Z" fill="#42E8E0"/>
<path d="M217.918 147.529L214.062 145.299L214.338 143.602L218.194 145.832L217.918 147.529Z" fill="#42E8E0"/>
<path d="M239.076 125.851L244.423 128.944L244.698 127.247L239.352 124.154L239.076 125.851Z" fill="#42E8E0"/>
<path d="M239.591 130.388L243.794 132.818L244.069 131.122L239.867 128.691L239.591 130.388Z" fill="#42E8E0"/>
<path d="M240.124 134.937L243.164 136.695L243.439 134.999L240.399 133.24L240.124 134.937Z" fill="#42E8E0"/>
<path d="M238.113 138.012L242.535 140.57L242.81 138.873L238.389 136.316L238.113 138.012Z" fill="#42E8E0"/>
<path d="M238.865 142.689L241.905 144.446L242.181 142.75L239.141 140.991L238.865 142.689Z" fill="#42E8E0"/>
<path d="M237.421 146.092L241.276 148.322L241.552 146.626L237.697 144.396L237.421 146.092Z" fill="#42E8E0"/>
<path d="M238.547 150.983L240.647 152.199L240.922 150.502L238.821 149.286L238.547 150.983Z" fill="#42E8E0"/>
<path d="M235.947 153.72L240.017 156.075L240.293 154.379L236.222 152.023L235.947 153.72Z" fill="#42E8E0"/>
<path d="M235.533 157.72L239.388 159.95L239.664 158.254L235.809 156.023L235.533 157.72Z" fill="#42E8E0"/>
<path d="M220.736 149.16L219.096 148.212L219.372 146.515L221.011 147.463L220.736 149.16Z" fill="#42E8E0"/>
<path d="M225.605 151.976L221.914 149.84L222.189 148.144L225.879 150.279L225.605 151.976Z" fill="#42E8E0"/>
<path d="M226.827 165.014L220.598 161.41L220.874 159.714L227.101 163.317L226.827 165.014Z" fill="#42E8E0"/>
<path d="M231.093 167.481L228.639 166.062L228.915 164.366L231.367 165.785L231.093 167.481Z" fill="#42E8E0"/>
<path d="M247.337 186.711C247.033 186.711 246.72 186.625 246.425 186.455L199.373 159.289C198.4 158.728 197.789 157.372 197.983 156.2L208.265 93.923C208.373 93.2656 208.726 92.7499 209.234 92.5108C209.712 92.2839 210.281 92.3271 210.795 92.6237L257.845 119.79C258.818 120.351 259.429 121.708 259.235 122.878L248.955 185.155C248.846 185.814 248.492 186.329 247.985 186.568C247.782 186.664 247.562 186.711 247.337 186.711ZM209.886 93.5268C209.834 93.5268 209.782 93.5367 209.732 93.56C209.575 93.6341 209.459 93.8356 209.413 94.1111L199.132 156.388C199.019 157.076 199.403 157.961 199.955 158.278L247.007 185.445C247.136 185.521 247.323 185.594 247.488 185.515C247.645 185.441 247.762 185.24 247.808 184.964L258.09 122.686C258.204 121.997 257.817 121.113 257.265 120.794L210.214 93.6286C210.123 93.5777 210.004 93.5268 209.886 93.5268Z" fill="#42E8E0"/>
<path d="M137.629 57.9073L147.508 63.6159L147.797 61.9015L137.919 56.1919L137.629 57.9073Z" fill="#42E8E0"/>
<path d="M149.096 64.5285L154.478 67.6396L154.768 65.9241L149.386 62.8131L149.096 64.5285Z" fill="#42E8E0"/>
<path d="M162.854 72.472L166.747 74.7231L167.037 73.0077L163.143 70.7566L162.854 72.472Z" fill="#42E8E0"/>
<path d="M160.013 70.8308L161.343 71.6L161.633 69.8845L160.302 69.1154L160.013 70.8308Z" fill="#42E8E0"/>
<path d="M156.087 68.5615L158.504 69.9582L158.794 68.2428L156.377 66.8461L156.087 68.5615Z" fill="#42E8E0"/>
<path d="M145.445 71.0246L149.34 73.2757L149.63 71.5603L145.735 69.3103L145.445 71.0246Z" fill="#42E8E0"/>
<path d="M136.306 65.7442L143.937 70.1546L144.226 68.4391L136.596 64.0288L136.306 65.7442Z" fill="#42E8E0"/>
<path d="M147.246 93.5437L154.875 97.9529L155.165 96.2375L147.534 91.8282L147.246 93.5437Z" fill="#42E8E0"/>
<path d="M143.32 91.274L145.736 92.6718L146.026 90.9564L143.609 89.5597L143.32 91.274Z" fill="#42E8E0"/>
<path d="M148.519 85.696L156.148 90.1063L156.438 88.3909L148.809 83.9817L148.519 85.696Z" fill="#42E8E0"/>
<path d="M144.593 83.4263L147.01 84.823L147.299 83.1086L144.883 81.7108L144.593 83.4263Z" fill="#42E8E0"/>
<path d="M141.614 127.406L127.24 119.098L126.951 120.814L141.324 129.121L141.614 127.406Z" fill="#42E8E0"/>
<path d="M146.68 130.334L143.122 128.279L142.833 129.995L146.39 132.05L146.68 130.334Z" fill="#42E8E0"/>
<path d="M171.938 132.002L157.564 123.694L157.274 125.409L171.648 133.717L171.938 132.002Z" fill="#42E8E0"/>
<path d="M177.003 134.929L173.447 132.874L173.157 134.589L176.713 136.644L177.003 134.929Z" fill="#42E8E0"/>
<path d="M131.796 117.432L127.902 115.181L127.613 116.896L131.506 119.147L131.796 117.432Z" fill="#42E8E0"/>
<path d="M155.489 122.514L151.595 120.263L151.305 121.978L155.199 124.229L155.489 122.514Z" fill="#42E8E0"/>
<path d="M140.935 122.715L133.304 118.305L133.016 120.02L140.645 124.429L140.935 122.715Z" fill="#42E8E0"/>
<path d="M144.861 124.983L142.444 123.586L142.154 125.3L144.571 126.697L144.861 124.983Z" fill="#42E8E0"/>
<path d="M154.07 130.296L146.44 125.886L146.15 127.602L153.78 132.012L154.07 130.296Z" fill="#42E8E0"/>
<path d="M157.996 132.566L155.578 131.169L155.29 132.884L157.706 134.281L157.996 132.566Z" fill="#42E8E0"/>
<path d="M154.827 126.433L150.933 124.182L150.643 125.898L154.538 128.148L154.827 126.433Z" fill="#42E8E0"/>
<path d="M163.966 131.715L156.336 127.306L156.046 129.022L163.676 133.431L163.966 131.715Z" fill="#42E8E0"/>
<path d="M167.891 133.985L165.475 132.588L165.185 134.303L167.602 135.7L167.891 133.985Z" fill="#42E8E0"/>
<path d="M136.53 115.868L128.563 111.262L128.273 112.978L136.241 117.583L136.53 115.868Z" fill="#42E8E0"/>
<path d="M143.802 120.07L138.04 116.74L137.75 118.455L143.513 121.786L143.802 120.07Z" fill="#42E8E0"/>
<path d="M149.207 123.194L145.312 120.943L145.022 122.658L148.917 124.909L149.207 123.194Z" fill="#42E8E0"/>
<path d="M186.972 140.673L179.005 136.068L178.715 137.784L186.683 142.389L186.972 140.673Z" fill="#42E8E0"/>
<path d="M183.861 88.9015L191.829 93.5066L192.119 91.7911L184.15 87.186L183.861 88.9015Z" fill="#42E8E0"/>
<path d="M176.59 84.6997L182.352 88.0298L182.642 86.3144L176.879 82.9843L176.59 84.6997Z" fill="#42E8E0"/>
<path d="M171.186 81.5759L175.08 83.827L175.37 82.1116L171.476 79.8605L171.186 81.5759Z" fill="#42E8E0"/>
<path d="M181.216 83.0564L189.184 87.6615L189.474 85.9461L181.506 81.3409L181.216 83.0564Z" fill="#42E8E0"/>
<path d="M173.945 78.8546L179.707 82.1848L179.997 80.4693L174.235 77.1392L173.945 78.8546Z" fill="#42E8E0"/>
<path d="M168.542 75.7321L172.435 77.9833L172.725 76.2678L168.831 74.0167L168.542 75.7321Z" fill="#42E8E0"/>
<path d="M149.045 90.3027L151.735 91.8588L152.025 90.1433L149.334 88.5873L149.045 90.3027Z" fill="#42E8E0"/>
<path d="M143.978 87.3749L147.535 89.4301L147.825 87.7146L144.267 85.6594L143.978 87.3749Z" fill="#42E8E0"/>
<path d="M137.245 111.974L129.277 107.369L128.987 109.083L136.955 113.689L137.245 111.974Z" fill="#42E8E0"/>
<path d="M144.516 116.177L138.753 112.847L138.464 114.562L144.226 117.892L144.516 116.177Z" fill="#42E8E0"/>
<path d="M149.919 119.3L146.025 117.049L145.736 118.764L149.629 121.014L149.919 119.3Z" fill="#42E8E0"/>
<path d="M132.629 105.006L129.938 103.45L129.649 105.165L132.339 106.721L132.629 105.006Z" fill="#42E8E0"/>
<path d="M137.695 107.932L134.139 105.877L133.849 107.592L137.405 109.647L137.695 107.932Z" fill="#42E8E0"/>
<path d="M144.934 112.118L139.205 108.805L138.915 110.521L144.645 113.833L144.934 112.118Z" fill="#42E8E0"/>
<path d="M152.706 79.4992L155.397 81.0542L155.686 79.3388L152.995 77.7838L152.706 79.4992Z" fill="#42E8E0"/>
<path d="M147.639 76.5714L151.196 78.6266L151.486 76.9123L147.929 74.856L147.639 76.5714Z" fill="#42E8E0"/>
<path d="M140.4 72.3882L146.131 75.6995L146.421 73.9841L140.69 70.6727L140.4 72.3882Z" fill="#42E8E0"/>
<path d="M156.804 85.8601L162.535 89.1714L162.825 87.4571L157.094 84.1447L156.804 85.8601Z" fill="#42E8E0"/>
<path d="M147.432 80.7513L155.156 85.2148L155.444 83.4993L147.722 79.0359L147.432 80.7513Z" fill="#42E8E0"/>
<path d="M143.506 78.4824L145.922 79.8791L146.212 78.1637L143.795 76.767L143.506 78.4824Z" fill="#42E8E0"/>
<path d="M139.739 76.3046L142.155 77.7012L142.445 75.9858L140.028 74.5891L139.739 76.3046Z" fill="#42E8E0"/>
<path d="M140.256 98.4458L147.886 102.855L148.176 101.141L140.546 96.7303L140.256 98.4458Z" fill="#42E8E0"/>
<path d="M136.331 96.177L138.748 97.5737L139.037 95.8583L136.621 94.4615L136.331 96.177Z" fill="#42E8E0"/>
<path d="M140.782 103.052L143.472 104.607L143.762 102.892L141.071 101.337L140.782 103.052Z" fill="#42E8E0"/>
<path d="M150.282 99.9124L152.973 101.467L153.263 99.7531L150.572 98.197L150.282 99.9124Z" fill="#42E8E0"/>
<path d="M154.119 102.127L160.577 105.857L160.866 104.142L154.409 100.412L154.119 102.127Z" fill="#42E8E0"/>
<path d="M161.722 106.516L165.563 108.735L165.852 107.02L162.011 104.801L161.722 106.516Z" fill="#42E8E0"/>
<path d="M135.715 100.125L139.272 102.18L139.562 100.466L136.005 98.4104L135.715 100.125Z" fill="#42E8E0"/>
<path d="M135.381 104.15L138.071 105.705L138.361 103.99L135.67 102.435L135.381 104.15Z" fill="#42E8E0"/>
<path d="M130.314 101.223L133.871 103.279L134.161 101.564L130.604 99.5083L130.314 101.223Z" fill="#42E8E0"/>
<path d="M146.378 97.6581L148.794 99.0548L149.084 97.3404L146.668 95.9437L146.378 97.6581Z" fill="#42E8E0"/>
<path d="M142.61 95.4819L145.026 96.8786L145.316 95.1632L142.899 93.7665L142.61 95.4819Z" fill="#42E8E0"/>
<path d="M161.172 75.789L169.416 80.5535L169.705 78.8381L161.462 74.0747L161.172 75.789Z" fill="#42E8E0"/>
<path d="M151.94 70.4531L159.664 74.9166L159.953 73.2022L152.229 68.7377L151.94 70.4531Z" fill="#42E8E0"/>
<path d="M148.015 68.1848L150.431 69.5804L150.721 67.8661L148.304 66.4694L148.015 68.1848Z" fill="#42E8E0"/>
<path d="M144.246 66.0074L146.663 67.4041L146.953 65.6898L144.536 64.292L144.246 66.0074Z" fill="#42E8E0"/>
<path d="M142.188 64.8156L136.973 61.8009L137.263 60.0865L142.476 63.1002L142.188 64.8156Z" fill="#42E8E0"/>
<g clip-path="url(#clip0_1553_4478)">
<path d="M108.822 63.9934L112.07 33.1942L107.672 50.6224L108.822 63.9934Z" fill="#6F03E0"/>
</g>
<g clip-path="url(#clip1_1553_4478)">
<path d="M111.917 31.8873L115.077 7.78606L118.627 5.29797L122.048 4.78616L126.834 5.7434L145.5 14.3586L123.534 0.720768L115.8 2.80884L111.909 4.19258L111.917 31.8873Z" fill="#6F03E0"/>
</g>
<defs>
<linearGradient id="paint0_linear_1553_4478" x1="291.001" y1="118.95" x2="103.223" y2="118.95" gradientUnits="userSpaceOnUse">
<stop stop-color="#C0BFF6"/>
<stop offset="0.2938" stop-color="#C5C4F7"/>
<stop offset="0.6399" stop-color="#D3D2F9"/>
<stop offset="1" stop-color="#E9E9FD"/>
</linearGradient>
<linearGradient id="paint1_linear_1553_4478" x1="290.999" y1="167.106" x2="258.756" y2="167.106" gradientUnits="userSpaceOnUse">
<stop stop-color="#5761D7"/>
<stop offset="0.1779" stop-color="#5C66D9"/>
<stop offset="0.3876" stop-color="#6A73DF"/>
<stop offset="0.6134" stop-color="#8289E8"/>
<stop offset="0.849" stop-color="#A3A7F5"/>
<stop offset="1" stop-color="#BCBEFF"/>
</linearGradient>
<linearGradient id="paint2_linear_1553_4478" x1="265.842" y1="221.24" x2="0.639042" y2="221.24" gradientUnits="userSpaceOnUse">
<stop stop-color="#5761D7"/>
<stop offset="0.1779" stop-color="#5C66D9"/>
<stop offset="0.3876" stop-color="#6A73DF"/>
<stop offset="0.6134" stop-color="#8289E8"/>
<stop offset="0.849" stop-color="#A3A7F5"/>
<stop offset="1" stop-color="#BCBEFF"/>
</linearGradient>
<linearGradient id="paint3_linear_1553_4478" x1="176.733" y1="212.397" x2="-88.6116" y2="212.397" gradientUnits="userSpaceOnUse">
<stop stop-color="#C0BFF6"/>
<stop offset="0.2938" stop-color="#C5C4F7"/>
<stop offset="0.6399" stop-color="#D3D2F9"/>
<stop offset="1" stop-color="#E9E9FD"/>
</linearGradient>
<linearGradient id="paint4_linear_1553_4478" x1="131.797" y1="227.46" x2="63.8767" y2="227.46" gradientUnits="userSpaceOnUse">
<stop stop-color="#C0BFF6"/>
<stop offset="0.2938" stop-color="#C5C4F7"/>
<stop offset="0.6399" stop-color="#D3D2F9"/>
<stop offset="1" stop-color="#E9E9FD"/>
</linearGradient>
<linearGradient id="paint5_linear_1553_4478" x1="278.109" y1="153.585" x2="12.7645" y2="153.585" gradientUnits="userSpaceOnUse">
<stop stop-color="#C0BFF6"/>
<stop offset="0.2938" stop-color="#C5C4F7"/>
<stop offset="0.6399" stop-color="#D3D2F9"/>
<stop offset="1" stop-color="#E9E9FD"/>
</linearGradient>
<linearGradient id="paint6_linear_1553_4478" x1="295.574" y1="134.107" x2="227.653" y2="134.107" gradientUnits="userSpaceOnUse">
<stop stop-color="#C0BFF6"/>
<stop offset="0.2938" stop-color="#C5C4F7"/>
<stop offset="0.6399" stop-color="#D3D2F9"/>
<stop offset="1" stop-color="#E9E9FD"/>
</linearGradient>
<clipPath id="clip0_1553_4478">
<rect width="5.10675" height="30.6405" fill="white" transform="translate(113.323 63.8091) rotate(177.656)"/>
</clipPath>
<clipPath id="clip1_1553_4478">
<rect width="31.8395" height="35.0909" fill="white" transform="translate(147.196 2.22205) rotate(93.6305)"/>
</clipPath>
</defs>
</svg>
