<svg width="314" height="303" viewBox="0 0 314 303" fill="none" xmlns="http://www.w3.org/2000/svg">
<path opacity="0.7" d="M198.805 126C197.366 126 195.857 126.354 194.655 127.048L10.9785 233.032C9.72143 233.756 9 234.764 9 235.796C9 236.691 9.52939 237.49 10.4909 238.044L120.097 301.289C122.042 302.412 125.302 302.286 127.521 301.006L311.196 195.024C312.454 194.299 313.174 193.291 313.174 192.259C313.174 191.364 312.645 190.565 311.683 190.011L202.077 126.767C201.188 126.253 200.022 126 198.805 126ZM11.6103 234.124L195.286 128.14C197.087 127.102 199.91 126.974 201.447 127.859L311.053 191.103C311.445 191.33 311.912 191.714 311.912 192.259C311.912 192.818 311.409 193.444 310.565 193.93L126.891 299.912C125.089 300.95 122.268 301.08 120.73 300.195L11.1238 236.951C10.7322 236.724 10.2647 236.34 10.2647 235.794C10.2634 235.236 10.7663 234.611 11.6103 234.124Z" fill="#6F03E0"/>
<g clip-path="url(#clip0_1777_7216)">
<path d="M162.79 181.93L153.24 187.48L151.06 186.23L158.63 181.83L155.89 181.26L157.2 180.07L160.92 180.86L162.79 181.93Z" fill="#6F03E0"/>
<path d="M153.22 176.22C155.8 177.7 154.52 179.61 151.9 181.13C148.94 182.85 145.73 183.34 143.26 181.92C140.77 180.48 141.9 178.57 144.58 176.99C147.35 175.38 150.73 174.79 153.21 176.23L153.22 176.22ZM145.01 180.97C145.88 181.47 147.45 181.11 149.62 179.85C151.74 178.62 152.4 177.71 151.49 177.18C150.67 176.71 149.07 176.98 146.85 178.28C144.65 179.54 144.14 180.46 145.01 180.96V180.97Z" fill="#6F03E0"/>
<path d="M145 171.48C147.58 172.97 146.3 174.87 143.69 176.4C140.73 178.12 137.5 178.6 135.04 177.18C132.56 175.75 133.68 173.83 136.37 172.26C139.14 170.65 142.51 170.06 145 171.49V171.48ZM136.8 176.23C137.67 176.72 139.24 176.37 141.41 175.1C143.53 173.87 144.19 172.96 143.28 172.44C142.45 171.96 140.85 172.24 138.64 173.54C136.44 174.81 135.93 175.72 136.81 176.23H136.8Z" fill="#6F03E0"/>
<path d="M187.43 196.16L177.88 201.71L175.71 200.46L183.27 196.06L180.54 195.49L181.85 194.3L185.57 195.09L187.43 196.16Z" fill="#6F03E0"/>
<path d="M194.3 199.93C196.87 201.42 195.59 203.32 192.98 204.84C190.03 206.56 186.8 207.05 184.35 205.63C181.86 204.2 182.99 202.27 185.67 200.69C188.44 199.08 191.82 198.49 194.31 199.93H194.3ZM186.09 204.69C186.96 205.19 188.53 204.83 190.7 203.57C192.82 202.34 193.48 201.43 192.57 200.9C191.75 200.43 190.14 200.71 187.93 202.01C185.73 203.27 185.22 204.19 186.1 204.7L186.09 204.69Z" fill="#6F03E0"/>
<path d="M169.65 185.7C172.23 187.19 170.94 189.09 168.33 190.61C165.38 192.33 162.15 192.82 159.69 191.4C157.2 189.96 158.33 188.05 161.01 186.46C163.78 184.85 167.16 184.26 169.65 185.7ZM161.44 190.46C162.31 190.96 163.87 190.6 166.05 189.34C168.16 188.11 168.82 187.2 167.91 186.67C167.09 186.2 165.49 186.47 163.27 187.77C161.08 189.03 160.56 189.95 161.44 190.46Z" fill="#6F03E0"/>
<path d="M177.87 190.45C180.45 191.94 179.16 193.84 176.55 195.36C173.59 197.08 170.38 197.57 167.91 196.15C165.43 194.71 166.56 192.79 169.24 191.21C172.01 189.6 175.39 189.01 177.88 190.45H177.87ZM169.66 195.2C170.52 195.7 172.09 195.34 174.27 194.08C176.39 192.85 177.05 191.94 176.13 191.41C175.31 190.93 173.71 191.21 171.49 192.51C169.3 193.77 168.78 194.69 169.66 195.19V195.2Z" fill="#6F03E0"/>
<path d="M202.51 204.67C205.08 206.16 203.8 208.06 201.19 209.58C198.24 211.3 195.01 211.78 192.55 210.37C190.07 208.93 191.19 207.02 193.87 205.43C196.64 203.82 200.02 203.23 202.51 204.67ZM194.3 209.43C195.17 209.93 196.74 209.57 198.91 208.31C201.03 207.08 201.69 206.17 200.78 205.64C199.95 205.17 198.35 205.44 196.14 206.74C193.95 208 193.43 208.92 194.31 209.43H194.3Z" fill="#6F03E0"/>
<path d="M228.51 219.88L218.96 225.42L216.79 224.17L224.34 219.77L221.61 219.2L222.93 218.02L226.65 218.8L228.51 219.88Z" fill="#6F03E0"/>
<path d="M210.72 209.41C213.3 210.9 212.01 212.81 209.4 214.32C206.44 216.04 203.22 216.52 200.76 215.11C198.28 213.67 199.4 211.76 202.08 210.17C204.85 208.56 208.24 207.98 210.71 209.41H210.72ZM202.52 214.17C203.38 214.67 204.96 214.31 207.13 213.05C209.24 211.82 209.9 210.91 208.99 210.38C208.17 209.91 206.57 210.18 204.36 211.48C202.16 212.75 201.65 213.67 202.52 214.17Z" fill="#6F03E0"/>
<path d="M220.29 215.13L210.74 220.68L208.57 219.43L216.13 215.03L213.4 214.46L214.71 213.28L218.43 214.05L220.29 215.13Z" fill="#6F03E0"/>
<path d="M235.37 223.64C237.95 225.13 236.67 227.03 234.05 228.55C231.09 230.27 227.87 230.75 225.42 229.34C222.93 227.9 224.06 225.98 226.74 224.4C229.51 222.79 232.89 222.2 235.38 223.64H235.37ZM227.15 228.39C228.03 228.89 229.6 228.54 231.77 227.27C233.89 226.04 234.55 225.13 233.63 224.6C232.81 224.13 231.21 224.4 229 225.7C226.8 226.97 226.28 227.89 227.15 228.38V228.39Z" fill="#6F03E0"/>
<path d="M145.14 192.19L135.59 197.74L133.42 196.48L140.98 192.08L138.25 191.51L139.56 190.33L143.28 191.11L145.14 192.19Z" fill="#6F03E0"/>
<path d="M153.36 196.93L143.81 202.48L141.63 201.23L149.2 196.83L146.46 196.25L147.77 195.07L151.5 195.85L153.36 196.93Z" fill="#6F03E0"/>
<path d="M161.57 201.67L152.02 207.22L149.85 205.97L157.42 201.57L154.67 201L155.99 199.82L159.71 200.6L161.57 201.67Z" fill="#6F03E0"/>
<path d="M168.43 205.44C171.01 206.93 169.72 208.83 167.11 210.35C164.16 212.06 160.93 212.55 158.47 211.14C155.98 209.7 157.11 207.78 159.79 206.2C162.56 204.59 165.94 204 168.43 205.44ZM160.23 210.2C161.1 210.7 162.67 210.34 164.84 209.08C166.96 207.85 167.62 206.93 166.71 206.41C165.89 205.94 164.29 206.21 162.07 207.51C159.88 208.77 159.36 209.69 160.24 210.2H160.23Z" fill="#6F03E0"/>
<path d="M201.29 224.41C203.87 225.9 202.58 227.8 199.98 229.32C197.02 231.04 193.79 231.52 191.34 230.11C188.85 228.67 189.98 226.76 192.66 225.17C195.43 223.56 198.81 222.97 201.3 224.4L201.29 224.41ZM193.09 229.17C193.96 229.67 195.53 229.31 197.7 228.05C199.82 226.82 200.48 225.91 199.57 225.38C198.75 224.91 197.15 225.18 194.93 226.48C192.74 227.75 192.22 228.67 193.1 229.17H193.09Z" fill="#6F03E0"/>
<path d="M194.43 220.65L184.88 226.19L182.71 224.94L190.27 220.54L187.54 219.97L188.85 218.79L192.57 219.57L194.43 220.65Z" fill="#6F03E0"/>
<path d="M184.86 214.93C187.44 216.42 186.15 218.32 183.54 219.84C180.59 221.56 177.36 222.04 174.91 220.63C172.42 219.19 173.55 217.27 176.23 215.69C179 214.08 182.38 213.49 184.87 214.93H184.86ZM176.66 219.68C177.53 220.19 179.1 219.82 181.27 218.56C183.39 217.33 184.05 216.41 183.14 215.89C182.32 215.42 180.72 215.69 178.5 217C176.31 218.26 175.79 219.18 176.66 219.68Z" fill="#6F03E0"/>
<path d="M176.65 210.18C179.23 211.67 177.94 213.57 175.33 215.09C172.37 216.81 169.15 217.29 166.69 215.88C164.21 214.44 165.33 212.52 168.01 210.94C170.78 209.33 174.16 208.75 176.64 210.18H176.65ZM168.44 214.94C169.31 215.44 170.87 215.08 173.05 213.82C175.17 212.59 175.82 211.67 174.91 211.15C174.09 210.68 172.49 210.95 170.27 212.26C168.07 213.52 167.56 214.44 168.44 214.94Z" fill="#6F03E0"/>
<path d="M217.72 233.9C220.29 235.39 219.01 237.29 216.4 238.81C213.44 240.52 210.21 241.01 207.76 239.6C205.27 238.16 206.4 236.24 209.08 234.66C211.85 233.05 215.23 232.46 217.72 233.89V233.9ZM209.51 238.65C210.39 239.16 211.96 238.8 214.13 237.53C216.25 236.3 216.91 235.39 215.99 234.86C215.18 234.38 213.57 234.66 211.35 235.96C209.16 237.23 208.64 238.15 209.51 238.64V238.65Z" fill="#6F03E0"/>
<path d="M209.51 229.15C212.09 230.64 210.8 232.54 208.19 234.06C205.24 235.78 202.01 236.27 199.55 234.85C197.07 233.41 198.19 231.5 200.87 229.91C203.64 228.3 207.02 227.71 209.51 229.14V229.15ZM201.29 233.9C202.17 234.41 203.74 234.05 205.91 232.79C208.02 231.56 208.68 230.64 207.78 230.12C206.96 229.64 205.35 229.92 203.14 231.22C200.95 232.49 200.43 233.4 201.3 233.9H201.29Z" fill="#6F03E0"/>
<path d="M183.65 234.67C186.23 236.15 184.94 238.06 182.33 239.58C179.37 241.3 176.15 241.78 173.69 240.37C171.2 238.93 172.33 237.02 175.01 235.43C177.78 233.82 181.16 233.23 183.65 234.67ZM175.44 239.43C176.31 239.92 177.88 239.57 180.05 238.31C182.16 237.08 182.82 236.17 181.91 235.64C181.09 235.17 179.49 235.44 177.27 236.74C175.07 238.01 174.56 238.92 175.43 239.43H175.44Z" fill="#6F03E0"/>
<path d="M200.07 244.15C202.65 245.64 201.36 247.54 198.75 249.06C195.79 250.77 192.56 251.26 190.11 249.85C187.62 248.41 188.75 246.5 191.43 244.91C194.2 243.3 197.58 242.71 200.07 244.14V244.15ZM191.86 248.9C192.74 249.41 194.3 249.05 196.48 247.79C198.6 246.56 199.26 245.65 198.35 245.12C197.52 244.65 195.92 244.92 193.7 246.22C191.51 247.48 190.99 248.4 191.86 248.9Z" fill="#6F03E0"/>
<path d="M191.86 239.41C194.43 240.9 193.15 242.8 190.53 244.32C187.58 246.04 184.35 246.53 181.89 245.11C179.41 243.67 180.54 241.76 183.22 240.18C185.99 238.57 189.37 237.98 191.86 239.42V239.41ZM183.64 244.16C184.52 244.67 186.09 244.31 188.26 243.05C190.37 241.82 191.03 240.9 190.13 240.38C189.31 239.91 187.7 240.18 185.48 241.48C183.29 242.74 182.77 243.66 183.64 244.16Z" fill="#6F03E0"/>
<path d="M175.43 229.93C178.01 231.42 176.73 233.32 174.11 234.84C171.15 236.55 167.92 237.04 165.47 235.63C162.98 234.19 164.11 232.28 166.79 230.69C169.56 229.08 172.94 228.49 175.43 229.92V229.93ZM167.22 234.68C168.09 235.17 169.66 234.82 171.83 233.56C173.95 232.33 174.61 231.42 173.7 230.89C172.88 230.42 171.28 230.69 169.06 232C166.86 233.26 166.35 234.18 167.22 234.68Z" fill="#6F03E0"/>
<path d="M168.57 226.15L159.02 231.71L156.84 230.45L164.41 226.06L161.68 225.49L162.98 224.3L166.71 225.08L168.57 226.15Z" fill="#6F03E0"/>
<path d="M160.36 221.42L150.8 226.97L148.63 225.71L156.19 221.31L153.46 220.74L154.77 219.56L158.49 220.34L160.36 221.42Z" fill="#6F03E0"/>
<path d="M152.14 216.67L142.59 222.22L140.42 220.96L147.98 216.57L145.24 216L146.55 214.81L150.28 215.6L152.14 216.67Z" fill="#6F03E0"/>
<path d="M124.93 221.21C127.5 222.7 126.22 224.6 123.6 226.12C120.65 227.84 117.43 228.33 114.96 226.91C112.47 225.47 113.6 223.56 116.28 221.97C119.05 220.36 122.43 219.77 124.92 221.21H124.93ZM116.72 225.97C117.59 226.47 119.15 226.11 121.33 224.85C123.44 223.62 124.1 222.71 123.2 222.18C122.38 221.71 120.77 221.98 118.56 223.29C116.37 224.55 115.85 225.47 116.73 225.97H116.72Z" fill="#6F03E0"/>
<path d="M116.71 216.46C119.29 217.95 118 219.85 115.39 221.37C112.44 223.08 109.21 223.57 106.75 222.16C104.26 220.73 105.39 218.81 108.07 217.22C110.84 215.61 114.22 215.02 116.71 216.45V216.46ZM108.5 221.22C109.36 221.72 110.93 221.36 113.11 220.1C115.23 218.87 115.88 217.96 114.97 217.44C114.15 216.96 112.55 217.23 110.33 218.54C108.13 219.8 107.62 220.72 108.49 221.22H108.5Z" fill="#6F03E0"/>
<path d="M108.49 211.72C111.07 213.21 109.78 215.11 107.17 216.63C104.22 218.35 100.99 218.83 98.5299 217.42C96.0399 215.99 97.1699 214.06 99.8499 212.48C102.61 210.87 106 210.28 108.48 211.72H108.49ZM100.29 216.48C101.16 216.98 102.72 216.62 104.9 215.36C107.02 214.13 107.68 213.22 106.77 212.69C105.95 212.21 104.34 212.49 102.13 213.79C99.9399 215.05 99.4199 215.97 100.29 216.47V216.48Z" fill="#6F03E0"/>
<path d="M101.64 207.96L92.0799 213.5L89.9099 212.25L97.4699 207.85L94.7299 207.28L96.0499 206.1L99.7699 206.88L101.64 207.96Z" fill="#6F03E0"/>
<path d="M141.35 230.69C143.93 232.18 142.64 234.09 140.03 235.61C137.08 237.32 133.85 237.81 131.4 236.4C128.91 234.96 130.04 233.05 132.72 231.46C135.49 229.85 138.87 229.26 141.35 230.69ZM133.15 235.45C134.02 235.95 135.59 235.59 137.76 234.33C139.88 233.1 140.54 232.19 139.63 231.66C138.81 231.18 137.2 231.46 134.99 232.76C132.79 234.03 132.28 234.95 133.15 235.45Z" fill="#6F03E0"/>
<path d="M134.5 226.93L124.94 232.48L122.77 231.22L130.33 226.83L127.6 226.25L128.91 225.07L132.63 225.85L134.5 226.93Z" fill="#6F03E0"/>
<path d="M149.57 235.44C152.15 236.93 150.86 238.83 148.25 240.35C145.3 242.07 142.07 242.55 139.61 241.14C137.12 239.7 138.25 237.78 140.93 236.2C143.7 234.59 147.08 234 149.57 235.44ZM141.36 240.2C142.23 240.7 143.8 240.34 145.97 239.08C148.08 237.84 148.74 236.93 147.83 236.41C147.01 235.94 145.41 236.21 143.19 237.51C140.99 238.78 140.48 239.7 141.35 240.2H141.36Z" fill="#6F03E0"/>
<path d="M182.43 254.41C185 255.9 183.72 257.8 181.1 259.32C178.14 261.04 174.92 261.53 172.46 260.11C169.97 258.67 171.11 256.76 173.78 255.18C176.55 253.57 179.93 252.98 182.42 254.41H182.43ZM174.21 259.16C175.09 259.67 176.66 259.31 178.83 258.04C180.95 256.81 181.6 255.9 180.69 255.38C179.87 254.9 178.27 255.18 176.05 256.48C173.85 257.74 173.34 258.66 174.21 259.16Z" fill="#6F03E0"/>
<path d="M157.78 240.18C160.36 241.67 159.07 243.57 156.46 245.09C153.51 246.81 150.28 247.29 147.82 245.88C145.33 244.44 146.46 242.52 149.14 240.94C151.91 239.34 155.29 238.74 157.78 240.18ZM149.58 244.94C150.45 245.43 152.01 245.08 154.19 243.82C156.31 242.59 156.96 241.67 156.06 241.15C155.23 240.68 153.63 240.95 151.41 242.25C149.22 243.51 148.7 244.43 149.58 244.94Z" fill="#6F03E0"/>
<path d="M167.36 245.9L157.8 251.45L155.63 250.19L163.2 245.8L160.45 245.23L161.77 244.04L165.49 244.82L167.36 245.9Z" fill="#6F03E0"/>
<path d="M174.21 249.67C176.79 251.16 175.5 253.06 172.89 254.58C169.93 256.3 166.7 256.79 164.25 255.37C161.76 253.93 162.89 252.02 165.57 250.43C168.34 248.82 171.72 248.23 174.21 249.67ZM165.99 254.42C166.87 254.93 168.44 254.57 170.61 253.31C172.73 252.08 173.38 251.17 172.47 250.64C171.66 250.16 170.05 250.44 167.83 251.74C165.63 253 165.12 253.92 165.98 254.42H165.99Z" fill="#6F03E0"/>
<path d="M74.42 212.5C77 213.98 75.72 215.9 73.11 217.41C70.15 219.13 66.93 219.62 64.46 218.19C61.97 216.76 63.1 214.84 65.79 213.26C68.55 211.65 71.93 211.06 74.42 212.5ZM66.21 217.25C67.08 217.75 68.65 217.39 70.82 216.13C72.94 214.9 73.59 213.99 72.68 213.46C71.86 212.99 70.26 213.26 68.04 214.57C65.84 215.83 65.33 216.75 66.2 217.25H66.21Z" fill="#6F03E0"/>
<path d="M83.99 218.21L74.44 223.76L72.26 222.5L79.83 218.11L77.09 217.54L78.4 216.35L82.12 217.14L83.99 218.21Z" fill="#6F03E0"/>
<path d="M92.2 222.95L82.65 228.51L80.48 227.25L88.04 222.85L85.31 222.28L86.62 221.09L90.34 221.88L92.2 222.95Z" fill="#6F03E0"/>
<path d="M99.06 226.73C101.64 228.22 100.36 230.12 97.74 231.64C94.78 233.36 91.55 233.84 89.1 232.43C86.61 231 87.74 229.07 90.42 227.49C93.19 225.89 96.57 225.3 99.05 226.73H99.06ZM90.85 231.48C91.72 231.98 93.29 231.62 95.46 230.36C97.58 229.13 98.24 228.21 97.33 227.69C96.5 227.21 94.91 227.48 92.69 228.79C90.49 230.05 89.98 230.97 90.85 231.47V231.48Z" fill="#6F03E0"/>
<path d="M123.71 240.95C126.29 242.44 125 244.34 122.39 245.86C119.44 247.58 116.2 248.06 113.75 246.65C111.26 245.22 112.4 243.3 115.07 241.72C117.84 240.11 121.22 239.52 123.71 240.95ZM115.5 245.71C116.37 246.2 117.94 245.85 120.11 244.58C122.23 243.36 122.88 242.44 121.97 241.92C121.15 241.45 119.54 241.72 117.33 243.02C115.14 244.28 114.62 245.2 115.49 245.71H115.5Z" fill="#6F03E0"/>
<path d="M116.85 237.18L107.3 242.73L105.12 241.48L112.69 237.08L109.95 236.51L111.26 235.32L114.98 236.11L116.85 237.18Z" fill="#6F03E0"/>
<path d="M108.63 232.44L99.0799 237.99L96.9099 236.73L104.47 232.34L101.73 231.77L103.05 230.58L106.77 231.36L108.63 232.44Z" fill="#6F03E0"/>
<path d="M133.28 246.67L123.73 252.22L121.55 250.97L129.12 246.57L126.38 246L127.69 244.81L131.41 245.59L133.28 246.67Z" fill="#6F03E0"/>
<path d="M141.49 251.41L131.94 256.96L129.77 255.71L137.33 251.31L134.59 250.74L135.91 249.55L139.63 250.33L141.49 251.41Z" fill="#6F03E0"/>
<path d="M156.56 259.92C159.14 261.41 157.86 263.31 155.24 264.83C152.28 266.55 149.05 267.04 146.6 265.62C144.11 264.19 145.24 262.27 147.92 260.69C150.69 259.07 154.07 258.49 156.55 259.93L156.56 259.92ZM148.35 264.67C149.23 265.17 150.8 264.82 152.97 263.55C155.09 262.32 155.75 261.41 154.84 260.89C154.02 260.41 152.42 260.69 150.2 261.99C148.01 263.26 147.49 264.17 148.36 264.67H148.35Z" fill="#6F03E0"/>
<path d="M149.71 256.15L140.16 261.7L137.98 260.45L145.54 256.05L142.81 255.49L144.12 254.3L147.84 255.08L149.71 256.15Z" fill="#6F03E0"/>
<path d="M164.78 264.67C167.35 266.15 166.07 268.06 163.46 269.58C160.5 271.3 157.27 271.78 154.82 270.37C152.33 268.93 153.46 267.01 156.14 265.44C158.91 263.83 162.29 263.24 164.78 264.68V264.67ZM156.56 269.42C157.44 269.93 159.01 269.57 161.18 268.3C163.3 267.07 163.96 266.16 163.05 265.63C162.23 265.15 160.62 265.43 158.41 266.73C156.22 267.99 155.7 268.91 156.56 269.41V269.42Z" fill="#6F03E0"/>
<g opacity="0.09">
<path d="M199.12 21.33C212.18 28.87 218.91 38.82 219.05 48.82C233.03 49.33 246.85 52.44 258.13 58.28C259.04 58.75 259.91 59.23 260.76 59.72C284.89 73.66 286.35 96.21 263.46 111.07C240.43 126.02 206.63 129.91 180.29 117.45L179.43 117.03C178.98 116.8 178.51 116.59 178.06 116.36C177.17 115.9 176.32 115.42 175.47 114.94C174.57 114.42 173.7 113.89 172.84 113.35L59.42 49.9L53.86 46.79C42.77 38.16 45.64 27.75 59.17 18.97C73.38 9.74 93.37 10.77 109.95 18.05C135.16 6.69 171.65 6.97 196.39 19.83C197.33 20.32 198.24 20.82 199.12 21.32V21.33Z" fill="#CCC4F5"/>
</g>
<g opacity="0.18">
<path d="M199.12 31.2C212.18 38.74 218.91 48.6899 219.05 58.6899C233.03 59.1999 246.85 62.31 258.13 68.15C259.04 68.62 259.91 69.1 260.76 69.58C284.89 83.52 286.35 106.07 263.46 120.93C240.43 135.88 206.63 139.77 180.29 127.31L179.43 126.89C178.98 126.66 178.51 126.45 178.06 126.21C177.17 125.75 176.32 125.27 175.47 124.79C174.57 124.27 173.7 123.74 172.84 123.2L59.42 59.77L53.86 56.66C42.77 48.0299 45.64 37.6199 59.17 28.84C73.38 19.61 93.37 20.64 109.95 27.92C135.16 16.56 171.65 16.85 196.39 29.7C197.33 30.19 198.24 30.69 199.12 31.19V31.2Z" fill="#CCC4F5"/>
</g>
<g opacity="0.27">
<path d="M199.12 41.0698C212.18 48.6098 218.91 58.5598 219.05 68.5598C233.03 69.0698 246.85 72.1798 258.13 78.0198C259.04 78.4898 259.91 78.9698 260.76 79.4498C284.89 93.3898 286.35 115.94 263.46 130.8C240.43 145.75 206.63 149.64 180.29 137.18L179.43 136.76C178.98 136.53 178.51 136.32 178.06 136.08C177.17 135.62 176.31 135.15 175.47 134.66C174.57 134.14 173.7 133.61 172.84 133.07L59.42 69.6398L53.86 66.5298C42.77 57.8998 45.64 47.4898 59.17 38.7098C73.38 29.4798 93.37 30.5098 109.95 37.7898C135.16 26.4298 171.64 26.7198 196.39 39.5698C197.33 40.0598 198.24 40.5498 199.12 41.0598V41.0698Z" fill="#CCC4F5"/>
</g>
<g opacity="0.36">
<path d="M199.12 50.9399C212.18 58.4799 218.91 68.4299 219.05 78.4299C233.03 78.9399 246.85 82.0499 258.13 87.8799C259.04 88.3499 259.91 88.8299 260.76 89.3099C284.89 103.25 286.35 125.8 263.46 140.66C240.43 155.61 206.63 159.5 180.29 147.04L179.43 146.62C178.98 146.39 178.51 146.18 178.06 145.94C177.17 145.48 176.31 145.01 175.47 144.52C174.57 144 173.7 143.47 172.84 142.93L59.42 79.4999L53.86 76.3899C42.77 67.7599 45.64 57.3499 59.17 48.5699C73.38 39.3399 93.37 40.3699 109.95 47.6499C135.16 36.2899 171.64 36.5799 196.39 49.4299C197.33 49.9199 198.24 50.4099 199.12 50.9199V50.9399Z" fill="#CCC4F5"/>
</g>
<g opacity="0.45">
<path d="M199.12 60.8C212.18 68.34 218.91 78.29 219.05 88.29C233.03 88.8 246.85 91.91 258.13 97.74C259.04 98.21 259.91 98.69 260.76 99.17C284.89 113.11 286.35 135.66 263.46 150.52C240.43 165.47 206.63 169.36 180.29 156.9L179.43 156.48C178.98 156.25 178.51 156.04 178.06 155.8C177.17 155.34 176.31 154.87 175.47 154.38C174.57 153.86 173.7 153.33 172.84 152.79L59.42 89.36L53.86 86.25C42.77 77.62 45.64 67.21 59.17 58.43C73.38 49.2 93.37 50.23 109.95 57.51C135.16 46.15 171.62 46.49 196.39 59.29C197.33 59.78 198.24 60.27 199.12 60.78V60.8Z" fill="#CCC4F5"/>
</g>
<g opacity="0.55">
<path d="M199.12 70.6698C212.18 78.2098 218.91 88.1598 219.05 98.1598C233.03 98.6698 246.85 101.78 258.13 107.61C259.04 108.08 259.91 108.56 260.76 109.04C284.89 122.98 286.35 145.53 263.46 160.39C240.43 175.34 206.63 179.23 180.29 166.77L179.43 166.35C178.98 166.12 178.51 165.91 178.06 165.67C177.17 165.21 176.31 164.74 175.47 164.25C174.57 163.73 173.7 163.2 172.84 162.66L59.42 99.2298L53.86 96.1198C42.77 87.4898 45.64 77.0798 59.17 68.2998C73.38 59.0698 93.37 60.0998 109.95 67.3798C135.16 56.0198 171.62 56.3598 196.39 69.1598C197.33 69.6498 198.24 70.1398 199.12 70.6498V70.6698Z" fill="#CCC4F5"/>
</g>
<g opacity="0.64">
<path d="M199.12 80.5399C212.18 88.0799 218.91 98.0299 219.05 108.03C233.03 108.54 246.85 111.65 258.13 117.48C259.04 117.95 259.91 118.43 260.76 118.91C284.92 132.8 286.35 155.4 263.46 170.26C240.43 185.21 206.63 189.1 180.29 176.64L179.43 176.22C178.98 175.99 178.51 175.78 178.06 175.54C177.17 175.08 176.31 174.61 175.47 174.12C174.57 173.6 173.7 173.07 172.84 172.53L59.42 109.1L53.86 105.99C42.77 97.3599 45.64 86.9499 59.17 78.1699C73.38 68.9399 93.37 69.9699 109.95 77.2499C135.16 65.8899 171.62 66.2299 196.39 79.0299C197.33 79.5199 198.24 80.0099 199.12 80.5199V80.5399Z" fill="#CCC4F5"/>
</g>
<g opacity="0.73">
<path d="M199.12 90.4098C212.18 97.9498 218.91 107.9 219.05 117.9C233.03 118.41 246.85 121.52 258.13 127.35C259.04 127.82 259.91 128.3 260.76 128.78C284.93 142.66 286.35 165.27 263.46 180.13C240.43 195.08 206.63 198.97 180.29 186.51L179.43 186.09C178.98 185.86 178.51 185.65 178.06 185.41C177.17 184.95 176.31 184.48 175.47 183.99C174.57 183.47 173.7 182.94 172.84 182.4L59.42 118.97L53.86 115.86C42.77 107.24 45.64 96.8198 59.17 88.0398C73.38 78.8098 93.37 79.8398 109.95 87.1198C135.16 75.7598 171.62 76.0998 196.39 88.8998C197.33 89.3898 198.24 89.8798 199.12 90.3898V90.4098Z" fill="#CCC4F5"/>
</g>
<g opacity="0.82">
<path d="M199.12 100.28C212.18 107.82 218.91 117.77 219.05 127.77C233.03 128.28 246.85 131.39 258.13 137.22C259.04 137.69 259.91 138.17 260.76 138.65C284.93 152.52 286.35 175.14 263.46 190.01C240.43 204.96 206.63 208.85 180.29 196.39L179.43 195.98C178.98 195.75 178.51 195.54 178.06 195.3C177.17 194.84 176.31 194.37 175.47 193.89C174.57 193.37 173.7 192.84 172.84 192.3L59.42 128.87L53.86 125.76C42.77 117.14 45.64 106.72 59.17 97.94C73.38 88.71 93.37 89.74 109.95 97.02C135.16 85.66 171.62 86 196.39 98.8C197.33 99.29 198.24 99.78 199.12 100.29V100.28Z" fill="#CCC4F5"/>
</g>
<g opacity="0.91">
<path d="M199.12 110.14C212.18 117.68 218.91 127.63 219.05 137.63C233.03 138.14 246.85 141.25 258.13 147.08C259.04 147.55 259.91 148.03 260.76 148.51C284.94 162.38 286.35 185 263.46 199.87C240.43 214.82 206.63 218.71 180.29 206.25L179.43 205.84C178.98 205.61 178.51 205.4 178.06 205.16C177.17 204.71 176.31 204.23 175.47 203.75C174.57 203.23 173.7 202.7 172.84 202.16L59.42 138.73L53.86 135.62C42.77 127 45.64 116.58 59.17 107.8C73.38 98.5698 93.37 99.5998 109.95 106.88C135.16 95.5198 171.62 95.8598 196.39 108.66C197.33 109.15 198.24 109.64 199.12 110.15V110.14Z" fill="#CCC4F5"/>
</g>
<path d="M199.12 120.01C212.18 127.55 218.91 137.5 219.05 147.5C233.03 148.01 246.85 151.12 258.13 156.95C259.04 157.42 259.91 157.9 260.76 158.38C284.89 172.32 286.35 194.87 263.46 209.74C240.43 224.69 206.63 228.58 180.29 216.11L179.43 215.7C178.98 215.47 178.51 215.26 178.06 215.02C177.17 214.57 176.31 214.09 175.47 213.61C174.57 213.09 173.7 212.56 172.84 212.02L59.42 148.59L53.86 145.48C42.77 136.86 45.64 126.44 59.17 117.66C73.38 108.43 93.37 109.46 109.95 116.74C135.16 105.38 171.62 105.72 196.39 118.52C197.33 119.01 198.24 119.5 199.12 120.01Z" fill="#CCC4F5"/>
<path d="M237.31 188.42L244.99 183.95L172.33 142L164.64 146.46L237.31 188.42Z" fill="#BFD4DB"/>
<path d="M237.28 197.57L237.3 188.42L244.98 183.96L244.96 193.11C244.96 194.98 244.3 196.3 243.22 196.92C240.66 198.41 238.1 199.9 235.54 201.39C236.61 200.77 237.27 199.45 237.28 197.58V197.57Z" fill="#C0C0F6"/>
<path d="M237.28 197.57L237.3 188.42L164.64 146.46L164.62 155.62C164.6 159.4 167.26 164 170.55 165.9L231.29 200.97C234.58 202.88 237.26 201.35 237.27 197.57H237.28Z" fill="#E3E3FC"/>
<path d="M237.31 188.42L244.99 183.95L245.34 60.8799L237.66 65.3499L237.31 188.42Z" fill="#C0C0F6"/>
<path d="M237.66 65.3499L245.34 60.8799L172.68 18.9299L164.99 23.3999L237.66 65.3499Z" fill="#35C2DA"/>
<path d="M164.99 23.3999L164.64 146.46L237.31 188.42L237.66 65.3499L164.99 23.3999Z" fill="#352885"/>
<mask id="mask0_1777_7216" style="mask-type:luminance" maskUnits="userSpaceOnUse" x="184" y="23" width="11" height="9">
<path d="M192.62 24.91C192.62 24.45 192.78 24.13 193.04 23.98L185.36 28.45C185.1 28.59 184.94 28.92 184.94 29.38C185.1 29.29 185.33 29.15 185.49 29.06C185.58 29.01 185.69 28.94 185.78 28.89C186.38 28.54 186.99 28.2 187.59 27.85C188.45 27.35 189.3 26.85 190.16 26.35C190.98 25.87 191.8 25.39 192.62 24.92C190.06 26.41 187.5 27.9 184.94 29.39C184.94 30.32 185.58 31.44 186.38 31.9L194.06 27.44C193.26 26.97 192.62 25.86 192.62 24.93V24.91Z" fill="white"/>
</mask>
<g mask="url(#mask0_1777_7216)">
<path d="M186.38 31.88L194.06 27.42C193.89 27.31 193.73 27.19 193.58 27.04L185.9 31.51C186.04 31.66 186.21 31.79 186.38 31.88Z" fill="#B2C5CC"/>
<path d="M185.9 31.5099L193.58 27.0399C193.52 26.9799 193.47 26.9299 193.42 26.8699L185.73 31.3399C185.78 31.3999 185.83 31.4499 185.89 31.5099H185.9Z" fill="#ADC0C7"/>
<path d="M185.74 31.34L193.43 26.87C193.43 26.87 193.35 26.77 193.31 26.73L185.63 31.2C185.63 31.2 185.7 31.29 185.75 31.34H185.74Z" fill="#A9BBC2"/>
<path d="M185.62 31.1999L193.3 26.7299C193.3 26.7299 193.24 26.6399 193.21 26.5999L185.53 31.0699C185.53 31.0699 185.59 31.1599 185.63 31.1999H185.62Z" fill="#A4B6BD"/>
<path d="M185.53 31.06L193.21 26.59C193.21 26.59 193.15 26.51 193.13 26.47L185.45 30.94C185.45 30.94 185.5 31.03 185.53 31.07V31.06Z" fill="#A0B1B8"/>
<path d="M185.45 30.9399L193.13 26.4699C193.13 26.4699 193.08 26.3899 193.05 26.3499L185.37 30.8199C185.37 30.8199 185.42 30.8999 185.45 30.9399Z" fill="#9BACB3"/>
<path d="M185.37 30.82L193.05 26.35C193.05 26.35 193 26.27 192.98 26.23L185.3 30.69C185.3 30.69 185.35 30.77 185.36 30.81L185.37 30.82Z" fill="#97A7AD"/>
<path d="M185.3 30.6899L192.98 26.2299C192.98 26.2299 192.94 26.1399 192.92 26.0999L185.24 30.5699C185.24 30.5699 185.28 30.6499 185.3 30.6899Z" fill="#93A2A8"/>
<path d="M185.24 30.57L192.92 26.1C192.92 26.1 192.88 26.02 192.86 25.98L185.18 30.45C185.18 30.45 185.22 30.53 185.24 30.57Z" fill="#8E9DA3"/>
<path d="M185.18 30.4499L192.86 25.9799C192.86 25.9799 192.82 25.8899 192.81 25.8499L185.13 30.3099C185.13 30.3099 185.17 30.3999 185.18 30.4399V30.4499Z" fill="#8A999E"/>
<path d="M185.13 30.31L192.81 25.85C192.81 25.85 192.78 25.76 192.76 25.71L185.07 30.18C185.07 30.18 185.1 30.27 185.12 30.31H185.13Z" fill="#859499"/>
<path d="M185.08 30.1801L192.77 25.7101C192.77 25.7101 192.74 25.6101 192.72 25.5601L185.03 30.0201C185.05 30.0701 185.06 30.1201 185.08 30.1701V30.1801Z" fill="#818F94"/>
<path d="M185.03 30.0299L192.72 25.5699C192.7 25.5099 192.69 25.4499 192.68 25.3999L185 29.8599C185.01 29.9199 185.02 29.9799 185.04 30.0299H185.03Z" fill="#7C8A8F"/>
<path d="M184.99 29.8599L192.67 25.3999C192.66 25.3199 192.64 25.2599 192.63 25.1899L184.95 29.6599C184.96 29.7299 184.97 29.7999 184.99 29.8599Z" fill="#78858A"/>
<path d="M184.96 29.66L192.64 25.19C192.62 25.09 192.62 25 192.62 24.9C192.62 24.44 192.78 24.12 193.04 23.97L185.36 28.44C185.1 28.58 184.94 28.91 184.94 29.37C184.94 29.46 184.94 29.57 184.96 29.66Z" fill="#738085"/>
</g>
<mask id="mask1_1777_7216" style="mask-type:luminance" maskUnits="userSpaceOnUse" x="185" y="23" width="10" height="6">
<path d="M193.04 23.9799C192.93 24.0399 192.78 24.1299 192.66 24.1999C190.23 25.6099 187.79 27.0299 185.36 28.4399C185.62 28.2899 185.99 28.3099 186.39 28.5399L194.08 24.0699C193.68 23.8399 193.31 23.8199 193.04 23.9699V23.9799Z" fill="white"/>
</mask>
<g mask="url(#mask1_1777_7216)">
<path d="M186.39 28.54L194.08 24.07C194.01 24.03 193.94 24 193.87 23.97L186.19 28.44C186.26 28.46 186.32 28.5 186.39 28.54Z" fill="#32B5CA"/>
<path d="M186.19 28.4399L193.87 23.9699C193.81 23.9399 193.76 23.9299 193.7 23.9099L186.01 28.3799C186.06 28.3899 186.12 28.4199 186.18 28.4399H186.19Z" fill="#30B0C5"/>
<path d="M186.02 28.3799L193.71 23.9099C193.71 23.9099 193.62 23.8899 193.58 23.8799L185.89 28.3499C185.89 28.3499 185.97 28.3699 186.02 28.3799Z" fill="#2FACC0"/>
<path d="M185.89 28.3599L193.58 23.8899C193.58 23.8899 193.51 23.8899 193.47 23.8899L185.78 28.3499C185.78 28.3499 185.85 28.3599 185.89 28.3599Z" fill="#2EA7BB"/>
<path d="M185.78 28.3399L193.47 23.8799H193.37L185.69 28.3499C185.69 28.3499 185.75 28.3499 185.78 28.3499V28.3399Z" fill="#2DA3B6"/>
<path d="M185.69 28.3499L193.37 23.8799C193.37 23.8799 193.32 23.8799 193.29 23.8799L185.6 28.3499C185.6 28.3499 185.66 28.3499 185.69 28.3499Z" fill="#2B9EB1"/>
<path d="M185.6 28.3599L193.29 23.8899C193.29 23.8899 193.23 23.8999 193.2 23.9099L185.51 28.3799C185.51 28.3799 185.56 28.3699 185.59 28.3599H185.6Z" fill="#2A9AAC"/>
<path d="M185.51 28.3799L193.2 23.9099C193.2 23.9099 193.15 23.9199 193.12 23.9399L185.44 28.3999C185.44 28.3999 185.49 28.3799 185.51 28.3699V28.3799Z" fill="#2995A7"/>
<path d="M185.44 28.3999L193.12 23.9399C193.12 23.9399 193.07 23.9599 193.05 23.9699L185.37 28.4399C185.37 28.4399 185.42 28.4099 185.45 28.3999H185.44Z" fill="#2891A2"/>
</g>
<path d="M217.7 49.9599L225.39 45.4999L194.06 27.4199L186.38 31.8799L217.7 49.9599Z" fill="#BFD4DB"/>
<mask id="mask2_1777_7216" style="mask-type:luminance" maskUnits="userSpaceOnUse" x="217" y="45" width="10" height="6">
<path d="M226.43 45.6C226.16 45.75 225.8 45.73 225.39 45.5L217.7 49.97C218.11 50.21 218.47 50.22 218.74 50.07C221.04 48.73 224.12 46.95 226.42 45.6H226.43Z" fill="white"/>
</mask>
<g mask="url(#mask2_1777_7216)">
<path d="M218.73 50.0701L226.41 45.6001C226.41 45.6001 226.36 45.6301 226.34 45.6401L218.66 50.1101C218.66 50.1101 218.71 50.0801 218.74 50.0701H218.73Z" fill="#8E9DA3"/>
<path d="M218.66 50.1099L226.34 45.6399C226.34 45.6399 226.29 45.6699 226.26 45.6699L218.57 50.1399C218.57 50.1399 218.62 50.1199 218.65 50.1199L218.66 50.1099Z" fill="#93A2A8"/>
<path d="M218.58 50.1299L226.27 45.6599C226.27 45.6599 226.22 45.6699 226.19 45.6799L218.51 50.1499C218.51 50.1499 218.57 50.1399 218.59 50.1299H218.58Z" fill="#97A7AD"/>
<path d="M218.5 50.1499L226.18 45.6799C226.18 45.6799 226.12 45.6799 226.09 45.6799L218.41 50.1499C218.41 50.1499 218.47 50.1499 218.5 50.1499Z" fill="#9BACB3"/>
<path d="M218.41 50.1599L226.09 45.6899H226L218.32 50.1599C218.32 50.1599 218.39 50.1599 218.41 50.1599Z" fill="#A0B1B8"/>
<path d="M218.32 50.1599L226 45.6899C226 45.6899 225.93 45.6899 225.9 45.6899L218.21 50.1599C218.21 50.1599 218.29 50.1599 218.32 50.1599Z" fill="#A4B6BD"/>
<path d="M218.21 50.1499L225.9 45.6799C225.9 45.6799 225.81 45.6699 225.77 45.6599L218.09 50.1299C218.09 50.1299 218.18 50.1499 218.22 50.1599L218.21 50.1499Z" fill="#A9BBC2"/>
<path d="M218.08 50.1301L225.76 45.6601C225.7 45.6401 225.64 45.6301 225.59 45.6001L217.9 50.0601C217.96 50.0901 218.02 50.1001 218.08 50.1201V50.1301Z" fill="#ADC0C7"/>
<path d="M217.91 50.06L225.6 45.6C225.53 45.57 225.46 45.54 225.39 45.5L217.7 49.97C217.77 50.01 217.84 50.04 217.91 50.07V50.06Z" fill="#B2C5CC"/>
</g>
<path d="M217.71 46.6298L225.4 42.1598L194.08 24.0798L186.39 28.5398L217.71 46.6298Z" fill="#35C2DA"/>
<mask id="mask3_1777_7216" style="mask-type:luminance" maskUnits="userSpaceOnUse" x="217" y="42" width="10" height="9">
<path d="M218.74 50.0699C221.3 48.5799 223.86 47.0899 226.42 45.5999C226.68 45.4499 226.84 45.1199 226.84 44.6599C226.84 43.7399 226.2 42.6299 225.39 42.1599L217.71 46.6299C218.52 47.0899 219.17 48.2099 219.16 49.1299C219.16 49.5899 219 49.9099 218.74 50.0599V50.0699Z" fill="white"/>
</mask>
<g mask="url(#mask3_1777_7216)">
<path d="M218.74 50.0699L226.42 45.5999C226.68 45.4499 226.84 45.1199 226.84 44.6599C226.84 44.5699 226.84 44.4799 226.83 44.3799L219.14 48.8499C219.15 48.9399 219.16 49.0399 219.16 49.1399C219.16 49.5999 219 49.9199 218.74 50.0699Z" fill="#207684"/>
<path d="M219.14 48.8499L226.83 44.3799C226.83 44.3099 226.81 44.2499 226.79 44.1799L219.11 48.6399C219.13 48.7199 219.13 48.7799 219.14 48.8399V48.8499Z" fill="#217A89"/>
<path d="M219.11 48.64L226.79 44.18C226.78 44.12 226.77 44.07 226.75 44.01L219.07 48.48C219.08 48.54 219.09 48.59 219.11 48.64Z" fill="#237F8E"/>
<path d="M219.07 48.4799L226.75 44.0099C226.75 44.0099 226.72 43.9099 226.71 43.8699L219.03 48.3299C219.03 48.3299 219.06 48.4399 219.08 48.4799H219.07Z" fill="#248393"/>
<path d="M219.02 48.33L226.7 43.87C226.7 43.87 226.67 43.78 226.65 43.73L218.97 48.2C218.97 48.2 219.01 48.29 219.02 48.33Z" fill="#258898"/>
<path d="M218.97 48.1999L226.65 43.7299C226.65 43.7299 226.62 43.6399 226.6 43.5999L218.91 48.0699C218.91 48.0699 218.95 48.1599 218.96 48.1999H218.97Z" fill="#268C9D"/>
<path d="M218.92 48.07L226.61 43.6C226.61 43.6 226.57 43.52 226.55 43.48L218.87 47.94C218.87 47.94 218.91 48.02 218.92 48.07Z" fill="#2891A2"/>
<path d="M218.86 47.9399L226.54 43.4799C226.54 43.4799 226.5 43.3999 226.48 43.3599L218.8 47.8199C218.8 47.8199 218.84 47.9099 218.86 47.9499V47.9399Z" fill="#2995A7"/>
<path d="M218.8 47.82L226.48 43.36C226.48 43.36 226.44 43.28 226.42 43.23L218.74 47.7C218.74 47.7 218.79 47.78 218.81 47.82H218.8Z" fill="#2A9AAC"/>
<path d="M218.73 47.6999L226.41 43.2299C226.41 43.2299 226.36 43.1499 226.33 43.1099L218.65 47.5699C218.65 47.5699 218.7 47.6499 218.73 47.6999Z" fill="#2B9EB1"/>
<path d="M218.66 47.57L226.34 43.11C226.34 43.11 226.28 43.03 226.25 42.98L218.57 47.44C218.57 47.44 218.62 47.53 218.65 47.57H218.66Z" fill="#2DA3B6"/>
<path d="M218.58 47.4399L226.26 42.9799C226.26 42.9799 226.2 42.8899 226.17 42.8499L218.48 47.3099C218.48 47.3099 218.54 47.3899 218.58 47.4299V47.4399Z" fill="#2EA7BB"/>
<path d="M218.48 47.32L226.17 42.86C226.12 42.81 226.09 42.76 226.05 42.72L218.37 47.19C218.37 47.19 218.45 47.28 218.49 47.33L218.48 47.32Z" fill="#2FACC0"/>
<path d="M218.36 47.1798L226.04 42.7098C225.99 42.6498 225.94 42.5898 225.88 42.5398L218.19 47.0098C218.25 47.0598 218.3 47.1198 218.35 47.1798H218.36Z" fill="#30B0C5"/>
<path d="M218.2 47.0099L225.89 42.5399C225.73 42.3899 225.57 42.2599 225.4 42.1599L217.72 46.6299C217.89 46.7299 218.06 46.8599 218.21 47.0099H218.2Z" fill="#32B5CA"/>
</g>
<path d="M186.39 28.5399C185.59 28.0799 184.94 28.4499 184.94 29.3699C184.94 30.2999 185.58 31.4199 186.38 31.8799L217.7 49.9699C218.51 50.4299 219.16 50.0699 219.16 49.1399C219.16 48.2199 218.52 47.0999 217.71 46.6399L186.39 28.5499V28.5399Z" fill="#C0C0F6"/>
<path d="M231.73 49.7299C235.02 51.6299 237.69 56.2399 237.67 60.0299V65.3499L164.99 23.3999V18.0699C165.02 14.2899 167.69 12.7599 170.98 14.6599L231.72 49.7199L231.73 49.7299ZM186.38 31.8799L217.7 49.9699C218.51 50.4299 219.16 50.0699 219.16 49.1399C219.16 48.2199 218.52 47.0999 217.71 46.6399L186.39 28.5499C185.59 28.0899 184.94 28.4599 184.94 29.3799C184.94 30.3099 185.58 31.4299 186.38 31.8899V31.8799Z" fill="#E3E3FC"/>
<path d="M170.01 14.1899C169.87 14.1399 169.73 14.0899 169.59 14.0499C169.5 14.0299 169.42 13.9999 169.33 13.9799C169.24 13.9599 169.17 13.9399 169.08 13.9299C168.98 13.9099 168.87 13.8899 168.77 13.8799C168.71 13.8699 168.65 13.8599 168.59 13.8599C168.46 13.8599 168.33 13.8599 168.2 13.8599H168.11C167.96 13.8599 167.82 13.8899 167.68 13.9099C167.64 13.9099 167.6 13.9299 167.57 13.9299C167.46 13.9599 167.35 13.9799 167.25 14.0199C167.22 14.0299 167.18 14.0399 167.15 14.0599C167.02 14.1099 166.88 14.1699 166.76 14.2499C169.32 12.7599 171.88 11.2799 174.44 9.7899C174.45 9.7899 174.45 9.7799 174.47 9.7699C174.57 9.7199 174.67 9.6699 174.77 9.6299C174.79 9.6199 174.81 9.6099 174.83 9.6099C174.87 9.5899 174.9 9.5799 174.94 9.5699C174.99 9.5399 175.04 9.5299 175.1 9.5099C175.15 9.5099 175.21 9.4899 175.27 9.4699C175.3 9.4699 175.34 9.4499 175.38 9.4399C175.4 9.4399 175.42 9.4399 175.43 9.4399C175.55 9.4099 175.67 9.4099 175.79 9.3999H175.91C176 9.3999 176.09 9.3999 176.19 9.3999C176.22 9.3999 176.25 9.3999 176.28 9.4099C176.34 9.4099 176.4 9.4099 176.46 9.4199C176.52 9.4199 176.57 9.4199 176.63 9.4399C176.67 9.4499 176.73 9.4599 176.78 9.4699C176.86 9.4799 176.94 9.5099 177.02 9.5199C177.06 9.5299 177.11 9.5399 177.15 9.5499C177.2 9.5599 177.24 9.5899 177.29 9.5999C177.43 9.6399 177.56 9.6899 177.71 9.7499C177.76 9.7699 177.8 9.7799 177.85 9.7999C177.88 9.8099 177.9 9.8299 177.94 9.8399C178.19 9.9499 178.43 10.0699 178.69 10.2099L239.43 45.2799C239.75 45.4599 240.06 45.6799 240.36 45.9099C240.42 45.9499 240.46 45.9799 240.51 46.0199C240.8 46.2499 241.08 46.4999 241.36 46.7599C241.38 46.7899 241.4 46.7999 241.43 46.8199C241.47 46.8599 241.51 46.9099 241.55 46.9499C241.69 47.0899 241.82 47.2299 241.96 47.3699C242 47.4099 242.04 47.4599 242.08 47.4999C242.12 47.5399 242.14 47.5799 242.18 47.6199C242.25 47.7099 242.33 47.8199 242.41 47.9099C242.46 47.9699 242.51 48.0299 242.56 48.0899C242.6 48.1399 242.65 48.1899 242.68 48.2499C242.73 48.3199 242.79 48.3999 242.84 48.4699C242.88 48.5299 242.92 48.5799 242.96 48.6299C243.03 48.7199 243.09 48.8199 243.15 48.8999C243.19 48.9599 243.23 49.0099 243.26 49.0699C243.28 49.0999 243.3 49.1199 243.31 49.1499C243.42 49.3099 243.52 49.4699 243.62 49.6499C243.62 49.6699 243.64 49.6799 243.64 49.6899C243.66 49.7199 243.67 49.7399 243.69 49.7799C243.76 49.8999 243.83 50.0299 243.9 50.1599C243.94 50.2199 243.96 50.2799 243.99 50.3399C244.02 50.3899 244.05 50.4499 244.07 50.5099C244.1 50.5599 244.13 50.6199 244.15 50.6699C244.22 50.8099 244.28 50.9499 244.34 51.0899C244.35 51.1099 244.37 51.1499 244.38 51.1699C244.38 51.1799 244.38 51.1899 244.38 51.1899C244.46 51.3599 244.53 51.5399 244.6 51.7199C244.62 51.7599 244.62 51.7899 244.64 51.8199C244.67 51.8899 244.69 51.9499 244.71 52.0199C244.74 52.1099 244.78 52.1899 244.81 52.2899C244.83 52.3499 244.85 52.4199 244.88 52.4999C244.9 52.5799 244.93 52.6699 244.95 52.7499C244.96 52.7999 244.98 52.8599 245 52.8999C245.02 52.9999 245.04 53.0799 245.06 53.1699C245.09 53.2699 245.11 53.3799 245.14 53.4799C245.14 53.5099 245.16 53.5499 245.17 53.5799C245.17 53.6499 245.19 53.7199 245.2 53.7899C245.23 53.9599 245.26 54.1099 245.28 54.2699C245.28 54.3099 245.3 54.3599 245.31 54.3999C245.31 54.4399 245.31 54.4799 245.31 54.5199C245.35 54.8699 245.38 55.2199 245.37 55.5599V60.8699L237.67 65.3399V60.0199C237.68 59.6799 237.66 59.3299 237.62 58.9799C237.61 58.8999 237.59 58.8099 237.59 58.7299C237.57 58.5699 237.53 58.4099 237.51 58.2499C237.49 58.1399 237.47 58.0299 237.45 57.9299C237.42 57.8199 237.39 57.7199 237.37 57.6199C237.33 57.4799 237.3 57.3399 237.26 57.1999C237.24 57.1099 237.21 57.0299 237.18 56.9399C237.13 56.7799 237.08 56.6299 237.02 56.4699C237 56.4099 236.98 56.3399 236.95 56.2699C236.87 56.0499 236.78 55.8299 236.68 55.6099C236.67 55.5799 236.65 55.5499 236.64 55.5199C236.56 55.3299 236.47 55.1499 236.39 54.9699C236.35 54.9099 236.32 54.8399 236.29 54.7799C236.2 54.6099 236.11 54.4399 236.02 54.2699C236 54.2299 235.97 54.1799 235.94 54.1399C235.82 53.9299 235.69 53.7299 235.57 53.5399C235.53 53.4799 235.49 53.4199 235.45 53.3599C235.36 53.2199 235.26 53.0799 235.16 52.9399C235.1 52.8599 235.05 52.7899 234.99 52.7099C234.9 52.5899 234.81 52.4799 234.72 52.3599C234.64 52.2699 234.57 52.1699 234.49 52.0799C234.42 51.9899 234.34 51.8999 234.26 51.8199C234.13 51.6799 234 51.5299 233.87 51.3999C233.8 51.3299 233.73 51.2699 233.67 51.1999C233.4 50.9299 233.12 50.6899 232.83 50.4599C232.78 50.4199 232.73 50.3799 232.67 50.3399C232.37 50.1099 232.06 49.8999 231.74 49.7099L171 14.6499C170.74 14.4999 170.5 14.3799 170.25 14.2699C170.17 14.2399 170.1 14.2099 170.02 14.1799L170.01 14.1899Z" fill="#C0C0F6"/>
<path d="M174 51V59.15L219.75 85.54L219.69 77.14L174 51Z" fill="#62EEFF"/>
<path d="M174 64.3601V72.5201L198.28 87.2001L198.22 78.8101L174 64.3601Z" fill="#62EEFF"/>
<path d="M174 77.1699V85.3199L198.28 100.01L198.22 91.6099L174 77.1699Z" fill="#62EEFF"/>
<path d="M174 90.53V98.68L219.75 125.07L219.69 116.67L174 90.53Z" fill="#62EEFF"/>
<path d="M174 103.89V112.05L204.61 129.69L204.55 121.29L174 103.89Z" fill="#62EEFF"/>
<g opacity="0.1">
<path d="M30.49 196.79L43.69 204.46L56.97 196.79L43.78 189.12L30.49 196.79Z" fill="black"/>
</g>
<g opacity="0.09">
<path d="M31.6101 191.53L43.7001 198.55L55.8501 191.53L43.7701 184.51L31.6101 191.53Z" fill="#5438DC"/>
</g>
<g opacity="0.18">
<path d="M32.73 186.77L43.7 193.14L54.74 186.77L43.77 180.4L32.73 186.77Z" fill="#5438DC"/>
</g>
<g opacity="0.27">
<path d="M33.8501 182.02L43.7001 187.74L53.6201 182.02L43.7701 176.3L33.8501 182.02Z" fill="#5438DC"/>
</g>
<g opacity="0.36">
<path d="M34.97 177.26L43.71 182.34L52.5 177.26L43.76 172.19L34.97 177.26Z" fill="#5438DC"/>
</g>
<g opacity="0.45">
<path d="M36.0901 172.51L43.7101 176.94L51.3801 172.51L43.7601 168.08L36.0901 172.51Z" fill="#5438DC"/>
</g>
<g opacity="0.55">
<path d="M37.21 167.75L43.71 171.53L50.26 167.75L43.76 163.98L37.21 167.75Z" fill="#5438DC"/>
</g>
<g opacity="0.64">
<path d="M38.3301 163L43.7201 166.13L49.1501 163L43.7501 159.87L38.3301 163Z" fill="#5438DC"/>
</g>
<g opacity="0.73">
<path d="M39.4399 158.25L43.7199 160.73L48.0299 158.25L43.7499 155.76L39.4399 158.25Z" fill="#5438DC"/>
</g>
<g opacity="0.82">
<path d="M40.5601 153.49L43.7301 155.33L46.9101 153.49L43.7501 151.65L40.5601 153.49Z" fill="#5438DC"/>
</g>
<g opacity="0.91">
<path d="M41.6799 148.74L43.7299 149.93L45.7899 148.74L43.7399 147.55L41.6799 148.74Z" fill="#5438DC"/>
</g>
<path d="M42.8 143.98L43.73 144.52L44.67 143.98L43.74 143.44L42.8 143.98Z" fill="#5438DC"/>
<g opacity="0.1">
<path d="M57.3701 179.37L72.5501 188.19L87.8301 179.37L72.6501 170.55L57.3701 179.37Z" fill="black"/>
</g>
<g opacity="0.09">
<path d="M58.6602 173.32L72.5602 181.4L86.5402 173.32L72.6402 165.25L58.6602 173.32Z" fill="#6F03E0"/>
</g>
<g opacity="0.18">
<path d="M59.9402 167.85L72.5602 175.18L85.2502 167.85L72.6402 160.52L59.9402 167.85Z" fill="#6F03E0"/>
</g>
<g opacity="0.27">
<path d="M61.2302 162.38L72.5602 168.97L83.9702 162.38L72.6302 155.8L61.2302 162.38Z" fill="#6F03E0"/>
</g>
<g opacity="0.36">
<path d="M62.52 156.91L72.57 162.75L82.68 156.91L72.63 151.07L62.52 156.91Z" fill="#6F03E0"/>
</g>
<g opacity="0.45">
<path d="M63.8 151.44L72.57 156.54L81.3901 151.44L72.62 146.35L63.8 151.44Z" fill="#6F03E0"/>
</g>
<g opacity="0.55">
<path d="M65.0901 145.97L72.5701 150.32L80.1101 145.97L72.6201 141.62L65.0901 145.97Z" fill="#6F03E0"/>
</g>
<g opacity="0.64">
<path d="M66.3701 140.5L72.5801 144.11L78.8201 140.5L72.6201 136.9L66.3701 140.5Z" fill="#6F03E0"/>
</g>
<g opacity="0.73">
<path d="M67.6602 135.03L72.5802 137.89L77.5302 135.03L72.6102 132.17L67.6602 135.03Z" fill="#6F03E0"/>
</g>
<g opacity="0.82">
<path d="M68.9502 129.56L72.5802 131.68L76.2502 129.56L72.6102 127.45L68.9502 129.56Z" fill="#6F03E0"/>
</g>
<g opacity="0.91">
<path d="M70.2302 124.09L72.5902 125.46L74.9602 124.09L72.6002 122.72L70.2302 124.09Z" fill="#6F03E0"/>
</g>
<path d="M71.52 118.62L72.59 119.25L73.67 118.62L72.6 118L71.52 118.62Z" fill="#6F03E0"/>
<g opacity="0.1">
<path d="M10 209.69L21.55 216.4L33.19 209.69L21.63 202.97L10 209.69Z" fill="black"/>
</g>
<g opacity="0.09">
<path d="M12 206.57L21.56 212.13L31.19 206.57L21.63 201.02L12 206.57Z" fill="#62EEFF"/>
</g>
<g opacity="0.18">
<path d="M12.8901 202.81L21.5601 207.86L30.3001 202.81L21.6301 197.77L12.8901 202.81Z" fill="#62EEFF"/>
</g>
<g opacity="0.27">
<path d="M13.77 199.05L21.57 203.58L29.42 199.05L21.62 194.53L13.77 199.05Z" fill="#62EEFF"/>
</g>
<g opacity="0.36">
<path d="M14.6602 195.29L21.5702 199.31L28.5302 195.29L21.6202 191.28L14.6602 195.29Z" fill="#62EEFF"/>
</g>
<g opacity="0.45">
<path d="M15.54 191.53L21.57 195.03L27.64 191.53L21.62 188.03L15.54 191.53Z" fill="#62EEFF"/>
</g>
<g opacity="0.55">
<path d="M16.4302 187.77L21.5702 190.76L26.7602 187.77L21.6202 184.78L16.4302 187.77Z" fill="#62EEFF"/>
</g>
<g opacity="0.64">
<path d="M17.3101 184.01L21.5801 186.49L25.8701 184.01L21.6101 181.53L17.3101 184.01Z" fill="#62EEFF"/>
</g>
<g opacity="0.73">
<path d="M18.2002 180.25L21.5802 182.21L24.9902 180.25L21.6102 178.28L18.2002 180.25Z" fill="#62EEFF"/>
</g>
<g opacity="0.82">
<path d="M19.0801 176.49L21.5801 177.94L24.1001 176.49L21.6101 175.03L19.0801 176.49Z" fill="#62EEFF"/>
</g>
<g opacity="0.91">
<path d="M19.9702 172.73L21.5802 173.66L23.2202 172.73L21.6102 171.78L19.9702 172.73Z" fill="#62EEFF"/>
</g>
<path d="M20.8501 168.97L21.5901 169.39L22.3301 168.97L21.6001 168.54L20.8501 168.97Z" fill="#62EEFF"/>
<g clip-path="url(#clip1_1777_7216)">
<path d="M151.583 100.971V125.029L130.815 137L110 125.029V100.971L130.769 89L151.583 100.971Z" fill="#988DE2"/>
<path d="M143.835 105.709L137.981 109.047C135.475 104.605 129.484 103.535 125.606 106.912C121.413 110.563 122.071 117.252 126.851 120.052C130.506 122.194 134.993 121.107 137.508 117.811C137.628 117.654 137.91 117.083 138.047 117.08L143.806 120.356C143.865 120.429 143.829 120.483 143.801 120.555C143.644 120.957 142.926 121.887 142.629 122.262C136.346 130.224 124.028 129.674 118.483 121.196C113.25 113.194 116.833 102.381 125.74 99.0859C132.596 96.5501 140.313 99.3735 143.835 105.708V105.709Z" fill="#EBE9F8"/>
<path d="M144.036 108.385L143.635 110.525C143.811 110.488 144.392 110.581 144.495 110.516C144.587 110.458 144.81 108.65 144.906 108.385H146.444L146.043 110.525H147.314V111.897C147.314 111.904 147.221 111.997 147.214 111.997H145.809C145.62 112.24 145.713 112.644 145.575 112.934H146.913V114.338H145.307C145.202 115.051 145.119 115.819 144.872 116.479H143.434L143.769 114.338L142.937 114.336L142.564 116.479H141.026L141.427 114.338H140.156V112.934H141.694L141.828 111.997H140.557V110.525H142.163L142.497 108.385H144.036H144.036Z" fill="#EBE9F8"/>
<path d="M144.236 111.997L144.103 112.934H143.233C143.194 112.894 143.338 112.034 143.373 112.004C143.432 111.954 144.086 112.026 144.236 111.998V111.997Z" fill="#988DE2"/>
</g>
<path d="M254.5 0L274.48 30H267.023L260.752 20.65L254.482 30H247.025L257.005 15L247.025 0H254.5Z" fill="#988DE2"/>
<path d="M244.51 0L254.488 15L244.492 30H237L246.99 15L237 0H244.51Z" fill="#988DE2"/>
<path d="M279.51 8.74854V13.7425L266.178 13.7368L262.86 8.76662L279.51 8.74854Z" fill="#988DE2"/>
<path d="M279.511 16.2576V21.2515L271.174 21.2459L267.856 16.2579L279.511 16.2576Z" fill="#988DE2"/>
<path d="M76.6372 56.1981L77.2597 56.2624L78.7777 54.5563C79.2535 54.2481 79.6052 54.4619 79.8063 54.945C80.0668 55.5701 80.2311 56.2838 80.4899 56.9152L81.0331 57.0954L82.8383 55.7566C83.2127 55.5533 83.6754 55.7022 83.7882 56.1361L84.1099 58.3728C84.1235 58.4174 84.6174 58.6914 84.7108 58.6595C85.2823 58.4156 85.8488 58.0646 86.4169 57.8259C86.7658 57.6793 87.0943 57.5548 87.3673 57.9273C87.5837 58.2227 87.4829 58.3449 87.4772 58.645C87.4647 59.2782 87.4324 59.9079 87.4041 60.5399C87.5287 60.6813 87.7734 60.9518 87.9677 60.9286C88.5896 60.8562 89.3588 60.4768 89.9807 60.4107C90.4712 60.3586 90.7924 60.6732 90.7318 61.1789L90.2152 63.3049C90.2175 63.3872 90.5352 63.8008 90.6055 63.8147C90.964 63.7886 91.322 63.7938 91.6811 63.7782C91.9915 63.7643 92.5381 63.6693 92.8235 63.7041C93.1311 63.7411 93.4234 64.0372 93.4041 64.3639C93.1815 65.132 92.7544 65.833 92.4446 66.5699C92.418 66.7297 92.6276 66.987 92.6785 67.148L94.8836 67.5054C95.3277 67.6097 95.4845 68.0853 95.2835 68.4856L93.9739 70.3318L94.1665 70.899L96.1286 71.6086C96.546 71.7679 96.7205 72.1902 96.4905 72.5981L94.7794 74.2137L94.8519 74.8266L96.8083 76.0252C97.0688 76.2952 97.0654 76.7354 96.7884 76.9921L94.8519 78.1733L94.7794 78.7861L96.4905 80.4018C96.6599 80.7094 96.6242 81.0512 96.3438 81.2708C95.6477 81.6114 94.8898 81.8234 94.1659 82.1009L93.9734 82.668L95.2829 84.5143C95.4845 84.914 95.3271 85.3902 94.883 85.4945L92.678 85.8519C92.627 86.0123 92.418 86.2701 92.444 86.43L93.365 88.4448C93.5174 88.833 93.2087 89.2489 92.823 89.2958C92.5375 89.3306 91.9909 89.235 91.6805 89.2217C91.3214 89.206 90.9635 89.2107 90.6049 89.1852C90.5347 89.1991 90.2169 89.6127 90.2147 89.695L90.7312 91.821C90.8105 92.2954 90.4435 92.6702 89.9802 92.5891L87.9014 92.0608C87.821 92.0631 87.4166 92.3881 87.403 92.46C87.4285 92.8267 87.4234 93.1928 87.4387 93.5601C87.4523 93.8775 87.5452 94.4365 87.5112 94.7285C87.4749 95.0431 87.1855 95.342 86.866 95.3223C86.115 95.0946 85.4296 94.6578 84.7091 94.341C84.5528 94.3137 84.3013 94.5281 84.1439 94.5802L83.7944 96.8354C83.6924 97.2896 83.2274 97.4501 82.836 97.2444L81.0309 95.9051L80.4763 96.102L79.7825 98.1087C79.6267 98.5357 79.2138 98.7141 78.8151 98.4789L77.2116 96.7294L76.6361 96.803L75.4642 98.8039C75.2002 99.0704 74.7698 99.0669 74.5188 98.7836L73.3639 96.803L72.7884 96.7294L71.1849 98.4789C70.8842 98.6521 70.55 98.6156 70.3353 98.3289C70.0023 97.6169 69.795 96.8418 69.5237 96.1014L68.968 95.9039C68.9165 95.8993 68.7856 96.0082 68.7312 96.0453C68.2464 96.3749 67.6415 96.9843 67.1634 97.2438C66.7737 97.4553 66.3059 97.285 66.2051 96.8348L65.8556 94.5796C65.6987 94.5275 65.4466 94.3137 65.2903 94.3404L63.3203 95.2823C62.9408 95.4381 62.5341 95.1224 62.4883 94.7279C62.4543 94.436 62.5477 93.8769 62.5608 93.5595C62.5761 93.1922 62.5715 92.8261 62.5964 92.4594C62.5829 92.3876 62.1784 92.0626 62.098 92.0602L60.0193 92.5886C59.5554 92.6697 59.1889 92.2943 59.2682 91.8204L59.7848 89.6944C59.7825 89.6121 59.4648 89.1985 59.3945 89.1846C59.036 89.2107 58.678 89.2055 58.3189 89.2211C58.0085 89.235 57.4619 89.33 57.1765 89.2952C56.8689 89.2582 56.5766 88.9621 56.5959 88.6354C56.8185 87.8673 57.2456 87.1663 57.5554 86.4294C57.582 86.2696 57.3724 86.0123 57.3215 85.8513L55.1164 85.4939C54.6724 85.3896 54.5155 84.914 54.7165 84.5137L56.0261 82.6675L55.8335 82.1003L53.8714 81.3907C53.454 81.2314 53.2795 80.8091 53.5095 80.4012L55.2201 78.7612L55.1481 78.1727L53.1918 76.9741C52.9312 76.7041 52.9346 76.2639 53.2116 76.0072L55.1481 74.826L55.2201 74.2375L53.5095 72.5975C53.3402 72.2899 53.3758 71.9481 53.6562 71.7285C54.3523 71.3879 55.1102 71.1759 55.8341 70.8984L56.0266 70.3313L54.7171 68.485C54.5155 68.0853 54.6729 67.6091 55.117 67.5048L57.3067 67.1602C57.3668 67.002 57.5831 66.7326 57.556 66.5693L56.635 64.5545C56.4826 64.1663 56.7913 63.7504 57.177 63.7035C57.4625 63.6687 58.0091 63.7643 58.3195 63.7776C58.6786 63.7933 59.0366 63.7886 59.3951 63.8141C59.4653 63.8002 59.7831 63.3866 59.7853 63.3043L59.2688 61.1783C59.2082 60.672 59.5299 60.358 60.0198 60.4102C60.6418 60.4762 61.4115 60.8556 62.0329 60.928C62.2271 60.9506 62.4718 60.6801 62.5964 60.5393C62.5681 59.9073 62.5358 59.2776 62.5234 58.6444C62.5177 58.3444 62.4169 58.2221 62.6333 57.9267C62.9063 57.5536 63.2348 57.6788 63.5837 57.8253C64.1512 58.0634 64.7205 58.4116 65.2897 58.6589C65.4019 58.678 65.8573 58.4533 65.8896 58.3415C66.0385 57.6614 66.03 56.8237 66.2045 56.1645C66.3274 55.6993 66.7505 55.5545 67.1629 55.7555L68.9267 57.0913L69.4948 56.9257L70.2288 54.8651C70.3897 54.441 70.8287 54.2846 71.2048 54.5372L72.7879 56.2699L73.3634 56.1963L74.5353 54.1954C74.7624 53.9556 75.1509 53.9347 75.4036 54.1427L76.6338 56.1969L76.6372 56.1981ZM74.883 58.0704C73.2529 58.2308 73.4483 60.7884 75.1317 60.6338C76.759 60.4843 76.533 57.9076 74.883 58.0704ZM91.1062 77.7863C91.1509 76.6572 91.1747 75.5183 90.9912 74.4014C90.9323 74.3307 90.849 74.2925 90.7737 74.245C90.0147 73.7694 88.9062 73.4218 88.2067 72.8952C87.7264 72.5338 87.5752 71.9145 87.7938 71.3497L89.1283 68.7005V68.5082C87.0637 64.6964 83.4976 61.7756 79.3792 60.6071C79.0297 60.5081 78.4299 60.3221 78.0884 60.2966C78.0328 60.2926 77.9796 60.281 77.9281 60.3128L75.7615 62.5269C75.2812 62.8681 74.7239 62.8681 74.2436 62.5269L72.0986 60.3291L71.9858 60.2897C69.3662 60.7838 66.8621 61.9864 64.8043 63.7017C64.6831 63.8031 63.0241 65.2954 63.1192 65.3666L80.7239 65.3655C84.8592 65.7264 88.0646 70.5589 85.1085 74.245C84.5891 74.8927 83.9179 75.4042 83.2217 75.8364C84.0884 76.5773 84.8213 77.6374 85.2115 78.7236C85.5803 79.7507 85.5106 80.6573 86.7471 81.0535C88.2192 81.5251 89.1702 80.4974 89.258 79.0567C89.2778 78.7352 89.2036 78.2451 89.2574 77.9578C89.2665 77.9085 89.3616 77.7863 89.386 77.7863H91.1073H91.1062ZM58.8893 69.9205C57.2897 70.1337 57.5503 72.6653 59.2093 72.481C60.8338 72.3003 60.563 69.6975 58.8893 69.9205ZM90.802 69.9217C89.2036 70.1001 89.4064 72.6067 91.0507 72.4851C92.6984 72.3629 92.4939 69.7328 90.802 69.9217ZM64.5256 70.5166H61.7859C62.2968 71.3375 62.6763 72.3316 61.6862 72.97C60.9703 73.4323 60.094 73.7514 59.3549 74.1824C59.2331 74.2537 59.0122 74.347 58.9805 74.4808C58.8717 74.9373 58.9488 75.5189 58.8598 75.9858C58.8672 77.6247 58.9816 79.4066 59.4642 80.9747C59.4925 81.0663 59.5078 81.1636 59.5831 81.2314H64.5256V70.5161V70.5166ZM71.6335 70.5166V73.4508L71.761 73.5093C73.5004 73.4253 75.3294 73.6142 77.0586 73.5093C78.0436 73.4491 79.5978 72.8686 79.1028 71.5669C78.8904 71.009 77.9864 70.5166 77.4274 70.5166H71.6335ZM87.9224 86.3437H81.092C81.0581 86.3437 80.7278 86.2348 80.6667 86.2105C77.8386 85.1092 79.6992 78.4623 75.7604 78.2034C74.4577 78.1176 73.0722 78.2683 71.7604 78.2011L71.633 78.2596V81.1752L71.6885 81.232H75.3163C75.3226 81.232 75.3815 81.2905 75.39 81.3084V86.2672C75.382 86.2852 75.3231 86.3437 75.3163 86.3437H62.0816L62.49 86.9294L63.2557 87.8209L66.2084 87.3644C66.8762 87.2799 67.4478 87.6975 67.6115 88.3556L68.1031 91.4207C71.3356 92.9941 75.0467 93.399 78.5494 92.6031C79.706 92.34 80.8315 91.9357 81.9014 91.4207L82.3931 88.3556C82.5568 87.6975 83.1283 87.2799 83.7961 87.3644L86.7488 87.8209L87.5146 86.9294L87.923 86.3437H87.9224ZM65.0745 89.0786C63.6081 89.1504 63.4953 91.4004 64.8938 91.6269C66.8151 91.938 66.8893 88.99 65.0745 89.0786ZM84.8066 89.0786C83.1209 89.1614 83.245 91.8187 85.0161 91.6437C86.5715 91.4902 86.3965 89.0004 84.8066 89.0786Z" fill="#988DE2"/>
<path d="M130.072 22.1011C133.242 18.9321 138.086 23.7239 134.967 26.933C131.808 30.1821 126.886 25.285 130.072 22.1011Z" fill="#988DE2"/>
<path d="M123.581 21.2208C129.263 20.267 128.984 28.7074 123.853 27.9176C120.102 27.3406 120.2 21.7886 123.581 21.2208Z" fill="#988DE2"/>
<path d="M124.077 35.1595C128.019 34.6786 129.424 40.6183 125.438 41.823C120.716 43.2509 119.17 35.7581 124.077 35.1595Z" fill="#988DE2"/>
<path d="M119.51 28.2514C124.622 27.3932 125.14 34.4328 120.806 34.9717C116.294 35.5321 115.722 28.8877 119.51 28.2514Z" fill="#988DE2"/>
<path d="M136.164 28.13C139.07 27.7792 141.11 31.119 139.328 33.5124C137.858 35.4884 134.839 35.3768 133.6 33.2183C132.379 31.0888 133.76 28.4198 136.164 28.13Z" fill="#988DE2"/>
<path d="M132.094 35.1586C136.593 34.5711 137.306 41.3487 133.162 41.8974C128.299 42.5417 127.795 35.7197 132.094 35.1586Z" fill="#988DE2"/>
<path d="M116.182 36.5095C118.365 36.1895 119.356 39.2728 117.454 40.2513C114.546 41.7476 113.206 36.946 116.182 36.5095Z" fill="#988DE2"/>
<path d="M128.274 15.6703C130.31 15.4693 131.288 18.3023 129.497 19.3683C126.617 21.0835 125.031 15.9903 128.274 15.6703Z" fill="#988DE2"/>
<path d="M128.152 43.4144C129.585 43.2763 130.711 44.7332 130.208 46.0976C129.606 47.7326 127.471 47.8905 126.592 46.3904C125.867 45.1524 126.796 43.5451 128.152 43.4144Z" fill="#988DE2"/>
<path d="M140.235 22.572C142.462 22.2649 143.395 25.5862 141.249 26.4309C138.417 27.5456 137.347 22.9703 140.235 22.572Z" fill="#988DE2"/>
<path d="M115.021 26.0822C113.036 24.0975 116.402 21.1289 118.064 23.4718C119.519 25.523 116.662 27.7228 115.021 26.0822Z" fill="#988DE2"/>
<path d="M139.072 39.8938C137.425 38.247 139.614 35.3887 141.683 36.8517C143.98 38.4763 141.064 41.8846 139.072 39.8938Z" fill="#988DE2"/>
<path d="M136.898 14.314C139.993 13.605 139.658 18.4535 136.844 17.5219C135.261 16.9978 135.513 14.6316 136.898 14.314Z" fill="#988DE2"/>
<path d="M137.024 45.5135C139.584 44.9827 139.883 48.4612 137.829 48.7855C135.593 49.1381 135.104 45.9112 137.024 45.5135Z" fill="#988DE2"/>
<path d="M146.154 29.8523C148.683 29.4509 148.917 33.3863 146.248 33.1532C144.375 32.9898 144.314 30.1439 146.154 29.8523Z" fill="#988DE2"/>
<path d="M118.228 17.2054C116.633 15.5962 119.195 13.0702 120.719 14.9001C122.194 16.6721 119.603 18.5914 118.228 17.2054Z" fill="#988DE2"/>
<path d="M119.139 45.5138C121.455 45.0939 121.816 48.3302 120.045 48.7605C117.517 49.3752 117.059 45.8911 119.139 45.5138Z" fill="#988DE2"/>
<path d="M110.012 29.9762C112.775 29.4015 112.837 33.5644 110.244 33.2691C108.373 33.0558 108.353 30.3214 110.012 29.9762Z" fill="#988DE2"/>
<path d="M127.355 54.6901C125.979 53.2474 128.44 51.2868 129.535 52.9435C130.502 54.4065 128.479 55.8683 127.355 54.6901Z" fill="#988DE2"/>
<path d="M147.513 41.1934C149.351 40.9425 149.6 43.8316 147.838 44.0036C146.063 44.1769 145.69 41.4425 147.513 41.1934Z" fill="#988DE2"/>
<path d="M110.25 19.5084C111.674 20.932 109.175 23.0529 108.091 21.2366C107.239 19.8099 109.121 18.3796 110.25 19.5084Z" fill="#988DE2"/>
<path d="M128.147 8.02491C130.122 7.70431 130.392 10.5805 128.554 10.7802C126.831 10.967 126.47 8.29742 128.147 8.02491Z" fill="#988DE2"/>
<path d="M147.136 19.1223C149.381 18.6094 149.676 21.7007 147.722 21.8129C146.051 21.9091 145.814 19.4238 147.136 19.1223Z" fill="#988DE2"/>
<path d="M109.029 41.3174C110.944 41.0067 111.143 43.6375 109.831 43.9729C107.626 44.537 107.324 41.5943 109.029 41.3174Z" fill="#988DE2"/>
<path d="M115.931 9.37851C117.561 9.01906 117.794 11.4877 116.264 11.5728C115.018 11.6418 114.679 9.65472 115.931 9.37851Z" fill="#988DE2"/>
<path d="M153.668 30.7262C154.808 31.9722 152.706 33.3933 151.931 32.0333C151.246 30.8322 152.913 29.9 153.668 30.7262Z" fill="#988DE2"/>
<path d="M141.458 9.64137C142.494 10.774 140.568 12.2703 139.715 10.954C138.947 9.77084 140.651 8.75786 141.458 9.64137Z" fill="#988DE2"/>
<path d="M140.602 51.5516C142.025 51.4128 142.298 53.7637 140.694 53.7495C139.414 53.7378 139.261 51.6829 140.602 51.5516Z" fill="#988DE2"/>
<path d="M115.511 51.9365C116.266 51.1116 117.932 52.0383 117.249 53.2436C116.459 54.6364 114.428 53.1203 115.511 51.9365Z" fill="#988DE2"/>
<path d="M103.72 30.5904C105.679 30.1496 105.539 33.2138 103.625 32.6047C102.759 32.3291 102.795 30.7988 103.72 30.5904Z" fill="#988DE2"/>
</g>
<defs>
<clipPath id="clip0_1777_7216">
<rect width="280" height="271" fill="white"/>
</clipPath>
<clipPath id="clip1_1777_7216">
<rect width="41.5833" height="48" fill="white" transform="translate(110 89)"/>
</clipPath>
</defs>
</svg>
