<svg xmlns="http://www.w3.org/2000/svg" xmlns:xlink="http://www.w3.org/1999/xlink" width="500" zoomAndPan="magnify" viewBox="0 0 375 374.999991" height="500" preserveAspectRatio="xMidYMid meet" version="1.0"><defs><clipPath id="4d0cbe3303"><path d="M 1 81 L 374.542969 81 L 374.542969 293 L 1 293 Z M 1 81 " clip-rule="nonzero"/></clipPath></defs><g clip-path="url(#4d0cbe3303)"><path fill="#3ddc84" d="M 273.953125 238.9375 C 272.929688 238.9375 271.914062 238.835938 270.910156 238.636719 C 269.90625 238.4375 268.929688 238.140625 267.984375 237.75 C 267.035156 237.355469 266.136719 236.875 265.285156 236.308594 C 264.433594 235.738281 263.648438 235.09375 262.921875 234.367188 C 262.199219 233.644531 261.550781 232.855469 260.980469 232.003906 C 260.414062 231.152344 259.933594 230.253906 259.539062 229.308594 C 259.148438 228.363281 258.851562 227.386719 258.652344 226.382812 C 258.453125 225.378906 258.351562 224.363281 258.351562 223.339844 C 258.351562 222.316406 258.453125 221.304688 258.652344 220.300781 C 258.851562 219.292969 259.148438 218.320312 259.539062 217.375 C 259.933594 216.425781 260.414062 215.527344 260.984375 214.675781 C 261.550781 213.824219 262.199219 213.039062 262.921875 212.3125 C 263.648438 211.589844 264.433594 210.945312 265.285156 210.375 C 266.136719 209.804688 267.039062 209.324219 267.984375 208.933594 C 268.929688 208.542969 269.90625 208.246094 270.910156 208.046875 C 271.914062 207.847656 272.929688 207.746094 273.953125 207.746094 C 274.976562 207.746094 275.992188 207.847656 276.996094 208.046875 C 278 208.246094 278.976562 208.542969 279.921875 208.933594 C 280.871094 209.324219 281.769531 209.804688 282.621094 210.375 C 283.472656 210.945312 284.261719 211.589844 284.984375 212.3125 C 285.707031 213.039062 286.355469 213.824219 286.925781 214.675781 C 287.492188 215.527344 287.972656 216.425781 288.367188 217.375 C 288.757812 218.320312 289.054688 219.292969 289.253906 220.300781 C 289.453125 221.304688 289.554688 222.316406 289.554688 223.339844 C 289.554688 224.363281 289.453125 225.378906 289.253906 226.382812 C 289.054688 227.386719 288.757812 228.363281 288.367188 229.308594 C 287.972656 230.253906 287.492188 231.152344 286.925781 232.003906 C 286.355469 232.855469 285.707031 233.644531 284.984375 234.367188 C 284.261719 235.09375 283.472656 235.738281 282.621094 236.308594 C 281.769531 236.875 280.871094 237.355469 279.921875 237.75 C 278.976562 238.140625 278 238.4375 276.996094 238.636719 C 275.992188 238.835938 274.976562 238.9375 273.953125 238.9375 M 102.1875 238.9375 C 101.164062 238.9375 100.152344 238.835938 99.144531 238.636719 C 98.140625 238.4375 97.164062 238.140625 96.21875 237.75 C 95.273438 237.355469 94.375 236.875 93.523438 236.308594 C 92.671875 235.738281 91.882812 235.09375 91.160156 234.367188 C 90.433594 233.644531 89.789062 232.855469 89.21875 232.003906 C 88.648438 231.152344 88.167969 230.253906 87.777344 229.308594 C 87.382812 228.363281 87.089844 227.386719 86.890625 226.382812 C 86.6875 225.378906 86.589844 224.363281 86.589844 223.339844 C 86.589844 222.316406 86.6875 221.304688 86.890625 220.300781 C 87.089844 219.292969 87.382812 218.320312 87.777344 217.375 C 88.167969 216.425781 88.648438 215.527344 89.21875 214.675781 C 89.789062 213.824219 90.433594 213.039062 91.160156 212.3125 C 91.882812 211.589844 92.671875 210.945312 93.523438 210.375 C 94.375 209.804688 95.273438 209.324219 96.21875 208.933594 C 97.164062 208.542969 98.140625 208.246094 99.144531 208.046875 C 100.152344 207.847656 101.164062 207.746094 102.1875 207.746094 C 103.214844 207.746094 104.226562 207.847656 105.234375 208.046875 C 106.238281 208.246094 107.210938 208.542969 108.160156 208.933594 C 109.105469 209.324219 110.003906 209.804688 110.855469 210.375 C 111.707031 210.945312 112.496094 211.589844 113.21875 212.3125 C 113.945312 213.039062 114.589844 213.824219 115.160156 214.675781 C 115.730469 215.527344 116.210938 216.425781 116.601562 217.375 C 116.992188 218.320312 117.289062 219.292969 117.488281 220.300781 C 117.691406 221.304688 117.789062 222.316406 117.789062 223.339844 C 117.789062 224.363281 117.691406 225.378906 117.488281 226.382812 C 117.289062 227.386719 116.992188 228.363281 116.601562 229.308594 C 116.210938 230.253906 115.730469 231.152344 115.160156 232.003906 C 114.589844 232.855469 113.945312 233.644531 113.21875 234.367188 C 112.496094 235.09375 111.707031 235.738281 110.855469 236.308594 C 110.003906 236.875 109.105469 237.355469 108.160156 237.75 C 107.210938 238.140625 106.238281 238.4375 105.234375 238.636719 C 104.226562 238.835938 103.214844 238.9375 102.1875 238.9375 M 279.476562 145.367188 L 310.679688 91.601562 C 310.890625 91.230469 311.0625 90.847656 311.195312 90.445312 C 311.332031 90.042969 311.425781 89.632812 311.476562 89.210938 C 311.53125 88.789062 311.542969 88.367188 311.511719 87.945312 C 311.480469 87.523438 311.410156 87.105469 311.296875 86.699219 C 311.183594 86.289062 311.03125 85.894531 310.84375 85.515625 C 310.652344 85.136719 310.425781 84.78125 310.164062 84.445312 C 309.90625 84.113281 309.613281 83.804688 309.292969 83.527344 C 308.972656 83.253906 308.625 83.007812 308.257812 82.800781 C 307.886719 82.59375 307.5 82.421875 307.097656 82.289062 C 306.695312 82.15625 306.285156 82.066406 305.863281 82.015625 C 305.441406 81.964844 305.019531 81.953125 304.597656 81.984375 C 304.171875 82.019531 303.757812 82.09375 303.347656 82.207031 C 302.941406 82.320312 302.546875 82.472656 302.167969 82.667969 C 301.792969 82.859375 301.433594 83.085938 301.101562 83.347656 C 300.769531 83.609375 300.464844 83.902344 300.1875 84.226562 C 299.914062 84.546875 299.671875 84.894531 299.464844 85.265625 L 267.941406 139.683594 C 255.421875 133.964844 242.433594 129.652344 228.980469 126.75 C 215.527344 123.847656 201.917969 122.417969 188.152344 122.464844 C 174.371094 122.429688 160.742188 123.851562 147.265625 126.726562 C 133.789062 129.601562 120.769531 133.867188 108.203125 139.519531 L 76.675781 85.101562 C 76.46875 84.738281 76.226562 84.394531 75.949219 84.078125 C 75.671875 83.757812 75.367188 83.46875 75.035156 83.210938 C 74.703125 82.953125 74.347656 82.730469 73.96875 82.542969 C 73.59375 82.351562 73.199219 82.203125 72.792969 82.089844 C 72.386719 81.980469 71.976562 81.90625 71.554688 81.878906 C 71.132812 81.847656 70.714844 81.855469 70.296875 81.910156 C 69.878906 81.960938 69.46875 82.050781 69.066406 82.183594 C 68.667969 82.316406 68.285156 82.488281 67.917969 82.695312 C 67.550781 82.902344 67.207031 83.140625 66.886719 83.417969 C 66.566406 83.691406 66.277344 83.996094 66.019531 84.328125 C 65.757812 84.65625 65.53125 85.011719 65.34375 85.386719 C 65.152344 85.761719 65 86.152344 64.886719 86.558594 C 64.773438 86.964844 64.699219 87.378906 64.664062 87.796875 C 64.632812 88.21875 64.640625 88.636719 64.691406 89.054688 C 64.742188 89.472656 64.832031 89.882812 64.960938 90.285156 C 65.089844 90.6875 65.257812 91.070312 65.464844 91.4375 L 96.5 145.207031 C 93.164062 147.027344 89.882812 148.949219 86.664062 150.972656 C 83.445312 152.996094 80.292969 155.117188 77.207031 157.335938 C 74.117188 159.554688 71.101562 161.867188 68.160156 164.273438 C 65.214844 166.679688 62.347656 169.175781 59.558594 171.757812 C 56.773438 174.34375 54.066406 177.011719 51.441406 179.761719 C 48.820312 182.515625 46.285156 185.34375 43.835938 188.253906 C 41.390625 191.164062 39.035156 194.144531 36.773438 197.203125 C 34.507812 200.257812 32.34375 203.378906 30.277344 206.570312 C 28.207031 209.757812 26.238281 213.007812 24.375 216.320312 C 22.507812 219.632812 20.746094 223 19.085938 226.421875 C 17.429688 229.839844 15.878906 233.3125 14.4375 236.828125 C 12.996094 240.34375 11.664062 243.902344 10.441406 247.503906 C 9.222656 251.105469 8.113281 254.738281 7.117188 258.40625 C 6.121094 262.074219 5.242188 265.769531 4.476562 269.496094 C 3.707031 273.21875 3.058594 276.960938 2.523438 280.726562 C 1.992188 284.488281 1.574219 288.265625 1.277344 292.054688 L 374.542969 292.054688 C 374.25 288.269531 373.84375 284.492188 373.320312 280.734375 C 372.792969 276.972656 372.152344 273.230469 371.394531 269.507812 C 370.632812 265.789062 369.761719 262.09375 368.773438 258.425781 C 367.78125 254.761719 366.679688 251.128906 365.464844 247.53125 C 364.25 243.929688 362.925781 240.375 361.488281 236.859375 C 360.050781 233.34375 358.503906 229.875 356.851562 226.457031 C 355.199219 223.039062 353.441406 219.671875 351.578125 216.363281 C 349.714844 213.054688 347.75 209.804688 345.683594 206.617188 C 343.617188 203.429688 341.457031 200.3125 339.195312 197.257812 C 336.933594 194.207031 334.582031 191.226562 332.136719 188.320312 C 329.691406 185.414062 327.15625 182.589844 324.535156 179.839844 C 321.910156 177.09375 319.207031 174.429688 316.417969 171.847656 C 313.628906 169.269531 310.765625 166.777344 307.820312 164.378906 C 304.878906 161.976562 301.863281 159.667969 298.773438 157.457031 C 295.6875 155.242188 292.535156 153.128906 289.316406 151.113281 C 286.097656 149.09375 282.816406 147.179688 279.476562 145.367188 " fill-opacity="1" fill-rule="nonzero"/></g></svg>