<svg xmlns="http://www.w3.org/2000/svg" xmlns:xlink="http://www.w3.org/1999/xlink" width="500" zoomAndPan="magnify" viewBox="0 0 375 374.999991" height="500" preserveAspectRatio="xMidYMid meet" version="1.0"><defs><clipPath id="7040e0c171"><path d="M 175 323 L 197 323 L 197 344.25 L 175 344.25 Z M 175 323 " clip-rule="nonzero"/></clipPath></defs><path fill="#0033ad" d="M 102.648438 170.828125 C 102.601562 171.652344 102.59375 172.472656 102.625 173.292969 C 102.660156 174.117188 102.734375 174.933594 102.847656 175.75 C 102.960938 176.566406 103.113281 177.371094 103.308594 178.171875 C 103.5 178.972656 103.734375 179.761719 104.003906 180.535156 C 104.273438 181.3125 104.582031 182.074219 104.925781 182.824219 C 105.273438 183.570312 105.652344 184.296875 106.070312 185.007812 C 106.488281 185.714844 106.9375 186.402344 107.421875 187.066406 C 107.90625 187.734375 108.421875 188.371094 108.96875 188.988281 C 109.515625 189.601562 110.089844 190.1875 110.695312 190.746094 C 111.300781 191.304688 111.929688 191.832031 112.585938 192.328125 C 113.242188 192.824219 113.921875 193.285156 114.621094 193.714844 C 115.324219 194.144531 116.042969 194.539062 116.785156 194.894531 C 117.523438 195.253906 118.28125 195.574219 119.054688 195.859375 C 119.824219 196.144531 120.609375 196.390625 121.40625 196.597656 C 122.199219 196.804688 123.003906 196.972656 123.816406 197.101562 C 124.628906 197.226562 125.445312 197.316406 126.265625 197.363281 L 127.636719 197.363281 C 128.449219 197.363281 129.257812 197.324219 130.0625 197.242188 C 130.871094 197.164062 131.671875 197.046875 132.46875 196.890625 C 133.261719 196.730469 134.050781 196.535156 134.824219 196.304688 C 135.601562 196.070312 136.367188 195.796875 137.117188 195.492188 C 137.867188 195.183594 138.601562 194.839844 139.316406 194.460938 C 140.035156 194.082031 140.730469 193.671875 141.410156 193.222656 C 142.085938 192.777344 142.738281 192.296875 143.371094 191.789062 C 144 191.277344 144.605469 190.738281 145.183594 190.171875 C 145.761719 189.601562 146.3125 189.007812 146.832031 188.386719 C 147.351562 187.761719 147.84375 187.117188 148.300781 186.449219 C 148.757812 185.777344 149.183594 185.089844 149.574219 184.378906 C 149.964844 183.667969 150.320312 182.9375 150.640625 182.195312 C 150.960938 181.449219 151.246094 180.6875 151.492188 179.917969 C 151.738281 179.144531 151.949219 178.359375 152.117188 177.566406 C 152.289062 176.773438 152.421875 175.976562 152.515625 175.167969 C 152.609375 174.363281 152.660156 173.554688 152.675781 172.746094 C 152.691406 171.933594 152.667969 171.125 152.605469 170.3125 C 152.539062 169.503906 152.4375 168.703125 152.296875 167.902344 C 152.15625 167.105469 151.976562 166.3125 151.757812 165.53125 C 151.539062 164.75 151.28125 163.984375 150.988281 163.226562 C 150.695312 162.46875 150.367188 161.730469 150.003906 161.003906 C 149.640625 160.28125 149.238281 159.574219 148.808594 158.890625 C 148.375 158.203125 147.910156 157.539062 147.410156 156.898438 C 146.914062 156.257812 146.386719 155.644531 145.828125 155.054688 C 145.273438 154.464844 144.6875 153.902344 144.078125 153.371094 C 143.464844 152.835938 142.828125 152.335938 142.167969 151.863281 C 141.507812 151.394531 140.828125 150.953125 140.125 150.550781 C 139.421875 150.144531 138.703125 149.773438 137.964844 149.441406 C 137.226562 149.105469 136.472656 148.804688 135.703125 148.542969 C 134.9375 148.28125 134.160156 148.058594 133.371094 147.871094 C 132.582031 147.683594 131.785156 147.539062 130.980469 147.429688 C 130.175781 147.320312 129.371094 147.25 128.558594 147.21875 C 127.75 147.1875 126.9375 147.195312 126.128906 147.246094 C 125.320312 147.292969 124.515625 147.378906 123.714844 147.503906 C 122.914062 147.632812 122.121094 147.796875 121.335938 148 C 120.550781 148.203125 119.777344 148.441406 119.015625 148.722656 C 118.253906 149 117.503906 149.3125 116.773438 149.664062 C 116.042969 150.015625 115.332031 150.398438 114.636719 150.820312 C 113.941406 151.238281 113.269531 151.691406 112.621094 152.175781 C 111.96875 152.660156 111.34375 153.175781 110.746094 153.722656 C 110.144531 154.269531 109.574219 154.839844 109.027344 155.441406 C 108.484375 156.042969 107.96875 156.671875 107.488281 157.320312 C 107.003906 157.972656 106.550781 158.644531 106.132812 159.339844 C 105.714844 160.035156 105.332031 160.75 104.980469 161.480469 C 104.632812 162.214844 104.320312 162.960938 104.042969 163.722656 C 103.765625 164.484375 103.527344 165.257812 103.324219 166.046875 C 103.125 166.832031 102.960938 167.625 102.835938 168.425781 C 102.710938 169.226562 102.625 170.035156 102.578125 170.84375 Z M 102.648438 170.828125 " fill-opacity="1" fill-rule="nonzero"/><path fill="#0033ad" d="M 9.15625 164.46875 C 8.625 164.441406 8.09375 164.464844 7.570312 164.539062 C 7.042969 164.613281 6.527344 164.738281 6.027344 164.914062 C 5.527344 165.089844 5.046875 165.3125 4.589844 165.582031 C 4.128906 165.851562 3.703125 166.164062 3.308594 166.519531 C 2.910156 166.871094 2.554688 167.261719 2.234375 167.6875 C 1.914062 168.109375 1.636719 168.5625 1.40625 169.042969 C 1.175781 169.519531 0.996094 170.019531 0.863281 170.53125 C 0.730469 171.046875 0.648438 171.570312 0.617188 172.101562 C 0.589844 172.632812 0.609375 173.160156 0.683594 173.6875 C 0.757812 174.214844 0.882812 174.726562 1.058594 175.230469 C 1.234375 175.730469 1.457031 176.210938 1.726562 176.667969 C 1.996094 177.128906 2.308594 177.554688 2.660156 177.953125 C 3.015625 178.347656 3.40625 178.707031 3.828125 179.027344 C 4.253906 179.347656 4.707031 179.621094 5.183594 179.851562 C 5.664062 180.085938 6.160156 180.265625 6.675781 180.398438 C 7.1875 180.53125 7.710938 180.613281 8.242188 180.644531 C 8.773438 180.675781 9.300781 180.652344 9.828125 180.578125 C 10.351562 180.503906 10.867188 180.382812 11.371094 180.207031 C 11.871094 180.03125 12.351562 179.808594 12.808594 179.539062 C 13.265625 179.269531 13.695312 178.957031 14.089844 178.601562 C 14.488281 178.25 14.847656 177.859375 15.167969 177.4375 C 15.488281 177.011719 15.761719 176.558594 15.992188 176.082031 C 16.222656 175.601562 16.40625 175.105469 16.539062 174.589844 C 16.671875 174.078125 16.753906 173.554688 16.785156 173.023438 C 16.816406 172.492188 16.796875 171.960938 16.722656 171.433594 C 16.648438 170.90625 16.527344 170.390625 16.351562 169.886719 C 16.175781 169.382812 15.953125 168.902344 15.683594 168.445312 C 15.414062 167.984375 15.101562 167.558594 14.746094 167.160156 C 14.390625 166.761719 14.003906 166.402344 13.578125 166.082031 C 13.152344 165.761719 12.699219 165.488281 12.21875 165.257812 C 11.738281 165.027344 11.242188 164.84375 10.726562 164.710938 C 10.210938 164.578125 9.6875 164.5 9.15625 164.46875 Z M 9.15625 164.46875 " fill-opacity="1" fill-rule="nonzero"/><path fill="#0033ad" d="M 101.058594 25.261719 C 101.53125 25.015625 101.976562 24.730469 102.390625 24.402344 C 102.808594 24.070312 103.1875 23.703125 103.53125 23.296875 C 103.875 22.894531 104.175781 22.457031 104.4375 21.992188 C 104.695312 21.53125 104.90625 21.042969 105.070312 20.539062 C 105.234375 20.035156 105.347656 19.515625 105.40625 18.988281 C 105.46875 18.460938 105.480469 17.933594 105.4375 17.402344 C 105.394531 16.871094 105.304688 16.351562 105.160156 15.839844 C 105.015625 15.328125 104.824219 14.835938 104.582031 14.363281 C 104.339844 13.886719 104.054688 13.441406 103.726562 13.023438 C 103.398438 12.605469 103.03125 12.226562 102.628906 11.878906 C 102.226562 11.535156 101.792969 11.230469 101.328125 10.96875 C 100.867188 10.710938 100.382812 10.496094 99.878906 10.332031 C 99.371094 10.164062 98.855469 10.050781 98.328125 9.988281 C 97.800781 9.921875 97.273438 9.910156 96.742188 9.953125 C 96.214844 9.992188 95.691406 10.082031 95.179688 10.226562 C 94.667969 10.367188 94.175781 10.558594 93.699219 10.796875 C 93.226562 11.035156 92.78125 11.320312 92.359375 11.648438 C 91.941406 11.972656 91.558594 12.339844 91.210938 12.742188 C 90.863281 13.144531 90.558594 13.574219 90.296875 14.039062 C 90.035156 14.5 89.820312 14.984375 89.652344 15.488281 C 89.488281 15.992188 89.371094 16.507812 89.304688 17.035156 C 89.238281 17.5625 89.226562 18.09375 89.261719 18.621094 C 89.300781 19.152344 89.390625 19.675781 89.53125 20.1875 C 89.671875 20.699219 89.859375 21.195312 90.097656 21.667969 C 90.335938 22.148438 90.621094 22.597656 90.953125 23.023438 C 91.28125 23.445312 91.648438 23.832031 92.054688 24.179688 C 92.460938 24.53125 92.898438 24.839844 93.367188 25.101562 C 93.832031 25.367188 94.320312 25.582031 94.832031 25.746094 C 95.339844 25.914062 95.859375 26.03125 96.394531 26.09375 C 96.925781 26.15625 97.457031 26.167969 97.992188 26.125 C 98.527344 26.085938 99.050781 25.992188 99.566406 25.84375 C 100.085938 25.699219 100.582031 25.503906 101.058594 25.261719 Z M 101.058594 25.261719 " fill-opacity="1" fill-rule="nonzero"/><path fill="#0033ad" d="M 126.5 69.640625 C 127.234375 69.269531 127.925781 68.832031 128.574219 68.324219 C 129.21875 67.816406 129.8125 67.253906 130.347656 66.628906 C 130.886719 66.007812 131.355469 65.335938 131.761719 64.621094 C 132.164062 63.90625 132.496094 63.15625 132.753906 62.375 C 133.011719 61.59375 133.1875 60.796875 133.289062 59.980469 C 133.390625 59.164062 133.410156 58.34375 133.347656 57.523438 C 133.285156 56.703125 133.144531 55.898438 132.925781 55.105469 C 132.707031 54.3125 132.410156 53.550781 132.042969 52.816406 C 131.671875 52.082031 131.234375 51.390625 130.726562 50.742188 C 130.222656 50.09375 129.65625 49.5 129.035156 48.964844 C 128.410156 48.425781 127.742188 47.957031 127.027344 47.550781 C 126.3125 47.148438 125.5625 46.816406 124.78125 46.558594 C 124 46.300781 123.203125 46.121094 122.386719 46.019531 C 121.570312 45.921875 120.753906 45.902344 119.933594 45.960938 C 119.113281 46.023438 118.308594 46.164062 117.515625 46.382812 C 116.722656 46.601562 115.960938 46.898438 115.226562 47.265625 C 114.492188 47.636719 113.800781 48.074219 113.152344 48.582031 C 112.503906 49.085938 111.914062 49.652344 111.375 50.273438 C 110.839844 50.898438 110.367188 51.566406 109.960938 52.285156 C 109.558594 53 109.226562 53.746094 108.96875 54.527344 C 108.710938 55.308594 108.53125 56.109375 108.429688 56.925781 C 108.332031 57.742188 108.3125 58.558594 108.371094 59.378906 C 108.433594 60.199219 108.574219 61.003906 108.792969 61.796875 C 109.011719 62.589844 109.304688 63.355469 109.675781 64.089844 C 110.046875 64.824219 110.484375 65.515625 110.988281 66.164062 C 111.496094 66.8125 112.0625 67.40625 112.683594 67.941406 C 113.308594 68.480469 113.976562 68.953125 114.691406 69.355469 C 115.40625 69.761719 116.15625 70.09375 116.9375 70.351562 C 117.71875 70.609375 118.519531 70.789062 119.335938 70.886719 C 120.152344 70.988281 120.96875 71.007812 121.789062 70.949219 C 122.609375 70.886719 123.417969 70.746094 124.210938 70.527344 C 125 70.304688 125.765625 70.011719 126.5 69.640625 Z M 126.5 69.640625 " fill-opacity="1" fill-rule="nonzero"/><path fill="#0033ad" d="M 40.886719 100.164062 C 41.453125 100.535156 42.046875 100.847656 42.675781 101.101562 C 43.304688 101.359375 43.949219 101.550781 44.617188 101.675781 C 45.28125 101.804688 45.953125 101.863281 46.632812 101.859375 C 47.308594 101.855469 47.980469 101.785156 48.644531 101.644531 C 49.304688 101.507812 49.949219 101.308594 50.574219 101.042969 C 51.199219 100.78125 51.789062 100.457031 52.351562 100.074219 C 52.910156 99.695312 53.429688 99.261719 53.90625 98.78125 C 54.378906 98.296875 54.804688 97.773438 55.175781 97.207031 C 55.546875 96.640625 55.859375 96.042969 56.117188 95.414062 C 56.371094 94.785156 56.558594 94.136719 56.6875 93.472656 C 56.8125 92.804688 56.875 92.132812 56.871094 91.457031 C 56.863281 90.777344 56.792969 90.109375 56.65625 89.445312 C 56.519531 88.78125 56.316406 88.136719 56.050781 87.511719 C 55.789062 86.886719 55.464844 86.296875 55.085938 85.734375 C 54.703125 85.175781 54.269531 84.65625 53.789062 84.183594 C 53.304688 83.707031 52.78125 83.28125 52.214844 82.910156 C 51.648438 82.539062 51.050781 82.226562 50.421875 81.972656 C 49.792969 81.71875 49.148438 81.527344 48.480469 81.402344 C 47.816406 81.273438 47.144531 81.214844 46.464844 81.21875 C 45.789062 81.226562 45.117188 81.296875 44.453125 81.433594 C 43.792969 81.574219 43.148438 81.773438 42.523438 82.039062 C 41.898438 82.304688 41.308594 82.625 40.75 83.007812 C 40.1875 83.390625 39.671875 83.820312 39.195312 84.304688 C 38.71875 84.789062 38.296875 85.3125 37.925781 85.882812 C 37.554688 86.445312 37.242188 87.042969 36.988281 87.671875 C 36.734375 88.300781 36.546875 88.945312 36.417969 89.609375 C 36.292969 90.277344 36.230469 90.945312 36.238281 91.625 C 36.242188 92.300781 36.3125 92.972656 36.453125 93.632812 C 36.589844 94.296875 36.789062 94.941406 37.054688 95.5625 C 37.316406 96.1875 37.640625 96.777344 38.019531 97.339844 C 38.398438 97.898438 38.832031 98.417969 39.3125 98.890625 C 39.796875 99.367188 40.320312 99.789062 40.886719 100.164062 Z M 40.886719 100.164062 " fill-opacity="1" fill-rule="nonzero"/><path fill="#0033ad" d="M 56.132812 159.90625 C 55.3125 159.859375 54.496094 159.894531 53.683594 160.007812 C 52.867188 160.125 52.074219 160.316406 51.296875 160.585938 C 50.519531 160.859375 49.777344 161.203125 49.070312 161.621094 C 48.363281 162.039062 47.703125 162.519531 47.089844 163.070312 C 46.476562 163.617188 45.921875 164.21875 45.425781 164.875 C 44.933594 165.53125 44.507812 166.230469 44.148438 166.972656 C 43.792969 167.714844 43.511719 168.480469 43.304688 169.277344 C 43.097656 170.074219 42.972656 170.882812 42.925781 171.703125 C 42.878906 172.523438 42.914062 173.34375 43.027344 174.15625 C 43.140625 174.972656 43.335938 175.765625 43.605469 176.542969 C 43.875 177.320312 44.222656 178.0625 44.636719 178.769531 C 45.054688 179.480469 45.539062 180.140625 46.085938 180.753906 C 46.632812 181.367188 47.234375 181.921875 47.890625 182.417969 C 48.546875 182.910156 49.246094 183.335938 49.984375 183.695312 C 50.726562 184.054688 51.492188 184.335938 52.289062 184.539062 C 53.085938 184.746094 53.894531 184.875 54.714844 184.921875 C 55.535156 184.96875 56.351562 184.933594 57.167969 184.820312 C 57.980469 184.707031 58.777344 184.511719 59.550781 184.242188 C 60.328125 183.972656 61.070312 183.628906 61.777344 183.210938 C 62.488281 182.792969 63.148438 182.3125 63.761719 181.765625 C 64.375 181.214844 64.929688 180.613281 65.425781 179.957031 C 65.921875 179.300781 66.347656 178.601562 66.703125 177.863281 C 67.0625 177.121094 67.34375 176.355469 67.550781 175.558594 C 67.757812 174.761719 67.882812 173.953125 67.929688 173.132812 C 67.976562 172.3125 67.941406 171.492188 67.828125 170.679688 C 67.710938 169.863281 67.519531 169.066406 67.25 168.289062 C 66.976562 167.511719 66.632812 166.769531 66.214844 166.0625 C 65.796875 165.351562 65.316406 164.691406 64.769531 164.078125 C 64.21875 163.464844 63.617188 162.910156 62.960938 162.414062 C 62.304688 161.917969 61.605469 161.492188 60.863281 161.132812 C 60.125 160.777344 59.355469 160.492188 58.558594 160.285156 C 57.765625 160.082031 56.953125 159.953125 56.132812 159.90625 Z M 56.132812 159.90625 " fill-opacity="1" fill-rule="nonzero"/><path fill="#0033ad" d="M 42.253906 244.128906 C 41.652344 244.433594 41.082031 244.796875 40.546875 245.214844 C 40.015625 245.632812 39.527344 246.097656 39.085938 246.609375 C 38.644531 247.125 38.257812 247.675781 37.925781 248.265625 C 37.589844 248.855469 37.320312 249.472656 37.109375 250.117188 C 36.898438 250.761719 36.75 251.417969 36.667969 252.089844 C 36.585938 252.761719 36.570312 253.4375 36.621094 254.113281 C 36.671875 254.789062 36.789062 255.453125 36.96875 256.105469 C 37.152344 256.757812 37.394531 257.386719 37.699219 257.992188 C 38.003906 258.597656 38.367188 259.167969 38.785156 259.699219 C 39.199219 260.234375 39.667969 260.722656 40.179688 261.164062 C 40.691406 261.605469 41.246094 261.992188 41.835938 262.324219 C 42.425781 262.660156 43.039062 262.929688 43.683594 263.144531 C 44.328125 263.355469 44.984375 263.5 45.65625 263.585938 C 46.328125 263.667969 47.003906 263.683594 47.679688 263.632812 C 48.355469 263.582031 49.019531 263.464844 49.671875 263.285156 C 50.324219 263.101562 50.953125 262.859375 51.554688 262.554688 C 52.160156 262.25 52.730469 261.886719 53.261719 261.46875 C 53.796875 261.050781 54.285156 260.585938 54.726562 260.074219 C 55.167969 259.558594 55.554688 259.007812 55.890625 258.417969 C 56.222656 257.828125 56.496094 257.210938 56.707031 256.570312 C 56.917969 255.925781 57.066406 255.265625 57.148438 254.59375 C 57.230469 253.921875 57.246094 253.246094 57.195312 252.570312 C 57.144531 251.898438 57.03125 251.230469 56.847656 250.578125 C 56.667969 249.925781 56.425781 249.296875 56.121094 248.691406 C 55.816406 248.085938 55.453125 247.515625 55.035156 246.984375 C 54.617188 246.449219 54.152344 245.960938 53.640625 245.519531 C 53.125 245.074219 52.574219 244.6875 51.984375 244.355469 C 51.394531 244.019531 50.777344 243.75 50.132812 243.535156 C 49.488281 243.324219 48.832031 243.175781 48.160156 243.09375 C 47.484375 243.011719 46.8125 242.996094 46.136719 243.046875 C 45.460938 243.097656 44.796875 243.214844 44.140625 243.398438 C 43.488281 243.578125 42.859375 243.824219 42.253906 244.128906 Z M 42.253906 244.128906 " fill-opacity="1" fill-rule="nonzero"/><path fill="#0033ad" d="M 90.933594 134.015625 C 91.742188 134.546875 92.597656 134.992188 93.492188 135.355469 C 94.390625 135.71875 95.316406 135.988281 96.265625 136.171875 C 97.21875 136.351562 98.175781 136.4375 99.144531 136.429688 C 100.113281 136.417969 101.070312 136.316406 102.019531 136.121094 C 102.964844 135.921875 103.882812 135.632812 104.777344 135.253906 C 105.667969 134.878906 106.511719 134.414062 107.3125 133.871094 C 108.113281 133.324219 108.851562 132.707031 109.53125 132.015625 C 110.207031 131.324219 110.8125 130.574219 111.34375 129.765625 C 111.875 128.957031 112.320312 128.101562 112.683594 127.203125 C 113.046875 126.308594 113.316406 125.382812 113.496094 124.429688 C 113.675781 123.480469 113.761719 122.519531 113.753906 121.550781 C 113.746094 120.582031 113.644531 119.625 113.445312 118.675781 C 113.25 117.730469 112.960938 116.808594 112.582031 115.917969 C 112.203125 115.027344 111.742188 114.179688 111.199219 113.382812 C 110.652344 112.582031 110.035156 111.839844 109.347656 111.164062 C 108.65625 110.484375 107.90625 109.878906 107.097656 109.347656 C 106.285156 108.816406 105.433594 108.371094 104.535156 108.007812 C 103.640625 107.644531 102.714844 107.375 101.761719 107.191406 C 100.8125 107.011719 99.851562 106.925781 98.886719 106.933594 C 97.917969 106.941406 96.960938 107.046875 96.011719 107.242188 C 95.066406 107.441406 94.144531 107.726562 93.253906 108.105469 C 92.363281 108.484375 91.519531 108.945312 90.71875 109.492188 C 89.917969 110.035156 89.179688 110.652344 88.5 111.34375 C 87.820312 112.035156 87.21875 112.785156 86.6875 113.59375 C 86.152344 114.402344 85.707031 115.257812 85.34375 116.15625 C 84.980469 117.054688 84.707031 117.976562 84.527344 118.929688 C 84.34375 119.882812 84.257812 120.84375 84.265625 121.808594 C 84.273438 122.777344 84.378906 123.738281 84.574219 124.6875 C 84.773438 125.632812 85.0625 126.554688 85.4375 127.445312 C 85.816406 128.339844 86.28125 129.183594 86.824219 129.984375 C 87.371094 130.785156 87.988281 131.523438 88.679688 132.203125 C 89.371094 132.882812 90.121094 133.484375 90.933594 134.015625 Z M 90.933594 134.015625 " fill-opacity="1" fill-rule="nonzero"/><path fill="#0033ad" d="M 245.367188 68.652344 C 246.054688 69.101562 246.78125 69.480469 247.546875 69.789062 C 248.308594 70.09375 249.09375 70.324219 249.902344 70.476562 C 250.710938 70.625 251.527344 70.699219 252.351562 70.6875 C 253.175781 70.679688 253.988281 70.589844 254.792969 70.421875 C 255.597656 70.25 256.378906 70.003906 257.136719 69.683594 C 257.894531 69.359375 258.613281 68.964844 259.292969 68.5 C 259.972656 68.035156 260.597656 67.507812 261.171875 66.921875 C 261.75 66.332031 262.261719 65.691406 262.710938 65.003906 C 263.160156 64.3125 263.539062 63.585938 263.847656 62.824219 C 264.152344 62.058594 264.382812 61.273438 264.535156 60.464844 C 264.6875 59.65625 264.757812 58.839844 264.75 58.015625 C 264.742188 57.191406 264.652344 56.378906 264.484375 55.570312 C 264.3125 54.765625 264.066406 53.984375 263.746094 53.226562 C 263.421875 52.46875 263.027344 51.753906 262.5625 51.074219 C 262.097656 50.394531 261.574219 49.765625 260.984375 49.1875 C 260.398438 48.613281 259.757812 48.097656 259.070312 47.648438 C 258.382812 47.199219 257.65625 46.820312 256.890625 46.511719 C 256.128906 46.207031 255.339844 45.976562 254.53125 45.824219 C 253.722656 45.671875 252.90625 45.601562 252.085938 45.609375 C 251.261719 45.617188 250.449219 45.707031 249.640625 45.875 C 248.835938 46.042969 248.054688 46.289062 247.296875 46.613281 C 246.542969 46.933594 245.824219 47.328125 245.144531 47.792969 C 244.464844 48.257812 243.835938 48.785156 243.261719 49.371094 C 242.683594 49.960938 242.171875 50.597656 241.722656 51.289062 C 241.269531 51.976562 240.890625 52.703125 240.582031 53.46875 C 240.273438 54.230469 240.042969 55.019531 239.890625 55.828125 C 239.738281 56.640625 239.664062 57.457031 239.671875 58.28125 C 239.683594 59.105469 239.769531 59.921875 239.941406 60.726562 C 240.109375 61.535156 240.355469 62.316406 240.679688 63.074219 C 241.003906 63.832031 241.398438 64.550781 241.863281 65.230469 C 242.328125 65.910156 242.855469 66.539062 243.445312 67.113281 C 244.035156 67.691406 244.675781 68.203125 245.367188 68.652344 Z M 245.367188 68.652344 " fill-opacity="1" fill-rule="nonzero"/><path fill="#0033ad" d="M 271.066406 24.410156 C 271.511719 24.703125 271.984375 24.949219 272.476562 25.148438 C 272.972656 25.347656 273.480469 25.496094 274.003906 25.597656 C 274.527344 25.695312 275.054688 25.742188 275.585938 25.738281 C 276.121094 25.734375 276.648438 25.675781 277.167969 25.566406 C 277.691406 25.457031 278.195312 25.300781 278.6875 25.09375 C 279.175781 24.882812 279.640625 24.628906 280.082031 24.328125 C 280.523438 24.027344 280.929688 23.6875 281.300781 23.308594 C 281.675781 22.929688 282.007812 22.515625 282.300781 22.070312 C 282.589844 21.625 282.835938 21.152344 283.035156 20.660156 C 283.234375 20.164062 283.382812 19.65625 283.484375 19.132812 C 283.582031 18.609375 283.628906 18.082031 283.625 17.546875 C 283.621094 17.015625 283.5625 16.488281 283.453125 15.964844 C 283.34375 15.445312 283.1875 14.9375 282.976562 14.449219 C 282.769531 13.957031 282.515625 13.492188 282.214844 13.050781 C 281.914062 12.613281 281.574219 12.203125 281.195312 11.832031 C 280.8125 11.457031 280.398438 11.125 279.953125 10.835938 C 279.507812 10.542969 279.039062 10.296875 278.542969 10.097656 C 278.050781 9.898438 277.542969 9.75 277.019531 9.652344 C 276.496094 9.550781 275.964844 9.503906 275.433594 9.511719 C 274.902344 9.515625 274.375 9.574219 273.851562 9.683594 C 273.332031 9.792969 272.824219 9.949219 272.335938 10.160156 C 271.84375 10.367188 271.378906 10.621094 270.941406 10.921875 C 270.5 11.222656 270.09375 11.5625 269.722656 11.945312 C 269.347656 12.324219 269.015625 12.738281 268.726562 13.183594 C 268.433594 13.628906 268.1875 14.101562 267.988281 14.59375 C 267.792969 15.089844 267.644531 15.597656 267.542969 16.121094 C 267.445312 16.640625 267.398438 17.171875 267.402344 17.703125 C 267.410156 18.234375 267.464844 18.761719 267.574219 19.28125 C 267.683594 19.804688 267.84375 20.308594 268.050781 20.800781 C 268.257812 21.289062 268.511719 21.753906 268.8125 22.195312 C 269.113281 22.632812 269.449219 23.039062 269.832031 23.414062 C 270.210938 23.785156 270.621094 24.117188 271.066406 24.410156 Z M 271.066406 24.410156 " fill-opacity="1" fill-rule="nonzero"/><path fill="#0033ad" d="M 247.339844 146.953125 C 246.519531 146.90625 245.699219 146.898438 244.875 146.933594 C 244.054688 146.964844 243.238281 147.039062 242.425781 147.152344 C 241.613281 147.265625 240.804688 147.421875 240.007812 147.613281 C 239.207031 147.804688 238.421875 148.039062 237.644531 148.308594 C 236.867188 148.578125 236.109375 148.886719 235.363281 149.230469 C 234.617188 149.574219 233.890625 149.957031 233.183594 150.371094 C 232.472656 150.789062 231.789062 151.238281 231.125 151.722656 C 230.460938 152.207031 229.820312 152.722656 229.207031 153.269531 C 228.59375 153.816406 228.007812 154.390625 227.453125 154.996094 C 226.894531 155.601562 226.371094 156.230469 225.875 156.886719 C 225.378906 157.542969 224.917969 158.222656 224.488281 158.921875 C 224.0625 159.625 223.667969 160.34375 223.3125 161.085938 C 222.953125 161.824219 222.632812 162.582031 222.351562 163.351562 C 222.066406 164.125 221.820312 164.90625 221.617188 165.703125 C 221.410156 166.496094 221.242188 167.300781 221.113281 168.113281 C 220.988281 168.925781 220.902344 169.742188 220.851562 170.5625 C 220.804688 171.382812 220.800781 172.203125 220.832031 173.023438 C 220.867188 173.847656 220.941406 174.664062 221.054688 175.476562 C 221.167969 176.292969 221.320312 177.097656 221.515625 177.898438 C 221.707031 178.695312 221.9375 179.484375 222.210938 180.257812 C 222.480469 181.035156 222.789062 181.796875 223.132812 182.542969 C 223.476562 183.289062 223.859375 184.015625 224.277344 184.722656 C 224.691406 185.429688 225.140625 186.117188 225.625 186.78125 C 226.109375 187.445312 226.625 188.085938 227.171875 188.699219 C 227.71875 189.3125 228.292969 189.898438 228.898438 190.453125 C 229.503906 191.011719 230.132812 191.535156 230.789062 192.03125 C 231.445312 192.527344 232.125 192.988281 232.824219 193.414062 C 233.527344 193.84375 234.246094 194.238281 234.988281 194.59375 C 235.726562 194.953125 236.480469 195.273438 237.253906 195.554688 C 238.023438 195.835938 238.808594 196.082031 239.601562 196.289062 C 240.398438 196.496094 241.203125 196.660156 242.011719 196.789062 C 242.824219 196.914062 243.640625 197.003906 244.460938 197.050781 C 244.941406 197.050781 245.433594 197.050781 245.914062 197.050781 C 247.117188 197.046875 248.3125 196.960938 249.503906 196.789062 C 250.695312 196.617188 251.867188 196.359375 253.019531 196.015625 C 254.171875 195.675781 255.296875 195.253906 256.390625 194.75 C 257.484375 194.246094 258.535156 193.667969 259.542969 193.011719 C 260.550781 192.355469 261.507812 191.632812 262.414062 190.839844 C 263.320312 190.046875 264.164062 189.195312 264.945312 188.28125 C 265.730469 187.367188 266.441406 186.398438 267.085938 185.382812 C 267.730469 184.367188 268.296875 183.308594 268.789062 182.210938 C 269.277344 181.109375 269.6875 179.984375 270.019531 178.824219 C 270.347656 177.667969 270.589844 176.492188 270.75 175.300781 C 270.910156 174.105469 270.984375 172.910156 270.972656 171.703125 C 270.960938 170.5 270.859375 169.304688 270.675781 168.117188 C 270.492188 166.925781 270.222656 165.757812 269.867188 164.605469 C 269.515625 163.457031 269.082031 162.335938 268.566406 161.25 C 268.054688 160.160156 267.464844 159.113281 266.800781 158.109375 C 266.136719 157.109375 265.402344 156.15625 264.601562 155.261719 C 263.511719 154.027344 262.308594 152.917969 260.996094 151.925781 C 259.683594 150.933594 258.285156 150.082031 256.804688 149.371094 C 255.324219 148.65625 253.785156 148.097656 252.191406 147.691406 C 250.597656 147.285156 248.980469 147.039062 247.339844 146.953125 Z M 247.339844 146.953125 " fill-opacity="1" fill-rule="nonzero"/><path fill="#0033ad" d="M 134.734375 132.273438 C 135.25 133.308594 135.839844 134.304688 136.496094 135.257812 C 137.148438 136.210938 137.867188 137.113281 138.652344 137.96875 C 139.433594 138.820312 140.269531 139.617188 141.160156 140.355469 C 142.050781 141.089844 142.992188 141.761719 143.976562 142.371094 C 144.960938 142.976562 145.984375 143.511719 147.042969 143.976562 C 148.101562 144.441406 149.191406 144.828125 150.304688 145.144531 C 151.417969 145.457031 152.546875 145.691406 153.691406 145.847656 C 154.839844 146.003906 155.992188 146.082031 157.148438 146.078125 C 157.679688 146.078125 158.214844 146.058594 158.746094 146.027344 C 159.277344 145.992188 159.808594 145.941406 160.335938 145.875 C 160.867188 145.804688 161.390625 145.722656 161.914062 145.621094 C 162.4375 145.519531 162.957031 145.402344 163.476562 145.265625 C 163.992188 145.132812 164.5 144.980469 165.007812 144.816406 C 165.515625 144.648438 166.015625 144.464844 166.507812 144.265625 C 167.003906 144.066406 167.492188 143.851562 167.972656 143.621094 C 168.453125 143.394531 168.925781 143.148438 169.394531 142.886719 C 169.859375 142.628906 170.316406 142.351562 170.761719 142.0625 C 171.210938 141.773438 171.648438 141.46875 172.078125 141.152344 C 172.507812 140.835938 172.925781 140.503906 173.332031 140.160156 C 173.738281 139.816406 174.136719 139.460938 174.519531 139.089844 C 174.90625 138.722656 175.277344 138.339844 175.636719 137.949219 C 175.996094 137.554688 176.34375 137.152344 176.679688 136.734375 C 177.015625 136.320312 177.335938 135.894531 177.644531 135.460938 C 177.953125 135.023438 178.246094 134.578125 178.523438 134.125 C 178.804688 133.667969 179.066406 133.207031 179.316406 132.734375 C 179.566406 132.265625 179.800781 131.785156 180.019531 131.300781 C 180.238281 130.8125 180.445312 130.320312 180.632812 129.820312 C 180.820312 129.324219 180.992188 128.816406 181.144531 128.308594 C 181.300781 127.796875 181.441406 127.28125 181.5625 126.765625 C 181.6875 126.246094 181.792969 125.722656 181.882812 125.195312 C 181.972656 124.671875 182.046875 124.144531 182.101562 123.613281 C 182.15625 123.082031 182.195312 122.550781 182.21875 122.015625 C 182.238281 121.484375 182.246094 120.953125 182.234375 120.417969 C 182.222656 119.886719 182.191406 119.351562 182.144531 118.820312 C 182.101562 118.289062 182.039062 117.761719 181.957031 117.234375 C 181.878906 116.707031 181.78125 116.179688 181.667969 115.660156 C 181.554688 115.140625 181.425781 114.621094 181.28125 114.109375 C 181.132812 113.597656 180.972656 113.089844 180.792969 112.585938 C 180.613281 112.082031 180.421875 111.585938 180.210938 111.097656 C 180 110.605469 179.773438 110.121094 179.535156 109.648438 C 179.011719 108.617188 178.421875 107.628906 177.765625 106.679688 C 177.105469 105.730469 176.386719 104.832031 175.601562 103.984375 C 174.820312 103.132812 173.980469 102.34375 173.089844 101.613281 C 172.195312 100.878906 171.257812 100.210938 170.273438 99.609375 C 169.289062 99.007812 168.265625 98.476562 167.207031 98.015625 C 166.148438 97.554688 165.0625 97.167969 163.953125 96.859375 C 162.839844 96.550781 161.710938 96.316406 160.566406 96.164062 C 159.425781 96.007812 158.273438 95.933594 157.121094 95.941406 C 156.589844 95.941406 156.058594 95.960938 155.527344 95.996094 C 154.996094 96.027344 154.46875 96.082031 153.941406 96.148438 C 153.414062 96.21875 152.890625 96.300781 152.367188 96.402344 C 151.847656 96.503906 151.328125 96.625 150.8125 96.757812 C 150.300781 96.894531 149.789062 97.042969 149.285156 97.210938 C 148.78125 97.378906 148.28125 97.558594 147.789062 97.757812 C 147.296875 97.957031 146.808594 98.171875 146.332031 98.402344 C 145.851562 98.632812 145.378906 98.875 144.914062 99.136719 C 144.453125 99.394531 143.996094 99.667969 143.550781 99.957031 C 143.105469 100.246094 142.667969 100.546875 142.238281 100.863281 C 141.8125 101.179688 141.394531 101.511719 140.988281 101.855469 C 140.582031 102.195312 140.1875 102.550781 139.804688 102.917969 C 139.421875 103.289062 139.046875 103.667969 138.6875 104.058594 C 138.328125 104.449219 137.984375 104.851562 137.648438 105.265625 C 137.316406 105.679688 136.996094 106.105469 136.6875 106.539062 C 136.378906 106.972656 136.085938 107.414062 135.808594 107.867188 C 135.527344 108.320312 135.265625 108.78125 135.015625 109.25 C 134.765625 109.722656 134.53125 110.199219 134.3125 110.683594 C 134.09375 111.167969 133.890625 111.65625 133.699219 112.15625 C 133.511719 112.652344 133.339844 113.15625 133.183594 113.664062 C 133.027344 114.171875 132.886719 114.683594 132.765625 115.203125 C 132.640625 115.71875 132.535156 116.238281 132.445312 116.761719 C 132.351562 117.289062 132.28125 117.8125 132.222656 118.34375 C 132.164062 118.871094 132.125 119.402344 132.101562 119.933594 C 132.078125 120.464844 132.070312 120.996094 132.082031 121.527344 C 132.09375 122.058594 132.121094 122.589844 132.164062 123.117188 C 132.207031 123.648438 132.269531 124.175781 132.347656 124.703125 C 132.425781 125.230469 132.519531 125.753906 132.628906 126.273438 C 132.742188 126.792969 132.867188 127.308594 133.011719 127.820312 C 133.15625 128.332031 133.316406 128.839844 133.492188 129.339844 C 133.667969 129.84375 133.859375 130.339844 134.066406 130.828125 C 134.273438 131.316406 134.496094 131.800781 134.734375 132.273438 Z M 134.734375 132.273438 " fill-opacity="1" fill-rule="nonzero"/><path fill="#0033ad" d="M 331.335938 100.136719 C 331.941406 99.828125 332.511719 99.46875 333.042969 99.050781 C 333.578125 98.632812 334.0625 98.167969 334.507812 97.65625 C 334.949219 97.140625 335.335938 96.589844 335.667969 96 C 336.003906 95.410156 336.273438 94.792969 336.488281 94.152344 C 336.699219 93.507812 336.847656 92.847656 336.929688 92.175781 C 337.011719 91.503906 337.027344 90.832031 336.976562 90.15625 C 336.925781 89.480469 336.8125 88.816406 336.628906 88.164062 C 336.449219 87.511719 336.207031 86.882812 335.902344 86.277344 C 335.597656 85.671875 335.234375 85.101562 334.820312 84.566406 C 334.402344 84.035156 333.9375 83.546875 333.421875 83.105469 C 332.910156 82.660156 332.359375 82.273438 331.769531 81.941406 C 331.179688 81.605469 330.566406 81.332031 329.921875 81.121094 C 329.277344 80.910156 328.621094 80.761719 327.949219 80.679688 C 327.277344 80.59375 326.601562 80.578125 325.929688 80.628906 C 325.253906 80.679688 324.589844 80.792969 323.9375 80.976562 C 323.285156 81.15625 322.65625 81.398438 322.050781 81.703125 C 321.445312 82.007812 320.875 82.367188 320.339844 82.785156 C 319.808594 83.203125 319.320312 83.667969 318.878906 84.179688 C 318.433594 84.691406 318.046875 85.242188 317.714844 85.832031 C 317.378906 86.421875 317.105469 87.039062 316.894531 87.683594 C 316.679688 88.324219 316.53125 88.984375 316.449219 89.65625 C 316.367188 90.328125 316.351562 91 316.398438 91.675781 C 316.449219 92.351562 316.5625 93.015625 316.746094 93.667969 C 316.925781 94.324219 317.167969 94.953125 317.472656 95.558594 C 317.777344 96.164062 318.136719 96.734375 318.554688 97.265625 C 318.972656 97.800781 319.4375 98.289062 319.953125 98.730469 C 320.464844 99.175781 321.015625 99.5625 321.605469 99.898438 C 322.195312 100.230469 322.8125 100.503906 323.457031 100.714844 C 324.101562 100.929688 324.757812 101.078125 325.429688 101.160156 C 326.105469 101.242188 326.777344 101.257812 327.453125 101.210938 C 328.128906 101.160156 328.796875 101.042969 329.449219 100.863281 C 330.101562 100.683594 330.730469 100.441406 331.335938 100.136719 Z M 331.335938 100.136719 " fill-opacity="1" fill-rule="nonzero"/><path fill="#0033ad" d="M 267.753906 108.125 C 266.886719 108.5625 266.074219 109.078125 265.3125 109.671875 C 264.546875 110.269531 263.851562 110.933594 263.21875 111.667969 C 262.585938 112.398438 262.03125 113.1875 261.554688 114.03125 C 261.078125 114.875 260.6875 115.753906 260.382812 116.675781 C 260.082031 117.59375 259.871094 118.535156 259.75 119.496094 C 259.632812 120.457031 259.609375 121.417969 259.683594 122.386719 C 259.753906 123.351562 259.917969 124.300781 260.175781 125.234375 C 260.433594 126.167969 260.78125 127.066406 261.21875 127.929688 C 261.652344 128.796875 262.167969 129.609375 262.765625 130.371094 C 263.359375 131.136719 264.023438 131.832031 264.757812 132.464844 C 265.488281 133.097656 266.277344 133.652344 267.121094 134.128906 C 267.960938 134.605469 268.84375 134.996094 269.761719 135.300781 C 270.679688 135.605469 271.621094 135.816406 272.582031 135.933594 C 273.542969 136.050781 274.503906 136.074219 275.472656 136.003906 C 276.4375 135.933594 277.386719 135.769531 278.316406 135.507812 C 279.25 135.25 280.148438 134.902344 281.015625 134.46875 C 281.878906 134.03125 282.691406 133.515625 283.457031 132.921875 C 284.21875 132.324219 284.914062 131.660156 285.546875 130.925781 C 286.179688 130.195312 286.734375 129.40625 287.210938 128.5625 C 287.6875 127.71875 288.078125 126.839844 288.382812 125.917969 C 288.683594 125 288.894531 124.058594 289.015625 123.097656 C 289.132812 122.136719 289.15625 121.175781 289.085938 120.207031 C 289.011719 119.242188 288.847656 118.292969 288.589844 117.359375 C 288.332031 116.425781 287.984375 115.527344 287.550781 114.664062 C 287.113281 113.796875 286.601562 112.984375 286.003906 112.21875 C 285.410156 111.457031 284.746094 110.757812 284.011719 110.125 C 283.277344 109.492188 282.492188 108.9375 281.648438 108.457031 C 280.804688 107.980469 279.925781 107.589844 279.007812 107.289062 C 278.085938 106.984375 277.148438 106.773438 276.183594 106.65625 C 275.222656 106.535156 274.261719 106.511719 273.296875 106.585938 C 272.332031 106.65625 271.382812 106.824219 270.449219 107.082031 C 269.515625 107.339844 268.617188 107.6875 267.753906 108.125 Z M 267.753906 108.125 " fill-opacity="1" fill-rule="nonzero"/><path fill="#0033ad" d="M 185.851562 20.628906 C 186.527344 20.664062 187.199219 20.636719 187.871094 20.542969 C 188.542969 20.449219 189.199219 20.289062 189.835938 20.066406 C 190.476562 19.84375 191.089844 19.558594 191.671875 19.214844 C 192.257812 18.871094 192.800781 18.476562 193.304688 18.023438 C 193.8125 17.570312 194.269531 17.074219 194.675781 16.535156 C 195.082031 15.992188 195.433594 15.417969 195.730469 14.808594 C 196.023438 14.195312 196.253906 13.5625 196.425781 12.90625 C 196.59375 12.25 196.699219 11.585938 196.738281 10.90625 C 196.773438 10.230469 196.746094 9.558594 196.652344 8.886719 C 196.558594 8.214844 196.398438 7.558594 196.175781 6.917969 C 195.953125 6.28125 195.667969 5.667969 195.324219 5.082031 C 194.980469 4.5 194.582031 3.953125 194.132812 3.449219 C 193.679688 2.945312 193.183594 2.488281 192.644531 2.078125 C 192.101562 1.671875 191.527344 1.320312 190.917969 1.027344 C 190.304688 0.730469 189.671875 0.5 189.015625 0.332031 C 188.359375 0.160156 187.695312 0.0585938 187.019531 0.0195312 C 186.339844 -0.0195312 185.667969 0.0078125 184.996094 0.105469 C 184.328125 0.199219 183.671875 0.359375 183.03125 0.582031 C 182.390625 0.804688 181.78125 1.089844 181.195312 1.433594 C 180.613281 1.777344 180.070312 2.175781 179.5625 2.628906 C 179.058594 3.078125 178.601562 3.574219 178.195312 4.117188 C 177.789062 4.660156 177.4375 5.234375 177.140625 5.84375 C 176.847656 6.457031 176.617188 7.089844 176.449219 7.746094 C 176.277344 8.402344 176.175781 9.066406 176.136719 9.746094 C 176.097656 10.421875 176.128906 11.09375 176.222656 11.765625 C 176.316406 12.4375 176.476562 13.089844 176.699219 13.730469 C 176.921875 14.371094 177.207031 14.980469 177.550781 15.566406 C 177.894531 16.148438 178.289062 16.691406 178.742188 17.199219 C 179.191406 17.703125 179.6875 18.160156 180.230469 18.566406 C 180.769531 18.972656 181.34375 19.324219 181.957031 19.621094 C 182.566406 19.914062 183.199219 20.144531 183.851562 20.316406 C 184.507812 20.484375 185.175781 20.589844 185.851562 20.628906 Z M 185.851562 20.628906 " fill-opacity="1" fill-rule="nonzero"/><path fill="#0033ad" d="M 185.742188 85.578125 C 186.707031 85.632812 187.667969 85.59375 188.628906 85.457031 C 189.585938 85.320312 190.519531 85.09375 191.433594 84.773438 C 192.347656 84.457031 193.222656 84.050781 194.054688 83.558594 C 194.886719 83.066406 195.667969 82.496094 196.386719 81.851562 C 197.109375 81.207031 197.761719 80.5 198.34375 79.726562 C 198.925781 78.953125 199.425781 78.128906 199.847656 77.257812 C 200.265625 76.386719 200.597656 75.480469 200.839844 74.542969 C 201.082031 73.605469 201.230469 72.652344 201.285156 71.6875 C 201.339844 70.71875 201.296875 69.757812 201.164062 68.800781 C 201.027344 67.839844 200.800781 66.90625 200.484375 65.992188 C 200.164062 65.078125 199.757812 64.203125 199.265625 63.367188 C 198.777344 62.535156 198.207031 61.757812 197.5625 61.035156 C 196.917969 60.3125 196.210938 59.660156 195.4375 59.078125 C 194.664062 58.496094 193.84375 57.992188 192.972656 57.574219 C 192.101562 57.152344 191.195312 56.820312 190.257812 56.578125 C 189.320312 56.335938 188.371094 56.1875 187.40625 56.132812 C 186.4375 56.078125 185.476562 56.117188 184.519531 56.25 C 183.558594 56.386719 182.625 56.613281 181.710938 56.929688 C 180.796875 57.25 179.921875 57.65625 179.089844 58.144531 C 178.253906 58.636719 177.476562 59.203125 176.753906 59.847656 C 176.03125 60.492188 175.378906 61.203125 174.796875 61.972656 C 174.214844 62.746094 173.710938 63.570312 173.292969 64.441406 C 172.871094 65.3125 172.539062 66.21875 172.296875 67.152344 C 172.054688 68.089844 171.902344 69.042969 171.847656 70.007812 C 171.792969 70.976562 171.835938 71.941406 171.96875 72.898438 C 172.105469 73.859375 172.332031 74.796875 172.652344 75.710938 C 172.96875 76.625 173.375 77.5 173.867188 78.335938 C 174.359375 79.171875 174.925781 79.949219 175.574219 80.671875 C 176.21875 81.394531 176.925781 82.046875 177.699219 82.628906 C 178.472656 83.214844 179.296875 83.714844 180.167969 84.136719 C 181.042969 84.558594 181.945312 84.890625 182.882812 85.132812 C 183.820312 85.375 184.773438 85.523438 185.742188 85.578125 Z M 185.742188 85.578125 " fill-opacity="1" fill-rule="nonzero"/><path fill="#0033ad" d="M 105.867188 236.125 C 106.730469 235.6875 107.542969 235.171875 108.308594 234.574219 C 109.070312 233.980469 109.765625 233.316406 110.398438 232.582031 C 111.03125 231.847656 111.585938 231.058594 112.0625 230.214844 C 112.539062 229.375 112.929688 228.492188 113.230469 227.570312 C 113.535156 226.652344 113.746094 225.710938 113.863281 224.75 C 113.980469 223.789062 114.003906 222.824219 113.929688 221.859375 C 113.859375 220.894531 113.695312 219.945312 113.433594 219.011719 C 113.175781 218.078125 112.828125 217.179688 112.394531 216.316406 C 111.957031 215.449219 111.441406 214.636719 110.84375 213.875 C 110.25 213.109375 109.582031 212.414062 108.851562 211.78125 C 108.117188 211.148438 107.328125 210.59375 106.484375 210.117188 C 105.644531 209.640625 104.761719 209.25 103.84375 208.949219 C 102.921875 208.644531 101.984375 208.433594 101.023438 208.316406 C 100.0625 208.199219 99.097656 208.175781 98.132812 208.25 C 97.167969 208.320312 96.21875 208.488281 95.285156 208.746094 C 94.351562 209.003906 93.453125 209.351562 92.589844 209.789062 C 91.726562 210.226562 90.914062 210.742188 90.148438 211.339844 C 89.386719 211.933594 88.691406 212.601562 88.058594 213.332031 C 87.425781 214.066406 86.871094 214.855469 86.398438 215.699219 C 85.921875 216.542969 85.53125 217.425781 85.226562 218.34375 C 84.925781 219.261719 84.714844 220.203125 84.597656 221.164062 C 84.480469 222.125 84.457031 223.089844 84.53125 224.054688 C 84.601562 225.023438 84.765625 225.972656 85.027344 226.902344 C 85.285156 227.835938 85.632812 228.734375 86.070312 229.601562 C 86.503906 230.464844 87.023438 231.277344 87.617188 232.039062 C 88.214844 232.804688 88.878906 233.5 89.613281 234.132812 C 90.34375 234.765625 91.132812 235.316406 91.976562 235.792969 C 92.816406 236.269531 93.699219 236.660156 94.617188 236.964844 C 95.535156 237.265625 96.476562 237.476562 97.4375 237.59375 C 98.398438 237.710938 99.359375 237.734375 100.324219 237.664062 C 101.289062 237.589844 102.238281 237.425781 103.171875 237.167969 C 104.105469 236.90625 105.003906 236.558594 105.867188 236.125 Z M 105.867188 236.125 " fill-opacity="1" fill-rule="nonzero"/><path fill="#0033ad" d="M 195.261719 107.097656 C 194.757812 107.871094 194.296875 108.667969 193.878906 109.488281 C 193.460938 110.3125 193.089844 111.15625 192.765625 112.019531 C 192.441406 112.882812 192.164062 113.761719 191.9375 114.65625 C 191.710938 115.546875 191.53125 116.453125 191.402344 117.367188 C 191.277344 118.28125 191.199219 119.199219 191.171875 120.121094 C 191.144531 121.042969 191.167969 121.960938 191.246094 122.882812 C 191.320312 123.800781 191.445312 124.714844 191.621094 125.621094 C 191.796875 126.527344 192.019531 127.417969 192.292969 128.300781 C 192.570312 129.179688 192.890625 130.042969 193.257812 130.890625 C 193.628906 131.734375 194.042969 132.554688 194.503906 133.355469 C 194.964844 134.15625 195.464844 134.925781 196.011719 135.671875 C 196.554688 136.414062 197.140625 137.128906 197.765625 137.808594 C 198.386719 138.488281 199.046875 139.128906 199.742188 139.738281 C 200.4375 140.34375 201.164062 140.910156 201.917969 141.4375 C 202.675781 141.964844 203.460938 142.445312 204.269531 142.886719 C 205.082031 143.328125 205.914062 143.722656 206.769531 144.070312 C 207.621094 144.417969 208.492188 144.71875 209.378906 144.972656 C 210.265625 145.222656 211.164062 145.425781 212.074219 145.578125 C 212.984375 145.730469 213.898438 145.835938 214.820312 145.886719 C 215.738281 145.9375 216.660156 145.941406 217.582031 145.890625 C 218.503906 145.839844 219.417969 145.742188 220.328125 145.589844 C 221.238281 145.4375 222.136719 145.238281 223.023438 144.988281 C 223.910156 144.738281 224.78125 144.441406 225.636719 144.09375 C 226.492188 143.75 227.324219 143.355469 228.136719 142.917969 C 228.949219 142.480469 229.734375 142 230.492188 141.476562 C 231.25 140.949219 231.976562 140.386719 232.675781 139.78125 C 233.371094 139.175781 234.03125 138.535156 234.65625 137.855469 C 235.28125 137.179688 235.867188 136.46875 236.414062 135.726562 C 236.964844 134.984375 237.46875 134.210938 237.929688 133.414062 C 238.390625 132.617188 238.808594 131.792969 239.179688 130.949219 C 239.550781 130.105469 239.875 129.242188 240.152344 128.363281 C 240.429688 127.484375 240.65625 126.589844 240.835938 125.683594 C 241.011719 124.78125 241.140625 123.867188 241.21875 122.949219 C 241.292969 122.027344 241.320312 121.109375 241.296875 120.1875 C 241.273438 119.265625 241.199219 118.347656 241.074219 117.433594 C 240.945312 116.519531 240.769531 115.613281 240.546875 114.71875 C 240.320312 113.824219 240.046875 112.945312 239.726562 112.082031 C 239.402344 111.214844 239.035156 110.371094 238.617188 109.546875 C 238.203125 108.726562 237.742188 107.925781 237.242188 107.152344 C 236.738281 106.378906 236.191406 105.636719 235.609375 104.925781 C 235.023438 104.210938 234.398438 103.53125 233.738281 102.890625 C 233.078125 102.246094 232.386719 101.640625 231.660156 101.070312 C 230.929688 100.503906 230.175781 99.976562 229.390625 99.492188 C 228.605469 99.007812 227.796875 98.570312 226.960938 98.175781 C 226.128906 97.78125 225.277344 97.433594 224.40625 97.132812 C 223.53125 96.832031 222.648438 96.578125 221.746094 96.375 C 220.847656 96.175781 219.941406 96.019531 219.023438 95.917969 C 218.105469 95.816406 217.1875 95.765625 216.265625 95.761719 C 214.183594 95.761719 212.132812 96.015625 210.109375 96.523438 C 208.089844 97.035156 206.164062 97.785156 204.332031 98.773438 C 202.5 99.761719 200.8125 100.960938 199.277344 102.371094 C 197.746094 103.78125 196.40625 105.355469 195.261719 107.097656 Z M 195.261719 107.097656 " fill-opacity="1" fill-rule="nonzero"/><path fill="#0033ad" d="M 238.859375 211.988281 C 238.191406 210.664062 237.410156 209.410156 236.523438 208.222656 C 235.632812 207.039062 234.644531 205.941406 233.558594 204.929688 C 232.476562 203.917969 231.3125 203.011719 230.066406 202.207031 C 228.820312 201.402344 227.511719 200.714844 226.144531 200.144531 C 224.777344 199.570312 223.371094 199.125 221.925781 198.800781 C 220.480469 198.476562 219.015625 198.285156 217.535156 198.222656 C 216.054688 198.160156 214.578125 198.226562 213.109375 198.425781 C 211.640625 198.625 210.199219 198.953125 208.789062 199.40625 C 207.378906 199.859375 206.019531 200.4375 204.710938 201.132812 C 203.402344 201.828125 202.164062 202.632812 200.996094 203.546875 C 199.832031 204.460938 198.753906 205.472656 197.765625 206.578125 C 196.78125 207.683594 195.898438 208.871094 195.121094 210.132812 C 194.34375 211.394531 193.683594 212.714844 193.140625 214.097656 C 192.597656 215.476562 192.179688 216.890625 191.890625 218.347656 C 191.597656 219.800781 191.4375 221.269531 191.40625 222.75 C 191.375 224.234375 191.472656 225.707031 191.703125 227.171875 C 191.933594 228.636719 192.289062 230.070312 192.773438 231.472656 C 193.257812 232.871094 193.859375 234.21875 194.582031 235.515625 C 195.304688 236.808594 196.136719 238.03125 197.078125 239.175781 C 198.015625 240.324219 199.046875 241.378906 200.175781 242.34375 C 201.300781 243.308594 202.503906 244.164062 203.78125 244.914062 C 205.058594 245.664062 206.394531 246.296875 207.785156 246.808594 C 209.175781 247.324219 210.601562 247.710938 212.058594 247.972656 C 213.519531 248.234375 214.988281 248.363281 216.472656 248.363281 C 220.449219 248.335938 224.210938 247.421875 227.761719 245.621094 C 228.492188 245.253906 229.203125 244.847656 229.894531 244.40625 C 230.585938 243.96875 231.253906 243.496094 231.898438 242.988281 C 232.542969 242.484375 233.164062 241.949219 233.757812 241.382812 C 234.347656 240.816406 234.914062 240.222656 235.445312 239.601562 C 235.980469 238.980469 236.484375 238.332031 236.957031 237.660156 C 237.425781 236.992188 237.863281 236.300781 238.265625 235.585938 C 238.671875 234.871094 239.039062 234.140625 239.371094 233.390625 C 239.703125 232.640625 239.996094 231.875 240.253906 231.097656 C 240.507812 230.320312 240.726562 229.53125 240.90625 228.730469 C 241.085938 227.929688 241.226562 227.125 241.328125 226.308594 C 241.425781 225.496094 241.488281 224.679688 241.507812 223.859375 C 241.527344 223.042969 241.507812 222.222656 241.449219 221.40625 C 241.390625 220.585938 241.289062 219.773438 241.152344 218.964844 C 241.011719 218.160156 240.832031 217.359375 240.617188 216.570312 C 240.398438 215.777344 240.144531 215 239.847656 214.234375 C 239.554688 213.46875 239.226562 212.722656 238.859375 211.988281 Z M 238.859375 211.988281 " fill-opacity="1" fill-rule="nonzero"/><path fill="#0033ad" d="M 282.671875 210.234375 C 281.863281 209.703125 281.007812 209.253906 280.113281 208.890625 C 279.214844 208.527344 278.292969 208.257812 277.339844 208.074219 C 276.390625 207.894531 275.429688 207.808594 274.460938 207.816406 C 273.496094 207.824219 272.535156 207.925781 271.589844 208.121094 C 270.640625 208.320312 269.722656 208.605469 268.828125 208.984375 C 267.9375 209.363281 267.09375 209.824219 266.292969 210.367188 C 265.492188 210.910156 264.753906 211.53125 264.074219 212.21875 C 263.394531 212.910156 262.789062 213.660156 262.257812 214.46875 C 261.726562 215.277344 261.28125 216.132812 260.917969 217.03125 C 260.554688 217.925781 260.28125 218.851562 260.101562 219.804688 C 259.917969 220.753906 259.832031 221.714844 259.839844 222.683594 C 259.847656 223.652344 259.949219 224.609375 260.148438 225.558594 C 260.34375 226.503906 260.632812 227.425781 261.007812 228.316406 C 261.386719 229.207031 261.847656 230.054688 262.390625 230.855469 C 262.9375 231.65625 263.554688 232.394531 264.242188 233.074219 C 264.933594 233.753906 265.683594 234.359375 266.492188 234.890625 C 267.300781 235.421875 268.15625 235.871094 269.050781 236.234375 C 269.949219 236.597656 270.871094 236.867188 271.824219 237.050781 C 272.773438 237.230469 273.734375 237.316406 274.703125 237.308594 C 275.667969 237.300781 276.628906 237.199219 277.574219 237.003906 C 278.523438 236.804688 279.441406 236.519531 280.335938 236.140625 C 281.226562 235.761719 282.070312 235.300781 282.871094 234.757812 C 283.671875 234.214844 284.410156 233.59375 285.089844 232.90625 C 285.769531 232.214844 286.375 231.464844 286.90625 230.65625 C 287.433594 229.847656 287.878906 228.992188 288.242188 228.09375 C 288.605469 227.195312 288.875 226.273438 289.054688 225.320312 C 289.234375 224.371094 289.320312 223.410156 289.3125 222.441406 C 289.304688 221.476562 289.203125 220.519531 289.003906 219.570312 C 288.808594 218.621094 288.523438 217.703125 288.144531 216.8125 C 287.769531 215.921875 287.308594 215.074219 286.765625 214.273438 C 286.222656 213.472656 285.605469 212.730469 284.917969 212.050781 C 284.226562 211.371094 283.480469 210.765625 282.671875 210.234375 Z M 282.671875 210.234375 " fill-opacity="1" fill-rule="nonzero"/><path fill="#0033ad" d="M 330.679688 172.558594 C 330.726562 171.734375 330.691406 170.917969 330.578125 170.105469 C 330.460938 169.289062 330.269531 168.492188 329.996094 167.71875 C 329.726562 166.941406 329.382812 166.199219 328.964844 165.492188 C 328.546875 164.78125 328.066406 164.121094 327.515625 163.507812 C 326.96875 162.894531 326.367188 162.339844 325.710938 161.84375 C 325.054688 161.351562 324.355469 160.925781 323.617188 160.566406 C 322.875 160.210938 322.105469 159.929688 321.3125 159.722656 C 320.515625 159.515625 319.707031 159.390625 318.886719 159.34375 C 318.066406 159.296875 317.25 159.332031 316.433594 159.445312 C 315.621094 159.558594 314.824219 159.753906 314.046875 160.023438 C 313.273438 160.296875 312.53125 160.640625 311.820312 161.054688 C 311.113281 161.472656 310.453125 161.957031 309.839844 162.503906 C 309.226562 163.050781 308.671875 163.652344 308.175781 164.308594 C 307.683594 164.964844 307.257812 165.664062 306.898438 166.40625 C 306.542969 167.144531 306.261719 167.914062 306.054688 168.710938 C 305.847656 169.507812 305.722656 170.316406 305.675781 171.136719 C 305.628906 171.957031 305.660156 172.773438 305.773438 173.589844 C 305.890625 174.402344 306.082031 175.199219 306.351562 175.976562 C 306.621094 176.753906 306.96875 177.496094 307.382812 178.203125 C 307.800781 178.914062 308.28125 179.574219 308.828125 180.1875 C 309.375 180.800781 309.976562 181.355469 310.632812 181.851562 C 311.289062 182.347656 311.988281 182.773438 312.730469 183.128906 C 313.46875 183.488281 314.238281 183.769531 315.03125 183.976562 C 315.828125 184.183594 316.636719 184.308594 317.457031 184.359375 C 318.277344 184.402344 319.097656 184.371094 319.910156 184.253906 C 320.726562 184.140625 321.519531 183.945312 322.296875 183.675781 C 323.074219 183.40625 323.816406 183.058594 324.527344 182.640625 C 325.234375 182.226562 325.894531 181.742188 326.507812 181.195312 C 327.125 180.644531 327.675781 180.042969 328.171875 179.386719 C 328.667969 178.730469 329.09375 178.03125 329.453125 177.289062 C 329.808594 176.550781 330.09375 175.78125 330.296875 174.984375 C 330.503906 174.1875 330.632812 173.378906 330.679688 172.558594 Z M 330.679688 172.558594 " fill-opacity="1" fill-rule="nonzero"/><path fill="#0033ad" d="M 365.367188 163.632812 C 364.835938 163.605469 364.308594 163.625 363.78125 163.699219 C 363.253906 163.773438 362.738281 163.898438 362.234375 164.074219 C 361.730469 164.246094 361.25 164.46875 360.792969 164.742188 C 360.332031 165.011719 359.902344 165.324219 359.507812 165.675781 C 359.109375 166.03125 358.75 166.421875 358.429688 166.847656 C 358.109375 167.273438 357.832031 167.722656 357.601562 168.203125 C 357.367188 168.683594 357.183594 169.179688 357.050781 169.695312 C 356.917969 170.210938 356.835938 170.738281 356.804688 171.269531 C 356.773438 171.800781 356.796875 172.332031 356.871094 172.859375 C 356.945312 173.386719 357.066406 173.902344 357.242188 174.402344 C 357.417969 174.90625 357.640625 175.386719 357.910156 175.847656 C 358.179688 176.308594 358.492188 176.734375 358.847656 177.132812 C 359.203125 177.53125 359.589844 177.890625 360.015625 178.210938 C 360.441406 178.53125 360.894531 178.808594 361.375 179.039062 C 361.851562 179.273438 362.351562 179.453125 362.867188 179.589844 C 363.382812 179.722656 363.90625 179.804688 364.4375 179.835938 C 364.96875 179.867188 365.496094 179.84375 366.023438 179.769531 C 366.554688 179.695312 367.066406 179.570312 367.570312 179.398438 C 368.074219 179.222656 368.554688 179 369.015625 178.730469 C 369.472656 178.457031 369.902344 178.144531 370.296875 177.792969 C 370.695312 177.4375 371.054688 177.046875 371.375 176.621094 C 371.695312 176.195312 371.972656 175.746094 372.207031 175.265625 C 372.4375 174.785156 372.621094 174.289062 372.753906 173.773438 C 372.886719 173.257812 372.96875 172.730469 373 172.199219 C 373.03125 171.667969 373.007812 171.140625 372.933594 170.613281 C 372.859375 170.085938 372.734375 169.570312 372.558594 169.066406 C 372.382812 168.5625 372.160156 168.082031 371.890625 167.625 C 371.621094 167.164062 371.308594 166.738281 370.953125 166.339844 C 370.597656 165.941406 370.210938 165.582031 369.785156 165.261719 C 369.359375 164.941406 368.910156 164.664062 368.429688 164.433594 C 367.949219 164.199219 367.453125 164.015625 366.9375 163.882812 C 366.421875 163.75 365.898438 163.664062 365.367188 163.632812 Z M 365.367188 163.632812 " fill-opacity="1" fill-rule="nonzero"/><path fill="#0033ad" d="M 332.707031 244.085938 C 332.140625 243.714844 331.542969 243.402344 330.914062 243.152344 C 330.285156 242.898438 329.640625 242.707031 328.972656 242.582031 C 328.308594 242.453125 327.636719 242.394531 326.960938 242.402344 C 326.28125 242.40625 325.613281 242.480469 324.949219 242.617188 C 324.285156 242.753906 323.644531 242.957031 323.019531 243.222656 C 322.398438 243.488281 321.804688 243.808594 321.246094 244.191406 C 320.6875 244.574219 320.167969 245.003906 319.695312 245.488281 C 319.21875 245.972656 318.796875 246.496094 318.425781 247.0625 C 318.054688 247.628906 317.742188 248.226562 317.488281 248.855469 C 317.234375 249.484375 317.042969 250.132812 316.917969 250.796875 C 316.792969 251.464844 316.730469 252.132812 316.738281 252.8125 C 316.742188 253.488281 316.816406 254.160156 316.953125 254.824219 C 317.089844 255.488281 317.292969 256.128906 317.558594 256.753906 C 317.820312 257.378906 318.144531 257.96875 318.527344 258.53125 C 318.90625 259.089844 319.339844 259.605469 319.824219 260.082031 C 320.304688 260.558594 320.832031 260.980469 321.398438 261.351562 C 321.964844 261.722656 322.558594 262.035156 323.1875 262.289062 C 323.816406 262.542969 324.460938 262.734375 325.128906 262.859375 C 325.792969 262.988281 326.464844 263.046875 327.140625 263.042969 C 327.820312 263.035156 328.488281 262.964844 329.152344 262.824219 C 329.816406 262.6875 330.460938 262.488281 331.082031 262.222656 C 331.707031 261.957031 332.296875 261.632812 332.859375 261.253906 C 333.417969 260.871094 333.933594 260.441406 334.410156 259.957031 C 334.882812 259.472656 335.308594 258.949219 335.679688 258.382812 C 336.050781 257.816406 336.363281 257.21875 336.617188 256.589844 C 336.871094 255.960938 337.0625 255.3125 337.1875 254.648438 C 337.316406 253.980469 337.375 253.308594 337.371094 252.632812 C 337.363281 251.953125 337.292969 251.28125 337.152344 250.617188 C 337.015625 249.953125 336.816406 249.3125 336.550781 248.6875 C 336.285156 248.0625 335.960938 247.472656 335.578125 246.910156 C 335.199219 246.351562 334.765625 245.832031 334.28125 245.355469 C 333.796875 244.882812 333.273438 244.460938 332.707031 244.085938 Z M 332.707031 244.085938 " fill-opacity="1" fill-rule="nonzero"/><path fill="#0033ad" d="M 102.539062 319.839844 C 102.09375 319.546875 101.621094 319.300781 101.128906 319.101562 C 100.636719 318.902344 100.128906 318.753906 99.605469 318.652344 C 99.082031 318.554688 98.554688 318.503906 98.019531 318.511719 C 97.488281 318.515625 96.960938 318.570312 96.441406 318.679688 C 95.917969 318.789062 95.414062 318.945312 94.921875 319.152344 C 94.433594 319.359375 93.96875 319.613281 93.527344 319.914062 C 93.085938 320.214844 92.679688 320.554688 92.304688 320.933594 C 91.933594 321.3125 91.601562 321.726562 91.308594 322.171875 C 91.015625 322.617188 90.769531 323.085938 90.570312 323.578125 C 90.371094 324.074219 90.21875 324.582031 90.121094 325.105469 C 90.019531 325.628906 89.972656 326.15625 89.976562 326.6875 C 89.980469 327.222656 90.039062 327.75 90.144531 328.269531 C 90.253906 328.792969 90.410156 329.296875 90.621094 329.789062 C 90.828125 330.28125 91.082031 330.746094 91.378906 331.183594 C 91.679688 331.625 92.019531 332.03125 92.398438 332.40625 C 92.777344 332.78125 93.191406 333.113281 93.636719 333.40625 C 94.082031 333.699219 94.550781 333.945312 95.042969 334.144531 C 95.539062 334.34375 96.046875 334.496094 96.570312 334.59375 C 97.09375 334.695312 97.621094 334.742188 98.152344 334.738281 C 98.683594 334.734375 99.210938 334.675781 99.734375 334.570312 C 100.253906 334.460938 100.761719 334.304688 101.25 334.09375 C 101.742188 333.886719 102.207031 333.632812 102.648438 333.335938 C 103.085938 333.035156 103.492188 332.695312 103.867188 332.316406 C 104.242188 331.9375 104.574219 331.523438 104.867188 331.078125 C 105.160156 330.632812 105.40625 330.164062 105.605469 329.667969 C 105.804688 329.175781 105.957031 328.667969 106.054688 328.144531 C 106.15625 327.621094 106.203125 327.089844 106.199219 326.558594 C 106.195312 326.027344 106.136719 325.5 106.03125 324.976562 C 105.921875 324.453125 105.761719 323.949219 105.554688 323.457031 C 105.347656 322.96875 105.09375 322.5 104.792969 322.0625 C 104.496094 321.621094 104.15625 321.210938 103.773438 320.839844 C 103.394531 320.464844 102.984375 320.132812 102.539062 319.839844 Z M 102.539062 319.839844 " fill-opacity="1" fill-rule="nonzero"/><path fill="#0033ad" d="M 272.535156 318.988281 C 272.058594 319.230469 271.609375 319.515625 271.191406 319.84375 C 270.769531 320.167969 270.386719 320.535156 270.039062 320.9375 C 269.691406 321.34375 269.386719 321.777344 269.125 322.242188 C 268.863281 322.703125 268.648438 323.1875 268.480469 323.695312 C 268.316406 324.199219 268.199219 324.71875 268.132812 325.246094 C 268.070312 325.777344 268.054688 326.304688 268.097656 326.835938 C 268.136719 327.367188 268.226562 327.890625 268.367188 328.40625 C 268.511719 328.917969 268.703125 329.414062 268.941406 329.886719 C 269.183594 330.363281 269.464844 330.8125 269.792969 331.230469 C 270.121094 331.652344 270.488281 332.035156 270.890625 332.382812 C 271.292969 332.730469 271.726562 333.035156 272.191406 333.296875 C 272.65625 333.558594 273.140625 333.773438 273.644531 333.941406 C 274.152344 334.109375 274.667969 334.222656 275.199219 334.289062 C 275.726562 334.355469 276.257812 334.367188 276.785156 334.328125 C 277.316406 334.289062 277.839844 334.195312 278.351562 334.054688 C 278.867188 333.910156 279.359375 333.71875 279.835938 333.480469 C 280.3125 333.242188 280.757812 332.957031 281.179688 332.628906 C 281.597656 332.300781 281.984375 331.933594 282.332031 331.53125 C 282.675781 331.125 282.984375 330.691406 283.246094 330.230469 C 283.507812 329.765625 283.722656 329.28125 283.886719 328.773438 C 284.054688 328.269531 284.171875 327.75 284.234375 327.222656 C 284.300781 326.691406 284.3125 326.164062 284.273438 325.632812 C 284.234375 325.101562 284.140625 324.578125 284 324.066406 C 283.855469 323.550781 283.664062 323.058594 283.425781 322.582031 C 283.1875 322.105469 282.902344 321.65625 282.574219 321.238281 C 282.25 320.816406 281.882812 320.433594 281.480469 320.082031 C 281.074219 319.734375 280.640625 319.429688 280.179688 319.167969 C 279.714844 318.90625 279.230469 318.691406 278.726562 318.523438 C 278.21875 318.355469 277.703125 318.242188 277.171875 318.175781 C 276.644531 318.113281 276.113281 318.101562 275.582031 318.140625 C 275.050781 318.179688 274.53125 318.269531 274.015625 318.414062 C 273.503906 318.558594 273.007812 318.75 272.535156 318.988281 Z M 272.535156 318.988281 " fill-opacity="1" fill-rule="nonzero"/><path fill="#0033ad" d="M 178.328125 237.109375 C 178.835938 236.339844 179.296875 235.542969 179.714844 234.71875 C 180.132812 233.898438 180.503906 233.054688 180.828125 232.191406 C 181.152344 231.328125 181.425781 230.449219 181.65625 229.554688 C 181.882812 228.660156 182.058594 227.753906 182.1875 226.84375 C 182.316406 225.929688 182.394531 225.011719 182.417969 224.089844 C 182.445312 223.164062 182.421875 222.246094 182.347656 221.324219 C 182.273438 220.40625 182.148438 219.492188 181.972656 218.585938 C 181.796875 217.679688 181.570312 216.789062 181.296875 215.90625 C 181.023438 215.027344 180.699219 214.164062 180.332031 213.316406 C 179.960938 212.472656 179.546875 211.648438 179.085938 210.851562 C 178.625 210.050781 178.125 209.277344 177.578125 208.535156 C 177.03125 207.789062 176.449219 207.078125 175.824219 206.398438 C 175.199219 205.71875 174.542969 205.078125 173.847656 204.46875 C 173.152344 203.863281 172.425781 203.296875 171.667969 202.769531 C 170.910156 202.242188 170.128906 201.757812 169.316406 201.320312 C 168.507812 200.878906 167.671875 200.484375 166.820312 200.136719 C 165.964844 199.789062 165.09375 199.488281 164.207031 199.238281 C 163.320312 198.984375 162.421875 198.78125 161.511719 198.628906 C 160.601562 198.476562 159.6875 198.375 158.765625 198.320312 C 157.847656 198.269531 156.925781 198.269531 156.003906 198.320312 C 155.082031 198.367188 154.167969 198.46875 153.257812 198.621094 C 152.347656 198.769531 151.449219 198.972656 150.5625 199.222656 C 149.675781 199.472656 148.804688 199.769531 147.949219 200.117188 C 147.09375 200.460938 146.261719 200.855469 145.449219 201.292969 C 144.636719 201.730469 143.851562 202.214844 143.09375 202.738281 C 142.335938 203.261719 141.609375 203.828125 140.910156 204.433594 C 140.214844 205.039062 139.554688 205.679688 138.929688 206.359375 C 138.304688 207.035156 137.71875 207.746094 137.171875 208.488281 C 136.625 209.234375 136.121094 210.003906 135.65625 210.800781 C 135.195312 211.601562 134.777344 212.421875 134.40625 213.265625 C 134.035156 214.113281 133.710938 214.972656 133.4375 215.855469 C 133.160156 216.734375 132.933594 217.628906 132.753906 218.53125 C 132.578125 219.4375 132.449219 220.351562 132.375 221.269531 C 132.296875 222.1875 132.269531 223.109375 132.296875 224.03125 C 132.320312 224.953125 132.394531 225.871094 132.519531 226.785156 C 132.648438 227.699219 132.820312 228.605469 133.046875 229.5 C 133.273438 230.394531 133.546875 231.273438 133.871094 232.136719 C 134.191406 233.003906 134.5625 233.847656 134.976562 234.671875 C 135.394531 235.492188 135.851562 236.292969 136.355469 237.066406 C 136.859375 237.835938 137.40625 238.582031 137.992188 239.292969 C 138.578125 240.003906 139.199219 240.683594 139.859375 241.328125 C 140.519531 241.972656 141.214844 242.578125 141.941406 243.144531 C 142.667969 243.710938 143.425781 244.238281 144.210938 244.722656 C 144.996094 245.207031 145.804688 245.644531 146.640625 246.039062 C 147.472656 246.433594 148.328125 246.78125 149.199219 247.082031 C 150.070312 247.382812 150.957031 247.632812 151.855469 247.835938 C 152.757812 248.039062 153.664062 248.191406 154.582031 248.292969 C 155.496094 248.394531 156.417969 248.445312 157.339844 248.445312 C 159.421875 248.453125 161.476562 248.203125 163.496094 247.695312 C 165.515625 247.1875 167.441406 246.441406 169.277344 245.449219 C 171.109375 244.460938 172.792969 243.261719 174.324219 241.847656 C 175.855469 240.4375 177.191406 238.859375 178.328125 237.109375 Z M 178.328125 237.109375 " fill-opacity="1" fill-rule="nonzero"/><path fill="#0033ad" d="M 128.226562 275.609375 C 127.539062 275.160156 126.8125 274.78125 126.050781 274.476562 C 125.289062 274.167969 124.503906 273.9375 123.695312 273.785156 C 122.886719 273.632812 122.074219 273.558594 121.25 273.566406 C 120.429688 273.574219 119.613281 273.664062 118.808594 273.832031 C 118.003906 274 117.226562 274.246094 116.46875 274.566406 C 115.710938 274.890625 114.996094 275.28125 114.316406 275.746094 C 113.636719 276.207031 113.007812 276.734375 112.433594 277.320312 C 111.855469 277.90625 111.34375 278.542969 110.894531 279.234375 C 110.445312 279.921875 110.066406 280.644531 109.757812 281.410156 C 109.449219 282.171875 109.21875 282.957031 109.066406 283.765625 C 108.914062 284.574219 108.839844 285.386719 108.847656 286.210938 C 108.855469 287.03125 108.945312 287.847656 109.113281 288.652344 C 109.28125 289.457031 109.523438 290.238281 109.847656 290.996094 C 110.167969 291.75 110.558594 292.46875 111.023438 293.148438 C 111.484375 293.828125 112.011719 294.457031 112.597656 295.03125 C 113.183594 295.609375 113.820312 296.121094 114.507812 296.574219 C 115.195312 297.023438 115.921875 297.402344 116.683594 297.710938 C 117.445312 298.019531 118.230469 298.25 119.039062 298.402344 C 119.847656 298.554688 120.660156 298.628906 121.484375 298.621094 C 122.304688 298.613281 123.117188 298.527344 123.921875 298.359375 C 124.726562 298.191406 125.507812 297.945312 126.265625 297.625 C 127.023438 297.304688 127.738281 296.910156 128.417969 296.449219 C 129.097656 295.984375 129.726562 295.460938 130.300781 294.875 C 130.878906 294.289062 131.390625 293.652344 131.84375 292.960938 C 132.292969 292.273438 132.671875 291.546875 132.980469 290.785156 C 133.285156 290.023438 133.515625 289.234375 133.667969 288.425781 C 133.824219 287.617188 133.894531 286.804688 133.886719 285.980469 C 133.878906 285.15625 133.792969 284.34375 133.625 283.539062 C 133.457031 282.734375 133.210938 281.953125 132.890625 281.195312 C 132.566406 280.4375 132.175781 279.71875 131.710938 279.039062 C 131.25 278.359375 130.722656 277.730469 130.136719 277.152344 C 129.550781 276.578125 128.914062 276.0625 128.226562 275.609375 Z M 128.226562 275.609375 " fill-opacity="1" fill-rule="nonzero"/><g clip-path="url(#7040e0c171)"><path fill="#0033ad" d="M 186.6875 323.621094 C 186.011719 323.585938 185.335938 323.613281 184.664062 323.707031 C 183.996094 323.800781 183.339844 323.960938 182.699219 324.183594 C 182.0625 324.40625 181.449219 324.6875 180.867188 325.03125 C 180.28125 325.378906 179.738281 325.773438 179.230469 326.226562 C 178.726562 326.675781 178.269531 327.171875 177.863281 327.714844 C 177.453125 328.253906 177.105469 328.832031 176.808594 329.441406 C 176.515625 330.050781 176.28125 330.683594 176.113281 331.339844 C 175.945312 331.996094 175.839844 332.660156 175.800781 333.339844 C 175.761719 334.015625 175.789062 334.6875 175.882812 335.359375 C 175.976562 336.03125 176.136719 336.6875 176.359375 337.324219 C 176.582031 337.964844 176.867188 338.578125 177.210938 339.160156 C 177.554688 339.746094 177.949219 340.289062 178.402344 340.796875 C 178.851562 341.300781 179.347656 341.757812 179.886719 342.167969 C 180.429688 342.574219 181.003906 342.925781 181.613281 343.21875 C 182.222656 343.515625 182.855469 343.746094 183.511719 343.917969 C 184.167969 344.085938 184.835938 344.191406 185.511719 344.230469 C 186.1875 344.269531 186.859375 344.242188 187.53125 344.148438 C 188.203125 344.054688 188.855469 343.894531 189.496094 343.671875 C 190.136719 343.449219 190.746094 343.164062 191.332031 342.820312 C 191.914062 342.476562 192.460938 342.082031 192.964844 341.628906 C 193.472656 341.179688 193.925781 340.683594 194.335938 340.144531 C 194.742188 339.601562 195.09375 339.027344 195.390625 338.417969 C 195.683594 337.804688 195.917969 337.171875 196.085938 336.515625 C 196.257812 335.863281 196.359375 335.195312 196.398438 334.519531 C 196.4375 333.84375 196.410156 333.167969 196.316406 332.496094 C 196.222656 331.824219 196.066406 331.167969 195.84375 330.527344 C 195.617188 329.890625 195.335938 329.277344 194.992188 328.691406 C 194.648438 328.109375 194.25 327.5625 193.800781 327.058594 C 193.347656 326.550781 192.851562 326.09375 192.3125 325.6875 C 191.769531 325.277344 191.195312 324.925781 190.585938 324.632812 C 189.972656 324.335938 189.339844 324.105469 188.683594 323.933594 C 188.027344 323.765625 187.363281 323.660156 186.6875 323.621094 Z M 186.6875 323.621094 " fill-opacity="1" fill-rule="nonzero"/></g><path fill="#0033ad" d="M 186.796875 258.683594 C 185.828125 258.625 184.867188 258.660156 183.90625 258.792969 C 182.945312 258.925781 182.007812 259.148438 181.09375 259.464844 C 180.175781 259.78125 179.300781 260.183594 178.464844 260.671875 C 177.628906 261.160156 176.847656 261.726562 176.121094 262.371094 C 175.398438 263.011719 174.742188 263.71875 174.15625 264.492188 C 173.570312 265.265625 173.066406 266.085938 172.644531 266.957031 C 172.21875 267.828125 171.886719 268.734375 171.640625 269.671875 C 171.394531 270.609375 171.242188 271.5625 171.1875 272.53125 C 171.128906 273.496094 171.164062 274.460938 171.296875 275.421875 C 171.429688 276.382812 171.65625 277.320312 171.972656 278.234375 C 172.289062 279.148438 172.695312 280.027344 173.183594 280.863281 C 173.671875 281.699219 174.242188 282.480469 174.882812 283.203125 C 175.527344 283.925781 176.234375 284.582031 177.007812 285.167969 C 177.78125 285.75 178.601562 286.253906 179.476562 286.675781 C 180.347656 287.101562 181.25 287.433594 182.1875 287.675781 C 183.125 287.921875 184.078125 288.070312 185.046875 288.128906 C 186.011719 288.183594 186.976562 288.144531 187.9375 288.011719 C 188.894531 287.878906 189.832031 287.652344 190.75 287.332031 C 191.664062 287.015625 192.539062 286.609375 193.375 286.117188 C 194.207031 285.625 194.988281 285.058594 195.710938 284.414062 C 196.433594 283.769531 197.085938 283.058594 197.671875 282.285156 C 198.253906 281.511719 198.757812 280.6875 199.175781 279.816406 C 199.597656 278.941406 199.929688 278.039062 200.171875 277.097656 C 200.414062 276.160156 200.566406 275.207031 200.621094 274.242188 C 200.675781 273.277344 200.636719 272.316406 200.503906 271.359375 C 200.371094 270.402344 200.144531 269.46875 199.828125 268.554688 C 199.511719 267.640625 199.109375 266.769531 198.617188 265.9375 C 198.128906 265.101562 197.566406 264.324219 196.921875 263.601562 C 196.28125 262.878906 195.574219 262.226562 194.804688 261.644531 C 194.035156 261.0625 193.214844 260.558594 192.347656 260.136719 C 191.480469 259.714844 190.578125 259.382812 189.644531 259.136719 C 188.707031 258.894531 187.761719 258.742188 186.796875 258.683594 Z M 186.796875 258.683594 " fill-opacity="1" fill-rule="nonzero"/><path fill="#0033ad" d="M 247.09375 274.609375 C 246.355469 274.984375 245.667969 275.425781 245.019531 275.933594 C 244.371094 276.441406 243.78125 277.007812 243.242188 277.636719 C 242.707031 278.261719 242.238281 278.933594 241.835938 279.652344 C 241.429688 280.371094 241.101562 281.121094 240.847656 281.902344 C 240.589844 282.6875 240.414062 283.488281 240.316406 284.304688 C 240.21875 285.125 240.203125 285.941406 240.265625 286.765625 C 240.328125 287.585938 240.472656 288.394531 240.695312 289.1875 C 240.917969 289.980469 241.214844 290.742188 241.589844 291.476562 C 241.960938 292.210938 242.402344 292.902344 242.914062 293.550781 C 243.421875 294.199219 243.988281 294.789062 244.617188 295.324219 C 245.242188 295.859375 245.914062 296.328125 246.632812 296.730469 C 247.351562 297.136719 248.101562 297.464844 248.882812 297.71875 C 249.667969 297.972656 250.46875 298.148438 251.285156 298.246094 C 252.101562 298.34375 252.921875 298.359375 253.742188 298.296875 C 254.566406 298.230469 255.371094 298.089844 256.164062 297.863281 C 256.957031 297.640625 257.71875 297.34375 258.453125 296.96875 C 259.1875 296.59375 259.878906 296.152344 260.523438 295.644531 C 261.171875 295.132812 261.761719 294.5625 262.296875 293.9375 C 262.832031 293.3125 263.300781 292.636719 263.703125 291.917969 C 264.105469 291.199219 264.433594 290.449219 264.6875 289.664062 C 264.941406 288.882812 265.117188 288.082031 265.214844 287.261719 C 265.308594 286.445312 265.324219 285.625 265.261719 284.804688 C 265.195312 283.984375 265.050781 283.175781 264.828125 282.382812 C 264.601562 281.589844 264.304688 280.828125 263.929688 280.09375 C 263.558594 279.359375 263.117188 278.667969 262.609375 278.023438 C 262.101562 277.375 261.535156 276.785156 260.910156 276.25 C 260.285156 275.714844 259.613281 275.246094 258.894531 274.84375 C 258.179688 274.441406 257.429688 274.113281 256.648438 273.859375 C 255.867188 273.605469 255.066406 273.429688 254.25 273.332031 C 253.433594 273.234375 252.613281 273.21875 251.792969 273.28125 C 250.976562 273.347656 250.167969 273.492188 249.378906 273.714844 C 248.585938 273.9375 247.824219 274.238281 247.09375 274.609375 Z M 247.09375 274.609375 " fill-opacity="1" fill-rule="nonzero"/></svg>