<svg xmlns="http://www.w3.org/2000/svg" xmlns:xlink="http://www.w3.org/1999/xlink" width="500" zoomAndPan="magnify" viewBox="0 0 375 374.999991" height="500" preserveAspectRatio="xMidYMid meet" version="1.0"><path fill="#1d63ed" d="M 369.578125 125.421875 C 360.460938 119.28125 336.5 116.664062 319.082031 121.355469 C 318.144531 104.003906 309.195312 89.378906 292.824219 76.625 L 286.769531 72.558594 L 282.730469 78.660156 C 274.792969 90.707031 271.449219 106.761719 272.628906 121.359375 C 273.566406 130.351562 276.691406 140.457031 282.730469 147.792969 C 260.054688 160.945312 239.160156 157.960938 146.605469 157.960938 L 3.714844 157.960938 C 3.296875 178.859375 6.65625 219.058594 32.222656 251.785156 C 35.042969 255.402344 38.140625 258.898438 41.5 262.265625 C 62.285156 283.078125 93.691406 298.34375 140.648438 298.382812 C 212.285156 298.449219 273.664062 259.722656 311.003906 166.09375 C 323.292969 166.296875 355.722656 168.292969 371.589844 137.625 C 371.976562 137.109375 375.628906 129.492188 375.628906 129.492188 L 369.578125 125.425781 Z M 96.96875 103.851562 L 56.785156 103.851562 L 56.785156 144.035156 L 96.96875 144.035156 Z M 148.882812 103.851562 L 108.699219 103.851562 L 108.699219 144.035156 L 148.882812 144.035156 Z M 200.796875 103.851562 L 160.613281 103.851562 L 160.613281 144.035156 L 200.796875 144.035156 Z M 252.710938 103.851562 L 212.527344 103.851562 L 212.527344 144.035156 L 252.710938 144.035156 Z M 45.066406 103.851562 L 4.871094 103.851562 L 4.871094 144.035156 L 45.054688 144.035156 L 45.054688 103.851562 Z M 96.980469 53.097656 L 56.796875 53.097656 L 56.796875 93.277344 L 96.980469 93.277344 Z M 148.894531 53.097656 L 108.710938 53.097656 L 108.710938 93.277344 L 148.894531 93.277344 Z M 200.804688 53.097656 L 160.625 53.097656 L 160.625 93.277344 L 200.804688 93.277344 Z M 200.789062 2.347656 L 160.609375 2.347656 L 160.609375 42.527344 L 200.789062 42.527344 Z M 1287.570312 236.375 C 1287.570312 246.808594 1279.375 255.003906 1268.71875 255.003906 C 1258.0625 255.003906 1249.753906 246.808594 1249.753906 236.375 C 1249.753906 225.9375 1258.167969 217.96875 1268.71875 217.96875 C 1279.273438 217.96875 1287.570312 226.164062 1287.570312 236.375 Z M 1254.464844 236.375 C 1254.464844 244.566406 1260.527344 251.074219 1268.828125 251.074219 C 1277.132812 251.074219 1282.859375 244.566406 1282.859375 236.488281 C 1282.859375 228.410156 1276.90625 221.671875 1268.726562 221.671875 C 1260.542969 221.671875 1254.46875 228.296875 1254.46875 236.375 Z M 1265.804688 246.027344 L 1261.539062 246.027344 L 1261.539062 227.621094 C 1263.214844 227.285156 1265.578125 227.0625 1268.605469 227.0625 C 1272.085938 227.0625 1273.652344 227.621094 1275 228.410156 C 1276.015625 229.191406 1276.796875 230.652344 1276.796875 232.449219 C 1276.796875 234.472656 1275.226562 236.042969 1272.992188 236.714844 L 1272.992188 236.941406 C 1274.777344 237.609375 1275.789062 238.957031 1276.351562 241.425781 C 1276.90625 244.230469 1277.246094 245.355469 1277.703125 246.027344 L 1273.101562 246.027344 C 1272.539062 245.355469 1272.195312 243.675781 1271.640625 241.535156 C 1271.304688 239.519531 1270.179688 238.621094 1267.820312 238.621094 L 1265.804688 238.621094 L 1265.804688 246.03125 Z M 1265.914062 235.589844 L 1267.933594 235.589844 C 1270.289062 235.589844 1272.195312 234.808594 1272.195312 232.902344 C 1272.195312 231.214844 1270.96875 230.085938 1268.269531 230.085938 C 1267.148438 230.085938 1266.359375 230.203125 1265.914062 230.324219 Z M 564.449219 50.109375 C 561.808594 47.53125 558.640625 46.21875 554.84375 46.21875 C 551.046875 46.21875 547.785156 47.53125 545.246094 50.109375 C 542.699219 52.6875 541.453125 55.996094 541.453125 59.933594 L 541.453125 125.730469 C 528.394531 114.933594 513.324219 109.492188 496.179688 109.492188 C 476.253906 109.492188 459.21875 116.6875 445.101562 131.128906 C 430.980469 145.523438 423.972656 162.9375 423.972656 183.359375 C 423.972656 203.777344 431.03125 221.140625 445.101562 235.585938 C 459.21875 249.976562 476.210938 257.226562 496.179688 257.226562 C 516.152344 257.226562 532.957031 250.027344 547.261719 235.585938 C 561.378906 221.335938 568.390625 203.929688 568.390625 183.359375 L 568.390625 59.929688 C 568.390625 55.988281 567.09375 52.683594 564.449219 50.105469 Z M 537.902344 201.15625 L 537.902344 201.253906 C 535.546875 206.847656 532.328125 211.757812 528.253906 215.941406 C 524.175781 220.171875 519.371094 223.480469 513.898438 225.957031 C 508.375 228.4375 502.519531 229.65625 496.230469 229.65625 C 489.945312 229.65625 483.941406 228.4375 478.421875 225.957031 C 472.898438 223.480469 468.144531 220.171875 464.117188 215.992188 C 460.082031 211.808594 456.871094 206.898438 454.515625 201.304688 C 452.164062 195.664062 450.960938 189.683594 450.960938 183.359375 C 450.960938 177.03125 452.164062 171.054688 454.515625 165.410156 C 456.871094 159.765625 460.089844 154.90625 464.117188 150.726562 C 468.148438 146.542969 472.949219 143.234375 478.421875 140.757812 C 483.941406 138.277344 489.851562 137.058594 496.230469 137.058594 C 502.613281 137.058594 508.375 138.277344 513.898438 140.757812 C 519.417969 143.234375 524.175781 146.542969 528.253906 150.773438 C 532.328125 155.007812 535.546875 159.917969 537.902344 165.460938 C 540.253906 171.054688 541.453125 176.988281 541.453125 183.308594 C 541.453125 189.628906 540.253906 195.613281 537.902344 201.15625 Z M 1161.011719 155.007812 C 1157.507812 146.25 1152.167969 138.328125 1145.164062 131.222656 L 1145.070312 131.175781 C 1130.808594 116.78125 1113.761719 109.535156 1093.988281 109.535156 C 1074.21875 109.535156 1057.019531 116.730469 1042.902344 131.175781 C 1028.785156 145.566406 1021.78125 162.980469 1021.78125 183.402344 C 1021.78125 203.824219 1028.839844 221.1875 1042.902344 235.628906 C 1057.019531 250.023438 1074.019531 257.269531 1093.988281 257.269531 C 1112.128906 257.269531 1127.828125 251.289062 1141.179688 239.328125 C 1143.765625 236.605469 1145.070312 233.296875 1145.070312 229.453125 C 1145.070312 225.605469 1143.824219 222.207031 1141.273438 219.628906 C 1138.734375 217.046875 1135.515625 215.738281 1131.675781 215.738281 C 1128.320312 215.835938 1125.339844 216.953125 1122.796875 219.191406 C 1118.765625 222.691406 1114.394531 225.367188 1109.644531 227.121094 C 1104.890625 228.875 1099.703125 229.75 1094.046875 229.75 C 1089.046875 229.75 1084.246094 228.972656 1079.691406 227.371094 C 1075.121094 225.765625 1070.855469 223.574219 1067.058594 220.707031 C 1063.214844 217.835938 1059.90625 214.4375 1057.074219 210.398438 C 1054.242188 206.40625 1052.082031 201.984375 1050.644531 197.121094 L 1152.765625 197.121094 C 1156.550781 197.121094 1159.71875 195.8125 1162.363281 193.230469 C 1165.007812 190.652344 1166.304688 187.347656 1166.304688 183.40625 C 1166.304688 173.195312 1164.519531 163.714844 1161.023438 155.007812 Z M 1050.539062 169.691406 C 1051.933594 164.875 1054.042969 160.449219 1056.878906 156.417969 C 1059.714844 152.425781 1063.070312 148.976562 1066.910156 146.105469 C 1070.800781 143.234375 1075.023438 141.046875 1079.679688 139.445312 C 1084.332031 137.839844 1089.082031 137.066406 1093.988281 137.066406 C 1098.898438 137.066406 1103.636719 137.839844 1108.238281 139.445312 C 1112.851562 141.046875 1117.085938 143.234375 1120.871094 146.105469 C 1124.714844 148.976562 1128.070312 152.378906 1130.902344 156.417969 C 1133.78125 160.40625 1135.953125 164.832031 1137.441406 169.691406 L 1050.535156 169.691406 Z M 1286.5 118.777344 C 1284.097656 116.394531 1281.074219 114.542969 1277.425781 113.183594 C 1273.777344 111.820312 1269.792969 110.894531 1265.425781 110.359375 C 1261.105469 109.828125 1257.019531 109.585938 1253.234375 109.585938 C 1244.632812 109.585938 1236.570312 110.996094 1228.988281 113.816406 C 1221.402344 116.636719 1214.390625 120.671875 1207.957031 125.921875 L 1207.957031 123.300781 C 1207.957031 119.507812 1206.660156 116.296875 1204.015625 113.625 C 1201.382812 110.949219 1198.257812 109.589844 1194.566406 109.589844 C 1190.875 109.589844 1187.601562 110.949219 1184.96875 113.625 C 1182.320312 116.296875 1181.027344 119.558594 1181.027344 123.300781 L 1181.027344 243.5625 C 1181.027344 247.355469 1182.320312 250.566406 1184.96875 253.242188 C 1187.601562 255.914062 1190.769531 257.273438 1194.566406 257.273438 C 1198.363281 257.273438 1201.425781 255.914062 1204.015625 253.242188 C 1206.660156 250.566406 1207.957031 247.304688 1207.957031 243.5625 L 1207.957031 183.40625 C 1207.957031 176.988281 1209.15625 170.960938 1211.511719 165.316406 C 1213.863281 159.671875 1217.082031 154.8125 1221.160156 150.632812 C 1225.25 146.449219 1230.046875 143.140625 1235.515625 140.757812 C 1241.035156 138.328125 1246.898438 137.109375 1253.191406 137.109375 C 1259.484375 137.109375 1265.425781 138.226562 1270.859375 140.414062 C 1273.011719 141.390625 1274.890625 141.875 1276.523438 141.875 C 1278.394531 141.875 1280.171875 141.535156 1281.800781 140.804688 C 1283.433594 140.078125 1284.875 139.101562 1286.078125 137.839844 C 1287.277344 136.578125 1288.230469 135.121094 1288.953125 133.417969 C 1289.675781 131.761719 1290.0625 129.960938 1290.0625 128.015625 C 1290.0625 124.226562 1288.859375 121.160156 1286.464844 118.777344 L 1286.507812 118.777344 Z M 722.78125 155.050781 C 719.277344 146.34375 714.042969 138.371094 706.988281 131.175781 C 692.730469 116.78125 675.6875 109.535156 655.90625 109.535156 C 636.125 109.535156 618.941406 116.730469 604.824219 131.175781 C 590.707031 145.566406 583.703125 162.980469 583.703125 183.402344 C 583.703125 203.824219 590.761719 221.1875 604.824219 235.628906 C 618.941406 250.023438 635.9375 257.269531 655.90625 257.269531 C 675.875 257.269531 692.683594 250.070312 706.988281 235.628906 C 721.105469 221.378906 728.113281 203.972656 728.113281 183.402344 C 728.015625 173.191406 726.242188 163.757812 722.785156 155.050781 Z M 697.625 201.152344 L 697.625 201.25 C 695.273438 206.84375 692.054688 211.753906 687.976562 215.933594 C 683.898438 220.167969 679.09375 223.472656 673.621094 225.953125 C 668.152344 228.433594 662.242188 229.652344 655.957031 229.652344 C 649.667969 229.652344 643.667969 228.433594 638.144531 225.953125 C 632.625 223.472656 627.871094 220.167969 623.839844 215.984375 C 619.808594 211.800781 616.59375 206.890625 614.242188 201.300781 C 611.890625 195.65625 610.6875 189.679688 610.6875 183.351562 C 610.6875 177.027344 611.890625 171.046875 614.242188 165.40625 C 616.59375 159.761719 619.8125 154.902344 623.839844 150.71875 C 627.875 146.535156 632.675781 143.230469 638.144531 140.75 C 643.667969 138.269531 649.574219 137.054688 655.957031 137.054688 C 662.335938 137.054688 668.101562 138.269531 673.621094 140.75 C 679.144531 143.230469 683.898438 146.535156 687.976562 150.769531 C 692.054688 155 695.273438 159.910156 697.625 165.453125 C 699.980469 171.046875 701.179688 176.980469 701.179688 183.300781 C 701.179688 189.621094 699.980469 195.605469 697.625 201.152344 Z M 1011.597656 123.25 C 1011.597656 121.402344 1011.210938 119.652344 1010.496094 118 C 1009.773438 116.34375 1008.816406 114.839844 1007.613281 113.574219 C 1006.414062 112.3125 1004.976562 111.285156 1003.34375 110.609375 C 1001.710938 109.929688 999.9375 109.539062 998.066406 109.539062 C 995.375 109.539062 992.972656 110.222656 990.863281 111.632812 L 913.761719 162.941406 L 913.761719 60.027344 C 913.761719 56.136719 912.464844 52.882812 909.828125 50.203125 C 907.1875 47.53125 904.066406 46.171875 900.371094 46.171875 C 896.671875 46.171875 893.410156 47.53125 890.765625 50.203125 C 888.125 52.875 886.832031 56.136719 886.832031 60.027344 L 886.832031 243.367188 C 886.832031 247.15625 888.125 250.417969 890.765625 253.140625 C 893.40625 255.863281 896.574219 257.226562 900.371094 257.226562 C 904.167969 257.226562 907.238281 255.863281 909.828125 253.140625 C 912.464844 250.417969 913.761719 247.15625 913.761719 243.367188 L 913.761719 195.757812 L 929.507812 185.203125 L 989.089844 253.625 C 991.492188 256.007812 994.515625 257.175781 998.113281 257.175781 C 999.988281 257.175781 1001.761719 256.832031 1003.394531 256.105469 C 1005.023438 255.421875 1006.46875 254.402344 1007.664062 253.140625 C 1008.863281 251.878906 1009.824219 250.417969 1010.546875 248.714844 C 1011.265625 247.0625 1011.648438 245.261719 1011.648438 243.464844 C 1011.648438 239.867188 1010.402344 236.65625 1007.902344 233.839844 L 952.449219 169.988281 L 1006.457031 134.101562 C 1009.910156 131.71875 1011.59375 128.070312 1011.59375 123.15625 L 1011.59375 123.253906 Z M 783.324219 150.625 C 787.449219 146.441406 792.257812 143.136719 797.777344 140.75 C 803.300781 138.320312 809.15625 137.101562 815.445312 137.101562 C 821.109375 137.101562 826.34375 138.078125 831.191406 140.019531 C 835.992188 141.964844 840.605469 144.835938 844.96875 148.574219 C 847.558594 150.664062 850.488281 151.734375 853.753906 151.734375 C 857.644531 151.734375 860.8125 150.421875 863.355469 147.792969 C 865.902344 145.164062 867.148438 141.859375 867.148438 137.917969 C 867.148438 133.980469 865.609375 130.332031 862.492188 127.515625 C 849.238281 115.550781 833.546875 109.566406 815.445312 109.566406 C 795.519531 109.566406 778.480469 116.765625 764.363281 131.207031 C 750.246094 145.601562 743.242188 163.011719 743.242188 183.433594 C 743.242188 203.855469 750.300781 221.21875 764.363281 235.664062 C 778.480469 250.054688 795.472656 257.300781 815.445312 257.300781 C 833.496094 257.300781 849.195312 251.324219 862.492188 239.355469 C 865.324219 236.4375 866.769531 233.082031 866.769531 229.191406 C 866.769531 225.304688 865.515625 221.945312 862.976562 219.367188 C 860.429688 216.789062 857.21875 215.476562 853.378906 215.476562 C 850.117188 215.578125 847.277344 216.546875 844.878906 218.394531 C 840.558594 222.183594 836.046875 225.003906 831.199219 226.902344 C 826.398438 228.796875 821.164062 229.722656 815.449219 229.722656 C 809.160156 229.722656 803.304688 228.503906 797.78125 226.074219 C 792.261719 223.644531 787.460938 220.339844 783.328125 216.207031 C 779.203125 212.074219 775.933594 207.113281 773.582031 201.519531 C 771.226562 195.878906 770.027344 189.847656 770.027344 183.429688 C 770.027344 177.007812 771.226562 170.980469 773.582031 165.339844 C 775.933594 159.695312 779.195312 154.835938 783.328125 150.652344 L 783.328125 150.605469 Z M 783.324219 150.625 " fill-opacity="1" fill-rule="nonzero"/></svg>