<svg xmlns="http://www.w3.org/2000/svg" xmlns:xlink="http://www.w3.org/1999/xlink" width="500" zoomAndPan="magnify" viewBox="0 0 375 374.999991" height="500" preserveAspectRatio="xMidYMid meet" version="1.0"><path fill="#ea4335" d="M 235.53125 79.394531 L 246.246094 79.394531 L 276.785156 48.855469 L 278.285156 35.894531 C 276.109375 33.972656 273.875 32.125 271.582031 30.34375 C 269.289062 28.566406 266.941406 26.863281 264.542969 25.230469 C 262.140625 23.601562 259.691406 22.050781 257.191406 20.578125 C 254.691406 19.101562 252.144531 17.707031 249.558594 16.394531 C 246.96875 15.082031 244.34375 13.851562 241.675781 12.707031 C 239.011719 11.558594 236.3125 10.5 233.578125 9.523438 C 230.84375 8.550781 228.082031 7.660156 225.292969 6.863281 C 222.503906 6.0625 219.691406 5.351562 216.855469 4.730469 C 214.023438 4.109375 211.171875 3.578125 208.300781 3.136719 C 205.433594 2.695312 202.554688 2.347656 199.664062 2.085938 C 196.773438 1.828125 193.878906 1.664062 190.976562 1.589844 C 188.074219 1.515625 185.175781 1.53125 182.273438 1.640625 C 179.375 1.75 176.480469 1.953125 173.59375 2.246094 C 170.707031 2.539062 167.832031 2.921875 164.96875 3.398438 C 162.105469 3.875 159.261719 4.4375 156.433594 5.09375 C 153.605469 5.75 150.804688 6.496094 148.023438 7.328125 C 145.242188 8.164062 142.492188 9.082031 139.773438 10.089844 C 137.050781 11.097656 134.363281 12.191406 131.710938 13.371094 C 129.058594 14.550781 126.449219 15.808594 123.875 17.15625 C 121.304688 18.5 118.777344 19.921875 116.296875 21.425781 C 113.8125 22.929688 111.382812 24.511719 109 26.171875 C 106.621094 27.828125 104.292969 29.5625 102.023438 31.367188 C 99.75 33.175781 97.539062 35.050781 95.386719 36.996094 C 93.234375 38.945312 91.144531 40.957031 89.121094 43.035156 C 87.09375 45.113281 85.140625 47.253906 83.25 49.457031 C 81.359375 51.660156 79.542969 53.921875 77.796875 56.238281 C 76.050781 58.558594 74.382812 60.929688 72.785156 63.351562 C 71.191406 65.777344 69.675781 68.25 68.238281 70.769531 C 66.796875 73.289062 65.441406 75.855469 64.164062 78.460938 C 62.890625 81.066406 61.699219 83.710938 60.589844 86.394531 C 59.480469 89.074219 58.460938 91.789062 57.523438 94.535156 C 56.589844 97.28125 55.742188 100.054688 54.980469 102.855469 C 56.683594 102.160156 58.449219 101.757812 60.285156 101.644531 C 62.121094 101.535156 63.921875 101.726562 65.695312 102.214844 L 126.773438 92.144531 C 126.773438 92.144531 129.878906 87 131.488281 87.320312 C 132.296875 86.433594 133.125 85.566406 133.972656 84.71875 C 134.824219 83.867188 135.691406 83.039062 136.582031 82.234375 C 137.46875 81.425781 138.375 80.640625 139.300781 79.875 C 140.226562 79.109375 141.171875 78.367188 142.132812 77.648438 C 143.09375 76.929688 144.070312 76.230469 145.0625 75.558594 C 146.058594 74.882812 147.066406 74.234375 148.089844 73.609375 C 149.113281 72.984375 150.152344 72.382812 151.207031 71.804688 C 152.257812 71.226562 153.324219 70.675781 154.402344 70.148438 C 155.484375 69.621094 156.574219 69.121094 157.675781 68.648438 C 158.777344 68.171875 159.890625 67.722656 161.015625 67.300781 C 162.140625 66.878906 163.273438 66.484375 164.414062 66.113281 C 165.558594 65.746094 166.707031 65.402344 167.867188 65.089844 C 169.027344 64.773438 170.191406 64.488281 171.363281 64.230469 C 172.535156 63.96875 173.714844 63.738281 174.898438 63.535156 C 176.082031 63.332031 177.265625 63.15625 178.460938 63.007812 C 179.652344 62.859375 180.84375 62.742188 182.042969 62.648438 C 183.238281 62.558594 184.4375 62.496094 185.636719 62.460938 C 186.839844 62.425781 188.039062 62.421875 189.238281 62.445312 C 190.4375 62.464844 191.636719 62.515625 192.835938 62.597656 C 194.035156 62.675781 195.230469 62.78125 196.421875 62.917969 C 197.617188 63.054688 198.804688 63.21875 199.988281 63.410156 C 201.175781 63.601562 202.355469 63.820312 203.53125 64.066406 C 204.703125 64.316406 205.871094 64.589844 207.035156 64.894531 C 208.195312 65.195312 209.351562 65.527344 210.496094 65.882812 C 211.640625 66.242188 212.78125 66.625 213.90625 67.035156 C 215.035156 67.445312 216.152344 67.882812 217.261719 68.347656 C 218.367188 68.8125 219.464844 69.300781 220.546875 69.816406 C 221.632812 70.332031 222.703125 70.875 223.761719 71.441406 C 224.820312 72.007812 225.863281 72.597656 226.894531 73.214844 C 227.925781 73.832031 228.941406 74.46875 229.941406 75.132812 C 230.941406 75.796875 231.925781 76.484375 232.894531 77.195312 C 233.863281 77.90625 234.8125 78.636719 235.746094 79.394531 Z M 235.53125 79.394531 " fill-opacity="1" fill-rule="nonzero"/><path fill="#4285f4" d="M 320.289062 102.855469 C 318.542969 96.429688 316.34375 90.160156 313.6875 84.054688 C 311.03125 77.945312 307.949219 72.0625 304.4375 66.402344 C 300.925781 60.742188 297.023438 55.363281 292.734375 50.269531 C 288.441406 45.175781 283.804688 40.421875 278.820312 36 L 235.960938 78.855469 C 238.1875 80.675781 240.304688 82.613281 242.308594 84.671875 C 244.316406 86.730469 246.199219 88.894531 247.960938 91.167969 C 249.722656 93.4375 251.351562 95.800781 252.84375 98.257812 C 254.339844 100.714844 255.6875 103.246094 256.898438 105.855469 C 258.105469 108.464844 259.160156 111.132812 260.066406 113.859375 C 260.96875 116.585938 261.71875 119.359375 262.308594 122.171875 C 262.902344 124.984375 263.332031 127.820312 263.601562 130.683594 C 263.875 133.542969 263.980469 136.410156 263.925781 139.285156 L 263.925781 146.894531 C 265.175781 146.890625 266.425781 146.953125 267.667969 147.074219 C 268.910156 147.195312 270.144531 147.378906 271.371094 147.621094 C 272.597656 147.867188 273.808594 148.167969 275.003906 148.53125 C 276.199219 148.894531 277.375 149.3125 278.53125 149.789062 C 279.6875 150.269531 280.816406 150.800781 281.917969 151.390625 C 283.019531 151.980469 284.089844 152.621094 285.128906 153.316406 C 286.167969 154.007812 287.171875 154.75 288.136719 155.542969 C 289.105469 156.335938 290.027344 157.175781 290.914062 158.058594 C 291.796875 158.941406 292.636719 159.867188 293.429688 160.832031 C 294.222656 161.796875 294.964844 162.800781 295.660156 163.839844 C 296.355469 164.878906 296.996094 165.949219 297.585938 167.050781 C 298.175781 168.152344 298.707031 169.28125 299.1875 170.433594 C 299.664062 171.589844 300.085938 172.765625 300.449219 173.960938 C 300.8125 175.15625 301.113281 176.367188 301.359375 177.59375 C 301.601562 178.816406 301.785156 180.050781 301.910156 181.296875 C 302.03125 182.539062 302.09375 183.785156 302.09375 185.035156 C 302.09375 186.285156 302.03125 187.53125 301.910156 188.777344 C 301.785156 190.019531 301.601562 191.253906 301.359375 192.480469 C 301.113281 193.703125 300.8125 194.914062 300.449219 196.113281 C 300.085938 197.308594 299.664062 198.480469 299.1875 199.636719 C 298.707031 200.792969 298.175781 201.917969 297.585938 203.019531 C 296.996094 204.125 296.355469 205.195312 295.660156 206.234375 C 294.964844 207.269531 294.222656 208.273438 293.429688 209.238281 C 292.636719 210.207031 291.796875 211.128906 290.914062 212.011719 C 290.027344 212.898438 289.105469 213.734375 288.136719 214.527344 C 287.171875 215.320312 286.167969 216.0625 285.128906 216.757812 C 284.089844 217.449219 283.019531 218.09375 281.917969 218.679688 C 280.816406 219.269531 279.6875 219.800781 278.53125 220.28125 C 277.375 220.757812 276.199219 221.179688 275.003906 221.539062 C 273.808594 221.902344 272.597656 222.207031 271.371094 222.449219 C 270.144531 222.691406 268.910156 222.875 267.667969 222.996094 C 266.425781 223.117188 265.175781 223.179688 263.925781 223.179688 L 187.636719 223.179688 L 180.027344 230.894531 L 180.027344 276.644531 L 187.636719 284.25 L 263.925781 284.25 C 266.570312 284.269531 269.207031 284.1875 271.84375 283.996094 C 274.476562 283.804688 277.101562 283.511719 279.710938 283.109375 C 282.324219 282.710938 284.914062 282.207031 287.488281 281.601562 C 290.058594 280.996094 292.601562 280.285156 295.117188 279.476562 C 297.628906 278.667969 300.109375 277.757812 302.550781 276.75 C 304.992188 275.742188 307.390625 274.640625 309.746094 273.441406 C 312.097656 272.242188 314.402344 270.949219 316.652344 269.566406 C 318.902344 268.183594 321.09375 266.714844 323.226562 265.15625 C 325.359375 263.597656 327.429688 261.957031 329.429688 260.230469 C 331.433594 258.507812 333.363281 256.707031 335.222656 254.832031 C 337.082031 252.953125 338.859375 251.003906 340.5625 248.984375 C 342.265625 246.964844 343.886719 244.882812 345.421875 242.730469 C 346.957031 240.582031 348.40625 238.375 349.765625 236.109375 C 351.125 233.847656 352.394531 231.53125 353.570312 229.164062 C 354.742188 226.800781 355.824219 224.390625 356.804688 221.9375 C 357.789062 219.484375 358.671875 217 359.453125 214.476562 C 360.238281 211.953125 360.921875 209.402344 361.5 206.824219 C 362.082031 204.25 362.558594 201.652344 362.929688 199.039062 C 363.304688 196.421875 363.570312 193.796875 363.734375 191.160156 C 363.898438 188.523438 363.953125 185.882812 363.90625 183.242188 C 363.859375 180.601562 363.707031 177.964844 363.449219 175.335938 C 363.1875 172.707031 362.828125 170.09375 362.359375 167.496094 C 361.890625 164.894531 361.320312 162.316406 360.648438 159.761719 C 359.976562 157.207031 359.203125 154.683594 358.328125 152.191406 C 357.453125 149.699219 356.480469 147.246094 355.410156 144.832031 C 354.339844 142.414062 353.171875 140.046875 351.914062 137.726562 C 350.652344 135.402344 349.304688 133.136719 347.863281 130.921875 C 346.421875 128.707031 344.894531 126.554688 343.28125 124.460938 C 341.667969 122.371094 339.972656 120.34375 338.199219 118.390625 C 336.425781 116.433594 334.574219 114.550781 332.648438 112.738281 C 330.722656 110.929688 328.730469 109.203125 326.667969 107.550781 C 324.605469 105.902344 322.476562 104.335938 320.289062 102.855469 Z M 320.289062 102.855469 " fill-opacity="1" fill-rule="nonzero"/><path fill="#34a853" d="M 111.234375 283.820312 L 187.527344 283.820312 L 187.527344 222.75 L 111.234375 222.75 C 105.738281 222.75 100.484375 221.605469 95.484375 219.320312 L 84.769531 222.644531 L 54.015625 253.179688 L 51.335938 263.894531 C 55.621094 267.125 60.136719 269.992188 64.886719 272.488281 C 69.636719 274.984375 74.558594 277.082031 79.648438 278.773438 C 84.742188 280.46875 89.9375 281.738281 95.238281 282.585938 C 100.535156 283.433594 105.871094 283.84375 111.234375 283.820312 Z M 111.234375 283.820312 " fill-opacity="1" fill-rule="nonzero"/><path fill="#fbbc05" d="M 111.234375 85.714844 C 108.671875 85.730469 106.109375 85.84375 103.554688 86.058594 C 101 86.273438 98.457031 86.585938 95.925781 86.996094 C 93.394531 87.40625 90.882812 87.914062 88.390625 88.519531 C 85.898438 89.125 83.433594 89.828125 80.996094 90.625 C 78.558594 91.421875 76.15625 92.3125 73.785156 93.292969 C 71.417969 94.277344 69.089844 95.351562 66.804688 96.515625 C 64.519531 97.679688 62.285156 98.929688 60.09375 100.265625 C 57.90625 101.601562 55.773438 103.023438 53.695312 104.523438 C 51.617188 106.027344 49.601562 107.605469 47.644531 109.265625 C 45.6875 110.925781 43.800781 112.65625 41.976562 114.460938 C 40.15625 116.265625 38.40625 118.140625 36.730469 120.082031 C 35.054688 122.023438 33.457031 124.023438 31.9375 126.089844 C 30.414062 128.152344 28.976562 130.273438 27.621094 132.449219 C 26.265625 134.628906 24.992188 136.851562 23.808594 139.128906 C 22.625 141.402344 21.53125 143.71875 20.527344 146.078125 C 19.523438 148.4375 18.613281 150.832031 17.792969 153.265625 C 16.976562 155.695312 16.253906 158.152344 15.625 160.636719 C 14.996094 163.125 14.464844 165.632812 14.03125 168.160156 C 13.597656 170.6875 13.265625 173.226562 13.027344 175.78125 C 12.792969 178.332031 12.65625 180.894531 12.617188 183.457031 C 12.578125 186.019531 12.640625 188.582031 12.800781 191.140625 C 12.960938 193.699219 13.21875 196.25 13.578125 198.789062 C 13.9375 201.328125 14.394531 203.851562 14.945312 206.355469 C 15.5 208.859375 16.152344 211.335938 16.898438 213.789062 C 17.644531 216.242188 18.484375 218.664062 19.417969 221.050781 C 20.351562 223.441406 21.375 225.789062 22.492188 228.097656 C 23.605469 230.40625 24.8125 232.667969 26.101562 234.882812 C 27.394531 237.101562 28.769531 239.261719 30.226562 241.371094 C 31.6875 243.480469 33.226562 245.527344 34.84375 247.519531 C 36.460938 249.507812 38.152344 251.433594 39.921875 253.289062 C 41.6875 255.148438 43.523438 256.9375 45.429688 258.652344 C 47.335938 260.367188 49.304688 262.007812 51.335938 263.570312 L 95.589844 219.320312 C 94.890625 219.003906 94.203125 218.667969 93.523438 218.3125 C 92.84375 217.953125 92.175781 217.574219 91.519531 217.175781 C 90.863281 216.777344 90.21875 216.359375 89.585938 215.925781 C 88.957031 215.488281 88.335938 215.03125 87.734375 214.558594 C 87.128906 214.082031 86.542969 213.589844 85.96875 213.082031 C 85.394531 212.570312 84.835938 212.042969 84.292969 211.5 C 83.75 210.957031 83.222656 210.398438 82.714844 209.824219 C 82.207031 209.246094 81.714844 208.65625 81.242188 208.050781 C 80.769531 207.449219 80.316406 206.828125 79.882812 206.195312 C 79.445312 205.5625 79.03125 204.917969 78.632812 204.261719 C 78.238281 203.605469 77.859375 202.9375 77.503906 202.253906 C 77.148438 201.574219 76.8125 200.886719 76.496094 200.183594 C 76.183594 199.484375 75.890625 198.773438 75.617188 198.058594 C 75.347656 197.339844 75.097656 196.613281 74.871094 195.878906 C 74.640625 195.144531 74.4375 194.40625 74.253906 193.660156 C 74.070312 192.914062 73.910156 192.164062 73.769531 191.410156 C 73.632812 190.65625 73.519531 189.894531 73.425781 189.132812 C 73.335938 188.371094 73.265625 187.605469 73.21875 186.839844 C 73.171875 186.074219 73.152344 185.308594 73.152344 184.539062 C 73.152344 183.769531 73.175781 183.003906 73.222656 182.238281 C 73.269531 181.472656 73.339844 180.707031 73.429688 179.945312 C 73.523438 179.183594 73.640625 178.425781 73.777344 177.667969 C 73.917969 176.914062 74.078125 176.164062 74.261719 175.417969 C 74.449219 174.671875 74.652344 173.933594 74.882812 173.199219 C 75.109375 172.46875 75.363281 171.742188 75.632812 171.023438 C 75.90625 170.308594 76.199219 169.597656 76.515625 168.898438 C 76.832031 168.199219 77.167969 167.507812 77.523438 166.828125 C 77.882812 166.148438 78.257812 165.480469 78.65625 164.824219 C 79.054688 164.164062 79.46875 163.523438 79.90625 162.890625 C 80.34375 162.257812 80.796875 161.640625 81.269531 161.035156 C 81.746094 160.429688 82.238281 159.839844 82.746094 159.265625 C 83.253906 158.691406 83.78125 158.132812 84.324219 157.589844 C 84.867188 157.046875 85.425781 156.523438 86 156.011719 C 86.574219 155.503906 87.164062 155.011719 87.769531 154.539062 C 88.375 154.066406 88.992188 153.609375 89.625 153.171875 C 90.253906 152.738281 90.898438 152.320312 91.558594 151.921875 C 92.214844 151.527344 92.882812 151.148438 93.5625 150.792969 C 94.242188 150.433594 94.933594 150.097656 95.632812 149.785156 C 96.332031 149.46875 97.042969 149.175781 97.757812 148.902344 C 98.476562 148.628906 99.203125 148.378906 99.9375 148.148438 C 100.667969 147.921875 101.40625 147.714844 102.152344 147.53125 C 102.898438 147.347656 103.648438 147.183594 104.40625 147.046875 C 105.160156 146.90625 105.917969 146.792969 106.679688 146.699219 C 107.441406 146.605469 108.207031 146.535156 108.972656 146.488281 C 109.738281 146.441406 110.507812 146.417969 111.273438 146.417969 C 112.042969 146.417969 112.808594 146.441406 113.578125 146.488281 C 114.34375 146.53125 115.105469 146.601562 115.871094 146.695312 C 116.632812 146.785156 117.390625 146.902344 118.144531 147.039062 C 118.902344 147.175781 119.652344 147.335938 120.398438 147.519531 C 121.144531 147.703125 121.882812 147.910156 122.617188 148.136719 C 123.351562 148.363281 124.074219 148.613281 124.792969 148.886719 C 125.511719 149.15625 126.222656 149.449219 126.921875 149.765625 C 127.621094 150.078125 128.3125 150.414062 128.992188 150.769531 C 129.671875 151.128906 130.34375 151.503906 131 151.898438 C 131.65625 152.296875 132.300781 152.710938 132.933594 153.148438 C 133.566406 153.582031 134.183594 154.039062 134.789062 154.511719 C 135.394531 154.984375 135.984375 155.472656 136.5625 155.984375 C 137.136719 156.492188 137.695312 157.015625 138.238281 157.558594 C 138.78125 158.101562 139.308594 158.660156 139.820312 159.234375 C 140.328125 159.808594 140.820312 160.398438 141.296875 161 C 141.769531 161.605469 142.226562 162.222656 142.664062 162.851562 C 143.101562 163.484375 143.515625 164.128906 143.914062 164.785156 C 144.3125 165.441406 144.691406 166.109375 145.050781 166.789062 C 145.40625 167.46875 145.742188 168.15625 146.058594 168.855469 L 190.3125 124.605469 C 188 121.582031 185.519531 118.699219 182.871094 115.960938 C 180.226562 113.21875 177.429688 110.640625 174.484375 108.226562 C 171.542969 105.808594 168.46875 103.566406 165.265625 101.503906 C 162.0625 99.441406 158.753906 97.570312 155.335938 95.890625 C 151.917969 94.207031 148.414062 92.730469 144.824219 91.453125 C 141.234375 90.175781 137.585938 89.109375 133.875 88.25 C 130.164062 87.394531 126.414062 86.753906 122.628906 86.332031 C 118.84375 85.90625 115.046875 85.699219 111.234375 85.714844 Z M 111.234375 85.714844 " fill-opacity="1" fill-rule="nonzero"/></svg>