<svg xmlns="http://www.w3.org/2000/svg" xmlns:xlink="http://www.w3.org/1999/xlink" width="500" zoomAndPan="magnify" viewBox="0 0 375 374.999991" height="500" preserveAspectRatio="xMidYMid meet" version="1.0"><defs><clipPath id="b891ae46ac"><path d="M 0 0 L 375 0 L 375 365.25 L 0 365.25 Z M 0 0 " clip-rule="nonzero"/></clipPath></defs><path fill="#ffffff" d="M 333.714844 87.476562 C 331.6875 80.984375 326.820312 75.707031 320.738281 72.460938 L 197.066406 13.222656 C 193.824219 11.597656 190.171875 11.191406 186.929688 11.191406 C 183.683594 11.191406 180.035156 11.191406 176.792969 12.003906 L 53.117188 71.648438 C 47.035156 74.492188 42.574219 79.765625 40.953125 86.664062 L 10.542969 220.15625 C 9.328125 227.054688 10.949219 233.953125 15.003906 239.632812 L 100.558594 345.535156 C 105.425781 350.40625 112.320312 353.652344 119.210938 354.058594 L 255.457031 354.058594 C 262.753906 354.867188 269.648438 351.621094 274.109375 345.535156 L 359.667969 239.632812 C 363.722656 233.953125 365.34375 227.054688 364.53125 220.15625 Z M 333.714844 87.476562 " fill-opacity="1" fill-rule="nonzero"/><g clip-path="url(#b891ae46ac)"><path stroke-linecap="butt" transform="matrix(4.05486, 0, 0, 4.057574, 0.0000045, 1.04854)" fill="none" stroke-linejoin="miter" d="M 82.299971 21.300416 C 81.799992 19.700399 80.599658 18.399784 79.099722 17.599775 L 48.600054 3.000343 C 47.800473 2.599858 46.899741 2.499736 46.10016 2.499736 C 45.299616 2.499736 44.399847 2.499736 43.600266 2.699979 L 13.099635 17.399533 C 11.599699 18.100382 10.499553 19.400035 10.099763 21.100173 L 2.600081 53.999678 C 2.300479 55.699816 2.70027 57.399955 3.700227 58.799729 L 24.799523 84.899643 C 25.999858 86.100137 27.700171 86.900146 29.399521 87.000267 L 63.000213 87.000267 C 64.799751 87.199547 66.500064 86.399539 67.60021 84.899643 L 88.70047 58.799729 C 89.700428 57.399955 90.100218 55.699816 89.899841 53.999678 Z M 82.299971 21.300416 " stroke="#ffffff" stroke-width="5" stroke-opacity="1" stroke-miterlimit="10"/></g><path fill="#326de6" d="M 333.714844 87.476562 C 331.6875 80.984375 326.820312 75.707031 320.738281 72.460938 L 197.066406 13.222656 C 193.824219 11.597656 190.171875 11.191406 186.929688 11.191406 C 183.683594 11.191406 180.035156 11.191406 176.792969 12.003906 L 53.117188 71.648438 C 47.035156 74.492188 42.574219 79.765625 40.953125 86.664062 L 10.542969 220.15625 C 9.328125 227.054688 10.949219 233.953125 15.003906 239.632812 L 100.558594 345.535156 C 105.425781 350.40625 112.320312 353.652344 119.210938 354.058594 L 255.457031 354.058594 C 262.753906 354.867188 269.648438 351.621094 274.109375 345.535156 L 359.667969 239.632812 C 363.722656 233.953125 365.34375 227.054688 364.53125 220.15625 Z M 333.714844 87.476562 " fill-opacity="1" fill-rule="nonzero"/><path fill="#ffffff" d="M 314.65625 214.882812 C 314.25 214.882812 313.847656 214.882812 313.847656 214.476562 C 313.847656 214.070312 313.035156 214.070312 312.222656 214.070312 C 310.601562 213.664062 308.980469 213.664062 307.359375 213.664062 C 306.546875 213.664062 305.738281 213.664062 304.925781 213.257812 L 304.519531 213.257812 C 300.058594 212.855469 295.195312 212.042969 290.734375 210.824219 C 289.515625 210.417969 288.300781 209.203125 287.894531 207.984375 C 288.300781 207.984375 287.894531 207.984375 287.894531 207.984375 L 284.652344 207.171875 C 286.273438 195.40625 285.460938 183.234375 283.027344 171.464844 C 280.191406 159.699219 275.324219 148.339844 268.835938 138.195312 L 271.269531 135.761719 L 271.269531 135.355469 C 271.269531 134.136719 271.675781 132.515625 272.488281 131.703125 C 276.136719 128.457031 279.785156 126.023438 283.839844 123.585938 C 284.652344 123.179688 285.460938 122.777344 286.273438 122.371094 C 287.894531 121.558594 289.113281 120.746094 290.734375 119.933594 C 291.140625 119.53125 291.542969 119.53125 291.949219 119.125 C 292.355469 118.71875 291.949219 118.71875 291.949219 118.3125 C 295.597656 115.472656 296.410156 110.601562 293.570312 106.953125 C 292.355469 105.328125 289.921875 104.109375 287.894531 104.109375 C 285.867188 104.109375 283.839844 104.921875 282.21875 106.140625 L 281.8125 106.546875 C 281.40625 106.953125 281 107.355469 280.597656 107.355469 C 279.378906 108.574219 278.164062 109.792969 277.351562 111.007812 C 276.945312 111.820312 276.136719 112.226562 275.730469 112.632812 C 272.890625 115.878906 269.242188 119.125 265.59375 121.558594 C 264.78125 121.964844 263.972656 122.371094 263.160156 122.371094 C 262.753906 122.371094 261.945312 122.371094 261.539062 121.964844 L 261.132812 121.964844 L 257.890625 123.992188 C 254.644531 120.746094 250.996094 117.5 247.75 114.253906 C 232.75 102.488281 214.097656 95.183594 195.039062 93.15625 L 194.632812 89.910156 L 194.632812 90.316406 C 193.417969 89.503906 193.011719 88.285156 192.605469 87.070312 C 192.605469 82.605469 192.605469 78.140625 193.417969 73.273438 L 193.417969 72.867188 C 193.417969 72.054688 193.824219 71.246094 193.824219 70.433594 C 194.226562 68.808594 194.226562 67.1875 194.632812 65.5625 L 194.632812 63.128906 C 195.039062 59.070312 191.792969 55.015625 187.738281 54.609375 C 185.308594 54.203125 182.875 55.421875 180.847656 57.449219 C 179.226562 59.070312 178.414062 61.101562 178.414062 63.128906 L 178.414062 65.160156 C 178.414062 66.78125 178.820312 68.402344 179.226562 70.027344 C 179.628906 70.839844 179.628906 71.648438 179.628906 72.460938 L 179.628906 72.867188 C 180.441406 77.332031 180.441406 81.792969 180.441406 86.664062 C 180.035156 87.878906 179.628906 89.097656 178.414062 89.910156 L 178.414062 90.722656 L 178.007812 93.96875 C 173.546875 94.371094 169.085938 95.183594 164.222656 95.996094 C 145.164062 100.054688 127.726562 110.199219 114.347656 124.398438 L 111.914062 122.777344 L 111.507812 122.777344 C 111.101562 122.777344 110.699219 123.179688 109.886719 123.179688 C 109.074219 123.179688 108.265625 122.777344 107.453125 122.371094 C 103.804688 119.53125 100.15625 116.285156 97.316406 113.039062 C 96.910156 112.226562 96.101562 111.820312 95.695312 111.414062 C 94.476562 110.199219 93.667969 108.980469 92.449219 107.761719 C 92.046875 107.355469 91.640625 107.355469 91.234375 106.953125 C 90.828125 106.546875 90.828125 106.546875 90.828125 106.546875 C 89.207031 105.328125 87.179688 104.515625 85.152344 104.515625 C 82.71875 104.515625 80.691406 105.328125 79.476562 107.355469 C 77.042969 111.007812 77.851562 115.878906 81.097656 118.71875 C 81.503906 118.71875 81.503906 119.125 81.503906 119.125 C 81.503906 119.125 82.3125 119.933594 82.71875 119.933594 C 83.9375 120.746094 85.558594 121.558594 87.179688 122.371094 C 87.992188 122.777344 88.800781 123.179688 89.613281 123.585938 C 93.667969 126.023438 97.722656 128.457031 100.964844 131.703125 C 101.777344 132.515625 102.589844 134.136719 102.183594 135.355469 L 102.183594 134.949219 L 104.617188 137.382812 C 104.210938 138.195312 103.804688 138.601562 103.398438 139.410156 C 90.828125 159.292969 85.558594 182.828125 89.207031 205.957031 L 85.964844 206.765625 C 85.964844 207.171875 85.558594 207.171875 85.558594 207.171875 C 85.152344 208.390625 83.9375 209.203125 82.71875 210.011719 C 78.257812 211.230469 73.796875 212.042969 68.933594 212.449219 C 68.121094 212.449219 67.3125 212.449219 66.5 212.855469 C 64.878906 212.855469 63.253906 213.257812 61.632812 213.257812 C 61.226562 213.257812 60.824219 213.664062 60.011719 213.664062 C 59.605469 213.664062 59.605469 213.664062 59.199219 214.070312 C 54.742188 214.882812 51.902344 218.941406 52.714844 223.402344 C 53.523438 227.054688 57.171875 229.488281 60.824219 229.085938 C 61.632812 229.085938 62.039062 229.085938 62.851562 228.679688 C 63.253906 228.679688 63.253906 228.679688 63.253906 228.273438 C 63.253906 227.867188 64.472656 228.273438 64.878906 228.273438 C 66.5 227.867188 68.121094 227.054688 69.339844 226.648438 C 70.148438 226.242188 70.960938 225.839844 71.769531 225.839844 L 72.175781 225.839844 C 76.636719 224.214844 80.691406 222.996094 85.558594 222.1875 L 85.964844 222.1875 C 87.179688 222.1875 88.394531 222.59375 89.207031 223.402344 C 89.613281 223.402344 89.613281 223.808594 89.613281 223.808594 L 93.261719 223.402344 C 99.34375 242.070312 110.699219 258.703125 126.511719 270.878906 C 130.160156 273.71875 133.40625 276.152344 137.460938 278.179688 L 135.433594 281.019531 C 135.433594 281.425781 135.835938 281.425781 135.835938 281.425781 C 136.648438 282.644531 136.648438 284.265625 136.242188 285.484375 C 134.621094 289.542969 132.1875 293.601562 129.753906 297.25 L 129.753906 297.65625 C 129.351562 298.46875 128.945312 298.875 128.132812 299.6875 C 127.324219 300.496094 126.511719 302.121094 125.296875 303.742188 C 124.890625 304.148438 124.890625 304.554688 124.484375 304.960938 C 124.484375 304.960938 124.484375 305.367188 124.078125 305.367188 C 122.050781 309.425781 123.671875 314.292969 127.324219 316.320312 C 128.132812 316.726562 129.351562 317.132812 130.160156 317.132812 C 133.40625 317.132812 136.242188 315.105469 137.863281 312.265625 C 137.863281 312.265625 137.863281 311.859375 138.269531 311.859375 C 138.269531 311.453125 138.675781 311.046875 139.082031 310.640625 C 139.488281 309.019531 140.296875 307.800781 140.703125 306.179688 L 141.515625 303.742188 C 142.730469 299.28125 144.757812 295.222656 146.785156 291.164062 C 147.597656 289.949219 148.8125 289.136719 150.03125 288.730469 C 150.433594 288.730469 150.433594 288.730469 150.433594 288.324219 L 152.058594 285.078125 C 163.410156 289.542969 175.171875 291.570312 187.335938 291.570312 C 194.632812 291.570312 201.933594 290.757812 209.230469 288.730469 C 213.691406 287.917969 218.152344 286.296875 222.207031 285.078125 L 223.828125 287.917969 C 224.234375 287.917969 224.234375 287.917969 224.234375 288.324219 C 225.449219 288.730469 226.667969 289.542969 227.476562 290.757812 C 229.503906 294.816406 231.53125 298.875 232.75 303.335938 L 232.75 303.742188 L 233.558594 306.179688 C 233.964844 307.800781 234.371094 309.425781 235.183594 310.640625 C 235.585938 311.046875 235.585938 311.453125 235.992188 311.859375 C 235.992188 311.859375 235.992188 312.265625 236.398438 312.265625 C 238.019531 315.105469 240.859375 317.132812 244.101562 317.132812 C 245.320312 317.132812 246.128906 316.726562 247.347656 316.320312 C 248.96875 315.511719 250.589844 313.886719 250.996094 311.859375 C 251.402344 309.828125 251.402344 307.800781 250.589844 305.773438 C 250.589844 305.367188 250.183594 305.367188 250.183594 305.367188 C 250.183594 304.960938 249.78125 304.554688 249.375 304.148438 C 248.5625 302.527344 247.75 301.308594 246.535156 300.089844 C 246.128906 299.28125 245.722656 298.875 244.914062 298.0625 L 244.914062 297.25 C 242.074219 293.601562 240.046875 289.542969 238.425781 285.484375 C 238.019531 284.265625 238.019531 282.644531 238.832031 281.425781 C 238.832031 281.019531 239.238281 281.019531 239.238281 281.019531 L 238.019531 277.773438 C 258.699219 265.195312 274.515625 245.71875 281.8125 222.59375 L 285.058594 222.996094 C 285.460938 222.996094 285.460938 222.59375 285.460938 222.59375 C 286.273438 221.78125 287.488281 221.375 288.707031 221.375 L 289.113281 221.375 C 293.570312 222.1875 298.03125 223.402344 302.085938 225.027344 L 302.492188 225.027344 C 303.304688 225.433594 304.113281 225.839844 304.925781 225.839844 C 306.546875 226.648438 307.765625 227.460938 309.386719 227.867188 C 309.792969 227.867188 310.195312 228.273438 311.007812 228.273438 C 311.414062 228.273438 311.414062 228.273438 311.820312 228.679688 C 312.628906 229.085938 313.035156 229.085938 313.847656 229.085938 C 317.496094 229.085938 320.738281 226.648438 321.957031 223.402344 C 321.550781 218.941406 318.304688 215.695312 314.65625 214.882812 Z M 197.472656 202.304688 L 186.523438 207.578125 L 175.574219 202.304688 L 172.738281 190.539062 L 180.441406 180.800781 L 192.605469 180.800781 L 200.308594 190.539062 Z M 263.566406 175.929688 C 265.59375 184.449219 266 192.972656 265.1875 201.492188 L 226.667969 190.539062 C 223.015625 189.726562 220.988281 186.074219 221.800781 182.421875 C 222.207031 181.203125 222.613281 180.394531 223.421875 179.582031 L 253.835938 151.992188 C 258.292969 159.292969 261.539062 167.410156 263.566406 175.929688 Z M 241.667969 136.976562 L 208.417969 160.511719 C 205.582031 162.132812 201.527344 161.726562 199.5 158.886719 C 198.6875 158.078125 198.28125 157.265625 198.28125 156.046875 L 195.851562 115.066406 C 213.691406 117.09375 229.503906 124.804688 241.667969 136.976562 Z M 168.277344 116.285156 L 176.386719 114.660156 L 174.359375 155.238281 C 174.359375 158.886719 171.113281 161.726562 167.464844 161.726562 C 166.25 161.726562 165.4375 161.324219 164.222656 160.917969 L 130.566406 136.976562 C 141.109375 126.832031 154.085938 119.53125 168.277344 116.285156 Z M 118.808594 151.992188 L 148.8125 178.769531 C 151.652344 181.203125 152.058594 185.261719 149.625 188.101562 C 148.8125 189.320312 148.003906 189.726562 146.378906 190.132812 L 107.046875 201.492188 C 105.832031 184.449219 109.886719 167.003906 118.808594 151.992188 Z M 111.914062 220.5625 L 152.058594 213.664062 C 155.300781 213.664062 158.546875 215.695312 158.949219 218.941406 C 159.355469 220.15625 159.355469 221.78125 158.546875 222.996094 L 143.136719 260.328125 C 128.945312 250.996094 117.589844 236.792969 111.914062 220.5625 Z M 203.960938 270.878906 C 198.28125 272.09375 192.605469 272.90625 186.523438 272.90625 C 178.007812 272.90625 169.085938 271.28125 160.976562 268.847656 L 180.847656 232.734375 C 182.875 230.300781 186.117188 229.488281 188.957031 231.113281 C 190.171875 231.925781 190.984375 232.734375 192.199219 233.953125 L 211.664062 269.253906 C 209.230469 269.660156 206.796875 270.066406 203.960938 270.878906 Z M 253.429688 235.578125 C 247.347656 245.316406 238.832031 253.835938 229.097656 259.921875 L 213.285156 221.78125 C 212.476562 218.535156 214.097656 215.289062 216.933594 214.070312 C 218.152344 213.664062 219.367188 213.257812 220.585938 213.257812 L 261.132812 220.15625 C 259.105469 225.839844 256.671875 231.113281 253.429688 235.578125 Z M 253.429688 235.578125 " fill-opacity="1" fill-rule="nonzero"/></svg>