<svg xmlns="http://www.w3.org/2000/svg" xmlns:xlink="http://www.w3.org/1999/xlink" width="500" zoomAndPan="magnify" viewBox="0 0 375 374.999991" height="500" preserveAspectRatio="xMidYMid meet" version="1.0"><defs><clipPath id="7dede1e72b"><path d="M 196 0 L 373.5 0 L 373.5 178 L 196 178 Z M 196 0 " clip-rule="nonzero"/></clipPath><clipPath id="bb65a8f664"><path d="M 196 197 L 373.5 197 L 373.5 375 L 196 375 Z M 196 197 " clip-rule="nonzero"/></clipPath></defs><path fill="#0078d4" d="M 0 0.675781 L 177.097656 0.675781 L 177.097656 177.78125 L 0 177.78125 Z M 0 0.675781 " fill-opacity="1" fill-rule="nonzero"/><g clip-path="url(#7dede1e72b)"><path fill="#0078d4" d="M 196.53125 0.675781 L 373.628906 0.675781 L 373.628906 177.78125 L 196.53125 177.78125 Z M 196.53125 0.675781 " fill-opacity="1" fill-rule="nonzero"/></g><path fill="#0078d4" d="M 0 197.226562 L 177.097656 197.226562 L 177.097656 374.332031 L 0 374.332031 Z M 0 197.226562 " fill-opacity="1" fill-rule="nonzero"/><g clip-path="url(#bb65a8f664)"><path fill="#0078d4" d="M 196.53125 197.226562 L 373.628906 197.226562 L 373.628906 374.332031 L 196.53125 374.332031 Z M 196.53125 197.226562 " fill-opacity="1" fill-rule="nonzero"/></g></svg>